<?xml version="1.0" encoding="UTF-8" standalone="no"?>
<!-- Created with Inkscape (http://www.inkscape.org/) -->

<svg
   xmlns:dc="http://purl.org/dc/elements/1.1/"
   xmlns:cc="http://creativecommons.org/ns#"
   xmlns:rdf="http://www.w3.org/1999/02/22-rdf-syntax-ns#"
   xmlns:svg="http://www.w3.org/2000/svg"
   xmlns="http://www.w3.org/2000/svg"
   xmlns:sodipodi="http://sodipodi.sourceforge.net/DTD/sodipodi-0.dtd"
   xmlns:inkscape="http://www.inkscape.org/namespaces/inkscape"
   width="744.09448819"
   height="1052.3622047"
   id="svg2"
   version="1.1"
   inkscape:version="0.47pre1 r21720"
   sodipodi:docname="2009JulyThrDrawing2.svg"
   inkscape:output_extension="org.inkscape.output.svg.inkscape">
  <defs
     id="defs4">
    <inkscape:perspective
       sodipodi:type="inkscape:persp3d"
       inkscape:vp_x="0 : 526.18109 : 1"
       inkscape:vp_y="0 : 1000 : 0"
       inkscape:vp_z="744.09448 : 526.18109 : 1"
       inkscape:persp3d-origin="372.04724 : 350.78739 : 1"
       id="perspective10" />
    <filter
       id="filter2926"
       inkscape:label="Torn edges"
       inkscape:menu="Distort"
       inkscape:menu-tooltip="Displace the outside of shapes and pictures without altering their content"
       height="1.4"
       y="-0.2"
       width="1.4"
       x="-0.2">
      <feTurbulence
         id="feTurbulence2928"
         baseFrequency="0.050000000000000003"
         numOctaves="5"
         type="fractalNoise"
         result="result1" />
      <feDisplacementMap
         id="feDisplacementMap2930"
         in2="result1"
         scale="25"
         result="result5"
         xChannelSelector="R"
         in="SourceGraphic" />
      <feComposite
         id="feComposite2932"
         in2="result5"
         in="SourceGraphic"
         operator="atop" />
    </filter>
  </defs>
  <sodipodi:namedview
     id="base"
     pagecolor="#ffffff"
     bordercolor="#666666"
     borderopacity="1.0"
     inkscape:pageopacity="0.0"
     inkscape:pageshadow="2"
     inkscape:zoom="1"
     inkscape:cx="263.5"
     inkscape:cy="785.8125"
     inkscape:document-units="px"
     inkscape:current-layer="layer6"
     showgrid="false"
     inkscape:window-width="1517"
     inkscape:window-height="1080"
     inkscape:window-x="0"
     inkscape:window-y="0"
     inkscape:window-maximized="0"
     showguides="true"
     inkscape:guide-bbox="true" />
  <metadata
     id="metadata7">
    <rdf:RDF>
      <cc:Work
         rdf:about="">
        <dc:format>image/svg+xml</dc:format>
        <dc:type
           rdf:resource="http://purl.org/dc/dcmitype/StillImage" />
        <dc:title></dc:title>
      </cc:Work>
    </rdf:RDF>
  </metadata>
  <g
     inkscape:groupmode="layer"
     id="layer5"
     inkscape:label="Welcome to ThrillDesigns open source act 1"
     style="display:inline" />
  <g
     inkscape:groupmode="layer"
     id="layer6"
     inkscape:label="Layer">
    <flowRoot
       xml:space="preserve"
       id="flowRoot2957"
       style="font-size:40px;font-style:normal;font-weight:bold;fill:#000000;fill-opacity:1;stroke:none;font-family:Adobe Myungjo Std M;-inkscape-font-specification:Adobe Myungjo Std M Medium;font-stretch:normal;font-variant:normal"><flowRegion
         id="flowRegion2959"><rect
           id="rect2961"
           width="282"
           height="43"
           x="162"
           y="181.36218"
           style="-inkscape-font-specification:Adobe Myungjo Std M Medium;font-family:Adobe Myungjo Std M;font-weight:bold;font-style:normal;font-stretch:normal;font-variant:normal" /></flowRegion><flowPara
         id="flowPara2963" /></flowRoot>    <text
       xml:space="preserve"
       style="font-size:40px;font-style:normal;font-variant:normal;font-weight:bold;font-stretch:normal;fill:#000000;fill-opacity:1;stroke:none;font-family:Adobe Myungjo Std M;-inkscape-font-specification:Adobe Myungjo Std M Bold"
       x="296"
       y="188.36218"
       id="text2965"><tspan
         sodipodi:role="line"
         id="tspan2967"
         x="171.36218"
         y="313"
         style="font-style:normal;font-variant:normal;font-weight:bold;font-stretch:normal;writing-mode:tb-rl;font-family:Adobe Myungjo Std M;-inkscape-font-specification:Adobe Myungjo Std M Bold">designs.COM</tspan></text>
  </g>
  <g
     inkscape:label="vague box"
     inkscape:groupmode="layer"
     id="layer1"
     style="opacity:0.06956524;display:inline"
     sodipodi:insensitive="true">
    <rect
       style="fill:#c4c8b7"
       id="rect2820"
       width="651"
       height="181"
       x="46"
       y="32.362183" />
    <path
       style="fill:#c4c8b7"
       id="path2824"
       d="m 42.547824,36.100145 c 0.144062,-0.0234 0.287922,-0.04796 0.43183,-0.07227 0.174658,-0.02763 0.349003,-0.05725 0.523465,-0.08609 0.227943,-0.03929 0.456665,-0.07383 0.685107,-0.110061 0.288819,-0.04383 0.577304,-0.0898 0.866184,-0.133244 0.340915,-0.05106 0.68179,-0.102458 1.022513,-0.154795 0.387361,-0.06095 0.775296,-0.118126 1.16343,-0.173919 0.433764,-0.06609 0.868042,-0.128578 1.302833,-0.187512 0.506638,-0.06698 1.01322,-0.134339 1.519585,-0.203346 0.570067,-0.07577 1.139192,-0.158344 1.708584,-0.238968 0.637722,-0.09059 1.274763,-0.185851 1.912225,-0.278233 0.696293,-0.0994 1.392386,-0.200168 2.089336,-0.294868 0.826498,-0.116673 1.655447,-0.213913 2.485004,-0.305786 0.971224,-0.106891 1.944499,-0.193817 2.917782,-0.279456 1.125029,-0.09812 2.250909,-0.186057 3.377418,-0.265286 1.323476,-0.09339 2.648311,-0.164881 3.973398,-0.230675 1.502462,-0.07211 3.005637,-0.12727 4.50887,-0.180212 1.64931,-0.05592 3.299054,-0.09776 4.94888,-0.134857 1.767865,-0.04092 3.535982,-0.06835 5.304158,-0.09123 1.879057,-0.02178 3.758194,-0.03463 5.637363,-0.04099 1.974026,-0.0074 3.948056,-0.0038 5.922072,0.0041 2.0344,0.0072 4.06877,0.02108 6.103099,0.03954 2.09224,0.01953 4.18438,0.04881 6.27647,0.08095 2.11529,0.03319 4.23059,0.06661 6.34588,0.09989 2.09635,0.03235 4.19269,0.06533 6.28895,0.103095 2.17929,0.03856 4.35809,0.09869 6.5366,0.167461 2.22734,0.07251 4.4546,0.1474 6.68187,0.221878 2.20722,0.07348 4.41445,0.1468 6.62153,0.224563 1.46423,0.05203 0.73262,0.02598 2.19483,0.07816 0,0 -0.70794,0.408729 -0.70794,0.408729 l 0,0 c -1.46164,-0.05252 -0.73031,-0.02631 -2.19401,-0.07863 -2.20677,-0.07807 -4.41371,-0.15106 -6.62062,-0.225093 -2.22704,-0.07503 -4.45407,-0.150617 -6.68123,-0.222244 -2.18128,-0.06763 -4.36286,-0.125877 -6.54491,-0.162658 -2.0964,-0.03669 -4.19285,-0.06966 -6.28931,-0.102892 -2.11508,-0.03378 -4.23017,-0.06769 -6.34527,-0.100243 -2.09345,-0.03159 -4.18694,-0.06008 -6.28055,-0.0786 -2.035592,-0.01778 -4.07123,-0.03075 -6.106895,-0.03734 -1.975956,-0.0069 -3.951925,-0.0097 -5.927883,-7.19e-4 -1.88173,0.0076 -3.763423,0.02215 -5.645029,0.04541 -1.770874,0.02446 -3.541681,0.05354 -5.312231,0.09589 -1.653083,0.03875 -3.306077,0.08239 -4.958609,0.140474 -1.507138,0.05484 -3.014203,0.112298 -4.520517,0.186937 -1.329846,0.0683 -2.659431,0.142329 -3.987578,0.238861 -1.13081,0.08188 -2.260969,0.172541 -3.390311,0.272731 -0.976498,0.08738 -1.952985,0.176089 -2.927365,0.284988 -0.833391,0.09377 -1.666116,0.193283 -2.496338,0.31233 -0.698671,0.09625 -1.396564,0.197946 -2.094701,0.297965 -0.639071,0.09316 -1.277724,0.189146 -1.916987,0.280983 -0.570948,0.08149 -1.141619,0.164977 -1.713241,0.241657 -0.508054,0.06982 -1.016323,0.138044 -1.524598,0.20624 -0.436233,0.05987 -0.871926,0.123426 -1.307184,0.190024 -0.389142,0.05627 -0.778066,0.114024 -1.166402,0.175635 -0.341924,0.05313 -0.68404,0.105067 -1.026161,0.1569 -0.290303,0.04421 -0.580213,0.09091 -0.870427,0.135695 -0.22991,0.03706 -0.460115,0.07237 -0.6895,0.112597 -0.175686,0.02944 -0.35125,0.05966 -0.527088,0.08819 -0.141192,0.0243 -0.282241,0.04967 -0.42438,0.06797 0,0 0.847999,-0.489593 0.847999,-0.489593 z" />
    <path
       style="fill:#c4c8b7"
       id="path2826"
       d="m 40.564588,34.062141 c 0.260161,-0.100496 0.529772,-0.173305 0.799153,-0.244171 0.457769,-0.118653 0.921185,-0.213331 1.385402,-0.302692 0.68923,-0.12835 1.383092,-0.229856 2.077337,-0.326653 0.934873,-0.12933 1.873245,-0.230294 2.812006,-0.326375 1.127359,-0.114275 2.25677,-0.206845 3.38624,-0.297325 1.309827,-0.10628 2.620963,-0.19465 3.932391,-0.278369 1.511297,-0.09443 3.023741,-0.168146 4.536313,-0.238489 1.73777,-0.07819 3.476192,-0.140225 5.214854,-0.194542 1.977248,-0.06297 3.95512,-0.101995 5.933162,-0.128151 2.234143,-0.02806 4.468459,-0.02601 6.702678,-0.0113 2.432775,0.0192 4.865225,0.06709 7.297466,0.11997 2.101253,0.04949 4.202437,0.102009 6.303539,0.157544 0,0 -0.684575,0.395239 -0.684575,0.395239 l 0,0 c -2.101515,-0.05629 -4.203133,-0.108822 -6.304856,-0.156783 -2.436215,-0.05058 -4.872619,-0.09722 -7.309349,-0.113109 -2.240104,-0.01174 -4.480293,-0.01079 -6.720252,0.02145 -1.984063,0.02982 -3.967937,0.07227 -5.951152,0.138539 -1.744295,0.05736 -3.488324,0.122778 -5.231677,0.204255 -1.517691,0.07313 -3.035226,0.150028 -4.551596,0.247312 -1.315952,0.08622 -2.631594,0.177185 -3.945891,0.286163 -1.133682,0.09289 -2.267333,0.187567 -3.398829,0.304593 -0.944231,0.09872 -1.888074,0.20231 -2.828158,0.3357 -0.700067,0.100059 -1.399733,0.204852 -2.094646,0.336647 -0.469847,0.09212 -0.938844,0.18976 -1.401885,0.312209 -0.269937,0.07234 -0.539865,0.146809 -0.801584,0.245574 0,0 0.843909,-0.487231 0.843909,-0.487231 z" />
    <path
       style="fill:#c4c8b7"
       id="path2828"
       d="m 45.091466,32.638505 c 0.161512,-0.0301 0.324758,-0.0478 0.488024,-0.06477 0.205501,-0.01974 0.411746,-0.03007 0.61782,-0.04168 0.300736,-0.01563 0.601603,-0.02848 0.902484,-0.04091 0.393721,-0.01466 0.787521,-0.02663 1.181214,-0.04206 0.497805,-0.01908 0.995344,-0.04443 1.492789,-0.07113 0.603586,-0.03136 1.206817,-0.06896 1.809779,-0.110526 0.716205,-0.04848 1.432148,-0.100698 2.14825,-0.150665 0.835873,-0.05703 1.67214,-0.108087 2.508435,-0.158468 0.923526,-0.05573 1.847154,-0.109743 2.77068,-0.165466 0.78853,-0.0475 1.577152,-0.09342 2.365749,-0.139784 0,0 -5.581209,3.222312 -5.581209,3.222312 l 0,0 c -0.790381,0.04685 -1.580705,0.09465 -2.371006,0.142819 -0.931901,0.05679 -1.863697,0.115386 -2.795122,0.179579 -0.856231,0.05991 -1.712318,0.121972 -2.567735,0.192704 -0.735948,0.06027 -1.471582,0.124229 -2.207499,0.184872 -0.621247,0.0512 -1.242723,0.09984 -1.864641,0.142201 -0.515011,0.03606 -1.030103,0.07114 -1.545483,0.101558 -0.410803,0.02469 -0.821755,0.04664 -1.232537,0.07169 -0.316086,0.01961 -0.632152,0.04008 -0.947713,0.06702 -0.221625,0.01903 -0.443078,0.04024 -0.663779,0.06821 -0.148217,0.01905 -0.297087,0.04636 -0.446918,0.04103 0,0 5.938418,-3.428547 5.938418,-3.428547 z" />
    <path
       style="fill:#c4c8b7"
       id="path2830"
       d="m 45.123067,32.666284 c 0.558557,0.07858 1.116858,0.157817 1.676522,0.229244 1.154476,0.131898 2.318952,0.104846 3.478036,0.07212 1.655533,-0.03434 3.305147,-0.183523 4.950064,-0.365241 2.142963,-0.229161 4.278478,-0.522862 6.412556,-0.822477 2.739836,-0.378096 5.473025,-0.802959 8.205338,-1.231689 3.360408,-0.52126 6.721088,-1.040272 10.089126,-1.510022 4.113162,-0.557426 8.231069,-1.076415 12.354238,-1.554003 2.926371,-0.337931 5.847113,-0.71946 8.766733,-1.110646 0,0 -3.865978,2.232025 -3.865978,2.232025 l 0,0 c -2.911693,0.372506 -5.823992,0.739709 -8.737962,1.094033 -4.22617,0.51803 -8.445652,1.085824 -12.654977,1.727635 -3.497779,0.54532 -6.986714,1.143848 -10.477137,1.734041 -2.827463,0.482991 -5.657884,0.948771 -8.491118,1.396684 -2.237046,0.36084 -4.476727,0.708138 -6.723662,1.002094 -1.718942,0.217279 -3.443522,0.398529 -5.173911,0.494479 -1.254391,0.07206 -2.511699,0.127735 -3.768359,0.0955 -0.639019,-0.0144 -1.276448,-0.05228 -1.914272,-0.09198 0,0 5.874763,-3.391797 5.874763,-3.391797 z" />
    <path
       style="fill:#c4c8b7"
       id="path2832"
       d="m 64.181599,36.700713 c 1.519973,0.150516 3.046031,0.223692 4.571276,0.295804 4.05788,0.16819 8.116349,0.317038 12.174118,0.488541 7.535752,0.322123 15.076329,0.508281 22.615167,0.740657 9.97154,0.265825 19.92181,0.936632 29.85497,1.82628 10.27633,0.940691 20.47868,2.508586 30.63669,4.29931 9.78278,1.731747 19.4692,3.945948 29.09139,6.407357 8.77728,2.264734 17.41864,5.009274 25.99922,7.92186 7.71486,2.628221 15.25622,5.72339 22.74589,8.927977 6.92236,3.033486 13.81326,6.138287 20.70789,9.234144 6.63891,2.996348 13.34832,5.824307 20.14148,8.451084 7.02106,2.703812 14.243,4.805849 21.52719,6.661392 7.62798,1.911353 15.39828,3.150509 23.18667,4.183715 8.04534,1.043645 16.14533,1.531593 24.24536,1.890971 8.18334,0.353391 16.37556,0.320619 24.56214,0.129981 8.17178,-0.23174 16.32487,-0.854657 24.46316,-1.60544 8.06018,-0.74873 16.08627,-1.806255 24.10269,-2.919826 8.27574,-1.236228 16.57072,-2.328704 24.88606,-3.260142 9.05942,-0.991546 18.16369,-1.414195 27.26916,-1.667926 6.09453,-0.15817 12.19041,-0.136269 18.28573,-0.06245 0,0 -1.59305,0.919746 -1.59305,0.919746 l 0,0 c -6.02383,-0.159597 -12.04924,-0.226145 -18.07431,-0.05961 -9.19556,0.255878 -18.38855,0.725367 -27.52799,1.817366 -8.41089,1.016368 -16.8,2.194428 -25.18128,3.430591 -8.03346,1.126597 -16.07477,2.217218 -24.15562,2.950384 -8.11505,0.727507 -16.24391,1.322965 -24.38982,1.563098 -8.19227,0.197814 -16.38964,0.238227 -24.57887,-0.120329 -8.12945,-0.351555 -16.2583,-0.822227 -24.33639,-1.838414 -7.84062,-1.007076 -15.66394,-2.228197 -23.35357,-4.08735 -7.33572,-1.823615 -14.61202,-3.89231 -21.68895,-6.568001 -6.8105,-2.590284 -13.54187,-5.380723 -20.155,-8.443278 -6.81566,-3.130823 -13.6122,-6.303665 -20.45187,-9.381959 -7.37371,-3.247165 -14.78817,-6.414839 -22.37255,-9.143527 -8.4049,-3.028207 -16.88148,-5.867692 -25.50776,-8.205601 -9.49509,-2.556834 -19.05971,-4.858423 -28.7397,-6.610406 -10.13678,-1.815208 -20.32117,-3.390736 -30.58093,-4.331505 -10.12793,-0.88067 -20.27772,-1.501827 -30.44918,-1.483214 -8.123436,-0.0042 -16.246083,0.09586 -24.367669,0.271153 -4.574824,0.09732 -9.149076,0.218478 -13.72127,0.404708 -1.866423,0.07582 -3.733007,0.156192 -5.595972,0.295804 0,0 5.7555,-3.322939 5.7555,-3.322939 z" />
    <path
       style="fill:#c4c8b7"
       id="path2834"
       d="m 306.70074,155.83788 c -2.96596,1.96517 -6.06883,3.66476 -9.32046,5.07609 -2.80182,1.17145 -5.74747,1.92424 -8.71462,2.53382 -4.3175,0.8435 -8.71191,1.06427 -13.09939,1.12816 -5.50821,0.1017 -10.96243,-0.61951 -16.35827,-1.65108 -5.87037,-1.10661 -11.39531,-3.27247 -16.66543,-6.03118 -5.02855,-2.74456 -8.87691,-6.3493 -11.90828,-11.17737 -2.6817,-4.82412 -2.95507,-10.10113 -2.4022,-15.46118 0.79432,-5.80172 3.55053,-10.79482 6.91737,-15.46939 4.07442,-5.3292 9.44261,-9.33345 14.98984,-12.99504 7.18653,-4.698563 15.00729,-8.134902 23.02521,-11.10734 7.90775,-2.854534 16.09612,-4.751991 24.35074,-6.266724 8.34978,-1.496759 16.8212,-1.785929 25.27733,-1.470018 7.70076,0.3279 15.2243,1.917527 22.56509,4.183885 6.08942,1.911422 11.66508,4.90611 16.73834,8.740249 4.08447,3.21366 6.74945,7.485778 8.70194,12.222618 1.68376,4.47525 1.98889,9.18761 1.75712,13.91297 -0.30454,4.65491 -1.50619,9.15704 -2.88511,13.58983 -1.42484,4.40936 -3.16276,8.70524 -4.97956,12.96479 -1.83613,4.32706 -4.08355,8.44637 -6.60307,12.40808 -2.42908,3.83645 -5.58082,7.04677 -9.16147,9.80154 -4.546,3.11453 -9.40178,5.75459 -14.48974,7.86302 -2.62606,1.06034 -5.33409,1.89658 -7.9834,2.89357 -2.13112,0.99382 -6.02719,2.79479 3.68684,-2.18206 0.0916,-0.0469 -0.0907,0.19044 -0.0969,0.29318 -0.0175,0.29135 0.13282,0.49889 0.25555,0.74732 1.18971,1.4795 3.07426,2.14436 4.79376,2.7956 3.69854,1.28721 7.60763,1.28423 11.46979,1.15491 4.99559,-0.27831 9.92218,-1.16719 14.79154,-2.27688 4.91931,-1.18248 9.60866,-3.08757 14.22368,-5.12629 4.09627,-1.8866 8.0924,-3.97949 12.0605,-6.11967 0.97502,-0.7076 7.19995,-3.7329 0.99182,-0.49177 -0.52104,0.27202 1.00507,-0.60973 1.505,-0.91884 1.48623,-0.91896 1.36829,-0.85502 2.80853,-1.79895 1.73616,-1.18702 0.87868,-0.59391 2.57277,-1.77886 0,0 4.47972,-2.58637 4.47972,-2.58637 l 0,0 c -1.76499,1.22578 -0.8723,0.61236 -2.67837,1.83984 -4.42368,2.88313 -9.00417,5.51786 -13.64938,8.02698 -3.85273,2.07263 -7.7333,4.09826 -11.71284,5.91895 -4.57261,2.00423 -9.21942,3.87096 -14.08515,5.0463 -4.93232,1.13846 -9.92504,2.01014 -14.97901,2.38512 -4.15793,0.2544 -8.35203,0.38151 -12.43829,-0.59575 -1.99057,-0.51199 -4.07311,-1.01312 -5.76705,-2.23366 -1.71959,-2.05732 4.5965,-3.98401 6.86243,-5.04069 2.38622,-0.80097 4.81358,-1.4837 7.15503,-2.41531 1.31719,-0.53517 1.96168,-0.77831 3.26065,-1.3834 0.57328,-0.26704 2.15213,-1.28025 1.70424,-0.83376 -0.61148,0.60956 -1.48443,0.88263 -2.21495,1.34287 -1.20251,0.75762 4.92412,-2.95374 3.59793,-2.28802 3.64313,-2.78459 6.87836,-6.01659 9.34919,-9.90993 2.51797,-3.94782 4.74165,-8.06744 6.56446,-12.38579 1.81185,-4.26423 3.56476,-8.55783 4.98886,-12.97015 1.38855,-4.42924 2.5599,-8.94269 2.88875,-13.59193 0.24293,-4.7338 -0.008,-9.46451 -1.68166,-13.95654 -1.86234,-4.73549 -4.40312,-9.07865 -8.2925,-12.459006 -4.77624,-3.977678 -10.07563,-7.158612 -15.98828,-9.1733 -7.12806,-2.421679 -14.47615,-4.082901 -22.01654,-4.500589 -8.39458,-0.391512 -16.80518,-0.14812 -25.0955,1.365041 -8.33764,1.538537 -16.60405,3.476403 -24.57945,6.398769 -6.36043,2.382658 -12.74317,4.902983 -18.52338,8.508205 -5.37659,3.56242 -10.56296,7.47653 -14.46312,12.69094 -3.25784,4.63321 -5.88614,9.59874 -6.6275,15.30204 -0.51598,5.35318 -0.17404,10.60136 2.46938,15.42239 2.91418,4.73113 6.68617,8.64646 11.59748,11.35681 5.25218,2.82198 10.78871,4.97919 16.6877,6.01831 5.52902,0.99158 11.12071,1.64198 16.75022,1.4248 4.62273,-0.16921 9.2445,-0.52792 13.77444,-1.51791 3.21484,-0.7353 6.40642,-1.61006 9.43076,-2.94728 2.55689,-1.16494 8.717,-4.68344 -1.63819,1.269 -0.0856,0.0492 0.1656,-0.10768 0.2484,-0.16152 0,0 5.80661,-3.35245 5.80661,-3.35245 z" />
    <path
       style="fill:#c4c8b7"
       id="path2841"
       d="m 92.110034,53.572526 c 0.412379,-0.197473 0.834556,-0.373685 1.255022,-0.553047 0.385488,-0.176443 0.777584,-0.329367 1.185689,-0.443961 0.511996,-0.175102 1.023378,-0.351065 1.539643,-0.513187 0.605889,-0.154735 1.205682,-0.326482 1.802586,-0.513084 0.616448,-0.195388 1.239249,-0.370275 1.860483,-0.549753 0.530783,-0.153241 1.061613,-0.30631 1.592433,-0.459398 0.42923,-0.123788 0.85847,-0.247572 1.2877,-0.371356 0.40063,-0.124017 0.81117,-0.20863 1.21742,-0.311541 0.54623,-0.142691 1.0958,-0.272548 1.64428,-0.406359 0.57354,-0.137379 1.15612,-0.228782 1.737,-0.328234 0.56135,-0.09621 1.12268,-0.192597 1.68402,-0.28896 0.47945,-0.08071 0.95831,-0.156396 1.43272,-0.262708 0.58568,-0.128438 1.17659,-0.230451 1.76645,-0.337344 0.57225,-0.100534 1.14216,-0.214731 1.71607,-0.305519 0.52367,-0.10987 1.03743,-0.261571 1.55181,-0.40778 0.42679,-0.12178 0.85337,-0.244334 1.27997,-0.366801 0.34465,-0.09895 0.6893,-0.197916 1.03395,-0.296881 0.32959,-0.111427 0.67143,-0.166023 1.01513,-0.211005 0.52706,-0.06043 1.04467,-0.18943 1.56248,-0.303027 0.51984,-0.126092 1.04464,-0.224524 1.57153,-0.31518 0.57795,-0.06369 1.13957,-0.210784 1.70007,-0.359395 0.48057,-0.129221 0.96033,-0.261434 1.44017,-0.393306 0.41436,-0.124297 0.83284,-0.226181 1.25894,-0.300128 0.51208,-0.0937 1.02754,-0.166855 1.54202,-0.245882 0.47253,-0.07623 0.94588,-0.145275 1.42046,-0.207069 0.4612,-0.0645 0.92457,-0.111155 1.38719,-0.164164 0.47014,-0.04538 0.94032,-0.08847 1.41106,-0.126994 0.48101,-0.02101 0.95256,-0.111935 1.42307,-0.207352 0.42301,-0.08762 0.84537,-0.178333 1.26781,-0.268688 0.37683,-0.08995 0.75974,-0.147218 1.14256,-0.204167 0.4752,-0.04153 0.94128,-0.122184 1.40554,-0.229706 0.43491,-0.10423 0.86841,-0.214206 1.30206,-0.323515 0.36022,-0.0944 0.72145,-0.182817 1.0858,-0.259539 0.43494,-0.08544 0.87578,-0.132116 1.315,-0.189024 0.46858,-0.06733 0.93918,-0.117071 1.40951,-0.170021 0.4292,-0.04575 0.85706,-0.104418 1.28713,-0.14147 0.49595,-0.04995 0.99476,-0.05825 1.49232,-0.08273 0.56757,-0.0241 1.13257,-0.06121 1.6956,-0.136168 0.60396,-0.09525 1.21192,-0.163309 1.81991,-0.226791 0.74311,-0.07267 1.48669,-0.139383 2.23159,-0.19074 0.82549,-0.06079 1.65149,-0.115461 2.47799,-0.160628 0.81191,-0.05166 1.62391,-0.100541 2.43618,-0.145995 0.79388,-0.03652 1.58782,-0.07115 2.38153,-0.11147 0.69524,-0.0358 1.39044,-0.07245 2.08565,-0.10901 0.58111,-0.03576 1.16292,-0.05495 1.74451,-0.08048 0.61122,-0.02499 1.22316,-0.01812 1.83365,-0.05808 0.64398,-0.06015 1.28506,-0.147433 1.92628,-0.231264 0.56648,-0.08204 1.13615,-0.136899 1.70552,-0.193835 0.55328,-0.06005 1.10701,-0.113795 1.66134,-0.162687 0.56175,-0.05018 1.12469,-0.08766 1.68789,-0.117168 0.58324,-0.0046 1.16673,0.0181 1.74887,0.05257 0.53727,0.0294 1.07529,0.04202 1.61248,0.07241 0.52658,0.0259 1.05355,0.04267 1.58015,0.06778 0.58457,0.0038 1.16386,0.05919 1.74286,0.13497 0.63078,0.08001 1.26307,0.146497 1.89477,0.218481 0.63927,0.06791 1.27995,0.120397 1.92002,0.179783 0.61337,0.0503 1.22753,0.09032 1.84156,0.131614 0.54356,0.03332 1.08597,0.08207 1.6294,0.117166 0.60948,0.05155 1.22068,0.07494 1.83171,0.09889 0.54138,0.02307 1.08324,0.03527 1.62431,0.0649 0.5298,0.01978 1.05919,0.04876 1.58902,0.06747 0.57136,0.02961 1.14364,0.03023 1.7153,0.05057 0.54986,-0.01411 1.09213,0.0649 1.63517,0.137537 0.518,0.06484 1.03482,0.138206 1.55333,0.198798 0.46546,0.05279 0.93122,0.102858 1.39695,0.153241 0.45448,0.05488 0.90885,0.108598 1.36508,0.14727 0.54372,0.04811 1.08856,0.08454 1.63359,0.114418 0.54236,0.03356 1.08506,0.0595 1.62798,0.08234 0.53277,0.02892 1.06578,0.05485 1.59902,0.07362 0.4896,0.01591 0.97927,0.02955 1.46893,0.04345 0.0695,4.1e-4 0.13908,8.21e-4 0.20861,0.0012 0,0 -5.86395,3.385556 -5.86395,3.385556 l 0,0 c -0.0613,-0.0052 -0.12255,-0.01036 -0.18383,-0.01554 -0.47386,-0.02404 -0.94771,-0.04827 -1.42165,-0.07075 -0.5363,-0.02431 -1.07279,-0.04272 -1.60905,-0.06783 -0.53648,-0.03314 -1.07321,-0.06145 -1.60974,-0.09287 -0.55128,-0.03592 -1.10282,-0.0667 -1.65409,-0.102583 -0.4702,-0.03565 -0.94215,-0.05856 -1.40972,-0.121501 -0.45041,-0.06019 -0.90081,-0.120538 -1.35138,-0.179546 -0.51306,-0.06632 -1.02666,-0.127106 -1.53778,-0.20778 -0.53908,-0.07242 -1.07877,-0.150109 -1.62415,-0.1439 -0.57299,-0.01037 -1.14537,-0.04294 -1.71851,-0.04871 -0.53666,-0.01697 -1.07355,-0.02659 -1.60978,-0.05549 -0.52896,-0.01856 -1.05683,-0.05934 -1.58535,-0.0874 -0.6156,-0.03547 -1.23127,-0.06826 -1.84754,-0.08975 -0.5439,-0.03358 -1.0884,-0.05979 -1.63059,-0.116478 -0.59861,-0.05414 -1.19718,-0.108984 -1.79626,-0.157769 -0.64171,-0.04843 -1.28226,-0.112343 -1.92236,-0.178432 -0.63508,-0.06076 -1.26835,-0.139477 -1.90188,-0.214378 -0.59443,-0.06093 -1.1878,-0.113408 -1.78621,-0.109935 -0.53108,-0.0129 -1.06187,-0.03728 -1.59257,-0.06062 -0.5306,-0.01933 -1.06003,-0.06159 -1.59047,-0.08512 -0.57576,-0.02416 -1.15095,-0.07748 -1.72773,-0.06477 -0.57336,0.04235 -1.14672,0.08429 -1.71939,0.135352 -0.5467,0.04757 -1.09296,0.100353 -1.63947,0.150064 -0.56865,0.05758 -1.13586,0.127546 -1.70366,0.192754 -0.62789,0.07207 -1.25568,0.145546 -1.8847,0.207261 -0.62859,0.05439 -1.26031,0.05802 -1.89034,0.09081 -0.57097,0.01897 -1.14159,0.04673 -1.7127,0.06212 -0.67133,0.02221 -1.34266,0.04428 -2.01395,0.06761 -0.79176,0.02835 -1.5833,0.06199 -2.37429,0.107291 -0.8,0.03969 -1.59991,0.08188 -2.39974,0.124958 -0.83455,0.05429 -1.66927,0.106363 -2.50282,0.174962 -0.76403,0.06748 -1.52839,0.133621 -2.29008,0.224512 -0.63129,0.07762 -1.26134,0.162823 -1.88895,0.266651 -0.55489,0.08177 -1.11284,0.09742 -1.67273,0.122963 -0.5283,0.03245 -1.05527,0.08051 -1.5818,0.13439 -0.4206,0.04585 -0.84204,0.08348 -1.26284,0.127453 -0.46644,0.04903 -0.93183,0.106965 -1.39746,0.163062 -0.46066,0.0588 -0.92046,0.125905 -1.37475,0.223522 -0.35869,0.07703 -0.71453,0.166258 -1.0714,0.251225 -0.4192,0.100483 -0.8383,0.201435 -1.25836,0.298288 -0.4762,0.107022 -0.9545,0.191691 -1.43935,0.24922 -0.38848,0.06075 -0.77469,0.133737 -1.15961,0.214008 -0.40805,0.08167 -0.81607,0.163545 -1.22443,0.243651 -0.4697,0.09095 -0.93941,0.18894 -1.41914,0.205078 -0.47512,0.03986 -0.95011,0.08309 -1.42411,0.134531 -0.46056,0.04731 -0.92039,0.100328 -1.37956,0.159755 -0.46648,0.06118 -0.9319,0.130416 -1.39805,0.194132 -0.5185,0.07405 -1.03661,0.151428 -1.55095,0.251036 -0.43214,0.08988 -0.85929,0.19911 -1.2851,0.315237 -0.46255,0.121725 -0.92502,0.24373 -1.38814,0.363267 -0.5595,0.142632 -1.11995,0.280059 -1.6933,0.355483 -0.528,0.09352 -1.0522,0.205769 -1.57649,0.318046 -0.53608,0.114787 -1.06897,0.248714 -1.61125,0.331186 -0.36541,0.06509 -0.72791,0.142396 -1.08338,0.250406 -0.33178,0.09153 -0.66355,0.183065 -0.99534,0.274586 -0.41085,0.113324 -0.82168,0.226717 -1.23269,0.339503 -0.50435,0.137957 -1.00819,0.279933 -1.51972,0.389258 -0.55922,0.09471 -1.11887,0.186925 -1.67779,0.283413 -0.61155,0.107266 -1.22253,0.220343 -1.82511,0.371218 -0.4729,0.115342 -0.951,0.194985 -1.433,0.262865 -0.54371,0.08513 -1.08748,0.169847 -1.63068,0.258164 -0.59433,0.09892 -1.187,0.207934 -1.772996,0.34902 -0.553044,0.129218 -1.10678,0.256711 -1.653356,0.411595 -0.426638,0.121198 -0.855719,0.2314 -1.283207,0.349525 -0.413203,0.114527 -0.826407,0.229052 -1.239607,0.34359 -0.511524,0.141803 -1.023069,0.283532 -1.534434,0.425911 -0.614221,0.171486 -1.229046,0.341559 -1.836534,0.535927 -0.612747,0.191634 -1.227696,0.370933 -1.847283,0.538889 -0.531119,0.166937 -1.056664,0.350122 -1.581041,0.537089 -0.413926,0.126885 -0.815984,0.282657 -1.211509,0.458868 -0.423494,0.178412 -0.848991,0.353477 -1.261366,0.55671 0,0 5.848697,-3.376747 5.848697,-3.376747 z" />
  </g>
  <g
     inkscape:groupmode="layer"
     id="layer4"
     inkscape:label="diffuse"
     style="opacity:0.00478258"
     sodipodi:insensitive="true">
    <path
       sodipodi:type="arc"
       style="fill:#c4c8b7;filter:url(#filter2926)"
       id="path2903"
       sodipodi:cx="282"
       sodipodi:cy="133.86218"
       sodipodi:rx="141"
       sodipodi:ry="58.5"
       d="m 423,133.86218 a 141,58.5 0 1 1 -282,0 141,58.5 0 1 1 282,0 z" />
  </g>
  <g
     inkscape:groupmode="layer"
     id="layer3"
     inkscape:label="logo"
     style="display:inline"
     sodipodi:insensitive="true">
    <path
       style="fill:#c4c8b7"
       id="path2844"
       d="m 139.06226,94.846668 c 0.30673,0.01058 0.61347,0.02434 0.92081,0.02777 0.43544,0.01031 0.87128,0.02427 1.30719,0.02348 0.6271,0.0019 1.25219,-0.01967 1.87728,-0.04629 0.84724,-0.0491 1.6873,-0.129579 2.5308,-0.19502 0.90504,-0.06375 1.80682,-0.142242 2.70495,-0.231814 0.9382,-0.110253 1.88286,-0.200973 2.82958,-0.28412 1.02903,-0.102062 2.05841,-0.20246 3.0908,-0.293119 1.12492,-0.08459 2.24248,-0.195204 3.3615,-0.301002 1.11985,-0.115705 2.24767,-0.203981 3.37627,-0.287091 1.16245,-0.08459 2.32728,-0.157588 3.49107,-0.235825 1.15661,-0.0713 2.31596,-0.125129 3.47229,-0.197832 1.16652,-0.08488 2.33503,-0.160564 3.50066,-0.249305 1.15103,-0.08863 2.30249,-0.174754 3.45198,-0.269567 1.20392,-0.106201 2.40788,-0.212659 3.61461,-0.308233 1.1666,-0.08476 2.33399,-0.166572 3.50346,-0.237725 1.16608,-0.07144 2.33399,-0.132164 3.49935,-0.207435 1.2052,-0.08072 2.41222,-0.15206 3.62015,-0.218301 1.26713,-0.0588 2.52971,-0.142898 3.79323,-0.221803 1.27269,-0.08615 2.54669,-0.166752 3.82242,-0.237138 1.18597,-0.06766 2.36817,-0.154821 3.55433,-0.221192 1.06605,-0.05624 2.13276,-0.108189 3.20039,-0.153928 1.01499,-0.05406 2.03205,-0.09328 3.04834,-0.138211 1.00999,-0.02366 2.01957,-0.05165 3.02851,-0.08668 1.0066,-0.03407 2.01568,-0.02922 3.02361,-0.02611 0.98824,-9.42e-4 1.97662,1.75e-4 2.96482,0.0072 0.99565,3.76e-4 1.99127,0.0054 2.9869,0.009 0.99613,-0.0123 1.99137,0.01004 2.98652,0.02994 0.96432,0.02434 1.92847,0.05188 2.89321,0.07043 0.92354,0.02381 1.84763,0.03847 2.77108,0.06384 0.88583,0.01186 1.77172,0.02177 2.6576,0.03195 0.79407,0.01108 1.58909,0.04194 2.38018,0.08375 0.74163,0.03715 1.48415,0.06822 2.22588,0.104738 0.74639,0.02591 1.49119,0.06532 2.23779,0.08906 0.50756,0.0199 0.25237,0.01141 0.7656,0.02539 0,0 -10.80788,3.529336 -10.80788,3.529336 l 0,0 c -0.5074,-0.01863 -0.25102,-0.0105 -0.76915,-0.02423 -0.75218,-0.02787 -1.50584,-0.04309 -2.25662,-0.08291 -0.74064,-0.02805 -1.48024,-0.06586 -2.2189,-0.107014 -0.76217,-0.03889 -1.5205,-0.103008 -2.28677,-0.114257 -0.84254,-0.02379 -1.68474,-0.04951 -2.5272,-0.07453 -0.92015,-0.01483 -1.83907,-0.04331 -2.75851,-0.06795 -0.94598,-0.03228 -1.89266,-0.05793 -2.83884,-0.08818 -0.98294,-0.03359 -1.96556,-0.0423 -2.95015,-0.04182 -0.99973,-5.99e-4 -1.9995,-2e-5 -2.99919,-0.005 -0.9867,0.0018 -1.97344,-0.0027 -2.96004,-0.0088 -0.99979,-0.001 -2.00087,-0.01198 -2.99964,0.01828 -1.03148,0.02379 -2.06229,0.05697 -3.09091,0.107058 -0.97928,0.03033 -1.95758,0.06985 -2.93669,0.10175 -1.05625,0.04552 -2.11267,0.08986 -3.16779,0.143283 -1.10833,0.05324 -2.21899,0.08968 -3.32678,0.146881 -1.25334,0.06988 -2.5069,0.138118 -3.75874,0.216347 -1.28691,0.08553 -2.57244,0.178045 -3.86302,0.244591 -1.23408,0.07407 -2.46709,0.153648 -3.69788,0.243685 -1.1712,0.08289 -2.34541,0.146523 -3.51959,0.214043 -1.17108,0.07436 -2.34271,0.146301 -3.50968,0.239757 -1.17512,0.08905 -2.35076,0.176037 -3.52263,0.278198 -1.19568,0.108969 -2.38883,0.226147 -3.59007,0.314659 -1.13613,0.08541 -2.27866,0.141466 -3.41605,0.221678 -1.17512,0.08187 -2.35293,0.148118 -3.53064,0.216886 -1.16339,0.06616 -2.32506,0.143429 -3.48346,0.233334 -1.13186,0.09039 -2.2613,0.189501 -3.39004,0.29159 -1.13968,0.107446 -2.27792,0.219505 -3.4196,0.319976 -1.07652,0.103064 -2.14977,0.21603 -3.22094,0.335617 -0.96771,0.09476 -1.93161,0.200468 -2.89586,0.305765 -0.93194,0.09896 -1.86979,0.182307 -2.80658,0.265 -0.87554,0.07168 -1.75137,0.142141 -2.62379,0.225387 -0.74308,0.05838 -1.48468,0.122748 -2.232,0.162127 -0.49764,0.02436 -0.99653,0.0244 -1.49524,0.03793 -0.36395,0.0038 -0.72739,0.01786 -1.09092,0.02778 0,0 11.46863,-3.745104 11.46863,-3.745104 z" />
    <path
       style="fill:#c4c8b7"
       id="path2846"
       d="m 185.13359,98.360648 c 0.11077,0.195195 0.24443,0.385806 0.33907,0.583835 0.13413,0.288972 0.24504,0.580788 0.34121,0.874482 0.12187,0.368155 0.24653,0.736065 0.34753,1.106365 0.14443,0.40808 0.20141,0.82408 0.26352,1.23817 0.0613,0.47979 0.12573,0.95926 0.21921,1.4374 0.048,0.52825 0.0919,1.05664 0.14534,1.58495 0.05,0.5774 0.0802,1.15529 0.11005,1.73312 0.0591,0.62261 0.0719,1.24532 0.13334,1.86809 0.0712,0.6758 0.13659,1.35179 0.1968,2.02793 0.10045,0.6834 0.14492,1.36895 0.19303,2.05402 0.0327,0.70376 0.10956,1.40629 0.15536,2.10972 0.076,0.69617 0.0704,1.39272 0.0546,2.08982 -0.0118,0.71751 -0.0554,1.43492 -0.0403,2.15245 0.0166,0.69976 0.009,1.39936 -0.007,2.09913 -0.0295,0.71499 -0.0253,1.42989 -0.0247,2.14492 0.008,0.72431 -0.035,1.44779 -0.092,2.17121 -0.0327,0.76438 -0.17367,1.52461 -0.27629,2.28645 -0.1149,0.79803 -0.16224,1.59881 -0.29899,2.39573 -0.14881,0.81761 -0.22792,1.63818 -0.3299,2.45785 -0.0601,0.76527 -0.15604,1.52958 -0.21167,2.29494 -0.0587,0.70921 -0.12029,1.41852 -0.15797,2.12823 -0.0329,0.67468 -0.1519,1.34618 -0.2313,2.01915 -0.10315,0.64949 -0.22198,1.29844 -0.34947,1.94661 -0.10983,0.60663 -0.19922,1.21433 -0.3048,1.82118 -0.0769,0.55698 -0.1906,1.11277 -0.32079,1.66659 -0.12214,0.52031 -0.20017,1.04412 -0.34145,1.56286 -0.13748,0.48416 -0.25139,0.96998 -0.35541,1.45679 -0.0856,0.41653 -0.19476,0.83099 -0.27792,1.24773 -0.0801,0.4022 -0.23567,0.79715 -0.35935,1.19538 -0.1426,0.3982 -0.23345,0.80136 -0.39,1.19795 -0.14217,0.37705 -0.26063,0.75674 -0.3991,1.13417 -0.11843,0.36351 -0.27259,0.72369 -0.43189,1.08221 -0.1523,0.34954 -0.25368,0.70487 -0.42601,1.0515 -0.16733,0.33016 -0.30269,0.66457 -0.43096,1.00015 -0.10069,0.30316 -0.24687,0.60025 -0.4144,0.89354 -0.13464,0.30507 -0.32776,0.59952 -0.5016,0.89762 -0.18138,0.29198 -0.31519,0.59205 -0.47471,0.88779 -0.15718,0.27896 -0.33696,0.55359 -0.50098,0.83117 -0.16037,0.2603 -0.29165,0.52532 -0.41649,0.79165 -0.10165,0.21898 -0.20161,0.43821 -0.30175,0.65742 -0.0355,0.10578 -0.0276,0.0556 -0.0298,0.15015 0,0 -11.42912,3.73221 -11.42912,3.73221 l 0,0 c 0.10217,-0.12289 0.0513,-0.0596 0.15196,-0.19008 0.13903,-0.23159 0.27816,-0.46317 0.41649,-0.69489 0.16027,-0.26944 0.30941,-0.54094 0.47196,-0.80975 0.17692,-0.28216 0.37242,-0.56015 0.54041,-0.84406 0.14576,-0.30293 0.33817,-0.5987 0.50561,-0.89787 0.17452,-0.29517 0.31751,-0.59532 0.48397,-0.89187 0.14908,-0.30252 0.30798,-0.603 0.45314,-0.90619 0.17362,-0.33916 0.33833,-0.67949 0.4953,-1.02115 0.15607,-0.35279 0.31854,-0.70441 0.45255,-1.06017 0.14705,-0.36516 0.33892,-0.72446 0.46376,-1.09263 0.12821,-0.38594 0.29656,-0.76742 0.449,-1.15046 0.1396,-0.3984 0.27914,-0.79638 0.38971,-1.19786 0.13957,-0.3965 0.26233,-0.79488 0.3596,-1.19546 0.14309,-0.43164 0.26222,-0.86553 0.42326,-1.29518 0.17591,-0.49795 0.34427,-0.9965 0.4825,-1.49829 0.12962,-0.52708 0.24895,-1.05496 0.39573,-1.5806 0.14458,-0.56958 0.33599,-1.13544 0.44695,-1.70778 0.11414,-0.61844 0.25611,-1.23525 0.39848,-1.85177 0.13942,-0.65446 0.31913,-1.30643 0.40375,-1.96434 0.12639,-0.67771 0.22258,-1.35728 0.2881,-2.0377 0.10574,-0.72419 0.1929,-1.44922 0.29662,-2.1735 0.12064,-0.77994 0.209,-1.56144 0.35079,-2.34037 0.11171,-0.82003 0.26117,-1.63831 0.33616,-2.4599 0.0611,-0.7907 0.14408,-1.58077 0.22314,-2.37096 0.0721,-0.74931 0.12418,-1.49914 0.1624,-2.24925 0.0368,-0.71826 0.0544,-1.43634 0.0422,-2.15492 0.0108,-0.71329 0.026,-1.42645 0.009,-2.13984 -0.003,-0.70285 0.003,-1.40547 0.0346,-2.10809 0.0301,-0.71373 0.005,-1.42775 0.007,-2.14164 -0.005,-0.69659 0.003,-1.39381 -0.0547,-2.08977 -0.0531,-0.70193 -0.0804,-1.40435 -0.16877,-2.10534 -0.0724,-0.68291 -0.15681,-1.3655 -0.20828,-2.04904 -0.0873,-0.66607 -0.18041,-1.33191 -0.29207,-1.99683 -0.10225,-0.6089 -0.23137,-1.21729 -0.2517,-1.82944 -0.0709,-0.56448 -0.14865,-1.12867 -0.23445,-1.69249 -0.0719,-0.51518 -0.15542,-1.02857 -0.28137,-1.54053 -0.0662,-0.47172 -0.16164,-0.94197 -0.3093,-1.40798 -0.12291,-0.39968 -0.26858,-0.79685 -0.39104,-1.19652 -0.13519,-0.35871 -0.26217,-0.71953 -0.46204,-1.06898 -0.16665,-0.27109 -0.35078,-0.53907 -0.60143,-0.7895 -0.14276,-0.18446 -0.28007,-0.36998 -0.46414,-0.543 0,0 11.41209,-3.726642 11.41209,-3.726642 z" />
    <path
       style="fill:#c4c8b7"
       id="path2848"
       d="m 212.42544,105.62004 c 0.15094,0.2659 0.23054,0.53737 0.28632,0.8142 0.0705,0.55271 0.10624,1.10735 0.14977,1.66115 0.0717,0.80829 0.0748,1.61773 0.0758,2.42684 -0.005,0.97678 0.0353,1.95339 0.0723,2.92991 0.0313,1.11692 0.0328,2.23399 0.0977,3.35058 0.0782,1.11026 0.18987,2.21937 0.29109,3.329 0.0842,1.01712 0.2111,2.03319 0.27388,3.05084 0.0492,0.95743 0.0313,1.91519 0.0341,2.87281 -0.002,0.91611 -0.0745,1.83103 -0.15722,2.7457 -0.10532,0.90468 -0.23568,1.80819 -0.39357,2.71039 -0.1347,0.85452 -0.25675,1.7096 -0.39163,2.56412 -0.15819,0.84139 -0.33421,1.68153 -0.53399,2.52006 -0.19273,0.83349 -0.43553,1.66294 -0.69486,2.49052 -0.24487,0.80152 -0.51091,1.60108 -0.80769,2.39698 -0.2797,0.78293 -0.55373,1.56621 -0.85546,2.34659 -0.24919,0.7645 -0.57355,1.52006 -0.84833,2.2815 -0.27742,0.725 -0.57929,1.44677 -0.8406,2.17377 -0.24838,0.67003 -0.53849,1.33463 -0.79413,2.00373 -0.24777,0.60118 -0.45963,1.20681 -0.69049,1.8101 -0.18699,0.54686 -0.42664,1.08717 -0.63497,1.63153 -0.19677,0.48953 -0.38781,0.97936 -0.59984,1.46691 -0.2125,0.46385 -0.42763,0.92681 -0.65353,1.38856 -0.24025,0.47032 -0.49311,0.93846 -0.7445,1.40688 -0.23253,0.46015 -0.50645,0.91304 -0.73912,1.37332 -0.21607,0.40864 -0.40881,0.82072 -0.59369,1.23419 -0.15864,0.35567 -0.32837,0.70932 -0.47577,1.06658 -0.12072,0.2968 -0.23851,0.59397 -0.35662,0.8911 -0.0173,0.0436 -0.0347,0.0873 -0.052,0.1309 0,0 -11.16057,3.64451 -11.16057,3.64451 l 0,0 c 0.025,-0.0462 0.0501,-0.0923 0.0752,-0.13847 0.17027,-0.31363 0.34072,-0.62722 0.50967,-0.94107 0.19761,-0.3691 0.37498,-0.74153 0.59718,-1.10624 0.24728,-0.42605 0.48289,-0.85424 0.73295,-1.27966 0.27684,-0.46017 0.53785,-0.92321 0.78587,-1.38859 0.23921,-0.4656 0.50764,-0.92634 0.71469,-1.39715 0.24608,-0.46309 0.44585,-0.9335 0.68275,-1.3981 0.26198,-0.49673 0.47073,-1.00156 0.70796,-1.50221 0.28427,-0.55793 0.55553,-1.11798 0.79255,-1.68298 0.24973,-0.62213 0.54657,-1.23732 0.82795,-1.855 0.33317,-0.67724 0.63679,-1.3586 0.91609,-2.04356 0.34746,-0.73471 0.67932,-1.47194 0.96678,-2.21497 0.32446,-0.76432 0.584,-1.53662 0.90803,-2.301 0.29577,-0.78582 0.58372,-1.57253 0.88812,-2.35725 0.28733,-0.80321 0.57855,-1.60617 0.85052,-2.41097 0.27159,-0.83153 0.56482,-1.66108 0.73092,-2.50229 0.19531,-0.83813 0.36509,-1.67798 0.52853,-2.51828 0.15671,-0.87068 0.34353,-1.73954 0.52749,-2.60849 0.16297,-0.90405 0.29894,-1.80953 0.41098,-2.71607 0.0931,-0.92194 0.16741,-1.84414 0.22264,-2.76706 0.0814,-0.9689 0.0647,-1.93874 0.0752,-2.90851 0.005,-1.04118 -0.0241,-2.08221 -0.0522,-3.12322 -0.0356,-1.12585 -0.0654,-2.25172 -0.14421,-3.37696 -0.0915,-1.08326 -0.25502,-2.16331 -0.42622,-3.24331 -0.12943,-0.94701 -0.18477,-1.8965 -0.34066,-2.84227 -0.15589,-0.75132 -0.39481,-1.49572 -0.65551,-2.23754 -0.19233,-0.49593 -0.39476,-0.99317 -0.78532,-1.4536 -0.20556,-0.23612 -0.43382,-0.46771 -0.75184,-0.6622 0,0 11.44155,-3.73625 11.44155,-3.73625 z" />
    <path
       style="fill:#c4c8b7"
       id="path2888"
       d="m 213.97346,136.85706 c 0.23841,0.35567 0.89984,0.52497 1.46559,0.68234 0.93722,0.23717 1.92274,0.39874 2.92488,0.51934 1.35413,0.12214 2.71714,0.13021 4.08343,0.10284 1.60681,-0.0615 3.20595,-0.19998 4.77377,-0.40688 1.56791,-0.23588 3.11973,-0.50318 4.66798,-0.77687 1.43045,-0.22576 2.82786,-0.50771 4.21619,-0.80428 1.15589,-0.25046 2.30764,-0.50697 3.45963,-0.7631 0.14428,-0.0289 0.28856,-0.0578 0.43283,-0.0866 0,0 -10.64626,3.47656 -10.64626,3.47656 l 0,0 c -0.13575,0.0261 -0.27151,0.0522 -0.40727,0.0783 -0.93881,0.18274 -1.87773,0.36533 -2.81397,0.55226 -1.34341,0.27108 -2.6769,0.55631 -4.06227,0.75402 -1.48851,0.25765 -2.9891,0.49062 -4.49228,0.71949 -1.62745,0.19489 -3.26274,0.37893 -4.9233,0.45571 -1.47111,0.0806 -2.95531,0.0967 -4.42754,0.01 -1.15949,-0.0794 -2.33413,-0.13772 -3.44857,-0.34834 -0.74996,-0.14036 -1.47028,-0.33846 -2.24512,-0.42778 0,0 11.44228,-3.7365 11.44228,-3.7365 z" />
    <path
       style="fill:#c4c8b7"
       id="path2890"
       d="m 244.13146,103.52037 c -0.45998,0.72528 -0.48229,1.50488 -0.46021,2.26617 0.1022,1.41814 0.20749,2.83514 0.25624,4.2544 -0.0444,2.2891 -0.0836,4.57799 -0.0636,6.86727 0.0677,2.8145 0.0718,5.62854 -0.0499,8.4425 -0.0463,3.08351 -0.17279,6.16531 -0.31198,9.24774 -0.277,2.99826 -0.39139,5.99942 -0.50475,9.00058 -0.11775,2.61956 -0.1751,5.23951 -0.32461,7.85852 -0.0393,2.225 -0.24123,4.44715 -0.39926,6.6699 -0.14483,1.91067 -0.22159,3.822 -0.26612,5.73419 0.0201,1.46831 -0.0996,2.93497 -0.1426,4.40245 0,0 -8.71707,2.84657 -8.71707,2.84657 l 0,0 c 0.46028,-1.57106 0.85369,-3.14884 1.15283,-4.73233 0.42164,-2.00899 0.86202,-4.01678 1.17876,-6.03222 0.27776,-2.30597 0.58519,-4.61083 1.11542,-6.90376 0.49239,-2.72232 0.94032,-5.44618 1.2953,-8.1755 0.33083,-3.04218 0.73671,-6.08268 0.90074,-9.12989 0.1757,-3.04679 0.23493,-6.09804 -0.005,-9.14435 -0.24315,-2.7034 -0.53573,-5.40533 -0.99863,-8.1001 -0.39553,-2.10064 -0.87045,-4.20298 -1.8288,-6.24931 -0.55558,-1.25035 -1.22623,-2.48144 -1.93187,-3.70721 -0.28135,-0.57757 -0.4867,-1.26695 -1.26,-1.70444 0,0 11.36475,-3.71118 11.36475,-3.71118 z" />
    <path
       style="fill:#c4c8b7"
       id="path2892"
       d="m 261.55777,66.180918 c -0.5646,1.59003 -0.92371,3.254978 -1.31402,4.896081 -0.9418,4.818048 -1.48473,9.703421 -1.95776,14.586093 -0.63594,7.371913 -0.68328,14.771698 -0.74945,22.165068 -0.0563,8.60016 -0.26678,17.1981 -0.20949,25.79871 0.0505,8.31668 0.73723,16.60771 1.62631,24.87097 0.68902,6.63222 1.71728,13.22035 2.6148,19.82552 0.739,4.95171 1.52381,9.89626 2.24163,14.85114 0.46532,3.20244 0.81148,6.41975 1.38452,9.60535 0,0 -10.88766,6.28599 -10.88766,6.28599 l 0,0 c -0.053,-3.43493 -0.16168,-6.86885 -0.17323,-10.30469 -0.073,-5.33208 -0.14906,-10.66417 -0.25928,-15.99564 -0.16165,-7.05737 0.0144,-14.12041 -0.2747,-21.17657 -0.19223,-8.5266 -0.24295,-17.05431 -0.3958,-25.58142 -0.18507,-8.34813 -0.66247,-16.68331 -1.14098,-25.01902 -0.41454,-6.92875 -0.87126,-13.858463 -1.69669,-20.752779 -0.61552,-4.032769 -1.33528,-8.063776 -2.60972,-11.949055 -0.37231,-1.135533 -0.70244,-2.350816 -1.31402,-3.378787 0,0 15.11554,-8.726961 15.11554,-8.726961 z" />
    <path
       style="fill:#c4c8b7"
       id="path2894"
       d="m 267.7334,103.81554 c 0.68307,-0.12492 1.33375,-0.33278 1.98043,-0.51179 1.54102,-0.43547 3.2019,-0.66282 4.90088,-0.78309 2.54846,-0.1626 4.95109,0.11717 7.26454,0.70813 3.05604,0.93551 5.30466,2.40043 7.25703,3.99003 2.41255,2.08898 3.94406,4.44315 5.19452,6.82133 1.24707,2.36565 1.85922,4.78739 1.88381,7.25028 0.005,2.1168 -1.18247,4.08222 -2.76833,5.96822 -1.37976,1.52331 -3.09111,2.93817 -4.75656,4.3637 -1.24082,0.99488 -2.37239,2.01503 -3.18195,3.14477 -0.74035,1.14642 -0.90203,2.35839 -0.70237,3.56456 0.25371,1.40467 1.25358,2.70198 2.25449,3.97881 1.25754,1.6113 2.86467,3.118 4.47005,4.62308 2.02728,1.82834 4.25613,3.58052 6.52132,5.31607 2.40975,1.8724 4.94566,3.68889 7.49632,5.49995 2.48813,1.75713 5.2158,3.39291 8.042,4.97536 1.63967,0.95617 3.43158,1.81381 5.30603,2.61674 0,0 -7.57861,2.47481 -7.57861,2.47481 l 0,0 c -1.62236,-0.90431 -3.17002,-1.84983 -4.64162,-2.8337 -2.57919,-1.68359 -5.14321,-3.37598 -7.58342,-5.12511 -2.54658,-1.81918 -5.10192,-3.63404 -7.67222,-5.44251 -2.36393,-1.71447 -4.75602,-3.41482 -7.18619,-5.09896 -1.95251,-1.37902 -3.91342,-2.7604 -5.52167,-4.27967 -1.21776,-1.1905 -2.39822,-2.41527 -2.85963,-3.7812 -0.24961,-1.20403 -0.25551,-2.37772 0.57235,-3.5221 0.99097,-1.28293 2.5187,-2.37262 4.09643,-3.4434 2.1056,-1.49916 4.15223,-3.02961 5.80498,-4.70606 1.73718,-1.94689 3.01328,-3.99412 3.41157,-6.17827 0.36602,-2.5149 0.0846,-5.04154 -1.20908,-7.47062 -1.44011,-2.34362 -3.24831,-4.60981 -6.0977,-6.52639 -2.43696,-1.50569 -5.16781,-2.84025 -8.61259,-3.54737 -2.64277,-0.48528 -5.34048,-0.74088 -8.10878,-0.43244 -2.05008,0.22859 -4.05189,0.5636 -5.91247,1.11342 -1.15683,0.33644 -2.30769,0.67994 -3.47826,1.00091 0,0 11.4147,-3.72749 11.4147,-3.72749 z" />
    <path
       style="fill:#c4c8b7"
       id="path2896"
       d="m 334.08028,103.95583 c -1.18282,0.84744 -1.71868,1.89848 -2.26992,2.91369 -1.1733,2.38082 -2.09963,4.79901 -2.78305,7.23956 -0.88715,3.27078 -1.39475,6.56841 -1.80496,9.86762 -0.44993,3.31408 -0.51716,6.63729 -0.3575,9.95829 0.10686,2.8674 0.44465,5.73132 0.81627,8.59121 0.27704,2.28261 0.76992,4.55634 1.40009,6.81591 0.4193,1.6401 0.85678,3.27777 1.19185,4.92422 0.2384,1.27594 0.44956,2.55324 0.74222,3.82563 0.24722,0.88599 0.38585,1.77737 0.71409,2.65553 0.1039,0.32458 0.28388,0.63637 0.47914,0.94601 0,0 -10.34589,3.37848 -10.34589,3.37848 l 0,0 c -0.0931,-0.35189 -0.15987,-0.70366 -0.12798,-1.06069 0.002,-0.98081 0.0637,-1.96082 0.15747,-2.94014 0.0783,-1.36107 0.0747,-2.72258 0.0497,-4.08424 -0.009,-1.77883 0.048,-3.55687 0.0679,-5.3356 0.0808,-2.43332 0.038,-4.86784 0.0866,-7.30141 0.0383,-2.98995 0.19198,-5.97908 0.3372,-8.96788 0.23398,-3.36356 0.46188,-6.72714 0.75857,-10.08925 0.24711,-3.15448 0.50563,-6.30968 0.57907,-9.4673 -0.0432,-2.04068 -0.28068,-4.07374 -0.70371,-6.10095 -0.0834,-0.68387 -0.0243,-1.40878 -0.30722,-2.07213 0,0 11.31998,-3.69656 11.31998,-3.69656 z" />
    <path
       style="fill:#c4c8b7"
       id="path2898"
       d="m 364.50371,104.34842 c -0.94593,1.05783 -1.42544,2.22387 -1.93406,3.36675 -1.09925,2.63088 -1.69504,5.31991 -2.17621,8.00626 -0.58604,3.27985 -0.96343,6.57038 -1.1642,9.86466 -0.18243,3.16017 -0.12126,6.32269 0.0336,9.48264 0.12732,2.60192 0.472,5.19777 0.45438,7.80136 -0.0245,2.16824 0.002,4.33689 -0.0522,6.50494 -0.0539,1.73445 -0.037,3.46749 0.0994,5.20057 0.10902,1.14136 0.26289,2.28112 0.4149,3.42084 0.11555,0.69331 0.14626,1.3919 0.30958,2.08237 0.14178,0.58364 0.71765,0.98119 1.51924,1.32499 1.24036,0.41075 2.65378,0.53442 4.04989,0.66115 2.31177,0.1214 4.63232,0.15799 6.95261,0.17142 2.8787,0.0214 5.75894,0.0149 8.63646,0.0683 3.20575,0.0672 6.41137,0.13077 9.6195,0.14309 1.56912,0.0172 3.13297,-0.009 4.6988,-0.0604 0,0 -8.02853,2.62173 -8.02853,2.62173 l 0,0 c -1.44616,-0.007 -2.89377,-0.003 -4.33763,-0.0575 -3.23223,-0.0716 -6.46657,-0.1001 -9.70102,-0.11647 -3.04048,0.008 -6.07942,0.0565 -9.11923,0.0894 -2.64491,0.0325 -5.28566,0.11731 -7.93036,0.14787 -1.74034,8.6e-4 -3.53025,0.0274 -5.20344,-0.28445 -1.01836,-0.26121 -1.70259,-0.62423 -1.58657,-1.30301 0.13466,-0.79435 0.39771,-1.58019 0.57613,-2.3716 0.32583,-1.28739 0.6534,-2.57472 0.94461,-3.86479 0.39282,-1.84542 0.69027,-3.69533 0.96296,-5.54748 0.34997,-2.27341 0.84799,-4.54085 1.02321,-6.82204 0.23533,-2.74396 0.63225,-5.48285 0.85042,-8.22745 0.27693,-3.23054 0.45765,-6.46298 0.61973,-9.69599 0.2593,-3.20527 0.42672,-6.41424 0.42406,-9.62297 -0.0878,-2.33027 -0.25619,-4.66891 -1.00862,-6.96624 -0.25128,-0.75479 -0.39134,-1.70418 -1.38974,-2.28136 0,0 11.44229,-3.7365 11.44229,-3.7365 z" />
    <path
       style="fill:#c4c8b7"
       id="path2900"
       d="m 415.90993,102.6403 c -1.32768,0.92502 -1.93933,2.08842 -2.56567,3.20532 -1.29939,2.40432 -1.88897,4.902 -2.48164,7.38586 -0.70742,3.06345 -1.15734,6.14304 -1.55418,9.22351 -0.41243,2.96198 -0.6421,5.92938 -0.76455,8.89933 0.0237,2.50952 -0.11718,5.01766 -0.17977,7.52657 -0.0545,2.12158 0.007,4.24318 0.10854,6.364 -0.0614,1.68069 0.16301,3.35414 0.36349,5.02898 0.16269,1.23301 0.40316,2.4625 0.57422,3.69488 0.21325,0.87939 0.31181,1.76169 0.40952,2.64657 0.0138,0.82571 0.22656,1.6476 0.54492,2.4522 0.1673,0.61334 0.44199,1.21502 0.71054,1.81607 0.16755,0.37233 0.33772,0.74428 0.50779,1.11623 0.11679,0.22558 0.18435,0.46011 0.33055,0.68042 0.25649,0.32443 0.79769,0.40633 1.35354,0.49782 1.14707,0.0995 2.30544,0.0934 3.46182,0.0811 1.72959,-0.0164 3.45678,-0.0717 5.18572,-0.10021 1.88394,-0.0316 3.76265,-0.11843 5.64397,-0.178 1.54651,-0.0872 3.09975,-0.0228 4.64272,0.0533 1.29654,0.10686 2.59892,0.18912 3.90052,0.27339 0.87273,0.06 1.74119,0.126 2.62151,0.11321 0.12412,-0.008 0.24825,-0.0166 0.37237,-0.0249 0,0 -10.75283,3.51136 -10.75283,3.51136 l 0,0 c -0.142,0.0141 -0.28399,0.0283 -0.42599,0.0424 -0.78989,0.02 -1.52974,-0.0854 -2.2765,-0.22587 -1.11929,-0.1775 -2.24319,-0.35947 -3.40094,-0.43653 -1.43499,-0.0975 -2.86976,-0.18103 -4.31878,-0.15908 -1.76414,0.0109 -3.52974,-0.002 -5.29153,0.0629 -1.90102,0.0707 -3.80418,0.13275 -5.69561,0.26672 -1.41475,0.09 -2.83517,0.16094 -4.25893,0.17917 -0.68259,-0.006 -1.58231,0.0464 -2.09687,-0.25508 -0.0931,-0.25173 -0.0201,-0.51516 -0.0541,-0.77067 -0.0107,-0.42359 -0.0213,-0.84719 -0.0346,-1.27076 -0.0227,-0.66513 -0.0373,-1.33191 -0.16635,-1.99378 -0.0826,-0.83852 -0.26819,-1.67172 -0.37091,-2.50903 -0.0597,-0.95486 0.0997,-1.90215 0.22492,-2.85374 0.10791,-1.3367 0.27537,-2.67211 0.3871,-4.0088 0.14677,-1.78764 0.4417,-3.56899 0.63516,-5.3551 0.34101,-2.23289 0.66194,-4.46672 0.92908,-6.70283 0.32202,-2.61975 0.61608,-5.2412 1.16922,-7.84967 0.49648,-3.02918 0.95563,-6.05994 1.35905,-9.09347 0.38911,-2.98225 0.68734,-5.97233 0.75531,-8.96265 0.006,-2.15551 -0.0666,-4.31265 -0.34414,-6.46309 -0.0951,-0.71638 -0.14348,-1.50161 -0.57236,-2.18059 0,0 11.4147,-3.7275 11.4147,-3.7275 z" />
  </g>
  <g
     inkscape:groupmode="layer"
     id="layer2"
     inkscape:label="line"
     style="display:inline"
     sodipodi:insensitive="true">
    <path
       style="fill:#c4c8b7"
       id="path2839"
       d="m 45.123067,37.666284 c 0.371174,0.0062 0.742351,-0.0061 1.113483,5.67e-4 0.442098,0.003 0.882161,-0.06056 1.320622,-0.11139 0.662916,-0.08955 1.317762,-0.222061 1.973847,-0.350682 0.951329,-0.14829 1.884521,-0.381945 2.821492,-0.599415 1.189651,-0.317018 2.390529,-0.588024 3.586463,-0.879364 1.416818,-0.332542 2.829803,-0.680318 4.242656,-1.029325 1.684726,-0.449074 3.376138,-0.872277 5.059385,-1.326899 1.944319,-0.527392 3.89207,-1.039695 5.849258,-1.517257 2.12332,-0.547619 4.266961,-1.007911 6.406261,-1.486919 2.223224,-0.513393 4.459013,-0.969652 6.696513,-1.41587 2.120211,-0.441546 4.256349,-0.798822 6.385766,-1.191382 2.080815,-0.397527 4.166949,-0.765553 6.256915,-1.111445 2.088562,-0.326123 4.173672,-0.673531 6.261382,-1.00507 2.1067,-0.337428 4.22097,-0.62352 6.33441,-0.914569 1.97972,-0.266626 3.96068,-0.523709 5.94446,-0.758394 1.99192,-0.226763 3.9892,-0.399759 5.98674,-0.567753 2.02475,-0.183452 4.05113,-0.344978 6.07907,-0.488287 2.11364,-0.149749 4.23024,-0.254511 6.34671,-0.354783 2.2426,-0.10671 4.4851,-0.215478 6.72782,-0.319375 2.09994,-0.08738 4.1958,-0.254695 6.29146,-0.411848 1.89544,-0.137309 3.79094,-0.273653 5.68764,-0.392551 1.85709,-0.117419 3.71566,-0.207946 5.57489,-0.283301 2.06889,-0.06645 4.13584,-0.162465 6.20272,-0.274081 2.27154,-0.12854 4.54352,-0.249187 6.81656,-0.347946 2.52498,-0.110583 5.05144,-0.179178 7.57774,-0.250669 2.83405,-0.08043 5.66866,-0.138017 8.50253,-0.224689 2.70057,-0.0702 5.40029,-0.167939 8.10055,-0.247908 2.50299,-0.07212 5.00671,-0.113466 7.51044,-0.14862 2.69632,-0.03381 5.39267,-0.0652 8.08893,-0.103367 2.57406,-0.05128 5.14813,-0.102999 7.72207,-0.160067 2.35345,-0.05103 4.70746,-0.06691 7.06141,-0.06804 2.69898,0.0044 5.39802,-6.66e-4 8.09696,-0.01775 2.69434,-0.03071 5.38862,-0.06491 8.08302,-0.09023 2.7654,-0.03854 5.52998,0.0537 8.29408,0.124413 3.32807,0.09001 6.65675,0.151364 9.98547,0.210261 3.69324,0.05856 7.38664,0.105582 11.08011,0.146817 3.8373,0.03757 7.67464,0.07425 11.51208,0.09337 3.82034,0.02332 7.64067,0.04941 11.461,0.07308 3.74876,0.01048 7.49716,0.0165 11.24551,0.07466 3.53494,0.05384 7.06952,0.126118 10.60408,0.200403 3.59771,0.07976 7.19557,0.151993 10.79345,0.223733 3.83691,0.05268 7.67262,0.163953 11.50802,0.280503 3.95632,0.115912 7.91321,0.210688 11.87017,0.301189 3.97467,0.06956 7.948,0.18087 11.92106,0.311414 3.96928,0.13198 7.93912,0.243231 11.90739,0.403618 3.90268,0.176903 7.80726,0.307779 11.71007,0.480903 3.75415,0.180995 7.50794,0.368983 11.26217,0.548652 3.73183,0.179318 7.46475,0.334427 11.19802,0.480481 3.75299,0.177214 7.50551,0.364057 11.25847,0.541939 3.7389,0.151983 7.47489,0.365494 11.21121,0.569552 3.78077,0.208617 7.56253,0.396852 11.34525,0.566242 3.87555,0.221106 7.75341,0.399897 11.62841,0.630442 3.85318,0.234986 7.70611,0.474854 11.56008,0.696652 3.90474,0.22078 7.81132,0.406649 11.71828,0.583057 4.00532,0.190859 8.01008,0.39982 12.01307,0.634935 4.08404,0.233823 8.16494,0.51552 12.24602,0.795126 4.35267,0.217169 8.68395,0.678702 13.02766,1.013173 4.75686,0.334681 9.51314,0.675192 14.26918,1.021362 4.47513,0.331141 8.95315,0.619766 13.42716,0.965951 4.16244,0.300329 8.32134,0.643412 12.47945,0.997966 3.9263,0.301696 7.84616,0.677569 11.76831,1.027506 3.73629,0.339236 7.47596,0.639272 11.21604,0.933183 3.61309,0.250683 7.22178,0.55793 10.8318,0.848188 3.42371,0.250706 6.84245,0.562032 10.26156,0.867963 3.33618,0.326129 6.67164,0.658905 10.00524,1.010406 3.26748,0.365097 6.54195,0.662399 9.81139,1.008326 3.24212,0.328215 6.48057,0.688916 9.71951,1.046647 3.19416,0.37209 6.38134,0.792682 9.56333,1.256588 3.15665,0.453411 6.31018,0.927695 9.46535,1.391225 3.1871,0.461594 6.38269,0.859709 9.57984,1.244188 3.06591,0.355407 6.13637,0.671126 9.20817,0.971021 2.73586,0.275121 5.47279,0.532602 8.2155,0.728027 2.36396,0.154417 4.72941,0.284739 7.09464,0.417848 1.92089,0.107845 3.8418,0.215228 5.76271,0.322663 1.55111,0.08675 3.10222,0.173485 4.65333,0.260224 1.25234,0.07003 2.50467,0.140062 3.757,0.210094 1.01111,0.05654 2.02221,0.113082 3.03331,0.169624 0.81634,0.04565 1.63268,0.0913 2.44902,0.13695 0.71014,0.03601 1.42,0.07654 2.12665,0.156686 0.80965,0.102924 1.62151,0.187539 2.43297,0.274711 0.68671,0.07358 1.37346,0.146839 2.06021,0.220131 0.55507,0.05924 1.11014,0.118465 1.66522,0.177695 0.59933,0.08976 1.2028,0.136964 1.80703,0.178334 0.58625,0.03856 1.17269,0.0744 1.7591,0.110551 0.5774,0.017 1.1432,0.139384 1.7131,0.222449 0.6141,0.08468 1.22921,0.161786 1.84418,0.239816 0.50428,0.0639 1.00857,0.127666 1.51287,0.191444 0.43965,0.05091 0.87719,0.117288 1.31594,0.174954 0.58533,0.07755 1.17516,0.110037 1.76411,0.146237 0.52904,0.04247 1.06014,-0.0025 1.58835,-0.0376 0.42864,-0.02942 0.85716,-0.06056 1.2857,-0.0915 0.5031,-0.01218 1.00652,0.05921 1.50776,0.103049 0.67915,0.05609 1.36021,0.08327 2.04029,0.125901 0.80772,0.05369 1.61649,0.08807 2.42553,0.11404 0.82228,0.01669 1.64413,0.04405 2.46596,0.0756 0.88667,0.02396 1.77333,0.04793 2.65994,0.07435 0.61763,0.01357 1.23539,0.01854 1.85312,0.02416 0,0 -5.61713,3.243051 -5.61713,3.243051 l 0,0 c -0.60633,-0.01678 -1.21268,-0.03405 -1.81918,-0.04375 -0.90227,-0.0087 -1.8044,-0.02369 -2.70639,-0.04753 -0.82256,-0.01289 -1.6446,-0.03636 -2.46637,-0.07536 -0.83215,-0.02863 -1.66452,-0.04879 -2.49681,-0.07289 -0.69403,-0.02526 -1.38651,-0.07554 -2.08044,-0.102717 -0.54394,-0.02331 -1.09014,-0.06885 -1.63415,-0.03008 -0.41314,0.02203 -0.82627,0.04424 -1.23948,0.06482 -0.5104,0.02428 -1.02379,0.05823 -1.53349,0.0059 -0.60047,-0.04782 -1.20104,-0.09356 -1.80269,-0.123971 -0.45012,-0.03254 -0.89786,-0.0794 -1.34232,-0.159718 -0.48609,-0.07436 -0.97217,-0.148737 -1.45828,-0.222967 -0.59823,-0.09125 -1.19636,-0.183397 -1.79561,-0.267859 -0.59129,-0.07883 -1.18382,-0.147853 -1.77933,-0.184205 -0.56713,-0.04837 -1.13424,-0.09694 -1.70149,-0.143819 -0.62612,-0.05069 -1.2533,-0.08484 -1.87909,-0.136724 -0.53497,-0.07084 -1.06994,-0.141687 -1.60491,-0.212515 -0.66231,-0.08768 -1.3246,-0.175444 -1.987,-0.262397 -0.80502,-0.105111 -1.60994,-0.215663 -2.41924,-0.282641 -0.71846,-0.05342 -1.43956,-0.06288 -2.15662,-0.139385 -0.7869,-0.06265 -1.57379,-0.125295 -2.36069,-0.187943 -0.97464,-0.07759 -1.94928,-0.155188 -2.92392,-0.232782 -1.20717,-0.09611 -2.41433,-0.192213 -3.6215,-0.28832 -1.49518,-0.119035 -2.99036,-0.238071 -4.48553,-0.357108 -1.8518,-0.147431 -3.70359,-0.294851 -5.55539,-0.44236 -2.28834,-0.182344 -4.57673,-0.364162 -6.86475,-0.550574 -2.68869,-0.222178 -5.36995,-0.516649 -8.05018,-0.823478 -3.02185,-0.347085 -6.04402,-0.691063 -9.064,-1.054256 -3.1929,-0.381437 -6.38214,-0.79392 -9.56489,-1.252818 -3.16503,-0.447675 -6.32846,-0.906743 -9.49022,-1.376868 -3.17529,-0.482351 -6.3593,-0.895546 -9.54984,-1.264374 -3.2256,-0.37767 -6.45351,-0.732634 -9.68389,-1.067214 -3.26526,-0.334561 -6.53268,-0.648442 -9.79427,-1.01821 -3.32506,-0.371479 -6.65514,-0.693576 -9.98467,-1.022283 -3.39009,-0.309519 -6.7777,-0.646266 -10.171,-0.920247 -3.58249,-0.311058 -7.16419,-0.631095 -10.75055,-0.895095 -3.71946,-0.293852 -7.43635,-0.618352 -11.15073,-0.97089 -3.88147,-0.375489 -7.76227,-0.758154 -11.64713,-1.097474 -4.11601,-0.367758 -8.23245,-0.728838 -12.35058,-1.072367 -4.42004,-0.370232 -8.8422,-0.711782 -13.26402,-1.06014 -4.72549,-0.385193 -9.45264,-0.748558 -14.18286,-1.071196 -4.45832,-0.307794 -8.92381,-0.469282 -13.38023,-0.809617 -4.09052,-0.279607 -8.18184,-0.542634 -12.27515,-0.778313 -4.02574,-0.232778 -8.05391,-0.427456 -12.08287,-0.594627 -3.91261,-0.174824 -7.82476,-0.360032 -11.73549,-0.573123 -3.85649,-0.209665 -7.71146,-0.441674 -11.56543,-0.693567 -3.88123,-0.229154 -7.76426,-0.430973 -11.64767,-0.619322 -3.79967,-0.163719 -7.59943,-0.32805 -11.39696,-0.536384 -3.73481,-0.203144 -7.46876,-0.420453 -11.20612,-0.572493 -3.75113,-0.175158 -7.5009,-0.376965 -11.25232,-0.545487 -3.74063,-0.141164 -7.48099,-0.290346 -11.2201,-0.467738 -3.73381,-0.17958 -7.46663,-0.378851 -11.19905,-0.585091 -3.88647,-0.196374 -7.77574,-0.33187 -11.66317,-0.507984 -3.96067,-0.169597 -7.92268,-0.292738 -11.88504,-0.416525 -3.97431,-0.129963 -7.94891,-0.240267 -11.92483,-0.309232 -3.96505,-0.08963 -7.92994,-0.185863 -11.89471,-0.287021 -3.86723,-0.09267 -7.734,-0.20909 -11.60261,-0.225891 -3.63835,-0.03973 -7.27667,-0.08706 -10.91463,-0.15377 -3.50855,-0.06851 -7.01664,-0.15313 -10.52461,-0.246286 -3.7181,-0.08076 -7.43675,-0.104126 -11.15559,-0.126566 -3.8208,-0.02046 -7.6416,-0.04112 -11.46232,-0.07232 -3.84115,-0.03591 -7.68242,-0.05634 -11.52362,-0.08671 -3.73418,-0.02499 -7.46838,-0.04833 -11.20255,-0.07612 -3.41509,-0.02037 -6.83016,-0.04414 -10.24527,-0.06026 -2.84322,-0.01524 -5.68642,-0.03145 -8.52949,0.01149 -2.65334,0.0092 -5.30667,0.01119 -7.96001,0.01921 -2.75694,0.0228 -5.51382,0.05968 -8.27025,0.117803 -2.37195,0.04692 -4.74412,0.08668 -7.11653,0.09986 -2.50928,0.01059 -5.01854,0.02743 -7.52776,0.04788 -2.72588,0.0389 -5.4516,0.08814 -8.17697,0.154196 -2.516,0.05906 -5.03194,0.120868 -7.54815,0.170395 -2.64207,0.04814 -5.28444,0.08016 -7.92615,0.147216 -2.85805,0.06158 -5.71523,0.155103 -8.57183,0.264702 -2.58702,0.102258 -5.1734,0.220141 -7.75892,0.355272 -2.29793,0.122514 -4.59594,0.243943 -6.89242,0.391743 -2.11087,0.136744 -4.22213,0.263161 -6.3357,0.350857 -1.87734,0.09992 -3.75456,0.20219 -5.63114,0.315774 -1.86944,0.113542 -3.73906,0.224295 -5.60796,0.346549 -2.0627,0.129752 -4.12464,0.280327 -6.19039,0.353495 -2.23449,0.09026 -4.46903,0.180554 -6.70197,0.304456 -2.15301,0.123938 -4.30529,0.258323 -6.45601,0.417882 -2.01566,0.148181 -4.03078,0.304315 -6.04518,0.468721 -2.02685,0.180252 -4.05215,0.378882 -6.07304,0.617578 -1.95454,0.226396 -3.90867,0.456831 -5.85999,0.709628 -2.10567,0.272508 -4.2087,0.565745 -6.305845,0.898076 -2.094898,0.334287 -4.184946,0.697846 -6.282244,1.017115 -2.085418,0.343177 -4.167092,0.708166 -6.243296,1.103581 -2.108284,0.388165 -4.223344,0.739631 -6.326284,1.157041 -2.235145,0.436875 -4.466793,0.891448 -6.684877,1.409152 -2.168444,0.492577 -4.340583,0.96994 -6.49152,1.536143 -1.998498,0.490341 -3.98452,1.025942 -5.965103,1.584139 -1.725744,0.476991 -3.458423,0.928034 -5.185599,1.399769 -1.462815,0.38041 -2.925981,0.75905 -4.394497,1.116991 -1.229598,0.309575 -2.465526,0.594219 -3.686627,0.937194 -0.98651,0.244585 -1.967111,0.51276 -2.969933,0.685118 -0.710794,0.153998 -1.419364,0.317919 -2.135839,0.444207 -0.461433,0.05681 -0.922731,0.143251 -1.387998,0.15029 -0.371796,0.0062 -0.743611,-0.0053 -1.115444,5.66e-4 0,0 5.874763,-3.391797 5.874763,-3.391797 z" />
  </g>
</svg>
