<?xml version="1.0" encoding="UTF-8" standalone="no"?>
<!-- Created with Inkscape (http://www.inkscape.org/) -->

<svg
   xmlns:dc="http://purl.org/dc/elements/1.1/"
   xmlns:cc="http://creativecommons.org/ns#"
   xmlns:rdf="http://www.w3.org/1999/02/22-rdf-syntax-ns#"
   xmlns:svg="http://www.w3.org/2000/svg"
   xmlns="http://www.w3.org/2000/svg"
   xmlns:xlink="http://www.w3.org/1999/xlink"
   xmlns:sodipodi="http://sodipodi.sourceforge.net/DTD/sodipodi-0.dtd"
   xmlns:inkscape="http://www.inkscape.org/namespaces/inkscape"
   width="744.09448819"
   height="1052.3622047"
   id="svg2"
   version="1.1"
   inkscape:version="0.47pre4 r22446"
   sodipodi:docname="2009Aug15GradientBoxReturn04a.svg"
   inkscape:output_extension="org.inkscape.output.svg.inkscape">
  <defs
     id="defs4">
    <linearGradient
       id="linearGradient5279">
      <stop
         style="stop-color:#000027;stop-opacity:0.27642277;"
         offset="0"
         id="stop5281" />
      <stop
         style="stop-color:#000000;stop-opacity:0;"
         offset="1"
         id="stop5283" />
    </linearGradient>
    <linearGradient
       id="linearGradient3790">
      <stop
         style="stop-color:#ff0037;stop-opacity:1;"
         offset="0"
         id="stop3792" />
      <stop
         style="stop-color:#000000;stop-opacity:0;"
         offset="1"
         id="stop3794" />
    </linearGradient>
    <inkscape:perspective
       sodipodi:type="inkscape:persp3d"
       inkscape:vp_x="0 : 526.18109 : 1"
       inkscape:vp_y="0 : 1000 : 0"
       inkscape:vp_z="744.09448 : 526.18109 : 1"
       inkscape:persp3d-origin="372.04724 : 350.78739 : 1"
       id="perspective10" />
    <filter
       inkscape:collect="always"
       id="filter3604"
       x="-0.023490764"
       width="1.0469815"
       y="-0.315376"
       height="1.630752">
      <feGaussianBlur
         inkscape:collect="always"
         stdDeviation="6.1761134"
         id="feGaussianBlur3606" />
    </filter>
    <linearGradient
       inkscape:collect="always"
       xlink:href="#linearGradient5279"
       id="linearGradient5285"
       x1="58.677327"
       y1="135.86218"
       x2="720.32267"
       y2="135.86218"
       gradientUnits="userSpaceOnUse" />
    <linearGradient
       inkscape:collect="always"
       xlink:href="#linearGradient5279"
       id="linearGradient5289"
       gradientUnits="userSpaceOnUse"
       x1="58.677327"
       y1="135.86218"
       x2="720.32267"
       y2="135.86218" />
    <linearGradient
       inkscape:collect="always"
       xlink:href="#linearGradient5279"
       id="linearGradient5319"
       gradientUnits="userSpaceOnUse"
       x1="58.677326"
       y1="135.86218"
       x2="720.32269"
       y2="135.86218" />
    <inkscape:perspective
       id="perspective2878"
       inkscape:persp3d-origin="0.5 : 0.33333333 : 1"
       inkscape:vp_z="1 : 0.5 : 1"
       inkscape:vp_y="0 : 1000 : 0"
       inkscape:vp_x="0 : 0.5 : 1"
       sodipodi:type="inkscape:persp3d" />
    <linearGradient
       gradientTransform="translate(-146.5,206.5)"
       inkscape:collect="always"
       xlink:href="#linearGradient3790-7"
       id="linearGradient3798"
       x1="57.677326"
       y1="135.86218"
       x2="721.32269"
       y2="135.86218"
       gradientUnits="userSpaceOnUse" />
    <linearGradient
       id="linearGradient3790-7">
      <stop
         style="stop-color:#ff0037;stop-opacity:1;"
         offset="0"
         id="stop3792-9" />
      <stop
         style="stop-color:#000000;stop-opacity:0;"
         offset="1"
         id="stop3794-3" />
    </linearGradient>
    <filter
       color-interpolation-filters="sRGB"
       inkscape:collect="always"
       id="filter3604-8"
       x="-0.023490764"
       width="1.0469815"
       y="-0.31537601"
       height="1.630752">
      <feGaussianBlur
         inkscape:collect="always"
         stdDeviation="6.1761134"
         id="feGaussianBlur3606-0" />
    </filter>
    <inkscape:perspective
       id="perspective5222"
       inkscape:persp3d-origin="0.5 : 0.33333333 : 1"
       inkscape:vp_z="1 : 0.5 : 1"
       inkscape:vp_y="0 : 1000 : 0"
       inkscape:vp_x="0 : 0.5 : 1"
       sodipodi:type="inkscape:persp3d" />
    <inkscape:perspective
       id="perspective3969"
       inkscape:persp3d-origin="0.5 : 0.33333333 : 1"
       inkscape:vp_z="1 : 0.5 : 1"
       inkscape:vp_y="0 : 1000 : 0"
       inkscape:vp_x="0 : 0.5 : 1"
       sodipodi:type="inkscape:persp3d" />
    <filter
       color-interpolation-filters="sRGB"
       inkscape:collect="always"
       id="filter3858"
       x="-0.11727906"
       width="1.2345581"
       y="-1.2057066"
       height="3.4114132">
      <feGaussianBlur
         inkscape:collect="always"
         stdDeviation="9.9060937"
         id="feGaussianBlur3860" />
    </filter>
    <filter
       id="filter5198"
       inkscape:menu-tooltip="Slightly cracked enameled texture"
       inkscape:menu="Materials"
       inkscape:label="Enamel jewelry"
       color-interpolation-filters="sRGB">
      <feGaussianBlur
         id="feGaussianBlur5200"
         stdDeviation="3"
         result="result10" />
      <feBlend
         id="feBlend5202"
         in2="SourceGraphic"
         result="result5"
         mode="multiply"
         in="result10" />
      <feComposite
         id="feComposite5204"
         in2="SourceGraphic"
         in="result5"
         result="fbSourceGraphic"
         operator="over" />
      <feGaussianBlur
         id="feGaussianBlur5206"
         result="result9"
         stdDeviation="5" />
      <feSpecularLighting
         id="feSpecularLighting5208"
         in="result9"
         result="result1"
         lighting-color="rgb(255,255,255)"
         surfaceScale="1"
         specularConstant="2.2"
         specularExponent="45">
        <fePointLight
           id="fePointLight5210"
           x="-5000"
           y="-10000"
           z="20000" />
      </feSpecularLighting>
      <feComposite
         id="feComposite5212"
         in2="fbSourceGraphic"
         in="result1"
         result="result2"
         operator="in" />
      <feComposite
         id="feComposite5214"
         in2="fbSourceGraphic"
         in="result2"
         result="result4"
         operator="arithmetic"
         k2="2"
         k3="0.8" />
      <feBlend
         id="feBlend5216"
         in2="result4"
         in="result4"
         mode="multiply"
         result="fbSourceGraphic" />
      <feColorMatrix
         result="fbSourceGraphicAlpha"
         in="fbSourceGraphic"
         values="0 0 0 -1 0 0 0 0 -1 0 0 0 0 -1 0 0 0 0 1 0"
         id="feColorMatrix5218" />
      <feGaussianBlur
         id="feGaussianBlur5220"
         result="result0"
         in="fbSourceGraphic"
         stdDeviation="2" />
      <feTurbulence
         id="feTurbulence5222"
         baseFrequency="0.052"
         seed="488"
         numOctaves="8"
         result="result1"
         type="fractalNoise" />
      <feDisplacementMap
         id="feDisplacementMap5224"
         in2="result1"
         result="result5"
         xChannelSelector="R"
         scale="0" />
      <feComposite
         id="feComposite5226"
         in2="result5"
         result="result2"
         operator="in"
         in="result0" />
      <feSpecularLighting
         id="feSpecularLighting5228"
         surfaceScale="3"
         result="result4"
         specularConstant="3.94"
         specularExponent="40"
         lighting-color="rgb(226,252,180)"
         in="result2">
        <feDistantLight
           id="feDistantLight5230"
           elevation="80"
           azimuth="265" />
      </feSpecularLighting>
      <feComposite
         id="feComposite5232"
         in2="result2"
         k1="5"
         k3="0.5"
         in="result4"
         operator="arithmetic"
         result="result91" />
      <feBlend
         id="feBlend5234"
         in2="result91"
         result="fbSourceGraphic"
         mode="darken" />
      <feGaussianBlur
         id="feGaussianBlur5236"
         stdDeviation="5"
         in="fbSourceGraphic"
         result="result0" />
      <feSpecularLighting
         id="feSpecularLighting5238"
         in="result0"
         result="result1"
         lighting-color="rgb(250,224,108)"
         surfaceScale="4"
         specularConstant="1"
         specularExponent="20">
        <feDistantLight
           id="feDistantLight5240"
           azimuth="225"
           elevation="50" />
      </feSpecularLighting>
      <feComposite
         id="feComposite5242"
         in2="fbSourceGraphic"
         in="result1"
         result="result2"
         operator="in" />
      <feComposite
         id="feComposite5244"
         in2="result2"
         in="fbSourceGraphic"
         result="result4"
         operator="arithmetic"
         k2="0.5"
         k3="2" />
      <feBlend
         id="feBlend5246"
         in2="result4"
         mode="multiply" />
    </filter>
    <inkscape:perspective
       id="perspective5434"
       inkscape:persp3d-origin="0.5 : 0.33333333 : 1"
       inkscape:vp_z="1 : 0.5 : 1"
       inkscape:vp_y="0 : 1000 : 0"
       inkscape:vp_x="0 : 0.5 : 1"
       sodipodi:type="inkscape:persp3d" />
  </defs>
  <sodipodi:namedview
     id="base"
     pagecolor="#ffffff"
     bordercolor="#666666"
     borderopacity="1.0"
     inkscape:pageopacity="0.0"
     inkscape:pageshadow="2"
     inkscape:zoom="1"
     inkscape:cx="380.2167"
     inkscape:cy="814.42225"
     inkscape:document-units="px"
     inkscape:current-layer="layer1"
     showgrid="false"
     inkscape:window-width="1775"
     inkscape:window-height="1158"
     inkscape:window-x="0"
     inkscape:window-y="0"
     inkscape:window-maximized="0" />
  <metadata
     id="metadata7">
    <rdf:RDF>
      <cc:Work
         rdf:about="">
        <dc:format>image/svg+xml</dc:format>
        <dc:type
           rdf:resource="http://purl.org/dc/dcmitype/StillImage" />
        <dc:title></dc:title>
      </cc:Work>
    </rdf:RDF>
  </metadata>
  <g
     inkscape:groupmode="layer"
     id="layer13"
     inkscape:label="underglow none made yet"
     style="display:inline">
    <path
       inkscape:export-xdpi="90"
       inkscape:export-ydpi="90"
       style="fill:#666666;fill-opacity:1;fill-rule:nonzero;stroke:none;display:inline"
       id="path2816-7"
       d="m 113.33028,271.12801 c 1.32466,-0.0318 -52.961198,44.70869 -51.642831,44.58083 1.649636,-0.13995 3.27781,-0.43639 4.890686,-0.80118 2.080548,-0.51908 4.131047,-1.15404 6.166307,-1.82735 2.399922,-0.78808 4.782785,-1.62756 7.168331,-2.4581 2.710633,-0.99151 5.400427,-2.03831 8.099848,-3.05963 2.88695,-1.13209 5.789231,-2.22407 8.689081,-3.32244 3.140722,-1.17564 6.261638,-2.40098 9.423448,-3.51971 3.44944,-1.17101 6.90242,-2.33139 10.35231,-3.50114 3.71268,-1.27962 7.45677,-2.46356 11.2151,-3.60099 4.00644,-1.18465 8.04634,-2.25146 12.08961,-3.30202 4.18833,-1.06738 8.3982,-2.04565 12.61385,-2.99819 4.31734,-0.97754 8.65201,-1.87284 12.9962,-2.72199 4.54099,-0.87329 9.09015,-1.70425 13.64657,-2.49298 4.6285,-0.8086 9.26816,-1.55155 13.91006,-2.27863 4.75604,-0.68449 9.52817,-1.25229 14.29928,-1.82023 4.84618,-0.52048 9.70304,-0.93452 14.55792,-1.3641 4.86425,-0.43014 9.74062,-0.70384 14.61426,-1.00226 4.85863,-0.29765 9.72477,-0.44815 14.58885,-0.62603 4.78914,-0.11253 9.57949,-0.19531 14.37,-0.2067 4.76744,-0.0186 9.53299,0.0759 14.29852,0.196 4.83939,0.11512 9.67428,0.35904 14.50648,0.63962 5.1981,0.34282 10.38801,0.80038 15.57368,1.29454 5.70966,0.50215 11.39135,1.25137 17.07442,1.98514 6.27876,0.84846 12.55217,1.73632 18.82537,2.62499 6.87695,0.96075 13.75257,1.93143 20.63557,2.84833 7.51693,0.98541 59.07213,34.69145 66.6042,35.5538 8.32169,0.90821 -27.38074,-31.03054 -19.04844,-30.22583 9.1969,0.88721 18.40964,1.59397 27.6248,2.25961 9.48538,0.68057 18.97656,1.27638 28.46953,1.83986 9.57771,0.60929 19.16672,0.99954 28.75661,1.3534 9.60658,0.34991 19.21511,0.64058 28.82409,0.91496 9.22324,0.21736 18.44868,0.32364 27.67363,0.43968 8.41738,0.1074 16.83484,0.2074 25.25234,0.30551 7.66859,0.0843 15.33724,0.16153 23.00589,0.2388 6.82087,0.0692 13.64174,0.13735 20.4626,0.20662 6.05466,0.061 12.10936,0.12191 18.16402,0.18336 5.37433,0.0547 10.74868,0.10831 16.12301,0.16267 4.77043,0.0482 9.54085,0.0963 14.31138,0.14453 4.23437,0.0424 8.46883,0.0858 12.7032,0.12827 3.75861,0.0383 7.51723,0.0756 11.27584,0.11397 3.33626,0.0338 6.67253,0.0676 10.00879,0.10137 2.96143,0.0298 5.92276,0.0595 8.88419,0.0893 1.78699,0.0182 3.57399,0.0363 5.36098,0.0545 0,0 -9.20219,5.75249 -9.20219,5.75249 l 0,0 c -1.77357,-0.026 -3.54712,-0.0529 -5.32059,-0.0794 -2.93913,-0.0438 -5.87817,-0.0877 -8.8172,-0.13149 -3.31109,-0.0494 -6.62228,-0.0987 -9.93337,-0.14817 -3.73025,-0.0556 -7.46051,-0.11124 -11.19076,-0.16696 -4.20252,-0.0627 -8.40504,-0.12537 -12.60746,-0.18805 -4.73451,-0.0706 -9.469,-0.14128 -14.20349,-0.21188 -5.33383,-0.0795 -10.66765,-0.15914 -16.00148,-0.23866 -6.00901,-0.0897 -149.97857,-21.06666 -155.98761,-21.1563 -6.76951,-0.10092 124.42148,20.68544 117.65195,20.58451 -7.61559,-0.1135 101.53894,-12.90304 93.92324,-13.01375 -8.3716,-0.11951 -133.51325,12.4265 -141.88457,12.28392 -9.18375,-0.15662 -18.36787,-0.29958 -27.55045,-0.51669 -9.59739,-0.28995 -19.19484,-0.58197 -28.79009,-0.93619 -9.60099,-0.35647 -19.20269,-0.71362 -28.7913,-1.33172 -9.49444,-0.57036 -18.9878,-1.15954 -28.47537,-1.83622 -9.25832,-0.66675 -18.51715,-1.3355 -27.76188,-2.1739 -8.3834,-0.77031 100.50591,0.0385 92.13297,-0.83829 -7.57995,-0.82599 -132.41923,-3.35151 -139.98414,-4.30503 -6.91982,-0.88701 -13.8275,-1.86458 -20.74346,-2.78088 -6.30789,-0.8764 28.15584,19.72697 21.84363,18.8825 -5.72402,-0.7094 -52.22474,-22.86593 -57.97364,-23.34873 -5.21187,-0.4829 21.58181,15.10901 16.35741,14.78495 -4.848,-0.26971 -255.362253,5.2634 -260.216872,5.15427 -4.76035,-0.13087 204.131472,-22.01613 199.368982,-21.99951 -4.78862,0.008 -81.56322,-14.52583 -86.35063,-14.42324 -4.86349,0.16773 62.25697,14.94515 57.39978,15.25091 -4.87309,0.28866 -9.74868,0.56246 -14.61115,1.00033 -4.85751,0.42107 -9.71576,0.84128 -14.56326,1.36743 -4.77749,0.56992 -9.55642,1.13542 -14.31753,1.83164 -4.64535,0.7295 -9.28815,1.47579 -13.92039,2.28508 -4.56253,0.80017 -9.12192,1.61953 -13.66846,2.50667 -4.35511,0.86019 -8.70049,1.76851 -13.03137,2.74397 -4.22679,0.95389 -8.44647,1.94068 -12.64399,3.01704 -4.05645,1.05418 -8.11012,2.12287 -12.12588,3.32469 -3.77296,1.14553 92.00576,-12.59219 88.27951,-11.30176 -3.46789,1.18346 -106.47805,17.28245 -109.945938,18.4658 -3.177197,1.13308 -43.537029,0.81142 -46.694018,1.9988 -2.914776,1.11106 31.385638,3.76123 28.483325,4.90471 -2.71595,1.02671 -5.418974,2.08735 -8.144822,3.08774 -2.415245,0.84792 -4.827522,1.70537 -7.256487,2.51322 -2.05871,0.68339 -4.131722,1.32966 -6.23325,1.86918 -1.641562,0.38565 -3.297009,0.70657 -4.979134,0.85647 -1.318016,0.13892 -2.636097,0.26333 -3.963261,0.25572 0,0 65.025105,-50.72457 65.025105,-50.72457 z"
       sodipodi:nodetypes="cccccccccccsccccsscccccccccsccccccssssssssscccssssssssscsccccccccccccccccccccscccccccscccc" />
    <path
       sodipodi:nodetypes="cccccccccccsccccsscccccccccsccccccssssssssscccssssssssscsccccccccccccccccccccscccccccscccc"
       d="m 121.33028,74.12801 c 1.32466,-0.0318 -52.961198,44.70869 -51.642831,44.58083 1.649636,-0.13995 3.27781,-0.43639 4.890686,-0.80118 2.080548,-0.51908 4.131047,-1.15404 6.166307,-1.82735 2.399922,-0.78808 4.782785,-1.62756 7.168331,-2.4581 2.710633,-0.99151 5.400427,-2.03831 8.099848,-3.05963 2.88695,-1.13209 5.789229,-2.22407 8.689079,-3.32244 3.14072,-1.17564 6.26164,-2.40098 9.42345,-3.51971 3.44944,-1.17101 6.90242,-2.33139 10.35231,-3.50114 3.71268,-1.27962 7.45677,-2.46356 11.2151,-3.60099 4.00644,-1.18465 8.04634,-2.25146 12.08961,-3.30202 4.18833,-1.06738 8.3982,-2.04565 12.61385,-2.99819 4.31734,-0.97754 8.65201,-1.87284 12.9962,-2.72199 4.54099,-0.87329 9.09015,-1.70425 13.64657,-2.49298 4.6285,-0.8086 9.26816,-1.55155 13.91006,-2.27863 4.75604,-0.68449 9.52817,-1.25229 14.29928,-1.82023 4.84618,-0.52048 9.70304,-0.93452 14.55792,-1.3641 4.86425,-0.43014 9.74062,-0.70384 14.61426,-1.00226 4.85863,-0.29765 9.72477,-0.44815 14.58885,-0.62603 4.78914,-0.11253 9.57949,-0.19531 14.37,-0.2067 4.76744,-0.0186 9.53299,0.0759 14.29852,0.196 4.83939,0.11512 9.67428,0.35904 14.50648,0.63962 5.1981,0.34282 10.38801,0.80038 15.57368,1.29454 5.70966,0.50215 11.39135,1.25137 17.07442,1.98514 6.27876,0.84846 12.55217,1.73632 18.82537,2.62499 6.87695,0.96075 13.75257,1.93143 20.63557,2.84833 7.51693,0.98541 59.07213,34.69145 66.6042,35.5538 8.32169,0.90821 -27.38074,-31.03054 -19.04844,-30.22583 9.1969,0.88721 18.40964,1.59397 27.6248,2.25961 9.48538,0.68057 18.97656,1.27638 28.46953,1.83986 9.57771,0.60929 19.16672,0.99954 28.75661,1.3534 9.60658,0.34991 19.21511,0.64058 28.82409,0.91496 9.22324,0.21736 18.44868,0.32364 27.67363,0.43968 8.41738,0.1074 16.83484,0.2074 25.25234,0.30551 7.66859,0.0843 15.33724,0.16153 23.00589,0.2388 6.82087,0.0692 13.64174,0.13735 20.4626,0.20662 6.05466,0.061 12.10936,0.12191 18.16402,0.18336 5.37433,0.0547 10.74868,0.10831 16.12301,0.16267 4.77043,0.0482 9.54085,0.0963 14.31138,0.14453 4.23437,0.0424 8.46883,0.0858 12.7032,0.12827 3.75861,0.0383 7.51723,0.0756 11.27584,0.11397 3.33626,0.0338 6.67253,0.0676 10.00879,0.10137 2.96143,0.0298 5.92276,0.0595 8.88419,0.0893 1.78699,0.0182 3.57399,0.0363 5.36098,0.0545 0,0 -9.20219,5.75249 -9.20219,5.75249 l 0,0 c -1.77357,-0.026 -3.54712,-0.0529 -5.32059,-0.0794 -2.93913,-0.0438 -5.87817,-0.0877 -8.8172,-0.13149 -3.31109,-0.0494 -6.62228,-0.0987 -9.93337,-0.14817 -3.73025,-0.0556 -7.46051,-0.11124 -11.19076,-0.16696 -4.20252,-0.0627 -8.40504,-0.12537 -12.60746,-0.18805 -4.73451,-0.0706 -9.469,-0.14128 -14.20349,-0.21188 -5.33383,-0.0795 -10.66765,-0.15914 -16.00148,-0.23866 -6.00901,-0.0897 -149.97857,-21.06666 -155.98761,-21.1563 -6.76951,-0.10092 124.42148,20.68544 117.65195,20.58451 -7.61559,-0.1135 101.53894,-12.90304 93.92324,-13.01375 -8.3716,-0.11951 -133.51325,12.4265 -141.88457,12.28392 -9.18375,-0.15662 -18.36787,-0.29958 -27.55045,-0.51669 -9.59739,-0.28995 -19.19484,-0.58197 -28.79009,-0.93619 -9.60099,-0.35647 -19.20269,-0.71362 -28.7913,-1.33172 -9.49444,-0.57036 -18.9878,-1.15954 -28.47537,-1.83622 -9.25832,-0.66675 -18.51715,-1.3355 -27.76188,-2.1739 -8.3834,-0.77031 100.50591,0.0385 92.13297,-0.83829 -7.57995,-0.82599 -132.41923,-3.35151 -139.98414,-4.30503 -6.91982,-0.88701 -13.8275,-1.86458 -20.74346,-2.78088 -6.30789,-0.8764 28.15584,19.72697 21.84363,18.8825 -5.72402,-0.7094 -52.22474,-22.86593 -57.97364,-23.34873 -5.21187,-0.4829 21.58181,15.10901 16.35741,14.78495 -4.848,-0.26971 -255.362253,5.2634 -260.216872,5.15427 -4.76035,-0.13087 204.131472,-22.01613 199.368982,-21.99951 -4.78862,0.008 -81.56322,-14.52583 -86.35063,-14.42324 -4.86349,0.16773 62.25697,14.94515 57.39978,15.25091 -4.87309,0.28866 -9.74868,0.56246 -14.61115,1.00033 -4.85751,0.42107 -9.71576,0.84128 -14.56326,1.36743 -4.77749,0.56992 -9.55642,1.13542 -14.31753,1.83164 -4.64535,0.7295 -9.28815,1.47579 -13.92039,2.28508 -4.56253,0.80017 -9.12192,1.61953 -13.66846,2.50667 -4.35511,0.86019 -8.70049,1.76851 -13.03137,2.74397 -4.22679,0.95389 -8.44647,1.94068 -12.64399,3.01704 -4.05645,1.05418 -8.11012,2.12287 -12.12588,3.32469 -3.77296,1.14553 92.00576,-12.59219 88.27951,-11.30176 -3.46789,1.18346 -106.47805,17.28245 -109.94594,18.4658 -3.1772,1.13308 -43.537027,0.81142 -46.694016,1.9988 -2.914776,1.11106 31.385638,3.76123 28.483325,4.90471 -2.71595,1.02671 -5.418974,2.08735 -8.144822,3.08774 -2.415245,0.84792 -4.827522,1.70537 -7.256487,2.51322 -2.05871,0.68339 -4.131722,1.32966 -6.23325,1.86918 -1.641562,0.38565 -3.297009,0.70657 -4.979134,0.85647 -1.318016,0.13892 -2.636097,0.26333 -3.963261,0.25572 0,0 65.025105,-50.72457 65.025105,-50.72457 z"
       id="path5448"
       style="fill:#666666;fill-opacity:1;fill-rule:nonzero;stroke:none;display:inline"
       inkscape:export-ydpi="90"
       inkscape:export-xdpi="90" />
  </g>
  <g
     inkscape:groupmode="layer"
     id="layer2"
     inkscape:label="Layer"
     style="display:inline">
    <rect
       y="112.36218"
       x="74"
       height="47"
       width="631"
       id="rect3602"
       style="fill:#23c8e9;fill-opacity:1;fill-rule:nonzero;stroke:url(#linearGradient5319);stroke-width:7.08661413;stroke-miterlimit:4;stroke-opacity:1;stroke-dasharray:none;filter:url(#filter3604)"
       transform="matrix(0.99461575,0,0,0.43170648,-3.9028519,96.209593)" />
    <flowRoot
       xml:space="preserve"
       id="flowRoot5291"
       style="font-size:40px;font-style:normal;font-weight:normal;fill:#000000;fill-opacity:1;stroke:none;font-family:Bitstream Vera Sans"><flowRegion
         id="flowRegion5293"><rect
           id="rect5295"
           width="279"
           height="41"
           x="95"
           y="98.362183" /></flowRegion><flowPara
         id="flowPara5297">servicese</flowPara></flowRoot>  </g>
  <g
     inkscape:groupmode="layer"
     id="layer11"
     inkscape:label="spark"
     style="display:inline">
    <path
       inkscape:export-xdpi="90"
       inkscape:export-ydpi="90"
       style="fill:#666666;fill-opacity:1;fill-rule:nonzero;stroke:none;display:inline;filter:url(#filter5198)"
       id="path2816"
       d="m 568.14326,357.47509 c 0.0214,1.32487 -44.29122,-53.31081 -44.17373,-51.99148 0.12699,1.65069 0.41063,3.28114 0.76274,4.89683 0.50272,2.08456 1.12155,4.13999 1.77884,6.18047 0.76921,2.40604 1.58994,4.79543 2.40172,7.18743 0.97018,2.71833 1.99581,5.41627 2.99589,8.12363 1.10937,2.89576 2.17852,5.80653 3.25408,8.71492 1.15092,3.14986 2.35171,6.2803 3.44556,9.45081 1.14388,3.45853 2.27709,6.92052 3.4197,10.3795 1.25042,3.72261 2.40491,7.47589 3.51277,11.24303 1.15314,4.01563 2.18818,8.06379 3.20694,12.11518 1.03445,4.19659 1.97961,8.41402 2.899,12.63702 0.9436,4.32488 1.80482,8.66646 2.61981,13.01718 0.83759,4.54771 1.63278,9.10326 2.3857,13.66574 0.7722,4.63471 1.47868,9.28006 2.16927,13.92753 0.6471,4.76127 1.17739,9.53772 1.70784,14.31314 0.48239,4.85012 0.85825,9.71009 1.24968,14.56819 0.39191,4.86747 0.6273,9.74585 0.88742,14.62168 0.25946,4.86081 0.37173,9.72799 0.51139,14.59332 0.0749,4.78988 0.12005,9.58072 0.0938,14.37118 -0.0189,4.76743 -0.15071,9.5321 -0.30836,14.29654 -0.15318,4.83833 -0.43503,9.67116 -0.75357,14.501 -0.38365,5.19525 -0.88197,10.3814 -1.41685,15.56303 -0.547,5.70554 -1.34082,11.38117 -2.11922,17.0583 -0.89777,6.2719 -1.83488,12.53814 -2.77281,18.80416 -1.01475,6.86919 -2.03941,13.73698 -3.01036,20.61256 -1.04443,7.50896 -35.15447,58.79776 -36.07596,66.32282 -0.97357,8.31431 31.24468,-27.13611 30.37454,-18.81038 -0.95944,9.18965 -1.73855,18.39655 -2.47657,27.60619 -0.75507,9.47974 -1.42542,18.96595 -2.06346,28.4542 -0.68451,9.57263 -1.15009,19.15828 -1.57928,28.74509 -0.42537,9.60353 -0.79152,19.20949 -1.14138,28.81601 -0.28981,9.22125 -0.46856,18.44557 -0.65708,27.66932 -0.17352,8.41628 -0.33963,16.8327 -0.50391,25.24916 -0.14474,7.66769 -0.28156,15.33551 -0.41942,23.00331 -0.12255,6.82012 -0.24495,13.64023 -0.36737,20.46034 -0.10867,6.054 -0.21733,12.10802 -0.326,18.16202 -0.0965,5.37375 -0.19291,10.7475 -0.28937,16.12124 -0.0856,4.7699 -0.17123,9.5398 -0.25684,14.3098 -0.076,4.2339 -0.15199,8.4679 -0.22799,12.7018 -0.0675,3.7582 -0.13491,7.5164 -0.20238,11.2746 -0.0599,3.3359 -0.11975,6.6718 -0.17962,10.0077 -0.0532,2.9611 -0.1063,5.9221 -0.15945,8.8832 -0.0321,1.7868 -0.0641,3.5736 -0.0962,5.3604 0,0 -5.68002,-9.2471 -5.68002,-9.2471 l 0,0 c 0.0404,-1.7733 0.0808,-3.5466 0.12116,-5.3198 0.0669,-2.9387 0.13386,-5.8773 0.20079,-8.8159 0.0754,-3.3106 0.1508,-6.6213 0.22621,-9.9319 0.0849,-3.7297 0.1699,-7.4594 0.25484,-11.1891 0.0957,-4.2019 0.19141,-8.4038 0.2871,-12.6056 0.10782,-4.7338 0.21564,-9.4676 0.32345,-14.20138 0.12146,-5.33304 0.24293,-10.66607 0.36439,-15.99911 0.13684,-6.00813 22.24429,-149.80844 22.38113,-155.81658 0.15415,-6.76852 -21.66229,124.25512 -21.50818,117.48659 0.17333,-7.61446 12.10492,101.63718 12.27546,94.02258 0.18527,-8.3704 -11.3772,-133.60675 -11.16886,-141.97669 0.22878,-9.18224 0.44388,-18.36496 0.73312,-27.54555 0.36534,-9.59481 0.73275,-19.18966 1.16235,-28.78184 0.43188,-9.59789 0.86446,-19.19649 1.55786,-28.77995 0.64494,-9.48966 1.30869,-18.97811 2.05988,-28.46006 0.73947,-9.2528 1.48094,-18.50609 2.39194,-27.74395 0.83614,-8.37708 -0.82815,100.50251 0.11443,92.13671 0.88552,-7.57322 4.39174,-132.38881 5.40466,-139.94599 0.94135,-6.91264 1.97315,-13.81243 2.94376,-20.72098 0.92593,-6.30081 -19.94756,28 -19.05352,21.69461 0.75434,-5.71827 23.27551,-52.04348 23.80346,-57.78841 0.52383,-5.20792 -15.2781,21.46243 -14.913,16.24075 0.30779,-4.84574 -3.25705,-255.39573 -3.10978,-260.24934 0.16824,-4.75917 20.41174,204.29813 20.43254,199.53567 0.03,-4.78854 15.16616,-81.44659 15.10118,-86.23466 -0.12951,-4.86466 -15.43379,62.13764 -15.70138,57.2782 -0.25037,-4.87521 -0.48585,-9.75281 -0.88551,-14.61856 -0.3829,-4.86067 -0.76492,-9.72207 -1.25297,-14.57355 -0.53238,-4.78182 -1.06031,-9.56505 -1.71911,-14.33148 -0.69298,-4.65095 -1.40278,-9.29946 -2.17564,-13.93792 -0.76431,-4.56867 -1.54782,-9.13436 -2.39921,-13.68773 -0.82595,-4.36173 -1.7001,-8.71412 -2.64152,-13.05252 -0.92064,-4.23416 -1.87425,-8.46146 -2.91761,-12.6673 -1.02227,-4.06461 -2.05909,-8.12655 -3.22931,-12.15163 -1.11586,-3.78184 11.86897,92.10185 10.60785,88.36557 -1.15617,-3.47707 -16.44539,-106.61054 -17.60146,-110.08761 -1.10808,-3.186 -0.46936,-43.54206 -1.6319,-46.70828 -1.08812,-2.92342 -4.00769,31.35512 -5.12833,28.44391 -1.00534,-2.72393 -2.04471,-5.4352 -3.02365,-8.16883 -0.82892,-2.42183 -1.6674,-4.84077 -2.45614,-7.27601 -0.66719,-2.06401 -1.29715,-4.14204 -1.82015,-6.24774 -0.37274,-1.64454 -0.68064,-3.30246 -0.81733,-4.98571 -0.12856,-1.31906 -0.24261,-2.63808 -0.22457,-3.96515 0,0 50.21214,65.42161 50.21214,65.42161 z"
       sodipodi:nodetypes="cccccccccccsccccsscccccccccsccccccssssssssscccssssssssscsccccccccccccccccccccscccccccscccc"
       transform="matrix(0.00492727,0.99998609,-0.93431199,0.00527362,969.7628,-344.81913)" />
  </g>
  <g
     inkscape:label="Layer 1"
     inkscape:groupmode="layer"
     id="layer1"
     style="display:inline">
    <rect
       style="fill:#23c8e9;fill-opacity:1;fill-rule:nonzero;stroke:none"
       id="rect2816"
       width="631"
       height="41"
       x="74"
       y="142.36218" />
    <flowRoot
       xml:space="preserve"
       id="flowRoot5303"
       style="font-size:40px;font-style:normal;font-weight:normal;fill:#000000;fill-opacity:1;stroke:none;font-family:Bitstream Vera Sans"><flowRegion
         id="flowRegion5305"><rect
           id="rect5307"
           width="363"
           height="43"
           x="115"
           y="92.362183" /></flowRegion><flowPara
         id="flowPara5309">sfdsf</flowPara></flowRoot>    <flowRoot
       xml:space="preserve"
       id="flowRoot5325"
       style="font-size:40px;font-style:normal;font-weight:normal;fill:#000000;fill-opacity:1;stroke:none;font-family:Bitstream Vera Sans"><flowRegion
         id="flowRegion5327"><rect
           id="rect5329"
           width="628"
           height="42"
           x="70"
           y="215.36218" /></flowRegion><flowPara
         id="flowPara5331" /></flowRoot>    <rect
       style="fill:#23c8e9;fill-opacity:1;fill-rule:nonzero;stroke:#000000;stroke-opacity:1"
       id="rect2816-2"
       width="629.89789"
       height="90.265579"
       x="72.051048"
       y="-289.51825"
       transform="scale(1,-1)" />
    <g
       inkscape:groupmode="layer"
       id="layer3"
       inkscape:label="Layer#1"
       style="display:inline">
      <rect
         y="318.86218"
         x="-72.5"
         height="47"
         width="631"
         id="rect3602-4"
         style="fill:#d45500;fill-opacity:1;fill-rule:nonzero;stroke:url(#linearGradient3798);stroke-width:3;stroke-miterlimit:4;stroke-opacity:1;stroke-dasharray:none;display:inline;filter:url(#filter3604-8)"
         transform="matrix(0.99825341,0,0,-1.9205442,144.42442,900.3839)" />
    </g>
    <rect
       style="fill:#000000;fill-opacity:1;fill-rule:nonzero;stroke:#000000;stroke-width:7.08661413;stroke-miterlimit:4;stroke-opacity:1;stroke-dasharray:none"
       id="rect5321"
       width="632"
       height="13"
       x="73"
       y="178.36218" />
    <rect
       style="fill:#00a4d4;fill-opacity:1;fill-rule:nonzero;stroke:#ffffff;stroke-width:0.2815834;stroke-linejoin:bevel;stroke-opacity:1;display:inline;filter:url(#filter3858)"
       id="rect2816-7"
       width="202.71841"
       height="19.718416"
       x="49.640808"
       y="13.002975"
       transform="matrix(2.5606856,0,0,2.3615626,-3.95646,56.84574)" />
    <rect
       y="105.33621"
       x="44.207092"
       height="69"
       width="738"
       id="rect3062"
       style="fill:#e6e6e6;fill-opacity:1;fill-rule:nonzero;stroke:none;display:inline" />
    <rect
       style="fill:#f2f2f2;fill-opacity:1;fill-rule:nonzero;stroke:none;display:inline"
       id="rect2840"
       width="746"
       height="28"
       x="36.207092"
       y="126.33621" />
    <rect
       style="opacity:0.89300411;fill:#ffffff;fill-opacity:1;fill-rule:nonzero;stroke:none;display:inline"
       id="rect2922-9"
       width="744"
       height="86"
       x="38.207092"
       y="44.336212" />
  </g>
  <g
     inkscape:groupmode="layer"
     id="layer12"
     inkscape:label="thrilldesigns"
     style="display:inline">
    <flowRoot
       xml:space="preserve"
       id="flowRoot5311"
       style="font-size:40px;font-style:normal;font-weight:normal;fill:#000000;fill-opacity:1;stroke:none;display:inline;font-family:Bitstream Vera Sans"
       transform="translate(-17,123)"><flowRegion
         id="flowRegion5313"><rect
           id="rect5315"
           width="430"
           height="102"
           x="100"
           y="10.362183" /></flowRegion><flowPara
         id="flowPara5317"
         style="font-style:normal;font-variant:normal;font-weight:normal;font-stretch:normal;font-family:World of Water;-inkscape-font-specification:World of Water">thrill<flowSpan
   style="font-style:normal;font-variant:normal;font-weight:bold;font-stretch:normal;font-family:Skia;-inkscape-font-specification:Skia Bold"
   id="flowSpan5340">DESIGNS</flowSpan>.COM</flowPara></flowRoot>  </g>
  <g
     inkscape:groupmode="layer"
     id="layer4"
     inkscape:label="Lights/Shades"
     style="display:none">
    <rect
       style="fill:#ffffff;fill-opacity:1;fill-rule:nonzero;stroke:none"
       id="rect3751"
       width="75"
       height="317"
       x="2"
       y="1.3621826" />
    <rect
       style="fill:#ffffff;fill-opacity:1;fill-rule:nonzero;stroke:none"
       id="rect3751-7"
       width="75"
       height="317"
       x="665.5"
       y="0.86218262" />
  </g>
  <g
     inkscape:groupmode="layer"
     id="layer5"
     inkscape:label="Layer#3"
     style="display:inline">
    <rect
       style="fill:#ffffff;fill-opacity:1;fill-rule:nonzero;stroke:none"
       id="rect2861"
       width="678"
       height="73"
       x="46"
       y="223.36218" />
    <rect
       style="fill:#000000;fill-opacity:1;fill-rule:nonzero;stroke:#000000;stroke-width:1.4356966;stroke-miterlimit:4;stroke-opacity:1;stroke-dasharray:none;display:inline"
       id="rect5323"
       width="641.65088"
       height="0.65091765"
       x="66.174538"
       y="221.53668" />
  </g>
</svg>
