<?xml version="1.0" encoding="UTF-8" standalone="no"?>
<!-- Created with Inkscape (http://www.inkscape.org/) -->

<svg
   xmlns:dc="http://purl.org/dc/elements/1.1/"
   xmlns:cc="http://creativecommons.org/ns#"
   xmlns:rdf="http://www.w3.org/1999/02/22-rdf-syntax-ns#"
   xmlns:svg="http://www.w3.org/2000/svg"
   xmlns="http://www.w3.org/2000/svg"
   xmlns:xlink="http://www.w3.org/1999/xlink"
   xmlns:sodipodi="http://sodipodi.sourceforge.net/DTD/sodipodi-0.dtd"
   xmlns:inkscape="http://www.inkscape.org/namespaces/inkscape"
   width="744.09448819"
   height="1052.3622047"
   id="svg2"
   version="1.1"
   inkscape:version="0.47pre4 r22446"
   sodipodi:docname="2009Aug15GradientBoxReturn04a.svg"
   inkscape:output_extension="org.inkscape.output.svg.inkscape">
  <defs
     id="defs4">
    <linearGradient
       id="linearGradient5279">
      <stop
         style="stop-color:#000027;stop-opacity:0.27642277;"
         offset="0"
         id="stop5281" />
      <stop
         style="stop-color:#000000;stop-opacity:0;"
         offset="1"
         id="stop5283" />
    </linearGradient>
    <linearGradient
       id="linearGradient3790">
      <stop
         style="stop-color:#ff0037;stop-opacity:1;"
         offset="0"
         id="stop3792" />
      <stop
         style="stop-color:#000000;stop-opacity:0;"
         offset="1"
         id="stop3794" />
    </linearGradient>
    <inkscape:perspective
       sodipodi:type="inkscape:persp3d"
       inkscape:vp_x="0 : 526.18109 : 1"
       inkscape:vp_y="0 : 1000 : 0"
       inkscape:vp_z="744.09448 : 526.18109 : 1"
       inkscape:persp3d-origin="372.04724 : 350.78739 : 1"
       id="perspective10" />
    <filter
       inkscape:collect="always"
       id="filter3604"
       x="-0.023490764"
       width="1.0469815"
       y="-0.315376"
       height="1.630752">
      <feGaussianBlur
         inkscape:collect="always"
         stdDeviation="6.1761134"
         id="feGaussianBlur3606" />
    </filter>
    <linearGradient
       inkscape:collect="always"
       xlink:href="#linearGradient5279"
       id="linearGradient5285"
       x1="58.677327"
       y1="135.86218"
       x2="720.32267"
       y2="135.86218"
       gradientUnits="userSpaceOnUse" />
    <linearGradient
       inkscape:collect="always"
       xlink:href="#linearGradient5279"
       id="linearGradient5289"
       gradientUnits="userSpaceOnUse"
       x1="58.677327"
       y1="135.86218"
       x2="720.32267"
       y2="135.86218" />
    <linearGradient
       inkscape:collect="always"
       xlink:href="#linearGradient5279"
       id="linearGradient5319"
       gradientUnits="userSpaceOnUse"
       x1="58.677326"
       y1="135.86218"
       x2="720.32269"
       y2="135.86218" />
    <inkscape:perspective
       id="perspective2878"
       inkscape:persp3d-origin="0.5 : 0.33333333 : 1"
       inkscape:vp_z="1 : 0.5 : 1"
       inkscape:vp_y="0 : 1000 : 0"
       inkscape:vp_x="0 : 0.5 : 1"
       sodipodi:type="inkscape:persp3d" />
    <linearGradient
       gradientTransform="translate(-146.5,206.5)"
       inkscape:collect="always"
       xlink:href="#linearGradient3790-7"
       id="linearGradient3798"
       x1="57.677326"
       y1="135.86218"
       x2="721.32269"
       y2="135.86218"
       gradientUnits="userSpaceOnUse" />
    <linearGradient
       id="linearGradient3790-7">
      <stop
         style="stop-color:#ff0037;stop-opacity:1;"
         offset="0"
         id="stop3792-9" />
      <stop
         style="stop-color:#000000;stop-opacity:0;"
         offset="1"
         id="stop3794-3" />
    </linearGradient>
    <filter
       color-interpolation-filters="sRGB"
       inkscape:collect="always"
       id="filter3604-8"
       x="-0.023490764"
       width="1.0469815"
       y="-0.31537601"
       height="1.630752">
      <feGaussianBlur
         inkscape:collect="always"
         stdDeviation="6.1761134"
         id="feGaussianBlur3606-0" />
    </filter>
    <inkscape:perspective
       id="perspective5222"
       inkscape:persp3d-origin="0.5 : 0.33333333 : 1"
       inkscape:vp_z="1 : 0.5 : 1"
       inkscape:vp_y="0 : 1000 : 0"
       inkscape:vp_x="0 : 0.5 : 1"
       sodipodi:type="inkscape:persp3d" />
    <inkscape:perspective
       id="perspective3969"
       inkscape:persp3d-origin="0.5 : 0.33333333 : 1"
       inkscape:vp_z="1 : 0.5 : 1"
       inkscape:vp_y="0 : 1000 : 0"
       inkscape:vp_x="0 : 0.5 : 1"
       sodipodi:type="inkscape:persp3d" />
    <filter
       color-interpolation-filters="sRGB"
       inkscape:collect="always"
       id="filter3858"
       x="-0.11727906"
       width="1.2345581"
       y="-1.2057066"
       height="3.4114132">
      <feGaussianBlur
         inkscape:collect="always"
         stdDeviation="9.9060937"
         id="feGaussianBlur3860" />
    </filter>
    <filter
       id="filter5198"
       inkscape:menu-tooltip="Slightly cracked enameled texture"
       inkscape:menu="Materials"
       inkscape:label="Enamel jewelry"
       color-interpolation-filters="sRGB">
      <feGaussianBlur
         id="feGaussianBlur5200"
         stdDeviation="3"
         result="result10" />
      <feBlend
         id="feBlend5202"
         in2="SourceGraphic"
         result="result5"
         mode="multiply"
         in="result10" />
      <feComposite
         id="feComposite5204"
         in2="SourceGraphic"
         in="result5"
         result="fbSourceGraphic"
         operator="over" />
      <feGaussianBlur
         id="feGaussianBlur5206"
         result="result9"
         stdDeviation="5" />
      <feSpecularLighting
         id="feSpecularLighting5208"
         in="result9"
         result="result1"
         lighting-color="rgb(255,255,255)"
         surfaceScale="1"
         specularConstant="2.2"
         specularExponent="45">
        <fePointLight
           id="fePointLight5210"
           x="-5000"
           y="-10000"
           z="20000" />
      </feSpecularLighting>
      <feComposite
         id="feComposite5212"
         in2="fbSourceGraphic"
         in="result1"
         result="result2"
         operator="in" />
      <feComposite
         id="feComposite5214"
         in2="fbSourceGraphic"
         in="result2"
         result="result4"
         operator="arithmetic"
         k2="2"
         k3="0.8" />
      <feBlend
         id="feBlend5216"
         in2="result4"
         in="result4"
         mode="multiply"
         result="fbSourceGraphic" />
      <feColorMatrix
         result="fbSourceGraphicAlpha"
         in="fbSourceGraphic"
         values="0 0 0 -1 0 0 0 0 -1 0 0 0 0 -1 0 0 0 0 1 0"
         id="feColorMatrix5218" />
      <feGaussianBlur
         id="feGaussianBlur5220"
         result="result0"
         in="fbSourceGraphic"
         stdDeviation="2" />
      <feTurbulence
         id="feTurbulence5222"
         baseFrequency="0.052"
         seed="488"
         numOctaves="8"
         result="result1"
         type="fractalNoise" />
      <feDisplacementMap
         id="feDisplacementMap5224"
         in2="result1"
         result="result5"
         xChannelSelector="R"
         scale="0" />
      <feComposite
         id="feComposite5226"
         in2="result5"
         result="result2"
         operator="in"
         in="result0" />
      <feSpecularLighting
         id="feSpecularLighting5228"
         surfaceScale="3"
         result="result4"
         specularConstant="3.94"
         specularExponent="40"
         lighting-color="rgb(226,252,180)"
         in="result2">
        <feDistantLight
           id="feDistantLight5230"
           elevation="80"
           azimuth="265" />
      </feSpecularLighting>
      <feComposite
         id="feComposite5232"
         in2="result2"
         k1="5"
         k3="0.5"
         in="result4"
         operator="arithmetic"
         result="result91" />
      <feBlend
         id="feBlend5234"
         in2="result91"
         result="fbSourceGraphic"
         mode="darken" />
      <feGaussianBlur
         id="feGaussianBlur5236"
         stdDeviation="5"
         in="fbSourceGraphic"
         result="result0" />
      <feSpecularLighting
         id="feSpecularLighting5238"
         in="result0"
         result="result1"
         lighting-color="rgb(250,224,108)"
         surfaceScale="4"
         specularConstant="1"
         specularExponent="20">
        <feDistantLight
           id="feDistantLight5240"
           azimuth="225"
           elevation="50" />
      </feSpecularLighting>
      <feComposite
         id="feComposite5242"
         in2="fbSourceGraphic"
         in="result1"
         result="result2"
         operator="in" />
      <feComposite
         id="feComposite5244"
         in2="result2"
         in="fbSourceGraphic"
         result="result4"
         operator="arithmetic"
         k2="0.5"
         k3="2" />
      <feBlend
         id="feBlend5246"
         in2="result4"
         mode="multiply" />
    </filter>
    <inkscape:perspective
       id="perspective5434"
       inkscape:persp3d-origin="0.5 : 0.33333333 : 1"
       inkscape:vp_z="1 : 0.5 : 1"
       inkscape:vp_y="0 : 1000 : 0"
       inkscape:vp_x="0 : 0.5 : 1"
       sodipodi:type="inkscape:persp3d" />
    <filter
       id="filter5871"
       inkscape:label="Alpha repaint"
       inkscape:menu="Transparency utilities"
       inkscape:menu-tooltip="Repaint anything monochrome"
       height="1.5"
       width="1.5"
       y="-0.25"
       x="-0.25"
       color-interpolation-filters="sRGB">
      <feBlend
         id="feBlend5873"
         in2="result91"
         result="result1"
         mode="screen" />
      <feGaussianBlur
         id="feGaussianBlur5875"
         stdDeviation="2"
         result="result6" />
      <feComposite
         id="feComposite5877"
         in2="result1"
         operator="xor"
         in="result6"
         result="result7" />
      <feComposite
         id="feComposite5879"
         in2="result7"
         result="result4"
         in="result7"
         operator="xor" />
      <feGaussianBlur
         id="feGaussianBlur5881"
         result="result3"
         stdDeviation="3"
         in="result4" />
      <feSpecularLighting
         id="feSpecularLighting5883"
         result="result5"
         specularExponent="55"
         specularConstant="1.5"
         surfaceScale="6"
         in="result3">
        <fePointLight
           id="fePointLight5885"
           z="20000"
           y="-8000"
           x="-5000" />
      </feSpecularLighting>
      <feComposite
         id="feComposite5887"
         in2="SourceGraphic"
         in="result3"
         k3="1"
         k2="1.5"
         operator="arithmetic"
         result="result92" />
      <feComposite
         id="feComposite5889"
         in2="result92"
         in="result5"
         operator="atop"
         result="result93" />
      <feBlend
         id="feBlend5891"
         in2="result93"
         mode="multiply"
         result="fbSourceGraphic" />
      <feColorMatrix
         result="fbSourceGraphicAlpha"
         in="fbSourceGraphic"
         values="0 0 0 -1 0 0 0 0 -1 0 0 0 0 -1 0 0 0 0 1 0"
         id="feColorMatrix5907" />
      <feFlood
         id="feFlood5909"
         flood-color="rgb(255,0,105)"
         result="result1"
         in="fbSourceGraphic" />
      <feComposite
         id="feComposite5911"
         in2="fbSourceGraphic"
         operator="in"
         result="result2" />
    </filter>
    <filter
       inkscape:collect="always"
       id="filter5923">
      <feGaussianBlur
         inkscape:collect="always"
         stdDeviation="2.2971007"
         id="feGaussianBlur5925" />
    </filter>
    <font
       horiz-adv-x="1024"
       id="font5927"
       inkscape:label="font 1">
      <font-face
         units-per-em="1024"
         id="font-face5929"
         font-family="SVGFont 1" />
      <missing-glyph
         d="M0,0h1000v1024h-1000z"
         id="missing-glyph5931" />
    </font>
  </defs>
  <sodipodi:namedview
     id="base"
     pagecolor="#ffffff"
     bordercolor="#666666"
     borderopacity="1.0"
     inkscape:pageopacity="0.0"
     inkscape:pageshadow="2"
     inkscape:zoom="1"
     inkscape:cx="380.2167"
     inkscape:cy="694.42225"
     inkscape:document-units="px"
     inkscape:current-layer="layer1"
     showgrid="false"
     inkscape:window-width="1775"
     inkscape:window-height="1158"
     inkscape:window-x="0"
     inkscape:window-y="0"
     inkscape:window-maximized="0" />
  <metadata
     id="metadata7">
    <rdf:RDF>
      <cc:Work
         rdf:about="">
        <dc:format>image/svg+xml</dc:format>
        <dc:type
           rdf:resource="http://purl.org/dc/dcmitype/StillImage" />
        <dc:title></dc:title>
      </cc:Work>
    </rdf:RDF>
  </metadata>
  <g
     inkscape:groupmode="layer"
     id="layer2"
     inkscape:label="Layer"
     style="display:inline">
    <rect
       y="112.36218"
       x="74"
       height="47"
       width="631"
       id="rect3602"
       style="fill:#23c8e9;fill-opacity:1;fill-rule:nonzero;stroke:url(#linearGradient5319);stroke-width:7.08661413;stroke-miterlimit:4;stroke-opacity:1;stroke-dasharray:none;filter:url(#filter3604)"
       transform="matrix(0.99461575,0,0,0.43170648,-3.9028519,96.209593)" />
    <flowRoot
       xml:space="preserve"
       id="flowRoot5291"
       style="font-size:40px;font-style:normal;font-weight:normal;fill:#000000;fill-opacity:1;stroke:none;font-family:Bitstream Vera Sans"><flowRegion
         id="flowRegion5293"><rect
           id="rect5295"
           width="279"
           height="41"
           x="95"
           y="98.362183" /></flowRegion><flowPara
         id="flowPara5297">servicese</flowPara></flowRoot>  </g>
  <g
     inkscape:groupmode="layer"
     id="layer11"
     inkscape:label="spark"
     style="display:inline">
    <path
       inkscape:export-xdpi="90"
       inkscape:export-ydpi="90"
       style="fill:#666666;fill-opacity:1;fill-rule:nonzero;stroke:none;display:inline;filter:url(#filter5198)"
       id="path2816"
       d="m 568.14326,357.47509 c 0.0214,1.32487 -44.29122,-53.31081 -44.17373,-51.99148 0.12699,1.65069 0.41063,3.28114 0.76274,4.89683 0.50272,2.08456 1.12155,4.13999 1.77884,6.18047 0.76921,2.40604 1.58994,4.79543 2.40172,7.18743 0.97018,2.71833 1.99581,5.41627 2.99589,8.12363 1.10937,2.89576 2.17852,5.80653 3.25408,8.71492 1.15092,3.14986 2.35171,6.2803 3.44556,9.45081 1.14388,3.45853 2.27709,6.92052 3.4197,10.3795 1.25042,3.72261 2.40491,7.47589 3.51277,11.24303 1.15314,4.01563 2.18818,8.06379 3.20694,12.11518 1.03445,4.19659 1.97961,8.41402 2.899,12.63702 0.9436,4.32488 1.80482,8.66646 2.61981,13.01718 0.83759,4.54771 1.63278,9.10326 2.3857,13.66574 0.7722,4.63471 1.47868,9.28006 2.16927,13.92753 0.6471,4.76127 1.17739,9.53772 1.70784,14.31314 0.48239,4.85012 0.85825,9.71009 1.24968,14.56819 0.39191,4.86747 0.6273,9.74585 0.88742,14.62168 0.25946,4.86081 0.37173,9.72799 0.51139,14.59332 0.0749,4.78988 0.12005,9.58072 0.0938,14.37118 -0.0189,4.76743 -0.15071,9.5321 -0.30836,14.29654 -0.15318,4.83833 -0.43503,9.67116 -0.75357,14.501 -0.38365,5.19525 -0.88197,10.3814 -1.41685,15.56303 -0.547,5.70554 -1.34082,11.38117 -2.11922,17.0583 -0.89777,6.2719 -1.83488,12.53814 -2.77281,18.80416 -1.01475,6.86919 -2.03941,13.73698 -3.01036,20.61256 -1.04443,7.50896 -35.15447,58.79776 -36.07596,66.32282 -0.97357,8.31431 31.24468,-27.13611 30.37454,-18.81038 -0.95944,9.18965 -1.73855,18.39655 -2.47657,27.60619 -0.75507,9.47974 -1.42542,18.96595 -2.06346,28.4542 -0.68451,9.57263 -1.15009,19.15828 -1.57928,28.74509 -0.42537,9.60353 -0.79152,19.20949 -1.14138,28.81601 -0.28981,9.22125 -0.46856,18.44557 -0.65708,27.66932 -0.17352,8.41628 -0.33963,16.8327 -0.50391,25.24916 -0.14474,7.66769 -0.28156,15.33551 -0.41942,23.00331 -0.12255,6.82012 -0.24495,13.64023 -0.36737,20.46034 -0.10867,6.054 -0.21733,12.10802 -0.326,18.16202 -0.0965,5.37375 -0.19291,10.7475 -0.28937,16.12124 -0.0856,4.7699 -0.17123,9.5398 -0.25684,14.3098 -0.076,4.2339 -0.15199,8.4679 -0.22799,12.7018 -0.0675,3.7582 -0.13491,7.5164 -0.20238,11.2746 -0.0599,3.3359 -0.11975,6.6718 -0.17962,10.0077 -0.0532,2.9611 -0.1063,5.9221 -0.15945,8.8832 -0.0321,1.7868 -0.0641,3.5736 -0.0962,5.3604 0,0 -5.68002,-9.2471 -5.68002,-9.2471 l 0,0 c 0.0404,-1.7733 0.0808,-3.5466 0.12116,-5.3198 0.0669,-2.9387 0.13386,-5.8773 0.20079,-8.8159 0.0754,-3.3106 0.1508,-6.6213 0.22621,-9.9319 0.0849,-3.7297 0.1699,-7.4594 0.25484,-11.1891 0.0957,-4.2019 0.19141,-8.4038 0.2871,-12.6056 0.10782,-4.7338 0.21564,-9.4676 0.32345,-14.20138 0.12146,-5.33304 0.24293,-10.66607 0.36439,-15.99911 0.13684,-6.00813 22.24429,-149.80844 22.38113,-155.81658 0.15415,-6.76852 -21.66229,124.25512 -21.50818,117.48659 0.17333,-7.61446 12.10492,101.63718 12.27546,94.02258 0.18527,-8.3704 -11.3772,-133.60675 -11.16886,-141.97669 0.22878,-9.18224 0.44388,-18.36496 0.73312,-27.54555 0.36534,-9.59481 0.73275,-19.18966 1.16235,-28.78184 0.43188,-9.59789 0.86446,-19.19649 1.55786,-28.77995 0.64494,-9.48966 1.30869,-18.97811 2.05988,-28.46006 0.73947,-9.2528 1.48094,-18.50609 2.39194,-27.74395 0.83614,-8.37708 -0.82815,100.50251 0.11443,92.13671 0.88552,-7.57322 4.39174,-132.38881 5.40466,-139.94599 0.94135,-6.91264 1.97315,-13.81243 2.94376,-20.72098 0.92593,-6.30081 -19.94756,28 -19.05352,21.69461 0.75434,-5.71827 23.27551,-52.04348 23.80346,-57.78841 0.52383,-5.20792 -15.2781,21.46243 -14.913,16.24075 0.30779,-4.84574 -3.25705,-255.39573 -3.10978,-260.24934 0.16824,-4.75917 20.41174,204.29813 20.43254,199.53567 0.03,-4.78854 15.16616,-81.44659 15.10118,-86.23466 -0.12951,-4.86466 -15.43379,62.13764 -15.70138,57.2782 -0.25037,-4.87521 -0.48585,-9.75281 -0.88551,-14.61856 -0.3829,-4.86067 -0.76492,-9.72207 -1.25297,-14.57355 -0.53238,-4.78182 -1.06031,-9.56505 -1.71911,-14.33148 -0.69298,-4.65095 -1.40278,-9.29946 -2.17564,-13.93792 -0.76431,-4.56867 -1.54782,-9.13436 -2.39921,-13.68773 -0.82595,-4.36173 -1.7001,-8.71412 -2.64152,-13.05252 -0.92064,-4.23416 -1.87425,-8.46146 -2.91761,-12.6673 -1.02227,-4.06461 -2.05909,-8.12655 -3.22931,-12.15163 -1.11586,-3.78184 11.86897,92.10185 10.60785,88.36557 -1.15617,-3.47707 -16.44539,-106.61054 -17.60146,-110.08761 -1.10808,-3.186 -0.46936,-43.54206 -1.6319,-46.70828 -1.08812,-2.92342 -4.00769,31.35512 -5.12833,28.44391 -1.00534,-2.72393 -2.04471,-5.4352 -3.02365,-8.16883 -0.82892,-2.42183 -1.6674,-4.84077 -2.45614,-7.27601 -0.66719,-2.06401 -1.29715,-4.14204 -1.82015,-6.24774 -0.37274,-1.64454 -0.68064,-3.30246 -0.81733,-4.98571 -0.12856,-1.31906 -0.24261,-2.63808 -0.22457,-3.96515 0,0 50.21214,65.42161 50.21214,65.42161 z"
       sodipodi:nodetypes="cccccccccccsccccsscccccccccsccccccssssssssscccssssssssscsccccccccccccccccccccscccccccscccc"
       transform="matrix(0.00492727,0.99998609,-0.93431199,0.00527362,969.7628,-344.81913)" />
  </g>
  <g
     inkscape:label="Layer 1"
     inkscape:groupmode="layer"
     id="layer1"
     style="display:inline">
    <rect
       style="fill:#23c8e9;fill-opacity:1;fill-rule:nonzero;stroke:none"
       id="rect2816"
       width="631"
       height="41"
       x="74"
       y="142.36218" />
    <flowRoot
       xml:space="preserve"
       id="flowRoot5303"
       style="font-size:40px;font-style:normal;font-weight:normal;fill:#000000;fill-opacity:1;stroke:none;font-family:Bitstream Vera Sans"><flowRegion
         id="flowRegion5305"><rect
           id="rect5307"
           width="363"
           height="43"
           x="115"
           y="92.362183" /></flowRegion><flowPara
         id="flowPara5309">sfdsf</flowPara></flowRoot>    <flowRoot
       xml:space="preserve"
       id="flowRoot5325"
       style="font-size:40px;font-style:normal;font-weight:normal;fill:#000000;fill-opacity:1;stroke:none;font-family:Bitstream Vera Sans"><flowRegion
         id="flowRegion5327"><rect
           id="rect5329"
           width="628"
           height="42"
           x="70"
           y="215.36218" /></flowRegion><flowPara
         id="flowPara5331" /></flowRoot>    <rect
       style="fill:#23c8e9;fill-opacity:1;fill-rule:nonzero;stroke:#000000;stroke-opacity:1"
       id="rect2816-2"
       width="629.89789"
       height="90.265579"
       x="72.051048"
       y="-289.51825"
       transform="scale(1,-1)" />
    <rect
       style="fill:#000000;fill-opacity:1;fill-rule:nonzero;stroke:#000000;stroke-width:7.08661413;stroke-miterlimit:4;stroke-opacity:1;stroke-dasharray:none"
       id="rect5321"
       width="632"
       height="13"
       x="73"
       y="178.36218" />
    <g
       inkscape:groupmode="layer"
       id="layer3"
       inkscape:label="Layer#1"
       style="display:inline">
      <rect
         y="318.86218"
         x="-72.5"
         height="47"
         width="631"
         id="rect3602-4"
         style="fill:#d45500;fill-opacity:1;fill-rule:nonzero;stroke:url(#linearGradient3798);stroke-width:3;stroke-miterlimit:4;stroke-opacity:1;stroke-dasharray:none;display:inline;filter:url(#filter3604-8)"
         transform="matrix(0.99825341,0,0,-1.9205442,144.42442,900.3839)" />
    </g>
    <rect
       style="fill:#00a4d4;fill-opacity:1;fill-rule:nonzero;stroke:#ffffff;stroke-width:0.28158339999999998;stroke-linejoin:bevel;stroke-opacity:1;display:inline;filter:url(#filter3858);opacity:0.063"
       id="rect2816-7"
       width="202.71841"
       height="19.718416"
       x="49.640808"
       y="13.002975"
       transform="matrix(2.5603966,0,0,2.8807973,-3.9128367,126.4749)" />
    <rect
       y="121.33621"
       x="44.207092"
       height="53"
       width="738"
       id="rect3062"
       style="fill:#e6e6e6;fill-opacity:1;fill-rule:nonzero;stroke:none;display:inline" />
    <rect
       style="fill:#f2f2f2;fill-opacity:1;fill-rule:nonzero;stroke:none;display:inline"
       id="rect2840"
       width="746"
       height="28"
       x="36.207092"
       y="126.33621" />
    <rect
       style="opacity:0.89300411;fill:#ffffff;fill-opacity:1;fill-rule:nonzero;stroke:none;display:inline"
       id="rect2922-9"
       width="744"
       height="3"
       x="38.207092"
       y="127.33621" />
  </g>
  <g
     inkscape:groupmode="layer"
     id="layer13"
     inkscape:label="underglow none made yet"
     style="display:inline">
    <path
       inkscape:export-xdpi="90"
       inkscape:export-ydpi="90"
       style="fill:#808080;fill-opacity:1;fill-rule:nonzero;stroke:none;display:inline;filter:url(#filter5923)"
       id="path2816-7"
       d="m 665.26874,317.59655 c -1.32424,0.046 52.47855,-45.27424 51.16163,-45.13225 -1.64804,0.15764 -3.27294,0.47153 -4.88181,0.8536 -2.07486,0.54137 -4.11843,1.19829 -6.14635,1.89339 -2.39133,0.81378 -4.76505,1.67877 -7.14155,2.53486 -2.69984,1.02053 -5.37825,2.09612 -8.06656,3.14634 -2.87464,1.16299 -5.76504,2.28604 -8.65294,3.41546 -3.12793,1.20926 -6.23552,2.46801 -9.38515,3.62059 -3.43668,1.20795 -6.87701,2.4053 -10.31416,3.61199 -3.69874,1.31938 -7.42991,2.54341 -11.17582,3.72109 -3.9935,1.22756 -8.02173,2.33765 -12.05349,3.43152 -4.17664,1.11225 -8.37578,2.13562 -12.58097,3.13333 -4.3066,1.0238 -8.63142,1.96555 -12.96625,2.86125 -4.53136,0.92195 -9.07134,1.80166 -13.61904,2.63923 -4.61956,0.8582 -9.25098,1.65088 -13.88482,2.42771 -4.74842,0.73547 -9.51419,1.35443 -14.27893,1.97352 -4.84032,0.57244 -9.69246,1.03855 -14.54245,1.52019 -4.85935,0.48229 -9.73251,0.80829 -14.60267,1.15897 -4.85515,0.34975 -9.7194,0.55244 -14.58129,0.78249 -4.78766,0.1639 -9.57684,0.29806 -14.36696,0.36084 -4.76696,0.0697 -9.53325,0.0264 -14.2998,-0.0426 -4.84034,-0.0632 -9.67757,-0.25524 -14.5125,-0.48397 -5.20148,-0.28704 -10.396,-0.6889 -15.58667,-1.1274 -5.71472,-0.44088 -11.40412,-1.1291 -17.09474,-1.80187 -6.2875,-0.78106 -12.57007,-1.60157 -18.85244,-2.42289 -6.88686,-0.88693 -13.7725,-1.78379 -20.66494,-2.62681 -7.52707,-0.90471 -59.44087,-34.05577 -66.98176,-34.83727 -8.33096,-0.81889 27.71204,30.73503 19.37158,30.01975 -9.20589,-0.7885 -18.42568,-1.39639 -27.64745,-1.96314 -9.49213,-0.57878 -18.98916,-1.07274 -28.48763,-1.53435 -9.58369,-0.50651 -19.17634,-0.79388 -28.76947,-1.04484 -9.60978,-0.24684 -19.22088,-0.43442 -28.83225,-0.60571 -9.22504,-0.1184 -18.45109,-0.12571 -27.67675,-0.14279 -8.41805,-0.0171 -16.8361,-0.0268 -25.25416,-0.0346 -7.66906,-0.002 -15.3381,0.003 -23.00713,0.008 -6.82122,0.004 -13.64243,0.009 -20.46364,0.0129 -6.05497,0.004 -12.10997,0.008 -18.16494,0.0115 -5.37461,0.003 -10.74923,0.007 -16.12383,0.0103 -4.77067,0.003 -9.54134,0.006 -14.3121,0.009 -4.23459,0.003 -8.469268,0.005 -12.703849,0.008 -3.758805,0.002 -7.517609,0.005 -11.276414,0.007 -3.336437,0.002 -6.672873,0.004 -10.009309,0.006 -2.961578,0.002 -5.923053,0.004 -8.88463,0.006 -1.787088,10e-4 -3.574174,0.002 -5.361262,0.003 0,0 9.139953,-5.85087 9.139953,-5.85087 l 0,0 c 1.773745,0.007 3.547489,0.0149 5.321133,0.0223 2.939436,0.0123 5.878773,0.0246 8.818109,0.0369 3.31143,0.0139 6.622959,0.0277 9.934389,0.0416 3.730633,0.0156 7.461269,0.0312 11.1919,0.0469 4.20296,0.0176 8.40591,0.0352 12.60876,0.0528 4.73499,0.0198 9.46997,0.0397 14.20494,0.0595 5.33438,0.0223 10.66874,0.0447 16.00312,0.067 6.00963,0.0252 150.19593,19.45659 156.20558,19.48176 6.77021,0.0283 -124.63621,-19.34955 -117.86599,-19.32124 7.61637,0.0318 -101.394685,13.99153 -93.778231,14.02054 8.372398,0.0297 133.372261,-13.85802 141.744631,-13.80525 9.1849,0.0581 18.37003,0.10253 27.55441,0.22112 9.59994,0.18698 19.19997,0.37603 28.79847,0.6273 9.60426,0.25346 19.20924,0.50759 28.80393,1.02279 9.50001,0.46848 18.99915,0.95579 28.49343,1.53065 9.26494,0.5674 18.53041,1.13679 27.7836,1.87597 8.39118,0.68033 -100.50054,1.03961 -92.11867,1.82657 7.58837,0.74463 132.44756,1.93083 140.02226,2.80314 6.92894,0.81273 13.84671,1.71614 20.7721,2.5582 6.31693,0.80868 -28.36584,-19.4238 -22.04493,-18.64709 5.7313,0.64795 52.46702,22.30438 58.22077,22.72549 5.21675,0.42696 -21.74264,-14.87663 -16.51507,-14.60863 4.85062,0.21769 255.2911,-8.00244 260.14661,-7.94539 4.76148,0.0798 -203.88355,24.20463 -199.12152,24.13693 4.78827,-0.059 81.71435,13.65004 86.50039,13.4961 4.86141,-0.21989 -62.41371,-14.27644 -57.56008,-14.63429 4.86971,-0.34092 9.74209,-0.667 14.59958,-1.15701 4.85271,-0.47315 9.70617,-0.94545 14.54775,-1.52357 4.7711,-0.62114 9.54369,-1.23787 14.29706,-1.98513 4.63726,-0.77929 9.27178,-1.57534 13.89508,-2.43427 4.55368,-0.84907 9.10402,-1.71729 13.64078,-2.65315 4.34563,-0.90686 8.68102,-1.86174 13.00118,-2.88361 4.21632,-0.99917 8.42517,-2.03117 12.6109,-3.1525 4.04491,-1.09763 8.08688,-2.20975 12.08952,-3.45457 3.76045,-1.18594 -91.86539,13.57843 -88.15319,12.2481 3.45499,-1.22059 106.28653,-18.42367 109.74152,-19.64415 3.16486,-1.1671 43.52582,-1.27841 46.66989,-2.49959 2.90269,-1.14226 -31.42418,-3.42433 -28.5343,-4.59888 2.70478,-1.05578 5.39627,-2.14536 8.11123,-3.17493 2.40601,-0.87378 4.80895,-1.75706 7.22911,-2.59092 2.05126,-0.70543 4.11722,-1.3739 6.21284,-1.93594 1.63733,-0.40323 3.28924,-0.74189 4.96966,-0.90983 1.31645,-0.15305 2.63312,-0.29159 3.96029,-0.29822 0,0 -64.47723,51.41919 -64.47723,51.41919 z"
       sodipodi:nodetypes="cccccccccccsccccsscccccccccsccccccssssssssscccssssssssscsccccccccccccccccccccscccccccscccc"
       transform="matrix(-0.93227424,0,0,-0.2963444,744.17748,230.68616)" />
  </g>
  <g
     inkscape:groupmode="layer"
     id="layer12"
     inkscape:label="thrilldesigns"
     style="display:inline">
    <flowRoot
       xml:space="preserve"
       id="flowRoot5311"
       style="font-size:40px;font-style:normal;font-weight:normal;fill:#000000;fill-opacity:1;stroke:none;display:inline;font-family:Bitstream Vera Sans"
       transform="translate(-17,123)"><flowRegion
         id="flowRegion5313"><rect
           id="rect5315"
           width="430"
           height="102"
           x="100"
           y="10.362183" /></flowRegion><flowPara
         id="flowPara5317"
         style="font-style:normal;font-variant:normal;font-weight:normal;font-stretch:normal;font-family:World of Water;-inkscape-font-specification:World of Water">thrill<flowSpan
   style="font-style:normal;font-variant:normal;font-weight:bold;font-stretch:normal;font-family:Skia;-inkscape-font-specification:Skia Bold"
   id="flowSpan5340">DESIGNS</flowSpan>.COM</flowPara></flowRoot>  </g>
  <g
     inkscape:groupmode="layer"
     id="layer4"
     inkscape:label="Lights/Shades"
     style="display:none">
    <rect
       style="fill:#ffffff;fill-opacity:1;fill-rule:nonzero;stroke:none"
       id="rect3751"
       width="75"
       height="317"
       x="2"
       y="1.3621826" />
    <rect
       style="fill:#ffffff;fill-opacity:1;fill-rule:nonzero;stroke:none"
       id="rect3751-7"
       width="75"
       height="317"
       x="665.5"
       y="0.86218262" />
  </g>
  <g
     inkscape:groupmode="layer"
     id="layer5"
     inkscape:label="Layer#3"
     style="display:inline">
    <rect
       style="fill:#ffffff;fill-opacity:1;fill-rule:nonzero;stroke:none"
       id="rect2861"
       width="678"
       height="73"
       x="46"
       y="223.36218" />
    <rect
       style="fill:#000000;fill-opacity:1;fill-rule:nonzero;stroke:#000000;stroke-width:1.4356966;stroke-miterlimit:4;stroke-opacity:1;stroke-dasharray:none;display:inline"
       id="rect5323"
       width="641.65088"
       height="0.65091765"
       x="66.174538"
       y="221.53668" />
  </g>
</svg>
