<?xml version="1.0" encoding="UTF-8" standalone="no"?>
<!-- Created with Inkscape (http://www.inkscape.org/) -->

<svg
   xmlns:dc="http://purl.org/dc/elements/1.1/"
   xmlns:cc="http://creativecommons.org/ns#"
   xmlns:rdf="http://www.w3.org/1999/02/22-rdf-syntax-ns#"
   xmlns:svg="http://www.w3.org/2000/svg"
   xmlns="http://www.w3.org/2000/svg"
   xmlns:xlink="http://www.w3.org/1999/xlink"
   xmlns:sodipodi="http://sodipodi.sourceforge.net/DTD/sodipodi-0.dtd"
   xmlns:inkscape="http://www.inkscape.org/namespaces/inkscape"
   width="744.09448819"
   height="1052.3622047"
   id="svg2"
   version="1.1"
   inkscape:version="0.48.1 r9760"
   sodipodi:docname="perceiver_path_(from_font)_development.svg">
  <defs
     id="defs4">
    <linearGradient
       inkscape:collect="always"
       id="linearGradient5389">
      <stop
         style="stop-color:#333333;stop-opacity:1;"
         offset="0"
         id="stop5391" />
      <stop
         style="stop-color:#333333;stop-opacity:0;"
         offset="1"
         id="stop5393" />
    </linearGradient>
    <linearGradient
       inkscape:collect="always"
       id="linearGradient4285">
      <stop
         style="stop-color:#000000;stop-opacity:1;"
         offset="0"
         id="stop4287" />
      <stop
         style="stop-color:#000000;stop-opacity:0;"
         offset="1"
         id="stop4289" />
    </linearGradient>
    <linearGradient
       id="linearGradient4277">
      <stop
         style="stop-color:#000000;stop-opacity:1;"
         offset="0"
         id="stop4279" />
      <stop
         style="stop-color:#000000;stop-opacity:0;"
         offset="1"
         id="stop4281" />
    </linearGradient>
    <linearGradient
       inkscape:collect="always"
       xlink:href="#linearGradient4277"
       id="linearGradient4283"
       x1="98.5"
       y1="259.50504"
       x2="161.5"
       y2="259.50504"
       gradientUnits="userSpaceOnUse" />
    <linearGradient
       inkscape:collect="always"
       xlink:href="#linearGradient4285"
       id="linearGradient4291"
       x1="98.5"
       y1="259.50504"
       x2="161.5"
       y2="259.50504"
       gradientUnits="userSpaceOnUse" />
    <linearGradient
       inkscape:collect="always"
       xlink:href="#linearGradient5389"
       id="linearGradient5395"
       x1="750.75575"
       y1="818.66562"
       x2="780.45721"
       y2="481.5228"
       gradientUnits="userSpaceOnUse" />
    <linearGradient
       inkscape:collect="always"
       xlink:href="#linearGradient5389"
       id="linearGradient3103"
       gradientUnits="userSpaceOnUse"
       x1="750.75575"
       y1="818.66562"
       x2="780.45721"
       y2="481.5228"
       gradientTransform="matrix(0.22792904,0,0,0.22792904,473.63461,709.79713)" />
    <linearGradient
       inkscape:collect="always"
       xlink:href="#linearGradient5389"
       id="linearGradient3105"
       gradientUnits="userSpaceOnUse"
       x1="750.75575"
       y1="818.66562"
       x2="780.45721"
       y2="481.5228"
       gradientTransform="matrix(0.22792904,0,0,0.22792904,473.63461,709.79713)" />
    <linearGradient
       inkscape:collect="always"
       xlink:href="#linearGradient5389"
       id="linearGradient3107"
       gradientUnits="userSpaceOnUse"
       x1="750.75575"
       y1="818.66562"
       x2="780.45721"
       y2="481.5228"
       gradientTransform="matrix(0.22792904,0,0,0.22792904,473.63461,709.79713)" />
  </defs>
  <sodipodi:namedview
     id="base"
     pagecolor="#ffffff"
     bordercolor="#666666"
     borderopacity="1.0"
     inkscape:pageopacity="0.0"
     inkscape:pageshadow="2"
     inkscape:zoom="3.6"
     inkscape:cx="598.80953"
     inkscape:cy="849.85814"
     inkscape:document-units="px"
     inkscape:current-layer="flowRoot4865"
     showgrid="false"
     inkscape:window-width="1280"
     inkscape:window-height="725"
     inkscape:window-x="0"
     inkscape:window-y="24"
     inkscape:window-maximized="1"
     showborder="false"
     inkscape:showpageshadow="false" />
  <metadata
     id="metadata7">
    <rdf:RDF>
      <cc:Work
         rdf:about="">
        <dc:format>image/svg+xml</dc:format>
        <dc:type
           rdf:resource="http://purl.org/dc/dcmitype/StillImage" />
        <dc:title></dc:title>
      </cc:Work>
    </rdf:RDF>
  </metadata>
  <g
     inkscape:label="Layer 1"
     inkscape:groupmode="layer"
     id="layer1">
    <path
       sodipodi:type="arc"
       style="opacity:0.46861925;fill:url(#linearGradient4291);fill-opacity:1;fill-rule:evenodd;stroke:url(#linearGradient4283);stroke-width:3;stroke-linecap:butt;stroke-linejoin:miter;stroke-miterlimit:4;stroke-opacity:1;stroke-dasharray:none"
       id="path3287"
       sodipodi:cx="130"
       sodipodi:cy="259.50504"
       sodipodi:rx="30"
       sodipodi:ry="27.142857"
       d="m 160,259.50504 a 30,27.142857 0 1 1 -60,0 30,27.142857 0 1 1 60,0 z"
       transform="matrix(0.22792904,0,0,0.22792904,429.51627,189.64189)" />
    <path
       style="fill:#333333"
       d="m 458.19862,259.40603 c -7.44094,63.75815 17.37452,110.52496 49.24783,135.82829 -36.5038,-16.82398 -53.27755,-66.0163 -55.98411,-99.4891 0.52712,-12.34458 2.59413,-24.67561 6.73628,-36.33919 z"
       id="path3293"
       inkscape:connector-curvature="0"
       sodipodi:nodetypes="cccc" />
    <path
       style="fill:#999999"
       d="M 528.61568,392.67372 C 451.52583,357.64258 443.80688,191.67633 595.82421,200.41714 458.90355,170.19438 430.15316,364.17982 528.61568,392.67372 z"
       id="path3341"
       inkscape:connector-curvature="0"
       sodipodi:nodetypes="ccc" />
    <path
       style="fill:#999999"
       id="path3343"
       d="m 520.79158,293.8574 c 0.26232,-0.10007 0.52853,-0.15307 0.79405,-0.21102 0.38664,-0.0627 0.76198,-0.25196 1.14429,-0.37778 0.52224,-0.17056 1.04923,-0.28031 1.57561,-0.39207 0.60134,-0.12629 1.20385,-0.23068 1.80661,-0.32896 0.64365,-0.10508 1.28824,-0.187 1.93289,-0.2659 0.71192,-0.085 1.42434,-0.1531 2.13693,-0.21406 0.80102,-0.0682 1.60234,-0.12225 2.40367,-0.17439 0.81716,-0.0528 1.63444,-0.0986 2.45174,-0.14221 0.80507,-0.0426 1.61022,-0.0797 2.41538,-0.11483 0.86649,-0.0391 1.73311,-0.066 2.59973,-0.0913 0.98781,-0.0281 1.97565,-0.052 2.9635,-0.0748 0.98802,-0.009 1.97614,-0.0761 2.96396,-0.0254 1.01606,0.0627 2.03052,0.19838 3.04538,0.30957 0.97924,0.15671 1.96201,0.24313 2.93819,0.46093 0.82021,0.14691 1.6196,0.51268 2.3927,1.04636 0.64846,0.45707 1.25264,1.08897 1.83125,1.80375 0.50742,0.60747 0.92922,1.4018 1.30488,2.2827 0.33501,0.85782 0.59153,1.81075 0.80349,2.79752 0.20338,0.96746 0.31966,1.98578 0.42121,3.00622 0.11668,1.06742 0.11503,2.14758 0.06,3.22675 -0.0734,1.1332 -0.22281,2.2415 -0.37781,3.34222 -0.17547,1.09345 -0.36807,2.17573 -0.53387,3.27496 -0.1837,1.22282 -0.32613,2.46566 -0.45996,3.71113 -0.14611,1.37916 -0.26191,2.76893 -0.37096,4.1602 -0.11587,1.5018 -0.21013,3.00919 -0.29866,4.51759 -0.0931,1.59056 -0.16888,3.1845 -0.24072,4.77898 -0.0829,1.84152 -0.14119,3.68657 -0.19554,5.53182 -0.0612,2.16809 -0.10965,4.3374 -0.15665,6.50675 -0.0466,2.17782 -0.0875,4.35606 -0.126,6.53445 -0.0378,2.14464 -0.0706,4.28958 -0.10171,6.43461 -0.0307,2.11567 -0.057,4.23155 -0.0821,6.34747 -0.0253,2.12875 -0.047,4.25764 -0.0665,6.3866 -0.0205,2.27203 -0.0375,4.54416 -0.0536,6.81631 -0.016,2.2667 -0.0299,4.53344 -0.0432,6.8002 -0.0128,2.20875 -0.0241,4.41752 -0.0348,6.62629 -0.0104,2.16912 -0.0196,4.33825 -0.0282,6.50738 -0.009,2.1676 -0.0159,4.33521 -0.0228,6.50283 -0.007,2.168 -0.0127,4.33601 -0.0184,6.50402 -0.0143,2.08887 0.002,4.1775 0.0203,6.26603 0.007,1.01475 0.0179,2.02927 0.0319,3.04376 0,0 -5.007,4.90036 -5.007,4.90036 l 0,0 c -0.017,-1.01837 -0.0285,-2.03674 -0.0351,-3.05555 -0.0186,-2.09539 -0.0408,-4.19091 -0.0258,-6.28667 0.006,-2.16837 0.0114,-4.33674 0.0181,-6.50509 0.007,-2.1681 0.0139,-4.33618 0.0224,-6.50426 0.008,-2.16967 0.0175,-4.33934 0.0278,-6.50899 0.0106,-2.20938 0.0217,-4.41874 0.0344,-6.62808 0.0131,-2.26751 0.0268,-4.535 0.0426,-6.80244 0.0159,-2.27335 0.0326,-4.54668 0.0526,-6.81991 0.0189,-2.13068 0.0402,-4.26127 0.0651,-6.39173 0.0248,-2.11747 0.0506,-4.23492 0.0809,-6.35215 0.0306,-2.14694 0.0629,-4.29379 0.10018,-6.44036 0.0379,-2.1808 0.0783,-4.36144 0.12408,-6.54169 0.0464,-2.17381 0.0942,-4.34754 0.15308,-6.52026 0.0526,-1.85456 0.10862,-3.70899 0.18809,-5.5602 0.0704,-1.60235 0.14367,-3.20436 0.23444,-4.80306 0.0863,-1.51947 0.17782,-3.03806 0.28987,-4.55154 0.10523,-1.40786 0.21872,-2.81378 0.35794,-4.21109 0.13019,-1.26789 0.26562,-2.53478 0.44189,-3.78288 0.1566,-1.10565 0.32536,-2.20493 0.53244,-3.28071 0.16651,-1.04947 0.30907,-2.11429 0.41602,-3.19181 0.0771,-0.97707 0.11907,-1.95701 0.0181,-2.93639 -0.0891,-0.95421 -0.18343,-1.91121 -0.36763,-2.81886 -0.18204,-0.89021 -0.4119,-1.7468 -0.71612,-2.50975 -0.3466,-0.78558 -0.74507,-1.46498 -1.20999,-1.99167 -0.55603,-0.64417 -1.13734,-1.20466 -1.75753,-1.59107 -0.75696,-0.4427 -1.53223,-0.72983 -2.32231,-0.85303 -0.97306,-0.16962 -1.94822,-0.29568 -2.92309,-0.42062 -1.00985,-0.1122 -2.01973,-0.24322 -3.03146,-0.27272 -0.98498,-0.007 -1.96985,0.0314 -2.95477,0.0495 -0.98746,0.0235 -1.97491,0.048 -2.96232,0.0778 -0.8658,0.027 -1.73158,0.0574 -2.59724,0.0978 -0.8046,0.0365 -1.60918,0.075 -2.41368,0.11929 -0.8166,0.0452 -1.63317,0.0928 -2.44961,0.14775 -0.80004,0.0544 -1.60004,0.11179 -2.39969,0.18475 -0.71047,0.0663 -1.42078,0.13934 -2.13049,0.23077 -0.64227,0.0837 -1.28437,0.17297 -1.92547,0.28504 -0.59973,0.10486 -1.19919,0.21609 -1.79716,0.35329 -0.52026,0.12196 -1.04001,0.25452 -1.55484,0.44492 -0.3849,0.13766 -0.76916,0.26267 -1.15879,0.34093 -0.25367,0.0765 -0.5069,0.16503 -0.75144,0.31835 0,0 4.46527,-6.53273 4.46527,-6.53273 z"
       inkscape:connector-curvature="0" />
    <path
       style="fill:#ff6600"
       id="path3347"
       d="m 515.71122,252.54785 c -1.87283,1.04725 3.44703,-2.77869 1.86279,-0.91019 -0.30568,0.41904 -0.50009,0.90228 -0.62829,1.40157 -0.10141,0.42912 -0.0506,0.84518 0.10034,1.25312 0.17775,0.43269 0.5265,0.72989 0.88745,1.00831 0.44877,0.30402 0.91955,0.57797 1.39251,0.84293 0.42948,0.25446 0.90607,0.3257 1.39586,0.34625 1.25578,-0.13721 3.58174,-1.78529 -1.41168,1.07679 0.39821,-0.21901 0.66232,-0.55564 0.87159,-0.94903 0.19628,-0.39199 0.24033,-0.81476 0.23151,-1.24602 -0.0591,-0.45303 -0.25171,-0.87534 -0.47608,-1.26866 -0.27845,-0.45988 -0.67414,-0.81992 -1.09154,-1.15011 -0.5035,-0.38371 -1.06692,-0.67355 -1.63761,-0.94195 -0.10614,-0.0464 -0.21227,-0.0928 -0.31841,-0.13917 0,0 2.71214,-1.80185 2.71214,-1.80185 l 0,0 c 0.10782,0.049 0.21564,0.0979 0.32347,0.1468 0.58691,0.28685 1.16492,0.59755 1.67847,1.00541 0.4417,0.36327 0.85744,0.75942 1.15421,1.25426 0.25023,0.43855 0.45519,0.90535 0.54992,1.40402 0.0316,0.47085 0.0117,0.94229 -0.16296,1.38733 -0.17787,0.43231 -0.40759,0.84673 -0.79898,1.12137 -1.2365,0.71777 -2.67266,2.03266 -4.27323,1.99402 -0.52274,-0.0592 -1.02405,-0.18425 -1.47666,-0.46476 -0.48158,-0.28012 -0.972,-0.55055 -1.41905,-0.88442 -0.39839,-0.3237 -0.7723,-0.67557 -0.97621,-1.15823 -0.18017,-0.45765 -0.27009,-0.92986 -0.18796,-1.42204 0.10328,-0.53965 0.29302,-1.05161 0.57091,-1.52731 0.82139,-1.23336 2.28381,-2.1831 3.76176,-2.29235 0,0 -2.63427,1.91391 -2.63427,1.91391 z"
       inkscape:connector-curvature="0" />
    <path
       style="fill:#ff6600"
       id="path3359"
       d="m 492.29867,251.11258 c -0.22875,-0.22889 -0.47538,-0.33673 -0.79644,-0.30697 -1.80314,1.18924 3.43065,-2.91826 1.89011,-0.84462 -0.31621,0.47545 -0.50066,1.01816 -0.64096,1.56725 -0.12786,0.52293 -0.10671,1.04694 0.0179,1.56591 0.13834,0.50207 0.47505,0.89377 0.83302,1.25614 0.37,0.36977 0.79069,0.64636 1.30251,0.75941 1.09269,0.0754 3.79647,-1.908 -1.68744,1.23152 0.41035,-0.27058 0.69229,-0.6732 0.92375,-1.09809 0.24323,-0.46952 0.35878,-0.97886 0.39815,-1.50232 0.046,-0.54229 -0.0935,-1.05224 -0.31132,-1.54233 -0.23975,-0.4997 -0.61391,-0.90312 -1.01746,-1.27414 -0.0758,-0.0627 -0.15156,-0.12549 -0.22734,-0.18824 0,0 2.76174,-1.72487 2.76174,-1.72487 l 0,0 c 0.0787,0.0675 0.15745,0.13498 0.23617,0.20247 0.42831,0.40681 0.82325,0.84855 1.08309,1.38531 0.24095,0.53041 0.41488,1.08805 0.38388,1.6784 -0.0163,0.55932 -0.10866,1.10863 -0.34072,1.62256 -0.21134,0.46789 -0.48039,0.90048 -0.85756,1.25504 -1.02509,0.59835 -2.54735,2.13847 -4.03092,1.79531 -0.53795,-0.18218 -0.99845,-0.49563 -1.39532,-0.90277 -0.39065,-0.40869 -0.75253,-0.85182 -0.91768,-1.40323 -0.1502,-0.56023 -0.20293,-1.13029 -0.0888,-1.70466 0.12326,-0.58115 0.30276,-1.15133 0.59237,-1.67307 0.76404,-1.28123 2.25939,-2.25681 3.73782,-2.36001 0.3597,0.0643 0.65864,0.23189 0.91875,0.49011 0,0 -2.76732,1.71589 -2.76732,1.71589 z"
       inkscape:connector-curvature="0" />
    <flowRoot
       xml:space="preserve"
       id="flowRoot4857"
       style="font-size:144px;font-style:normal;font-weight:normal;line-height:125%;letter-spacing:0px;word-spacing:0px;fill:#000000;fill-opacity:1;stroke:none;font-family:Sans"
       transform="matrix(0.22792904,0,0,0.22792904,429.51627,189.64189)"><flowRegion
         id="flowRegion4859"><rect
           id="rect4861"
           width="1328.5714"
           height="388.57144"
           x="705.71429"
           y="538.07648"
           style="font-size:144px" /></flowRegion><flowPara
         id="flowPara4863" /></flowRoot>    <g
       transform="translate(-57.142854,-673.71429)"
       style="font-size:40px;font-style:normal;font-weight:normal;line-height:125%;letter-spacing:0px;word-spacing:0px;opacity:0.5;fill:url(#linearGradient5395);fill-opacity:1;stroke:none;font-family:Sans"
       id="flowRoot4865">
      <path
         d="m 668.19752,905.45089 c 6.19418,0 10.82024,0.0784 13.87815,0.31364 -0.15682,0.94086 -0.31364,1.88178 -0.39205,2.82263 -0.15682,1.01932 -0.39205,2.50906 -0.62727,4.15565 -0.15679,1.48974 -0.39202,2.97948 -0.47043,3.21467 -0.23523,1.33295 -0.39205,2.58751 -0.39205,3.37151 0,0.94092 0.78406,1.72499 1.80339,1.72499 3.06422,-0.0306 2.9612,-6.22604 3.07364,-7.37031 0,-4.93966 5.08075,-27.20744 7.51137,-39.43901 l -1.09769,-0.78407 c -0.31364,0.31358 -0.62728,0.62722 -0.86251,0.94086 -3.36501,2.91976 -5.33066,4.39568 -6.27259,6.03742 l -13.56452,17.56332 c -3.29312,4.23398 -21.2458,23.32689 -23.28438,25.28713 m 23.12756,-21.05315 15.13267,-19.83713 -3.21472,19.83713 -11.91795,0"
         style="font-size:344px;font-variant:normal;font-weight:500;font-stretch:normal;fill:url(#linearGradient3103);font-family:URW Chancery L;-inkscape-font-specification:URW Chancery L Bold Italic"
         id="path5417"
         inkscape:connector-curvature="0"
         sodipodi:nodetypes="cccccscccccccccccc" />
      <path
         d="m 705.76577,920.03467 2.74426,0 c 5.48853,0.15685 5.48853,0.15685 6.74306,0.15685 5.33171,0 9.4089,-1.01932 14.66221,-3.68516 7.05669,-3.52837 10.50662,-8.07598 10.50662,-13.72137 0,-2.4306 -1.17613,-4.70441 -3.1363,-6.19415 -1.64657,-1.25456 -3.37154,-1.72499 -7.1351,-2.11702 7.76234,-3.52837 11.68274,-7.84074 11.68274,-12.85885 0,-5.1749 -4.234,-7.44871 -13.87813,-7.44871 l -1.25452,0 c -7.02175,1.02504 0.71914,-10.35172 -12.23159,25.95288 m -3.49218,17.57608 c 1.56816,-0.15685 7.27381,-20.71241 8.05791,-20.71241 6.03737,0 17.62129,-0.0334 17.62129,4.82778 0,2.97954 -1.25452,6.42945 -3.21473,8.62487 -2.11699,2.43066 -8.30886,6.46294 -12.22923,6.46294 m 4.93966,-40.53672 c 3.84196,0.0784 4.70447,0.23518 5.80217,0.78407 1.88176,0.94085 3.89123,2.38139 3.89123,4.89039 0,3.68515 -2.63671,8.28203 -5.38098,10.32066 -2.35221,1.80338 -5.81558,1.67572 -10.04959,1.75412 l 5.73717,-17.74924"
         style="font-size:344px;font-variant:normal;font-weight:500;font-stretch:normal;fill:url(#linearGradient3105);font-family:URW Chancery L;-inkscape-font-specification:URW Chancery L Bold Italic"
         id="path5419"
         inkscape:connector-curvature="0"
         sodipodi:nodetypes="ccscsccsscccssccccsccc" />
      <path
         d="m 766.89309,895.96356 4.46922,-17.79856 2.43066,0 c 3.29306,-0.15679 5.72372,-0.23519 6.19415,-0.23519 3.05788,0 3.60676,0.54883 5.72378,5.72372 l 5.1749,-5.17489 c -0.23524,-1.72493 -0.86252,-2.58745 -2.19541,-3.05788 l -16.77925,0.31364 0.47048,-1.64659 -5.48853,1.64659 c -3.90208,-7.44759 -1.531,3.38317 -5.72378,20.22916 -1.33289,1.33289 -1.72499,1.80338 -3.05788,3.37152 l 2.19541,0 c -0.31364,1.1761 -0.54888,2.19541 -0.86246,3.13627 -2.97954,12.07478 -3.84201,13.40773 -10.2714,14.97587 l -2.97948,2.58745 c 2.19535,0.0784 3.84194,0.0784 4.39083,0.0784 l 7.05661,0.0785 c 2.35226,0 4.46928,0.0784 6.27267,0.15679 9.48727,0.31364 9.56572,0.31364 12.93724,0.31364 4.07719,0 5.1749,-0.47043 8.70326,-3.68516 3.6067,-3.21473 4.93966,-5.0965 4.93966,-6.89988 0,-0.39204 -0.0784,-1.01926 -0.31364,-1.80339 l -5.95897,2.19548 c 0.23518,1.64653 0.31358,2.27381 0.31358,2.97942 0,2.97949 -1.01925,3.37158 -8.54635,3.37158 l -20.38602,0 c 7.60556,-6.97828 7.68396,-7.13513 10.50665,-17.87696 3.99873,-0.23524 4.46922,-0.23524 6.351,-0.39203 1.72492,-0.0784 2.90109,-0.15685 3.37152,-0.15685 0.31357,-0.0784 1.1761,-0.0784 2.11702,-0.15679 1.41128,-1.01931 1.56813,-1.1761 2.97948,-2.27381 l -14.03495,0"
         style="font-size:344px;font-variant:normal;font-weight:500;font-stretch:normal;fill:url(#linearGradient3107);font-family:URW Chancery L;-inkscape-font-specification:URW Chancery L Bold Italic"
         id="path5421"
         inkscape:connector-curvature="0"
         sodipodi:nodetypes="cccscccccccccccccccscsccssccccccc" />
    </g>
  </g>
</svg>
