<?xml version="1.0" encoding="UTF-8" standalone="no"?>
<!-- Created with Inkscape (http://www.inkscape.org/) -->

<svg
   xmlns:dc="http://purl.org/dc/elements/1.1/"
   xmlns:cc="http://creativecommons.org/ns#"
   xmlns:rdf="http://www.w3.org/1999/02/22-rdf-syntax-ns#"
   xmlns:svg="http://www.w3.org/2000/svg"
   xmlns="http://www.w3.org/2000/svg"
   xmlns:xlink="http://www.w3.org/1999/xlink"
   xmlns:sodipodi="http://sodipodi.sourceforge.net/DTD/sodipodi-0.dtd"
   xmlns:inkscape="http://www.inkscape.org/namespaces/inkscape"
   width="744.09448819"
   height="1052.3622047"
   id="svg2"
   version="1.1"
   inkscape:version="0.48.1 r9760"
   sodipodi:docname="perceiver_path_(from_font)_development.svg">
  <defs
     id="defs4">
    <linearGradient
       inkscape:collect="always"
       id="linearGradient5389">
      <stop
         style="stop-color:#333333;stop-opacity:1;"
         offset="0"
         id="stop5391" />
      <stop
         style="stop-color:#333333;stop-opacity:0;"
         offset="1"
         id="stop5393" />
    </linearGradient>
    <linearGradient
       inkscape:collect="always"
       id="linearGradient4285">
      <stop
         style="stop-color:#000000;stop-opacity:1;"
         offset="0"
         id="stop4287" />
      <stop
         style="stop-color:#000000;stop-opacity:0;"
         offset="1"
         id="stop4289" />
    </linearGradient>
    <linearGradient
       id="linearGradient4277">
      <stop
         style="stop-color:#000000;stop-opacity:1;"
         offset="0"
         id="stop4279" />
      <stop
         style="stop-color:#000000;stop-opacity:0;"
         offset="1"
         id="stop4281" />
    </linearGradient>
    <linearGradient
       inkscape:collect="always"
       xlink:href="#linearGradient4277"
       id="linearGradient4283"
       x1="98.5"
       y1="259.50504"
       x2="161.5"
       y2="259.50504"
       gradientUnits="userSpaceOnUse" />
    <linearGradient
       inkscape:collect="always"
       xlink:href="#linearGradient4285"
       id="linearGradient4291"
       x1="98.5"
       y1="259.50504"
       x2="161.5"
       y2="259.50504"
       gradientUnits="userSpaceOnUse" />
    <linearGradient
       inkscape:collect="always"
       xlink:href="#linearGradient5389"
       id="linearGradient5395"
       x1="750.75575"
       y1="818.66562"
       x2="780.45721"
       y2="481.5228"
       gradientUnits="userSpaceOnUse" />
    <linearGradient
       inkscape:collect="always"
       xlink:href="#linearGradient4285"
       id="linearGradient5515"
       gradientUnits="userSpaceOnUse"
       x1="98.5"
       y1="259.50504"
       x2="161.5"
       y2="259.50504" />
    <linearGradient
       inkscape:collect="always"
       xlink:href="#linearGradient4277"
       id="linearGradient5517"
       gradientUnits="userSpaceOnUse"
       x1="98.5"
       y1="259.50504"
       x2="161.5"
       y2="259.50504" />
    <linearGradient
       inkscape:collect="always"
       xlink:href="#linearGradient5389"
       id="linearGradient5519"
       gradientUnits="userSpaceOnUse"
       x1="750.75575"
       y1="818.66562"
       x2="780.45721"
       y2="481.5228"
       gradientTransform="translate(0,-1120)" />
    <linearGradient
       inkscape:collect="always"
       xlink:href="#linearGradient5389"
       id="linearGradient5521"
       gradientUnits="userSpaceOnUse"
       x1="750.75575"
       y1="818.66562"
       x2="780.45721"
       y2="481.5228"
       gradientTransform="translate(0,-1120)" />
    <linearGradient
       inkscape:collect="always"
       xlink:href="#linearGradient5389"
       id="linearGradient5523"
       gradientUnits="userSpaceOnUse"
       x1="750.75575"
       y1="818.66562"
       x2="780.45721"
       y2="481.5228"
       gradientTransform="translate(0,-1120)" />
    <linearGradient
       inkscape:collect="always"
       xlink:href="#linearGradient5389"
       id="linearGradient5543"
       gradientUnits="userSpaceOnUse"
       gradientTransform="translate(1660,-1120)"
       x1="750.75575"
       y1="818.66562"
       x2="780.45721"
       y2="481.5228" />
    <linearGradient
       inkscape:collect="always"
       xlink:href="#linearGradient5389"
       id="linearGradient5545"
       gradientUnits="userSpaceOnUse"
       gradientTransform="translate(1654,-1114)"
       x1="750.75575"
       y1="818.66562"
       x2="780.45721"
       y2="481.5228" />
    <linearGradient
       inkscape:collect="always"
       xlink:href="#linearGradient5389"
       id="linearGradient5547"
       gradientUnits="userSpaceOnUse"
       gradientTransform="translate(1642,-1110)"
       x1="750.75575"
       y1="818.66562"
       x2="780.45721"
       y2="481.5228" />
    <linearGradient
       inkscape:collect="always"
       xlink:href="#linearGradient4285"
       id="linearGradient5549"
       gradientUnits="userSpaceOnUse"
       x1="98.5"
       y1="259.50504"
       x2="161.5"
       y2="259.50504" />
    <linearGradient
       inkscape:collect="always"
       xlink:href="#linearGradient4277"
       id="linearGradient5551"
       gradientUnits="userSpaceOnUse"
       x1="98.5"
       y1="259.50504"
       x2="161.5"
       y2="259.50504" />
    <linearGradient
       inkscape:collect="always"
       xlink:href="#linearGradient5389"
       id="linearGradient5571"
       gradientUnits="userSpaceOnUse"
       gradientTransform="translate(1568,484)"
       x1="750.75575"
       y1="818.66562"
       x2="780.45721"
       y2="481.5228" />
    <linearGradient
       inkscape:collect="always"
       xlink:href="#linearGradient5389"
       id="linearGradient5573"
       gradientUnits="userSpaceOnUse"
       gradientTransform="translate(1566,484)"
       x1="750.75575"
       y1="818.66562"
       x2="780.45721"
       y2="481.5228" />
    <linearGradient
       inkscape:collect="always"
       xlink:href="#linearGradient5389"
       id="linearGradient5575"
       gradientUnits="userSpaceOnUse"
       gradientTransform="translate(1568,484)"
       x1="750.75575"
       y1="818.66562"
       x2="780.45721"
       y2="481.5228" />
    <linearGradient
       inkscape:collect="always"
       xlink:href="#linearGradient4285"
       id="linearGradient5577"
       gradientUnits="userSpaceOnUse"
       x1="98.5"
       y1="259.50504"
       x2="161.5"
       y2="259.50504" />
    <linearGradient
       inkscape:collect="always"
       xlink:href="#linearGradient4277"
       id="linearGradient5579"
       gradientUnits="userSpaceOnUse"
       x1="98.5"
       y1="259.50504"
       x2="161.5"
       y2="259.50504" />
    <linearGradient
       inkscape:collect="always"
       xlink:href="#linearGradient5389"
       id="linearGradient5646"
       gradientUnits="userSpaceOnUse"
       gradientTransform="translate(20,-2320)"
       x1="750.75575"
       y1="818.66562"
       x2="780.45721"
       y2="481.5228" />
    <linearGradient
       inkscape:collect="always"
       xlink:href="#linearGradient5389"
       id="linearGradient5648"
       gradientUnits="userSpaceOnUse"
       gradientTransform="translate(14,-2314)"
       x1="750.75575"
       y1="818.66562"
       x2="780.45721"
       y2="481.5228" />
    <linearGradient
       inkscape:collect="always"
       xlink:href="#linearGradient5389"
       id="linearGradient5650"
       gradientUnits="userSpaceOnUse"
       gradientTransform="translate(2,-2310)"
       x1="750.75575"
       y1="818.66562"
       x2="780.45721"
       y2="481.5228" />
    <linearGradient
       inkscape:collect="always"
       xlink:href="#linearGradient4285"
       id="linearGradient5652"
       gradientUnits="userSpaceOnUse"
       x1="98.5"
       y1="259.50504"
       x2="161.5"
       y2="259.50504" />
    <linearGradient
       inkscape:collect="always"
       xlink:href="#linearGradient4277"
       id="linearGradient5654"
       gradientUnits="userSpaceOnUse"
       x1="98.5"
       y1="259.50504"
       x2="161.5"
       y2="259.50504" />
  </defs>
  <sodipodi:namedview
     id="base"
     pagecolor="#ffffff"
     bordercolor="#666666"
     borderopacity="1.0"
     inkscape:pageopacity="0.0"
     inkscape:pageshadow="2"
     inkscape:zoom="0.3"
     inkscape:cx="28654.99"
     inkscape:cy="19023.191"
     inkscape:document-units="px"
     inkscape:current-layer="flowRoot4865"
     showgrid="false"
     inkscape:window-width="1280"
     inkscape:window-height="725"
     inkscape:window-x="0"
     inkscape:window-y="24"
     inkscape:window-maximized="1"
     showborder="false"
     inkscape:showpageshadow="false" />
  <metadata
     id="metadata7">
    <rdf:RDF>
      <cc:Work
         rdf:about="">
        <dc:format>image/svg+xml</dc:format>
        <dc:type
           rdf:resource="http://purl.org/dc/dcmitype/StillImage" />
        <dc:title></dc:title>
      </cc:Work>
    </rdf:RDF>
  </metadata>
  <g
     inkscape:label="Layer 1"
     inkscape:groupmode="layer"
     id="layer1">
    <path
       sodipodi:type="arc"
       style="fill:url(#linearGradient4291);fill-rule:evenodd;stroke:url(#linearGradient4283);stroke-width:3;stroke-linecap:butt;stroke-linejoin:miter;stroke-opacity:1;stroke-miterlimit:4;stroke-dasharray:none;fill-opacity:1;opacity:0.46861925"
       id="path3287"
       sodipodi:cx="130"
       sodipodi:cy="259.50504"
       sodipodi:rx="30"
       sodipodi:ry="27.142857"
       d="m 160,259.50504 a 30,27.142857 0 1 1 -60,0 30,27.142857 0 1 1 60,0 z" />
    <path
       style="fill:#333333"
       d="M 125.83893,306.07833 C 93.193094,585.80642 202.06673,790.98783 341.90545,902.00192 181.7512,828.18957 108.15925,612.36659 96.284649,465.51036 98.597301,411.35062 107.66598,357.25029 125.83893,306.07833 z"
       id="path3293"
       inkscape:connector-curvature="0"
       sodipodi:nodetypes="cccc" />
    <path
       style="fill:#999999"
       d="M 434.78184,890.76773 C 96.56323,737.0745 62.697637,8.9257638 729.64788,47.274611 128.9317,-85.322663 2.794229,765.75555 434.78184,890.76773 z"
       id="path3341"
       inkscape:connector-curvature="0"
       sodipodi:nodetypes="ccc" />
    <path
       style="fill:#999999"
       id="path3343"
       d="m 400.45495,457.22788 c 1.15087,-0.43903 2.31883,-0.6716 3.48375,-0.92584 1.6963,-0.27487 3.34306,-1.1054 5.02037,-1.65744 2.29126,-0.74828 4.60331,-1.22981 6.91273,-1.72013 2.6383,-0.55407 5.28171,-1.01209 7.9262,-1.44327 2.8239,-0.46098 5.65194,-0.82042 8.48023,-1.16658 3.12345,-0.37289 6.24906,-0.67171 9.37542,-0.93916 3.51432,-0.29943 7.02997,-0.53634 10.54571,-0.76512 3.58514,-0.23159 7.17078,-0.43279 10.75657,-0.62393 3.53211,-0.18711 7.06456,-0.34957 10.59709,-0.50377 3.80157,-0.17132 7.60369,-0.28942 11.40584,-0.40038 4.33387,-0.12353 8.66786,-0.22791 13.00188,-0.328 4.33476,-0.041 8.66998,-0.33405 13.00384,-0.11142 4.45782,0.27494 8.90859,0.87034 13.36111,1.35818 4.29622,0.68751 8.60796,1.06667 12.89079,2.02226 3.59857,0.64452 7.10575,2.2493 10.49759,4.59069 2.84501,2.00533 5.49573,4.77771 8.0343,7.91365 2.22618,2.66516 4.07676,6.15018 5.72495,10.01498 1.4698,3.76353 2.59519,7.94434 3.52513,12.27362 0.89231,4.24461 1.40246,8.7123 1.84801,13.18928 0.51193,4.68317 0.50466,9.42216 0.26333,14.15684 -0.3219,4.97173 -0.97754,9.83419 -1.65757,14.66339 -0.76984,4.79734 -1.6148,9.54567 -2.34227,14.36835 -0.8059,5.36491 -1.43081,10.81768 -2.01798,16.28197 -0.64104,6.05083 -1.14909,12.14822 -1.62755,18.25218 -0.50833,6.58889 -0.92188,13.20228 -1.31029,19.82017 -0.40855,6.9783 -0.74095,13.97141 -1.05613,20.96692 -0.36386,8.07939 -0.61942,16.17422 -0.85789,24.26995 -0.26877,9.51212 -0.48106,19.0296 -0.68728,28.54726 -0.20447,9.55482 -0.38372,19.11148 -0.55278,28.66879 -0.16572,9.40926 -0.30988,18.81983 -0.44624,28.23078 -0.13451,9.28211 -0.24992,18.56517 -0.36033,27.84842 -0.11074,9.33953 -0.20631,18.67967 -0.29169,28.02015 -0.0897,9.96814 -0.16451,19.93671 -0.2352,29.90539 -0.0701,9.94476 -0.13138,19.88972 -0.1895,29.83475 -0.0564,9.69047 -0.10594,19.38107 -0.15299,29.07173 -0.0457,9.51659 -0.0858,19.03328 -0.12362,28.54999 -0.038,9.50995 -0.0697,19.01999 -0.0999,28.53006 -0.03,9.51173 -0.0559,19.02351 -0.0806,28.53531 -0.0626,9.16451 0.01,18.32804 0.089,27.49111 0.0326,4.45206 0.0787,8.90315 0.13993,13.35405 0,0 -21.96738,21.49944 -21.96738,21.49944 l 0,0 c -0.0745,-4.4679 -0.12487,-8.9358 -0.15382,-13.4058 -0.0816,-9.1931 -0.17886,-18.38681 -0.11321,-27.58163 0.0243,-9.51335 0.05,-19.02669 0.0793,-28.53998 0.0298,-9.51213 0.0607,-19.02426 0.0982,-28.53631 0.0372,-9.51907 0.0768,-19.03812 0.12173,-28.55707 0.0464,-9.69327 0.0952,-19.38651 0.1509,-29.0796 0.0574,-9.94829 0.11761,-19.89653 0.18689,-29.84454 0.0695,-9.97395 0.14307,-19.9478 0.23099,-29.92122 0.0829,-9.34799 0.17632,-18.69561 0.28572,-28.04262 0.10897,-9.29007 0.22217,-18.57999 0.35486,-27.86897 0.1344,-9.41933 0.27587,-18.83831 0.43957,-28.25598 0.16612,-9.5679 0.34337,-19.1351 0.54436,-28.70059 0.20344,-9.53718 0.41342,-19.07407 0.67162,-28.60653 0.23072,-8.13657 0.47656,-16.27257 0.82522,-24.39443 0.30872,-7.03005 0.6303,-14.05857 1.02855,-21.0726 0.37879,-6.66643 0.78017,-13.32898 1.27175,-19.96912 0.46167,-6.17676 0.9596,-12.345 1.57042,-18.47541 0.57118,-5.5627 1.16537,-11.12094 1.93869,-16.59679 0.68709,-4.85084 1.42748,-9.67372 2.336,-14.39353 0.73055,-4.60437 1.35597,-9.2761 1.82523,-14.00354 0.33828,-4.28674 0.52237,-8.58603 0.0796,-12.88291 -0.39096,-4.18641 -0.80475,-8.3851 -1.61288,-12.36727 -0.7987,-3.90563 -1.80714,-7.66381 -3.14185,-11.01112 -1.52069,-3.44658 -3.2689,-6.42733 -5.30865,-8.73811 -2.43948,-2.82617 -4.98986,-5.28522 -7.71084,-6.98053 -3.32107,-1.94228 -6.72242,-3.202 -10.18877,-3.74254 -4.26915,-0.74418 -8.54744,-1.29723 -12.82454,-1.84538 -4.43057,-0.49225 -8.86125,-1.06708 -13.30001,-1.19652 -4.32144,-0.0313 -8.64239,0.13783 -12.96355,0.21718 -4.33232,0.10306 -8.6646,0.21074 -12.99672,0.34153 -3.79855,0.11877 -7.59698,0.25191 -11.39493,0.42888 -3.53005,0.16026 -7.06,0.32906 -10.5896,0.52334 -3.5827,0.19845 -7.16526,0.40708 -10.74725,0.64823 -3.51006,0.2388 -7.01993,0.49047 -10.52825,0.81056 -3.11706,0.29072 -6.23341,0.61135 -9.34717,1.01245 -2.81785,0.3673 -5.63493,0.75889 -8.44769,1.25062 -2.63117,0.46003 -5.26122,0.94804 -7.88467,1.54998 -2.28259,0.53508 -4.56288,1.11666 -6.82161,1.95202 -1.6887,0.60394 -3.37457,1.1524 -5.08402,1.49577 -1.11289,0.33582 -2.22391,0.724 -3.29679,1.39669 0,0 19.59063,-28.66123 19.59063,-28.66123 z"
       inkscape:connector-curvature="0" />
    <path
       style="fill:#ff6600"
       id="path3347"
       d="m 378.16575,275.98922 c -8.21675,4.59461 15.12326,-12.19104 8.17266,-3.99333 -1.34115,1.83849 -2.19407,3.95862 -2.75651,6.1492 -0.44495,1.88269 -0.22218,3.70806 0.44019,5.49783 0.77989,1.89834 2.30998,3.20227 3.89352,4.42379 1.96894,1.33381 4.03441,2.53577 6.10943,3.6982 1.88426,1.11641 3.97524,1.42898 6.12412,1.51913 5.50951,-0.60199 15.71424,-7.83267 -6.1935,4.7242 1.74707,-0.96084 2.90579,-2.43775 3.82395,-4.16368 0.86116,-1.71975 1.05438,-3.57464 1.01567,-5.46672 -0.25941,-1.9876 -1.1043,-3.84036 -2.08871,-5.56603 -1.22166,-2.01762 -2.95767,-3.59724 -4.78893,-5.0459 -2.20901,-1.68345 -4.68092,-2.95508 -7.18473,-4.13263 -0.46566,-0.20353 -0.93132,-0.40706 -1.39698,-0.61059 0,0 11.89906,-7.90531 11.89906,-7.90531 l 0,0 c 0.47305,0.21468 0.94609,0.42936 1.41914,0.64404 2.575,1.25853 5.11091,2.62167 7.36401,4.41109 1.93789,1.59379 3.76189,3.33181 5.0639,5.50281 1.09785,1.92409 1.99711,3.97212 2.41269,6.15992 0.13836,2.06578 0.051,4.13417 -0.71496,6.08669 -0.78036,1.8967 -1.78819,3.71489 -3.50537,4.91981 -5.42491,3.14909 -11.72582,8.91795 -18.74806,8.74843 -2.29346,-0.25953 -4.49286,-0.80836 -6.47862,-2.03903 -2.11286,-1.22903 -4.26448,-2.41548 -6.22584,-3.88027 -1.74786,-1.42016 -3.38833,-2.96397 -4.28294,-5.08154 -0.79051,-2.00785 -1.185,-4.0796 -0.82466,-6.23892 0.45314,-2.36765 1.2856,-4.61381 2.50478,-6.70083 3.60371,-5.41117 10.01981,-9.578 16.50407,-10.05729 0,0 -11.55738,8.39693 -11.55738,8.39693 z"
       inkscape:connector-curvature="0" />
    <path
       style="fill:#ff6600"
       id="path3359"
       d="m 275.44712,269.69222 c -1.00361,-1.00419 -2.08565,-1.47734 -3.49423,-1.34678 -7.91097,5.21757 15.05137,-12.80335 8.29253,-3.70561 -1.38734,2.08595 -2.19654,4.46702 -2.8121,6.87603 -0.56097,2.29425 -0.46815,4.59326 0.0786,6.87014 0.60693,2.20278 2.08418,3.92129 3.65471,5.51113 1.62333,1.62229 3.46903,2.8358 5.71457,3.33178 4.79398,0.33073 16.65637,-8.37103 -7.40337,5.40308 1.80034,-1.1871 3.03728,-2.95355 4.05278,-4.81767 1.06716,-2.05993 1.57411,-4.29461 1.74685,-6.59119 0.20179,-2.37921 -0.41022,-4.61653 -1.36589,-6.76669 -1.05185,-2.19235 -2.69344,-3.96228 -4.46393,-5.59009 -0.33247,-0.27529 -0.66494,-0.55058 -0.99741,-0.82588 0,0 12.11667,-7.56755 12.11667,-7.56755 l 0,0 c 0.34539,0.29609 0.69078,0.59218 1.03616,0.88828 1.87911,1.78482 3.61184,3.72286 4.75188,6.07781 1.05712,2.32709 1.82018,4.77364 1.68418,7.36372 -0.0714,2.45391 -0.47674,4.8639 -1.49485,7.11869 -0.92724,2.05279 -2.10763,3.9507 -3.76241,5.50628 -4.49738,2.62514 -11.17604,9.38216 -17.68495,7.87662 -2.36018,-0.79929 -4.38051,-2.17448 -6.12176,-3.96076 -1.71391,-1.79306 -3.30158,-3.73719 -4.02612,-6.15643 -0.65901,-2.45789 -0.89032,-4.95894 -0.38961,-7.47893 0.54078,-2.54968 1.32829,-5.05122 2.59894,-7.34028 3.35208,-5.62119 9.91265,-9.90141 16.39904,-10.35412 1.57809,0.28209 2.88964,1.01738 4.03085,2.15021 0,0 -12.14116,7.52821 -12.14116,7.52821 z"
       inkscape:connector-curvature="0" />
    <flowRoot
       xml:space="preserve"
       id="flowRoot4857"
       style="fill:black;stroke:none;stroke-opacity:1;stroke-width:1px;stroke-linejoin:miter;stroke-linecap:butt;fill-opacity:1;font-family:Sans;font-style:normal;font-weight:normal;font-size:144px;line-height:125%;letter-spacing:0px;word-spacing:0px"><flowRegion
         id="flowRegion4859"><rect
           id="rect4861"
           width="1328.5714"
           height="388.57144"
           x="705.71429"
           y="538.07648"
           style="font-size:144px" /></flowRegion><flowPara
         id="flowPara4863"></flowPara></flowRoot>    <g
       transform="translate(-57.142854,-673.71429)"
       style="font-size:40px;font-style:normal;font-weight:normal;line-height:125%;letter-spacing:0px;word-spacing:0px;opacity:0.5;fill:url(#linearGradient5395);fill-opacity:1;stroke:none;font-family:Sans"
       id="flowRoot4865">
      <path
         d="m 750.75575,919.28562 c 7.91199,2.408 12.04001,3.096 18.232,3.096 23.39198,0 39.21605,-12.04005 84.624,-63.984 27.17597,0 47.47201,0.344 60.888,1.376 -0.688,4.128 -1.376,8.256 -1.72,12.384 -0.688,4.472 -1.72,11.00801 -2.752,18.232 -0.688,6.53599 -1.72,13.072 -2.064,14.104 -1.032,5.84799 -1.72,11.352 -1.72,14.792 0,4.128 3.44,7.568 7.912,7.568 2.408,0 5.848,-0.344 9.976,-1.376 16.51198,-3.096 33.02402,-6.192 49.536,-8.944 l 5.504,-8.256 c -3.44,0.344 -6.88,0.688 -7.912,0.688 -10.66399,1.032 -12.38401,1.032 -17.544,1.032 -13.41599,0 -17.544,-3.44001 -17.544,-15.48 0,-21.67198 13.76001,-119.36805 24.424,-173.032 l -4.816,-3.44 c -1.376,1.376 -2.752,2.752 -3.784,4.128 -14.76349,12.80997 -23.38741,19.28507 -27.52,26.488 l -59.512,77.056 c -14.44799,18.57598 -37.15201,45.06401 -46.096,53.664 -13.75999,13.41599 -24.08002,18.232 -39.904,18.232 -5.84799,0 -8.94401,-0.344 -15.136,-2.408 l -13.072,24.08 m 113.52,-74.992 66.392,-87.032 -14.104,87.032 -52.288,0"
         style="font-size:344px;font-variant:normal;font-weight:500;font-stretch:normal;font-family:URW Chancery L;-inkscape-font-specification:URW Chancery L Bold Italic"
         id="path5417"
         inkscape:connector-curvature="0"
         sodipodi:nodetypes="cscccccssccccssccccccscccccc" />
      <path
         d="m 986.78813,922.03762 c 8.94399,0 9.28801,0 19.95197,0.344 l 11.696,0 12.04,0 c 24.08,0.688 24.08,0.688 29.584,0.688 23.392,0 41.28,-4.47201 64.328,-16.168 30.96,-15.47998 46.096,-35.43202 46.096,-60.2 0,-10.66399 -5.16,-20.64001 -13.76,-27.176 -7.224,-5.50399 -14.792,-7.568 -31.304,-9.288 34.056,-15.47998 51.256,-34.40002 51.256,-56.416 0,-22.70398 -18.576,-32.68 -60.888,-32.68 l -5.504,0 2.752,-10.664 -27.864,12.04 c -29.5839,4.472 -46.096,9.63201 -61.92,18.92 -27.51995,16.85598 -41.62398,40.93603 -41.62398,71.208 0,6.87999 0.68801,12.04001 2.408,22.36 l 27.51998,-12.728 c -3.096,-15.13598 -3.44,-18.92001 -3.44,-25.456 0,-23.39198 7.224,-37.84001 24.768,-49.192 13.76,-8.94399 27.52,-13.072 49.192,-14.448 l -25.456,101.824 c -14.448,59.51194 -20.296,67.08 -53.664,70.52 l -16.16797,16.512 m 98.38397,-100.104 c 6.88,-0.688 9.976,-0.688 13.416,-0.688 26.488,0 41.968,12.04002 41.968,33.368 0,13.07199 -5.504,28.20801 -14.104,37.84 -9.288,10.66399 -23.048,16.168 -40.248,16.168 -8.6,0 -18.576,-1.032 -50.912,-4.472 33.712,-29.92797 39.216,-38.18403 46.44,-69.144 l 3.44,-13.072 m 22.704,-91.16 c 16.856,0.344 20.64,1.032 25.456,3.44 8.256,4.128 13.416,14.10401 13.416,25.112 0,16.16798 -7.912,32.68001 -19.952,41.624 -10.32,7.91199 -20.64,11.008 -39.216,11.352 l 20.296,-81.528"
         style="font-size:344px;font-variant:normal;font-weight:500;font-stretch:normal;font-family:URW Chancery L;-inkscape-font-specification:URW Chancery L Bold Italic"
         id="path5419" />
      <path
         d="m 1286.6218,816.77362 19.608,-78.088 10.664,0 c 14.4479,-0.688 25.112,-1.032 27.176,-1.032 13.4159,0 15.824,2.40802 25.112,25.112 l 22.704,-22.704 c -1.032,-7.56799 -3.7841,-11.352 -9.632,-13.416 l -73.616,1.376 2.064,-7.224 -24.08,7.224 c -33.024,0.344 -54.0081,6.88002 -73.616,22.36 -17.2,13.75999 -24.768,27.52002 -24.768,45.408 0,8.94399 1.376,15.82401 6.192,27.864 l 24.768,-16.512 c -3.096,-11.00799 -4.472,-19.95201 -4.472,-28.552 0,-26.83197 19.264,-37.84 66.048,-39.216 l -19.264,77.4 c -5.848,5.84799 -7.5681,7.91201 -13.416,14.792 l 9.632,0 c -1.376,5.15999 -2.4081,9.632 -3.784,13.76 -13.072,52.97595 -16.8561,58.82401 -45.064,65.704 l -13.072,11.352 c 9.6319,0.344 16.856,0.344 19.264,0.344 l 30.96,0.344 c 10.3199,0 19.608,0.344 27.52,0.688 41.6239,1.376 41.968,1.376 56.7599,1.376 17.888,0 22.7041,-2.06401 38.1841,-16.168 15.8239,-14.10399 21.672,-22.36001 21.672,-30.272 0,-1.72 -0.3441,-4.472 -1.376,-7.912 l -26.144,9.632 c 1.0319,7.22399 1.3759,9.976 1.3759,13.072 0,13.07199 -4.472,14.792 -37.4959,14.792 l -89.44,0 c 33.3679,-30.61597 33.712,-31.30405 46.096,-78.432 17.5439,-1.032 19.608,-1.032 27.864,-1.72 7.5679,-0.344 12.728,-0.688 14.792,-0.688 1.3759,-0.344 5.16,-0.344 9.288,-0.688 6.1919,-4.472 6.88,-5.16 13.072,-9.976 l -61.576,0"
         style="font-size:344px;font-variant:normal;font-weight:500;font-stretch:normal;font-family:URW Chancery L;-inkscape-font-specification:URW Chancery L Bold Italic"
         id="path5421" />
      <path
         sodipodi:nodetypes="cscccccssccccssccccccscccccc"
         inkscape:connector-curvature="0"
         id="path5509"
         style="font-size:344px;font-variant:normal;font-weight:500;font-stretch:normal;fill:url(#linearGradient5519);font-family:URW Chancery L;-inkscape-font-specification:URW Chancery L Bold Italic"
         d="m 750.75575,-200.71438 c 7.91199,2.408 12.04001,3.096 18.232,3.096 23.39198,0 39.21605,-12.04005 84.624,-63.984 27.17597,0 47.47201,0.344 60.888,1.376 -0.688,4.128 -1.376,8.256 -1.72,12.384 -0.688,4.472 -1.72,11.00801 -2.752,18.232 -0.688,6.53599 -1.72,13.072 -2.064,14.104 -1.032,5.84799 -1.72,11.352 -1.72,14.792 0,4.128 3.44,7.568 7.912,7.568 2.408,0 5.848,-0.344 9.976,-1.376 16.51198,-3.096 33.02402,-6.192 49.536,-8.944 l 5.504,-8.256 c -3.44,0.344 -6.88,0.688 -7.912,0.688 -10.66399,1.032 -12.38401,1.032 -17.544,1.032 -13.41599,0 -17.544,-3.44001 -17.544,-15.48 0,-21.67198 13.76001,-119.36805 24.424,-173.032 l -4.816,-3.44 c -1.376,1.376 -2.752,2.752 -3.784,4.128 -14.76349,12.80997 -23.38741,19.28507 -27.52,26.488 l -59.512,77.056 c -14.44799,18.57598 -37.15201,45.06401 -46.096,53.664 -13.75999,13.41599 -24.08002,18.232 -39.904,18.232 -5.84799,0 -8.94401,-0.344 -15.136,-2.408 l -13.072,24.08 m 113.52,-74.992 66.392,-87.032 -14.104,87.032 -52.288,0" />
      <path
         id="path5511"
         style="font-size:344px;font-variant:normal;font-weight:500;font-stretch:normal;fill:url(#linearGradient5521);font-family:URW Chancery L;-inkscape-font-specification:URW Chancery L Bold Italic"
         d="m 986.78813,-197.96238 c 8.94399,0 9.28801,0 19.95197,0.344 l 11.696,0 12.04,0 c 24.08,0.688 24.08,0.688 29.584,0.688 23.392,0 41.28,-4.47201 64.328,-16.168 30.96,-15.47998 46.096,-35.43202 46.096,-60.2 0,-10.66399 -5.16,-20.64001 -13.76,-27.176 -7.224,-5.50399 -14.792,-7.568 -31.304,-9.288 34.056,-15.47998 51.256,-34.40002 51.256,-56.416 0,-22.70398 -18.576,-32.68 -60.888,-32.68 l -5.504,0 2.752,-10.664 -27.864,12.04 c -29.5839,4.472 -46.096,9.63201 -61.92,18.92 -27.51995,16.85598 -41.62398,40.93603 -41.62398,71.208 0,6.87999 0.68801,12.04001 2.408,22.36 l 27.51998,-12.728 c -3.096,-15.13598 -3.44,-18.92001 -3.44,-25.456 0,-23.39198 7.224,-37.84001 24.768,-49.192 13.76,-8.94399 27.52,-13.072 49.192,-14.448 l -25.456,101.824 c -14.448,59.51194 -20.296,67.08 -53.664,70.52 l -16.16797,16.512 m 98.38397,-100.104 c 6.88,-0.688 9.976,-0.688 13.416,-0.688 26.488,0 41.968,12.04002 41.968,33.368 0,13.07199 -5.504,28.20801 -14.104,37.84 -9.288,10.66399 -23.048,16.168 -40.248,16.168 -8.6,0 -18.576,-1.032 -50.912,-4.472 33.712,-29.92797 39.216,-38.18403 46.44,-69.144 l 3.44,-13.072 m 22.704,-91.16 c 16.856,0.344 20.64,1.032 25.456,3.44 8.256,4.128 13.416,14.10401 13.416,25.112 0,16.16798 -7.912,32.68001 -19.952,41.624 -10.32,7.91199 -20.64,11.008 -39.216,11.352 l 20.296,-81.528"
         inkscape:connector-curvature="0" />
      <path
         id="path5513"
         style="font-size:344px;font-variant:normal;font-weight:500;font-stretch:normal;fill:url(#linearGradient5523);font-family:URW Chancery L;-inkscape-font-specification:URW Chancery L Bold Italic"
         d="m 1286.6218,-303.22638 19.608,-78.088 10.664,0 c 14.4479,-0.688 25.112,-1.032 27.176,-1.032 13.4159,0 15.824,2.40802 25.112,25.112 l 22.704,-22.704 c -1.032,-7.56799 -3.7841,-11.352 -9.632,-13.416 l -73.616,1.376 2.064,-7.224 -24.08,7.224 c -33.024,0.344 -54.0081,6.88002 -73.616,22.36 -17.2,13.75999 -24.768,27.52002 -24.768,45.408 0,8.94399 1.376,15.82401 6.192,27.864 l 24.768,-16.512 c -3.096,-11.00799 -4.472,-19.95201 -4.472,-28.552 0,-26.83197 19.264,-37.84 66.048,-39.216 l -19.264,77.4 c -5.848,5.84799 -7.5681,7.91201 -13.416,14.792 l 9.632,0 c -1.376,5.15999 -2.4081,9.632 -3.784,13.76 -13.072,52.97595 -16.8561,58.82401 -45.064,65.704 l -13.072,11.352 c 9.6319,0.344 16.856,0.344 19.264,0.344 l 30.96,0.344 c 10.3199,0 19.608,0.344 27.52,0.688 41.6239,1.376 41.968,1.376 56.7599,1.376 17.888,0 22.7041,-2.06401 38.1841,-16.168 15.8239,-14.10399 21.672,-22.36001 21.672,-30.272 0,-1.72 -0.3441,-4.472 -1.376,-7.912 l -26.144,9.632 c 1.0319,7.22399 1.3759,9.976 1.3759,13.072 0,13.07199 -4.472,14.792 -37.4959,14.792 l -89.44,0 c 33.3679,-30.61597 33.712,-31.30405 46.096,-78.432 17.5439,-1.032 19.608,-1.032 27.864,-1.72 7.5679,-0.344 12.728,-0.688 14.792,-0.688 1.3759,-0.344 5.16,-0.344 9.288,-0.688 6.1919,-4.472 6.88,-5.16 13.072,-9.976 l -61.576,0"
         inkscape:connector-curvature="0" />
      <path
         d="m 2410.7558,-200.71438 c 7.9119,2.408 12.04,3.096 18.2319,3.096 23.392,0 39.2161,-12.04005 84.6241,-63.984 27.1759,0 47.472,0.344 60.888,1.376 -0.688,4.128 -1.376,8.256 -1.72,12.384 -0.688,4.472 -1.7201,11.00801 -2.752,18.232 -0.688,6.53599 -1.72,13.072 -2.064,14.104 -1.032,5.84799 -1.72,11.352 -1.72,14.792 0,4.128 3.44,7.568 7.912,7.568 2.408,0 5.848,-0.344 9.976,-1.376 16.5119,-3.096 33.024,-6.192 49.536,-8.944 l 5.504,-8.256 c -3.44,0.344 -6.88,0.688 -7.912,0.688 -10.664,1.032 -12.3841,1.032 -17.544,1.032 -13.416,0 -17.544,-3.44001 -17.544,-15.48 0,-21.67198 13.76,-119.36805 24.424,-173.032 l -4.816,-3.44 c -1.376,1.376 -2.752,2.752 -3.784,4.128 -14.7635,12.80997 -23.3875,19.28507 -27.52,26.488 l -59.5121,77.056 c -14.4479,18.57598 -37.152,45.06401 -46.096,53.664 -13.7599,13.41599 -24.08,18.232 -39.904,18.232 -5.8479,0 -8.944,-0.344 -15.136,-2.408 l -13.072,24.08 m 113.52,-74.992 66.3921,-87.032 -14.1041,87.032 -52.288,0"
         style="font-size:344px;font-variant:normal;font-weight:500;font-stretch:normal;fill:url(#linearGradient5543);font-family:URW Chancery L;-inkscape-font-specification:URW Chancery L Bold Italic"
         id="path5525"
         inkscape:connector-curvature="0"
         sodipodi:nodetypes="cscccccssccccssccccccscccccc" />
      <path
         inkscape:connector-curvature="0"
         d="m 2688.0601,-190.93038 c 23.392,0 67.28,-4.47201 90.328,-16.168 30.96,-15.47998 46.096,-35.43202 46.096,-60.2 0,-10.66399 -5.16,-20.64001 -13.76,-27.176 -7.224,-5.50399 -14.792,-7.568 -31.304,-9.288 34.056,-15.47998 51.256,-34.40002 51.256,-56.416 -23.3447,-41.49883 -101.2415,-37.92948 -94.6,-20.64 l -25.456,101.824 m 28.552,-13.072 c 6.88,-0.688 9.976,-0.688 13.416,-0.688 26.488,0 41.968,12.04002 41.968,33.368 0,13.07199 -5.504,28.20801 -14.104,37.84 -9.288,10.66399 -23.048,16.168 -40.248,16.168 -24.6417,7.95451 -10.8809,-30.74966 -4.472,-73.616 l 3.44,-13.072 m 22.704,-91.16 c 16.856,0.344 20.64,1.032 25.456,3.44 8.256,4.128 13.416,14.10401 13.416,25.112 0,16.16798 -7.912,32.68001 -19.952,41.624 -10.32,7.91199 -20.64,11.008 -39.216,11.352 l 20.296,-81.528"
         style="font-size:344px;font-variant:normal;font-weight:500;font-stretch:normal;fill:url(#linearGradient5545);font-family:URW Chancery L;-inkscape-font-specification:URW Chancery L Bold Italic"
         id="path5527"
         sodipodi:nodetypes="ccsccccccsscccccssccc" />
      <path
         inkscape:connector-curvature="0"
         d="m 2919.6218,-294.22638 28.608,-77.088 c 81.6809,-3.90996 55.8889,-1.74909 85.656,1.376 -10.7613,-24.35549 -87.6245,-17.1914 -105.264,-12.04 -33.4689,76.44481 -83.4163,199.72902 -71.552,194.704 l 30.96,0.344 c 10.3199,0 19.608,0.344 27.52,0.688 41.6239,1.376 41.968,1.376 56.7599,1.376 17.888,0 22.7041,-2.06401 38.1841,-16.168 15.8239,-14.10399 21.672,-22.36001 21.672,-30.272 -20.1301,10.13152 -42.2653,29.53191 -63.64,29.584 -108.1564,8.9054 -76.5284,-12.98049 -54.344,-79.432 79.7244,0.0646 54.3345,5.02873 76.016,-12.072"
         style="font-size:344px;font-variant:normal;font-weight:500;font-stretch:normal;fill:url(#linearGradient5547);font-family:URW Chancery L;-inkscape-font-specification:URW Chancery L Bold Italic"
         id="path5529"
         sodipodi:nodetypes="cccccccsccccc" />
      <path
         sodipodi:nodetypes="cscccccssccccssccccccscccccc"
         inkscape:connector-curvature="0"
         id="path5553"
         style="font-size:344px;font-variant:normal;font-weight:500;font-stretch:normal;fill:url(#linearGradient5571);font-family:URW Chancery L;-inkscape-font-specification:URW Chancery L Bold Italic"
         d="m 2318.7558,1403.2856 c 7.9119,2.408 12.04,3.096 18.2319,3.096 23.392,0 39.2161,-12.04 84.6241,-63.984 27.1759,0 47.472,0.344 60.888,1.376 -0.688,4.128 -1.376,8.256 -1.72,12.384 -0.688,4.472 -1.7201,11.008 -2.752,18.232 -0.688,6.536 -1.72,13.072 -2.064,14.104 -1.032,5.848 -1.72,11.352 -1.72,14.792 0,4.128 3.44,7.568 7.912,7.568 2.408,0 5.848,-0.344 9.976,-1.376 16.5119,-3.096 33.024,-6.192 49.536,-8.944 l 5.504,-8.256 c -3.44,0.344 -6.88,0.688 -7.912,0.688 -10.664,1.032 -12.3841,1.032 -17.544,1.032 -13.416,0 -17.544,-3.44 -17.544,-15.48 0,-21.672 13.76,-119.368 24.424,-173.032 l -4.816,-3.44 c -1.376,1.376 -2.752,2.752 -3.784,4.128 -14.7635,12.81 -23.3875,19.2851 -27.52,26.488 l -59.5121,77.056 c -14.4479,18.576 -37.152,45.064 -46.096,53.664 -13.7599,13.416 -24.08,18.232 -39.904,18.232 -5.8479,0 -8.944,-0.344 -15.136,-2.408 l -13.072,24.08 m 113.52,-74.992 66.3921,-87.032 -14.1041,87.032 -52.288,0" />
      <path
         id="path5555"
         style="font-size:344px;font-variant:normal;font-weight:500;font-stretch:normal;fill:url(#linearGradient5573);font-family:URW Chancery L;-inkscape-font-specification:URW Chancery L Bold Italic"
         d="m 2552.7881,1406.0376 c 8.944,0 9.288,0 19.952,0.344 l 11.696,0 12.04,0 c 24.08,0.688 24.08,0.688 29.584,0.688 23.392,0 41.28,-4.472 64.328,-16.168 30.96,-15.48 46.096,-35.432 46.096,-60.2 0,-10.664 -5.16,-20.64 -13.76,-27.176 -7.224,-5.504 -14.792,-7.568 -31.304,-9.288 34.056,-15.48 51.256,-34.4 51.256,-56.416 0,-22.704 -18.576,-32.68 -60.888,-32.68 l -5.504,0 2.752,-10.664 -27.864,12.04 c -29.5839,4.472 -46.096,9.632 -61.92,18.92 -27.5199,16.856 -41.624,40.9361 -41.624,71.208 0,6.88 0.688,12.04 2.408,22.36 l 27.52,-12.728 c -3.096,-15.136 -3.44,-18.92 -3.44,-25.456 0,-23.392 7.224,-37.84 24.768,-49.192 13.76,-8.944 27.52,-13.072 49.192,-14.448 l -25.456,101.824 c -14.448,59.512 -20.296,67.08 -53.664,70.52 l -16.168,16.512 m 98.384,-100.104 c 6.88,-0.688 9.976,-0.688 13.416,-0.688 26.488,0 41.968,12.04 41.968,33.368 0,13.072 -5.504,28.208 -14.104,37.84 -9.288,10.664 -23.048,16.168 -40.248,16.168 -8.6,0 -18.576,-1.032 -50.912,-4.472 33.712,-29.9279 39.216,-38.184 46.44,-69.144 l 3.44,-13.072 m 22.704,-91.16 c 16.856,0.344 20.64,1.032 25.456,3.44 8.256,4.128 13.416,14.104 13.416,25.112 0,16.168 -7.912,32.68 -19.952,41.624 -10.32,7.912 -20.64,11.008 -39.216,11.352 l 20.296,-81.528"
         inkscape:connector-curvature="0" />
      <path
         id="path5557"
         style="font-size:344px;font-variant:normal;font-weight:500;font-stretch:normal;fill:url(#linearGradient5575);font-family:URW Chancery L;-inkscape-font-specification:URW Chancery L Bold Italic"
         d="m 2854.6218,1300.7736 19.608,-78.088 10.664,0 c 14.4479,-0.688 25.112,-1.032 27.176,-1.032 13.4159,0 15.824,2.408 25.112,25.112 l 22.704,-22.704 c -1.032,-7.568 -3.7841,-11.352 -9.632,-13.416 l -73.616,1.376 2.064,-7.224 -24.08,7.224 c -33.024,0.344 -54.0081,6.88 -73.616,22.36 -17.2,13.76 -24.768,27.52 -24.768,45.408 0,8.944 1.376,15.824 6.192,27.864 l 24.768,-16.512 c -3.096,-11.008 -4.472,-19.952 -4.472,-28.552 0,-26.832 19.264,-37.84 66.048,-39.216 l -19.264,77.4 c -5.848,5.848 -7.5681,7.912 -13.416,14.792 l 9.632,0 c -1.376,5.16 -2.4081,9.632 -3.784,13.76 -13.072,52.976 -16.8561,58.824 -45.064,65.704 l -13.072,11.352 c 9.6319,0.344 16.856,0.344 19.264,0.344 l 30.96,0.344 c 10.3199,0 19.608,0.344 27.52,0.688 41.6239,1.376 41.968,1.376 56.7599,1.376 17.888,0 22.7041,-2.064 38.1841,-16.168 15.8239,-14.104 21.672,-22.36 21.672,-30.272 0,-1.72 -0.3441,-4.472 -1.376,-7.912 l -26.144,9.632 c 1.0319,7.224 1.3759,9.976 1.3759,13.072 0,13.072 -4.472,14.792 -37.4959,14.792 l -89.44,0 c 33.3679,-30.6159 33.712,-31.304 46.096,-78.432 17.5439,-1.032 19.608,-1.032 27.864,-1.72 7.5679,-0.344 12.728,-0.688 14.792,-0.688 1.3759,-0.344 5.16,-0.344 9.288,-0.688 6.1919,-4.472 6.88,-5.16 13.072,-9.976 l -61.576,0"
         inkscape:connector-curvature="0" />
      <path
         sodipodi:nodetypes="cscccccssccccssccccccscccccc"
         inkscape:connector-curvature="0"
         id="path5628"
         style="font-size:344px;font-variant:normal;font-weight:500;font-stretch:normal;fill:url(#linearGradient5646);font-family:URW Chancery L;-inkscape-font-specification:URW Chancery L Bold Italic"
         d="m 770.7558,-1400.7144 c 7.9119,2.408 12.04,3.096 18.2319,3.096 23.392,0 39.2161,-12.04 84.6241,-63.984 27.1759,0 47.472,0.344 60.888,1.376 -0.688,4.128 -1.376,8.256 -1.72,12.384 -0.688,4.472 -1.7201,11.008 -2.752,18.232 -0.688,6.536 -1.72,13.072 -2.064,14.104 -1.032,5.848 -1.72,11.352 -1.72,14.792 0,4.128 3.44,7.568 7.912,7.568 2.408,0 5.848,-0.344 9.976,-1.376 16.5119,-3.096 33.024,-6.192 49.536,-8.944 l 5.504,-8.256 c -3.44,0.344 -6.88,0.688 -7.912,0.688 -10.664,1.032 -12.3841,1.032 -17.544,1.032 -13.416,0 -17.544,-3.44 -17.544,-15.48 0,-21.672 13.76,-119.368 24.424,-173.032 l -4.816,-3.44 c -1.376,1.376 -2.752,2.752 -3.784,4.128 -14.7635,12.81 -23.3875,19.2851 -27.52,26.488 l -59.5121,77.056 c -14.4479,18.576 -37.152,45.064 -46.096,53.664 -13.7599,13.416 -24.08,18.232 -39.904,18.232 -5.8479,0 -8.944,-0.344 -15.136,-2.408 l -13.072,24.08 m 113.52,-74.992 66.3921,-87.032 -14.1041,87.032 -52.288,0" />
      <path
         sodipodi:nodetypes="ccsccccccsscccccssccc"
         id="path5630"
         style="font-size:344px;font-variant:normal;font-weight:500;font-stretch:normal;fill:url(#linearGradient5648);font-family:URW Chancery L;-inkscape-font-specification:URW Chancery L Bold Italic"
         d="m 1048.0601,-1390.9304 c 23.392,0 67.28,-4.472 90.328,-16.168 30.96,-15.48 46.096,-35.432 46.096,-60.2 0,-10.664 -5.16,-20.64 -13.76,-27.176 -7.224,-5.504 -14.792,-7.568 -31.304,-9.288 34.056,-15.48 51.256,-34.4 51.256,-56.416 -23.3447,-41.4988 -101.2415,-37.9295 -94.6,-20.64 l -25.456,101.824 m 28.552,-13.072 c 6.88,-0.688 9.976,-0.688 13.416,-0.688 26.488,0 41.968,12.04 41.968,33.368 0,13.072 -5.504,28.208 -14.104,37.84 -9.288,10.664 -23.048,16.168 -40.248,16.168 -24.6417,7.9545 -10.8809,-30.7496 -4.472,-73.616 l 3.44,-13.072 m 22.704,-91.16 c 16.856,0.344 20.64,1.032 25.456,3.44 8.256,4.128 13.416,14.104 13.416,25.112 0,16.168 -7.912,32.68 -19.952,41.624 -10.32,7.912 -20.64,11.008 -39.216,11.352 l 20.296,-81.528"
         inkscape:connector-curvature="0" />
      <path
         sodipodi:nodetypes="ccccccccc"
         id="path5632"
         style="font-size:344px;font-variant:normal;font-weight:500;font-stretch:normal;fill:url(#linearGradient5650);font-family:URW Chancery L;-inkscape-font-specification:URW Chancery L Bold Italic"
         d="m 1279.6218,-1494.2264 28.608,-77.088 c 81.6809,-3.9099 55.8889,-1.7491 85.656,1.376 -10.7613,-24.3555 -87.6245,-17.1914 -105.264,-12.04 -33.4689,76.4448 -83.4163,199.729 -71.552,194.704 l 30.96,0.344 c 26.4186,8.564 58.5192,12.2627 64.2799,12.064 91.5379,-72.3021 -143.6743,77.4547 -38.1279,-106.288 79.7244,0.065 54.3345,5.0287 76.016,-12.072"
         inkscape:connector-curvature="0" />
    </g>
    <path
       d="m 160,259.50504 a 30,27.142857 0 1 1 -60,0 30,27.142857 0 1 1 60,0 z"
       sodipodi:ry="27.142857"
       sodipodi:rx="30"
       sodipodi:cy="259.50504"
       sodipodi:cx="130"
       id="path5497"
       style="opacity:0.46861925;fill:url(#linearGradient5515);fill-opacity:1;fill-rule:evenodd;stroke:url(#linearGradient5517);stroke-width:3;stroke-linecap:butt;stroke-linejoin:miter;stroke-miterlimit:4;stroke-opacity:1;stroke-dasharray:none"
       sodipodi:type="arc"
       transform="translate(0,-1120)" />
    <path
       sodipodi:nodetypes="cccc"
       inkscape:connector-curvature="0"
       id="path5499"
       d="m 125.83893,-813.92167 c -32.645836,279.72809 76.2278,484.9095 216.06652,595.92359 -160.15425,-73.81235 -233.7462,-289.63533 -245.620801,-436.49156 2.312652,-54.15974 11.381331,-108.26007 29.554281,-159.43203 z"
       style="fill:#333333" />
    <path
       sodipodi:nodetypes="ccc"
       inkscape:connector-curvature="0"
       id="path5501"
       d="M 434.78184,-229.23227 C 96.56323,-382.9255 62.697637,-1111.0742 729.64788,-1072.7254 128.9317,-1205.3227 2.794229,-354.24445 434.78184,-229.23227 z"
       style="fill:#999999" />
    <path
       inkscape:connector-curvature="0"
       d="m 400.45495,-662.77212 c 1.15087,-0.43903 2.31883,-0.6716 3.48375,-0.92584 1.6963,-0.27487 3.34306,-1.1054 5.02037,-1.65744 2.29126,-0.74828 4.60331,-1.22981 6.91273,-1.72013 2.6383,-0.55407 5.28171,-1.01209 7.9262,-1.44327 2.8239,-0.46098 5.65194,-0.82042 8.48023,-1.16658 3.12345,-0.37289 6.24906,-0.67171 9.37542,-0.93916 3.51432,-0.29943 7.02997,-0.53634 10.54571,-0.76512 3.58514,-0.23159 7.17078,-0.43279 10.75657,-0.62393 3.53211,-0.18711 7.06456,-0.34957 10.59709,-0.50377 3.80157,-0.17132 7.60369,-0.28942 11.40584,-0.40038 4.33387,-0.12353 8.66786,-0.22791 13.00188,-0.328 4.33476,-0.041 8.66998,-0.33405 13.00384,-0.11142 4.45782,0.27494 8.90859,0.87034 13.36111,1.35818 4.29622,0.68751 8.60796,1.06667 12.89079,2.02226 3.59857,0.64452 7.10575,2.2493 10.49759,4.59069 2.84501,2.00533 5.49573,4.77771 8.0343,7.91365 2.22618,2.66516 4.07676,6.15018 5.72495,10.01498 1.4698,3.76353 2.59519,7.94434 3.52513,12.27362 0.89231,4.24461 1.40246,8.7123 1.84801,13.18928 0.51193,4.68317 0.50466,9.42216 0.26333,14.15684 -0.3219,4.97173 -0.97754,9.83419 -1.65757,14.66339 -0.76984,4.79734 -1.6148,9.54567 -2.34227,14.36835 -0.8059,5.36491 -1.43081,10.81768 -2.01798,16.28197 -0.64104,6.05083 -1.14909,12.14822 -1.62755,18.25218 -0.50833,6.58889 -0.92188,13.20228 -1.31029,19.82017 -0.40855,6.9783 -0.74095,13.97141 -1.05613,20.96692 -0.36386,8.07939 -0.61942,16.17422 -0.85789,24.26995 -0.26877,9.51212 -0.48106,19.0296 -0.68728,28.54726 -0.20447,9.55482 -0.38372,19.11148 -0.55278,28.66879 -0.16572,9.40926 -0.30988,18.81983 -0.44624,28.23078 -0.13451,9.28211 -0.24992,18.56517 -0.36033,27.84842 -0.11074,9.33953 -0.20631,18.67967 -0.29169,28.02015 -0.0897,9.96814 -0.16451,19.93671 -0.2352,29.90539 -0.0701,9.94476 -0.13138,19.88972 -0.1895,29.83475 -0.0564,9.69047 -0.10594,19.38107 -0.15299,29.07173 -0.0457,9.51659 -0.0858,19.03328 -0.12362,28.54999 -0.038,9.50995 -0.0697,19.01999 -0.0999,28.53006 -0.03,9.51173 -0.0559,19.02351 -0.0806,28.53531 -0.0626,9.16451 0.01,18.32804 0.089,27.49111 0.0326,4.45206 0.0787,8.90315 0.13993,13.35405 0,0 -21.96738,21.49944 -21.96738,21.49944 l 0,0 c -0.0745,-4.4679 -0.12487,-8.9358 -0.15382,-13.4058 -0.0816,-9.1931 -0.17886,-18.38681 -0.11321,-27.58163 0.0243,-9.51335 0.05,-19.02669 0.0793,-28.53998 0.0298,-9.51213 0.0607,-19.02426 0.0982,-28.53631 0.0372,-9.51907 0.0768,-19.03812 0.12173,-28.55707 0.0464,-9.69327 0.0952,-19.38651 0.1509,-29.0796 0.0574,-9.94829 0.11761,-19.89653 0.18689,-29.84454 0.0695,-9.97395 0.14307,-19.9478 0.23099,-29.92122 0.0829,-9.34799 0.17632,-18.69561 0.28572,-28.04262 0.10897,-9.29007 0.22217,-18.57999 0.35486,-27.86897 0.1344,-9.41933 0.27587,-18.83831 0.43957,-28.25598 0.16612,-9.5679 0.34337,-19.1351 0.54436,-28.70059 0.20344,-9.53718 0.41342,-19.07407 0.67162,-28.60653 0.23072,-8.13657 0.47656,-16.27257 0.82522,-24.39443 0.30872,-7.03005 0.6303,-14.05857 1.02855,-21.0726 0.37879,-6.66643 0.78017,-13.32898 1.27175,-19.96912 0.46167,-6.17676 0.9596,-12.345 1.57042,-18.47541 0.57118,-5.5627 1.16537,-11.12094 1.93869,-16.59679 0.68709,-4.85084 1.42748,-9.67372 2.336,-14.39353 0.73055,-4.60437 1.35597,-9.2761 1.82523,-14.00354 0.33828,-4.28674 0.52237,-8.58603 0.0796,-12.88291 -0.39096,-4.18641 -0.80475,-8.3851 -1.61288,-12.36727 -0.7987,-3.90563 -1.80714,-7.66381 -3.14185,-11.01112 -1.52069,-3.44658 -3.2689,-6.42733 -5.30865,-8.73811 -2.43948,-2.82617 -4.98986,-5.28522 -7.71084,-6.98053 -3.32107,-1.94228 -6.72242,-3.202 -10.18877,-3.74254 -4.26915,-0.74418 -8.54744,-1.29723 -12.82454,-1.84538 -4.43057,-0.49225 -8.86125,-1.06708 -13.30001,-1.19652 -4.32144,-0.0313 -8.64239,0.13783 -12.96355,0.21718 -4.33232,0.10306 -8.6646,0.21074 -12.99672,0.34153 -3.79855,0.11877 -7.59698,0.25191 -11.39493,0.42888 -3.53005,0.16026 -7.06,0.32906 -10.5896,0.52334 -3.5827,0.19845 -7.16526,0.40708 -10.74725,0.64823 -3.51006,0.2388 -7.01993,0.49047 -10.52825,0.81056 -3.11706,0.29072 -6.23341,0.61135 -9.34717,1.01245 -2.81785,0.3673 -5.63493,0.75889 -8.44769,1.25062 -2.63117,0.46003 -5.26122,0.94804 -7.88467,1.54998 -2.28259,0.53508 -4.56288,1.11666 -6.82161,1.95202 -1.6887,0.60394 -3.37457,1.1524 -5.08402,1.49577 -1.11289,0.33582 -2.22391,0.724 -3.29679,1.39669 0,0 19.59063,-28.66123 19.59063,-28.66123 z"
       id="path5503"
       style="fill:#999999" />
    <path
       inkscape:connector-curvature="0"
       d="m 378.16575,-844.01078 c -8.21675,4.59461 15.12326,-12.19104 8.17266,-3.99333 -1.34115,1.83849 -2.19407,3.95862 -2.75651,6.1492 -0.44495,1.88269 -0.22218,3.70806 0.44019,5.49783 0.77989,1.89834 2.30998,3.20227 3.89352,4.42379 1.96894,1.33381 4.03441,2.53577 6.10943,3.6982 1.88426,1.11641 3.97524,1.42898 6.12412,1.51913 5.50951,-0.60199 15.71424,-7.83267 -6.1935,4.7242 1.74707,-0.96084 2.90579,-2.43775 3.82395,-4.16368 0.86116,-1.71975 1.05438,-3.57464 1.01567,-5.46672 -0.25941,-1.9876 -1.1043,-3.84036 -2.08871,-5.56603 -1.22166,-2.01762 -2.95767,-3.59724 -4.78893,-5.0459 -2.20901,-1.68345 -4.68092,-2.95508 -7.18473,-4.13263 -0.46566,-0.20353 -0.93132,-0.40706 -1.39698,-0.61059 0,0 11.89906,-7.90531 11.89906,-7.90531 l 0,0 c 0.47305,0.21468 0.94609,0.42936 1.41914,0.64404 2.575,1.25853 5.11091,2.62167 7.36401,4.41109 1.93789,1.59379 3.76189,3.33181 5.0639,5.50281 1.09785,1.92409 1.99711,3.97212 2.41269,6.15992 0.13836,2.06578 0.051,4.13417 -0.71496,6.08669 -0.78036,1.8967 -1.78819,3.71489 -3.50537,4.91981 -5.42491,3.14909 -11.72582,8.91795 -18.74806,8.74843 -2.29346,-0.25953 -4.49286,-0.80836 -6.47862,-2.03903 -2.11286,-1.22903 -4.26448,-2.41548 -6.22584,-3.88027 -1.74786,-1.42016 -3.38833,-2.96397 -4.28294,-5.08154 -0.79051,-2.00785 -1.185,-4.0796 -0.82466,-6.23892 0.45314,-2.36765 1.2856,-4.61381 2.50478,-6.70083 3.60371,-5.41117 10.01981,-9.578 16.50407,-10.05729 0,0 -11.55738,8.39693 -11.55738,8.39693 z"
       id="path5505"
       style="fill:#ff6600" />
    <path
       inkscape:connector-curvature="0"
       d="m 275.44712,-850.30778 c -1.00361,-1.00419 -2.08565,-1.47734 -3.49423,-1.34678 -7.91097,5.21757 15.05137,-12.80335 8.29253,-3.70561 -1.38734,2.08595 -2.19654,4.46702 -2.8121,6.87603 -0.56097,2.29425 -0.46815,4.59326 0.0786,6.87014 0.60693,2.20278 2.08418,3.92129 3.65471,5.51113 1.62333,1.62229 3.46903,2.8358 5.71457,3.33178 4.79398,0.33073 16.65637,-8.37103 -7.40337,5.40308 1.80034,-1.1871 3.03728,-2.95355 4.05278,-4.81767 1.06716,-2.05993 1.57411,-4.29461 1.74685,-6.59119 0.20179,-2.37921 -0.41022,-4.61653 -1.36589,-6.76669 -1.05185,-2.19235 -2.69344,-3.96228 -4.46393,-5.59009 -0.33247,-0.27529 -0.66494,-0.55058 -0.99741,-0.82588 0,0 12.11667,-7.56755 12.11667,-7.56755 l 0,0 c 0.34539,0.29609 0.69078,0.59218 1.03616,0.88828 1.87911,1.78482 3.61184,3.72286 4.75188,6.07781 1.05712,2.32709 1.82018,4.77364 1.68418,7.36372 -0.0714,2.45391 -0.47674,4.8639 -1.49485,7.11869 -0.92724,2.05279 -2.10763,3.9507 -3.76241,5.50628 -4.49738,2.62514 -11.17604,9.38216 -17.68495,7.87662 -2.36018,-0.79929 -4.38051,-2.17448 -6.12176,-3.96076 -1.71391,-1.79306 -3.30158,-3.73719 -4.02612,-6.15643 -0.65901,-2.45789 -0.89032,-4.95894 -0.38961,-7.47893 0.54078,-2.54968 1.32829,-5.05122 2.59894,-7.34028 3.35208,-5.62119 9.91265,-9.90141 16.39904,-10.35412 1.57809,0.28209 2.88964,1.01738 4.03085,2.15021 0,0 -12.14116,7.52821 -12.14116,7.52821 z"
       id="path5507"
       style="fill:#ff6600" />
    <path
       transform="translate(1680,-1120)"
       sodipodi:type="arc"
       style="opacity:0.46861925;fill:url(#linearGradient5549);fill-opacity:1;fill-rule:evenodd;stroke:url(#linearGradient5551);stroke-width:3;stroke-linecap:butt;stroke-linejoin:miter;stroke-miterlimit:4;stroke-opacity:1;stroke-dasharray:none"
       id="path5531"
       sodipodi:cx="130"
       sodipodi:cy="259.50504"
       sodipodi:rx="30"
       sodipodi:ry="27.142857"
       d="m 160,259.50504 a 30,27.142857 0 1 1 -60,0 30,27.142857 0 1 1 60,0 z" />
    <path
       style="fill:#333333"
       d="m 1805.8389,-813.92167 c -32.6458,279.72809 76.2278,484.9095 216.0665,595.92359 -160.1542,-73.81235 -233.7462,-289.63533 -245.6208,-436.49156 2.3127,-54.15974 11.3814,-108.26007 29.5543,-159.43203 z"
       id="path5533"
       inkscape:connector-curvature="0"
       sodipodi:nodetypes="cccc" />
    <path
       style="fill:#999999"
       d="m 2114.7818,-229.23227 c -338.2186,-153.69323 -372.0842,-881.84193 294.8661,-843.49313 -600.7162,-132.5973 -726.8537,718.48095 -294.8661,843.49313 z"
       id="path5535"
       inkscape:connector-curvature="0"
       sodipodi:nodetypes="ccc" />
    <path
       style="fill:#999999"
       id="path5537"
       d="m 2080.455,-662.77212 c 1.1508,-0.43903 2.3188,-0.6716 3.4837,-0.92584 1.6963,-0.27487 3.3431,-1.1054 5.0204,-1.65744 2.2912,-0.74828 4.6033,-1.22981 6.9127,-1.72013 2.6383,-0.55407 5.2817,-1.01209 7.9262,-1.44327 2.8239,-0.46098 5.6519,-0.82042 8.4802,-1.16658 3.1235,-0.37289 6.2491,-0.67171 9.3754,-0.93916 3.5144,-0.29943 7.03,-0.53634 10.5458,-0.76512 3.5851,-0.23159 7.1707,-0.43279 10.7565,-0.62393 3.5321,-0.18711 7.0646,-0.34957 10.5971,-0.50377 3.8016,-0.17132 7.6037,-0.28942 11.4059,-0.40038 4.3338,-0.12353 8.6678,-0.22791 13.0018,-0.328 4.3348,-0.041 8.67,-0.33405 13.0039,-0.11142 4.4578,0.27494 8.9086,0.87034 13.3611,1.35818 4.2962,0.68751 8.608,1.06667 12.8908,2.02226 3.5986,0.64452 7.1057,2.2493 10.4976,4.59069 2.845,2.00533 5.4957,4.77771 8.0343,7.91365 2.2262,2.66516 4.0767,6.15018 5.7249,10.01498 1.4698,3.76353 2.5952,7.94434 3.5252,12.27362 0.8923,4.24461 1.4024,8.7123 1.848,13.18928 0.5119,4.68317 0.5046,9.42216 0.2633,14.15684 -0.3219,4.97173 -0.9775,9.83419 -1.6576,14.66339 -0.7698,4.79734 -1.6148,9.54567 -2.3422,14.36835 -0.8059,5.36491 -1.4309,10.81768 -2.018,16.28197 -0.6411,6.05083 -1.1491,12.14822 -1.6276,18.25218 -0.5083,6.58889 -0.9219,13.20228 -1.3103,19.82017 -0.4085,6.9783 -0.7409,13.97141 -1.0561,20.96692 -0.3639,8.07939 -0.6194,16.17422 -0.8579,24.26995 -0.2688,9.51212 -0.4811,19.0296 -0.6873,28.54726 -0.2044,9.55482 -0.3837,19.11148 -0.5528,28.66879 -0.1657,9.40926 -0.3098,18.81983 -0.4462,28.23078 -0.1345,9.28211 -0.2499,18.56517 -0.3603,27.84842 -0.1108,9.33953 -0.2063,18.67967 -0.2917,28.02015 -0.09,9.96814 -0.1645,19.93671 -0.2352,29.90539 -0.07,9.94476 -0.1314,19.88972 -0.1895,29.83475 -0.056,9.69047 -0.106,19.38107 -0.153,29.07173 -0.046,9.51659 -0.086,19.03328 -0.1236,28.54999 -0.038,9.50995 -0.07,19.01999 -0.1,28.53006 -0.03,9.51173 -0.056,19.02351 -0.081,28.53531 -0.063,9.16451 0.01,18.32804 0.089,27.49111 0.033,4.45206 0.079,8.90315 0.1399,13.35405 0,0 -21.9674,21.49944 -21.9674,21.49944 l 0,0 c -0.074,-4.4679 -0.1248,-8.9358 -0.1538,-13.4058 -0.082,-9.1931 -0.1788,-18.38681 -0.1132,-27.58163 0.024,-9.51335 0.05,-19.02669 0.079,-28.53998 0.03,-9.51213 0.061,-19.02426 0.098,-28.53631 0.037,-9.51907 0.077,-19.03812 0.1217,-28.55707 0.046,-9.69327 0.095,-19.38651 0.1509,-29.0796 0.057,-9.94829 0.1176,-19.89653 0.1869,-29.84454 0.07,-9.97395 0.1431,-19.9478 0.231,-29.92122 0.083,-9.34799 0.1763,-18.69561 0.2857,-28.04262 0.109,-9.29007 0.2222,-18.57999 0.3549,-27.86897 0.1344,-9.41933 0.2759,-18.83831 0.4396,-28.25598 0.1661,-9.5679 0.3433,-19.1351 0.5443,-28.70059 0.2035,-9.53718 0.4134,-19.07407 0.6716,-28.60653 0.2308,-8.13657 0.4766,-16.27257 0.8253,-24.39443 0.3087,-7.03005 0.6303,-14.05857 1.0285,-21.0726 0.3788,-6.66643 0.7802,-13.32898 1.2718,-19.96912 0.4616,-6.17676 0.9596,-12.345 1.5704,-18.47541 0.5712,-5.5627 1.1653,-11.12094 1.9387,-16.59679 0.6871,-4.85084 1.4274,-9.67372 2.336,-14.39353 0.7305,-4.60437 1.3559,-9.2761 1.8252,-14.00354 0.3383,-4.28674 0.5224,-8.58603 0.08,-12.88291 -0.391,-4.18641 -0.8048,-8.3851 -1.6129,-12.36727 -0.7987,-3.90563 -1.8071,-7.66381 -3.1418,-11.01112 -1.5207,-3.44658 -3.2689,-6.42733 -5.3087,-8.73811 -2.4395,-2.82617 -4.9898,-5.28522 -7.7108,-6.98053 -3.3211,-1.94228 -6.7224,-3.202 -10.1888,-3.74254 -4.2691,-0.74418 -8.5474,-1.29723 -12.8245,-1.84538 -4.4306,-0.49225 -8.8613,-1.06708 -13.3,-1.19652 -4.3215,-0.0313 -8.6424,0.13783 -12.9636,0.21718 -4.3323,0.10306 -8.6646,0.21074 -12.9967,0.34153 -3.7986,0.11877 -7.597,0.25191 -11.3949,0.42888 -3.5301,0.16026 -7.06,0.32906 -10.5896,0.52334 -3.5827,0.19845 -7.1653,0.40708 -10.7473,0.64823 -3.5101,0.2388 -7.0199,0.49047 -10.5282,0.81056 -3.1171,0.29072 -6.2335,0.61135 -9.3472,1.01245 -2.8179,0.3673 -5.6349,0.75889 -8.4477,1.25062 -2.6312,0.46003 -5.2612,0.94804 -7.8847,1.54998 -2.2826,0.53508 -4.5629,1.11666 -6.8216,1.95202 -1.6887,0.60394 -3.3746,1.1524 -5.084,1.49577 -1.1129,0.33582 -2.2239,0.724 -3.2968,1.39669 0,0 19.5906,-28.66123 19.5906,-28.66123 z"
       inkscape:connector-curvature="0" />
    <path
       style="fill:#ff6600"
       id="path5539"
       d="m 2058.1657,-844.01078 c -8.2167,4.59461 15.1233,-12.19104 8.1727,-3.99333 -1.3411,1.83849 -2.1941,3.95862 -2.7565,6.1492 -0.445,1.88269 -0.2222,3.70806 0.4402,5.49783 0.7799,1.89834 2.31,3.20227 3.8935,4.42379 1.9689,1.33381 4.0344,2.53577 6.1094,3.6982 1.8843,1.11641 3.9753,1.42898 6.1242,1.51913 5.5095,-0.60199 15.7142,-7.83267 -6.1935,4.7242 1.747,-0.96084 2.9057,-2.43775 3.8239,-4.16368 0.8612,-1.71975 1.0544,-3.57464 1.0157,-5.46672 -0.2594,-1.9876 -1.1043,-3.84036 -2.0887,-5.56603 -1.2217,-2.01762 -2.9577,-3.59724 -4.789,-5.0459 -2.209,-1.68345 -4.6809,-2.95508 -7.1847,-4.13263 -0.4657,-0.20353 -0.9313,-0.40706 -1.397,-0.61059 0,0 11.8991,-7.90531 11.8991,-7.90531 l 0,0 c 0.473,0.21468 0.9461,0.42936 1.4191,0.64404 2.575,1.25853 5.1109,2.62167 7.364,4.41109 1.9379,1.59379 3.7619,3.33181 5.0639,5.50281 1.0979,1.92409 1.9971,3.97212 2.4127,6.15992 0.1384,2.06578 0.051,4.13417 -0.7149,6.08669 -0.7804,1.8967 -1.7882,3.71489 -3.5054,4.91981 -5.4249,3.14909 -11.7258,8.91795 -18.7481,8.74843 -2.2934,-0.25953 -4.4928,-0.80836 -6.4786,-2.03903 -2.1128,-1.22903 -4.2645,-2.41548 -6.2258,-3.88027 -1.7479,-1.42016 -3.3883,-2.96397 -4.283,-5.08154 -0.7905,-2.00785 -1.185,-4.0796 -0.8246,-6.23892 0.4531,-2.36765 1.2856,-4.61381 2.5048,-6.70083 3.6037,-5.41117 10.0198,-9.578 16.504,-10.05729 0,0 -11.5573,8.39693 -11.5573,8.39693 z"
       inkscape:connector-curvature="0" />
    <path
       style="fill:#ff6600"
       id="path5541"
       d="m 1955.4471,-850.30778 c -1.0036,-1.00419 -2.0856,-1.47734 -3.4942,-1.34678 -7.911,5.21757 15.0514,-12.80335 8.2925,-3.70561 -1.3873,2.08595 -2.1965,4.46702 -2.8121,6.87603 -0.561,2.29425 -0.4681,4.59326 0.079,6.87014 0.607,2.20278 2.0842,3.92129 3.6547,5.51113 1.6234,1.62229 3.4691,2.8358 5.7146,3.33178 4.794,0.33073 16.6564,-8.37103 -7.4034,5.40308 1.8004,-1.1871 3.0373,-2.95355 4.0528,-4.81767 1.0672,-2.05993 1.5741,-4.29461 1.7469,-6.59119 0.2017,-2.37921 -0.4103,-4.61653 -1.3659,-6.76669 -1.0519,-2.19235 -2.6935,-3.96228 -4.464,-5.59009 -0.3324,-0.27529 -0.6649,-0.55058 -0.9974,-0.82588 0,0 12.1167,-7.56755 12.1167,-7.56755 l 0,0 c 0.3454,0.29609 0.6908,0.59218 1.0362,0.88828 1.8791,1.78482 3.6118,3.72286 4.7518,6.07781 1.0572,2.32709 1.8202,4.77364 1.6842,7.36372 -0.071,2.45391 -0.4767,4.8639 -1.4948,7.11869 -0.9273,2.05279 -2.1077,3.9507 -3.7624,5.50628 -4.4974,2.62514 -11.1761,9.38216 -17.685,7.87662 -2.3602,-0.79929 -4.3805,-2.17448 -6.1217,-3.96076 -1.714,-1.79306 -3.3016,-3.73719 -4.0262,-6.15643 -0.659,-2.45789 -0.8903,-4.95894 -0.3896,-7.47893 0.5408,-2.54968 1.3283,-5.05122 2.599,-7.34028 3.352,-5.62119 9.9126,-9.90141 16.399,-10.35412 1.5781,0.28209 2.8896,1.01738 4.0309,2.15021 0,0 -12.1412,7.52821 -12.1412,7.52821 z"
       inkscape:connector-curvature="0" />
    <path
       d="m 160,259.50504 a 30,27.142857 0 1 1 -60,0 30,27.142857 0 1 1 60,0 z"
       sodipodi:ry="27.142857"
       sodipodi:rx="30"
       sodipodi:cy="259.50504"
       sodipodi:cx="130"
       id="path5559"
       style="opacity:0.46861925;fill:url(#linearGradient5577);fill-opacity:1;fill-rule:evenodd;stroke:url(#linearGradient5579);stroke-width:3;stroke-linecap:butt;stroke-linejoin:miter;stroke-miterlimit:4;stroke-opacity:1;stroke-dasharray:none"
       sodipodi:type="arc"
       transform="translate(1680,60)" />
    <path
       sodipodi:nodetypes="cccc"
       inkscape:connector-curvature="0"
       id="path5561"
       d="m 1805.8389,366.07833 c -32.6458,279.72809 76.2278,484.9095 216.0665,595.92359 -160.1542,-73.81235 -233.7462,-289.63533 -245.6208,-436.49156 2.3127,-54.15974 11.3814,-108.26007 29.5543,-159.43203 z"
       style="fill:#333333" />
    <path
       sodipodi:nodetypes="ccc"
       inkscape:connector-curvature="0"
       id="path5563"
       d="M 2114.7818,950.76773 C 1776.5632,797.0745 1742.6976,68.9258 2409.6479,107.2746 1808.9317,-25.3227 1682.7942,825.75555 2114.7818,950.76773 z"
       style="fill:#999999" />
    <path
       inkscape:connector-curvature="0"
       d="m 2080.455,517.22788 c 1.1508,-0.43903 2.3188,-0.6716 3.4837,-0.92584 1.6963,-0.27487 3.3431,-1.1054 5.0204,-1.65744 2.2912,-0.74828 4.6033,-1.22981 6.9127,-1.72013 2.6383,-0.55407 5.2817,-1.01209 7.9262,-1.44327 2.8239,-0.46098 5.6519,-0.82042 8.4802,-1.16658 3.1235,-0.37289 6.2491,-0.67171 9.3754,-0.93916 3.5144,-0.29943 7.03,-0.53634 10.5458,-0.76512 3.5851,-0.23159 7.1707,-0.43279 10.7565,-0.62393 3.5321,-0.18711 7.0646,-0.34957 10.5971,-0.50377 3.8016,-0.17132 7.6037,-0.28942 11.4059,-0.40038 4.3338,-0.12353 8.6678,-0.22791 13.0018,-0.328 4.3348,-0.041 8.67,-0.33405 13.0039,-0.11142 4.4578,0.27494 8.9086,0.87034 13.3611,1.35818 4.2962,0.68751 8.608,1.06667 12.8908,2.02226 3.5986,0.64452 7.1057,2.2493 10.4976,4.59069 2.845,2.00533 5.4957,4.77771 8.0343,7.91365 2.2262,2.66516 4.0767,6.15018 5.7249,10.01498 1.4698,3.76353 2.5952,7.94434 3.5252,12.27362 0.8923,4.24461 1.4024,8.7123 1.848,13.18928 0.5119,4.68317 0.5046,9.42216 0.2633,14.15684 -0.3219,4.97173 -0.9775,9.83419 -1.6576,14.66339 -0.7698,4.79734 -1.6148,9.54567 -2.3422,14.36835 -0.8059,5.36491 -1.4309,10.81768 -2.018,16.28197 -0.6411,6.05083 -1.1491,12.14822 -1.6276,18.25218 -0.5083,6.58889 -0.9219,13.20228 -1.3103,19.82017 -0.4085,6.9783 -0.7409,13.97141 -1.0561,20.96692 -0.3639,8.07939 -0.6194,16.17422 -0.8579,24.26995 -0.2688,9.51212 -0.4811,19.0296 -0.6873,28.54726 -0.2044,9.55482 -0.3837,19.11148 -0.5528,28.66879 -0.1657,9.40926 -0.3098,18.81983 -0.4462,28.23078 -0.1345,9.28211 -0.2499,18.56517 -0.3603,27.84842 -0.1108,9.33953 -0.2063,18.67967 -0.2917,28.02015 -0.09,9.96814 -0.1645,19.93671 -0.2352,29.90539 -0.07,9.94476 -0.1314,19.88972 -0.1895,29.83475 -0.056,9.69047 -0.106,19.38107 -0.153,29.07173 -0.046,9.51659 -0.086,19.03328 -0.1236,28.54999 -0.038,9.50995 -0.07,19.01999 -0.1,28.53007 -0.03,9.5117 -0.056,19.0235 -0.081,28.5353 -0.063,9.1645 0.01,18.328 0.089,27.4911 0.033,4.4521 0.079,8.9032 0.1399,13.3541 0,0 -21.9674,21.4994 -21.9674,21.4994 l 0,0 c -0.074,-4.4679 -0.1248,-8.9358 -0.1538,-13.4058 -0.082,-9.1931 -0.1788,-18.3868 -0.1132,-27.5816 0.024,-9.5134 0.05,-19.0267 0.079,-28.54 0.03,-9.5121 0.061,-19.0243 0.098,-28.5363 0.037,-9.51909 0.077,-19.03814 0.1217,-28.55709 0.046,-9.69327 0.095,-19.38651 0.1509,-29.0796 0.057,-9.94829 0.1176,-19.89653 0.1869,-29.84454 0.07,-9.97395 0.1431,-19.9478 0.231,-29.92122 0.083,-9.34799 0.1763,-18.69561 0.2857,-28.04262 0.109,-9.29007 0.2222,-18.57999 0.3549,-27.86897 0.1344,-9.41933 0.2759,-18.83831 0.4396,-28.25598 0.1661,-9.5679 0.3433,-19.1351 0.5443,-28.70059 0.2035,-9.53718 0.4134,-19.07407 0.6716,-28.60653 0.2308,-8.13657 0.4766,-16.27257 0.8253,-24.39443 0.3087,-7.03005 0.6303,-14.05857 1.0285,-21.0726 0.3788,-6.66643 0.7802,-13.32898 1.2718,-19.96912 0.4616,-6.17676 0.9596,-12.345 1.5704,-18.47541 0.5712,-5.5627 1.1653,-11.12094 1.9387,-16.59679 0.6871,-4.85084 1.4274,-9.67372 2.336,-14.39353 0.7305,-4.60437 1.3559,-9.2761 1.8252,-14.00354 0.3383,-4.28674 0.5224,-8.58603 0.08,-12.88291 -0.391,-4.18641 -0.8048,-8.3851 -1.6129,-12.36727 -0.7987,-3.90563 -1.8071,-7.66381 -3.1418,-11.01112 -1.5207,-3.44658 -3.2689,-6.42733 -5.3087,-8.73811 -2.4395,-2.82617 -4.9898,-5.28522 -7.7108,-6.98053 -3.3211,-1.94228 -6.7224,-3.202 -10.1888,-3.74254 -4.2691,-0.74418 -8.5474,-1.29723 -12.8245,-1.84538 -4.4306,-0.49225 -8.8613,-1.06708 -13.3,-1.19652 -4.3215,-0.0313 -8.6424,0.13783 -12.9636,0.21718 -4.3323,0.10306 -8.6646,0.21074 -12.9967,0.34153 -3.7986,0.11877 -7.597,0.25191 -11.3949,0.42888 -3.5301,0.16026 -7.06,0.32906 -10.5896,0.52334 -3.5827,0.19845 -7.1653,0.40708 -10.7473,0.64823 -3.5101,0.2388 -7.0199,0.49047 -10.5282,0.81056 -3.1171,0.29072 -6.2335,0.61135 -9.3472,1.01245 -2.8179,0.3673 -5.6349,0.75889 -8.4477,1.25062 -2.6312,0.46003 -5.2612,0.94804 -7.8847,1.54998 -2.2826,0.53508 -4.5629,1.11666 -6.8216,1.95202 -1.6887,0.60394 -3.3746,1.1524 -5.084,1.49577 -1.1129,0.33582 -2.2239,0.724 -3.2968,1.39669 0,0 19.5906,-28.66123 19.5906,-28.66123 z"
       id="path5565"
       style="fill:#999999" />
    <path
       inkscape:connector-curvature="0"
       d="m 2058.1657,335.98922 c -8.2167,4.59461 15.1233,-12.19104 8.1727,-3.99333 -1.3411,1.83849 -2.1941,3.95862 -2.7565,6.1492 -0.445,1.88269 -0.2222,3.70806 0.4402,5.49783 0.7799,1.89834 2.31,3.20227 3.8935,4.42379 1.9689,1.33381 4.0344,2.53577 6.1094,3.6982 1.8843,1.11641 3.9753,1.42898 6.1242,1.51913 5.5095,-0.60199 15.7142,-7.83267 -6.1935,4.7242 1.747,-0.96084 2.9057,-2.43775 3.8239,-4.16368 0.8612,-1.71975 1.0544,-3.57464 1.0157,-5.46672 -0.2594,-1.9876 -1.1043,-3.84036 -2.0887,-5.56603 -1.2217,-2.01762 -2.9577,-3.59724 -4.789,-5.0459 -2.209,-1.68345 -4.6809,-2.95508 -7.1847,-4.13263 -0.4657,-0.20353 -0.9313,-0.40706 -1.397,-0.61059 0,0 11.8991,-7.90531 11.8991,-7.90531 l 0,0 c 0.473,0.21468 0.9461,0.42936 1.4191,0.64404 2.575,1.25853 5.1109,2.62167 7.364,4.41109 1.9379,1.59379 3.7619,3.33181 5.0639,5.50281 1.0979,1.92409 1.9971,3.97212 2.4127,6.15992 0.1384,2.06578 0.051,4.13417 -0.7149,6.08669 -0.7804,1.8967 -1.7882,3.71489 -3.5054,4.91981 -5.4249,3.14909 -11.7258,8.91795 -18.7481,8.74843 -2.2934,-0.25953 -4.4928,-0.80836 -6.4786,-2.03903 -2.1128,-1.22903 -4.2645,-2.41548 -6.2258,-3.88027 -1.7479,-1.42016 -3.3883,-2.96397 -4.283,-5.08154 -0.7905,-2.00785 -1.185,-4.0796 -0.8246,-6.23892 0.4531,-2.36765 1.2856,-4.61381 2.5048,-6.70083 3.6037,-5.41117 10.0198,-9.578 16.504,-10.05729 0,0 -11.5573,8.39693 -11.5573,8.39693 z"
       id="path5567"
       style="fill:#ff6600" />
    <path
       inkscape:connector-curvature="0"
       d="m 1955.4471,329.69222 c -1.0036,-1.00419 -2.0856,-1.47734 -3.4942,-1.34678 -7.911,5.21757 15.0514,-12.80335 8.2925,-3.70561 -1.3873,2.08595 -2.1965,4.46702 -2.8121,6.87603 -0.561,2.29425 -0.4681,4.59326 0.079,6.87014 0.607,2.20278 2.0842,3.92129 3.6547,5.51113 1.6234,1.62229 3.4691,2.8358 5.7146,3.33178 4.794,0.33073 16.6564,-8.37103 -7.4034,5.40308 1.8004,-1.1871 3.0373,-2.95355 4.0528,-4.81767 1.0672,-2.05993 1.5741,-4.29461 1.7469,-6.59119 0.2017,-2.37921 -0.4103,-4.61653 -1.3659,-6.76669 -1.0519,-2.19235 -2.6935,-3.96228 -4.464,-5.59009 -0.3324,-0.27529 -0.6649,-0.55058 -0.9974,-0.82588 0,0 12.1167,-7.56755 12.1167,-7.56755 l 0,0 c 0.3454,0.29609 0.6908,0.59218 1.0362,0.88828 1.8791,1.78482 3.6118,3.72286 4.7518,6.07781 1.0572,2.32709 1.8202,4.77364 1.6842,7.36372 -0.071,2.45391 -0.4767,4.8639 -1.4948,7.11869 -0.9273,2.05279 -2.1077,3.9507 -3.7624,5.50628 -4.4974,2.62514 -11.1761,9.38216 -17.685,7.87662 -2.3602,-0.79929 -4.3805,-2.17448 -6.1217,-3.96076 -1.714,-1.79306 -3.3016,-3.73719 -4.0262,-6.15643 -0.659,-2.45789 -0.8903,-4.95894 -0.3896,-7.47893 0.5408,-2.54968 1.3283,-5.05122 2.599,-7.34028 3.352,-5.62119 9.9126,-9.90141 16.399,-10.35412 1.5781,0.28209 2.8896,1.01738 4.0309,2.15021 0,0 -12.1412,7.52821 -12.1412,7.52821 z"
       id="path5569"
       style="fill:#ff6600" />
    <path
       d="m 160,259.50504 a 30,27.142857 0 1 1 -60,0 30,27.142857 0 1 1 60,0 z"
       sodipodi:ry="27.142857"
       sodipodi:rx="30"
       sodipodi:cy="259.50504"
       sodipodi:cx="130"
       id="path5634"
       style="opacity:0.46861925;fill:url(#linearGradient5652);fill-opacity:1;fill-rule:evenodd;stroke:url(#linearGradient5654);stroke-width:3;stroke-linecap:butt;stroke-linejoin:miter;stroke-miterlimit:4;stroke-opacity:1;stroke-dasharray:none"
       sodipodi:type="arc"
       transform="translate(40,-2320)" />
    <path
       sodipodi:nodetypes="cccc"
       inkscape:connector-curvature="0"
       id="path5636"
       d="m 165.8389,-2013.9217 c -32.6458,279.7281 76.2278,484.9095 216.0665,595.9236 -160.1542,-73.8123 -233.7462,-289.6353 -245.6208,-436.4915 2.3127,-54.1598 11.3814,-108.2601 29.5543,-159.4321 z"
       style="fill:#333333" />
    <path
       sodipodi:nodetypes="ccc"
       inkscape:connector-curvature="0"
       id="path5638"
       d="m 474.7818,-1429.2323 c -338.2186,-153.6932 -372.0842,-881.8419 294.8661,-843.4931 -600.7162,-132.5973 -726.8537,718.481 -294.8661,843.4931 z"
       style="fill:#999999" />
    <path
       inkscape:connector-curvature="0"
       d="m 440.455,-1862.7721 c 1.1508,-0.439 2.3188,-0.6716 3.4837,-0.9259 1.6963,-0.2748 3.3431,-1.1054 5.0204,-1.6574 2.2912,-0.7483 4.6033,-1.2298 6.9127,-1.7201 2.6383,-0.5541 5.2817,-1.0121 7.9262,-1.4433 2.8239,-0.461 5.6519,-0.8204 8.4802,-1.1666 3.1235,-0.3729 6.2491,-0.6717 9.3754,-0.9391 3.5144,-0.2995 7.03,-0.5364 10.5458,-0.7652 3.5851,-0.2315 7.1707,-0.4327 10.7565,-0.6239 3.5321,-0.1871 7.0646,-0.3496 10.5971,-0.5038 3.8016,-0.1713 7.6037,-0.2894 11.4059,-0.4003 4.3338,-0.1236 8.6678,-0.2279 13.0018,-0.328 4.3348,-0.041 8.67,-0.3341 13.0039,-0.1115 4.4578,0.275 8.9086,0.8704 13.3611,1.3582 4.2962,0.6875 8.608,1.0667 12.8908,2.0223 3.5986,0.6445 7.1057,2.2493 10.4976,4.5907 2.845,2.0053 5.4957,4.7777 8.0343,7.9136 2.2262,2.6652 4.0767,6.1502 5.7249,10.015 1.4698,3.7635 2.5952,7.9443 3.5252,12.2736 0.8923,4.2446 1.4024,8.7123 1.848,13.1893 0.5119,4.6832 0.5046,9.4222 0.2633,14.1568 -0.3219,4.9718 -0.9775,9.8342 -1.6576,14.6634 -0.7698,4.7974 -1.6148,9.5457 -2.3422,14.3684 -0.8059,5.3649 -1.4309,10.8177 -2.018,16.282 -0.6411,6.0508 -1.1491,12.1482 -1.6276,18.2521 -0.5083,6.5889 -0.9219,13.2023 -1.3103,19.8202 -0.4085,6.9783 -0.7409,13.9714 -1.0561,20.9669 -0.3639,8.0794 -0.6194,16.1742 -0.8579,24.27 -0.2688,9.5121 -0.4811,19.0296 -0.6873,28.5472 -0.2044,9.5548 -0.3837,19.1115 -0.5528,28.6688 -0.1657,9.4093 -0.3098,18.8199 -0.4462,28.2308 -0.1345,9.2821 -0.2499,18.5652 -0.3603,27.8484 -0.1108,9.3395 -0.2063,18.6797 -0.2917,28.0202 -0.09,9.9681 -0.1645,19.9367 -0.2352,29.9054 -0.07,9.9447 -0.1314,19.8897 -0.1895,29.8347 -0.056,9.6905 -0.106,19.3811 -0.153,29.0717 -0.046,9.5166 -0.086,19.0333 -0.1236,28.55 -0.038,9.51 -0.07,19.02 -0.1,28.5301 -0.03,9.5117 -0.056,19.0235 -0.081,28.5353 -0.063,9.1645 0.01,18.328 0.089,27.4911 0.033,4.4521 0.079,8.9032 0.1399,13.3541 0,0 -21.9674,21.4994 -21.9674,21.4994 l 0,0 c -0.074,-4.4679 -0.1248,-8.9358 -0.1538,-13.4058 -0.082,-9.1931 -0.1788,-18.3868 -0.1132,-27.5816 0.024,-9.5134 0.05,-19.0267 0.079,-28.54 0.03,-9.5121 0.061,-19.0243 0.098,-28.5363 0.037,-9.5191 0.077,-19.0381 0.1217,-28.5571 0.046,-9.6933 0.095,-19.3865 0.1509,-29.0796 0.057,-9.9483 0.1176,-19.8965 0.1869,-29.8445 0.07,-9.974 0.1431,-19.9478 0.231,-29.9212 0.083,-9.348 0.1763,-18.6957 0.2857,-28.0427 0.109,-9.29 0.2222,-18.58 0.3549,-27.8689 0.1344,-9.4194 0.2759,-18.8383 0.4396,-28.256 0.1661,-9.5679 0.3433,-19.1351 0.5443,-28.7006 0.2035,-9.5372 0.4134,-19.0741 0.6716,-28.6065 0.2308,-8.1366 0.4766,-16.2726 0.8253,-24.3945 0.3087,-7.03 0.6303,-14.0585 1.0285,-21.0726 0.3788,-6.6664 0.7802,-13.3289 1.2718,-19.9691 0.4616,-6.1767 0.9596,-12.345 1.5704,-18.4754 0.5712,-5.5627 1.1653,-11.1209 1.9387,-16.5968 0.6871,-4.8508 1.4274,-9.6737 2.336,-14.3935 0.7305,-4.6044 1.3559,-9.2761 1.8252,-14.0036 0.3383,-4.2867 0.5224,-8.586 0.08,-12.8829 -0.391,-4.1864 -0.8048,-8.3851 -1.6129,-12.3672 -0.7987,-3.9057 -1.8071,-7.6638 -3.1418,-11.0112 -1.5207,-3.4465 -3.2689,-6.4273 -5.3087,-8.7381 -2.4395,-2.8261 -4.9898,-5.2852 -7.7108,-6.9805 -3.3211,-1.9423 -6.7224,-3.202 -10.1888,-3.7425 -4.2691,-0.7442 -8.5474,-1.2973 -12.8245,-1.8454 -4.4306,-0.4923 -8.8613,-1.0671 -13.3,-1.1965 -4.3215,-0.031 -8.6424,0.1378 -12.9636,0.2171 -4.3323,0.1031 -8.6646,0.2108 -12.9967,0.3416 -3.7986,0.1187 -7.597,0.2519 -11.3949,0.4288 -3.5301,0.1603 -7.06,0.3291 -10.5896,0.5234 -3.5827,0.1984 -7.1653,0.4071 -10.7473,0.6482 -3.5101,0.2388 -7.0199,0.4905 -10.5282,0.8106 -3.1171,0.2907 -6.2335,0.6113 -9.3472,1.0124 -2.8179,0.3673 -5.6349,0.7589 -8.4477,1.2506 -2.6312,0.4601 -5.2612,0.9481 -7.8847,1.55 -2.2826,0.5351 -4.5629,1.1167 -6.8216,1.952 -1.6887,0.604 -3.3746,1.1524 -5.084,1.4958 -1.1129,0.3358 -2.2239,0.724 -3.2968,1.3967 0,0 19.5906,-28.6612 19.5906,-28.6612 z"
       id="path5640"
       style="fill:#999999" />
    <path
       inkscape:connector-curvature="0"
       d="m 418.1657,-2044.0108 c -8.2167,4.5946 15.1233,-12.191 8.1727,-3.9933 -1.3411,1.8385 -2.1941,3.9586 -2.7565,6.1492 -0.445,1.8827 -0.2222,3.708 0.4402,5.4978 0.7799,1.8984 2.31,3.2023 3.8935,4.4238 1.9689,1.3338 4.0344,2.5358 6.1094,3.6982 1.8843,1.1164 3.9753,1.429 6.1242,1.5191 5.5095,-0.6019 15.7142,-7.8326 -6.1935,4.7242 1.747,-0.9608 2.9057,-2.4377 3.8239,-4.1636 0.8612,-1.7198 1.0544,-3.5747 1.0157,-5.4668 -0.2594,-1.9876 -1.1043,-3.8403 -2.0887,-5.566 -1.2217,-2.0176 -2.9577,-3.5972 -4.789,-5.0459 -2.209,-1.6834 -4.6809,-2.9551 -7.1847,-4.1326 -0.4657,-0.2035 -0.9313,-0.4071 -1.397,-0.6106 0,0 11.8991,-7.9053 11.8991,-7.9053 l 0,0 c 0.473,0.2147 0.9461,0.4293 1.4191,0.644 2.575,1.2586 5.1109,2.6217 7.364,4.4111 1.9379,1.5938 3.7619,3.3318 5.0639,5.5028 1.0979,1.9241 1.9971,3.9721 2.4127,6.1599 0.1384,2.0658 0.051,4.1342 -0.7149,6.0867 -0.7804,1.8967 -1.7882,3.7149 -3.5054,4.9198 -5.4249,3.1491 -11.7258,8.918 -18.7481,8.7485 -2.2934,-0.2596 -4.4928,-0.8084 -6.4786,-2.0391 -2.1128,-1.229 -4.2645,-2.4154 -6.2258,-3.8802 -1.7479,-1.4202 -3.3883,-2.964 -4.283,-5.0816 -0.7905,-2.0078 -1.185,-4.0796 -0.8246,-6.2389 0.4531,-2.3676 1.2856,-4.6138 2.5048,-6.7008 3.6037,-5.4112 10.0198,-9.578 16.504,-10.0573 0,0 -11.5573,8.3969 -11.5573,8.3969 z"
       id="path5642"
       style="fill:#ff6600" />
    <path
       inkscape:connector-curvature="0"
       d="m 315.4471,-2050.3078 c -1.0036,-1.0042 -2.0856,-1.4773 -3.4942,-1.3468 -7.911,5.2176 15.0514,-12.8033 8.2925,-3.7056 -1.3873,2.086 -2.1965,4.4671 -2.8121,6.8761 -0.561,2.2942 -0.4681,4.5932 0.079,6.8701 0.607,2.2028 2.0842,3.9213 3.6547,5.5111 1.6234,1.6223 3.4691,2.8358 5.7146,3.3318 4.794,0.3307 16.6564,-8.371 -7.4034,5.4031 1.8004,-1.1871 3.0373,-2.9536 4.0528,-4.8177 1.0672,-2.0599 1.5741,-4.2946 1.7469,-6.5912 0.2017,-2.3792 -0.4103,-4.6165 -1.3659,-6.7667 -1.0519,-2.1923 -2.6935,-3.9622 -4.464,-5.59 -0.3324,-0.2753 -0.6649,-0.5506 -0.9974,-0.8259 0,0 12.1167,-7.5676 12.1167,-7.5676 l 0,0 c 0.3454,0.2961 0.6908,0.5922 1.0362,0.8883 1.8791,1.7848 3.6118,3.7229 4.7518,6.0778 1.0572,2.3271 1.8202,4.7737 1.6842,7.3637 -0.071,2.4539 -0.4767,4.8639 -1.4948,7.1187 -0.9273,2.0528 -2.1077,3.9507 -3.7624,5.5063 -4.4974,2.6251 -11.1761,9.3822 -17.685,7.8766 -2.3602,-0.7993 -4.3805,-2.1745 -6.1217,-3.9607 -1.714,-1.7931 -3.3016,-3.7372 -4.0262,-6.1565 -0.659,-2.4579 -0.8903,-4.9589 -0.3896,-7.4789 0.5408,-2.5497 1.3283,-5.0512 2.599,-7.3403 3.352,-5.6212 9.9126,-9.9014 16.399,-10.3541 1.5781,0.2821 2.8896,1.0174 4.0309,2.1502 0,0 -12.1412,7.5282 -12.1412,7.5282 z"
       id="path5644"
       style="fill:#ff6600" />
  </g>
</svg>
