<?xml version="1.0" encoding="UTF-8" standalone="no"?>
<!-- Created with Inkscape (http://www.inkscape.org/) -->

<svg
   xmlns:dc="http://purl.org/dc/elements/1.1/"
   xmlns:cc="http://creativecommons.org/ns#"
   xmlns:rdf="http://www.w3.org/1999/02/22-rdf-syntax-ns#"
   xmlns:svg="http://www.w3.org/2000/svg"
   xmlns="http://www.w3.org/2000/svg"
   xmlns:xlink="http://www.w3.org/1999/xlink"
   xmlns:sodipodi="http://sodipodi.sourceforge.net/DTD/sodipodi-0.dtd"
   xmlns:inkscape="http://www.inkscape.org/namespaces/inkscape"
   width="744.09448819"
   height="1052.3622047"
   id="svg2"
   version="1.1"
   inkscape:version="0.48.1 r9760"
   sodipodi:docname="go_far_closer2wide.svg">
  <defs
     id="defs4">
    <linearGradient
       id="linearGradient3795">
      <stop
         style="stop-color:#24221c;stop-opacity:0;"
         offset="0"
         id="stop3797" />
      <stop
         style="stop-color:#24221c;stop-opacity:1;"
         offset="1"
         id="stop3799" />
    </linearGradient>
    <linearGradient
       id="linearGradient3787">
      <stop
         style="stop-color:#24221c;stop-opacity:0.024;"
         offset="0"
         id="stop3789" />
      <stop
         style="stop-color:#24221c;stop-opacity:1;"
         offset="1"
         id="stop3791" />
    </linearGradient>
    <linearGradient
       inkscape:collect="always"
       xlink:href="#linearGradient3787"
       id="linearGradient3793"
       x1="545.91787"
       y1="815.50549"
       x2="826.57001"
       y2="837.50549"
       gradientUnits="userSpaceOnUse" />
    <linearGradient
       inkscape:collect="always"
       xlink:href="#linearGradient3795"
       id="linearGradient3801"
       x1="-42.082126"
       y1="790.50549"
       x2="208.57"
       y2="790.50549"
       gradientUnits="userSpaceOnUse" />
  </defs>
  <sodipodi:namedview
     id="base"
     pagecolor="#ffffff"
     bordercolor="#666666"
     borderopacity="1.0"
     inkscape:pageopacity="0.0"
     inkscape:pageshadow="2"
     inkscape:zoom="0.5"
     inkscape:cx="377"
     inkscape:cy="485.27433"
     inkscape:document-units="px"
     inkscape:current-layer="layer1"
     showgrid="false"
     inkscape:window-width="1280"
     inkscape:window-height="749"
     inkscape:window-x="0"
     inkscape:window-y="24"
     inkscape:window-maximized="1"
     showborder="false" />
  <metadata
     id="metadata7">
    <rdf:RDF>
      <cc:Work
         rdf:about="">
        <dc:format>image/svg+xml</dc:format>
        <dc:type
           rdf:resource="http://purl.org/dc/dcmitype/StillImage" />
        <dc:title></dc:title>
      </cc:Work>
    </rdf:RDF>
  </metadata>
  <g
     inkscape:label="Layer 1"
     inkscape:groupmode="layer"
     id="layer1">
    <rect
       style="fill:#24221c;fill-opacity:1;stroke:none;opacity:0.56903766"
       id="rect2985"
       width="9"
       height="206"
       x="528.04889"
       y="249.64851"
       transform="matrix(0.86831338,0.49601601,-0.49601601,0.86831338,0,0)" />
    <rect
       transform="matrix(-0.86831338,0.49601601,0.49601601,0.86831338,0,0)"
       y="635.05157"
       x="-146.63065"
       height="206"
       width="9"
       id="rect2998"
       style="fill:#24221c;fill-opacity:1;stroke:none;opacity:0.56903766" />
    <path
       sodipodi:type="arc"
       style="fill:#24221c;fill-opacity:1;stroke:none;opacity:0.56903766"
       id="path3000"
       sodipodi:cx="388.5"
       sodipodi:cy="413.36218"
       sodipodi:rx="41.5"
       sodipodi:ry="39"
       d="m 430,413.36218 a 41.5,39 0 1 1 -83,0 41.5,39 0 1 1 83,0 z"
       transform="matrix(1,0,0,-1,2,826.72437)" />
    <path
       style="fill:url(#linearGradient3801);fill-opacity:1;stroke:none"
       id="path3006"
       d="m 197.623,609.4326 c -2.48479,4.73513 -5.37437,10.32656 -7.87931,15.00012 -5.00571,9.0385 -10.49799,19.55405 -15.92095,29.86259 -6.75526,12.88364 -13.24883,24.9689 -19.71063,36.95739 -6.53141,12.11265 -12.65687,23.01222 -18.6885,33.63714 -5.9447,10.44228 -11.79114,20.59448 -17.42559,30.13104 -5.26029,8.83075 -10.55272,17.75556 -16.14254,27.54523 -5.425397,9.65726 -10.969667,19.66391 -16.698406,30.22695 -6.834828,12.66692 -13.616582,25.1843 -19.900104,36.20526 -7.506159,12.98073 -14.112825,23.36366 -20.939795,34.39137 -7.12446,11.60451 -14.240685,23.18727 -21.295089,34.59154 -6.236274,9.98642 -12.714741,20.66754 -19.2226045,31.43162 -5.8651607,9.79041 -11.3455814,18.48366 -16.3934365,25.95733 -5.755926,8.24438 -10.323756,13.2283 -14.859613,18.15262 -4.513534,4.81226 -8.650279,8.6172 -12.700897,12.1952 -0.634681,0.5444 -1.269394,1.089 -1.904076,1.6334 -0.701036,1.0767 14.453721,-41.59342 15.154762,-42.67007 l 0,0 c 0.614433,-0.5066 1.228855,-1.01319 1.843293,-1.51978 3.895684,-3.31613 7.878702,-6.862 12.240645,-11.41934 4.1950057,-4.45436 8.4250707,-8.98151 13.69374829,-16.35025 4.68632661,-6.79449 9.81457871,-14.82941 15.31700671,-23.92917 6.496369,-10.65862 13.048256,-21.47699 19.283753,-31.38997 7.063154,-11.43681 14.047349,-22.64953 21.251967,-34.49054 6.660198,-10.84592 12.987565,-20.72767 20.173907,-33.08754 5.89635,-10.21934 12.425175,-22.3389 18.963498,-34.4728 6.094591,-11.34094 11.926371,-21.89333 17.661521,-32.15696 5.79584,-10.19678 11.27904,-19.48736 16.68675,-28.55349 5.37864,-9.00373 11.04972,-18.85903 16.76605,-28.84609 5.81638,-10.2708 11.57098,-20.35728 17.81076,-31.8851 6.25088,-11.56276 12.56443,-23.31577 19.12093,-35.8102 5.68049,-10.87121 11.44488,-21.99359 16.79562,-31.85402 2.33376,-4.24216 4.90274,-9.21086 7.78389,-15.1731 1.11697,-2.266 -9.74961,33.42368 -10.86656,35.68962 z"
       inkscape:connector-curvature="0" />
    <path
       inkscape:connector-curvature="0"
       d="m 559.92206,613.55878 c 3.17872,5.28097 6.87527,11.51698 10.07977,16.72931 6.40367,10.08043 13.42979,21.80822 20.36723,33.3051 8.6418,14.36885 16.94884,27.84729 25.21523,41.2178 8.35546,13.50897 16.19158,25.66502 23.90768,37.51476 7.60488,11.64606 15.08407,22.9686 22.29206,33.60451 6.72933,9.84876 13.49979,19.8024 20.65069,30.72061 6.94055,10.77052 14.03318,21.93074 21.3618,33.71147 8.7436,14.12714 17.4193,28.08751 25.45763,40.37895 9.60242,14.47712 18.05414,26.05699 26.78769,38.35596 9.11413,12.94226 18.21772,25.86026 27.24222,38.57919 7.97789,11.13765 16.26557,23.05007 24.5909,35.05501 7.50313,10.91905 14.51411,20.61445 20.97168,28.94965 7.36339,9.1948 13.2069,14.7533 19.00946,20.2453 5.77407,5.367 11.06604,9.6105 16.24792,13.601 0.81192,0.6072 1.6239,1.2145 2.43582,1.8217 0.89681,1.2008 -18.49025,-46.3883 -19.38705,-47.589 l 0,0 c -0.78603,-0.565 -1.57206,-1.13 -2.35809,-1.695 -4.98363,-3.6984 -10.07899,-7.653 -15.65909,-12.73574 -5.36654,-4.96785 -10.77798,-10.01689 -17.51805,-18.23511 -5.99505,-7.57774 -12.55549,-16.53891 -19.59461,-26.68769 -8.3106,-11.88731 -16.69222,-23.95281 -24.66915,-35.00855 -9.03568,-12.75522 -17.97037,-25.26054 -27.18703,-38.46655 -8.5202,-12.09623 -16.61463,-23.11712 -25.80791,-36.90182 -7.54303,-11.39742 -15.89517,-24.91411 -24.25946,-38.4468 -7.79664,-12.6483 -15.25707,-24.41714 -22.59389,-35.86395 -7.41444,-11.37226 -14.42895,-21.73384 -21.34688,-31.8451 -6.88074,-10.04168 -14.1356,-21.03307 -21.44833,-32.17143 -7.44072,-11.45479 -14.80242,-22.70404 -22.7848,-35.56077 -7.99657,-12.8957 -16.07332,-26.00358 -24.46086,-39.93834 -7.26689,-12.12444 -14.64112,-24.52898 -21.48615,-35.52611 -2.98552,-4.73119 -6.27195,-10.27268 -9.95772,-16.92224 -1.4289,-2.52721 12.4724,37.27673 13.90129,39.80388 z"
       id="path3029"
       style="fill:url(#linearGradient3793);fill-opacity:1;stroke:none" />
  </g>
</svg>
