<?xml version="1.0" encoding="UTF-8" standalone="no"?>
<!-- Created with Inkscape (http://www.inkscape.org/) -->

<svg
   xmlns:dc="http://purl.org/dc/elements/1.1/"
   xmlns:cc="http://creativecommons.org/ns#"
   xmlns:rdf="http://www.w3.org/1999/02/22-rdf-syntax-ns#"
   xmlns:svg="http://www.w3.org/2000/svg"
   xmlns="http://www.w3.org/2000/svg"
   xmlns:sodipodi="http://sodipodi.sourceforge.net/DTD/sodipodi-0.dtd"
   xmlns:inkscape="http://www.inkscape.org/namespaces/inkscape"
   width="744.09448819"
   height="1052.3622047"
   id="svg2"
   version="1.1"
   inkscape:version="0.48.1 r9760"
   sodipodi:docname="go_far_closer.svg">
  <defs
     id="defs4" />
  <sodipodi:namedview
     id="base"
     pagecolor="#ffffff"
     bordercolor="#666666"
     borderopacity="1.0"
     inkscape:pageopacity="0.0"
     inkscape:pageshadow="2"
     inkscape:zoom="0.5"
     inkscape:cx="735"
     inkscape:cy="485.27433"
     inkscape:document-units="px"
     inkscape:current-layer="layer1"
     showgrid="false"
     inkscape:window-width="1280"
     inkscape:window-height="749"
     inkscape:window-x="0"
     inkscape:window-y="24"
     inkscape:window-maximized="1"
     showborder="false" />
  <metadata
     id="metadata7">
    <rdf:RDF>
      <cc:Work
         rdf:about="">
        <dc:format>image/svg+xml</dc:format>
        <dc:type
           rdf:resource="http://purl.org/dc/dcmitype/StillImage" />
        <dc:title></dc:title>
      </cc:Work>
    </rdf:RDF>
  </metadata>
  <g
     inkscape:label="Layer 1"
     inkscape:groupmode="layer"
     id="layer1">
    <rect
       style="fill:#24221c;fill-opacity:1;stroke:none"
       id="rect2985"
       width="9"
       height="206"
       x="528.04889"
       y="249.64851"
       transform="matrix(0.86831338,0.49601601,-0.49601601,0.86831338,0,0)" />
    <rect
       transform="matrix(-0.86831338,0.49601601,0.49601601,0.86831338,0,0)"
       y="635.05157"
       x="-146.63065"
       height="206"
       width="9"
       id="rect2998"
       style="fill:#24221c;fill-opacity:1;stroke:none" />
    <path
       sodipodi:type="arc"
       style="fill:#24221c;fill-opacity:1;stroke:none"
       id="path3000"
       sodipodi:cx="388.5"
       sodipodi:cy="413.36218"
       sodipodi:rx="41.5"
       sodipodi:ry="39"
       d="m 430,413.36218 a 41.5,39 0 1 1 -83,0 41.5,39 0 1 1 83,0 z"
       transform="matrix(1,0,0,-1,2,826.72437)" />
    <path
       style="fill:#24221c;fill-opacity:1;stroke:none"
       id="path3006"
       d="m 196.22543,608.60737 c -2.80202,4.62595 -6.0605,10.08847 -8.88524,14.65428 -5.64477,8.8301 -11.83824,19.10322 -17.95353,29.17408 -7.61768,12.5866 -14.94026,24.39323 -22.22702,36.10532 -7.36526,11.83338 -14.27274,22.48165 -21.07441,32.8616 -6.70364,10.20153 -13.29648,20.11967 -19.65026,29.43635 -5.93185,8.62716 -11.89995,17.34619 -18.20341,26.91016 -6.11804,9.4346 -12.37013,19.21054 -18.83024,29.53004 -7.70741,12.37488 -15.35497,24.60367 -22.44069,35.37052 -8.464448,12.68145 -15.914567,22.825 -23.613113,33.59846 -8.034021,11.33696 -16.058752,22.65267 -24.013769,33.794 -7.032445,9.75618 -14.337998,20.19104 -21.676701,30.70694 -6.613946,9.5647 -12.794033,18.05751 -18.486336,25.35888 -6.490765,8.0543 -11.641756,12.9233 -16.756694,17.7341 -5.089762,4.7013 -9.754635,8.4185 -14.322379,11.914 -0.71571,0.5319 -1.431454,1.0639 -2.147164,1.5958 -0.790535,1.0518 16.298982,-40.63449 17.089525,-41.68632 l 0,0 c 0.692872,-0.49492 1.385738,-0.98983 2.078618,-1.48474 4.393033,-3.23967 8.884554,-6.70379 13.803373,-11.15605 4.730568,-4.35166 9.50067,-8.77444 15.441986,-15.9733 5.284616,-6.63783 11.067576,-14.4875 17.272483,-23.37746 7.32574,-10.41287 14.714086,-20.98182 21.745654,-30.66625 7.964882,-11.17312 15.840729,-22.12733 23.965138,-33.69533 7.510486,-10.59586 14.645649,-20.24978 22.749449,-32.32468 6.64912,-9.98373 14.01146,-21.82387 21.38451,-33.67802 6.87267,-11.07946 13.44898,-21.38855 19.91632,-31.41555 6.53577,-9.96169 12.719,-19.03806 18.81709,-27.89517 6.06532,-8.79615 12.46041,-18.42422 18.90652,-28.18103 6.55894,-10.03399 13.04821,-19.88793 20.08461,-31.14996 7.04891,-11.29617 14.16849,-22.77821 21.56204,-34.98457 6.4057,-10.62057 12.90602,-21.48651 18.93986,-31.1196 2.63171,-4.14436 5.52867,-8.9985 8.77764,-14.82328 1.25957,-2.21375 -10.99431,32.65308 -12.25386,34.86678 z"
       inkscape:connector-curvature="0" />
    <path
       inkscape:connector-curvature="0"
       d="m 558.26244,608.60737 c 2.80202,4.62595 6.0605,10.08847 8.88524,14.65428 5.64477,8.8301 11.83824,19.10322 17.95353,29.17408 7.61768,12.5866 14.94026,24.39323 22.22702,36.10532 7.36526,11.83338 14.27274,22.48165 21.07441,32.8616 6.70364,10.20153 13.29648,20.11967 19.65026,29.43635 5.93185,8.62716 11.89995,17.34619 18.20341,26.91016 6.11804,9.4346 12.37013,19.21054 18.83024,29.53004 7.70741,12.37488 15.35497,24.60367 22.44069,35.37052 8.46445,12.68145 15.91457,22.825 23.61312,33.59846 8.03402,11.33696 16.05875,22.65267 24.01377,33.794 7.03244,9.75618 14.33799,20.19104 21.6767,30.70694 6.61394,9.5647 12.79403,18.05751 18.48633,25.35888 6.49077,8.0543 11.64176,12.9233 16.7567,17.7341 5.08976,4.7013 9.75463,8.4185 14.32238,11.914 0.71571,0.5319 1.43145,1.0639 2.14716,1.5958 0.79053,1.0518 -16.29898,-40.63449 -17.08953,-41.68632 l 0,0 c -0.69287,-0.49492 -1.38573,-0.98983 -2.07861,-1.48474 -4.39304,-3.23967 -8.88456,-6.70379 -13.80338,-11.15605 -4.73056,-4.35166 -9.50067,-8.77444 -15.44198,-15.9733 -5.28462,-6.63783 -11.06758,-14.4875 -17.27249,-23.37746 -7.32574,-10.41287 -14.71408,-20.98182 -21.74565,-30.66625 -7.96488,-11.17312 -15.84073,-22.12733 -23.96514,-33.69533 -7.51048,-10.59586 -14.64565,-20.24978 -22.74945,-32.32468 -6.64912,-9.98373 -14.01146,-21.82387 -21.38451,-33.67802 -6.87267,-11.07946 -13.44898,-21.38855 -19.91632,-31.41555 -6.53577,-9.96169 -12.719,-19.03806 -18.81709,-27.89517 -6.06532,-8.79615 -12.46041,-18.42422 -18.90652,-28.18103 -6.55894,-10.03399 -13.04821,-19.88793 -20.08461,-31.14996 -7.04891,-11.29617 -14.16849,-22.77821 -21.56204,-34.98457 -6.4057,-10.62057 -12.90602,-21.48651 -18.93986,-31.1196 -2.63171,-4.14436 -5.52867,-8.9985 -8.77764,-14.82328 -1.25957,-2.21375 10.99431,32.65308 12.25386,34.86678 z"
       id="path3029"
       style="fill:#24221c;fill-opacity:1;stroke:none" />
  </g>
</svg>
