<?xml version="1.0" encoding="UTF-8" standalone="no"?>
<!-- Created with Inkscape (http://www.inkscape.org/) -->

<svg
   xmlns:dc="http://purl.org/dc/elements/1.1/"
   xmlns:cc="http://creativecommons.org/ns#"
   xmlns:rdf="http://www.w3.org/1999/02/22-rdf-syntax-ns#"
   xmlns:svg="http://www.w3.org/2000/svg"
   xmlns="http://www.w3.org/2000/svg"
   xmlns:sodipodi="http://sodipodi.sourceforge.net/DTD/sodipodi-0.dtd"
   xmlns:inkscape="http://www.inkscape.org/namespaces/inkscape"
   width="744.09448819"
   height="1052.3622047"
   id="svg2"
   version="1.1"
   inkscape:version="0.48.1 r9760"
   sodipodi:docname="go_far_closer2.svg">
  <defs
     id="defs4" />
  <sodipodi:namedview
     id="base"
     pagecolor="#ffffff"
     bordercolor="#666666"
     borderopacity="1.0"
     inkscape:pageopacity="0.0"
     inkscape:pageshadow="2"
     inkscape:zoom="0.5"
     inkscape:cx="735"
     inkscape:cy="485.27433"
     inkscape:document-units="px"
     inkscape:current-layer="layer1"
     showgrid="false"
     inkscape:window-width="1280"
     inkscape:window-height="749"
     inkscape:window-x="0"
     inkscape:window-y="24"
     inkscape:window-maximized="1"
     showborder="false" />
  <metadata
     id="metadata7">
    <rdf:RDF>
      <cc:Work
         rdf:about="">
        <dc:format>image/svg+xml</dc:format>
        <dc:type
           rdf:resource="http://purl.org/dc/dcmitype/StillImage" />
        <dc:title></dc:title>
      </cc:Work>
    </rdf:RDF>
  </metadata>
  <g
     inkscape:label="Layer 1"
     inkscape:groupmode="layer"
     id="layer1">
    <rect
       style="fill:#24221c;fill-opacity:1;stroke:none"
       id="rect2985"
       width="9"
       height="206"
       x="528.04889"
       y="249.64851"
       transform="matrix(0.86831338,0.49601601,-0.49601601,0.86831338,0,0)" />
    <rect
       transform="matrix(-0.86831338,0.49601601,0.49601601,0.86831338,0,0)"
       y="635.05157"
       x="-146.63065"
       height="206"
       width="9"
       id="rect2998"
       style="fill:#24221c;fill-opacity:1;stroke:none" />
    <path
       sodipodi:type="arc"
       style="fill:#24221c;fill-opacity:1;stroke:none"
       id="path3000"
       sodipodi:cx="388.5"
       sodipodi:cy="413.36218"
       sodipodi:rx="41.5"
       sodipodi:ry="39"
       d="m 430,413.36218 a 41.5,39 0 1 1 -83,0 41.5,39 0 1 1 83,0 z"
       transform="matrix(1,0,0,-1,2,826.72437)" />
    <path
       style="fill:#24221c;fill-opacity:1;stroke:none"
       id="path3006"
       d="m 187.57797,603.65596 c -4.76486,3.97092 -10.30593,8.65995 -15.10942,12.57925 -9.59898,7.57977 -20.13102,16.39822 -30.53012,25.04306 -12.95392,10.80435 -25.40603,20.93917 -37.79722,30.99284 -12.524682,10.15779 -24.270905,19.29828 -35.837198,28.20844 -11.399591,8.757 -22.610767,17.27074 -33.415419,25.26819 -10.087157,7.40556 -20.235957,14.88999 -30.95504,23.09971 -10.4037745,8.09867 -21.035502,16.49035 -32.020969,25.34862 -13.106511,10.62261 -26.111246,21.11981 -38.160568,30.36209 -14.393859,10.88577 -27.062844,19.593 -40.154286,28.84095 -13.66191,9.73166 -27.30803,19.44508 -40.8356,29.00881 -11.95872,8.37471 -24.38187,17.33201 -36.86139,26.35887 -11.24707,8.21034 -21.75636,15.50058 -31.43616,21.76808 -11.0376,6.91382 -19.7969,11.09338 -28.49489,15.22297 -8.65518,4.03561 -16.58783,7.22645 -24.35532,10.22699 -1.21707,0.45659 -2.4342,0.91326 -3.65127,1.36984 -1.34431,0.90287 27.71655,-34.88069 29.06087,-35.78358 l 0,0 c 1.17824,-0.42484 2.35646,-0.84967 3.53471,-1.2745 7.47039,-2.78094 15.10825,-5.75454 23.47274,-9.57637 8.04437,-3.73547 16.15597,-7.53199 26.25922,-13.71149 8.98653,-5.69792 18.8205,-12.43609 29.37199,-20.06724 12.45748,-8.93842 25.02142,-18.01082 36.97865,-26.32394 13.54435,-9.59102 26.937287,-18.99412 40.752908,-28.92411 12.771639,-9.0955 24.905039,-17.38243 38.685614,-27.74754 11.30688,-8.57004 23.826597,-18.73363 36.3645254,-28.90924 11.6870286,-9.51062 22.8700946,-18.35996 33.8678566,-26.96715 11.114128,-8.55112 21.628758,-16.34229 31.998608,-23.94524 10.314123,-7.55062 21.189023,-15.81537 32.150683,-24.19062 11.153525,-8.61319 22.188585,-17.07182 34.154035,-26.73916 11.98673,-9.69665 24.09363,-19.55284 36.66642,-30.03079 10.89294,-9.11671 21.94678,-18.44405 32.20738,-26.7131 4.47524,-3.55752 9.40154,-7.72432 14.92644,-12.72432 2.14191,-1.90029 -18.69591,28.02944 -20.83778,29.92968 z"
       inkscape:connector-curvature="0" />
    <path
       inkscape:connector-curvature="0"
       d="m 575.12063,607.94718 c 6.62856,4.53861 14.33693,9.898 21.01924,14.37761 13.35348,8.66339 28.00497,18.74256 42.47153,28.62328 18.02066,12.34897 35.34322,23.93269 52.58104,35.42366 17.42353,11.60996 33.76411,22.05719 49.85439,32.24117 15.85837,10.00893 31.45464,19.73982 46.48537,28.8806 14.0326,8.46428 28.15095,17.0187 43.06265,26.4021 14.47305,9.25647 29.26323,18.84785 44.5455,28.97252 18.23293,12.14124 36.32427,24.13915 53.08651,34.70273 20.02381,12.44202 37.64808,22.39406 55.86005,32.96412 19.00559,11.12292 37.98919,22.22499 56.80789,33.15597 16.6362,9.57199 33.9184,19.80984 51.2791,30.1272 15.6462,9.38412 30.2661,17.71659 43.732,24.88011 15.3548,7.90224 27.5402,12.67931 39.6402,17.39928 12.0406,4.61254 23.0759,8.25956 33.8816,11.68907 1.6931,0.52186 3.3863,1.04381 5.0794,1.56567 1.8701,1.03194 -38.5575,-39.86732 -40.4276,-40.89929 l 0,0 c -1.6391,-0.48557 -3.2782,-0.97114 -4.9173,-1.45671 -10.3923,-3.1785 -21.0176,-6.57722 -32.6537,-10.94542 -11.1908,-4.2695 -22.4752,-8.60878 -36.5302,-15.67173 -12.5014,-6.51251 -26.1818,-14.21398 -40.8604,-22.9361 -17.33,-10.21627 -34.8081,-20.58568 -51.4423,-30.08727 -18.84199,-10.96217 -37.47339,-21.70957 -56.69279,-33.05917 -17.76706,-10.39581 -34.64628,-19.86746 -53.81692,-31.71439 -15.7294,-9.79524 -33.14602,-21.41184 -50.58798,-33.04219 -16.25823,-10.87028 -31.81539,-20.98473 -47.11477,-30.82242 -15.46125,-9.77362 -30.08852,-18.67863 -44.51439,-27.36852 -14.34834,-8.63008 -29.4768,-18.07637 -44.72595,-27.64897 -15.51606,-9.84455 -30.86732,-19.51245 -47.51288,-30.56186 -16.67516,-11.0829 -33.5175,-22.34816 -51.00795,-34.32406 -15.15355,-10.42006 -30.53095,-21.08085 -44.80482,-30.53207 -6.22566,-4.06611 -13.07882,-8.82861 -20.7647,-14.54342 -2.97968,-2.17195 26.00854,32.0366 28.98818,34.2085 z"
       id="path3029"
       style="fill:#24221c;fill-opacity:1;stroke:none" />
  </g>
</svg>
