<?xml version="1.0" encoding="UTF-8" standalone="no"?>
<!-- Created with Inkscape (http://www.inkscape.org/) -->

<svg
   xmlns:dc="http://purl.org/dc/elements/1.1/"
   xmlns:cc="http://creativecommons.org/ns#"
   xmlns:rdf="http://www.w3.org/1999/02/22-rdf-syntax-ns#"
   xmlns:svg="http://www.w3.org/2000/svg"
   xmlns="http://www.w3.org/2000/svg"
   xmlns:sodipodi="http://sodipodi.sourceforge.net/DTD/sodipodi-0.dtd"
   xmlns:inkscape="http://www.inkscape.org/namespaces/inkscape"
   width="744.09448819"
   height="1052.3622047"
   id="svg2"
   version="1.1"
   inkscape:version="0.48.1 r9760"
   sodipodi:docname="go_far_closer2long_variations.svg">
  <defs
     id="defs4" />
  <sodipodi:namedview
     id="base"
     pagecolor="#ffffff"
     bordercolor="#666666"
     borderopacity="1.0"
     inkscape:pageopacity="0.0"
     inkscape:pageshadow="2"
     inkscape:zoom="0.5"
     inkscape:cx="575"
     inkscape:cy="485.27433"
     inkscape:document-units="px"
     inkscape:current-layer="layer1"
     showgrid="false"
     inkscape:window-width="1280"
     inkscape:window-height="749"
     inkscape:window-x="0"
     inkscape:window-y="24"
     inkscape:window-maximized="1"
     showborder="false" />
  <metadata
     id="metadata7">
    <rdf:RDF>
      <cc:Work
         rdf:about="">
        <dc:format>image/svg+xml</dc:format>
        <dc:type
           rdf:resource="http://purl.org/dc/dcmitype/StillImage" />
        <dc:title></dc:title>
      </cc:Work>
    </rdf:RDF>
  </metadata>
  <g
     inkscape:label="Layer 1"
     inkscape:groupmode="layer"
     id="layer1">
    <rect
       style="fill:#24221c;fill-opacity:1;stroke:none"
       id="rect2985"
       width="4.0375428"
       height="213.44138"
       x="536.48462"
       y="240.22307"
       transform="matrix(0.86831338,0.49601601,-0.49601601,0.86831338,0,0)" />
    <rect
       transform="matrix(-0.86831338,0.49601601,0.49601601,0.86831338,0,0)"
       y="637.03558"
       x="-150.10391"
       height="206"
       width="9"
       id="rect2998"
       style="fill:#24221c;fill-opacity:1;stroke:none" />
    <path
       sodipodi:type="arc"
       style="fill:#24221c;fill-opacity:1;stroke:none"
       id="path3000"
       sodipodi:cx="388.5"
       sodipodi:cy="413.36218"
       sodipodi:rx="41.5"
       sodipodi:ry="39"
       d="m 430,413.36218 a 41.5,39 0 1 1 -83,0 41.5,39 0 1 1 83,0 z"
       transform="matrix(1,0,0,-1,6,826.72437)" />
    <path
       style="fill:#24221c;fill-opacity:1;stroke:none"
       id="path3006"
       d="m 193.31592,550.57837 c -4.82434,2.77006 -10.43458,6.04102 -15.29803,8.77503 -9.7188,5.28749 -20.38232,11.43907 -30.91123,17.46953 -13.11562,7.53691 -25.72317,14.60673 -38.26904,21.61998 -12.681032,7.08585 -24.573876,13.46206 -36.284559,19.67761 -11.541889,6.1087 -22.893014,12.04772 -33.832541,17.62658 -10.213075,5.16598 -20.488563,10.38695 -31.3414531,16.11387 -10.5336454,5.64947 -21.2980889,11.50337 -32.4206869,17.68268 -13.27012,7.41011 -26.437202,14.73275 -38.636936,21.17998 -14.573533,7.59368 -27.400664,13.66768 -40.655534,20.11885 -13.83245,6.78862 -27.64892,13.56448 -41.34535,20.23595 -12.10799,5.84203 -24.68623,12.09047 -37.32153,18.38742 -11.38747,5.72736 -22.02794,10.81286 -31.82857,15.18497 -11.17538,4.82293 -20.04403,7.73849 -28.85059,10.6192 -8.76324,2.81516 -16.79491,5.04103 -24.65936,7.13416 -1.23226,0.31849 -2.46458,0.63706 -3.69685,0.95557 -1.36109,0.62981 28.06253,-24.33207 29.42364,-24.96189 l 0,0 c 1.19295,-0.29649 2.38587,-0.59272 3.57883,-0.88907 7.56364,-1.93993 15.29685,-4.01425 23.76575,-6.68028 8.1448,-2.60579 16.35765,-5.25416 26.58703,-9.56487 9.0987,-3.97475 19.05543,-8.67514 29.73863,-13.99848 12.61299,-6.23526 25.33376,-12.56398 37.44026,-18.36305 13.71342,-6.69049 27.273541,-13.2499 41.261626,-20.17687 12.931067,-6.34483 25.215929,-12.1256 39.168531,-19.3561 11.448022,-5.97826 24.124024,-13.0682 36.8184641,-20.16648 11.8329176,-6.63443 23.1555829,-12.80754 34.2906309,-18.81174 11.252865,-5.96508 21.898751,-11.40005 32.398046,-16.70369 10.442874,-5.26719 21.453532,-11.0325 32.552019,-16.87489 11.292763,-6.00837 22.465563,-11.90895 34.580383,-18.65271 12.13637,-6.76416 24.39439,-13.63965 37.12413,-20.94884 11.02892,-6.35964 22.22075,-12.8662 32.60943,-18.6345 4.5311,-2.48166 9.51889,-5.38834 15.11276,-8.87625 2.16865,-1.32559 -18.92929,19.55276 -21.0979,20.87833 z"
       inkscape:connector-curvature="0" />
    <g
       id="g3094"
       transform="matrix(0.7853168,0,0,1.4405906,170.90573,-155.08699)">
      <path
         style="fill:#666666;fill-opacity:1;stroke:none"
         id="path3029"
         d="m 557.65372,500.1221 c 7.20354,2.18051 15.58054,4.75535 22.84249,6.9075 14.51178,4.1622 30.43417,9.00458 46.15558,13.75161 19.5838,5.93287 38.40895,11.49809 57.14201,17.01876 18.93487,5.57781 36.69286,10.59703 54.17884,15.48975 17.23396,4.80865 34.18306,9.48371 50.51759,13.87524 15.24981,4.06654 30.59281,8.17638 46.79797,12.68449 15.72847,4.44712 31.80158,9.05514 48.40946,13.91939 19.81448,5.83306 39.47509,11.59728 57.69131,16.67238 21.76071,5.97759 40.91374,10.75889 60.70543,15.8371 20.6542,5.34384 41.2844,10.67766 61.7355,15.92928 18.0793,4.5987 36.8605,9.51732 55.7271,14.47415 17.0034,4.50844 32.8915,8.51165 47.5255,11.95325 16.6867,3.79651 29.929,6.09158 43.0786,8.35921 13.085,2.21604 25.0776,3.96818 36.8206,5.61584 1.8399,0.25071 3.68,0.50148 5.5199,0.75219 2.0324,0.49578 -41.902,-19.15363 -43.9343,-19.64941 l 0,0 c -1.7813,-0.23329 -3.5626,-0.46659 -5.3439,-0.69986 -11.2937,-1.52706 -22.8406,-3.15992 -35.4861,-5.25856 -12.1615,-2.05121 -24.4247,-4.13596 -39.6988,-7.52925 -13.5859,-3.12881 -28.453,-6.82888 -44.4048,-11.01928 -18.8332,-4.90824 -37.8274,-9.89008 -55.9045,-14.45496 -20.4764,-5.2666 -40.72386,-10.43002 -61.61039,-15.88277 -19.30819,-4.9945 -37.65155,-9.54501 -58.48508,-15.23668 -17.0938,-4.70596 -36.02117,-10.28698 -54.97607,-15.87461 -17.66849,-5.22246 -34.57511,-10.08178 -51.20158,-14.80815 -16.80239,-4.69557 -32.69845,-8.97385 -48.37564,-13.14878 -15.59295,-4.14619 -32.03367,-8.6845 -48.60556,-13.28352 -16.86195,-4.72966 -33.5448,-9.37446 -51.63422,-14.68298 -18.12159,-5.32459 -36.42487,-10.73682 -55.43247,-16.49045 -16.46799,-5.00615 -33.17926,-10.12796 -48.69126,-14.66865 -6.76569,-1.95351 -14.2133,-4.24157 -22.56587,-6.98717 -3.23814,-1.04347 28.26457,15.39149 31.50266,16.43494 z"
         inkscape:connector-curvature="0" />
    </g>
  </g>
</svg>
