<?xml version="1.0" encoding="UTF-8" standalone="no"?>
<!-- Created with Inkscape (http://www.inkscape.org/) -->

<svg
   xmlns:dc="http://purl.org/dc/elements/1.1/"
   xmlns:cc="http://creativecommons.org/ns#"
   xmlns:rdf="http://www.w3.org/1999/02/22-rdf-syntax-ns#"
   xmlns:svg="http://www.w3.org/2000/svg"
   xmlns="http://www.w3.org/2000/svg"
   xmlns:sodipodi="http://sodipodi.sourceforge.net/DTD/sodipodi-0.dtd"
   xmlns:inkscape="http://www.inkscape.org/namespaces/inkscape"
   width="744.09448819"
   height="1052.3622047"
   id="svg2"
   version="1.1"
   inkscape:version="0.47+devel r9455"
   sodipodi:docname="igabe2010may31-0035.svg">
  <defs
     id="defs4" />
  <sodipodi:namedview
     id="base"
     pagecolor="#ffffff"
     bordercolor="#666666"
     borderopacity="1.0"
     inkscape:pageopacity="0.0"
     inkscape:pageshadow="2"
     inkscape:zoom="1"
     inkscape:cx="320.7635"
     inkscape:cy="815"
     inkscape:document-units="px"
     inkscape:current-layer="layer1"
     showgrid="false"
     inkscape:window-width="1276"
     inkscape:window-height="756"
     inkscape:window-x="0"
     inkscape:window-y="0"
     inkscape:window-maximized="0" />
  <metadata
     id="metadata7">
    <rdf:RDF>
      <cc:Work
         rdf:about="">
        <dc:format>image/svg+xml</dc:format>
        <dc:type
           rdf:resource="http://purl.org/dc/dcmitype/StillImage" />
        <dc:title></dc:title>
      </cc:Work>
    </rdf:RDF>
  </metadata>
  <g
     inkscape:label="Layer 1"
     inkscape:groupmode="layer"
     id="layer1">
    <rect
       id="rect2955"
       width="311.23727"
       height="108.6673"
       x="72.881363"
       y="1.2111977"
       style="fill:none;stroke:#000000;stroke-width:0.33824775;stroke-opacity:1" />
    <rect
       style="fill:none;stroke:#000000;stroke-width:0.33824775;stroke-opacity:1"
       y="121.2112"
       x="72.881363"
       height="108.6673"
       width="311.23727"
       id="rect3733" />
    <rect
       id="rect3735"
       width="311.23727"
       height="108.6673"
       x="72.881363"
       y="241.21118"
       style="fill:none;stroke:#000000;stroke-width:0.33824775;stroke-opacity:1" />
    <g
       id="g3765"
       style="fill:none;fill-opacity:1;stroke:#000000;stroke-opacity:1;stroke-width:3;stroke-miterlimit:4;stroke-dasharray:none">
      <path
         inkscape:connector-curvature="0"
         d="m 80.500527,54.844142 c 2.070167,-1.485191 3.293646,-2.667357 4.194055,-5.101425 0.56198,-2.115501 0.716381,-4.298773 1.161413,-6.440407 0.423592,-1.626036 0.47037,-3.08054 -0.435449,-4.529461 -0.724988,-1.579821 -1.944885,-2.834735 -2.818776,-4.320601 -0.575334,-0.803095 -0.292059,-0.382417 -0.845724,-1.264786 0,0 12.763477,-7.430346 12.763477,-7.430346 l 0,0 c 0.534572,0.855141 0.250661,0.417828 0.854913,1.309869 0.863639,1.480519 2.054368,2.75303 2.814733,4.302136 1.021291,1.740387 1.427743,3.525872 0.91703,5.519246 -0.455716,2.207741 -0.897829,4.38864 -1.200742,6.625656 -0.599254,2.224186 -1.366633,4.69801 -3.688281,5.648497 0,0 -13.716649,5.681622 -13.716649,5.681622 z"
         id="path3739"
         style="fill:none;stroke:#000000;stroke-opacity:1;fill-opacity:1;stroke-width:3;stroke-miterlimit:4;stroke-dasharray:none" />
      <path
         inkscape:connector-curvature="0"
         d="m 147.57719,40.632598 c -0.41024,2.004284 -1.24877,3.681843 -2.7953,5.026295 -8.29929,5.822714 -10.82463,7.938245 -18.49619,8.061437 -1.97732,0.452895 -3.98536,0.70474 -6.00603,0.848822 -1.99412,0.03055 -4.02726,0.318323 -5.99493,-0.06948 -2.3069,-0.275537 -3.87416,-1.651008 -5.1851,-3.458847 -1.05101,-1.724846 -2.25652,-3.259517 -2.96281,-5.17717 -0.65315,-2.858964 -0.56623,-5.837167 -0.62972,-8.755967 -1.5e-4,-2.433143 -0.24401,-4.877998 0.24011,-7.276809 2.51881,-5.867304 10.83729,-9.746649 16.19597,-10.63715 1.92395,-0.221747 3.86542,-0.19144 5.79881,-0.185037 2.02517,0.07707 4.07035,-0.148252 6.06873,0.220116 1.86733,0.310215 3.75176,0.794126 5.43875,1.668526 1.76844,0.560856 3.41668,1.233328 4.85843,2.417497 0.54635,0.689725 1.16894,1.27175 1.86804,1.797208 0,0 -12.49471,7.832631 -12.49471,7.832631 l 0,0 c -0.6419,-0.558815 -1.24341,-1.146871 -1.83408,-1.75974 -1.43881,-0.994607 -3.08418,-1.503864 -4.70062,-2.138876 -1.65262,-0.65525 -3.34894,-1.167141 -5.12889,-1.325459 -1.98568,-0.108378 -3.9766,-0.04905 -5.96458,-0.06742 -1.87219,0.02004 -3.78242,6.75e-4 -5.59473,0.533427 -5.03209,2.109786 -0.35147,0.185971 11.16129,-6.633929 0.22148,-0.1312 -0.48481,0.180696 -0.70707,0.310579 -0.68603,0.400903 -0.60742,0.499746 -1.12443,1.098247 -0.1749,0.20247 -0.36455,0.391714 -0.54683,0.587572 -0.95883,2.168875 -0.4273,4.629777 -0.58236,6.940009 0.005,2.753857 -0.0334,5.548698 0.55887,8.25247 0.59992,1.803105 1.77358,3.190247 2.72944,4.804289 1.18052,1.554754 2.58072,2.347489 4.56692,2.44958 1.92532,0.09813 3.8581,-0.02615 5.77854,-0.168301 2.02627,-0.212818 4.02245,-0.628686 6.05286,-0.788156 6.53875,-0.3641 12.63016,-5.087504 -7.07092,5.968719 1.6711,-0.776504 2.94584,-2.031131 3.10892,-3.958971 0,0 13.39362,-6.416107 13.39362,-6.416107 z"
         id="path3741"
         style="fill:none;stroke:#000000;stroke-opacity:1;fill-opacity:1;stroke-width:3;stroke-miterlimit:4;stroke-dasharray:none" />
      <path
         inkscape:connector-curvature="0"
         d="m 150.6182,18.468511 c -0.38179,2.251634 -0.71721,4.499663 -0.8972,6.778828 -0.18049,2.752989 -0.24354,5.509803 -0.24318,8.268096 0.004,2.513357 0.0738,5.026383 0.0253,7.539447 -0.25744,3.323524 0.16453,6.617949 0.55183,9.910447 0.35604,2.642632 0.37317,5.310549 0.4286,7.971493 0.0458,2.293413 0.0579,4.587277 0.064,6.881076 0.0156,2.168381 -0.0199,4.336383 -0.0211,6.504713 -0.0295,2.150456 0.085,4.304538 -0.0441,6.452146 -0.18495,1.655727 -0.61786,3.235058 -1.49551,4.655541 -0.95614,1.330464 -1.88085,2.691579 -2.88293,3.99221 -0.92239,1.411602 -1.85221,2.824077 -2.96004,4.098349 -4.06073,4.877417 -9.92117,8.823723 -16.20455,9.962223 -1.88343,0.24375 -3.78792,0.22506 -5.68335,0.22641 -1.98767,-0.0903 -4.00978,0.18339 -5.96678,-0.21285 -1.88178,-0.3892 -2.9712,-2.249474 -4.32957,-3.494802 -0.76514,-0.79263 -1.517,-1.603337 -2.34225,-2.334211 0,0 12.56267,-7.75782 12.56267,-7.75782 l 0,0 c 0.78863,0.770943 1.55235,1.567217 2.31352,2.365121 1.15152,1.125269 2.10836,2.602276 3.83142,2.728478 1.93505,0.124157 3.8786,0.03602 5.81651,0.05388 1.83473,-0.03288 3.71063,-0.03094 5.47492,-0.598649 4.95475,-2.228311 0.36184,-0.192587 -11.26384,6.661637 -0.20381,0.12016 0.44168,-0.176299 0.64297,-0.30063 0.76041,-0.469684 0.39147,-0.383752 1.01342,-1.032989 0.16678,-0.174087 0.36916,-0.310164 0.55374,-0.465247 0.99411,-1.340469 2.20289,-2.508692 3.06428,-3.958275 0.5255,-1.026526 1.31339,-1.804199 1.94447,-2.764513 0.15598,-0.237358 0.22016,-0.52983 0.38957,-0.7578 0.13328,-0.179358 0.33529,-0.295489 0.50294,-0.443233 0.84816,-1.353193 1.66572,-2.42502 1.81435,-4.110729 0.444,-2.058973 0.0575,-4.221716 0.19635,-6.314569 1.4e-4,-2.163178 -0.0331,-4.326077 -0.0115,-6.489278 0.0109,-2.3005 0.0317,-4.600991 0.0268,-6.901532 -0.0225,-2.627167 -0.10909,-5.253635 -0.3405,-7.871732 -0.29945,-3.336672 -0.70029,-6.666999 -0.65882,-10.023292 -0.054,-2.523778 0.009,-5.047951 0.0232,-7.572018 0.0223,-2.775863 -0.0577,-5.55535 0.12762,-8.326729 0.15933,-2.198363 0.31778,-4.408909 0.74033,-6.574916 0,0 13.2364,-6.744281 13.2364,-6.744281 z"
         id="path3743"
         style="fill:none;stroke:#000000;stroke-opacity:1;fill-opacity:1;stroke-width:3;stroke-miterlimit:4;stroke-dasharray:none" />
      <path
         inkscape:connector-curvature="0"
         d="m 171.37715,17.732089 c 2.01174,-0.3447 4.04629,-0.501976 6.08247,-0.605719 3.08013,-0.0555 6.16116,-0.01845 9.24179,-0.02972 2.65544,-0.01646 5.31086,-0.03613 7.96634,-0.04657 1.99279,-0.220211 3.69215,0.263027 5.44895,1.119998 1.62295,1.083351 2.04517,2.875132 2.30114,4.69146 0.2497,1.907318 0.0375,3.840002 0.24566,5.746162 0.22177,1.711312 0.73002,3.348578 1.14898,5.015397 0.71203,1.882609 1.11048,3.864298 1.95151,5.697466 0.81389,1.763626 1.95441,3.368209 3.50629,4.544905 1.37481,1.233184 3.05675,2.070112 4.80442,2.635411 1.715,0.524103 3.34587,1.133533 5.14126,1.353287 1.30237,0.36626 0.65818,0.190984 1.93232,0.526671 0,0 -12.11339,8.342972 -12.11339,8.342972 l 0,0 c -1.22824,-0.308498 -0.61491,-0.17066 -1.8397,-0.414778 -1.83471,-0.337024 -3.54688,-1.015925 -5.31767,-1.586967 -1.83859,-0.751472 -3.59847,-1.67881 -5.04494,-3.06637 -1.61774,-1.419416 -3.01567,-3.122161 -3.86728,-5.115492 -0.85251,-1.919332 -1.3364,-3.959755 -2.09068,-5.916678 -0.43617,-1.719443 -1.02771,-3.385806 -1.24801,-5.157389 -0.28398,-1.903806 -0.0565,-3.836697 -0.24867,-5.753122 -0.14401,-1.31879 -0.24968,-2.734307 -1.5778,-3.384602 -1.59917,-0.695055 -3.27159,-0.721644 -4.99868,-0.658476 -2.60676,-0.01474 -5.21341,-0.04212 -7.82018,-0.05549 -3.11241,-0.0024 -6.22785,0.0046 -9.33494,0.208569 -2.04126,0.153029 -4.09393,0.353426 -6.06656,0.930035 0,0 11.79737,-9.020953 11.79737,-9.020953 z"
         id="path3745"
         style="fill:none;stroke:#000000;stroke-opacity:1;fill-opacity:1;stroke-width:3;stroke-miterlimit:4;stroke-dasharray:none" />
      <path
         inkscape:connector-curvature="0"
         d="m 174.51233,39.728121 c -1.99873,-0.07132 -3.99966,-0.05578 -5.99939,-0.05458 -0.34393,0.06188 -0.68798,0.123107 -1.0318,0.18563 -0.95125,0.172985 -1.14663,0.155254 -2.03813,0.545357 -0.3341,0.146194 -1.28729,0.685791 -0.97002,0.505979 12.16695,-6.895511 15.11021,-9.355369 10.79385,-5.86433 -1.40929,1.259147 -2.36157,2.929361 -3.32413,4.535136 -0.76821,1.475519 -1.36655,3.133806 -1.01426,4.800485 0.77366,1.26482 2.4211,1.79593 3.79307,2.17617 2.0988,0.987371 4.43041,1.046841 6.65026,1.558909 2.36347,0.460495 4.66129,1.156123 7.03768,1.558292 2.03537,0.176472 4.17621,0.635367 6.19321,0.171268 1.06425,-0.260551 0.58171,-0.04993 1.45852,-0.606274 0,0 -11.61189,9.123404 -11.61189,9.123404 l 0,0 c -1.08112,0.219058 -0.5263,0.127562 -1.66528,0.26946 -2.13761,0.0049 -4.27576,-0.173143 -6.37702,-0.575122 -2.35796,-0.49033 -4.68416,-1.120494 -7.04964,-1.578569 -2.30155,-0.411818 -4.61387,-0.770026 -6.79597,-1.656122 -1.8492,-0.677547 -3.67887,-1.547303 -4.58809,-3.401616 -0.61568,-1.970974 -0.22869,-3.927228 0.53956,-5.820267 0.87969,-1.779657 2.00325,-3.442752 3.17288,-5.036241 5.08006,-4.783053 11.59258,-9.18505 18.69535,-9.514262 2.04984,0.0012 4.1007,0.01479 6.14964,-0.05458 0,0 -12.0184,8.731877 -12.0184,8.731877 z"
         id="path3749"
         style="fill:none;stroke:#000000;stroke-opacity:1;fill-opacity:1;stroke-width:3;stroke-miterlimit:4;stroke-dasharray:none" />
      <path
         inkscape:connector-curvature="0"
         d="m 224.43006,56.872412 c 0.20202,-3.318522 0.1325,-6.645887 0.0913,-9.968114 0.034,-3.110311 0.0164,-6.220165 -0.0186,-9.330458 -0.25679,-2.582588 0.14931,-4.99557 0.82136,-7.474015 0.65163,-2.370837 0.90266,-4.812874 1.0738,-7.256552 0.0985,-2.38693 0.0961,-4.777305 0.0989,-7.16597 -0.009,-2.248784 -0.0267,-4.497514 -0.0361,-6.7462965 -0.004,-1.369219 -0.002,-0.686661 -0.006,-2.0476739 0,0 13.09083,-6.67093643 13.09083,-6.67093643 l 0,0 c -0.002,1.36312973 -6.9e-4,0.67940537 -0.003,2.05117293 -0.005,2.2572747 -0.0142,4.5145436 -0.014,6.7718258 0.008,2.4110971 0.0262,4.8224721 -0.0591,7.2327601 -0.0877,2.538058 -0.37927,5.064287 -0.98264,7.535759 -0.27804,1.149629 -0.79654,2.369851 -0.9562,3.539674 -0.16135,1.182161 0.10696,2.42356 -0.0339,3.609208 -0.0347,3.116624 -0.0528,6.232818 -0.0186,9.349453 -0.0403,3.291098 -0.11422,6.587902 0.0913,9.875063 0,0 -13.13988,6.6951 -13.13988,6.6951 z"
         id="path3753"
         style="fill:none;stroke:#000000;stroke-opacity:1;fill-opacity:1;stroke-width:3;stroke-miterlimit:4;stroke-dasharray:none" />
      <path
         inkscape:connector-curvature="0"
         d="m 236.90771,23.038695 c 4.63307,0.225402 9.27476,0.15149 13.91138,0.108772 4.70679,0.01033 9.42126,-0.08651 14.08353,0.638357 3.04982,0.429885 5.30207,1.19896 6.87036,3.946416 0.82779,1.922429 0.82839,4.027265 0.84513,6.082584 -0.0229,2.049959 0.0918,4.099833 -0.34781,6.112171 -0.85093,2.118907 -2.05321,4.051752 -3.59,5.734797 -5.40162,4.476273 -11.45981,8.737394 -18.27482,10.58062 -2.0212,0.440125 -4.09795,0.451777 -6.15645,0.468632 -2.00542,0.0019 -4.01081,-0.01324 -6.01621,-0.02069 -1.41294,0.0975 -2.8536,-0.145872 -4.26353,-0.02198 -0.70627,0.06206 -1.39415,0.259326 -2.09353,0.375603 -1.10879,0.189867 -2.22711,0.306943 -3.34569,0.41891 0,0 11.76945,-8.752391 11.76945,-8.752391 l 0,0 c 1.10575,-0.136285 2.20996,-0.282488 3.31006,-0.459823 2.16185,-0.286586 4.34087,-0.189564 6.51764,-0.194876 1.99841,0.0085 3.99712,0.02793 5.99537,-0.0066 1.98182,-0.06099 3.98764,-0.151333 5.87666,-0.816571 4.58463,-1.859751 11.48657,-6.358198 -9.66986,5.855748 -2.38543,1.377144 5.23531,-2.842289 2.78758,-1.856106 1.73153,-1.389818 2.77684,-3.13145 3.8319,-5.044636 0.85136,-1.781209 0.4819,-3.772938 0.57497,-5.69642 0.005,-1.81227 0.0833,-3.682796 -0.50605,-5.421679 -1.17958,-2.199403 -3.60236,-2.607549 -5.90013,-2.986033 -4.61139,-0.66137 -9.25208,-0.582609 -13.90069,-0.50658 -4.73662,-0.04478 -9.47731,-0.108192 -14.2108,0.108771 0,0 11.90154,-8.646975 11.90154,-8.646975 z"
         id="path3755"
         style="fill:none;stroke:#000000;stroke-opacity:1;fill-opacity:1;stroke-width:3;stroke-miterlimit:4;stroke-dasharray:none" />
      <path
         inkscape:connector-curvature="0"
         d="m 291.48767,35.996244 c 2.04375,-0.01936 4.03488,0.480202 6.05616,0.738842 4.04732,0.403153 8.12056,0.38723 12.18332,0.38078 2.99081,0.108136 5.87726,-0.794516 8.79699,-1.301565 2.19594,-0.719705 4.58605,-1.038586 6.47607,-2.441957 -3.99404,2.299148 -7.96002,4.647726 -11.98211,6.897445 -0.199,0.111309 0.35214,-0.294421 0.49493,-0.472189 0.69188,-0.861381 0.71713,-1.858492 0.65842,-2.902369 -0.31216,-1.771677 -1.57192,-2.501955 -3.18152,-2.931895 -2.35372,-0.304739 -4.70076,-0.295252 -7.04194,-0.704104 -2.65004,-0.434304 -5.34177,-0.509861 -8.02135,-0.569627 -3.45488,-0.143459 -6.89731,0.292963 -10.33874,0.540868 -1.5625,0.322374 -3.20249,0.401605 -4.69512,1.017285 -0.38082,0.157083 -1.44507,0.79171 -1.08688,0.588237 12.08122,-6.862783 15.18483,-9.413027 11.01242,-6.065769 -1.24258,1.205921 -1.80917,2.634183 -2.0949,4.304676 -0.22659,1.909157 -0.20137,3.836752 -0.20023,5.756028 0.082,1.839644 -0.22425,3.723305 0.32738,5.504089 0.85551,1.144233 2.13842,2.111415 3.3967,2.795103 0.80597,0.496661 1.79346,0.414413 2.65701,0.678815 1.04869,0.321085 2.07755,0.928167 3.10467,1.329139 2.02966,0.879446 4.04351,0.593782 6.16136,0.361792 2.20779,-0.08774 4.30833,-0.760699 6.47878,-1.111727 2.0552,-0.126537 4.01636,-0.732386 6.04748,-1.037632 1.86495,-0.02719 3.57552,-0.729003 5.39832,-1.03067 0.29828,-0.03458 0.59655,-0.06916 0.89483,-0.103737 0,0 -11.7877,8.836668 -11.7877,8.836668 l 0,0 c -0.28659,0.05357 -0.57319,0.10715 -0.85979,0.160724 -1.78514,0.411178 -3.5569,0.802779 -5.38634,0.972666 -2.00679,0.381236 -4.00068,0.80581 -6.03233,1.040787 -2.16268,0.421178 -4.31146,0.905177 -6.52351,0.992238 -2.28622,0.175299 -4.46846,0.07294 -6.58775,-0.915232 -1.96565,-0.818283 -4.0164,-1.283462 -5.94256,-2.17216 -1.49904,-0.984469 -3.0235,-2.088999 -3.91842,-3.678265 -0.70737,-1.926012 -0.5064,-3.920706 -0.5231,-5.946197 -0.009,-1.972397 -0.036,-3.947602 0.088,-5.917248 0.17288,-1.844717 0.44567,-3.683982 1.74523,-5.108433 4.20281,-6.353104 12.63795,-9.072003 19.90714,-9.797362 3.52759,-0.271586 7.05849,-0.724046 10.60145,-0.539451 2.73616,0.121059 5.48175,0.259216 8.19045,0.68243 2.40322,0.369312 4.87108,0.224038 7.22459,0.891801 1.99752,0.850141 3.51341,2.170626 4.03588,4.36542 1.08441,8.060256 -5.45906,7.530992 -13.68252,12.555807 -2.12431,0.883417 -4.35366,1.450991 -6.60262,1.925461 -2.93707,0.589402 -5.86312,1.295366 -8.88672,1.016217 -4.16228,-0.09427 -8.33292,-0.127933 -12.48698,-0.387977 -2.022,-0.293917 -4.03956,-0.663289 -6.09287,-0.465875 0,0 12.0184,-8.731877 12.0184,-8.731877 z"
         id="path3763"
         style="fill:none;stroke:#000000;stroke-opacity:1;fill-opacity:1;stroke-width:3;stroke-miterlimit:4;stroke-dasharray:none" />
    </g>
  </g>
</svg>
