<?xml version="1.0" encoding="UTF-8" standalone="no"?>
<!-- Created with Inkscape (http://www.inkscape.org/) -->

<svg
   xmlns:dc="http://purl.org/dc/elements/1.1/"
   xmlns:cc="http://creativecommons.org/ns#"
   xmlns:rdf="http://www.w3.org/1999/02/22-rdf-syntax-ns#"
   xmlns:svg="http://www.w3.org/2000/svg"
   xmlns="http://www.w3.org/2000/svg"
   xmlns:sodipodi="http://sodipodi.sourceforge.net/DTD/sodipodi-0.dtd"
   xmlns:inkscape="http://www.inkscape.org/namespaces/inkscape"
   width="744.09448819"
   height="1052.3622047"
   id="svg2"
   version="1.1"
   inkscape:version="0.47+devel r9455"
   sodipodi:docname="igabe2010may31-0044.svg">
  <defs
     id="defs4">
    <marker
       inkscape:stockid="Arrow1Lstart"
       orient="auto"
       refY="0.0"
       refX="0.0"
       id="Arrow1Lstart"
       style="overflow:visible">
      <path
         id="path3995"
         d="M 0.0,0.0 L 5.0,-5.0 L -12.5,0.0 L 5.0,5.0 L 0.0,0.0 z "
         style="fill-rule:evenodd;stroke:#000000;stroke-width:1.0pt;marker-start:none"
         transform="scale(0.8) translate(12.5,0)" />
    </marker>
  </defs>
  <sodipodi:namedview
     id="base"
     pagecolor="#ffffff"
     bordercolor="#666666"
     borderopacity="1.0"
     inkscape:pageopacity="0.0"
     inkscape:pageshadow="2"
     inkscape:zoom="1"
     inkscape:cx="320.7635"
     inkscape:cy="815"
     inkscape:document-units="px"
     inkscape:current-layer="layer1"
     showgrid="false"
     inkscape:window-width="1276"
     inkscape:window-height="756"
     inkscape:window-x="0"
     inkscape:window-y="0"
     inkscape:window-maximized="0" />
  <metadata
     id="metadata7">
    <rdf:RDF>
      <cc:Work
         rdf:about="">
        <dc:format>image/svg+xml</dc:format>
        <dc:type
           rdf:resource="http://purl.org/dc/dcmitype/StillImage" />
        <dc:title></dc:title>
      </cc:Work>
    </rdf:RDF>
  </metadata>
  <g
     inkscape:label="Layer 1"
     inkscape:groupmode="layer"
     id="layer1">
    <rect
       id="rect2955"
       width="311.23727"
       height="108.6673"
       x="72.881363"
       y="1.2111977"
       style="fill:none;stroke:#000000;stroke-width:0.33824775;stroke-opacity:1" />
    <rect
       style="fill:none;stroke:#000000;stroke-width:0.33824775;stroke-opacity:1"
       y="121.2112"
       x="72.881363"
       height="108.6673"
       width="311.23727"
       id="rect3733" />
    <rect
       id="rect3735"
       width="311.23727"
       height="108.6673"
       x="72.881363"
       y="241.21118"
       style="fill:none;stroke:#000000;stroke-width:0.33824775;stroke-opacity:1" />
    <g
       id="g3765"
       style="fill:#000e26;fill-opacity:1;stroke:#237887;stroke-opacity:1;stroke-width:3;stroke-miterlimit:4;stroke-dasharray:none;stroke-linejoin:round;stroke-linecap:butt">
      <path
         style="fill:#000e26;fill-opacity:1;stroke:#237887;stroke-width:3;stroke-linecap:butt;stroke-linejoin:round;stroke-miterlimit:4;stroke-opacity:1;stroke-dasharray:none"
         d="m 80.500527,54.844142 c 12.517869,-5.092329 -3.563614,-22.18268 8.489007,-25.867705 9.194549,-8.947202 13.088746,10.664715 7.869117,16.65665 -3.470464,5.741403 -10.846386,6.284248 -16.358124,9.211055 z"
         id="path3739"
         inkscape:connector-curvature="0" />
      <path
         style="fill:#000e26;fill-opacity:1;stroke:#237887;stroke-width:3;stroke-linecap:butt;stroke-linejoin:round;stroke-miterlimit:4;stroke-opacity:1;stroke-dasharray:none"
         d="m 147.57719,40.632598 c -6.07186,12.255163 -23.36983,16.499329 -35.5492,12.646861 -12.253093,-8.616419 -8.13066,-32.099957 7.87995,-33.606656 8.15055,-4.116326 34.91112,3.063627 17.88186,10.664944 -6.35046,1.278455 -25.55136,-3.92519 -25.40429,-3.611737 6.39468,-4.854217 9.00903,-5.163056 5.41982,2.654327 -3.69167,16.437646 17.21636,18.981933 23.99998,15.970991 -9.4776,6.62181 -10.69888,2.462615 -1.53784,-1.217061 2.43657,-1.167223 4.87315,-2.334446 7.30972,-3.501669 z"
         id="path3741"
         inkscape:connector-curvature="0" />
      <path
         style="fill:#000e26;fill-opacity:1;stroke:#237887;stroke-width:3;stroke-linecap:butt;stroke-linejoin:round;stroke-miterlimit:4;stroke-opacity:1;stroke-dasharray:none"
         d="m 150.6182,18.468511 c -3.22003,19.960719 1.1024,40.09538 -0.1146,60.137514 -4.10014,15.527971 -22.78886,28.841685 -38.20728,21.240289 -6.47528,-9.995901 12.74454,-13.478496 18.22025,-6.390012 11.22901,-2.544929 6.24128,1.848957 -1.86102,4.455439 13.0035,-9.93152 8.22614,-27.56433 8.34788,-41.564084 1.2192,-11.817716 -6.69554,-31.247632 8.65128,-35.350073 1.65451,-0.843011 3.309,-1.686031 4.96349,-2.529073 z"
         id="path3743"
         inkscape:connector-curvature="0" />
      <path
         style="fill:#000e26;fill-opacity:1;stroke:#237887;stroke-width:3;stroke-linecap:butt;stroke-linejoin:round;stroke-miterlimit:4;stroke-opacity:1;stroke-dasharray:none"
         d="m 171.37715,17.732089 c 10.24615,0.623395 29.5064,-6.490715 31.38293,8.755909 -1.04142,11.541395 7.21741,19.691352 16.12485,22.583206 -7.51696,13.652517 -27.65562,4.702688 -28.02811,-9.030007 2.30314,-18.8591 -17.69241,-14.575608 -29.98627,-14.275146 3.5022,-2.677988 7.00441,-5.355962 10.5066,-8.033962 z"
         id="path3745"
         inkscape:connector-curvature="0" />
      <path
         style="fill:#000e26;fill-opacity:1;stroke:#237887;stroke-width:3;stroke-linecap:butt;stroke-linejoin:round;stroke-miterlimit:4;stroke-opacity:1;stroke-dasharray:none"
         d="m 174.51233,39.728121 c -7.53465,0.628623 -10.91208,0.443582 -1.693,-3.816314 8.16556,-5.049284 -8.83005,10.076092 2.989,11.06967 6.25907,3.487893 27.54465,0.531878 11.64961,8.842134 -8.49318,5.352281 -33.35943,2.432587 -27.90903,-12.221446 2.96938,-8.310341 23.68927,-16.199804 24.14289,-10.543314 -3.05983,2.22309 -6.11965,4.44618 -9.17947,6.66927 z"
         id="path3749"
         inkscape:connector-curvature="0" />
      <path
         style="fill:#000e26;fill-opacity:1;stroke:#237887;stroke-width:3;stroke-linecap:butt;stroke-linejoin:round;stroke-miterlimit:4;stroke-opacity:1;stroke-dasharray:none"
         d="m 224.43006,56.872412 c -1.1158,-14.901178 2.31947,-29.67863 1.66295,-44.361939 -0.1482,-10.672418 20.4091,-16.8612123 13.5289,-1.109535 -5.15279,13.491014 4.56036,34.326584 -8.93425,42.382121 -2.12155,0.947666 -4.34746,1.728776 -6.2576,3.089353 z"
         id="path3753"
         inkscape:connector-curvature="0" />
      <path
         style="fill:#000e26;fill-opacity:1;stroke:#237887;stroke-width:3;stroke-linecap:butt;stroke-linejoin:round;stroke-miterlimit:4;stroke-opacity:1;stroke-dasharray:none"
         d="m 236.90771,23.038695 c 11.98316,1.851608 35.69474,-6.124208 36.01858,12.830007 -3.57609,17.394799 -24.75089,23.080776 -40.28203,20.787677 -2.39056,-6.761073 18.005,-10.211704 26.36619,-8.916848 13.51924,-5.669722 -12.84075,10.078574 -0.77337,0.03194 7.72994,-14.316193 -11.22069,-19.863394 -21.87144,-16.022136 -15.11093,0.895261 -6.33136,-3.884031 0.54207,-8.710644 z"
         id="path3755"
         inkscape:connector-curvature="0" />
      <path
         style="fill:#000e26;fill-opacity:1;stroke:#237887;stroke-width:3;stroke-linecap:butt;stroke-linejoin:round;stroke-miterlimit:4;stroke-opacity:1;stroke-dasharray:none"
         d="m 291.48767,35.996244 c 9.26286,2.795986 29.94461,0.0127 31.52331,-1.606666 -9.67471,10.136115 -16.03628,-6.414858 -28.67898,-1.716356 -5.75376,-0.230257 -19.07658,3.591644 -7.11058,-2.215711 8.56821,-6.039968 -5.50614,12.368689 4.38331,15.631148 5.90228,10.462819 27.86652,-3.941485 27.43561,3.351214 -10.42548,8.114161 -26.44975,11.360476 -38.62729,6.040785 -12.91847,-10.550801 -1.23074,-30.166065 13.59896,-30.432498 9.58638,0.03667 37.12141,-6.192901 30.95331,11.033149 -9.3115,9.892549 -25.60316,9.920091 -38.62287,9.110247 -15.98687,1.402711 2.3501,-5.280191 5.14522,-9.195312 z"
         id="path3763"
         inkscape:connector-curvature="0" />
    </g>
  </g>
</svg>
