<?xml version="1.0" encoding="UTF-8" standalone="no"?>
<!-- Created with Inkscape (http://www.inkscape.org/) -->

<svg
   xmlns:dc="http://purl.org/dc/elements/1.1/"
   xmlns:cc="http://creativecommons.org/ns#"
   xmlns:rdf="http://www.w3.org/1999/02/22-rdf-syntax-ns#"
   xmlns:svg="http://www.w3.org/2000/svg"
   xmlns="http://www.w3.org/2000/svg"
   xmlns:sodipodi="http://sodipodi.sourceforge.net/DTD/sodipodi-0.dtd"
   xmlns:inkscape="http://www.inkscape.org/namespaces/inkscape"
   width="744.09448819"
   height="1052.3622047"
   id="svg2"
   version="1.1"
   inkscape:version="0.48.0 r9654"
   sodipodi:docname="drawing_some people.svg">
  <defs
     id="defs4" />
  <sodipodi:namedview
     id="base"
     pagecolor="#ffffff"
     bordercolor="#666666"
     borderopacity="1.0"
     inkscape:pageopacity="0.0"
     inkscape:pageshadow="2"
     inkscape:zoom="1"
     inkscape:cx="394.15625"
     inkscape:cy="701.18653"
     inkscape:document-units="px"
     inkscape:current-layer="layer1"
     showgrid="false"
     inkscape:window-width="1280"
     inkscape:window-height="702"
     inkscape:window-x="0"
     inkscape:window-y="27"
     inkscape:window-maximized="1"
     showborder="true"
     inkscape:showpageshadow="false" />
  <metadata
     id="metadata7">
    <rdf:RDF>
      <cc:Work
         rdf:about="">
        <dc:format>image/svg+xml</dc:format>
        <dc:type
           rdf:resource="http://purl.org/dc/dcmitype/StillImage" />
        <dc:title></dc:title>
      </cc:Work>
    </rdf:RDF>
  </metadata>
  <g
     inkscape:label="Layer 1"
     inkscape:groupmode="layer"
     id="layer1">
    <path
       transform="matrix(0.34848485,0,0,0.34848485,239.15152,68.34203)"
       d="m 576,301.36218 a 205,132 0 1 1 -410,0 205,132 0 1 1 410,0 z"
       sodipodi:ry="132"
       sodipodi:rx="205"
       sodipodi:cy="301.36218"
       sodipodi:cx="371"
       id="path3847"
       style="fill:#dfb54d;fill-opacity:0.38983053;stroke:none"
       sodipodi:type="arc" />
    <path
       transform="matrix(0.34848485,0,0,0.34848485,473.15152,68.34203)"
       d="m 576,301.36218 a 205,132 0 1 1 -410,0 205,132 0 1 1 410,0 z"
       sodipodi:ry="132"
       sodipodi:rx="205"
       sodipodi:cy="301.36218"
       sodipodi:cx="371"
       id="path3843"
       style="fill:#dfb54d;fill-opacity:0.38983053;stroke:none"
       sodipodi:type="arc" />
    <path
       sodipodi:type="arc"
       style="fill:#dfb54d;fill-opacity:0.38983053;stroke:none"
       id="path3821"
       sodipodi:cx="371"
       sodipodi:cy="301.36218"
       sodipodi:rx="205"
       sodipodi:ry="132"
       d="m 576,301.36218 a 205,132 0 1 1 -410,0 205,132 0 1 1 410,0 z"
       transform="matrix(0.34848485,0,0,0.34848485,13.15152,68.34203)" />
    <rect
       style="fill:#ffffff;fill-opacity:0.03137255000000000;stroke:#8c5200;stroke-opacity:1"
       id="rect2987"
       width="763.71429"
       height="288.57144"
       x="-9.4285717"
       y="192.36218" />
    <rect
       style="fill:#ffffff;fill-opacity:1"
       id="rect2985"
       width="685.71429"
       height="251.42857"
       x="31.42857"
       y="298.07645" />
    <text
       xml:space="preserve"
       style="font-size:40px;font-style:normal;font-variant:normal;font-weight:normal;font-stretch:normal;line-height:125%;letter-spacing:0px;word-spacing:0px;fill:#000000;fill-opacity:1;stroke:none;font-family:Sawasdee;-inkscape-font-specification:Sawasdee"
       x="252"
       y="179.36218"
       id="text3757"
       sodipodi:linespacing="125%"><tspan
         sodipodi:role="line"
         id="tspan3759"
         x="252"
         y="179.36218">some people</tspan></text>
    <rect
       style="fill:#ffffff;fill-opacity:1;stroke:none"
       id="rect3779"
       width="23"
       height="304"
       x="-24"
       y="184.36218" />
    <rect
       y="184.36218"
       x="746"
       height="304"
       width="23"
       id="rect3792"
       style="fill:#ffffff;fill-opacity:1;stroke:none" />
    <text
       xml:space="preserve"
       style="font-size:18px;font-style:normal;font-variant:normal;font-weight:normal;font-stretch:normal;line-height:125%;letter-spacing:0px;word-spacing:0px;fill:#000000;fill-opacity:1;stroke:none;font-family:Georgia;-inkscape-font-specification:Georgia;text-anchor:middle;text-align:center"
       x="376.57715"
       y="423.36218"
       id="text3813"
       sodipodi:linespacing="125%"><tspan
         sodipodi:role="line"
         id="tspan3815"
         x="265"
         y="423.36218"
         style="font-size:18px;font-weight:normal;font-family:verdana;-inkscape-font-specification:verdana;text-anchor:middle;text-align:center">Some people of all sorts.</tspan><tspan
         sodipodi:role="line"
         x="265"
         y="445.86218"
         style="font-size:18px;font-weight:normal;font-family:verdana;-inkscape-font-specification:verdana;text-anchor:middle;text-align:center;fill:#bfbfbf;fill-opacity:1"
         id="tspan3817">Amazing.</tspan></text>
    <g
       inkscape:groupmode="layer"
       id="layer2"
       inkscape:label="Layer" />
    <g
       inkscape:groupmode="layer"
       id="layer3"
       inkscape:label="Layer#1">
      <rect
         style="fill:#ffffff;fill-opacity:1;stroke:none"
         id="rect3825"
         width="697"
         height="51"
         x="21"
         y="194.36218" />
      <rect
         y="194.36218"
         x="481"
         height="51"
         width="245"
         id="rect3845"
         style="fill:#ffffff;fill-opacity:1;stroke:none" />
    </g>
    <path
       style="fill:#dfb54d;fill-opacity:0.38983053;stroke:none"
       id="path3849"
       d="m 347.59332,145.00639 c 1.20893,0.0668 2.42024,0.0616 3.6305,0.0678 0,0 -11.80394,8.57607 -11.80394,8.57607 l 0,0 c -1.27247,0.006 -2.54572,0.004 -3.81702,0.0678 0,0 11.99046,-8.71158 11.99046,-8.71158 z"
       inkscape:connector-curvature="0" />
    <path
       style="fill:#dfb54d;fill-opacity:0.38983053;stroke:none"
       id="path3851"
       d="m 392.59332,145.00639 c 1.4692,0.0604 2.94018,0.0527 4.4103,0.0542 0,0 -11.84135,8.60325 -11.84135,8.60325 l 0,0 c -1.51985,0.001 -3.0404,-0.004 -4.55941,0.0542 0,0 11.99046,-8.71158 11.99046,-8.71158 z"
       inkscape:connector-curvature="0" />
  </g>
</svg>
