<?xml version="1.0" encoding="UTF-8" standalone="no"?>
<!-- Created with Inkscape (http://www.inkscape.org/) -->

<svg
   xmlns:dc="http://purl.org/dc/elements/1.1/"
   xmlns:cc="http://creativecommons.org/ns#"
   xmlns:rdf="http://www.w3.org/1999/02/22-rdf-syntax-ns#"
   xmlns:svg="http://www.w3.org/2000/svg"
   xmlns="http://www.w3.org/2000/svg"
   xmlns:sodipodi="http://sodipodi.sourceforge.net/DTD/sodipodi-0.dtd"
   xmlns:inkscape="http://www.inkscape.org/namespaces/inkscape"
   id="svg3039"
   version="1.1"
   inkscape:version="0.48.2 r9819"
   width="2544"
   height="3508"
   sodipodi:docname="Psy Z Logo Scanned Document 3.svg">
  <metadata
     id="metadata3045">
    <rdf:RDF>
      <cc:Work
         rdf:about="">
        <dc:format>image/svg+xml</dc:format>
        <dc:type
           rdf:resource="http://purl.org/dc/dcmitype/StillImage" />
        <dc:title></dc:title>
      </cc:Work>
    </rdf:RDF>
  </metadata>
  <defs
     id="defs3043" />
  <sodipodi:namedview
     pagecolor="#ffffff"
     bordercolor="#666666"
     borderopacity="1"
     objecttolerance="10"
     gridtolerance="10"
     guidetolerance="10"
     inkscape:pageopacity="0"
     inkscape:pageshadow="2"
     inkscape:window-width="1280"
     inkscape:window-height="776"
     id="namedview3041"
     showgrid="false"
     inkscape:zoom="0.2690992"
     inkscape:cx="1656.8784"
     inkscape:cy="1734.6969"
     inkscape:window-x="0"
     inkscape:window-y="24"
     inkscape:window-maximized="1"
     inkscape:current-layer="g4274" />
  <g
     id="g4274"
     transform="matrix(0.50702416,0,0,0.50702416,241.27223,1340.3675)">
    <path
       transform="matrix(5.6725038,0,0,5.6725038,-510.92046,-15617.933)"
       style="fill:none;stroke:#000000;stroke-width:4;stroke-linecap:butt;stroke-linejoin:miter;stroke-miterlimit:4;stroke-opacity:1;stroke-dasharray:none"
       d="m 198.81144,2875.3337 179.30191,276.8496 222.9661,0 196.02437,-274.9916 -122.63136,-104.0508 -318.65572,0 z"
       id="path4262"
       inkscape:connector-curvature="0" />
    <path
       transform="matrix(5.6725038,0,0,5.6725038,-510.92046,-15617.933)"
       style="fill:none;stroke:#000000;stroke-width:4;stroke-linecap:butt;stroke-linejoin:miter;stroke-miterlimit:4;stroke-opacity:1;stroke-dasharray:none"
       d="m 231.32733,2879.9788 82.68326,120.7733 117.98623,-96.6186 c 39.30431,-43.0927 9.75158,-126.6952 -81.75423,-102.1928 z"
       id="path4264"
       inkscape:connector-curvature="0"
       sodipodi:nodetypes="ccccc" />
    <path
       transform="matrix(5.6725038,0,0,5.6725038,-510.92046,-15617.933)"
       style="fill:none;stroke:#000000;stroke-width:4;stroke-linecap:butt;stroke-linejoin:miter;stroke-miterlimit:4;stroke-opacity:1;stroke-dasharray:none"
       d="m 328.875,3019.3326 119.84428,-102.1928 c 84.44679,-109.5993 -40.32271,-165.2979 -109.625,-134.7087 l -142.14089,89.1865 183.01801,280.5657 26.94174,0 z"
       id="path4266"
       inkscape:connector-curvature="0"
       sodipodi:nodetypes="ccccccc" />
    <path
       transform="matrix(5.6725038,0,0,5.6725038,-510.92046,-15617.933)"
       style="fill:none;stroke:#000000;stroke-width:4;stroke-linecap:butt;stroke-linejoin:miter;stroke-miterlimit:4;stroke-opacity:1;stroke-dasharray:none"
       d="m 463.58369,2808.4439 159.79237,0 -228.54025,320.5137 0,0.9291 0,0"
       id="path4268"
       inkscape:connector-curvature="0" />
    <path
       transform="matrix(5.6725038,0,0,5.6725038,-510.92046,-15617.933)"
       style="fill:none;stroke:#000000;stroke-width:4;stroke-linecap:butt;stroke-linejoin:miter;stroke-miterlimit:4;stroke-opacity:1;stroke-dasharray:none"
       d="M 672.61441,2774.9989 438.5,3121.5254 l 146.78602,0 87.32839,-114.2701 -103.12182,0 -94.7606,114.2701 0.92903,0"
       id="path4270"
       inkscape:connector-curvature="0" />
    <path
       transform="matrix(5.6725038,0,0,5.6725038,-510.92046,-15617.933)"
       style="fill:none;stroke:#000000;stroke-width:4;stroke-linecap:butt;stroke-linejoin:miter;stroke-miterlimit:4;stroke-opacity:1;stroke-dasharray:none"
       d="m 698.62712,2794.5085 -117.0572,182.089 104.05084,0 82.68327,-124.4895 -0.92903,-0.929"
       id="path4272"
       inkscape:connector-curvature="0" />
  </g>
</svg>
