<?xml version="1.0" encoding="UTF-8" standalone="no"?>
<!-- Created with Inkscape (http://www.inkscape.org/) -->

<svg
   xmlns:dc="http://purl.org/dc/elements/1.1/"
   xmlns:cc="http://creativecommons.org/ns#"
   xmlns:rdf="http://www.w3.org/1999/02/22-rdf-syntax-ns#"
   xmlns:svg="http://www.w3.org/2000/svg"
   xmlns="http://www.w3.org/2000/svg"
   xmlns:xlink="http://www.w3.org/1999/xlink"
   xmlns:sodipodi="http://sodipodi.sourceforge.net/DTD/sodipodi-0.dtd"
   xmlns:inkscape="http://www.inkscape.org/namespaces/inkscape"
   width="744.09448819"
   height="1052.3622047"
   id="svg8330"
   version="1.1"
   inkscape:version="0.47 r22583"
   sodipodi:docname="New document 37">
  <defs
     id="defs8332">
    <linearGradient
       inkscape:collect="always"
       id="linearGradient9072">
      <stop
         style="stop-color:#000000;stop-opacity:1;"
         offset="0"
         id="stop9074" />
      <stop
         style="stop-color:#000000;stop-opacity:0;"
         offset="1"
         id="stop9076" />
    </linearGradient>
    <linearGradient
       inkscape:collect="always"
       id="linearGradient8972">
      <stop
         style="stop-color:#000000;stop-opacity:1;"
         offset="0"
         id="stop8974" />
      <stop
         style="stop-color:#000000;stop-opacity:0;"
         offset="1"
         id="stop8976" />
    </linearGradient>
    <pattern
       inkscape:stockid="Stripes 1:1"
       id="Strips1_1"
       patternTransform="matrix(3.3620402,0,0,10.028849,247.66741,4.5460125)"
       height="1"
       width="2"
       patternUnits="userSpaceOnUse"
       inkscape:collect="always">
      <rect
         id="rect4787"
         height="2"
         width="1"
         y="-0.5"
         x="0"
         style="fill:black;stroke:none" />
    </pattern>
    <linearGradient
       inkscape:collect="always"
       id="linearGradient8924">
      <stop
         style="stop-color:#000000;stop-opacity:1;"
         offset="0"
         id="stop8926" />
      <stop
         style="stop-color:#000000;stop-opacity:0;"
         offset="1"
         id="stop8928" />
    </linearGradient>
    <inkscape:perspective
       sodipodi:type="inkscape:persp3d"
       inkscape:vp_x="0 : 526.18109 : 1"
       inkscape:vp_y="0 : 1000 : 0"
       inkscape:vp_z="744.09448 : 526.18109 : 1"
       inkscape:persp3d-origin="372.04724 : 350.78739 : 1"
       id="perspective8338" />
    <inkscape:perspective
       id="perspective8356"
       inkscape:persp3d-origin="0.5 : 0.33333333 : 1"
       inkscape:vp_z="1 : 0.5 : 1"
       inkscape:vp_y="0 : 1000 : 0"
       inkscape:vp_x="0 : 0.5 : 1"
       sodipodi:type="inkscape:persp3d" />
    <filter
       inkscape:collect="always"
       id="filter8912"
       x="-0.23363345"
       width="1.4672669"
       y="-0.053791895"
       height="1.1075838">
      <feGaussianBlur
         inkscape:collect="always"
         stdDeviation="20.242882"
         id="feGaussianBlur8914" />
    </filter>
    <linearGradient
       inkscape:collect="always"
       xlink:href="#linearGradient8924"
       id="linearGradient8930"
       x1="-325.84296"
       y1="603.88368"
       x2="-20.732086"
       y2="603.88368"
       gradientUnits="userSpaceOnUse" />
    <inkscape:perspective
       id="perspective8356-7"
       inkscape:persp3d-origin="0.5 : 0.33333333 : 1"
       inkscape:vp_z="1 : 0.5 : 1"
       inkscape:vp_y="0 : 1000 : 0"
       inkscape:vp_x="0 : 0.5 : 1"
       sodipodi:type="inkscape:persp3d" />
    <linearGradient
       inkscape:collect="always"
       xlink:href="#linearGradient8972"
       id="linearGradient8978"
       x1="73.140761"
       y1="152.22623"
       x2="150.39586"
       y2="152.22623"
       gradientUnits="userSpaceOnUse"
       gradientTransform="matrix(8.2488892,0,0,0.91567437,-532.41879,14.388986)" />
    <inkscape:perspective
       id="perspective8992"
       inkscape:persp3d-origin="0.5 : 0.33333333 : 1"
       inkscape:vp_z="1 : 0.5 : 1"
       inkscape:vp_y="0 : 1000 : 0"
       inkscape:vp_x="0 : 0.5 : 1"
       sodipodi:type="inkscape:persp3d" />
    <inkscape:perspective
       id="perspective8992-9"
       inkscape:persp3d-origin="0.5 : 0.33333333 : 1"
       inkscape:vp_z="1 : 0.5 : 1"
       inkscape:vp_y="0 : 1000 : 0"
       inkscape:vp_x="0 : 0.5 : 1"
       sodipodi:type="inkscape:persp3d" />
    <filter
       inkscape:collect="always"
       id="filter9035"
       x="-0.18632878"
       width="1.3726576"
       y="-0.034555805"
       height="1.0691116">
      <feGaussianBlur
         inkscape:collect="always"
         stdDeviation="2.0988726"
         id="feGaussianBlur9037" />
    </filter>
    <linearGradient
       inkscape:collect="always"
       xlink:href="#linearGradient9072"
       id="linearGradient9082"
       x1="103.41004"
       y1="115.47879"
       x2="426.28479"
       y2="115.47879"
       gradientUnits="userSpaceOnUse"
       gradientTransform="translate(107.59345,164.49384)" />
  </defs>
  <sodipodi:namedview
     id="base"
     pagecolor="#ffffff"
     bordercolor="#666666"
     borderopacity="1.0"
     inkscape:pageopacity="0.0"
     inkscape:pageshadow="2"
     inkscape:zoom="0.96660156"
     inkscape:cx="453.15546"
     inkscape:cy="662.72145"
     inkscape:document-units="px"
     inkscape:current-layer="layer11"
     showgrid="false"
     inkscape:window-width="1246"
     inkscape:window-height="895"
     inkscape:window-x="581"
     inkscape:window-y="195"
     inkscape:window-maximized="0" />
  <metadata
     id="metadata8335">
    <rdf:RDF>
      <cc:Work
         rdf:about="">
        <dc:format>image/svg+xml</dc:format>
        <dc:type
           rdf:resource="http://purl.org/dc/dcmitype/StillImage" />
        <dc:title></dc:title>
      </cc:Work>
    </rdf:RDF>
  </metadata>
  <g
     inkscape:label="Layer 1"
     inkscape:groupmode="layer"
     id="layer1">
    <rect
       style="opacity:0.27983542;fill:#280b0b;fill-opacity:0.36514528;fill-rule:nonzero;stroke:none"
       id="rect8344"
       width="2.0691049"
       height="586.59125"
       x="591.76398"
       y="151.267" />
    <rect
       style="opacity:0.08230453;fill:#000000;fill-opacity:0.83817426;fill-rule:nonzero;stroke:url(#linearGradient8930);stroke-opacity:1;filter:url(#filter8912)"
       id="rect8346"
       width="207.94504"
       height="903.16425"
       x="-277.26004"
       y="152.30156"
       transform="matrix(-0.3772345,0,0,1.1368609,42.740687,-25.747665)" />
    <rect
       style="opacity:0.08230453;fill:#000000;fill-opacity:0.83817426;fill-rule:nonzero;stroke:none"
       id="rect8942"
       width="18.621944"
       height="1002.4813"
       x="146.90645"
       y="147.1288" />
    <path
       style="fill:#0055d4;fill-opacity:0.36514528;fill-rule:nonzero;stroke:url(#Strips1_1);stroke-width:0.58066684;filter:url(#filter9035)"
       id="path8324"
       d="m 325.84274,150.07377 c -0.35971,0.25698 -0.72063,0.49875 -1.08008,0.76121 -0.4709,0.33495 -0.93919,0.67486 -1.3953,1.16259 -0.53797,0.71387 -1.07856,1.4148 -1.61134,2.16339 -0.60002,0.86929 -1.17244,1.89091 -1.7178,3.0342 -0.53811,1.13669 -1.0577,2.35135 -1.56941,3.59128 -0.52827,1.29607 -1.03199,2.67898 -1.54355,4.03342 -0.45386,1.20379 -0.89291,2.45498 -1.31078,3.76949 -0.36162,1.06012 -0.70203,2.17617 -1.02328,3.34536 -0.31483,1.13906 -0.58828,2.37077 -0.85918,3.60388 -0.23835,1.10635 -0.4723,2.2214 -0.68417,3.37502 -0.18541,0.95844 -0.36003,1.93739 -0.5057,2.95565 -0.16453,1.01347 -0.28825,2.07987 -0.44487,3.10346 -0.1369,0.78424 -0.22975,1.61643 -0.30935,2.46487 -0.0634,0.73286 -0.11701,1.46833 -0.14436,2.22121 -0.0448,0.70055 -0.063,1.41173 -0.0962,2.11679 -0.0324,0.61731 -0.0587,1.23616 -0.0938,1.85221 -0.0474,0.78603 -0.0608,1.58392 -0.066,2.38086 -0.002,0.7989 -6.8e-4,1.59777 -10e-4,2.39668 -0.001,0.73799 0.0342,1.47224 0.0795,2.19607 0.0564,0.79548 0.1301,1.57727 0.20049,2.3621 0.0663,0.74924 0.14501,1.47889 0.26383,2.16802 -0.6213,2.02163 -0.39103,1.33122 -1.41822,0.19837 -0.11975,-0.71824 -0.19207,-1.48252 -0.26208,-2.25536 -0.072,-0.79643 -0.14555,-1.59183 -0.20553,-2.39732 -0.0437,-0.74999 -0.084,-1.50776 -0.0774,-2.27168 -10e-4,-0.80243 -9e-5,-1.60519 0.008,-2.40728 0.008,-0.81458 0.005,-1.63665 0.0517,-2.44184 0.0348,-0.6137 0.0535,-1.23352 0.0958,-1.84371 0.0371,-0.69839 0.0501,-1.40797 0.098,-2.10237 0.0314,-0.77386 0.0813,-1.53584 0.15112,-2.28759 0.0813,-0.87359 0.17611,-1.73509 0.31913,-2.53879 0.17038,-0.99647 0.29679,-2.05353 0.4459,-3.07911 0.14032,-1.04544 0.33461,-2.01835 0.51966,-2.99759 0.21117,-1.17522 0.45422,-2.2962 0.70029,-3.40857 0.2756,-1.23453 0.53852,-2.49923 0.85402,-3.64878 0.3273,-1.17435 0.66636,-2.317 1.03719,-3.3724 0.4269,-1.32094 0.87272,-2.58295 1.33395,-3.7974 0.51234,-1.35436 1.01924,-2.72763 1.54041,-4.05073 0.51131,-1.25179 1.03318,-2.46919 1.57105,-3.61772 0.5449,-1.17046 1.11936,-2.20918 1.72092,-3.10166 0.52265,-0.77043 1.05952,-1.45158 1.58405,-2.2105 0.45218,-0.52582 0.91788,-0.88461 1.39005,-1.21184 0.33996,-0.25778 0.67882,-0.52233 1.02091,-0.75113 0,0 1.43458,0.5373 1.43458,0.5373 l -10e-4,-6e-5 -1.5e-4,0 z"
       transform="matrix(2.002514,-1.5011772,-8.9402198,-0.22071789,1327.7433,687.9983)"
       sodipodi:nodetypes="ccccccccccccccccccscsccsccssccscccccccccccccccc" />
    <path
       style="fill:#d40000;fill-opacity:0.36514528;fill-rule:nonzero;stroke:url(#linearGradient8978);stroke-width:2.7483263"
       id="path8328"
       d="m 701.75125,157.64135 c -31.11975,0.0255 -63.80929,0.0408 -94.61137,8.8e-4 -20.04688,-0.0306 -38.46486,-0.0872 -56.76056,-0.14072 -20.55663,-0.0637 -40.57819,-0.13307 -60.14254,-0.20597 -18.18503,-0.0648 -35.59504,-0.13562 -53.29328,-0.20445 -20.79239,-0.0786 -42.13796,-0.15244 -63.63888,-0.22484 -21.25398,-0.0683 -41.84477,-0.14123 -61.47879,-0.22331 -12.18875,-0.0546 -25.61494,-0.0994 -38.15136,-0.15092 -5.9945,-0.0255 -11.74662,-0.0515 -17.63453,-0.077 -14.83734,-0.0648 -29.02504,-0.13409 -42.10336,-0.21006 -7.32926,-0.0459 -15.68682,-0.0892 -22.5888,-0.13867 -0.75469,-0.005 -9.143,-0.0719 -9.82097,-0.077 -10.40046,-0.0872 -19.65171,-0.17743 -27.50416,-0.27277 -3.40246,-0.0535 -8.73201,-0.10349 -12.08856,-0.15753 -1.79863,-0.0306 -3.06423,-0.0587 -4.69866,-0.0877 -0.44024,-0.0102 -11.11838,-0.19069 -11.60772,-0.19884 -9.27083,-0.15092 -17.05849,-0.30437 -23.92153,-0.45886 -5.885362,-0.10706 -11.432162,-0.21464 -15.621738,-0.32426 -4.333717,-0.11063 -7.151301,-0.2228 -9.406794,-0.33547 -1.463443,-0.11012 -2.849884,-0.22025 -4.216948,-0.33038 -1.150694,-0.11166 -1.953973,-0.22382 -1.334267,-0.33598 0.644159,-0.1244 3.041778,-0.24778 7.183433,-0.37015 5.177275,-0.14582 13.0676,-0.28806 20.820592,-0.4298 9.292072,-0.1713 24.123112,-0.32986 39.425812,-0.48638 13.10703,-0.13868 29.18344,-0.26665 45.37011,-0.39411 14.16513,-0.10298 27.0762,-0.21107 41.72468,-0.31203 14.12668,-0.0923 29.48377,-0.17844 44.80484,-0.26409 15.5998,-0.0892 31.77211,-0.17538 48.19216,-0.26002 17.53493,-0.0918 36.30839,-0.17538 55.6183,-0.25543 19.04865,-0.078 39.17355,-0.14683 59.16541,-0.21719 20.91851,-0.0714 41.94309,-0.14174 63.34512,-0.20853 21.82297,-0.0658 43.74578,-0.13102 66.47816,-0.18659 15.98515,-0.0357 31.74733,-0.076 47.46879,-0.11574 8.0873,-0.0204 16.36026,-0.0408 23.9336,-0.0678 3.12621,-0.0102 6.75986,-0.0204 10.20632,-0.0306 0,0 63.31625,0.0408 63.31625,0.0408 l 0,0 c -3.37174,0.0102 -6.69578,0.0203 -10.34791,0.0255 -7.97362,0.0306 -16.55998,0.0515 -25.32913,0.0729 -16.36542,0.0356 -32.45119,0.0801 -49.03452,0.11522 -23.07247,0.0515 -44.87332,0.11778 -66.80891,0.18252 -21.2921,0.0668 -42.23301,0.13613 -63.08338,0.207 -19.93624,0.0694 -39.81113,0.13918 -59.00438,0.21464 -19.296,0.0786 -38.25326,0.15907 -55.47933,0.25186 -16.23528,0.0847 -32.5745,0.16927 -47.9987,0.2585 -15.21466,0.0851 -30.49762,0.17028 -44.65562,0.26103 -15.02225,0.0994 -28.18739,0.207 -42.48303,0.30948 -16.3594,0.12644 -32.92127,0.25287 -46.34527,0.39003 -15.51469,0.15294 -30.10841,0.30946 -38.68035,0.47925 -7.57368,0.14071 -15.41807,0.28143 -20.06913,0.42622 -3.91525,0.12032 -6.28361,0.24218 -6.63902,0.36505 -0.60168,0.11063 0.27023,0.22178 1.47534,0.33241 1.40735,0.10962 2.54648,0.21924 4.05004,0.32885 2.27096,0.11115 5.11965,0.22229 9.53172,0.3319 4.28255,0.10912 9.85856,0.21618 15.13456,0.32376 6.07169,0.15346 12.60039,0.30692 21.38697,0.45631 4.76337,0.0826 6.43435,0.11674 12.29237,0.1973 5.91647,0.0816 13.06472,0.1606 19.13383,0.24167 8.01116,0.0928 17.19239,0.18201 27.83764,0.26613 9.78326,0.0749 20.62375,0.14429 32.25169,0.21057 12.99062,0.0734 26.90369,0.14122 41.32011,0.20597 18.00798,0.079 36.98949,0.15092 55.36372,0.22739 19.62345,0.0806 40.3129,0.15142 61.26179,0.22025 21.46089,0.074 43.07282,0.14684 63.90497,0.22637 17.85771,0.0683 35.66275,0.13715 53.78779,0.20343 19.27882,0.0719 38.7551,0.14225 59.28062,0.2024 18.69343,0.0525 37.67073,0.10759 58.43366,0.12899 25.58127,0.0153 6.46496,0.003 -47.97068,0.005 -1.95381,1.1e-4 3.90151,0.002 5.85517,0.002 1.43281,-1e-4 7.25614,-0.004 8.93782,-0.005 1.00447,-7.6e-4 1.99969,-0.002 2.99961,-0.003 0,0 63.26018,0.051 63.26018,0.051 z" />
    <path
       style="fill:#000000;fill-opacity:0.83817426;fill-rule:nonzero;stroke:none"
       id="path8982"
       d="m 684.8979,173.22019 c -12.60899,0.25901 -26.18111,0.56318 -39.18252,0.83945 -19.215,0.38006 -37.75212,0.73046 -57.73587,1.14511 -25.75568,0.53689 -49.74009,0.99326 -73.61538,1.44557 -20.42332,0.37581 -39.2789,0.68097 -55.66529,0.8836 -12.73435,0.15782 -24.90843,0.29634 -40.69579,0.58449 -15.54249,0.25664 -30.22481,0.47478 -42.17635,0.58052 -10.07652,0.10314 -20.5011,0.21984 -29.55663,0.28125 -8.84464,0.10341 -18.77911,0.25439 -26.08596,0.29455 -5.21653,-0.0156 -12.79395,0.0643 -18.49234,0.0675 -7.57933,0.0656 -19.5046,0.3231 -27.86531,0.42045 -10.42709,0.16923 -17.01115,0.18211 -22.78236,0.16285 -5.23263,0.0493 -10.7885,0.11498 -17.5843,0.23062 -6.90781,0.12588 -11.76064,0.20651 -16.03405,0.22103 -3.11448,0.0259 -3.34096,-0.0625 -5.93863,-0.0562 -1.55559,0.004 -3.92873,0.0407 -5.75948,0.0554 -5.53768,0.0545 -8.61649,0.0111 -11.74452,-0.0288 -2.97798,-0.0454 -5.72385,-0.0996 -8.42176,-0.15561 8.69759,0.16765 17.39879,0.33517 26.09496,0.50286 0.4791,0.01 -0.94015,-0.0191 -1.44311,-0.0276 -10.08141,-0.16549 -19.82512,-0.34384 -30.31541,-0.49381 -1.48679,-0.0212 -5.31935,0.0338 -7.59471,0.0424 -4.47672,3.5e-4 -7.50075,-0.0559 -10.58905,-0.10894 3.86921,0.0809 -9.51658,-0.18282 -5.54269,-0.10652 25.7239,0.49391 34.64598,0.67653 24.96231,0.4789 -2.71528,-0.0498 -5.32291,-0.10351 -7.98752,-0.15515 -2.3029,-0.0469 -4.70709,-0.0899 -7.01626,-0.13646 -10.83777,-0.22341 -22.20976,-0.42664 -33.28286,-0.64117 -10.60777,-0.2016 16.59855,0.33842 25.20998,0.49584 0.34103,0.006 -0.32536,-0.0258 -0.37874,-0.0425 -0.21733,-0.069 -0.16565,-0.14705 -0.56536,-0.20985 -1.17371,-0.13975 -4.25045,-0.20976 -7.28884,-0.28058 -3.44556,-0.0591 -6.79296,-0.11998 -7.77959,-0.26989 -0.38001,-0.0981 -0.8875,-0.19165 -1.9303,-0.26597 -8.3286,-0.3035 -21.31261,-0.44783 -31.98587,-0.65303 -1.08611,-0.0207 -2.19021,-0.0407 -3.24204,-0.0627 -0.87856,-0.0169 -1.77462,-0.0331 -2.63369,-0.0507 -9.430708,-0.19695 18.53497,0.32581 26.98777,0.51942 0.24868,0.006 -2.60195,0.0719 -2.37801,0.0493 0.33383,-0.034 1.40125,-0.0902 1.94369,-0.1304 2.18576,-0.14244 2.10417,-0.205 1.44265,-0.25135 -0.42679,-0.071 -3.869,-0.0283 -3.85066,-0.11307 0.46411,-0.12308 0.39823,-0.22736 -0.35289,-0.30765 -2.02859,-0.0684 -3.83384,-0.14222 -4.63271,-0.2557 -0.81314,-0.12361 0.84187,-0.33313 0.74363,-0.48192 -0.22834,-0.12759 -2.62368,-0.17662 -4.87948,-0.22987 -1.68869,-0.074 -0.91711,-0.23115 0.90097,-0.42629 0.58015,-0.0864 1.58978,-0.18759 1.42375,-0.24848 -5.55875,-0.34602 -10.70309,-0.83676 -29.112271,-0.59286 -1.459801,0.0194 35.365081,0.76246 25.619391,0.56573 1.17338,-0.0838 2.59128,-0.17628 3.44654,-0.25199 1.46819,-0.091 0.71397,-0.10821 0.0513,-0.12614 -22.051232,0.30818 -18.34869,-0.41276 -29.141084,-0.55674 -0.365607,-0.0109 -0.823484,-0.0183 -1.238404,-0.0275 -10.867425,-0.18854 35.934718,0.73576 26.219188,0.50428 -0.42237,-0.007 -0.82535,-0.0148 -1.21519,-0.0231 -0.90355,-0.0148 0.79646,-0.0122 -3.99994,0.11821 -0.74439,0.0203 6.50518,-0.31917 6.95937,-0.34177 1.40015,-0.0802 1.63697,-0.11223 4.18775,-0.22385 4.31052,-0.17631 7.45033,-0.28958 7.8977,-0.36367 -49.929121,-2.33853 -19.91088,0.63041 -19.3795,0.70111 2.77349,0.24764 -26.386023,-3.59808 -0.0127,5.7e-4 0.0589,9.7e-4 0.12116,0.003 0.18174,0.004 0.0212,6.5e-4 0.0381,0.002 0.0576,0.002 0,0 -8.87531,-1.25615 -8.87531,-1.25615 l 0,0 c -0.0652,5.7e-4 -0.23512,9.7e-4 -0.21564,-2.4e-4 22.47301,3.30288 0.56045,0.0122 -0.0127,5.8e-4 11.44926,1.63988 18.22613,1.43413 -18.901497,0.724 -0.1093,-0.002 0.870594,-0.005 0.63403,-0.006 2.38136,-0.02 10.52533,-0.36623 6.15084,-0.18414 -3.467929,0.14717 -8.750505,0.36424 -9.966371,0.45318 -1.927931,0.16459 -6.168845,0.29186 -12.249953,0.56481 -0.335951,0.0147 0.177932,0.004 0.267321,0.006 0.41009,0.007 0.807132,0.0147 1.185787,0.0232 10.436322,0.16677 20.014929,0.36606 29.524143,0.56787 0.462156,0.008 0.890589,0.017 1.412056,0.0225 9.244684,0.18728 25.567324,0.15261 -26.59094,-0.51184 0.731807,0.01 1.296062,0.0322 3.304697,-0.0105 0.306297,0.0307 1.242513,0.048 -0.6894,0.14889 -28.250025,1.51902 134.917437,-7.27054 23.803897,0.74061 -3.393664,0.24469 -35.71184,-0.66616 -25.503186,-0.51016 1.389561,0.0168 2.519257,0.0395 1.830492,0.13235 -0.350779,0.15203 -4.616307,0.43422 -2.959002,0.51743 -0.172,0.14084 3.729234,0.13026 5.053765,0.21736 1.635827,0.0977 1.133255,0.27125 -0.535531,0.48435 0.893258,0.10616 -0.08642,0.27636 3.348629,0.2891 1.705729,0.043 2.887872,0.10649 2.42203,0.22779 -0.0771,0.0199 -0.153783,0.0404 -0.231311,0.0606 -0.498886,0.0335 -1.35605,0.0781 -1.49615,0.10004 -0.407972,0.0639 2.962094,2.3e-4 2.950953,0.0505 1.198199,0.0157 3.054491,0.0113 3.109227,0.0676 -0.335105,0.0497 0.07456,0.0484 -2.093153,0.15538 -0.861359,0.0425 -2.941506,0.123 -2.681048,0.12987 5.737149,0.15134 18.749795,0.37833 28.531365,0.54912 0.90343,0.0163 1.76962,0.0341 2.66597,0.0505 1.08814,0.018 2.12573,0.038 3.18985,0.057 -47.333528,-0.91074 -33.190892,-0.62191 -22.557489,-0.44237 1.793084,0.0509 3.263349,0.11407 3.543888,0.22025 0.841828,0.15889 1.306399,0.32752 6.131771,0.34037 3.13842,0.0636 6.34475,0.12497 8.46357,0.22671 0.74689,0.045 1.7453,0.0835 1.60677,0.16041 -0.0381,0.022 -0.81789,0.07 -0.48868,0.0786 13.57665,0.35763 17.92538,0.44165 27.9744,0.63832 10.16561,0.19418 24.85327,0.49056 -21.76577,-0.41953 2.40406,0.044 4.71307,0.0918 7.11726,0.13586 2.65817,0.0513 5.36091,0.10099 7.94651,0.15508 11.9248,0.22437 23.09543,0.47736 35.77577,0.67312 3.45293,0.0411 6.90319,0.0831 12.34641,0.0465 0.8012,-0.004 4.3287,-0.023 4.9795,-0.0253 0.80201,-0.003 2.77315,0.006 2.30235,-0.005 -8.42531,-0.17887 -17.4447,-0.33532 -26.1764,-0.50262 -0.47071,-0.009 0.92749,0.0186 1.39117,0.0278 9.59284,0.18496 19.17946,0.37016 28.77238,0.55511 2.84187,0.0502 5.58379,0.1042 9.03994,0.13094 3.67953,0.02 7.86524,0.0198 13.31533,-0.0304 4.33581,-0.015 6.48374,0.0565 12.09985,-0.009 5.16595,-0.0609 12.37378,-0.21074 17.79756,-0.28246 5.74359,-0.0824 10.65484,-0.12769 14.57599,-0.13565 6.75441,-0.018 15.03153,-0.0989 25.00091,-0.24856 9.1897,-0.13767 20.42641,-0.36109 25.9708,-0.34698 6.28683,-0.0277 12.83861,-0.0661 19.24644,-0.0987 8.28314,-0.0821 18.29844,-0.23618 26.11535,-0.29896 9.68533,-0.0917 19.56904,-0.19133 29.84531,-0.30732 13.19786,-0.15394 27.95441,-0.37213 43.98388,-0.64624 14.54912,-0.2402 26.25994,-0.36078 39.51864,-0.54613 17.34456,-0.24783 36.4206,-0.56925 57.139,-0.96324 24.23377,-0.46387 48.22873,-0.91656 74.19284,-1.45825 19.84712,-0.39598 38.25109,-0.72782 58.3863,-1.13684 13.17956,-0.27852 27.3538,-0.60059 37.91082,-0.76153 0,0 -13.12763,-1.08436 -13.12763,-1.08436 z" />
    <path
       style="fill:#000000;fill-opacity:0.83817426;fill-rule:nonzero;stroke:none"
       id="path8982-1"
       d="m 687.4419,165.97615 c -12.36731,0.15 -25.6805,0.3285 -38.43317,0.48933 -18.84588,0.21876 -37.02604,0.4189 -56.62691,0.65942 -25.26229,0.31166 -48.78501,0.57262 -72.2006,0.83107 -20.02947,0.21363 -38.51925,0.38283 -54.58447,0.48788 -12.48482,0.0819 -24.41963,0.15187 -39.90247,0.31544 -15.24118,0.14288 -29.63766,0.26156 -41.35276,0.30997 -9.87784,0.0502 -20.09757,0.10885 -28.9729,0.13299 -8.67098,0.0527 -18.41225,0.13527 -25.57319,0.14844 -5.11008,-0.0203 -12.53831,0.019 -18.1215,0.0104 -7.42924,0.0298 -19.12655,0.18001 -27.32315,0.22956 -10.22476,0.0939 -16.67624,0.0901 -22.32955,0.0663 -5.12926,0.0232 -10.57611,0.0568 -17.24033,0.12158 -6.7745,0.0714 -11.53338,0.11637 -15.72098,0.11807 -3.05277,0.0115 -3.27003,-0.0482 -5.81546,-0.0489 -1.52425,-3.7e-4 -3.8513,0.0199 -5.64573,0.0264 -5.42843,0.0262 -8.44263,-0.009 -11.50524,-0.0415 -2.91528,-0.0361 -5.60272,-0.0776 -8.24304,-0.12026 8.51265,0.12886 17.02888,0.25764 25.54016,0.38653 0.46884,0.007 -0.92007,-0.0146 -1.41237,-0.0212 -9.86871,-0.13002 -19.4057,-0.26803 -29.67571,-0.38841 -1.45559,-0.017 -5.2134,0.0126 -7.44315,0.0141 -4.38611,-0.008 -7.34593,-0.0516 -10.36894,-0.093 3.78662,0.0616 -9.31429,-0.14058 -5.42485,-0.0819 25.17707,0.37984 33.90897,0.51917 24.43172,0.36832 -2.65767,-0.0385 -5.20971,-0.0795 -7.81765,-0.11913 -2.25383,-0.0358 -4.60707,-0.0692 -6.86704,-0.10477 -10.60658,-0.17031 -21.73764,-0.32808 -32.57527,-0.49287 -10.38243,-0.15523 16.24472,0.25831 24.67348,0.38015 0.33372,0.005 -0.31753,-0.0179 -0.3686,-0.0292 -0.20754,-0.0468 -0.15443,-0.099 -0.54299,-0.14183 -1.1426,-0.096 -4.15336,-0.14874 -7.12655,-0.20199 -3.37268,-0.0462 -6.64911,-0.0933 -7.60786,-0.19571 -0.36695,-0.0665 -0.85951,-0.13024 -1.87729,-0.18208 -8.144,-0.2193 -20.85755,-0.34059 -31.30399,-0.49836 -1.06298,-0.016 -2.1437,-0.0315 -3.17306,-0.0482 -0.85988,-0.013 -1.73694,-0.0255 -2.57768,-0.039 -9.22946,-0.1499 18.14254,0.25352 26.41406,0.39933 0.24325,0.005 -2.55302,0.0434 -2.33244,0.0286 0.32958,-0.0219 1.37764,-0.0579 1.91112,-0.0838 2.14897,-0.0914 2.0723,-0.13359 1.42662,-0.16592 -0.41426,-0.0484 -3.78916,-0.0263 -3.76674,-0.0831 0.46118,-0.0817 0.40226,-0.15178 -0.33003,-0.20706 -1.98393,-0.0497 -3.74872,-0.10263 -4.52545,-0.18027 -0.79018,-0.0845 0.84231,-0.22191 0.75381,-0.3219 -0.21665,-0.086 -2.56128,-0.12344 -4.76862,-0.16341 -1.65064,-0.0528 -0.88652,-0.15678 0.90513,-0.28429 0.57282,-0.0569 1.56746,-0.12285 1.40806,-0.16399 -5.42805,-0.24261 -10.4425,-0.58154 -28.49173,-0.4526 -1.43122,0.0103 34.60901,0.57817 25.07102,0.42782 1.15397,-0.054 2.54804,-0.11338 3.38991,-0.16256 1.44334,-0.0583 0.70525,-0.0712 0.0567,-0.0845 -21.62088,0.16519 -17.95551,-0.31148 -28.52178,-0.42842 -0.35783,-0.008 -0.80588,-0.0139 -1.21193,-0.0208 -10.637465,-0.14697 35.16852,0.56132 25.66187,0.38771 -0.41342,-0.005 -0.80786,-0.0115 -1.18938,-0.0178 -0.88445,-0.0117 0.78101,-0.007 -3.92514,0.0718 -0.73045,0.0122 6.39016,-0.20185 6.8364,-0.21616 1.37605,-0.0511 1.60979,-0.0722 4.11463,-0.14228 4.23252,-0.11016 7.31468,-0.18023 7.75688,-0.2291 -48.795406,-1.66295 -19.54077,0.38541 -19.02388,0.43384 2.70437,0.17137 -25.662998,-2.46359 -0.0128,2.7e-4 0.0568,6.5e-4 0.11873,0.002 0.17809,0.003 0.021,1.9e-4 0.0376,0.001 0.0574,0.001 0,0 -8.62967,-0.85945 -8.62967,-0.85945 l 0,0 c -0.0643,1.1e-4 -0.23037,4.8e-4 -0.2113,-6e-4 21.84466,2.25818 0.54834,0.009 -0.0127,3.2e-4 11.13139,1.12173 17.78187,0.99647 -18.556782,0.45009 -0.107117,-0.001 0.853116,-0.002 0.621474,-0.003 2.334182,-0.009 10.331448,-0.22586 6.035958,-0.11194 -3.40547,0.0922 -8.592435,0.22787 -9.788334,0.28525 -1.897506,0.10679 -6.059294,0.18417 -12.031542,0.35583 -0.330024,0.009 0.173939,0.003 0.261546,0.005 0.401436,0.006 0.790063,0.0115 1.160581,0.0178 10.216262,0.13154 19.590459,0.28329 28.896529,0.4366 0.45219,0.006 0.87167,0.0131 1.38229,0.0178 9.04763,0.14306 25.04166,0.15055 -26.025668,-0.3935 0.716502,0.008 1.268126,0.024 3.238357,-6.5e-4 0.298463,0.0212 1.214829,0.0346 -0.68313,0.0986 -27.757712,0.96582 132.566941,-4.62339 23.283021,0.54171 -3.33777,0.15775 -34.953755,-0.51421 -24.960024,-0.39032 1.360528,0.0139 2.466148,0.0312 1.786505,0.0923 -0.351575,0.1013 -4.545632,0.28261 -2.926243,0.34155 -0.175979,0.0942 3.646858,0.0944 4.940017,0.15535 1.597595,0.0686 1.096151,0.1841 -0.550126,0.32393 0.869636,0.0729 -0.09921,0.18524 3.265672,0.20026 1.668951,0.032 2.823838,0.0769 2.361045,0.15738 -0.07594,0.0134 -0.15277,0.0268 -0.229984,0.0402 -0.490573,0.0215 -1.332594,0.0499 -1.470948,0.0643 -0.40303,0.042 2.902084,0.006 2.88851,0.0395 1.173116,0.0128 2.992086,0.0133 3.042766,0.0512 -0.33002,0.0329 0.071,0.0326 -2.058935,0.1003 -0.846179,0.0269 -2.888427,0.077 -2.633558,0.0821 5.613013,0.11234 18.350263,0.28915 27.924833,0.42216 0.88424,0.0126 1.732,0.0262 2.60931,0.0389 1.06519,0.0142 2.08068,0.0295 3.12226,0.0442 -46.327316,-0.7002 -32.486193,-0.47978 -22.07749,-0.33929 1.75408,0.0376 3.19124,0.0827 3.46056,0.15445 0.81629,0.10819 1.26277,0.22217 5.98972,0.23989 3.07157,0.0486 6.20973,0.0958 8.28028,0.16805 0.72946,0.0316 1.70565,0.0593 1.56584,0.11063 -0.0376,0.0146 -0.80505,0.0454 -0.48299,0.0518 13.28298,0.2655 17.5392,0.33006 27.37449,0.48094 9.94956,0.14943 24.32425,0.37595 -21.30308,-0.32248 2.35308,0.0341 4.61284,0.0704 6.966,0.10456 2.60168,0.0395 5.24706,0.0779 7.77747,0.11902 11.6716,0.173 22.6028,0.36378 35.0161,0.519 3.38082,0.0341 6.75903,0.0687 12.09397,0.0545 0.78528,-0.001 4.24226,-0.007 4.87998,-0.008 0.78599,-3.7e-4 2.7167,0.009 2.25594,0.001 -8.24532,-0.13588 -17.07382,-0.25784 -25.61997,-0.38653 -0.46074,-0.007 0.90773,0.0143 1.36156,0.0213 9.38889,0.14217 18.77167,0.28447 28.16064,0.42663 2.7817,0.039 5.46524,0.0804 8.85004,0.10488 3.60398,0.0204 7.70487,0.0281 13.04729,0.005 4.24883,-0.002 6.34953,0.0501 11.85532,0.0167 5.06455,-0.0312 12.13432,-0.11807 17.45204,-0.15596 5.63161,-0.0445 10.44578,-0.0656 14.28792,-0.0635 6.61866,6.5e-4 14.73237,-0.038 24.50775,-0.11964 9.01083,-0.0751 20.03176,-0.20375 25.46314,-0.18383 6.16098,-0.007 12.58211,-0.0201 18.86188,-0.03 8.11971,-0.0395 17.94036,-0.12397 25.60227,-0.15135 9.494,-0.0432 19.18285,-0.0915 29.25707,-0.14993 12.93873,-0.0784 27.4079,-0.19697 43.12716,-0.35066 14.26717,-0.13373 25.74719,-0.19256 38.74712,-0.29192 17.0064,-0.13358 35.71302,-0.31325 56.03254,-0.53854 23.76749,-0.26552 47.30028,-0.524 72.76705,-0.83848 19.46601,-0.22824 37.51476,-0.41619 57.26375,-0.65265 12.92725,-0.16201 26.83137,-0.35137 37.18308,-0.43944 0,0 -12.80489,-0.75221 -12.80489,-0.75221 z" />
    <path
       style="fill:#000000;fill-opacity:0.83817426;fill-rule:nonzero;stroke:none"
       id="path8982-7"
       d="m 686.18288,164.2392 c -12.47085,0.0345 -25.88121,0.10462 -38.73545,0.15212 -19.01198,0.0335 -37.36162,0.0446 -57.12425,0.10463 -25.46951,0.0806 -49.20977,0.0989 -72.84292,0.11454 -20.22203,-0.001 -38.91316,-0.0564 -55.18873,-0.18602 -12.64804,-0.10022 -24.74589,-0.21213 -40.37882,-0.21599 -15.40434,-0.0391 -29.96858,-0.10751 -41.86081,-0.25673 -10.01932,-0.1076 -20.3797,-0.20591 -29.39996,-0.34332 -8.78779,-0.0777 -18.6407,-0.11962 -25.92381,-0.24271 -5.22237,-0.14551 -12.7556,-0.22336 -18.44993,-0.35595 -7.54242,-0.0965 -19.33065,-0.0476 -27.63794,-0.12158 -10.33583,-0.03 -16.91055,-0.17125 -22.68919,-0.33481 -5.2051,-0.0614 -10.72497,-0.10928 -17.4586,-0.12188 -6.8403,-0.002 -11.64977,-0.0135 -15.91392,-0.0972 -3.09988,-0.041 -3.37156,-0.16149 -5.96494,-0.21567 -1.55297,-0.0324 -3.90625,-0.0414 -5.72862,-0.0661 -5.50737,-0.0619 -8.60717,-0.19234 -11.75438,-0.31941 -3.00001,-0.13054 -5.77244,-0.26699 -8.49795,-0.40462 8.77985,0.42691 17.56327,0.85375 26.34176,1.28069 0.48349,0.0234 -0.94955,-0.0475 -1.45654,-0.0705 -10.1621,-0.45732 -19.9931,-0.92326 -30.55589,-1.37019 -1.49706,-0.0634 -5.29978,-0.0837 -7.56971,-0.12705 -4.47465,-0.10698 -7.52621,-0.25274 -10.64046,-0.3959 3.90908,0.19813 -9.60632,-0.46632 -5.59492,-0.27165 25.96627,1.26015 34.97823,1.71193 25.1973,1.22231 -2.73962,-0.12987 -5.37376,-0.26245 -8.06373,-0.39361 -2.32593,-0.11621 -4.75115,-0.2299 -7.08326,-0.34597 -10.94771,-0.55084 -22.41915,-1.08826 -33.59758,-1.63318 -10.70662,-0.51694 16.76513,0.83876 25.45362,1.2503 0.34412,0.0163 -0.3387,-0.0414 -0.40016,-0.0644 -0.25115,-0.0952 -0.24076,-0.19531 -0.67279,-0.28663 -1.24488,-0.21005 -4.35622,-0.375 -7.42966,-0.54011 -3.47443,-0.15963 -6.85159,-0.31915 -7.91467,-0.53791 -0.42993,-0.13683 -0.98544,-0.27071 -2.0659,-0.39248 -8.48066,-0.59485 -21.53325,-1.09429 -32.30725,-1.61748 -1.09623,-0.053 -2.21011,-0.10552 -3.27276,-0.15938 -0.88686,-0.0431 -1.79083,-0.0856 -2.65855,-0.12916 -9.527737,-0.48264 18.69418,0.86886 27.24274,1.32367 0.25153,0.0137 -2.56395,0.0312 -2.35171,0.007 0.31715,-0.0357 1.35443,-0.0837 1.87596,-0.12306 2.11178,-0.1329 1.99813,-0.21633 1.31313,-0.29251 -0.46303,-0.10267 -3.88189,-0.1297 -3.907,-0.23956 0.40099,-0.14903 0.28143,-0.28634 -0.51073,-0.40884 -2.06279,-0.13772 -3.90508,-0.27709 -4.76185,-0.44395 -0.87615,-0.18037 0.67072,-0.41334 0.49625,-0.6093 -0.29349,-0.17156 -2.71318,-0.29284 -4.99531,-0.41628 -1.72595,-0.13682 -1.03535,-0.32278 0.682,-0.53314 0.53546,-0.0985 1.49295,-0.20596 1.29586,-0.28915 -5.73385,-0.58373 -11.1277,-1.34584 -29.403996,-1.47023 -1.449231,-0.01 35.741116,1.84101 25.898686,1.3511 1.12982,-0.081 2.49977,-0.16723 3.31582,-0.24523 1.42105,-0.0831 0.65826,-0.12366 -0.0128,-0.16291 -21.88389,-0.12816 -18.55259,-0.97752 -29.414212,-1.42391 -0.371086,-0.023 -0.832604,-0.0436 -1.251982,-0.0654 -10.959499,-0.50618 36.296804,1.81992 26.466674,1.28552 -0.42592,-0.0192 -0.83257,-0.0391 -1.2265,-0.0592 -0.91073,-0.041 0.78993,0.003 -3.93763,0.0578 -0.73378,0.008 6.33877,-0.25923 6.78119,-0.27776 1.35857,-0.0707 1.57887,-0.10671 4.07117,-0.1908 4.21828,-0.12602 7.29865,-0.19809 7.70786,-0.28376 -51.107145,-4.24162 -19.57917,0.34258 -19.01181,0.44731 2.89935,0.38886 -28.219927,-5.31579 -0.0128,2.8e-4 0.0587,0.003 0.12242,0.007 0.1835,0.009 0.021,6.5e-4 0.0414,0.003 0.0599,0.004 0,0 -9.5157,-1.84776 -9.5157,-1.84776 l 0,0 c -0.0656,-0.001 -0.23451,-0.004 -0.21583,-0.006 24.15713,4.83771 0.56639,0.0294 -0.0128,3.4e-4 12.28534,2.40893 18.95387,2.3038 -18.522276,0.4886 -0.110433,-0.005 0.867595,0.0144 0.630846,0.008 2.370093,0.0311 10.333199,-0.22391 6.053811,-0.092 -3.391032,0.10831 -8.560013,0.26402 -9.729763,0.35059 -1.842672,0.16795 -6.016625,0.23176 -11.955118,0.44104 -0.328367,0.0112 0.17974,0.01 0.270217,0.0145 0.413869,0.0192 0.814425,0.0387 1.19723,0.0587 10.517377,0.46749 20.194136,0.95672 29.802813,1.44758 0.46577,0.0213 0.89891,0.0434 1.42301,0.0632 9.33679,0.46558 25.63481,0.81219 -26.842167,-1.30428 0.736637,0.0305 1.31205,0.073 3.297967,0.0657 0.322118,0.0473 1.266596,0.0923 -0.612611,0.17728 -27.459128,1.29886 131.132021,-6.22397 24.173571,1.5351 -3.266746,0.23699 -36.038277,-1.72401 -25.754022,-1.27599 1.397599,0.0553 2.538421,0.11182 1.897628,0.21619 -0.272704,0.18938 -4.39167,0.45431 -2.692415,0.60236 -0.09966,0.17915 3.794381,0.25901 5.163089,0.40416 1.685222,0.16637 1.271907,0.3802 -0.286858,0.61748 0.94734,0.15959 0.05547,0.35758 3.495471,0.4566 1.727106,0.0969 2.94131,0.2079 2.537834,0.35457 -0.06599,0.0244 -0.13326,0.0488 -0.200081,0.0732 -0.481583,0.0314 -1.315328,0.0692 -1.444054,0.0944 -0.37523,0.0732 2.960993,0.0714 2.975601,0.13655 1.205698,0.0491 3.058992,0.0879 3.14264,0.16268 -0.30841,0.057 0.10004,0.0646 -2.012613,0.15197 -0.839209,0.0346 -2.87718,0.0895 -2.613256,0.1047 5.812305,0.33464 18.935846,0.94234 28.800856,1.39936 0.91134,0.0429 1.78634,0.0868 2.6908,0.12979 1.09694,0.0497 2.14428,0.1005 3.21768,0.15072 -47.780531,-2.32122 -33.495795,-1.60592 -22.774767,-1.11708 1.818427,0.10937 3.320427,0.22676 3.655327,0.3717 0.9228,0.22701 1.47376,0.45758 6.3037,0.59009 3.1697,0.15814 6.40614,0.31493 8.57621,0.49818 0.76968,0.0765 1.78745,0.1506 1.68837,0.24731 -0.0293,0.0277 -0.78176,0.0714 -0.44824,0.0906 13.75428,0.79124 18.14425,1.00494 28.28991,1.50208 10.26089,0.49666 25.0943,1.23488 -21.97172,-1.06836 2.42563,0.11507 4.75816,0.23254 7.18388,0.34763 2.68341,0.13059 5.41045,0.26008 8.02271,0.39252 12.03482,0.57819 23.33046,1.17551 36.10586,1.73461 3.47247,0.13633 6.94283,0.27377 12.36503,0.35683 0.79873,0.0137 4.31504,0.0739 4.96438,0.0866 0.80035,0.0156 2.77484,0.0739 2.29911,0.0495 -8.51344,-0.43498 -17.60922,-0.85505 -26.42308,-1.28233 -0.47521,-0.023 0.93667,0.0465 1.40495,0.0697 9.68361,0.47093 19.36112,0.94202 29.04484,1.41293 2.86638,0.13346 5.63481,0.26962 9.10326,0.38737 3.68824,0.11433 7.87203,0.21456 13.29414,0.28008 4.32629,0.0846 6.50993,0.22904 12.08998,0.27844 5.13254,0.0447 12.26055,0.0227 17.64522,0.0596 5.69895,0.0307 10.58483,0.0895 14.50029,0.17327 6.74235,0.13872 14.97447,0.232 24.86283,0.27652 9.11526,0.0414 20.23267,0.0203 25.78188,0.17173 6.26995,0.11477 12.79934,0.2221 19.1877,0.33339 8.23747,0.0919 18.16957,0.13177 25.95103,0.23767 9.63421,0.11316 19.46257,0.22064 29.67503,0.31634 13.1133,0.11638 27.75182,0.18659 43.63392,0.21455 14.41976,0.0366 26.06382,0.1607 39.22189,0.23769 17.2101,0.0937 36.11324,0.13325 56.62085,0.11773 23.98568,-0.0221 47.73838,-0.0354 73.41364,-0.11718 19.63575,-0.039 37.86169,-0.0292 57.77868,-0.0782 13.03118,-0.0462 27.0342,-0.12515 37.50425,-0.0812 0,0 -13.6781,-1.72624 -13.6781,-1.72624 z" />
  </g>
  <g
     inkscape:groupmode="layer"
     id="layer11"
     inkscape:label="Layer">
    <rect
       style="opacity:0.27983542000000000;fill:#b3b3b3;fill-opacity:1;fill-rule:nonzero;stroke:none"
       id="rect8340"
       width="580.38391"
       height="12.414629"
       x="70.349564"
       y="132.64507" />
    <rect
       style="opacity:0.19341562000000001;fill:#000000;fill-opacity:1;fill-rule:nonzero;stroke:none"
       id="rect8342"
       width="632.11151"
       height="4.1382098"
       x="71.384117"
       y="142.9906" />
    <path
       style="fill:#b3b3b3;fill-opacity:0.83817426;fill-rule:nonzero;stroke:url(#linearGradient9082);stroke-opacity:1"
       d="m 529.66453,272.7305 c -3.27541,0.0873 -8.95728,0.43402 -17.97059,1.10857 -0.55163,0.11748 -0.6318,0.46987 -0.78767,0.90436 -0.39085,0.17541 -0.73697,0.29974 -1.13775,0.0292 -1.00027,0.0436 -1.98374,0.15417 -2.97565,0.29173 -1.7055,0.2533 -3.40603,0.71462 -5.13445,0.7585 -2.04437,0.0975 -4.07767,0.26701 -6.09716,0.61263 -0.67717,0.10495 -2.72734,0.25696 -2.04212,0.26256 1.824,0.0157 2.33913,0.0171 3.88002,0.0292 -2.59926,-2e-4 -5.18995,3.2e-4 -7.7892,0 -2.08424,0.014 -4.18975,-0.0119 -6.2722,0.0875 -2.00865,0.12882 -3.99182,0.42237 -5.98047,0.72933 -0.70264,0.0816 -0.72706,0.0933 -1.16692,0.14586 -1.70367,-7e-5 -3.40162,9e-5 -5.10528,0 -1.96636,0.002 -3.95805,-0.0233 -5.92213,0.0875 -2.39263,0.14094 -4.77623,0.37166 -7.14739,0.72933 -2.97578,0.31653 -5.94565,0.23537 -8.92695,0.49594 -3.14763,0.26071 -6.31478,0.73743 -9.48123,0.6418 -3.26382,0.008 -6.51116,0.0187 -9.77296,0.14587 -3.39414,0.15302 -6.77387,0.39385 -10.15222,0.7585 -2.4716,0.0702 -4.96755,0.005 -7.43912,0.0875 -2.3472,0.0898 -4.68924,0.20159 -7.00153,0.6418 -0.40005,0.079 -1.4119,0.21088 -1.66286,0.26256 -0.9249,1.6e-4 -1.84653,-6.5e-4 -2.77144,0 -14.37752,0.0111 -5.14229,0.002 -5.77626,0 -2.16222,0.002 -4.34337,0.008 -6.50558,0 -7.33142,-0.0283 -14.6671,-0.14431 -21.99646,0.0292 -1.47552,0.0775 -2.94997,0.23316 -4.40513,0.49594 -0.7559,0.13722 -2.68951,0.3277 -3.034,0.40843 -0.0287,0.007 -0.0534,-0.005 -0.0583,0 -2.60137,10e-4 -5.21707,0.007 -7.81837,0.0292 -2.33557,0.0325 -4.64918,0.0503 -6.97236,0.3209 -2.50833,0.30762 -4.98467,0.81064 -7.46829,1.25444 -1.65826,-0.16811 -3.30322,-0.43577 -4.93024,-0.81684 -0.98135,-0.24286 -1.94375,-0.6007 -2.94648,-0.72933 -6.59583,-0.84583 -21.70201,4.48078 -23.13421,0 -2.14871,0 -4.29853,7.3e-4 -6.44724,0 -1.43658,-0.004 -2.88101,-0.032 -4.31761,-0.0292 -4.97918,0.002 8.04648,-0.004 13.88636,0 -1.03939,-0.0232 -2.09101,-0.0895 -3.12151,-0.23338 -1.71319,-0.22523 -3.29934,-0.86731 -5.04693,-0.72933 -2.04636,-0.0565 -4.10633,-0.20196 -6.12634,-0.55429 -6.86245,-1.22804 -13.88333,-0.51038 -20.85871,-0.40842 -0.0774,0.001 -0.15601,-9.7e-4 -0.23339,0 -1.13733,-0.0142 -2.27698,-0.0335 -3.41324,-0.0875 -2.09097,-0.11976 -4.17135,-0.40072 -6.21386,-0.87519 -1.95869,-0.002 -3.90511,0.0117 -5.86377,0 -4.69288,-0.009 -9.3977,-0.003 -14.09057,0 -1.34233,7e-5 -2.68355,-1.6e-4 -4.02588,0 -1.04664,-0.008 -2.07528,-0.0262 -3.12151,-0.0584 -2.45604,-0.0922 -4.92476,-0.23441 -7.35161,-0.6418 l -17.91228,2.53806 c 2.51616,0.39597 5.04378,0.65438 7.58499,0.81685 2.03689,0.1167 4.08675,0.15235 6.12634,0.17503 6.97004,0.0332 13.94701,0.002 20.91706,0 2.08804,0.0289 4.13993,0.4799 6.21385,0.70016 2.28567,0.20261 4.56277,0.21555 6.85566,0.23338 5.53028,0.041 11.06897,0.0701 16.59945,0.0583 0.41154,0.0489 0.40522,0.0449 1.02106,0.11669 2.02545,0.32747 4.04963,0.56795 6.09716,0.70015 1.70524,-0.054 3.35551,0.23243 5.01776,0.55429 1.3505,0.25501 2.7134,0.41183 4.08423,0.49594 4.26187,0.1466 8.51273,0.12064 12.77778,0.0875 -1.53555,0.18039 -0.0526,0.44596 8.98529,0.23338 -0.83576,-0.13147 -1.76035,-0.20786 -2.71309,-0.26255 -2.06904,0.0138 -4.14456,0.013 -6.21385,0.0292 1.14239,-0.12478 3.7202,-0.17234 6.21385,-0.0292 0.62175,-0.004 1.2454,-0.0269 1.86708,-0.0292 1.39269,-0.004 2.77904,0.005 4.17174,0 2.1186,-0.002 4.24111,-1.9e-4 6.35972,0 -3.92031,0.14967 -7.10278,0.23099 -9.68545,0.29173 0.13425,0.0211 0.2798,0.0349 0.40843,0.0583 3.29662,0.78119 6.66115,1.14789 10.03552,1.37113 9.46931,0.41569 18.98002,0.0199 28.4437,-0.14586 3.0435,-0.71686 6.10363,-1.21073 9.21868,-1.45865 1.17918,-0.0761 2.37783,-0.0997 3.5591,-0.1167 -2.26794,-0.002 -5.11714,1.9e-4 -8.95611,0 6.89611,0.0167 13.78698,-0.0876 20.68367,-0.23338 0.88457,-0.0187 1.88315,-0.38228 2.77144,-0.49594 1.48365,-0.21013 2.99714,-0.22078 4.49265,-0.23339 2.14379,-2e-5 -0.0507,-4.6e-4 2.65474,0 5.36106,-0.007 10.71329,-0.003 16.07434,0 6.67813,0.1139 13.41111,0.71035 19.95435,-0.61263 2.28112,-0.24767 4.5632,-0.31273 6.85566,-0.35008 2.4504,-0.072 4.9201,0.13431 7.3516,-0.20421 3.31757,-0.46672 6.66157,-0.62767 10.00635,-0.72932 3.27828,-0.0808 6.55231,-0.0565 9.83131,-0.0583 3.16708,-0.0457 6.3173,-0.55518 9.48124,-0.7585 3.03395,-0.0934 6.0372,-0.16265 9.04363,-0.58346 2.40135,-0.37798 4.8089,-0.48408 7.23492,-0.55429 1.95688,-0.0348 3.93581,-0.031 5.89295,-0.0292 -4.51605,1.2e-4 -9.04941,-2.5e-4 -13.56546,0 6.2594,-0.0673 12.49976,-0.0777 18.75826,-0.20421 0.36914,-0.007 0.74465,-0.11268 1.10857,-0.17504 1.98236,-0.34357 3.97208,-0.505 5.98047,-0.55429 2.09441,-0.0386 4.20671,-0.0405 6.30138,-0.0292 -4.98623,-1.9e-4 -9.97954,3.6e-4 -14.96577,0 6.28622,-0.0667 12.56054,-0.0744 18.84578,-0.20421 0.70049,-0.0145 1.37988,-0.26592 2.07128,-0.37925 2.02329,-0.27746 4.05814,-0.34368 6.09717,-0.37925 1.69634,-0.48829 3.43634,-0.74098 5.19279,-0.87519 1.03429,-0.0892 2.08445,-0.10647 3.12152,-0.0875 0.31231,-0.30554 0.60799,-0.61181 0.90436,-0.93354 -11.39747,0.013 -16.8935,0.21345 -16.42441,-0.0583 0.814,-0.11851 12.01301,-1.62926 17.79554,-2.74227 -0.59311,0.69664 0.33219,3.94753 0.35008,0.7585 -0.005,-0.27002 -0.0395,-0.5231 -0.0875,-0.78767 3.59619,-0.70432 4.8007,-1.25361 -0.6418,-1.10857 z m -0.99189,3.93835 c 0.48053,-5.5e-4 0.81088,-1.9e-4 1.31279,0 0.0704,3e-5 -0.31517,-0.0653 -0.20421,-0.0583 -0.80981,-0.10903 -0.34848,-1.10453 -0.61264,-0.52512 -0.13762,0.21914 -0.32202,0.39467 -0.49594,0.58346 z m -163.22309,8.66439 c 5.25248,0.005 7.6827,-0.008 3.52994,-0.0292 -1.18108,-0.005 -2.34866,0.0121 -3.52994,0.0292 z m -56.5665,-2.82978 c 0.353,0.008 0.69731,0.0286 1.05023,0.0292 3.20772,-0.0159 1.66023,-0.0275 -1.05023,-0.0292 z"
       id="path9069" />
    <flowRoot
       xml:space="preserve"
       id="flowRoot9043"
       style="font-size:40px;font-style:normal;font-variant:normal;font-weight:normal;font-stretch:normal;fill:#000000;fill-opacity:1;stroke:none;font-family:Geneva CY;-inkscape-font-specification:Geneva CY"
       transform="matrix(1.3885263,0,0,0.62724078,28.233922,123.54098)"><flowRegion
         id="flowRegion9045"><rect
           id="rect9047"
           width="226.56699"
           height="96.213379"
           x="188.28854"
           y="196.78732"
           style="font-style:normal;font-variant:normal;font-weight:normal;font-stretch:normal;font-family:Geneva CY;-inkscape-font-specification:Geneva CY" /></flowRegion><flowPara
         id="flowPara9049"
         style="font-style:normal;font-variant:normal;font-weight:normal;font-stretch:normal;font-family:Gill Sans;-inkscape-font-specification:Gill Sans">VARFU</flowPara></flowRoot>  </g>
</svg>
