<?xml version="1.0" encoding="UTF-8" standalone="no"?>
<!-- Created with Inkscape (http://www.inkscape.org/) -->

<svg
   xmlns:dc="http://purl.org/dc/elements/1.1/"
   xmlns:cc="http://creativecommons.org/ns#"
   xmlns:rdf="http://www.w3.org/1999/02/22-rdf-syntax-ns#"
   xmlns:svg="http://www.w3.org/2000/svg"
   xmlns="http://www.w3.org/2000/svg"
   xmlns:sodipodi="http://sodipodi.sourceforge.net/DTD/sodipodi-0.dtd"
   xmlns:inkscape="http://www.inkscape.org/namespaces/inkscape"
   width="744.09448819"
   height="1052.3622047"
   id="svg5993"
   version="1.1"
   inkscape:version="0.47 r22583"
   sodipodi:docname="New document 16">
  <defs
     id="defs5995">
    <inkscape:perspective
       sodipodi:type="inkscape:persp3d"
       inkscape:vp_x="0 : 526.18109 : 1"
       inkscape:vp_y="0 : 1000 : 0"
       inkscape:vp_z="744.09448 : 526.18109 : 1"
       inkscape:persp3d-origin="372.04724 : 350.78739 : 1"
       id="perspective6001" />
  </defs>
  <sodipodi:namedview
     id="base"
     pagecolor="#ffffff"
     bordercolor="#666666"
     borderopacity="1.0"
     inkscape:pageopacity="0.0"
     inkscape:pageshadow="2"
     inkscape:zoom="1.0007813"
     inkscape:cx="416.50944"
     inkscape:cy="702.42412"
     inkscape:document-units="px"
     inkscape:current-layer="layer1"
     showgrid="false"
     inkscape:window-width="1117"
     inkscape:window-height="901"
     inkscape:window-x="479"
     inkscape:window-y="8"
     inkscape:window-maximized="0" />
  <metadata
     id="metadata5998">
    <rdf:RDF>
      <cc:Work
         rdf:about="">
        <dc:format>image/svg+xml</dc:format>
        <dc:type
           rdf:resource="http://purl.org/dc/dcmitype/StillImage" />
        <dc:title></dc:title>
      </cc:Work>
    </rdf:RDF>
  </metadata>
  <g
     inkscape:label="Layer 1"
     inkscape:groupmode="layer"
     id="layer1">
    <path
       style="fill:#eeeeec;fill-opacity:1;fill-rule:nonzero;stroke:none"
       d="m 728.22748,26.182792 c -5.40589,8.605684 -10.02339,17.692119 -15.8125,26.0625 -7.57602,11.353444 -14.97203,22.829418 -21.6875,34.718748 -6.27954,11.22593 -12.27744,22.60873 -19.03125,33.5625 -6.78778,10.62049 -14.05391,20.93819 -22.09375,30.65625 -8.52885,10.06844 -17.50525,19.71243 -27.3125,28.5625 -10.76258,10.02931 -21.58884,19.98233 -33.125,29.125 -12.70437,9.86139 -25.67885,19.38728 -39.0625,28.3125 -13.39564,9.02493 -26.93475,17.84348 -40.53125,26.5625 -11.37357,7.29774 -22.75695,14.59347 -33.65625,22.59375 -8.55597,6.21169 -17.05184,12.51906 -25.40625,19 -7.14835,5.2293 -14.41547,10.31849 -21.0625,16.1875 -6.1289,5.45234 -12.244,10.9373 -17.75,17.03125 -7.18821,8.19175 -13.9587,16.76216 -19.53125,26.15625 -7.52182,12.57444 -14.35793,25.59436 -19.71875,39.25 -5.91701,15.37854 -10.7931,31.14035 -14.4375,47.21875 -2.74223,11.61078 -5.37518,23.25861 -6.75,35.125 -0.45496,4.87771 -1.08655,9.93982 0.75,14.625 l 18.71875,-1.21875 c -2.63661,-3.80719 -2.00516,-8.91184 -1.8125,-13.28125 0.78273,-11.76648 2.88213,-23.37238 5.25,-34.90625 3.28742,-16.08007 8.28575,-31.73566 14.34375,-46.96875 5.43876,-13.61106 12.41745,-26.53233 20.1875,-38.9375 5.80416,-9.31423 12.78104,-17.77136 20.25,-25.78125 5.6641,-5.94791 11.82979,-11.3658 17.96875,-16.8125 6.58335,-5.77733 13.74633,-10.88786 20.78125,-16.09375 8.20346,-6.53115 16.59472,-12.8067 25.03125,-19.03125 10.66268,-8.01596 21.87934,-15.25786 33.03125,-22.5625 13.47313,-8.77191 26.89044,-17.60341 40.21875,-26.59375 13.43552,-8.96044 26.46972,-18.4996 39.21875,-28.40625 11.60525,-9.21671 22.58903,-19.1629 33.4375,-29.25 9.94285,-8.8576 18.9735,-18.59657 27.5625,-28.75 8.09698,-9.75414 15.3447,-20.15584 22.09375,-30.875 6.69436,-11.01867 12.81521,-22.38291 19.0625,-33.65625 6.6292,-11.87756 13.89604,-23.384604 21.59375,-34.593748 5.99267,-8.44055 10.80065,-17.633278 16.9375,-25.96875 l -17.65625,-1.0625 z"
       id="path6009"
       sodipodi:nodetypes="ccccccccccccccccccccccccccccccccccccc" />
    <path
       style="fill:#0088e8;fill-opacity:1;fill-rule:nonzero;stroke:none"
       id="path6014"
       d="m 334.28632,792.38338 c 0.49514,-5.6045 0.76685,-11.9145 1.08165,-18.0606 0.44516,-8.0124 0.72677,-16.2285 1.12797,-24.3055 0.44834,-9.0471 0.90102,-18.0803 1.28485,-27.2185 0.52355,-9.78515 1.06619,-19.50091 1.49549,-29.44878 0.20375,-5.96339 0.54746,-11.7178 0.8277,-17.58387 0.35553,-8.02286 0.62251,-16.12478 0.88139,-24.19965 0.2621,-8.16005 0.52152,-16.32127 0.77163,-24.48183 0.21117,-7.31207 0.44916,-14.62113 0.69053,-21.93225 0.27816,-8.76995 0.56514,-17.53692 0.83025,-26.30708 0.36539,-10.84379 0.71403,-21.68706 1.05069,-32.53369 0.28891,-8.41391 0.47482,-16.72043 0.61909,-25.04762 0.24744,-8.72174 0.23708,-17.07436 0.3317,-25.59552 0.16205,-10.58718 0.37686,-21.20747 0.62856,-31.88418 0.24084,-10.60965 0.5736,-21.23805 0.7686,-31.81173 0.17025,-8.29705 0.30409,-16.54966 0.45937,-24.83158 0.18253,-8.47338 0.24434,-16.77649 0.40661,-25.23288 0.17766,-8.19056 0.33326,-16.39784 0.44959,-24.52428 0.12128,-8.40984 0.22923,-16.80848 0.37255,-25.24881 0.16875,-8.83111 0.18589,-16.8083 0.0911,-25.00965 -0.0902,-5.61858 -0.15406,-11.31763 -0.14236,-17.24601 0.0373,-8.11034 0.14625,-16.31197 0.26724,-24.57262 0.15801,-9.64614 0.22811,-19.14169 0.39277,-28.80253 0.19271,-7.61527 0.24841,-14.9601 0.22925,-22.19026 -0.11481,-7.8971 -0.046,-16.32524 -0.0734,-24.4769 0.008,-8.05863 0.0579,-16.21186 0.0888,-24.32152 0.0232,-8.08286 -0.0502,-15.97133 -0.26044,-23.27466 -0.0752,-5.76921 -0.16944,-11.52014 -0.17448,-17.51144 0.0891,-6.13754 -0.18383,-10.57462 -0.38776,-15.53214 -0.13792,-5.51525 -0.29333,-11.030381 -0.37866,-16.747091 -0.006,-0.97639 0.002,-2.00233 -0.0177,-2.92916 -0.0337,-1.54893 -0.1373,-2.76703 -0.17704,-4.29054 -0.0665,-2.55355 -0.1222,-5.18928 -0.18419,-7.77228 -0.0105,-4.14439 -0.25561,-7.25013 -0.31666,-11.12989 -0.074,-3.63111 -0.11818,-7.36205 -0.23695,-10.80507 -0.024,-2.6954 -0.0778,-5.1553 -0.19322,-7.43421 -0.0549,-1.79002 0.0219,-4.1728 -0.0248,-5.95925 -0.03,-1.15083 -0.12151,-1.97581 -0.16977,-3.03603 -0.14643,-4.76723 -0.3659,-9.14019 -0.54751,-13.71244 -0.1231,-2.51644 -0.0519,-4.57348 -0.39835,-4.75732 -0.11915,0.11745 -0.0604,-2.42875 -0.0583,-3.39427 0,0 5.48384,-1.77815 5.48384,-1.77815 l 0,0 c 0.0864,0.25697 0.0702,-1.23894 0.1326,-0.1161 0.15039,2.0941 0.17297,4.84183 0.27407,7.21861 0.19071,4.50369 0.34768,9.1875 0.5558,13.59647 0.1257,2.8879 0.15769,6.09267 0.23984,9.15527 0.0733,2.52527 0.0966,5.20695 0.15369,7.7941 0.0852,3.60085 0.13837,7.32324 0.22931,10.90186 0.14444,3.5079 0.2231,7.33292 0.2861,11.1985 0.12787,5.05562 0.30464,9.92187 0.36625,15.23404 0.11781,5.34048 0.18831,10.906081 0.38628,15.891671 0.23578,5.28433 0.41703,10.72107 0.37774,17.10687 0.002,5.6948 0.0601,11.24741 0.15462,16.64648 0.1321,7.91506 0.22912,15.96806 0.21433,24.34086 -0.0294,8.01607 -0.10271,16.13475 -0.0944,24.06577 0.0104,8.19599 -0.0179,16.50701 0.0872,24.43242 0.0289,7.52315 -0.0617,15.24113 -0.25919,23.1601 -0.19486,9.58471 -0.2904,19.02403 -0.43311,28.54398 -0.0887,8.05058 -0.14488,16.03871 -0.1598,23.94165 0.0258,5.70204 0.049,11.41151 0.12946,16.94508 0.046,8.51138 -0.023,17.17011 -0.16235,26.0758 -0.12418,8.39947 -0.22391,16.75847 -0.35657,25.17022 -0.11564,8.21302 -0.28015,16.51568 -0.4408,24.77989 -0.17235,8.41524 -0.26027,16.72303 -0.42922,25.13422 -0.13674,8.30165 -0.26081,16.56915 -0.46869,24.94505 -0.23076,10.63165 -0.57231,21.28329 -0.83442,31.93557 -0.22977,10.49642 -0.37899,20.90027 -0.55067,31.33315 -0.0881,8.63214 -0.0796,17.10576 -0.30279,25.92992 -0.16224,8.55574 -0.38791,17.04756 -0.71631,25.66302 -0.34659,10.84631 -0.68003,21.69004 -0.99633,32.53538 -0.28661,8.76911 -0.55079,17.53642 -0.82483,26.3061 -0.21653,7.31053 -0.43835,14.6189 -0.68716,21.92881 -0.26005,8.18067 -0.51301,16.36171 -0.77746,24.54222 -0.27601,8.26018 -0.54414,16.52618 -0.87465,24.76424 -0.25041,5.95674 -0.57506,11.75566 -0.84647,17.68474 -0.4977,9.77676 -1.01035,19.51635 -1.54649,29.21482 -0.39053,9.2465 -0.79441,18.4805 -1.22426,27.6736 -0.43492,8.0295 -0.7556,16.1685 -1.14114,24.2767 -0.32851,6.3919 -0.57674,12.9899 -1.03644,19.0689 0,0 -5.31468,-2.0883 -5.31468,-2.0883 z"
       inkscape:transform-center-y="30.441256"
       inkscape:transform-center-x="11.71224" />
    <path
       style="fill:#2e3436;fill-opacity:1;fill-rule:nonzero;stroke:none"
       d="m -16.389318,10.551462 c 0.95459,0.321749 1.920017,0.723425 2.880899,0.938229 2.963547,0.662403 9.9697256,1.249157 12.3140416,1.546776 13.8170264,1.753975 27.6097324,3.48923 41.4362714,4.895934 57.817166,2.856271 115.660796,4.134898 173.484076,6.517235 71.74136,2.612169 143.46721,5.950979 215.21539,7.526349 53.54591,2.6276 107.11348,-1.04207 160.6332,-4.272252 38.52027,-2.402411 77.05287,-2.294515 115.58522,-2.48453 27.091,0.354656 54.14192,-0.268734 81.21612,2.145925 7.90911,0.773369 15.81667,2.181607 23.69379,3.870577 l 11.91359,-58.642488 c -8.13238,-0.443941 -16.23051,-0.779731 -24.36546,-0.89929 -27.41265,0.119925 -54.80248,1.538914 -82.21201,2.259816 -38.85118,1.869732 -77.75614,3.072455 -116.58111,6.890271 -53.99822,5.213041 -107.96799,12.3463434 -162.04233,12.0551594 -71.82929,0.853039 -143.6743,-1.113546 -215.46951,-6.1438484 C 164.40474,-17.948327 107.44563,-22.169538 50.699414,-32.977733 32.910793,-37.396674 14.921845,-41.457046 -2.4699694,-51.026359 L -16.389318,10.551462 z"
       id="path6018" />
  </g>
</svg>
