<?xml version="1.0" encoding="UTF-8" standalone="no"?>
<!-- Created with Inkscape (http://www.inkscape.org/) -->

<svg
   xmlns:dc="http://purl.org/dc/elements/1.1/"
   xmlns:cc="http://creativecommons.org/ns#"
   xmlns:rdf="http://www.w3.org/1999/02/22-rdf-syntax-ns#"
   xmlns:svg="http://www.w3.org/2000/svg"
   xmlns="http://www.w3.org/2000/svg"
   xmlns:sodipodi="http://sodipodi.sourceforge.net/DTD/sodipodi-0.dtd"
   xmlns:inkscape="http://www.inkscape.org/namespaces/inkscape"
   width="744.09448819"
   height="1052.3622047"
   id="svg2"
   version="1.1"
   inkscape:version="0.47pre1 r21720"
   sodipodi:docname="2009Aug11ThrLayout12d.svg"
   inkscape:output_extension="org.inkscape.output.svg.inkscape">
  <defs
     id="defs4">
    <marker
       inkscape:stockid="CurveOut"
       orient="auto"
       refY="0.0"
       refX="0.0"
       id="CurveOut"
       style="overflow:visible">
      <path
         id="path4086"
         d="M -5.4129913,-5.0456926 C -2.6529913,-5.0456926 -0.41299131,-2.8056926 -0.41299131,-0.045692580 C -0.41299131,2.7143074 -2.6529913,4.9543074 -5.4129913,4.9543074"
         style="fill:none;fill-rule:evenodd;stroke:#000000;stroke-width:1.0pt;marker-start:none;marker-end:none"
         transform="scale(0.6)" />
    </marker>
    <marker
       inkscape:stockid="Scissors"
       orient="auto"
       refY="0.0"
       refX="0.0"
       id="Scissors"
       style="overflow:visible">
      <path
         id="schere"
         style="marker-start:none"
         d="M 9.0898857,-3.6061018 C 8.1198849,-4.7769976 6.3697607,-4.7358294 5.0623558,-4.2327734 L -3.1500488,-1.1548705 C -5.5383421,-2.4615840 -7.8983361,-2.0874077 -7.8983361,-2.7236578 C -7.8983361,-3.2209742 -7.4416699,-3.1119800 -7.5100293,-4.4068519 C -7.5756648,-5.6501286 -8.8736064,-6.5699315 -10.100428,-6.4884954 C -11.327699,-6.4958500 -12.599867,-5.5553341 -12.610769,-4.2584343 C -12.702194,-2.9520479 -11.603560,-1.7387447 -10.304005,-1.6532027 C -8.7816644,-1.4265411 -6.0857470,-2.3487593 -4.8210600,-0.082342643 C -5.7633447,1.6559151 -7.4350844,1.6607341 -8.9465707,1.5737277 C -10.201445,1.5014928 -11.708664,1.8611256 -12.307219,3.0945882 C -12.885586,4.2766744 -12.318421,5.9591904 -10.990470,6.3210002 C -9.6502788,6.8128279 -7.8098011,6.1912892 -7.4910978,4.6502760 C -7.2454393,3.4624530 -8.0864637,2.9043186 -7.7636052,2.4731223 C -7.5199917,2.1477623 -5.9728246,2.3362771 -3.2164999,1.0982979 L 5.6763468,4.2330688 C 6.8000164,4.5467672 8.1730685,4.5362646 9.1684433,3.4313614 L -0.051640930,-0.053722219 L 9.0898857,-3.6061018 z M -9.2179159,-5.5066058 C -7.9233569,-4.7838060 -8.0290767,-2.8230356 -9.3743431,-2.4433169 C -10.590861,-2.0196559 -12.145370,-3.2022863 -11.757521,-4.5207817 C -11.530373,-5.6026336 -10.104134,-6.0014137 -9.2179159,-5.5066058 z M -9.1616516,2.5107591 C -7.8108215,3.0096239 -8.0402087,5.2951947 -9.4138723,5.6023681 C -10.324932,5.9187072 -11.627422,5.4635705 -11.719569,4.3902287 C -11.897178,3.0851737 -10.363484,1.9060805 -9.1616516,2.5107591 z " />
    </marker>
    <marker
       style="overflow:visible"
       inkscape:stockid="InfiniteLineStart"
       id="InfiniteLineStart"
       refX="0"
       refY="0"
       orient="auto">
      <g
         id="g4143"
         transform="translate(-13,0)">
        <circle
           d="M 3.8,0 C 3.8,0.44182781 3.4418278,0.80000001 3,0.80000001 2.5581722,0.80000001 2.2,0.44182781 2.2,0 c 0,-0.44182781 0.3581722,-0.80000001 0.8,-0.80000001 0.4418278,0 0.8,0.3581722 0.8,0.80000001 z"
           id="circle4145"
           r="0.8"
           cy="0"
           cx="3" />
        <circle
           d="M 7.3,0 C 7.3,0.44182781 6.9418278,0.80000001 6.5,0.80000001 6.0581722,0.80000001 5.7,0.44182781 5.7,0 c 0,-0.44182781 0.3581722,-0.80000001 0.8,-0.80000001 0.4418278,0 0.8,0.3581722 0.8,0.80000001 z"
           id="circle4147"
           r="0.8"
           cy="0"
           cx="6.5" />
        <circle
           d="M 10.8,0 C 10.8,0.44182781 10.441828,0.80000001 10,0.80000001 9.5581722,0.80000001 9.2,0.44182781 9.2,0 c 0,-0.44182781 0.3581722,-0.80000001 0.8,-0.80000001 0.441828,0 0.8,0.3581722 0.8,0.80000001 z"
           id="circle4149"
           r="0.8"
           cy="0"
           cx="10" />
      </g>
    </marker>
    <marker
       inkscape:stockid="Torso"
       orient="auto"
       refY="0.0"
       refX="0.0"
       id="Torso"
       style="overflow:visible">
      <g
         id="g4111"
         transform="scale(0.7)">
        <path
           id="path4113"
           d="M -4.7792281,-3.2395420 C -2.4288541,-2.8736027 0.52103922,-1.3019943 0.25792722,0.38794346 C -0.0051877922,2.0778819 -2.2126741,2.6176539 -4.5630471,2.2517169 C -6.9134221,1.8857769 -8.5210350,0.75201414 -8.2579220,-0.93792336 C -7.9948090,-2.6278615 -7.1296041,-3.6054813 -4.7792281,-3.2395420 z "
           style="fill:none;fill-opacity:0.75000000;fill-rule:evenodd;stroke:#000000;stroke-width:1.2500000;marker-start:none;marker-mid:none;marker-end:none" />
        <path
           id="path4115"
           d="M 4.4598789,0.088665736 C -2.5564571,-4.3783320 5.2248769,-3.9061806 -0.84829578,-8.7197331"
           style="fill:none;fill-opacity:0.75000000;fill-rule:evenodd;stroke:#000000;stroke-width:1.0000000pt;marker-end:none" />
        <path
           id="path4117"
           d="M 4.9298719,0.057520736 C -1.3872731,1.7494689 1.8027579,5.4782079 -4.9448731,7.5462725"
           style="fill:none;fill-opacity:0.75000000;fill-rule:evenodd;stroke:#000000;stroke-width:1.0000000pt;marker-start:none;marker-end:none" />
        <rect
           id="rect4119"
           transform="matrix(0.527536,-0.849533,0.887668,0.460484,0,0)"
           y="-1.7408575"
           x="-10.391706"
           height="2.7608147"
           width="2.6366582"
           style="fill-rule:evenodd;stroke-width:1.0000000pt;marker-end:none" />
        <rect
           id="rect4121"
           transform="matrix(0.671205,-0.741272,0.790802,0.612072,0,0)"
           y="-7.9629307"
           x="4.9587269"
           height="2.8614161"
           width="2.7327356"
           style="fill-rule:evenodd;stroke-width:1.0000000pt;marker-end:none" />
        <path
           id="path4123"
           transform="matrix(0,-1.109517,1.109517,0,25.96648,19.71619)"
           d="m 16.779951,-28.685045 c 0,0.335412 -0.271905,0.607317 -0.607317,0.607317 -0.335412,0 -0.607317,-0.271905 -0.607317,-0.607317 0,-0.335412 0.271905,-0.607318 0.607317,-0.607318 0.335412,0 0.607317,0.271906 0.607317,0.607318 z"
           sodipodi:ry="0.60731727"
           sodipodi:rx="0.60731727"
           sodipodi:cy="-28.685045"
           sodipodi:cx="16.172634"
           style="fill:#ff0000;fill-opacity:0.75000000;fill-rule:evenodd;stroke:#000000;stroke-width:1.0000000pt;marker-start:none;marker-end:none"
           sodipodi:type="arc" />
        <path
           id="path4125"
           transform="matrix(0,-1.109517,1.109517,0,26.82450,16.99126)"
           d="m 16.779951,-28.685045 c 0,0.335412 -0.271905,0.607317 -0.607317,0.607317 -0.335412,0 -0.607317,-0.271905 -0.607317,-0.607317 0,-0.335412 0.271905,-0.607318 0.607317,-0.607318 0.335412,0 0.607317,0.271906 0.607317,0.607318 z"
           sodipodi:ry="0.60731727"
           sodipodi:rx="0.60731727"
           sodipodi:cy="-28.685045"
           sodipodi:cx="16.172634"
           style="fill:#ff0000;fill-opacity:0.75000000;fill-rule:evenodd;stroke:#000000;stroke-width:1.0000000pt;marker-start:none;marker-end:none"
           sodipodi:type="arc" />
      </g>
    </marker>
    <marker
       inkscape:stockid="RazorWire"
       id="RazorWire"
       refX="0"
       refY="0"
       orient="auto">
       style=&quot;overflow:visible&quot;&gt;
      <path
   id="path4131"
   transform="scale(0.8,0.8)"
   style="fill:#808080;fill-opacity:1;fill-rule:evenodd;stroke:#000000;stroke-width:0.1pt"
   d="M 0.022727273,-0.74009011 L 0.022727273,0.69740989 L -7.7585227,3.0099099 L 10.678977,3.0099099 L 3.4914773,0.69740989 L 3.4914773,-0.74009011 L 10.741477,-2.8963401 L -7.7272727,-2.8963401 L 0.022727273,-0.74009011 z " />
</marker>
    <marker
       inkscape:stockid="Arrow1Mstart"
       orient="auto"
       refY="0.0"
       refX="0.0"
       id="Arrow1Mstart"
       style="overflow:visible">
      <path
         id="path3904"
         d="M 0.0,0.0 L 5.0,-5.0 L -12.5,0.0 L 5.0,5.0 L 0.0,0.0 z "
         style="fill-rule:evenodd;stroke:#000000;stroke-width:1.0pt;marker-start:none"
         transform="scale(0.4) translate(10,0)" />
    </marker>
    <marker
       inkscape:stockid="Arrow1Lstart"
       orient="auto"
       refY="0.0"
       refX="0.0"
       id="Arrow1Lstart"
       style="overflow:visible">
      <path
         id="path3898"
         d="M 0.0,0.0 L 5.0,-5.0 L -12.5,0.0 L 5.0,5.0 L 0.0,0.0 z "
         style="fill-rule:evenodd;stroke:#000000;stroke-width:1.0pt;marker-start:none"
         transform="scale(0.8) translate(12.5,0)" />
    </marker>
    <inkscape:perspective
       sodipodi:type="inkscape:persp3d"
       inkscape:vp_x="0 : 526.18109 : 1"
       inkscape:vp_y="0 : 1000 : 0"
       inkscape:vp_z="744.09448 : 526.18109 : 1"
       inkscape:persp3d-origin="372.04724 : 350.78739 : 1"
       id="perspective10" />
    <inkscape:perspective
       id="perspective2826"
       inkscape:persp3d-origin="0.5 : 0.33333333 : 1"
       inkscape:vp_z="1 : 0.5 : 1"
       inkscape:vp_y="0 : 1000 : 0"
       inkscape:vp_x="0 : 0.5 : 1"
       sodipodi:type="inkscape:persp3d" />
    <inkscape:perspective
       id="perspective2887"
       inkscape:persp3d-origin="0.5 : 0.33333333 : 1"
       inkscape:vp_z="1 : 0.5 : 1"
       inkscape:vp_y="0 : 1000 : 0"
       inkscape:vp_x="0 : 0.5 : 1"
       sodipodi:type="inkscape:persp3d" />
    <inkscape:perspective
       id="perspective2954"
       inkscape:persp3d-origin="0.5 : 0.33333333 : 1"
       inkscape:vp_z="1 : 0.5 : 1"
       inkscape:vp_y="0 : 1000 : 0"
       inkscape:vp_x="0 : 0.5 : 1"
       sodipodi:type="inkscape:persp3d" />
    <inkscape:perspective
       id="perspective2954-3"
       inkscape:persp3d-origin="0.5 : 0.33333333 : 1"
       inkscape:vp_z="1 : 0.5 : 1"
       inkscape:vp_y="0 : 1000 : 0"
       inkscape:vp_x="0 : 0.5 : 1"
       sodipodi:type="inkscape:persp3d" />
    <inkscape:perspective
       id="perspective3048"
       inkscape:persp3d-origin="0.5 : 0.33333333 : 1"
       inkscape:vp_z="1 : 0.5 : 1"
       inkscape:vp_y="0 : 1000 : 0"
       inkscape:vp_x="0 : 0.5 : 1"
       sodipodi:type="inkscape:persp3d" />
    <filter
       inkscape:collect="always"
       id="filter3858"
       x="-0.11727906"
       width="1.2345581"
       y="-1.2057066"
       height="3.4114132">
      <feGaussianBlur
         inkscape:collect="always"
         stdDeviation="9.9060937"
         id="feGaussianBlur3860" />
    </filter>
  </defs>
  <sodipodi:namedview
     id="base"
     pagecolor="#ffffff"
     bordercolor="#666666"
     borderopacity="1.0"
     inkscape:pageopacity="0.0"
     inkscape:pageshadow="2"
     inkscape:zoom="1"
     inkscape:cx="1214.9811"
     inkscape:cy="1233.7311"
     inkscape:document-units="px"
     inkscape:current-layer="layer1"
     showgrid="false"
     inkscape:window-width="1349"
     inkscape:window-height="1159"
     inkscape:window-x="140"
     inkscape:window-y="0"
     inkscape:window-maximized="0"
     showborder="false" />
  <metadata
     id="metadata7">
    <rdf:RDF>
      <cc:Work
         rdf:about="">
        <dc:format>image/svg+xml</dc:format>
        <dc:type
           rdf:resource="http://purl.org/dc/dcmitype/StillImage" />
        <dc:title></dc:title>
      </cc:Work>
    </rdf:RDF>
  </metadata>
  <g
     inkscape:label="Layer 1"
     inkscape:groupmode="layer"
     id="layer1"
     style="display:inline">
    <rect
       style="fill:#00a4d4;fill-opacity:1;fill-rule:nonzero;stroke:#ffffff;stroke-width:0.2815834;stroke-linejoin:bevel;stroke-opacity:1;filter:url(#filter3858)"
       id="rect2816-7"
       width="202.71841"
       height="19.718416"
       x="49.640808"
       y="13.002975"
       transform="matrix(-6.3924378e-4,3.8574039,-0.22720672,-0.0027992,1411.5693,-576.83924)" />
    <rect
       y="1566.0846"
       x="-405.23691"
       height="7.0406227"
       width="1283.249"
       id="rect3062"
       style="fill:#e6e6e6;fill-opacity:1;fill-rule:nonzero;stroke:none"
       transform="matrix(9.6012453e-5,1,0.99977399,-0.02125953,0,0)" />
    <path
       inkscape:export-xdpi="90"
       inkscape:export-ydpi="90"
       style="fill:#666666;fill-opacity:1;fill-rule:nonzero;stroke:none"
       id="path2816"
       d="m 1557.8855,-415.97164 c -1.5927,0.0154 64.1659,-34.82944 62.5794,-34.73838 -1.9845,0.0982 -3.9451,0.31978 -5.8883,0.59533 -2.5068,0.39365 -4.9788,0.87881 -7.4329,1.39429 -2.894,0.60321 -5.7678,1.24703 -8.6447,1.8838 -3.2698,0.76119 -6.515,1.56606 -9.7716,2.35081 -3.4828,0.87062 -6.9842,1.70954 -10.4825,2.55352 -3.7887,0.90306 -7.554,1.84544 -11.3673,2.70353 -4.1599,0.89717 -8.3239,1.78594 -12.4843,2.68211 -4.4774,0.9808 -8.9915,1.886 -13.5222,2.75445 -4.8294,0.90385 -9.6977,1.71462 -14.5703,2.51256 -5.0468,0.81014 -10.1186,1.54993 -15.1969,2.2694 -5.2011,0.73844 -10.4218,1.41196 -15.6535,2.04905 -5.4689,0.65467 -10.9468,1.27594 -16.433,1.8639 -5.5733,0.60307 -11.159,1.15435 -16.7472,1.69312 -5.7253,0.50438 -11.4683,0.91673 -17.2101,1.32921 -5.8316,0.37453 -11.6749,0.66513 -17.5159,0.96801 -5.8521,0.30324 -11.7175,0.48317 -17.5795,0.68259 -5.8441,0.19891 -11.6954,0.28187 -17.545,0.3864 -5.7584,0.0537 -11.5177,0.0836 -17.2769,0.0577 -5.7314,-0.0202 -11.4591,-0.12945 -17.1866,-0.259 -5.8164,-0.1261 -11.6257,-0.35357 -17.4317,-0.60992 -6.245,-0.30807 -12.4787,-0.70644 -18.7072,-1.13362 -6.8582,-0.43731 -13.6799,-1.069 -20.5036,-1.68857 -7.5385,-0.71425 -15.0701,-1.45949 -22.6015,-2.20538 -8.2561,-0.80708 -16.5109,-1.62196 -24.7748,-2.39454 -9.0255,-0.83118 -70.6258,-27.75835 -79.6709,-28.49271 -9.9935,-0.77626 32.5692,24.64286 22.5617,23.94805 -11.046,-0.76612 -22.1132,-1.39021 -33.1838,-1.98193 -11.395,-0.60546 -22.798,-1.14419 -34.2037,-1.65747 -11.5069,-0.54998 -23.0299,-0.92752 -34.5544,-1.2764 -11.5445,-0.34589 -23.092,-0.64513 -34.6401,-0.93153 -11.0852,-0.23867 -22.1743,-0.38986 -33.2626,-0.54875 -10.1177,-0.14616 -20.2355,-0.28648 -30.3536,-0.42536 -9.21751,-0.12265 -18.43557,-0.23905 -27.65336,-0.35628 -8.19895,-0.10422 -16.39791,-0.20831 -24.59687,-0.31241 -7.27768,-0.0924 -14.55564,-0.18484 -21.83331,-0.27725 -6.4603,-0.0821 -12.92032,-0.16406 -19.38034,-0.2461 -5.73438,-0.0728 -11.46849,-0.14561 -17.20259,-0.21841 -5.08998,-0.0647 -10.17969,-0.12927 -15.26967,-0.19389 -4.51798,-0.0574 -9.03596,-0.11474 -13.55394,-0.17212 -4.01036,-0.051 -8.02045,-0.10184 -12.03081,-0.15276 -3.55967,-0.0452 -7.11935,-0.0904 -10.67902,-0.1356 -2.1479,-0.0273 -4.29581,-0.0545 -6.44399,-0.0818 0,0 11.12639,-4.46391 11.12639,-4.46391 l 0,0 c 2.13188,0.0339 4.26348,0.0677 6.39536,0.10142 3.53259,0.056 7.06546,0.11207 10.59805,0.1681 3.97969,0.0631 7.95966,0.12624 11.93935,0.18937 4.48371,0.0711 8.96743,0.14223 13.45114,0.21334 5.0513,0.0801 10.10259,0.16023 15.15389,0.24034 5.69072,0.0903 11.38144,0.18053 17.07216,0.27078 6.41111,0.10168 12.82222,0.20336 19.23333,0.30504 7.22269,0.11456 180.05993,17.69108 187.28253,17.80563 8.1368,0.12905 -149.34089,-17.20386 -141.20411,-17.07483 9.15368,0.1451 -122.2079,9.42098 -113.05395,9.56389 10.06252,0.15537 160.64006,-8.81175 170.70176,-8.63822 11.0385,0.19055 22.0775,0.37033 33.1139,0.6085 11.5339,0.29859 23.0682,0.59881 34.5991,0.94802 11.5379,0.35101 23.0763,0.70256 34.5964,1.25956 11.4072,0.51873 22.8129,1.05225 34.2107,1.65466 11.1225,0.59291 22.2453,1.1874 33.3496,1.91543 10.0691,0.66808 -120.8219,-0.76549 -110.766,-0.0136 9.1028,0.70608 159.1487,3.60851 168.2322,4.41492 8.3086,0.74931 16.6015,1.56986 24.9055,2.3422 7.5731,0.73648 -33.6273,-15.74476 -26.0484,-15.0334 6.8731,0.60065 62.5261,18.39335 69.4315,18.81569 6.2603,0.41851 -25.7754,-12.05914 -19.4986,-11.76567 5.8248,0.24792 307.0395,-2.27823 312.8741,-2.15672 5.7212,0.13787 -245.6399,15.84894 -239.9147,15.87069 5.7568,0.0291 97.8882,12.03848 103.6444,11.99269 5.8486,-0.0965 -74.6746,-12.22758 -68.8321,-12.43289 5.8615,-0.19174 11.7254,-0.37174 17.5759,-0.68109 5.8441,-0.29615 11.689,-0.59161 17.522,-0.9706 5.7499,-0.41399 11.5008,-0.82446 17.2322,-1.33806 5.5926,-0.54064 11.1822,-1.09455 16.7599,-1.69813 5.4937,-0.59692 10.9838,-1.20897 16.4592,-1.87451 5.245,-0.64572 10.479,-1.32941 15.6961,-2.06612 5.0919,-0.72044 10.1755,-1.46687 15.2334,-2.28401 4.8883,-0.8007 9.7732,-1.61287 14.6143,-2.53015 4.5483,-0.87474 -110.7442,9.24586 -106.2505,8.25664 4.1822,-0.90683 128.1946,-12.8345 132.3763,-13.74125 3.8321,-0.86928 52.3466,-0.32072 56.155,-1.23292 3.5166,-0.85386 -37.688,-3.19226 -34.1861,-4.07175 3.2765,-0.78887 6.5377,-1.60455 9.8258,-2.37262 2.9127,-0.65023 5.8225,-1.308 8.7513,-1.92658 2.4825,-0.52324 4.9817,-1.01714 7.5142,-1.42675 1.9777,-0.29177 3.9711,-0.53244 5.995,-0.63823 1.5861,-0.0998 3.172,-0.18813 4.7672,-0.17243 0,0 -78.7353,39.47988 -78.7353,39.47988 z"
       sodipodi:nodetypes="cccccccccccsccccsscccccccccsccccccssssssssscccssssssssscsccccccccccccccccccccscccccccscccc" />
    <rect
       style="fill:#000000;fill-opacity:1;fill-rule:nonzero;stroke:none;opacity:0.23045267"
       id="rect5327"
       width="5"
       height="1261"
       x="827"
       y="-433.63782" />
    <path
       style="opacity:0.23045265;fill:#000000;fill-opacity:1;fill-rule:nonzero;stroke:none"
       id="path5329"
       d="m 947.12007,-382.6363 c -0.0721,0.0185 -0.14413,0.037 -0.2162,0.0555 0,0 3.32896,-1.92197 3.32896,-1.92197 l 0,0 c 0.0743,-0.0198 0.1487,-0.0396 0.22304,-0.0594 0,0 -3.3358,1.92593 -3.3358,1.92593 z" />
    <path
       style="opacity:0.23045265;fill:#000000;fill-opacity:1;fill-rule:nonzero;stroke:none"
       id="path5331"
       d="m 1317.1542,226.37181 c -1.6353,0.25318 -3.1282,0.98991 -4.5765,1.75233 0,0 2.6867,-1.55115 2.6867,-1.55115 l 0,0 c 1.6791,-0.89027 3.4026,-1.67845 5.2537,-2.14333 0,0 -3.3639,1.94215 -3.3639,1.94215 z" />
  </g>
  <g
     inkscape:groupmode="layer"
     id="layer2"
     inkscape:label="Layer"
     style="display:none">
    <rect
       style="fill:#f2f2f2;fill-opacity:1;fill-rule:nonzero;stroke:none"
       id="rect2840"
       width="746"
       height="28"
       x="0"
       y="84.362183" />
    <rect
       style="opacity:0.89300411;fill:#ffffff;fill-opacity:1;fill-rule:nonzero;stroke:none;display:inline"
       id="rect2922-9"
       width="744"
       height="86"
       x="2"
       y="2.3621826" />
  </g>
</svg>
