<?xml version="1.0" encoding="UTF-8" standalone="no"?>
<!-- Created with Inkscape (http://www.inkscape.org/) -->

<svg
   xmlns:dc="http://purl.org/dc/elements/1.1/"
   xmlns:cc="http://creativecommons.org/ns#"
   xmlns:rdf="http://www.w3.org/1999/02/22-rdf-syntax-ns#"
   xmlns:svg="http://www.w3.org/2000/svg"
   xmlns="http://www.w3.org/2000/svg"
   xmlns:sodipodi="http://sodipodi.sourceforge.net/DTD/sodipodi-0.dtd"
   xmlns:inkscape="http://www.inkscape.org/namespaces/inkscape"
   width="744.09448819"
   height="1052.3622047"
   id="svg2"
   version="1.1"
   inkscape:version="0.47pre1 r21720"
   sodipodi:docname="2009Aug11ThrLayout12c.svg"
   inkscape:output_extension="org.inkscape.output.svg.inkscape">
  <defs
     id="defs4">
    <marker
       inkscape:stockid="CurveOut"
       orient="auto"
       refY="0.0"
       refX="0.0"
       id="CurveOut"
       style="overflow:visible">
      <path
         id="path4086"
         d="M -5.4129913,-5.0456926 C -2.6529913,-5.0456926 -0.41299131,-2.8056926 -0.41299131,-0.045692580 C -0.41299131,2.7143074 -2.6529913,4.9543074 -5.4129913,4.9543074"
         style="fill:none;fill-rule:evenodd;stroke:#000000;stroke-width:1.0pt;marker-start:none;marker-end:none"
         transform="scale(0.6)" />
    </marker>
    <marker
       inkscape:stockid="Scissors"
       orient="auto"
       refY="0.0"
       refX="0.0"
       id="Scissors"
       style="overflow:visible">
      <path
         id="schere"
         style="marker-start:none"
         d="M 9.0898857,-3.6061018 C 8.1198849,-4.7769976 6.3697607,-4.7358294 5.0623558,-4.2327734 L -3.1500488,-1.1548705 C -5.5383421,-2.4615840 -7.8983361,-2.0874077 -7.8983361,-2.7236578 C -7.8983361,-3.2209742 -7.4416699,-3.1119800 -7.5100293,-4.4068519 C -7.5756648,-5.6501286 -8.8736064,-6.5699315 -10.100428,-6.4884954 C -11.327699,-6.4958500 -12.599867,-5.5553341 -12.610769,-4.2584343 C -12.702194,-2.9520479 -11.603560,-1.7387447 -10.304005,-1.6532027 C -8.7816644,-1.4265411 -6.0857470,-2.3487593 -4.8210600,-0.082342643 C -5.7633447,1.6559151 -7.4350844,1.6607341 -8.9465707,1.5737277 C -10.201445,1.5014928 -11.708664,1.8611256 -12.307219,3.0945882 C -12.885586,4.2766744 -12.318421,5.9591904 -10.990470,6.3210002 C -9.6502788,6.8128279 -7.8098011,6.1912892 -7.4910978,4.6502760 C -7.2454393,3.4624530 -8.0864637,2.9043186 -7.7636052,2.4731223 C -7.5199917,2.1477623 -5.9728246,2.3362771 -3.2164999,1.0982979 L 5.6763468,4.2330688 C 6.8000164,4.5467672 8.1730685,4.5362646 9.1684433,3.4313614 L -0.051640930,-0.053722219 L 9.0898857,-3.6061018 z M -9.2179159,-5.5066058 C -7.9233569,-4.7838060 -8.0290767,-2.8230356 -9.3743431,-2.4433169 C -10.590861,-2.0196559 -12.145370,-3.2022863 -11.757521,-4.5207817 C -11.530373,-5.6026336 -10.104134,-6.0014137 -9.2179159,-5.5066058 z M -9.1616516,2.5107591 C -7.8108215,3.0096239 -8.0402087,5.2951947 -9.4138723,5.6023681 C -10.324932,5.9187072 -11.627422,5.4635705 -11.719569,4.3902287 C -11.897178,3.0851737 -10.363484,1.9060805 -9.1616516,2.5107591 z " />
    </marker>
    <marker
       style="overflow:visible"
       inkscape:stockid="InfiniteLineStart"
       id="InfiniteLineStart"
       refX="0"
       refY="0"
       orient="auto">
      <g
         id="g4143"
         transform="translate(-13,0)">
        <circle
           d="M 3.8,0 C 3.8,0.44182781 3.4418278,0.80000001 3,0.80000001 2.5581722,0.80000001 2.2,0.44182781 2.2,0 c 0,-0.44182781 0.3581722,-0.80000001 0.8,-0.80000001 0.4418278,0 0.8,0.3581722 0.8,0.80000001 z"
           id="circle4145"
           r="0.8"
           cy="0"
           cx="3" />
        <circle
           d="M 7.3,0 C 7.3,0.44182781 6.9418278,0.80000001 6.5,0.80000001 6.0581722,0.80000001 5.7,0.44182781 5.7,0 c 0,-0.44182781 0.3581722,-0.80000001 0.8,-0.80000001 0.4418278,0 0.8,0.3581722 0.8,0.80000001 z"
           id="circle4147"
           r="0.8"
           cy="0"
           cx="6.5" />
        <circle
           d="M 10.8,0 C 10.8,0.44182781 10.441828,0.80000001 10,0.80000001 9.5581722,0.80000001 9.2,0.44182781 9.2,0 c 0,-0.44182781 0.3581722,-0.80000001 0.8,-0.80000001 0.441828,0 0.8,0.3581722 0.8,0.80000001 z"
           id="circle4149"
           r="0.8"
           cy="0"
           cx="10" />
      </g>
    </marker>
    <marker
       inkscape:stockid="Torso"
       orient="auto"
       refY="0.0"
       refX="0.0"
       id="Torso"
       style="overflow:visible">
      <g
         id="g4111"
         transform="scale(0.7)">
        <path
           id="path4113"
           d="M -4.7792281,-3.2395420 C -2.4288541,-2.8736027 0.52103922,-1.3019943 0.25792722,0.38794346 C -0.0051877922,2.0778819 -2.2126741,2.6176539 -4.5630471,2.2517169 C -6.9134221,1.8857769 -8.5210350,0.75201414 -8.2579220,-0.93792336 C -7.9948090,-2.6278615 -7.1296041,-3.6054813 -4.7792281,-3.2395420 z "
           style="fill:none;fill-opacity:0.75000000;fill-rule:evenodd;stroke:#000000;stroke-width:1.2500000;marker-start:none;marker-mid:none;marker-end:none" />
        <path
           id="path4115"
           d="M 4.4598789,0.088665736 C -2.5564571,-4.3783320 5.2248769,-3.9061806 -0.84829578,-8.7197331"
           style="fill:none;fill-opacity:0.75000000;fill-rule:evenodd;stroke:#000000;stroke-width:1.0000000pt;marker-end:none" />
        <path
           id="path4117"
           d="M 4.9298719,0.057520736 C -1.3872731,1.7494689 1.8027579,5.4782079 -4.9448731,7.5462725"
           style="fill:none;fill-opacity:0.75000000;fill-rule:evenodd;stroke:#000000;stroke-width:1.0000000pt;marker-start:none;marker-end:none" />
        <rect
           id="rect4119"
           transform="matrix(0.527536,-0.849533,0.887668,0.460484,0,0)"
           y="-1.7408575"
           x="-10.391706"
           height="2.7608147"
           width="2.6366582"
           style="fill-rule:evenodd;stroke-width:1.0000000pt;marker-end:none" />
        <rect
           id="rect4121"
           transform="matrix(0.671205,-0.741272,0.790802,0.612072,0,0)"
           y="-7.9629307"
           x="4.9587269"
           height="2.8614161"
           width="2.7327356"
           style="fill-rule:evenodd;stroke-width:1.0000000pt;marker-end:none" />
        <path
           id="path4123"
           transform="matrix(0,-1.109517,1.109517,0,25.96648,19.71619)"
           d="m 16.779951,-28.685045 c 0,0.335412 -0.271905,0.607317 -0.607317,0.607317 -0.335412,0 -0.607317,-0.271905 -0.607317,-0.607317 0,-0.335412 0.271905,-0.607318 0.607317,-0.607318 0.335412,0 0.607317,0.271906 0.607317,0.607318 z"
           sodipodi:ry="0.60731727"
           sodipodi:rx="0.60731727"
           sodipodi:cy="-28.685045"
           sodipodi:cx="16.172634"
           style="fill:#ff0000;fill-opacity:0.75000000;fill-rule:evenodd;stroke:#000000;stroke-width:1.0000000pt;marker-start:none;marker-end:none"
           sodipodi:type="arc" />
        <path
           id="path4125"
           transform="matrix(0,-1.109517,1.109517,0,26.82450,16.99126)"
           d="m 16.779951,-28.685045 c 0,0.335412 -0.271905,0.607317 -0.607317,0.607317 -0.335412,0 -0.607317,-0.271905 -0.607317,-0.607317 0,-0.335412 0.271905,-0.607318 0.607317,-0.607318 0.335412,0 0.607317,0.271906 0.607317,0.607318 z"
           sodipodi:ry="0.60731727"
           sodipodi:rx="0.60731727"
           sodipodi:cy="-28.685045"
           sodipodi:cx="16.172634"
           style="fill:#ff0000;fill-opacity:0.75000000;fill-rule:evenodd;stroke:#000000;stroke-width:1.0000000pt;marker-start:none;marker-end:none"
           sodipodi:type="arc" />
      </g>
    </marker>
    <marker
       inkscape:stockid="RazorWire"
       id="RazorWire"
       refX="0"
       refY="0"
       orient="auto">
       style=&quot;overflow:visible&quot;&gt;
      <path
   id="path4131"
   transform="scale(0.8,0.8)"
   style="fill:#808080;fill-opacity:1;fill-rule:evenodd;stroke:#000000;stroke-width:0.1pt"
   d="M 0.022727273,-0.74009011 L 0.022727273,0.69740989 L -7.7585227,3.0099099 L 10.678977,3.0099099 L 3.4914773,0.69740989 L 3.4914773,-0.74009011 L 10.741477,-2.8963401 L -7.7272727,-2.8963401 L 0.022727273,-0.74009011 z " />
</marker>
    <marker
       inkscape:stockid="Arrow1Mstart"
       orient="auto"
       refY="0.0"
       refX="0.0"
       id="Arrow1Mstart"
       style="overflow:visible">
      <path
         id="path3904"
         d="M 0.0,0.0 L 5.0,-5.0 L -12.5,0.0 L 5.0,5.0 L 0.0,0.0 z "
         style="fill-rule:evenodd;stroke:#000000;stroke-width:1.0pt;marker-start:none"
         transform="scale(0.4) translate(10,0)" />
    </marker>
    <marker
       inkscape:stockid="Arrow1Lstart"
       orient="auto"
       refY="0.0"
       refX="0.0"
       id="Arrow1Lstart"
       style="overflow:visible">
      <path
         id="path3898"
         d="M 0.0,0.0 L 5.0,-5.0 L -12.5,0.0 L 5.0,5.0 L 0.0,0.0 z "
         style="fill-rule:evenodd;stroke:#000000;stroke-width:1.0pt;marker-start:none"
         transform="scale(0.8) translate(12.5,0)" />
    </marker>
    <inkscape:perspective
       sodipodi:type="inkscape:persp3d"
       inkscape:vp_x="0 : 526.18109 : 1"
       inkscape:vp_y="0 : 1000 : 0"
       inkscape:vp_z="744.09448 : 526.18109 : 1"
       inkscape:persp3d-origin="372.04724 : 350.78739 : 1"
       id="perspective10" />
    <inkscape:perspective
       id="perspective2826"
       inkscape:persp3d-origin="0.5 : 0.33333333 : 1"
       inkscape:vp_z="1 : 0.5 : 1"
       inkscape:vp_y="0 : 1000 : 0"
       inkscape:vp_x="0 : 0.5 : 1"
       sodipodi:type="inkscape:persp3d" />
    <inkscape:perspective
       id="perspective2887"
       inkscape:persp3d-origin="0.5 : 0.33333333 : 1"
       inkscape:vp_z="1 : 0.5 : 1"
       inkscape:vp_y="0 : 1000 : 0"
       inkscape:vp_x="0 : 0.5 : 1"
       sodipodi:type="inkscape:persp3d" />
    <inkscape:perspective
       id="perspective2954"
       inkscape:persp3d-origin="0.5 : 0.33333333 : 1"
       inkscape:vp_z="1 : 0.5 : 1"
       inkscape:vp_y="0 : 1000 : 0"
       inkscape:vp_x="0 : 0.5 : 1"
       sodipodi:type="inkscape:persp3d" />
    <inkscape:perspective
       id="perspective2954-3"
       inkscape:persp3d-origin="0.5 : 0.33333333 : 1"
       inkscape:vp_z="1 : 0.5 : 1"
       inkscape:vp_y="0 : 1000 : 0"
       inkscape:vp_x="0 : 0.5 : 1"
       sodipodi:type="inkscape:persp3d" />
    <inkscape:perspective
       id="perspective3048"
       inkscape:persp3d-origin="0.5 : 0.33333333 : 1"
       inkscape:vp_z="1 : 0.5 : 1"
       inkscape:vp_y="0 : 1000 : 0"
       inkscape:vp_x="0 : 0.5 : 1"
       sodipodi:type="inkscape:persp3d" />
    <filter
       inkscape:collect="always"
       id="filter3858"
       x="-0.11727906"
       width="1.2345581"
       y="-1.2057066"
       height="3.4114132">
      <feGaussianBlur
         inkscape:collect="always"
         stdDeviation="9.9060937"
         id="feGaussianBlur3860" />
    </filter>
  </defs>
  <sodipodi:namedview
     id="base"
     pagecolor="#ffffff"
     bordercolor="#666666"
     borderopacity="1.0"
     inkscape:pageopacity="0.0"
     inkscape:pageshadow="2"
     inkscape:zoom="1"
     inkscape:cx="1534.9518"
     inkscape:cy="1266.4245"
     inkscape:document-units="px"
     inkscape:current-layer="layer1"
     showgrid="false"
     inkscape:window-width="1349"
     inkscape:window-height="1159"
     inkscape:window-x="140"
     inkscape:window-y="0"
     inkscape:window-maximized="0"
     showborder="false" />
  <metadata
     id="metadata7">
    <rdf:RDF>
      <cc:Work
         rdf:about="">
        <dc:format>image/svg+xml</dc:format>
        <dc:type
           rdf:resource="http://purl.org/dc/dcmitype/StillImage" />
        <dc:title></dc:title>
      </cc:Work>
    </rdf:RDF>
  </metadata>
  <g
     inkscape:label="Layer 1"
     inkscape:groupmode="layer"
     id="layer1"
     style="display:inline">
    <rect
       style="fill:#00a4d4;fill-opacity:1;fill-rule:nonzero;stroke:#ffffff;stroke-width:0.2815834;stroke-linejoin:bevel;stroke-opacity:1;filter:url(#filter3858)"
       id="rect2816-7"
       width="202.71841"
       height="19.718416"
       x="49.640808"
       y="13.002975"
       transform="matrix(-6.3924378e-4,3.8574039,-0.22720672,-0.0027992,1411.5693,-576.83924)" />
    <rect
       y="1566.0846"
       x="-405.23691"
       height="7.0406227"
       width="1283.249"
       id="rect3062"
       style="fill:#e6e6e6;fill-opacity:1;fill-rule:nonzero;stroke:none"
       transform="matrix(9.6012453e-5,1,0.99977399,-0.02125953,0,0)" />
    <path
       inkscape:export-xdpi="90"
       inkscape:export-ydpi="90"
       style="fill:#666666;fill-opacity:1;fill-rule:nonzero;stroke:none"
       id="path2816"
       d="m 1608.1275,-415.97164 c -0.5764,0.0154 23.2208,-34.82944 22.6467,-34.73838 -0.7182,0.0982 -1.4277,0.31978 -2.1309,0.59533 -0.9072,0.39365 -1.8018,0.87881 -2.6899,1.39429 -1.0473,0.60321 -2.0873,1.24703 -3.1284,1.8838 -1.1833,0.76119 -2.3577,1.56606 -3.5362,2.35081 -1.2604,0.87062 -2.5275,1.70954 -3.7935,2.55352 -1.3711,0.90306 -2.7337,1.84544 -4.1137,2.70353 -1.5054,0.89717 -3.0123,1.78594 -4.5179,2.68211 -1.6203,0.9808 -3.2539,1.886 -4.8935,2.75445 -1.7477,0.90385 -3.5095,1.71462 -5.2728,2.51256 -1.8264,0.81014 -3.6618,1.54993 -5.4996,2.2694 -1.8822,0.73844 -3.7715,1.41196 -5.6648,2.04905 -1.9791,0.65467 -3.9615,1.27594 -5.9469,1.8639 -2.0169,0.60307 -4.0383,1.15435 -6.0606,1.69312 -2.0719,0.50438 -4.1502,0.91673 -6.2281,1.32921 -2.1104,0.37453 -4.225,0.66513 -6.3388,0.96801 -2.1178,0.30324 -4.2404,0.48317 -6.3618,0.68259 -2.1149,0.19891 -4.2324,0.28187 -6.3493,0.3864 -2.0839,0.0537 -4.1681,0.0836 -6.2523,0.0577 -2.0741,-0.0202 -4.1469,-0.12945 -6.2196,-0.259 -2.1049,-0.1261 -4.2072,-0.35357 -6.3083,-0.60992 -2.26,-0.30807 -4.5159,-0.70644 -6.7699,-1.13362 -2.4819,-0.43731 -4.9506,-1.069 -7.42,-1.68857 -2.7281,-0.71425 -5.4537,-1.45949 -8.1792,-2.20538 -2.9878,-0.80708 -5.9751,-1.62196 -8.9657,-2.39454 -3.2662,-0.83118 -25.5586,-27.75835 -28.8319,-28.49271 -3.6165,-0.77626 11.7864,24.64286 8.1648,23.94805 -3.9974,-0.76612 -8.0025,-1.39021 -12.0088,-1.98193 -4.1237,-0.60546 -8.2503,-1.14419 -12.3779,-1.65747 -4.1642,-0.54998 -8.3342,-0.92752 -12.5048,-1.2764 -4.1778,-0.34589 -8.3567,-0.64513 -12.5358,-0.93153 -4.0116,-0.23867 -8.0246,-0.38986 -12.0373,-0.54875 -3.6615,-0.14616 -7.323,-0.28648 -10.9846,-0.42536 -3.3357,-0.12265 -6.6716,-0.23905 -10.0074,-0.35628 -2.9671,-0.10422 -5.9342,-0.20831 -8.9013,-0.31241 -2.6337,-0.0924 -5.2675,-0.18484 -7.9012,-0.27725 -2.3379,-0.0821 -4.6757,-0.16406 -7.0135,-0.2461 -2.0752,-0.0728 -4.1503,-0.14561 -6.2254,-0.21841 -1.842,-0.0647 -3.6839,-0.12927 -5.5259,-0.19389 -1.635,-0.0574 -3.27,-0.11474 -4.905,-0.17212 -1.4513,-0.051 -2.9025,-0.10184 -4.3538,-0.15276 -1.2882,-0.0452 -2.5764,-0.0904 -3.8646,-0.1356 -0.7773,-0.0273 -1.5546,-0.0545 -2.332,-0.0818 0,0 4.0265,-4.46391 4.0265,-4.46391 l 0,0 c 0.7715,0.0339 1.5429,0.0677 2.3144,0.10142 1.2784,0.056 2.5569,0.11207 3.8353,0.1681 1.4402,0.0631 2.8805,0.12624 4.3207,0.18937 1.6226,0.0711 3.2452,0.14223 4.8678,0.21334 1.828,0.0801 3.656,0.16023 5.484,0.24034 2.0594,0.0903 4.1188,0.18053 6.1782,0.27078 2.3201,0.10168 4.6402,0.20336 6.9603,0.30504 2.6138,0.11456 65.1614,17.69108 67.7752,17.80563 2.9446,0.12905 -54.0446,-17.20386 -51.1,-17.07483 3.3126,0.1451 -44.2255,9.42098 -40.9128,9.56389 3.6415,0.15537 58.1336,-8.81175 61.7748,-8.63822 3.9947,0.19055 7.9896,0.37033 11.9835,0.6085 4.174,0.29859 8.3481,0.59881 12.521,0.94802 4.1754,0.35101 8.351,0.70256 12.52,1.25956 4.1281,0.51873 8.2557,1.05225 12.3804,1.65466 4.0251,0.59291 8.0503,1.1874 12.0688,1.91543 3.6439,0.66808 -43.7239,-0.76549 -40.0848,-0.0136 3.2942,0.70608 57.5939,3.60851 60.8811,4.41492 3.0068,0.74931 6.0079,1.56986 9.013,2.3422 2.7406,0.73648 -12.1693,-15.74476 -9.4266,-15.0334 2.4873,0.60065 22.6274,18.39335 25.1264,18.81569 2.2655,0.41851 -9.3278,-12.05914 -7.0563,-11.76567 2.1079,0.24792 111.1137,-2.27823 113.2252,-2.15672 2.0704,0.13787 -88.894,15.84894 -86.8221,15.87069 2.0833,0.0291 35.4245,12.03848 37.5076,11.99269 2.1165,-0.0965 -27.0238,-12.22758 -24.9095,-12.43289 2.1212,-0.19174 4.2433,-0.37174 6.3605,-0.68109 2.1149,-0.29615 4.2301,-0.59161 6.341,-0.9706 2.0808,-0.41399 4.162,-0.82446 6.2361,-1.33806 2.0239,-0.54064 4.0467,-1.09455 6.0652,-1.69813 1.9881,-0.59692 3.9749,-1.20897 5.9564,-1.87451 1.8981,-0.64572 3.7922,-1.32941 5.6802,-2.06612 1.8427,-0.72044 3.6824,-1.46687 5.5128,-2.28401 1.769,-0.8007 3.5368,-1.61287 5.2887,-2.53015 1.646,-0.87474 -40.0769,9.24586 -38.4507,8.25664 1.5135,-0.90683 46.392,-12.8345 47.9053,-13.74125 1.3868,-0.86928 18.9436,-0.32072 20.3218,-1.23292 1.2726,-0.85386 -13.6388,-3.19226 -12.3715,-4.07175 1.1857,-0.78887 2.3659,-1.60455 3.5558,-2.37262 1.0541,-0.65023 2.1071,-1.308 3.167,-1.92658 0.8984,-0.52324 1.8028,-1.01714 2.7193,-1.42675 0.7157,-0.29177 1.4371,-0.53244 2.1695,-0.63823 0.574,-0.0998 1.1479,-0.18813 1.7252,-0.17243 0,0 -28.4933,39.47988 -28.4933,39.47988 z"
       sodipodi:nodetypes="cccccccccccsccccsscccccccccsccccccssssssssscccssssssssscsccccccccccccccccccccscccccccscccc" />
  </g>
  <g
     inkscape:groupmode="layer"
     id="layer2"
     inkscape:label="Layer"
     style="display:none">
    <rect
       style="fill:#f2f2f2;fill-opacity:1;fill-rule:nonzero;stroke:none"
       id="rect2840"
       width="746"
       height="28"
       x="0"
       y="84.362183" />
    <rect
       style="opacity:0.89300411;fill:#ffffff;fill-opacity:1;fill-rule:nonzero;stroke:none;display:inline"
       id="rect2922-9"
       width="744"
       height="86"
       x="2"
       y="2.3621826" />
  </g>
</svg>
