<?xml version="1.0" encoding="UTF-8" standalone="no"?>
<!-- Created with Inkscape (http://www.inkscape.org/) -->

<svg
   xmlns:dc="http://purl.org/dc/elements/1.1/"
   xmlns:cc="http://creativecommons.org/ns#"
   xmlns:rdf="http://www.w3.org/1999/02/22-rdf-syntax-ns#"
   xmlns:svg="http://www.w3.org/2000/svg"
   xmlns="http://www.w3.org/2000/svg"
   xmlns:sodipodi="http://sodipodi.sourceforge.net/DTD/sodipodi-0.dtd"
   xmlns:inkscape="http://www.inkscape.org/namespaces/inkscape"
   width="744.09448819"
   height="1052.3622047"
   id="svg6073"
   version="1.1"
   inkscape:version="0.47 r22583"
   sodipodi:docname="2009Dec15-a01a-freefem.svg">
  <defs
     id="defs6075">
    <inkscape:perspective
       sodipodi:type="inkscape:persp3d"
       inkscape:vp_x="0 : 526.18109 : 1"
       inkscape:vp_y="0 : 1000 : 0"
       inkscape:vp_z="744.09448 : 526.18109 : 1"
       inkscape:persp3d-origin="372.04724 : 350.78739 : 1"
       id="perspective6081" />
  </defs>
  <sodipodi:namedview
     id="base"
     pagecolor="#ffffff"
     bordercolor="#666666"
     borderopacity="1.0"
     inkscape:pageopacity="0.0"
     inkscape:pageshadow="2"
     inkscape:zoom="0.99257812"
     inkscape:cx="536.31756"
     inkscape:cy="686.23377"
     inkscape:document-units="px"
     inkscape:current-layer="layer1"
     showgrid="false"
     inkscape:window-width="1327"
     inkscape:window-height="914"
     inkscape:window-x="495"
     inkscape:window-y="29"
     inkscape:window-maximized="0" />
  <metadata
     id="metadata6078">
    <rdf:RDF>
      <cc:Work
         rdf:about="">
        <dc:format>image/svg+xml</dc:format>
        <dc:type
           rdf:resource="http://purl.org/dc/dcmitype/StillImage" />
        <dc:title></dc:title>
      </cc:Work>
    </rdf:RDF>
  </metadata>
  <g
     inkscape:label="Layer 1"
     inkscape:groupmode="layer"
     id="layer1">
    <path
       style="fill:#000018;fill-opacity:1;fill-rule:nonzero;stroke:none"
       id="path6083"
       d="m 194.55553,658.20573 c 1.58665,-1.73191 2.96119,-3.62485 4.15257,-5.64559 1.05279,-2.28559 2.42255,-4.39151 3.8125,-6.48211 2.26329,-3.18783 4.62691,-6.29151 6.72939,-9.59248 3.28617,-5.31408 6.37536,-10.74889 9.39961,-16.21554 3.85127,-6.70893 7.12017,-13.70915 10.44072,-20.6875 3.2412,-7.1657 6.54481,-14.30035 9.86168,-21.431 3.21854,-6.67272 6.38604,-13.36962 9.39276,-20.14067 3.03063,-6.53541 5.87168,-13.15806 8.61681,-19.81801 2.37158,-6.23103 4.95847,-12.37581 7.39117,-18.5828 2.17187,-6.35799 4.3764,-12.70336 6.68771,-19.01196 2.51211,-6.77899 4.28564,-13.7992 6.39291,-20.71014 2.13332,-7.12536 4.25715,-14.25909 6.19234,-21.4414 2.10861,-7.59364 4.55746,-15.08362 6.8381,-22.62541 2.04932,-7.65696 3.70271,-15.40972 5.45247,-23.13824 1.32212,-6.68672 2.52211,-13.39926 3.36409,-20.1642 1.04407,-7.01704 1.49991,-14.09948 2.07628,-21.16512 0.42899,-6.60441 0.86122,-13.2108 1.53683,-19.79542 0.72161,-6.28769 1.02487,-12.60845 1.19617,-18.93142 -0.0404,-6.19082 0.44594,-12.36184 0.75112,-18.54043 0.41088,-5.84002 0.176,-11.66946 -0.13997,-17.50385 -0.466,-5.80232 -1.18122,-11.57851 -1.75162,-17.37023 -0.51369,-5.85202 -1.20816,-11.68859 -2.03624,-17.50408 -0.7995,-5.82269 -1.77313,-11.61463 -2.94721,-17.37226 -1.30678,-5.58162 -2.28369,-11.22732 -3.30975,-16.86365 -0.74504,-4.6054 -1.62943,-9.18756 -2.18128,-13.82173 -0.7094,-4.6229 -0.97474,-9.28977 -1.58755,-13.92399 -0.43884,-3.49994 -1.3392,-7.00259 -2.56729,-10.3157 -0.75612,-2.28542 -1.57419,-4.55417 -2.28393,-6.8534 -0.56335,-2.05152 -1.40688,-4.00813 -2.06576,-6.03238 -0.63418,-2.50158 -1.10605,-5.06119 -1.51347,-7.61239 -0.52394,-3.27225 -0.51894,-6.5954 -0.59348,-9.89953 -0.0702,-3.63625 -0.51606,-7.25169 -0.72517,-10.88408 -0.0589,-3.47178 -0.38889,-6.90826 -0.77327,-10.35462 -0.0395,-3.03077 -1.06981,-5.85374 -1.76097,-8.76921 -0.54056,-2.48274 -0.97691,-5.03191 -1.71194,-7.46485 -0.66831,-2.01257 -0.96647,-4.12335 -1.08638,-6.23372 -0.0663,-2.19242 -0.0449,-4.36188 -0.40133,-6.52895 -0.39111,-2.20203 -0.55522,-4.42946 -0.63596,-6.66129 0.0516,-1.85413 -0.62879,-3.601298 -0.83804,-5.426092 -0.0623,-1.715876 -0.4141,-3.359212 -0.7152,-5.041654 -0.31363,-1.431588 -0.45127,-2.890013 -0.59155,-4.345909 -0.0678,-0.990755 -0.0382,-1.980583 -0.0207,-2.972389 -0.0565,-1.500091 -0.4694,-2.989226 -0.68906,-4.484676 -0.1656,-1.573238 -0.23307,-3.127274 -0.55511,-4.67629 -0.29552,-1.879045 -0.49047,-3.770529 -0.69401,-5.660974 -0.11217,-1.152688 -0.0725,-2.308064 -0.0722,-3.463205 -0.30701,-1.145439 -0.61198,-2.284573 -0.83135,-3.451819 -0.0856,-1.153834 -0.16611,-2.305988 -0.20256,-3.462104 0.14706,-1.021608 -0.16558,-1.893537 -0.42415,-2.857349 -0.33691,-1.256852 -0.43144,-2.576364 -0.52978,-3.87239 -0.0399,-0.953142 -0.035,-1.906778 -0.0722,-2.860007 -0.32706,0.649565 -0.9262,0.778447 -1.60494,0.80288 -0.17648,-0.170048 -0.49256,0.159689 -0.6784,0.03045 -0.57216,-0.39788 -0.70605,-1.375835 -0.76666,-1.990808 -0.0263,-1.268511 0.0389,-2.543158 0.0927,-3.811997 0.0723,-2.248934 0.0689,-4.49772 0.0475,-6.747215 0.11929,-1.533917 -0.35508,-2.969827 -0.64631,-4.455624 -0.26243,-1.462416 -0.36017,-2.943538 -0.4016,-4.426544 -0.0313,-1.327406 3.9e-4,-2.655507 -0.0384,-3.983445 -0.0119,-0.834148 -0.005,-1.668662 -0.0277,-2.502585 0.006,-0.615207 -0.001,-1.229976 -0.003,-1.845058 -0.4818,0.581612 -0.73581,-1.190629 -0.80931,-1.517707 -0.13758,-1.441829 -0.10802,-2.889723 -0.13693,-4.335639 -0.0709,-1.108948 -0.0344,-2.216776 -0.003,-3.325866 -0.01,-1.064976 -0.006,-2.1300561 -0.0529,-3.1942605 -0.0421,-0.3675091 -0.0159,-0.7339211 -0.0205,-1.102298 0.009,-0.4142901 0.0117,-0.8282517 -0.006,-1.2427987 -0.0137,-0.4950927 0.0406,-0.9895618 0.05,-1.4855471 0.0581,-1.6615982 0.0621,-3.3249544 0.0613,-4.98764039 -0.0322,-1.30500191 -0.0209,-2.61064451 -0.0667,-3.91529021 -0.0622,-0.6358424 -0.006,-1.2686465 -0.0115,-1.9057607 -0.006,-0.3509379 -0.0208,-0.7016895 -0.0466,-1.0517172 19.34464,0.3632758 14.78853,-4.2937992 19.53107,0.7455898 0,0 -18.88155,1.0088703 -18.88155,1.0088703 l 0,0 c -3.06722,-6.7398933 -0.81516,-0.9782487 18.4753,-1.7544601 -0.0258,0.3500277 -0.0403,0.7007793 -0.0466,1.0517172 -0.006,0.6371143 0.0507,1.2699183 -0.0115,1.9057607 -0.0458,1.3046458 -0.0345,2.6102883 -0.0667,3.9152903 -8.1e-4,1.6626859 0.003,3.3260419 0.0613,4.98764 0.009,0.4959733 0.0636,0.9904287 0.05,1.4855096 -0.0173,0.4145375 -0.0146,0.8284878 -0.006,1.2427672 -0.005,0.3687207 0.0216,0.7354772 -0.0209,1.103306 -0.048,1.0648438 -0.0459,2.1306078 -0.0588,3.1962428 0.0277,1.103159 0.0542,2.204589 -0.005,3.307666 -0.005,1.289113 -0.009,2.603073 0.23665,3.87148 0.22042,0.72312 0.89649,1.153773 0.84055,1.99719 -0.002,0.615843 -0.009,1.231324 -0.004,1.847305 -0.025,0.83444 -0.0214,1.669467 -0.0375,2.504134 -0.0436,1.308022 -0.0248,2.615511 -7.4e-4,3.923501 0.0431,1.373877 0.10127,2.751846 0.37354,4.103661 0.33744,1.60259 0.77349,3.180379 0.56405,4.837338 -0.0279,2.255064 -0.0378,4.509349 -0.007,6.764584 0.0236,1.127228 -0.0257,2.262856 0.089,3.384264 0.29816,-0.466938 0.62107,-0.653454 1.18366,-0.511525 1.21898,0.166416 1.73838,0.859041 1.85872,2.0804 -0.04,0.914338 -0.0348,1.829967 0.007,2.744171 0.048,1.167153 0.14998,2.338292 0.50021,3.459157 0.3323,1.102989 0.57472,2.196609 0.48618,3.356199 -0.005,1.05181 -0.003,2.113263 0.1681,3.153311 0.21421,1.27557 0.65305,2.499548 0.80641,3.786489 0.001,1.109253 0.0343,2.218961 0.0646,3.327824 0.0634,1.814665 0.23003,3.631795 0.62899,5.406276 0.33563,1.586042 0.41358,3.175927 0.56791,4.786198 0.24313,1.59301 0.71039,3.156649 0.75934,4.768222 0.0141,0.950828 0.027,1.900416 0.051,2.850759 0.0372,1.378978 0.19499,2.750461 0.4535,4.105831 0.35241,1.703995 0.66668,3.390645 0.73709,5.135429 0.31981,1.861269 0.80013,3.711718 0.76195,5.614348 0.0988,2.15847 0.26916,4.31615 0.65575,6.44463 0.33423,2.22241 0.30742,4.44379 0.40319,6.68555 0.17971,1.99259 0.44839,3.96775 1.07533,5.87773 0.59497,2.49365 1.09016,5.01399 1.61015,7.52414 0.69954,2.98089 1.6889,5.89687 1.7125,8.99529 0.38854,3.4766 0.6295,6.94758 0.67437,10.44751 0.24197,3.65726 0.75375,7.29751 0.79367,10.96434 0.0461,3.21397 0.15605,6.43721 0.66788,9.61644 0.45056,2.45576 0.90482,4.93099 1.65173,7.31424 0.70288,2.00134 1.3744,4.01792 1.96663,6.05456 0.78904,2.272 1.57551,4.54365 2.28012,6.84375 1.04284,3.48478 1.90757,7.07846 2.28482,10.69586 0.51381,4.64868 0.92594,9.30968 1.64863,13.93264 0.52013,4.59264 1.33473,9.14344 1.99876,13.7163 0.95836,5.6315 1.94997,11.2552 3.28026,16.81437 1.18433,5.78857 2.03819,11.62664 2.86215,17.47767 0.86899,5.83895 1.66005,11.69485 2.07623,17.58604 0.5881,5.81942 1.33063,11.62212 1.8144,17.45244 0.32114,5.89902 0.43182,11.78825 0.0198,17.68951 -0.27995,6.16793 -0.71915,12.32882 -0.72066,18.50597 -0.18886,6.36654 -0.52553,12.72823 -1.24159,19.06024 -0.63507,6.581 -1.17145,13.17093 -1.64046,19.76558 -0.60551,7.0862 -1.00815,14.19521 -1.99335,21.2429 -0.87586,6.82639 -2.06556,13.60536 -3.4843,20.34005 -1.78044,7.77184 -3.61203,15.53359 -5.61244,23.2528 -2.21555,7.52917 -4.54534,15.02311 -6.64642,22.58588 -1.96672,7.19613 -4.12774,14.34034 -6.26187,21.48799 -2.0578,6.95277 -3.78638,14.01676 -6.31502,20.81818 -2.30157,6.31837 -4.41634,12.70001 -6.60564,19.05765 -2.44273,6.22327 -5.05837,12.37611 -7.46216,18.61475 -2.7786,6.66929 -5.6066,13.32178 -8.68059,19.86071 -3.01237,6.78439 -6.11825,13.52719 -9.42416,20.17442 -3.35001,7.13007 -6.68933,14.26325 -9.94777,21.43587 -3.29358,6.99402 -6.4724,14.04239 -10.22998,20.80569 -2.98089,5.47264 -6.03526,10.90612 -9.13818,16.31031 -1.94719,3.35558 -4.14187,6.5334 -6.43443,9.65986 -1.31687,2.0985 -2.79921,4.09997 -3.71225,6.41785 -1.23384,2.05826 -2.53258,4.0629 -4.07029,5.91196 0,0 -18.87389,-1.27544 -18.87389,-1.27544 z" />
    <path
       style="fill:none;stroke:#000000;stroke-width:1px;stroke-linecap:butt;stroke-linejoin:miter;stroke-opacity:1"
       d="M 320.45258,333.03829 C 374.32337,247.99116 474.40206,60.25946 584.41165,-8.496534"
       id="path6085" />
    <path
       style="fill:none;stroke:#000000;stroke-width:1px;stroke-linecap:butt;stroke-linejoin:miter;stroke-opacity:1"
       d="M 318.5124,288.32992 C 404.47462,177.92368 528.53333,-16.186939 682.21173,-101.56383"
       id="path6087" />
  </g>
</svg>
