<?xml version="1.0" encoding="UTF-8" standalone="no"?>
<!-- Created with Inkscape (http://www.inkscape.org/) -->

<svg
   xmlns:dc="http://purl.org/dc/elements/1.1/"
   xmlns:cc="http://creativecommons.org/ns#"
   xmlns:rdf="http://www.w3.org/1999/02/22-rdf-syntax-ns#"
   xmlns:svg="http://www.w3.org/2000/svg"
   xmlns="http://www.w3.org/2000/svg"
   xmlns:xlink="http://www.w3.org/1999/xlink"
   xmlns:sodipodi="http://sodipodi.sourceforge.net/DTD/sodipodi-0.dtd"
   xmlns:inkscape="http://www.inkscape.org/namespaces/inkscape"
   width="744.09448819"
   height="1052.3622047"
   id="svg2"
   version="1.1"
   inkscape:version="0.47 r22583"
   sodipodi:docname="New document 1">
  <defs
     id="defs4">
    <inkscape:perspective
       sodipodi:type="inkscape:persp3d"
       inkscape:vp_x="0 : 526.18109 : 1"
       inkscape:vp_y="0 : 1000 : 0"
       inkscape:vp_z="744.09448 : 526.18109 : 1"
       inkscape:persp3d-origin="372.04724 : 350.78739 : 1"
       id="perspective10" />
    <inkscape:perspective
       id="perspective2884"
       inkscape:persp3d-origin="0.5 : 0.33333333 : 1"
       inkscape:vp_z="1 : 0.5 : 1"
       inkscape:vp_y="0 : 1000 : 0"
       inkscape:vp_x="0 : 0.5 : 1"
       sodipodi:type="inkscape:persp3d" />
    <inkscape:perspective
       id="perspective2976"
       inkscape:persp3d-origin="0.5 : 0.33333333 : 1"
       inkscape:vp_z="1 : 0.5 : 1"
       inkscape:vp_y="0 : 1000 : 0"
       inkscape:vp_x="0 : 0.5 : 1"
       sodipodi:type="inkscape:persp3d" />
    <inkscape:perspective
       id="perspective3050"
       inkscape:persp3d-origin="0.5 : 0.33333333 : 1"
       inkscape:vp_z="1 : 0.5 : 1"
       inkscape:vp_y="0 : 1000 : 0"
       inkscape:vp_x="0 : 0.5 : 1"
       sodipodi:type="inkscape:persp3d" />
    <inkscape:perspective
       id="perspective3124"
       inkscape:persp3d-origin="0.5 : 0.33333333 : 1"
       inkscape:vp_z="1 : 0.5 : 1"
       inkscape:vp_y="0 : 1000 : 0"
       inkscape:vp_x="0 : 0.5 : 1"
       sodipodi:type="inkscape:persp3d" />
    <inkscape:perspective
       id="perspective3198"
       inkscape:persp3d-origin="0.5 : 0.33333333 : 1"
       inkscape:vp_z="1 : 0.5 : 1"
       inkscape:vp_y="0 : 1000 : 0"
       inkscape:vp_x="0 : 0.5 : 1"
       sodipodi:type="inkscape:persp3d" />
    <inkscape:perspective
       id="perspective13943"
       inkscape:persp3d-origin="0.5 : 0.33333333 : 1"
       inkscape:vp_z="1 : 0.5 : 1"
       inkscape:vp_y="0 : 1000 : 0"
       inkscape:vp_x="0 : 0.5 : 1"
       sodipodi:type="inkscape:persp3d" />
    <filter
       color-interpolation-filters="sRGB"
       inkscape:collect="always"
       id="filter13861"
       x="-0.056249648"
       width="1.1124994"
       y="-0.39252543"
       height="1.7850509">
      <feGaussianBlur
         inkscape:collect="always"
         stdDeviation="14.76314"
         id="feGaussianBlur13863" />
    </filter>
    <filter
       color-interpolation-filters="sRGB"
       inkscape:collect="always"
       id="filter3858-5-7"
       x="-0.11727906"
       width="1.2345581"
       y="-1.2057066"
       height="3.4114132">
      <feGaussianBlur
         inkscape:collect="always"
         stdDeviation="9.9060937"
         id="feGaussianBlur3860-8-39" />
    </filter>
  </defs>
  <sodipodi:namedview
     id="base"
     pagecolor="#ffffff"
     bordercolor="#666666"
     borderopacity="1.0"
     inkscape:pageopacity="0.0"
     inkscape:pageshadow="2"
     inkscape:zoom="0.35355339"
     inkscape:cx="-735.14875"
     inkscape:cy="376.87477"
     inkscape:document-units="px"
     inkscape:current-layer="layer1"
     showgrid="false"
     inkscape:showpageshadow="false"
     showborder="false"
     borderlayer="false"
     inkscape:window-width="1334"
     inkscape:window-height="1038"
     inkscape:window-x="59"
     inkscape:window-y="0"
     inkscape:window-maximized="0" />
  <metadata
     id="metadata7">
    <rdf:RDF>
      <cc:Work
         rdf:about="">
        <dc:format>image/svg+xml</dc:format>
        <dc:type
           rdf:resource="http://purl.org/dc/dcmitype/StillImage" />
        <dc:title></dc:title>
      </cc:Work>
    </rdf:RDF>
  </metadata>
  <g
     inkscape:label="Layer 1"
     inkscape:groupmode="layer"
     id="layer1">
    <g
       id="g13736">
      <image
         transform="translate(-927.12286,-100.48721)"
         xlink:href="file:///Users/igabe/Downloads/COLOURlovers.com-%5Bw%5D_Lustful_Sea.png"
         width="390"
         height="300"
         id="image2886" />
      <image
         transform="translate(-930.82669,116.73476)"
         xlink:href="file:///Users/igabe/Downloads/COLOURlovers.com-impure.png"
         width="390"
         height="300"
         id="image3200" />
      <image
         style="fill:#ff6a00;fill-opacity:1"
         transform="translate(-1321.1294,121.39161)"
         xlink:href="file:///Users/igabe/Downloads/COLOURlovers.com-Dolor*S_Mingaderas.png"
         width="390"
         height="300"
         id="image3126" />
      <image
         transform="translate(-1314.1541,330.52988)"
         xlink:href="file:///Users/igabe/Downloads/COLOURlovers.com-tongue_twister.png"
         width="390"
         height="300"
         id="image3052" />
      <image
         transform="translate(-926.23268,330.52806)"
         xlink:href="file:///Users/igabe/Downloads/COLOURlovers.com-Terra.png"
         width="390"
         height="300"
         id="image2978" />
    </g>
    <path
       style="fill:#ffa136;fill-opacity:1;fill-rule:nonzero;stroke:none"
       id="path13220"
       d="m 110.97132,-243.19878 c -23.163914,23.91284 -40.771342,52.43465 -58.227963,80.57661 -27.540275,47.60507 -51.3487183,98.424436 -63.172356,152.451741 -2.398961,10.96189059 -3.627312,22.14757 -5.440969,33.221356 -4.86669,46.802324 2.004688,90.381553 18.3979968,134.341603 4.146953,11.1204 8.2695972,22.34526 14.0092512,32.73357 8.49742,15.37965 19.037887,29.53841 28.55683,44.30761 55.66564,78.98759 120.03688,151.43331 175.32709,230.69809 8.55298,12.26167 16.51985,24.92193 24.77978,37.3829 20.90153,34.97799 43.29756,71.23595 47.9749,112.66283 2.15363,19.07452 0.2647,24.7674 -2.20371,43.43612 -8.88362,39.6331 -25.68375,76.77975 -43.02361,113.29682 -10.23352,22.92728 -22.17351,44.91843 -34.9284,66.50706 -2.8244,4.75767 -5.76044,9.43996 -8.83375,14.03929 0,0 -16.60137,-0.99556 -16.60137,-0.99556 l 0,0 c 3.1748,-4.5532 6.22873,-9.18381 9.11637,-13.92656 13.08588,-21.47654 25.35372,-43.36561 35.73147,-66.31638 17.46699,-36.31887 34.17848,-73.34336 43.20109,-112.80964 2.53421,-18.54496 4.3881,-23.98044 2.40909,-42.94975 -4.28739,-41.09563 -25.93105,-77.28992 -46.36471,-112.15757 -8.09972,-12.45035 -15.89097,-25.1069 -24.29917,-37.35104 C 152.67385,386.28762 88.560499,313.63598 32.217918,235.18432 22.249146,220.35666 11.138853,206.23567 2.3116012,190.70133 -3.5748265,180.3423 -7.5745642,168.99773 -11.736051,157.83343 -28.209669,113.63856 -35.169824,69.874236 -30.253518,22.817181 c 1.825453,-11.123974 3.066067,-22.35985622 5.476357,-33.37192 11.778205,-53.81191 35.632015,-105.206251 62.652122,-152.885711 17.044777,-28.15649 34.246012,-56.54357 56.397383,-81.07256 0,0 16.698976,1.31423 16.698976,1.31423 z" />
    <path
       style="fill:#ffffff;stroke:#000000;stroke-width:1px;stroke-linecap:butt;stroke-linejoin:miter;stroke-opacity:1;fill-opacity:0"
       d="M -415.77879,-359.02295 C -235.39733,-177.40437 -72.030468,55.587124 19.79899,294.34371"
       id="path13734" />
    <rect
       style="opacity:0.20987657;fill:#005eff;fill-opacity:1;fill-rule:nonzero;stroke:none;display:inline"
       id="rect2816-1"
       width="631"
       height="175"
       x="1128.7024"
       y="5.9020696"
       transform="matrix(1,0,0,0.06857143,-2075.2973,836.49208)" />
    <rect
       style="opacity:0.62962964;fill:#ff6a00;fill-opacity:1;fill-rule:nonzero;stroke:#000000;stroke-opacity:1;display:inline"
       id="rect2816-2-2"
       width="629.89789"
       height="90.265579"
       x="1126.7537"
       y="-287.05811"
       transform="matrix(1.0009649,0,0,-0.15369481,-2074.6883,830.23738)" />
    <flowRoot
       xml:space="preserve"
       id="flowRoot5311-3"
       style="font-size:40px;font-style:normal;font-weight:normal;fill:#231130;fill-opacity:1;stroke:#ffffff;stroke-width:2.09043527;stroke-miterlimit:4;stroke-opacity:1;stroke-dasharray:none;display:inline;font-family:Bitstream Vera Sans"
       transform="matrix(1.4351078,0,0,1.4351078,-1081.1837,762.77648)"><flowRegion
         id="flowRegion5313-3"><rect
           id="rect5315-5"
           width="430"
           height="102"
           x="100"
           y="10.362183"
           style="fill:#231130;fill-opacity:1;stroke:#ffffff;stroke-width:2.09043527;stroke-miterlimit:4;stroke-opacity:1;stroke-dasharray:none" /></flowRegion><flowPara
         id="flowPara5317-1"
         style="font-style:normal;font-variant:normal;font-weight:normal;font-stretch:normal;fill:#231130;fill-opacity:1;stroke:#ffffff;stroke-width:2.09043527;stroke-miterlimit:4;stroke-opacity:1;stroke-dasharray:none;font-family:World of Water;-inkscape-font-specification:World of Water">thrilldesigns.com</flowPara></flowRoot>    <rect
       style="fill:#94aac2;fill-opacity:1;fill-rule:nonzero;stroke:#ffffff;stroke-width:0.2815834;stroke-linejoin:bevel;stroke-opacity:1;display:inline;filter:url(#filter3858-5-7)"
       id="rect2816-7-7-1"
       width="202.71841"
       height="19.718416"
       x="49.640808"
       y="13.002975"
       transform="matrix(-6.3945939e-4,1.7142234,-0.22728336,-0.00124396,-521.95723,818.49588)" />
    <rect
       y="607.40704"
       x="1373.3802"
       height="7.0406227"
       width="1283.249"
       id="rect3062-3"
       style="fill:#e6e6e6;fill-opacity:1;fill-rule:nonzero;stroke:none;display:inline"
       transform="matrix(9.6044837e-5,0.44439821,1.0001112,-0.0094477,-975.38913,275.37068)" />
    <rect
       style="fill:#36aeff;fill-opacity:1;fill-rule:nonzero;stroke:#000000;stroke-opacity:1;display:inline;filter:url(#filter13861)"
       id="rect2816-2-21-3"
       width="629.89789"
       height="90.265579"
       x="1129.2537"
       y="107.1702"
       transform="matrix(1.0011006,0,0,-0.09396095,-2077.1546,868.61068)" />
    <image
       id="image2886-7"
       height="300"
       width="390"
       xlink:href="file:///Users/igabe/Downloads/COLOURlovers.com-%5Bw%5D_Lustful_Sea.png"
       transform="matrix(0.3923048,0,0,0.27818805,-851.82853,1308.0272)" />
    <image
       id="image3200-9"
       height="300"
       width="390"
       xlink:href="file:///Users/igabe/Downloads/COLOURlovers.com-impure.png"
       transform="matrix(0.3923048,0,0,0.27818805,-1003.3309,1358.5187)" />
    <image
       id="image3126-3"
       height="300"
       width="390"
       xlink:href="file:///Users/igabe/Downloads/COLOURlovers.com-Dolor*S_Mingaderas.png"
       transform="matrix(0.3923048,0,0,0.27818805,-852.37513,1224.6705)"
       style="fill:#ff6a00;fill-opacity:1" />
    <image
       id="image3052-8"
       height="300"
       width="390"
       xlink:href="file:///Users/igabe/Downloads/COLOURlovers.com-tongue_twister.png"
       transform="matrix(0.3923048,0,0,0.27818805,-1003.6628,1427.931)" />
    <image
       id="image2978-0"
       height="300"
       width="390"
       xlink:href="file:///Users/igabe/Downloads/COLOURlovers.com-Terra.png"
       transform="matrix(0.3923048,0,0,0.27818805,-851.47933,1427.9305)" />
  </g>
</svg>
