<?xml version="1.0" encoding="UTF-8" standalone="no"?>
<!-- Created with Inkscape (http://www.inkscape.org/) -->

<svg
   xmlns:dc="http://purl.org/dc/elements/1.1/"
   xmlns:cc="http://creativecommons.org/ns#"
   xmlns:rdf="http://www.w3.org/1999/02/22-rdf-syntax-ns#"
   xmlns:svg="http://www.w3.org/2000/svg"
   xmlns="http://www.w3.org/2000/svg"
   xmlns:sodipodi="http://sodipodi.sourceforge.net/DTD/sodipodi-0.dtd"
   xmlns:inkscape="http://www.inkscape.org/namespaces/inkscape"
   width="744.09448819"
   height="1052.3622047"
   id="svg2"
   version="1.1"
   inkscape:version="0.47pre1 r21720"
   sodipodi:docname="2009Aug11ThrLayout11C.svg"
   inkscape:output_extension="org.inkscape.output.svg.inkscape">
  <defs
     id="defs4">
    <marker
       inkscape:stockid="CurveOut"
       orient="auto"
       refY="0.0"
       refX="0.0"
       id="CurveOut"
       style="overflow:visible">
      <path
         id="path4086"
         d="M -5.4129913,-5.0456926 C -2.6529913,-5.0456926 -0.41299131,-2.8056926 -0.41299131,-0.045692580 C -0.41299131,2.7143074 -2.6529913,4.9543074 -5.4129913,4.9543074"
         style="fill:none;fill-rule:evenodd;stroke:#000000;stroke-width:1.0pt;marker-start:none;marker-end:none"
         transform="scale(0.6)" />
    </marker>
    <marker
       inkscape:stockid="Scissors"
       orient="auto"
       refY="0.0"
       refX="0.0"
       id="Scissors"
       style="overflow:visible">
      <path
         id="schere"
         style="marker-start:none"
         d="M 9.0898857,-3.6061018 C 8.1198849,-4.7769976 6.3697607,-4.7358294 5.0623558,-4.2327734 L -3.1500488,-1.1548705 C -5.5383421,-2.4615840 -7.8983361,-2.0874077 -7.8983361,-2.7236578 C -7.8983361,-3.2209742 -7.4416699,-3.1119800 -7.5100293,-4.4068519 C -7.5756648,-5.6501286 -8.8736064,-6.5699315 -10.100428,-6.4884954 C -11.327699,-6.4958500 -12.599867,-5.5553341 -12.610769,-4.2584343 C -12.702194,-2.9520479 -11.603560,-1.7387447 -10.304005,-1.6532027 C -8.7816644,-1.4265411 -6.0857470,-2.3487593 -4.8210600,-0.082342643 C -5.7633447,1.6559151 -7.4350844,1.6607341 -8.9465707,1.5737277 C -10.201445,1.5014928 -11.708664,1.8611256 -12.307219,3.0945882 C -12.885586,4.2766744 -12.318421,5.9591904 -10.990470,6.3210002 C -9.6502788,6.8128279 -7.8098011,6.1912892 -7.4910978,4.6502760 C -7.2454393,3.4624530 -8.0864637,2.9043186 -7.7636052,2.4731223 C -7.5199917,2.1477623 -5.9728246,2.3362771 -3.2164999,1.0982979 L 5.6763468,4.2330688 C 6.8000164,4.5467672 8.1730685,4.5362646 9.1684433,3.4313614 L -0.051640930,-0.053722219 L 9.0898857,-3.6061018 z M -9.2179159,-5.5066058 C -7.9233569,-4.7838060 -8.0290767,-2.8230356 -9.3743431,-2.4433169 C -10.590861,-2.0196559 -12.145370,-3.2022863 -11.757521,-4.5207817 C -11.530373,-5.6026336 -10.104134,-6.0014137 -9.2179159,-5.5066058 z M -9.1616516,2.5107591 C -7.8108215,3.0096239 -8.0402087,5.2951947 -9.4138723,5.6023681 C -10.324932,5.9187072 -11.627422,5.4635705 -11.719569,4.3902287 C -11.897178,3.0851737 -10.363484,1.9060805 -9.1616516,2.5107591 z " />
    </marker>
    <marker
       style="overflow:visible"
       inkscape:stockid="InfiniteLineStart"
       id="InfiniteLineStart"
       refX="0"
       refY="0"
       orient="auto">
      <g
         id="g4143"
         transform="translate(-13,0)">
        <circle
           d="M 3.8,0 C 3.8,0.44182781 3.4418278,0.80000001 3,0.80000001 2.5581722,0.80000001 2.2,0.44182781 2.2,0 c 0,-0.44182781 0.3581722,-0.80000001 0.8,-0.80000001 0.4418278,0 0.8,0.3581722 0.8,0.80000001 z"
           id="circle4145"
           r="0.8"
           cy="0"
           cx="3" />
        <circle
           d="M 7.3,0 C 7.3,0.44182781 6.9418278,0.80000001 6.5,0.80000001 6.0581722,0.80000001 5.7,0.44182781 5.7,0 c 0,-0.44182781 0.3581722,-0.80000001 0.8,-0.80000001 0.4418278,0 0.8,0.3581722 0.8,0.80000001 z"
           id="circle4147"
           r="0.8"
           cy="0"
           cx="6.5" />
        <circle
           d="M 10.8,0 C 10.8,0.44182781 10.441828,0.80000001 10,0.80000001 9.5581722,0.80000001 9.2,0.44182781 9.2,0 c 0,-0.44182781 0.3581722,-0.80000001 0.8,-0.80000001 0.441828,0 0.8,0.3581722 0.8,0.80000001 z"
           id="circle4149"
           r="0.8"
           cy="0"
           cx="10" />
      </g>
    </marker>
    <marker
       inkscape:stockid="Torso"
       orient="auto"
       refY="0.0"
       refX="0.0"
       id="Torso"
       style="overflow:visible">
      <g
         id="g4111"
         transform="scale(0.7)">
        <path
           id="path4113"
           d="M -4.7792281,-3.2395420 C -2.4288541,-2.8736027 0.52103922,-1.3019943 0.25792722,0.38794346 C -0.0051877922,2.0778819 -2.2126741,2.6176539 -4.5630471,2.2517169 C -6.9134221,1.8857769 -8.5210350,0.75201414 -8.2579220,-0.93792336 C -7.9948090,-2.6278615 -7.1296041,-3.6054813 -4.7792281,-3.2395420 z "
           style="fill:none;fill-opacity:0.75000000;fill-rule:evenodd;stroke:#000000;stroke-width:1.2500000;marker-start:none;marker-mid:none;marker-end:none" />
        <path
           id="path4115"
           d="M 4.4598789,0.088665736 C -2.5564571,-4.3783320 5.2248769,-3.9061806 -0.84829578,-8.7197331"
           style="fill:none;fill-opacity:0.75000000;fill-rule:evenodd;stroke:#000000;stroke-width:1.0000000pt;marker-end:none" />
        <path
           id="path4117"
           d="M 4.9298719,0.057520736 C -1.3872731,1.7494689 1.8027579,5.4782079 -4.9448731,7.5462725"
           style="fill:none;fill-opacity:0.75000000;fill-rule:evenodd;stroke:#000000;stroke-width:1.0000000pt;marker-start:none;marker-end:none" />
        <rect
           id="rect4119"
           transform="matrix(0.527536,-0.849533,0.887668,0.460484,0,0)"
           y="-1.7408575"
           x="-10.391706"
           height="2.7608147"
           width="2.6366582"
           style="fill-rule:evenodd;stroke-width:1.0000000pt;marker-end:none" />
        <rect
           id="rect4121"
           transform="matrix(0.671205,-0.741272,0.790802,0.612072,0,0)"
           y="-7.9629307"
           x="4.9587269"
           height="2.8614161"
           width="2.7327356"
           style="fill-rule:evenodd;stroke-width:1.0000000pt;marker-end:none" />
        <path
           id="path4123"
           transform="matrix(0,-1.109517,1.109517,0,25.96648,19.71619)"
           d="m 16.779951,-28.685045 c 0,0.335412 -0.271905,0.607317 -0.607317,0.607317 -0.335412,0 -0.607317,-0.271905 -0.607317,-0.607317 0,-0.335412 0.271905,-0.607318 0.607317,-0.607318 0.335412,0 0.607317,0.271906 0.607317,0.607318 z"
           sodipodi:ry="0.60731727"
           sodipodi:rx="0.60731727"
           sodipodi:cy="-28.685045"
           sodipodi:cx="16.172634"
           style="fill:#ff0000;fill-opacity:0.75000000;fill-rule:evenodd;stroke:#000000;stroke-width:1.0000000pt;marker-start:none;marker-end:none"
           sodipodi:type="arc" />
        <path
           id="path4125"
           transform="matrix(0,-1.109517,1.109517,0,26.82450,16.99126)"
           d="m 16.779951,-28.685045 c 0,0.335412 -0.271905,0.607317 -0.607317,0.607317 -0.335412,0 -0.607317,-0.271905 -0.607317,-0.607317 0,-0.335412 0.271905,-0.607318 0.607317,-0.607318 0.335412,0 0.607317,0.271906 0.607317,0.607318 z"
           sodipodi:ry="0.60731727"
           sodipodi:rx="0.60731727"
           sodipodi:cy="-28.685045"
           sodipodi:cx="16.172634"
           style="fill:#ff0000;fill-opacity:0.75000000;fill-rule:evenodd;stroke:#000000;stroke-width:1.0000000pt;marker-start:none;marker-end:none"
           sodipodi:type="arc" />
      </g>
    </marker>
    <marker
       inkscape:stockid="RazorWire"
       id="RazorWire"
       refX="0"
       refY="0"
       orient="auto">
       style=&quot;overflow:visible&quot;&gt;
      <path
   id="path4131"
   transform="scale(0.8,0.8)"
   style="fill:#808080;fill-opacity:1;fill-rule:evenodd;stroke:#000000;stroke-width:0.1pt"
   d="M 0.022727273,-0.74009011 L 0.022727273,0.69740989 L -7.7585227,3.0099099 L 10.678977,3.0099099 L 3.4914773,0.69740989 L 3.4914773,-0.74009011 L 10.741477,-2.8963401 L -7.7272727,-2.8963401 L 0.022727273,-0.74009011 z " />
</marker>
    <marker
       inkscape:stockid="Arrow1Mstart"
       orient="auto"
       refY="0.0"
       refX="0.0"
       id="Arrow1Mstart"
       style="overflow:visible">
      <path
         id="path3904"
         d="M 0.0,0.0 L 5.0,-5.0 L -12.5,0.0 L 5.0,5.0 L 0.0,0.0 z "
         style="fill-rule:evenodd;stroke:#000000;stroke-width:1.0pt;marker-start:none"
         transform="scale(0.4) translate(10,0)" />
    </marker>
    <marker
       inkscape:stockid="Arrow1Lstart"
       orient="auto"
       refY="0.0"
       refX="0.0"
       id="Arrow1Lstart"
       style="overflow:visible">
      <path
         id="path3898"
         d="M 0.0,0.0 L 5.0,-5.0 L -12.5,0.0 L 5.0,5.0 L 0.0,0.0 z "
         style="fill-rule:evenodd;stroke:#000000;stroke-width:1.0pt;marker-start:none"
         transform="scale(0.8) translate(12.5,0)" />
    </marker>
    <inkscape:perspective
       sodipodi:type="inkscape:persp3d"
       inkscape:vp_x="0 : 526.18109 : 1"
       inkscape:vp_y="0 : 1000 : 0"
       inkscape:vp_z="744.09448 : 526.18109 : 1"
       inkscape:persp3d-origin="372.04724 : 350.78739 : 1"
       id="perspective10" />
    <inkscape:perspective
       id="perspective2826"
       inkscape:persp3d-origin="0.5 : 0.33333333 : 1"
       inkscape:vp_z="1 : 0.5 : 1"
       inkscape:vp_y="0 : 1000 : 0"
       inkscape:vp_x="0 : 0.5 : 1"
       sodipodi:type="inkscape:persp3d" />
    <inkscape:perspective
       id="perspective2887"
       inkscape:persp3d-origin="0.5 : 0.33333333 : 1"
       inkscape:vp_z="1 : 0.5 : 1"
       inkscape:vp_y="0 : 1000 : 0"
       inkscape:vp_x="0 : 0.5 : 1"
       sodipodi:type="inkscape:persp3d" />
    <inkscape:perspective
       id="perspective2954"
       inkscape:persp3d-origin="0.5 : 0.33333333 : 1"
       inkscape:vp_z="1 : 0.5 : 1"
       inkscape:vp_y="0 : 1000 : 0"
       inkscape:vp_x="0 : 0.5 : 1"
       sodipodi:type="inkscape:persp3d" />
    <inkscape:perspective
       id="perspective2954-3"
       inkscape:persp3d-origin="0.5 : 0.33333333 : 1"
       inkscape:vp_z="1 : 0.5 : 1"
       inkscape:vp_y="0 : 1000 : 0"
       inkscape:vp_x="0 : 0.5 : 1"
       sodipodi:type="inkscape:persp3d" />
    <inkscape:perspective
       id="perspective3048"
       inkscape:persp3d-origin="0.5 : 0.33333333 : 1"
       inkscape:vp_z="1 : 0.5 : 1"
       inkscape:vp_y="0 : 1000 : 0"
       inkscape:vp_x="0 : 0.5 : 1"
       sodipodi:type="inkscape:persp3d" />
    <filter
       inkscape:collect="always"
       id="filter3858"
       x="-0.11727906"
       width="1.2345581"
       y="-1.2057066"
       height="3.4114132">
      <feGaussianBlur
         inkscape:collect="always"
         stdDeviation="9.9060937"
         id="feGaussianBlur3860" />
    </filter>
  </defs>
  <sodipodi:namedview
     id="base"
     pagecolor="#ffffff"
     bordercolor="#666666"
     borderopacity="1.0"
     inkscape:pageopacity="0.0"
     inkscape:pageshadow="2"
     inkscape:zoom="1"
     inkscape:cx="1306.8507"
     inkscape:cy="1027.8904"
     inkscape:document-units="px"
     inkscape:current-layer="layer1"
     showgrid="false"
     inkscape:window-width="1349"
     inkscape:window-height="1159"
     inkscape:window-x="305"
     inkscape:window-y="0"
     inkscape:window-maximized="0"
     showborder="false" />
  <metadata
     id="metadata7">
    <rdf:RDF>
      <cc:Work
         rdf:about="">
        <dc:format>image/svg+xml</dc:format>
        <dc:type
           rdf:resource="http://purl.org/dc/dcmitype/StillImage" />
        <dc:title></dc:title>
      </cc:Work>
    </rdf:RDF>
  </metadata>
  <g
     inkscape:label="Layer 1"
     inkscape:groupmode="layer"
     id="layer1"
     style="display:inline">
    <rect
       style="fill:#00a4d4;fill-opacity:1;fill-rule:nonzero;stroke:#ffffff;stroke-width:0.2815834;stroke-linejoin:bevel;stroke-opacity:1;filter:url(#filter3858)"
       id="rect2816-7"
       width="202.71841"
       height="19.718416"
       x="49.640808"
       y="13.002975"
       transform="matrix(-0.00542838,3.7990761,-1.9294078,-0.00275687,1654.7086,-543.03269)" />
    <rect
       y="-1630.0591"
       x="-443.86035"
       height="105"
       width="1286.25"
       id="rect3062"
       style="fill:#e6e6e6;fill-opacity:1;fill-rule:nonzero;stroke:none"
       transform="matrix(-0.00142886,0.99999898,-0.99999898,-0.00142886,0,0)" />
    <path
       inkscape:export-xdpi="90"
       inkscape:export-ydpi="90"
       style="fill:#666666;fill-opacity:1;fill-rule:nonzero;stroke:none"
       id="path2816"
       d="m 1627.1276,-310.97456 c -1.3249,0.0195 53.374,-44.215 52.0546,-44.0994 -1.6509,0.12464 -3.2818,0.40595 -4.898,0.75575 -2.0852,0.49973 -4.1416,1.11563 -6.1829,1.77001 -2.4072,0.76576 -4.7977,1.58308 -7.1909,2.39144 -2.7197,0.9663 -5.4191,1.98807 -8.128,2.98428 -2.8972,1.10523 -5.8096,2.17022 -8.7195,3.24163 -3.1515,1.14641 -6.2836,2.34273 -9.4557,3.43205 -3.4602,1.13893 -6.9237,2.2672 -10.3844,3.40487 -3.7244,1.24509 -7.4794,2.39422 -11.248,3.4967 -4.0173,1.1474 -8.0669,2.17666 -12.1198,3.18962 -4.1981,1.02845 -8.4169,1.96759 -12.6412,2.88094 -4.3262,0.93743 -8.669,1.79244 -13.0208,2.60121 -4.5489,0.83109 -9.1056,1.61977 -13.6692,2.36617 -4.6358,0.76558 -9.2821,1.46542 -13.9306,2.14937 -4.7622,0.6403 -9.5394,1.16376 -14.3156,1.68739 -4.8508,0.47546 -9.7113,0.84437 -14.5699,1.22886 -4.868,0.38496 -9.7468,0.61337 -14.623,0.86653 -4.8611,0.25251 -9.7284,0.35783 -14.594,0.49053 -4.79,0.0681 -9.5808,0.10614 -14.3713,0.0733 -4.7674,-0.0257 -9.5318,-0.16434 -14.2961,-0.32879 -4.8381,-0.16009 -9.6705,-0.44885 -14.4999,-0.77428 -5.1947,-0.39109 -10.3801,-0.89681 -15.5609,-1.4391 -5.7048,-0.55515 -11.3793,-1.35707 -17.0553,-2.14359 -6.2706,-0.90673 -12.5355,-1.85279 -18.8003,-2.79967 -6.8676,-1.02457 -13.734,-2.05904 -20.6081,-3.03981 -7.5075,-1.05516 -58.7475,-35.23845 -66.2713,-36.17069 -8.3129,-0.98545 27.0915,31.28342 18.767,30.40138 -9.1882,-0.97257 -18.394,-1.76483 -27.6026,-2.51601 -9.4787,-0.76861 -18.9639,-1.45252 -28.4512,-2.10411 -9.5716,-0.69819 -19.1566,-1.17746 -28.7429,-1.62035 -9.6029,-0.4391 -19.2083,-0.81898 -28.8143,-1.18256 -9.2208,-0.30298 -18.4448,-0.49491 -27.6683,-0.69662 -8.4161,-0.18554 -16.8322,-0.36368 -25.2485,-0.53998 -7.6674,-0.1557 -15.3351,-0.30347 -23.0026,-0.45229 -6.8199,-0.1323 -13.6399,-0.26444 -20.4599,-0.3966 -6.0538,-0.11733 -12.1077,-0.23464 -18.1614,-0.35195 -5.3737,-0.10418 -10.7473,-0.20827 -16.1209,-0.31242 -4.7698,-0.0924 -9.5396,-0.18485 -14.3094,-0.27727 -4.2338,-0.0821 -8.4676,-0.1641 -12.7015,-0.24614 -3.7581,-0.0729 -7.5162,-0.14566 -11.2742,-0.2185 -3.3359,-0.0647 -6.6717,-0.12928 -10.0075,-0.19392 -2.9609,-0.0574 -5.9219,-0.11476 -8.883,-0.17214 -1.7867,-0.0347 -3.5734,-0.0692 -5.3602,-0.10385 0,0 9.2552,-5.66681 9.2552,-5.66681 l 0,0 c 1.7733,0.043 3.5464,0.0859 5.3196,0.12876 2.9386,0.0711 5.8771,0.14226 8.8156,0.21339 3.3105,0.0801 6.621,0.16026 9.9315,0.2404 3.7296,0.0902 7.4592,0.18056 11.1888,0.27083 4.2017,0.1017 8.4035,0.20341 12.6052,0.30511 4.7336,0.11458 9.4673,0.22917 14.2009,0.34374 5.3329,0.12908 10.6657,0.25817 15.9986,0.38725 6.0079,0.14542 149.7765,22.45833 155.7844,22.60375 6.7683,0.16382 -124.224,-21.83982 -117.4557,-21.67603 7.6142,0.18421 -101.6544,11.95968 -94.0401,12.1411 8.3702,0.19723 133.6229,-11.18628 141.9925,-10.96598 9.182,0.2419 18.3644,0.47012 27.5446,0.77247 9.5941,0.37905 19.1885,0.76017 28.7801,1.20348 9.5972,0.4456 19.1952,0.89189 28.7777,1.59898 9.4887,0.65851 18.9762,1.3358 28.457,2.10055 9.2518,0.75268 18.504,1.50737 27.7406,2.43158 8.3758,0.84811 -100.5013,-0.97176 -92.1368,-0.0172 7.5719,0.89635 132.3824,4.58091 139.9381,5.60462 6.9113,0.95123 13.8096,1.99289 20.7168,2.97336 6.2994,0.93494 -27.9715,-19.98754 -21.6674,-19.08449 5.7171,0.76251 52.0102,23.34985 57.7543,23.886 5.2072,0.53128 -21.4405,-15.30875 -16.2194,-14.93619 4.8453,0.31472 255.4002,-2.89215 260.2535,-2.7379 4.759,0.17503 -204.327,20.11979 -199.5647,20.1474 4.7886,0.0369 81.4249,15.28252 86.213,15.22438 4.8649,-0.12254 -62.1155,-15.52256 -57.2556,-15.7832 4.8756,-0.24341 9.7534,-0.47192 14.6198,-0.86462 4.8612,-0.37596 9.7231,-0.75104 14.5753,-1.23215 4.7826,-0.52555 9.5665,-1.04664 14.3339,-1.69863 4.6519,-0.68633 9.3015,-1.3895 13.9411,-2.15573 4.5697,-0.75778 9.1365,-1.53476 13.691,-2.37964 4.3629,-0.81972 8.7166,-1.68765 13.0563,-2.62288 4.2355,-0.91458 8.4641,-1.86215 12.6715,-2.89949 4.0661,-1.01647 8.1295,-2.04749 12.1562,-3.21195 3.7835,-1.11046 -92.1187,11.73736 -88.3806,10.48157 3.4787,-1.1512 106.634,-16.29304 110.1126,-17.44414 3.1876,-1.10352 43.5427,-0.40714 46.7106,-1.56515 2.925,-1.08395 -31.3494,-4.05249 -28.4365,-5.16897 2.7253,-1.00145 5.4381,-2.03694 8.1731,-3.01198 2.423,-0.82545 4.8432,-1.66047 7.2795,-2.44574 2.065,-0.66424 4.1439,-1.29123 6.2504,-1.81122 1.6451,-0.37039 3.3034,-0.67592 4.9868,-0.81021 1.3192,-0.12667 2.6384,-0.23883 3.9654,-0.2189 0,0 -65.4932,50.11861 -65.4932,50.11861 z"
       sodipodi:nodetypes="cccccccccccsccccsscccccccccsccccccssssssssscccssssssssscsccccccccccccccccccccscccccccscccc" />
  </g>
  <g
     inkscape:groupmode="layer"
     id="layer2"
     inkscape:label="Layer"
     style="display:none">
    <rect
       style="fill:#f2f2f2;fill-opacity:1;fill-rule:nonzero;stroke:none"
       id="rect2840"
       width="746"
       height="28"
       x="0"
       y="84.362183" />
    <rect
       style="opacity:0.89300411;fill:#ffffff;fill-opacity:1;fill-rule:nonzero;stroke:none;display:inline"
       id="rect2922-9"
       width="744"
       height="86"
       x="2"
       y="2.3621826" />
  </g>
</svg>
