<?xml version="1.0" encoding="UTF-8" standalone="no"?>
<!-- Created with Inkscape (http://www.inkscape.org/) -->

<svg
   xmlns:dc="http://purl.org/dc/elements/1.1/"
   xmlns:cc="http://creativecommons.org/ns#"
   xmlns:rdf="http://www.w3.org/1999/02/22-rdf-syntax-ns#"
   xmlns:svg="http://www.w3.org/2000/svg"
   xmlns="http://www.w3.org/2000/svg"
   xmlns:sodipodi="http://sodipodi.sourceforge.net/DTD/sodipodi-0.dtd"
   xmlns:inkscape="http://www.inkscape.org/namespaces/inkscape"
   width="744.09448819"
   height="1052.3622047"
   id="svg2"
   version="1.1"
   inkscape:version="0.47pre1 r21720"
   sodipodi:docname="2009Aug11ThrLayout12b.svg"
   inkscape:output_extension="org.inkscape.output.svg.inkscape">
  <defs
     id="defs4">
    <marker
       inkscape:stockid="CurveOut"
       orient="auto"
       refY="0.0"
       refX="0.0"
       id="CurveOut"
       style="overflow:visible">
      <path
         id="path4086"
         d="M -5.4129913,-5.0456926 C -2.6529913,-5.0456926 -0.41299131,-2.8056926 -0.41299131,-0.045692580 C -0.41299131,2.7143074 -2.6529913,4.9543074 -5.4129913,4.9543074"
         style="fill:none;fill-rule:evenodd;stroke:#000000;stroke-width:1.0pt;marker-start:none;marker-end:none"
         transform="scale(0.6)" />
    </marker>
    <marker
       inkscape:stockid="Scissors"
       orient="auto"
       refY="0.0"
       refX="0.0"
       id="Scissors"
       style="overflow:visible">
      <path
         id="schere"
         style="marker-start:none"
         d="M 9.0898857,-3.6061018 C 8.1198849,-4.7769976 6.3697607,-4.7358294 5.0623558,-4.2327734 L -3.1500488,-1.1548705 C -5.5383421,-2.4615840 -7.8983361,-2.0874077 -7.8983361,-2.7236578 C -7.8983361,-3.2209742 -7.4416699,-3.1119800 -7.5100293,-4.4068519 C -7.5756648,-5.6501286 -8.8736064,-6.5699315 -10.100428,-6.4884954 C -11.327699,-6.4958500 -12.599867,-5.5553341 -12.610769,-4.2584343 C -12.702194,-2.9520479 -11.603560,-1.7387447 -10.304005,-1.6532027 C -8.7816644,-1.4265411 -6.0857470,-2.3487593 -4.8210600,-0.082342643 C -5.7633447,1.6559151 -7.4350844,1.6607341 -8.9465707,1.5737277 C -10.201445,1.5014928 -11.708664,1.8611256 -12.307219,3.0945882 C -12.885586,4.2766744 -12.318421,5.9591904 -10.990470,6.3210002 C -9.6502788,6.8128279 -7.8098011,6.1912892 -7.4910978,4.6502760 C -7.2454393,3.4624530 -8.0864637,2.9043186 -7.7636052,2.4731223 C -7.5199917,2.1477623 -5.9728246,2.3362771 -3.2164999,1.0982979 L 5.6763468,4.2330688 C 6.8000164,4.5467672 8.1730685,4.5362646 9.1684433,3.4313614 L -0.051640930,-0.053722219 L 9.0898857,-3.6061018 z M -9.2179159,-5.5066058 C -7.9233569,-4.7838060 -8.0290767,-2.8230356 -9.3743431,-2.4433169 C -10.590861,-2.0196559 -12.145370,-3.2022863 -11.757521,-4.5207817 C -11.530373,-5.6026336 -10.104134,-6.0014137 -9.2179159,-5.5066058 z M -9.1616516,2.5107591 C -7.8108215,3.0096239 -8.0402087,5.2951947 -9.4138723,5.6023681 C -10.324932,5.9187072 -11.627422,5.4635705 -11.719569,4.3902287 C -11.897178,3.0851737 -10.363484,1.9060805 -9.1616516,2.5107591 z " />
    </marker>
    <marker
       style="overflow:visible"
       inkscape:stockid="InfiniteLineStart"
       id="InfiniteLineStart"
       refX="0"
       refY="0"
       orient="auto">
      <g
         id="g4143"
         transform="translate(-13,0)">
        <circle
           d="M 3.8,0 C 3.8,0.44182781 3.4418278,0.80000001 3,0.80000001 2.5581722,0.80000001 2.2,0.44182781 2.2,0 c 0,-0.44182781 0.3581722,-0.80000001 0.8,-0.80000001 0.4418278,0 0.8,0.3581722 0.8,0.80000001 z"
           id="circle4145"
           r="0.8"
           cy="0"
           cx="3" />
        <circle
           d="M 7.3,0 C 7.3,0.44182781 6.9418278,0.80000001 6.5,0.80000001 6.0581722,0.80000001 5.7,0.44182781 5.7,0 c 0,-0.44182781 0.3581722,-0.80000001 0.8,-0.80000001 0.4418278,0 0.8,0.3581722 0.8,0.80000001 z"
           id="circle4147"
           r="0.8"
           cy="0"
           cx="6.5" />
        <circle
           d="M 10.8,0 C 10.8,0.44182781 10.441828,0.80000001 10,0.80000001 9.5581722,0.80000001 9.2,0.44182781 9.2,0 c 0,-0.44182781 0.3581722,-0.80000001 0.8,-0.80000001 0.441828,0 0.8,0.3581722 0.8,0.80000001 z"
           id="circle4149"
           r="0.8"
           cy="0"
           cx="10" />
      </g>
    </marker>
    <marker
       inkscape:stockid="Torso"
       orient="auto"
       refY="0.0"
       refX="0.0"
       id="Torso"
       style="overflow:visible">
      <g
         id="g4111"
         transform="scale(0.7)">
        <path
           id="path4113"
           d="M -4.7792281,-3.2395420 C -2.4288541,-2.8736027 0.52103922,-1.3019943 0.25792722,0.38794346 C -0.0051877922,2.0778819 -2.2126741,2.6176539 -4.5630471,2.2517169 C -6.9134221,1.8857769 -8.5210350,0.75201414 -8.2579220,-0.93792336 C -7.9948090,-2.6278615 -7.1296041,-3.6054813 -4.7792281,-3.2395420 z "
           style="fill:none;fill-opacity:0.75000000;fill-rule:evenodd;stroke:#000000;stroke-width:1.2500000;marker-start:none;marker-mid:none;marker-end:none" />
        <path
           id="path4115"
           d="M 4.4598789,0.088665736 C -2.5564571,-4.3783320 5.2248769,-3.9061806 -0.84829578,-8.7197331"
           style="fill:none;fill-opacity:0.75000000;fill-rule:evenodd;stroke:#000000;stroke-width:1.0000000pt;marker-end:none" />
        <path
           id="path4117"
           d="M 4.9298719,0.057520736 C -1.3872731,1.7494689 1.8027579,5.4782079 -4.9448731,7.5462725"
           style="fill:none;fill-opacity:0.75000000;fill-rule:evenodd;stroke:#000000;stroke-width:1.0000000pt;marker-start:none;marker-end:none" />
        <rect
           id="rect4119"
           transform="matrix(0.527536,-0.849533,0.887668,0.460484,0,0)"
           y="-1.7408575"
           x="-10.391706"
           height="2.7608147"
           width="2.6366582"
           style="fill-rule:evenodd;stroke-width:1.0000000pt;marker-end:none" />
        <rect
           id="rect4121"
           transform="matrix(0.671205,-0.741272,0.790802,0.612072,0,0)"
           y="-7.9629307"
           x="4.9587269"
           height="2.8614161"
           width="2.7327356"
           style="fill-rule:evenodd;stroke-width:1.0000000pt;marker-end:none" />
        <path
           id="path4123"
           transform="matrix(0,-1.109517,1.109517,0,25.96648,19.71619)"
           d="m 16.779951,-28.685045 c 0,0.335412 -0.271905,0.607317 -0.607317,0.607317 -0.335412,0 -0.607317,-0.271905 -0.607317,-0.607317 0,-0.335412 0.271905,-0.607318 0.607317,-0.607318 0.335412,0 0.607317,0.271906 0.607317,0.607318 z"
           sodipodi:ry="0.60731727"
           sodipodi:rx="0.60731727"
           sodipodi:cy="-28.685045"
           sodipodi:cx="16.172634"
           style="fill:#ff0000;fill-opacity:0.75000000;fill-rule:evenodd;stroke:#000000;stroke-width:1.0000000pt;marker-start:none;marker-end:none"
           sodipodi:type="arc" />
        <path
           id="path4125"
           transform="matrix(0,-1.109517,1.109517,0,26.82450,16.99126)"
           d="m 16.779951,-28.685045 c 0,0.335412 -0.271905,0.607317 -0.607317,0.607317 -0.335412,0 -0.607317,-0.271905 -0.607317,-0.607317 0,-0.335412 0.271905,-0.607318 0.607317,-0.607318 0.335412,0 0.607317,0.271906 0.607317,0.607318 z"
           sodipodi:ry="0.60731727"
           sodipodi:rx="0.60731727"
           sodipodi:cy="-28.685045"
           sodipodi:cx="16.172634"
           style="fill:#ff0000;fill-opacity:0.75000000;fill-rule:evenodd;stroke:#000000;stroke-width:1.0000000pt;marker-start:none;marker-end:none"
           sodipodi:type="arc" />
      </g>
    </marker>
    <marker
       inkscape:stockid="RazorWire"
       id="RazorWire"
       refX="0"
       refY="0"
       orient="auto">
       style=&quot;overflow:visible&quot;&gt;
      <path
   id="path4131"
   transform="scale(0.8,0.8)"
   style="fill:#808080;fill-opacity:1;fill-rule:evenodd;stroke:#000000;stroke-width:0.1pt"
   d="M 0.022727273,-0.74009011 L 0.022727273,0.69740989 L -7.7585227,3.0099099 L 10.678977,3.0099099 L 3.4914773,0.69740989 L 3.4914773,-0.74009011 L 10.741477,-2.8963401 L -7.7272727,-2.8963401 L 0.022727273,-0.74009011 z " />
</marker>
    <marker
       inkscape:stockid="Arrow1Mstart"
       orient="auto"
       refY="0.0"
       refX="0.0"
       id="Arrow1Mstart"
       style="overflow:visible">
      <path
         id="path3904"
         d="M 0.0,0.0 L 5.0,-5.0 L -12.5,0.0 L 5.0,5.0 L 0.0,0.0 z "
         style="fill-rule:evenodd;stroke:#000000;stroke-width:1.0pt;marker-start:none"
         transform="scale(0.4) translate(10,0)" />
    </marker>
    <marker
       inkscape:stockid="Arrow1Lstart"
       orient="auto"
       refY="0.0"
       refX="0.0"
       id="Arrow1Lstart"
       style="overflow:visible">
      <path
         id="path3898"
         d="M 0.0,0.0 L 5.0,-5.0 L -12.5,0.0 L 5.0,5.0 L 0.0,0.0 z "
         style="fill-rule:evenodd;stroke:#000000;stroke-width:1.0pt;marker-start:none"
         transform="scale(0.8) translate(12.5,0)" />
    </marker>
    <inkscape:perspective
       sodipodi:type="inkscape:persp3d"
       inkscape:vp_x="0 : 526.18109 : 1"
       inkscape:vp_y="0 : 1000 : 0"
       inkscape:vp_z="744.09448 : 526.18109 : 1"
       inkscape:persp3d-origin="372.04724 : 350.78739 : 1"
       id="perspective10" />
    <inkscape:perspective
       id="perspective2826"
       inkscape:persp3d-origin="0.5 : 0.33333333 : 1"
       inkscape:vp_z="1 : 0.5 : 1"
       inkscape:vp_y="0 : 1000 : 0"
       inkscape:vp_x="0 : 0.5 : 1"
       sodipodi:type="inkscape:persp3d" />
    <inkscape:perspective
       id="perspective2887"
       inkscape:persp3d-origin="0.5 : 0.33333333 : 1"
       inkscape:vp_z="1 : 0.5 : 1"
       inkscape:vp_y="0 : 1000 : 0"
       inkscape:vp_x="0 : 0.5 : 1"
       sodipodi:type="inkscape:persp3d" />
    <inkscape:perspective
       id="perspective2954"
       inkscape:persp3d-origin="0.5 : 0.33333333 : 1"
       inkscape:vp_z="1 : 0.5 : 1"
       inkscape:vp_y="0 : 1000 : 0"
       inkscape:vp_x="0 : 0.5 : 1"
       sodipodi:type="inkscape:persp3d" />
    <inkscape:perspective
       id="perspective2954-3"
       inkscape:persp3d-origin="0.5 : 0.33333333 : 1"
       inkscape:vp_z="1 : 0.5 : 1"
       inkscape:vp_y="0 : 1000 : 0"
       inkscape:vp_x="0 : 0.5 : 1"
       sodipodi:type="inkscape:persp3d" />
    <inkscape:perspective
       id="perspective3048"
       inkscape:persp3d-origin="0.5 : 0.33333333 : 1"
       inkscape:vp_z="1 : 0.5 : 1"
       inkscape:vp_y="0 : 1000 : 0"
       inkscape:vp_x="0 : 0.5 : 1"
       sodipodi:type="inkscape:persp3d" />
    <filter
       inkscape:collect="always"
       id="filter3858"
       x="-0.11727906"
       width="1.2345581"
       y="-1.2057066"
       height="3.4114132">
      <feGaussianBlur
         inkscape:collect="always"
         stdDeviation="9.9060937"
         id="feGaussianBlur3860" />
    </filter>
  </defs>
  <sodipodi:namedview
     id="base"
     pagecolor="#ffffff"
     bordercolor="#666666"
     borderopacity="1.0"
     inkscape:pageopacity="0.0"
     inkscape:pageshadow="2"
     inkscape:zoom="1"
     inkscape:cx="1306.8507"
     inkscape:cy="1147.8904"
     inkscape:document-units="px"
     inkscape:current-layer="layer1"
     showgrid="false"
     inkscape:window-width="1349"
     inkscape:window-height="1159"
     inkscape:window-x="140"
     inkscape:window-y="0"
     inkscape:window-maximized="0"
     showborder="false" />
  <metadata
     id="metadata7">
    <rdf:RDF>
      <cc:Work
         rdf:about="">
        <dc:format>image/svg+xml</dc:format>
        <dc:type
           rdf:resource="http://purl.org/dc/dcmitype/StillImage" />
        <dc:title></dc:title>
      </cc:Work>
    </rdf:RDF>
  </metadata>
  <g
     inkscape:label="Layer 1"
     inkscape:groupmode="layer"
     id="layer1"
     style="display:inline">
    <rect
       style="fill:#00a4d4;fill-opacity:1;fill-rule:nonzero;stroke:#ffffff;stroke-width:0.2815834;stroke-linejoin:bevel;stroke-opacity:1;filter:url(#filter3858)"
       id="rect2816-7"
       width="202.71841"
       height="19.718416"
       x="49.640808"
       y="13.002975"
       transform="matrix(-0.00488595,3.8124656,-1.7366135,-0.00276659,1585.219,-563.55428)" />
    <rect
       y="1566.0846"
       x="-405.23691"
       height="7.0406227"
       width="1283.249"
       id="rect3062"
       style="fill:#e6e6e6;fill-opacity:1;fill-rule:nonzero;stroke:none"
       transform="matrix(9.6012453e-5,1,0.99977399,-0.02125953,0,0)" />
    <path
       inkscape:export-xdpi="90"
       inkscape:export-ydpi="90"
       style="fill:#666666;fill-opacity:1;fill-rule:nonzero;stroke:none"
       id="path2816"
       d="m 1571.1276,-415.97164 c -1.3249,0.0154 53.374,-34.82944 52.0546,-34.73838 -1.6509,0.0982 -3.2818,0.31978 -4.898,0.59533 -2.0852,0.39365 -4.1416,0.87881 -6.1829,1.39429 -2.4072,0.60321 -4.7977,1.24703 -7.1909,1.8838 -2.7197,0.76119 -5.4191,1.56606 -8.128,2.35081 -2.8972,0.87062 -5.8096,1.70954 -8.7195,2.55352 -3.1515,0.90306 -6.2836,1.84544 -9.4557,2.70353 -3.4602,0.89717 -6.9237,1.78594 -10.3844,2.68211 -3.7244,0.9808 -7.4794,1.886 -11.248,2.75445 -4.0173,0.90385 -8.0669,1.71462 -12.1198,2.51256 -4.1981,0.81014 -8.4169,1.54993 -12.6412,2.2694 -4.3262,0.73844 -8.669,1.41196 -13.0208,2.04905 -4.5489,0.65467 -9.1056,1.27594 -13.6692,1.8639 -4.6358,0.60307 -9.2821,1.15435 -13.9306,1.69312 -4.7622,0.50438 -9.5394,0.91673 -14.3156,1.32921 -4.8508,0.37453 -9.7113,0.66513 -14.5699,0.96801 -4.868,0.30324 -9.7468,0.48317 -14.623,0.68259 -4.8611,0.19891 -9.7284,0.28187 -14.594,0.3864 -4.79,0.0537 -9.5808,0.0836 -14.3713,0.0577 -4.7674,-0.0202 -9.5318,-0.12945 -14.2961,-0.259 -4.8381,-0.1261 -9.6705,-0.35357 -14.4999,-0.60992 -5.1947,-0.30807 -10.3801,-0.70644 -15.5609,-1.13362 -5.7048,-0.43731 -11.3793,-1.069 -17.0553,-1.68857 -6.2706,-0.71425 -12.5355,-1.45949 -18.8003,-2.20538 -6.8676,-0.80708 -13.734,-1.62196 -20.6081,-2.39454 -7.5075,-0.83118 -58.7475,-27.75835 -66.2713,-28.49271 -8.3129,-0.77626 27.0915,24.64286 18.767,23.94805 -9.1882,-0.76612 -18.394,-1.39021 -27.6026,-1.98193 -9.4787,-0.60546 -18.9639,-1.14419 -28.4512,-1.65747 -9.5716,-0.54998 -19.1566,-0.92752 -28.7429,-1.2764 -9.6029,-0.34589 -19.2083,-0.64513 -28.8143,-0.93153 -9.2208,-0.23867 -18.4448,-0.38986 -27.6683,-0.54875 -8.4161,-0.14616 -16.8322,-0.28648 -25.2485,-0.42536 -7.6674,-0.12265 -15.3351,-0.23905 -23.0026,-0.35628 -6.8199,-0.10422 -13.6399,-0.20831 -20.4599,-0.31241 -6.0538,-0.0924 -12.1077,-0.18484 -18.1614,-0.27725 -5.3737,-0.0821 -10.7473,-0.16406 -16.1209,-0.2461 -4.7698,-0.0728 -9.5396,-0.14561 -14.3094,-0.21841 -4.2338,-0.0647 -8.4676,-0.12927 -12.7015,-0.19389 -3.7581,-0.0574 -7.5162,-0.11474 -11.2742,-0.17212 -3.3359,-0.051 -6.6717,-0.10184 -10.0075,-0.15276 -2.9609,-0.0452 -5.9219,-0.0904 -8.883,-0.1356 -1.7867,-0.0273 -3.5734,-0.0545 -5.3602,-0.0818 0,0 9.2552,-4.46391 9.2552,-4.46391 l 0,0 c 1.7733,0.0339 3.5464,0.0677 5.3196,0.10142 2.9386,0.056 5.8771,0.11207 8.8156,0.1681 3.3105,0.0631 6.621,0.12624 9.9315,0.18937 3.7296,0.0711 7.4592,0.14223 11.1888,0.21334 4.2017,0.0801 8.4035,0.16023 12.6052,0.24034 4.7336,0.0903 9.4673,0.18053 14.2009,0.27078 5.3329,0.10168 10.6657,0.20336 15.9986,0.30504 6.0079,0.11456 149.7765,17.69108 155.7844,17.80563 6.7683,0.12905 -124.224,-17.20386 -117.4557,-17.07483 7.6142,0.1451 -101.6544,9.42098 -94.0401,9.56389 8.3702,0.15537 133.6229,-8.81175 141.9925,-8.63822 9.182,0.19055 18.3644,0.37033 27.5446,0.6085 9.5941,0.29859 19.1885,0.59881 28.7801,0.94802 9.5972,0.35101 19.1952,0.70256 28.7777,1.25956 9.4887,0.51873 18.9762,1.05225 28.457,1.65466 9.2518,0.59291 18.504,1.1874 27.7406,1.91543 8.3758,0.66808 -100.5013,-0.76549 -92.1368,-0.0136 7.5719,0.70608 132.3824,3.60851 139.9381,4.41492 6.9113,0.74931 13.8096,1.56986 20.7168,2.3422 6.2994,0.73648 -27.9715,-15.74476 -21.6674,-15.0334 5.7171,0.60065 52.0102,18.39335 57.7543,18.81569 5.2072,0.41851 -21.4405,-12.05914 -16.2194,-11.76567 4.8453,0.24792 255.4002,-2.27823 260.2535,-2.15672 4.759,0.13787 -204.327,15.84894 -199.5647,15.87069 4.7886,0.0291 81.4249,12.03848 86.213,11.99269 4.8649,-0.0965 -62.1155,-12.22758 -57.2556,-12.43289 4.8756,-0.19174 9.7534,-0.37174 14.6198,-0.68109 4.8612,-0.29615 9.7231,-0.59161 14.5753,-0.9706 4.7826,-0.41399 9.5665,-0.82446 14.3339,-1.33806 4.6519,-0.54064 9.3015,-1.09455 13.9411,-1.69813 4.5697,-0.59692 9.1365,-1.20897 13.691,-1.87451 4.3629,-0.64572 8.7166,-1.32941 13.0563,-2.06612 4.2355,-0.72044 8.4641,-1.46687 12.6715,-2.28401 4.0661,-0.8007 8.1295,-1.61287 12.1562,-2.53015 3.7835,-0.87474 -92.1187,9.24586 -88.3806,8.25664 3.4787,-0.90683 106.634,-12.8345 110.1126,-13.74125 3.1876,-0.86928 43.5427,-0.32072 46.7106,-1.23292 2.925,-0.85386 -31.3494,-3.19226 -28.4365,-4.07175 2.7253,-0.78887 5.4381,-1.60455 8.1731,-2.37262 2.423,-0.65023 4.8432,-1.308 7.2795,-1.92658 2.065,-0.52324 4.1439,-1.01714 6.2504,-1.42675 1.6451,-0.29177 3.3034,-0.53244 4.9868,-0.63823 1.3192,-0.0998 2.6384,-0.18813 3.9654,-0.17243 0,0 -65.4932,39.47988 -65.4932,39.47988 z"
       sodipodi:nodetypes="cccccccccccsccccsscccccccccsccccccssssssssscccssssssssscsccccccccccccccccccccscccccccscccc" />
  </g>
  <g
     inkscape:groupmode="layer"
     id="layer2"
     inkscape:label="Layer"
     style="display:none">
    <rect
       style="fill:#f2f2f2;fill-opacity:1;fill-rule:nonzero;stroke:none"
       id="rect2840"
       width="746"
       height="28"
       x="0"
       y="84.362183" />
    <rect
       style="opacity:0.89300411;fill:#ffffff;fill-opacity:1;fill-rule:nonzero;stroke:none;display:inline"
       id="rect2922-9"
       width="744"
       height="86"
       x="2"
       y="2.3621826" />
  </g>
</svg>
