<?xml version="1.0" encoding="UTF-8" standalone="no"?>
<!-- Created with Inkscape (http://www.inkscape.org/) -->

<svg
   xmlns:dc="http://purl.org/dc/elements/1.1/"
   xmlns:cc="http://creativecommons.org/ns#"
   xmlns:rdf="http://www.w3.org/1999/02/22-rdf-syntax-ns#"
   xmlns:svg="http://www.w3.org/2000/svg"
   xmlns="http://www.w3.org/2000/svg"
   xmlns:xlink="http://www.w3.org/1999/xlink"
   xmlns:sodipodi="http://sodipodi.sourceforge.net/DTD/sodipodi-0.dtd"
   xmlns:inkscape="http://www.inkscape.org/namespaces/inkscape"
   width="744.09448819"
   height="1052.3622047"
   id="svg6330"
   version="1.1"
   inkscape:version="0.47 r22583"
   sodipodi:docname="New document 25">
  <defs
     id="defs6332">
    <linearGradient
       inkscape:collect="always"
       id="linearGradient7148">
      <stop
         style="stop-color:#000004;stop-opacity:1;"
         offset="0"
         id="stop7150" />
      <stop
         style="stop-color:#000004;stop-opacity:0;"
         offset="1"
         id="stop7152" />
    </linearGradient>
    <linearGradient
       inkscape:collect="always"
       id="linearGradient7090">
      <stop
         style="stop-color:#0068e0;stop-opacity:1;"
         offset="0"
         id="stop7092" />
      <stop
         style="stop-color:#0068e0;stop-opacity:0;"
         offset="1"
         id="stop7094" />
    </linearGradient>
    <linearGradient
       inkscape:collect="always"
       id="linearGradient6902">
      <stop
         style="stop-color:#0072ff;stop-opacity:1;"
         offset="0"
         id="stop6904" />
      <stop
         style="stop-color:#000000;stop-opacity:0;"
         offset="1"
         id="stop6906" />
    </linearGradient>
    <linearGradient
       inkscape:collect="always"
       id="linearGradient6890">
      <stop
         style="stop-color:#ffffff;stop-opacity:0.6859504;"
         offset="0"
         id="stop6892" />
      <stop
         style="stop-color:#000000;stop-opacity:0;"
         offset="1"
         id="stop6894" />
    </linearGradient>
    <inkscape:perspective
       sodipodi:type="inkscape:persp3d"
       inkscape:vp_x="0 : 526.18109 : 1"
       inkscape:vp_y="0 : 1000 : 0"
       inkscape:vp_z="744.09448 : 526.18109 : 1"
       inkscape:persp3d-origin="372.04724 : 350.78739 : 1"
       id="perspective6338" />
    <linearGradient
       inkscape:collect="always"
       xlink:href="#linearGradient6890"
       id="linearGradient6896"
       x1="48.534317"
       y1="114.58086"
       x2="700.26056"
       y2="114.58086"
       gradientUnits="userSpaceOnUse"
       gradientTransform="matrix(0.9779426,0,0,1.1309137,-17.323571,42.206503)" />
    <linearGradient
       inkscape:collect="always"
       xlink:href="#linearGradient6902"
       id="linearGradient6908"
       x1="668.31696"
       y1="135.42294"
       x2="496.35342"
       y2="135.42294"
       gradientUnits="userSpaceOnUse" />
    <linearGradient
       inkscape:collect="always"
       xlink:href="#linearGradient6902"
       id="linearGradient6915"
       gradientUnits="userSpaceOnUse"
       x1="668.31696"
       y1="135.42294"
       x2="496.35342"
       y2="135.42294"
       gradientTransform="matrix(2.1770935,0,0,2.1770935,-1182.7621,-240.95646)" />
    <filter
       inkscape:collect="always"
       id="filter6927"
       x="-0.036488724"
       width="1.0729774"
       y="-0.23468999"
       height="1.46938">
      <feGaussianBlur
         inkscape:collect="always"
         stdDeviation="5.8476558"
         id="feGaussianBlur6929" />
    </filter>
    <inkscape:perspective
       id="perspective6971"
       inkscape:persp3d-origin="0.5 : 0.33333333 : 1"
       inkscape:vp_z="1 : 0.5 : 1"
       inkscape:vp_y="0 : 1000 : 0"
       inkscape:vp_x="0 : 0.5 : 1"
       sodipodi:type="inkscape:persp3d" />
    <filter
       color-interpolation-filters="sRGB"
       inkscape:collect="always"
       id="filter6927-0"
       x="-0.25"
       width="1.5"
       y="-0.25"
       height="1.5"
       inkscape:label="Neon"
       inkscape:menu="Bevels"
       inkscape:menu-tooltip="Neon light effect">
      <feGaussianBlur
         inkscape:collect="always"
         stdDeviation="5.8476558"
         id="feGaussianBlur6929-6"
         result="fbSourceGraphic" />
      <feColorMatrix
         result="fbSourceGraphicAlpha"
         in="fbSourceGraphic"
         values="0 0 0 -1 0 0 0 0 -1 0 0 0 0 -1 0 0 0 0 1 0"
         id="feColorMatrix6991" />
      <feGaussianBlur
         id="feGaussianBlur6993"
         stdDeviation="1"
         result="result1"
         in="fbSourceGraphic" />
      <feComposite
         in2="result1"
         id="feComposite6995"
         in="result1"
         result="result4"
         operator="in" />
      <feGaussianBlur
         id="feGaussianBlur6997"
         stdDeviation="7"
         result="result6"
         in="result4" />
      <feComposite
         in2="result4"
         id="feComposite6999"
         operator="over"
         in="result6"
         result="result8" />
      <feComposite
         in2="result8"
         id="feComposite7001"
         operator="in"
         result="fbSourceGraphic"
         in="result6" />
      <feSpecularLighting
         id="feSpecularLighting7003"
         specularExponent="45"
         specularConstant="2"
         surfaceScale="2.5"
         lighting-color="rgb(255,255,255)"
         result="result1"
         in="fbSourceGraphic">
        <fePointLight
           id="fePointLight7005"
           z="20000"
           y="-10000"
           x="-5000" />
      </feSpecularLighting>
      <feComposite
         in2="fbSourceGraphic"
         id="feComposite7007"
         operator="in"
         result="result2"
         in="result1" />
      <feComposite
         in2="result2"
         id="feComposite7009"
         k3="1.5"
         k2="1.2"
         operator="arithmetic"
         result="result4"
         in="fbSourceGraphic" />
      <feComposite
         in2="result4"
         id="feComposite7011"
         operator="over"
         in="result9"
         result="result9" />
      <feBlend
         in2="result9"
         id="feBlend7013"
         mode="screen" />
    </filter>
    <inkscape:perspective
       id="perspective6971-8"
       inkscape:persp3d-origin="0.5 : 0.33333333 : 1"
       inkscape:vp_z="1 : 0.5 : 1"
       inkscape:vp_y="0 : 1000 : 0"
       inkscape:vp_x="0 : 0.5 : 1"
       sodipodi:type="inkscape:persp3d" />
    <filter
       color-interpolation-filters="sRGB"
       inkscape:collect="always"
       id="filter6927-8"
       x="-0.25"
       width="1.5"
       y="-0.25"
       height="1.5"
       inkscape:menu="Non realistic 3D shaders"
       inkscape:menu-tooltip="Brushed aluminium shader"
       inkscape:label="Aluminium">
      <feGaussianBlur
         inkscape:collect="always"
         stdDeviation="5.8476558"
         id="feGaussianBlur6929-0"
         result="fbSourceGraphic" />
      <feColorMatrix
         result="fbSourceGraphicAlpha"
         in="fbSourceGraphic"
         values="0 0 0 -1 0 0 0 0 -1 0 0 0 0 -1 0 0 0 0 1 0"
         id="feColorMatrix7028" />
      <feGaussianBlur
         id="feGaussianBlur7030"
         result="result8"
         stdDeviation="7"
         in="fbSourceGraphic" />
      <feComposite
         in2="fbSourceGraphic"
         id="feComposite7032"
         in="result8"
         operator="xor"
         result="result6" />
      <feDisplacementMap
         in2="result6"
         id="feDisplacementMap7034"
         result="result4"
         scale="75"
         yChannelSelector="A"
         xChannelSelector="A"
         in="result6" />
      <feComposite
         in2="fbSourceGraphic"
         id="feComposite7036"
         k1="1"
         in="result4"
         operator="arithmetic"
         result="result2" />
    </filter>
    <inkscape:perspective
       id="perspective6971-87"
       inkscape:persp3d-origin="0.5 : 0.33333333 : 1"
       inkscape:vp_z="1 : 0.5 : 1"
       inkscape:vp_y="0 : 1000 : 0"
       inkscape:vp_x="0 : 0.5 : 1"
       sodipodi:type="inkscape:persp3d" />
    <filter
       color-interpolation-filters="sRGB"
       inkscape:collect="always"
       id="filter6927-4"
       x="-0.036488723"
       width="1.0729774"
       y="-0.23469"
       height="1.46938">
      <feGaussianBlur
         inkscape:collect="always"
         stdDeviation="5.8476558"
         id="feGaussianBlur6929-2" />
    </filter>
    <inkscape:perspective
       id="perspective6971-85"
       inkscape:persp3d-origin="0.5 : 0.33333333 : 1"
       inkscape:vp_z="1 : 0.5 : 1"
       inkscape:vp_y="0 : 1000 : 0"
       inkscape:vp_x="0 : 0.5 : 1"
       sodipodi:type="inkscape:persp3d" />
    <filter
       color-interpolation-filters="sRGB"
       inkscape:collect="always"
       id="filter6927-5"
       x="-0.036488723"
       width="1.0729774"
       y="-0.23469"
       height="1.46938">
      <feGaussianBlur
         inkscape:collect="always"
         stdDeviation="5.8476558"
         id="feGaussianBlur6929-23" />
    </filter>
    <inkscape:perspective
       id="perspective6971-9"
       inkscape:persp3d-origin="0.5 : 0.33333333 : 1"
       inkscape:vp_z="1 : 0.5 : 1"
       inkscape:vp_y="0 : 1000 : 0"
       inkscape:vp_x="0 : 0.5 : 1"
       sodipodi:type="inkscape:persp3d" />
    <filter
       color-interpolation-filters="sRGB"
       inkscape:collect="always"
       id="filter6927-80"
       x="-0.036488723"
       width="1.0729774"
       y="-0.23469"
       height="1.46938">
      <feGaussianBlur
         inkscape:collect="always"
         stdDeviation="5.8476558"
         id="feGaussianBlur6929-05" />
    </filter>
    <radialGradient
       inkscape:collect="always"
       xlink:href="#linearGradient7090"
       id="radialGradient7096"
       cx="115.94573"
       cy="205.49865"
       fx="115.94573"
       fy="205.49865"
       r="59.760574"
       gradientTransform="matrix(1,0,0,1.1282052,232.91301,9.4082049)"
       gradientUnits="userSpaceOnUse" />
    <filter
       inkscape:collect="always"
       id="filter7126">
      <feGaussianBlur
         inkscape:collect="always"
         stdDeviation="2.600558"
         id="feGaussianBlur7128" />
    </filter>
    <radialGradient
       inkscape:collect="always"
       xlink:href="#linearGradient7148"
       id="radialGradient7154"
       cx="370.31125"
       cy="130.92563"
       fx="370.31125"
       fy="130.92563"
       r="316.16919"
       gradientTransform="matrix(1,0,0,0.00323102,0,90.50261)"
       gradientUnits="userSpaceOnUse" />
    <inkscape:perspective
       id="perspective7164"
       inkscape:persp3d-origin="0.5 : 0.33333333 : 1"
       inkscape:vp_z="1 : 0.5 : 1"
       inkscape:vp_y="0 : 1000 : 0"
       inkscape:vp_x="0 : 0.5 : 1"
       sodipodi:type="inkscape:persp3d" />
    <radialGradient
       inkscape:collect="always"
       xlink:href="#linearGradient7148-4"
       id="radialGradient7154-9"
       cx="370.31125"
       cy="130.92563"
       fx="370.31125"
       fy="130.92563"
       r="316.16919"
       gradientTransform="matrix(1,0,0,0.00323102,0,90.50261)"
       gradientUnits="userSpaceOnUse" />
    <linearGradient
       inkscape:collect="always"
       id="linearGradient7148-4">
      <stop
         style="stop-color:#000004;stop-opacity:1;"
         offset="0"
         id="stop7150-0" />
      <stop
         style="stop-color:#000004;stop-opacity:0;"
         offset="1"
         id="stop7152-6" />
    </linearGradient>
  </defs>
  <sodipodi:namedview
     id="base"
     pagecolor="#ffffff"
     bordercolor="#666666"
     borderopacity="1.0"
     inkscape:pageopacity="0.0"
     inkscape:pageshadow="2"
     inkscape:zoom="0.97890625"
     inkscape:cx="462.23055"
     inkscape:cy="797.86113"
     inkscape:document-units="px"
     inkscape:current-layer="layer1"
     showgrid="false"
     inkscape:window-width="1278"
     inkscape:window-height="904"
     inkscape:window-x="544"
     inkscape:window-y="45"
     inkscape:window-maximized="0"
     showguides="true"
     inkscape:guide-bbox="true" />
  <metadata
     id="metadata6335">
    <rdf:RDF>
      <cc:Work
         rdf:about="">
        <dc:format>image/svg+xml</dc:format>
        <dc:type
           rdf:resource="http://purl.org/dc/dcmitype/StillImage" />
        <dc:title></dc:title>
      </cc:Work>
    </rdf:RDF>
  </metadata>
  <g
     inkscape:groupmode="layer"
     id="layer9"
     inkscape:label="Layer#2"
     style="display:inline">
    <rect
       style="fill:#00006e;fill-opacity:1;fill-rule:nonzero;stroke:none"
       id="rect7218"
       width="169.57701"
       height="139.95212"
       x="216.56824"
       y="46.137123" />
  </g>
  <g
     inkscape:label="Layer 1"
     inkscape:groupmode="layer"
     id="layer1"
     style="display:inline">
    <rect
       style="fill:#ffffff;fill-opacity:1;fill-rule:nonzero;stroke:url(#linearGradient6896);stroke-width:1.0516504;stroke-opacity:1"
       id="rect6342"
       width="636.37292"
       height="87.801506"
       x="30.629171"
       y="127.88683" />
    <rect
       style="fill:#00006c;fill-opacity:0.16597511;fill-rule:nonzero;stroke:none"
       id="rect6340"
       width="632.33838"
       height="118.4996"
       x="56.185154"
       y="304.58884" />
    <path
       style="fill:#6affff;fill-opacity:1;fill-rule:nonzero;stroke:#0001b2;stroke-width:2;stroke-miterlimit:4;stroke-opacity:0.62240666;stroke-dasharray:none;filter:url(#filter6927)"
       id="path6917"
       d="m 333.86921,143.38852 c 1.19421,0.57223 2.32775,0.85545 3.64893,0.79578 0.3756,-0.017 1.50213,-0.0619 1.12615,-0.0639 -5.87801,-0.0316 -11.75617,-0.0166 -17.63425,-0.0249 2.14575,-0.0323 4.26722,-0.17827 6.36776,-0.61928 2.45444,-0.81686 4.97775,-1.38955 7.49485,-1.97517 3.9,-0.94982 7.8684,-1.58718 11.8237,-2.2574 3.8581,-0.69245 7.66282,-1.59897 11.54889,-2.13187 2.7339,-0.38812 5.42964,-0.9788 8.17495,-1.28823 1.96334,-0.0365 3.85673,-0.52569 5.77357,-0.88418 1.80342,-0.12082 3.52191,-0.67838 5.28922,-1.00677 1.53826,-0.12702 3.01977,-0.50908 4.49228,-0.95375 0.91644,-0.23979 1.7995,-0.53582 2.74311,-0.33445 1.19767,-0.51038 2.16617,-1.38008 3.45052,-1.70262 1.49837,-0.7424 3.11566,-1.1189 4.7685,-1.29853 1.66516,-0.54715 3.41839,-0.71675 5.10825,-1.14422 1.50815,-0.61865 3.13681,-0.71453 4.69873,-1.09317 1.61711,-0.40824 3.2644,-0.81372 4.9381,-0.869 1.2346,-0.30653 2.40048,-0.78764 3.66085,-0.99163 1.27779,-0.0278 2.45918,-0.57807 3.68604,-0.88194 1.38801,-0.14032 2.71013,-0.62282 4.08448,-0.93002 1.50415,-0.1303 2.92049,-0.46637 4.37537,-0.84312 1.14866,-0.28693 2.31902,-0.47503 3.49794,-0.57523 0.95307,-0.13073 1.85802,0.1358 2.78079,-0.13188 0.99301,-0.56033 2.07567,-0.74747 3.19391,-0.85245 1.81438,-0.0988 3.62342,-0.0203 5.42945,-0.23107 3.35717,-0.41735 6.68909,-0.99398 10.04626,-1.41489 1.73582,-0.18721 3.42636,-0.6399 5.1082,-1.09134 0.81852,-0.2797 1.69,-0.35273 2.54831,-0.41175 12.65661,-0.16479 38.94234,0.0587 1.04755,0.16344 -0.15875,4.4e-4 0.30879,-0.0747 0.46055,-0.12133 0.3849,-0.11819 0.56067,-0.20922 0.94233,-0.37555 1.01503,-0.37046 2.0948,-0.65476 3.17867,-0.53632 1.15041,-0.35377 2.25154,-0.76869 3.45238,-0.96149 1.03603,-0.14368 2.08012,-0.19192 3.12462,-0.21302 1.43078,0.0803 2.91467,-0.47887 4.35297,-0.7087 1.79716,-0.21568 3.53263,-0.74833 5.32101,-1.0307 2.0913,-0.10257 4.13167,-0.55131 6.18845,-0.90459 2.00018,-0.44345 3.88764,-1.36572 5.83518,-2.05029 1.90273,-0.62609 3.83192,-1.16397 5.74938,-1.74592 1.55166,-0.75433 3.17828,-1.23627 4.8805,-1.49067 1.52679,-0.45643 3.04069,-0.88161 4.62672,-1.06875 1.75015,-0.27122 3.36882,-0.97595 5.04899,-1.487 1.99843,-0.57612 3.96729,-1.1549 6.03017,-1.45877 2.27713,-0.16282 4.50634,-0.65187 6.76819,-0.94189 2.00074,-0.12274 3.94875,-0.57756 5.90889,-0.96245 1.35408,-0.28101 2.70141,-0.2809 4.02631,-0.68082 1.47537,-0.40444 2.99263,-0.45857 4.45047,-0.9136 0.95002,-0.28289 1.91052,-0.77887 2.91796,-0.68879 1.29716,-0.485708 2.61354,-0.823579 3.98378,-1.020473 1.28187,0.05283 2.42092,-0.404727 3.62716,-0.765602 1.574,-0.244465 3.11774,-0.520612 4.67083,-0.888097 1.63914,-0.407531 3.32502,-0.497642 5.00545,-0.558419 7.15339,-0.147332 14.53002,-0.59339 21.51475,-0.04707 5.97987,0.467728 -23.94058,0.812028 -17.9944,0.02425 0.78187,-0.236481 1.50312,-0.642318 2.29819,-0.849212 1.06698,-0.220267 2.16909,-0.187559 3.25375,-0.193737 7.24096,-0.197563 14.48193,0.0092 21.72285,0.0026 1.26637,0.0043 2.53269,0.008 3.79907,0.009 6.55002,-0.02334 14.53417,0.128425 -16.9945,0.06415 -0.20455,-4.17e-4 0.40548,-0.05759 0.60501,-0.102617 0.43096,-0.09725 0.85212,-0.233762 1.27881,-0.34834 1.49196,-0.444662 3.05759,-0.520699 4.60302,-0.596001 7.61443,-0.217807 15.235,-0.06007 22.85223,-0.04296 -32.17867,3.843089 -21.09785,0.279089 -13.99369,-0.726142 1.70048,-0.223948 3.416,-0.260896 5.12838,-0.285842 7.99277,-0.05347 15.98588,-0.0044 23.97874,-0.0043 7.47972,0.0037 -11.41384,0.03831 -17.12062,0.0071 -0.2576,-0.0014 0.51234,-0.05703 0.76622,-0.100692 0.75504,-0.129861 1.5017,-0.329352 2.25242,-0.48317 1.31966,-0.294797 2.66951,-0.376318 4.01636,-0.429985 7.43438,-0.168544 14.87253,-0.02949 22.30873,-0.02328 1.39453,0.0012 2.78906,0.0093 4.18359,0.009 0.7521,0.132364 1.59098,-0.159093 2.3376,-0.0023 0.6635,0.139377 1.32492,0.532611 2.00384,0.694865 1.02048,0.321718 2.07159,0.338491 3.12873,0.351657 6.90265,-0.08311 16.29246,-0.02183 -16.02986,-0.02411 1.30431,0.0063 2.60868,0.0029 3.91299,-0.0032 1.46661,0.05396 2.87826,0.02438 4.31846,-0.260518 1.80071,-0.43582 3.64875,-0.590084 5.49352,-0.686925 8.4913,-0.175934 16.99958,-0.06689 25.48543,-0.0668 1.99612,0.0067 3.99231,0.003 5.98843,-0.0059 0.82361,-0.0048 1.64727,-0.01287 2.47089,-0.0096 7.16765,-0.05069 -26.31198,0.0092 -16.90268,0.0014 0.67405,0.0026 1.34813,-0.0058 2.02217,-0.0025 7.15639,0.01467 14.31318,-0.05232 21.4694,0.0092 6.66348,-0.0064 15.71719,0.217453 -15.62844,0.0076 -0.60939,-0.0041 1.2065,-0.174981 1.80569,-0.286094 1.54476,-0.396417 3.15576,-0.421226 4.7071,-0.748508 0.83122,-0.119945 1.55924,-0.529457 2.32857,-0.808476 0.44403,-0.322748 0.28466,0.649394 0.68174,0.211198 0.0914,-0.763749 0.23161,-1.119585 0.88803,-1.369528 6.58462,-1.358388 13.52226,-0.130102 20.28282,-0.07899 0.18339,-0.02056 0.19461,0.0935 0.29733,-0.0053 7.08067,-0.07669 -23.2421,5.397516 -18.39178,0.346735 0.15012,0.602766 -0.13068,-1.058346 0.44644,-1.32797 6.57146,-1.047989 13.446,-0.940976 19.9772,-0.0062 -0.0162,0.996161 -0.0325,1.992322 -0.0487,2.988483 -0.009,0.0018 -0.0187,0.0037 -0.028,0.0055 0,0 -19.16143,-3.027204 -19.16143,-3.027204 l 0,0 c 0.0102,0.0018 0.0204,0.0035 0.0307,0.0053 0.0114,0.995908 0.0228,1.991815 0.0342,2.987722 -6.68078,0.268543 25.27855,0.867758 18.32379,-0.02002 -0.82405,-0.397033 0.14496,-2.350751 -0.23257,-0.807619 -2.23841,6.804414 -13.27553,1.802168 -20.08014,1.88275 -0.23166,-0.1255 -0.0617,0.0096 -0.29211,-0.01119 -7.10415,-0.08024 25.22175,1.133075 17.99585,-0.07227 -0.67498,-0.136971 -0.51252,-0.223112 -0.65538,-0.984863 -0.0101,-0.05389 -0.0233,0.107149 -0.0349,0.160723 -0.14664,0.545007 -0.39424,1.77137 -0.91704,1.827109 -0.87868,-0.02998 -1.62652,0.306032 -2.47205,0.601418 -0.51715,0.167401 -1.01316,0.407382 -1.54379,0.525288 -1.04504,0.23221 -2.19414,0.04546 -3.23414,0.35832 -7.89071,1.522969 -16.00601,0.565805 -24.02359,0.646688 -8.15347,0.0632 25.58458,-0.0051 16.53582,0.0092 -0.68441,0.0035 -1.36887,-0.0053 -2.0533,-0.0025 -7.0583,-0.0055 -14.11675,0.04877 -21.17509,0.0015 -0.78191,0.0028 -1.56384,-0.0046 -2.34571,-0.01158 -1.94664,-0.01231 -3.89335,-0.02032 -5.84003,-0.0172 32.43407,-0.002 19.42476,-0.02813 12.14428,0.01386 -1.80555,0.02957 -3.62394,0.06587 -5.40826,0.363399 -1.44582,0.325577 -2.78487,0.850051 -4.29169,0.666677 -1.29257,-0.0034 -2.58522,-0.0036 -3.87774,0.0081 -7.10282,-1.1e-5 -14.70619,0.352753 -22.00178,-0.104798 -1.05327,-0.134923 -2.06906,-0.421423 -3.09225,-0.698638 -1.39942,-0.36758 -2.79205,-0.222482 -4.23354,-0.233305 -1.42294,-0.0012 -2.84588,0.0057 -4.26883,0.001 -9.20263,-0.0311 25.48539,0.04349 15.6226,-0.01099 -1.33623,-0.0027 -2.67597,-0.01197 -4.00629,0.128525 -0.72803,0.109414 -2.57553,0.637448 -3.09271,0.649628 -11.24137,0.264742 -13.56936,0.257579 -20.64328,0.248126 -12.41295,-0.03168 24.4315,0.0162 13.7563,-0.0064 -1.69972,-9.94e-4 -3.40081,-0.005 -5.09844,0.09172 -8.29632,0.656289 -13.02325,4.850774 -23.81008,0.936819 -8.10789,-0.0054 26.59992,0.02292 14.97798,-0.0049 -1.50319,0.0099 -3.01434,0.02762 -4.50874,0.189369 -0.43835,0.10138 -1.51579,0.525291 -1.88901,0.535376 -6.96712,0.188256 -13.94904,0.332441 -20.92421,0.308485 -1.30442,7.9e-4 -2.60879,0.005 -3.9132,0.006 -6.80722,-0.02941 -15.80487,0.04267 16.26497,-0.0088 -1.04641,-0.0044 -2.09414,0.0029 -3.13939,-0.04823 -0.79429,0.0062 -1.6062,0.02289 -2.30205,0.469487 -6.91496,3.686938 21.62895,-11.432487 -20.06973,0.601242 -5.90478,1.704046 12.29149,-0.002 18.43723,-0.0051 0.20801,-1.02e-4 -0.416,-0.0025 -0.624,-0.0037 -0.93442,-0.0055 -0.45083,-0.004 -1.47342,-0.0035 -1.64902,0.01063 -3.31241,-0.01562 -4.946,0.234821 -1.56284,0.241435 -3.01511,0.871385 -4.59887,0.890415 -0.83887,0.0795 -1.57696,0.26363 -2.35127,0.60681 -0.21756,0.0964 -0.40685,0.26238 -0.63728,0.32179 -0.21802,0.0562 -0.45016,0.0111 -0.67523,0.0166 -1.30599,0.0812 -2.64613,0.0862 -3.86197,0.61716 -0.84099,0.61001 -1.98318,0.31404 -2.97067,0.67813 -1.58867,0.55807 -2.77819,1.02683 -4.51701,1.06603 -0.74518,0.13188 -1.31369,0.50806 -2.02799,0.67834 -0.63916,0.15237 -1.38505,-0.0658 -2.02514,0.12979 -2.03679,0.30064 -4.02887,0.84758 -6.06916,1.06052 -2.26848,0.19466 -4.47765,0.65112 -6.7177,0.94206 -2.04323,0.15132 -4.06777,0.38057 -5.95919,1.22823 -1.76929,0.3061 -3.30381,1.10093 -5.03935,1.53335 -1.49866,0.47046 -3.13725,0.32097 -4.5959,1.00177 -1.58319,0.56625 -3.38112,0.35908 -4.86664,1.24192 -1.83411,0.89905 -3.88039,1.28654 -5.83998,1.82171 -2.00217,0.68525 -4.06028,1.199 -5.81722,2.42778 -2.08038,0.22335 -4.10216,0.80084 -6.17876,0.95248 -1.79287,0.12787 -3.57232,0.40614 -5.27143,1.01661 -1.4362,0.13444 -3.04198,0.16742 -4.2856,0.95379 -1.05896,-0.0112 -2.11864,-0.0339 -3.17688,0.0206 -1.15254,0.0421 -2.34777,-0.0118 -3.35046,0.6452 -0.96304,0.60973 -2.07923,0.23406 -3.16681,0.48664 -0.41679,0.0689 -0.97909,0.46762 -1.35782,0.47952 -6.48321,0.20373 -13.70575,-2.59069 -19.45485,0.41287 -5.42174,2.83252 25.28652,0.13169 18.35117,-0.008 -0.84282,-0.0399 -1.68509,0.003 -2.52766,-0.0322 -1.84664,0.42156 -3.68622,0.87101 -5.53427,1.28502 -3.3319,0.32322 -6.62744,0.824 -9.92249,1.38367 -1.76363,0.27941 -3.46861,0.58357 -5.2705,0.43025 -1.00598,-0.009 -2.02716,-0.0709 -3.007,0.18744 -1.11064,0.60642 -1.57125,1.00328 -2.9016,0.82318 -1.18234,-0.0155 -2.35893,0.0427 -3.53044,0.21616 -1.50475,0.28242 -2.85192,0.96048 -4.3992,0.93989 -0.91344,0.10429 -2.06092,0.15725 -2.90902,0.54194 -0.19663,0.0892 -0.33533,0.28823 -0.53949,0.35849 -0.17376,0.0598 -0.36736,0.0112 -0.55105,0.0168 -1.30276,0.15533 -2.56523,0.42283 -3.74948,1.01973 -1.2598,0.0602 -2.46726,0.1286 -3.62506,0.70797 -1.52813,0.70624 -3.37023,0.33421 -4.98779,0.83746 -0.54971,0.16716 -1.07111,0.43153 -1.63287,0.55218 -0.99992,0.21475 -2.09831,0.0134 -3.05897,0.49124 -1.77553,0.61803 -3.31952,0.76281 -5.1105,1.23096 -1.4991,0.58106 -3.1911,0.32259 -4.67657,0.993 -1.08939,0.66823 -2.55544,0.56085 -3.43704,1.68311 -0.19746,0.20808 -0.34354,0.48154 -0.59239,0.62423 -0.51759,0.29681 -1.66544,-0.36712 -2.19652,0.093 -1.58065,0.23683 -3.04888,0.9579 -4.63612,1.0912 -1.81519,0.17397 -3.50709,0.72746 -5.28527,1.01695 -2.00014,0.16606 -3.89192,0.87717 -5.89277,0.96199 -2.81989,0.16727 -5.59918,0.62909 -8.36505,1.19812 -3.93575,0.39956 -7.77172,1.20683 -11.63989,2.00487 -3.87372,0.74467 -7.7943,1.25197 -11.63655,2.15846 -2.43577,0.65247 -4.90223,1.14659 -7.3015,1.91259 -2.0819,0.80559 -4.22214,1.06641 -6.44699,1.11385 -8.36841,0.0158 -17.26508,2.12932 -25.02008,-1.50552 0,0 19.09925,-2.12325 19.09925,-2.12325 z"
       transform="matrix(1.5862448,0,0,0.2075158,-429.05344,88.824327)" />
    <text
       xml:space="preserve"
       style="font-size:14px;font-style:italic;font-variant:normal;font-weight:normal;font-stretch:normal;fill:#ffffff;fill-opacity:1;stroke:none;font-family:Verdana;-inkscape-font-specification:Bitstream Vera Sans Oblique"
       x="227.37428"
       y="69.546516"
       id="text6931"><tspan
         sodipodi:role="line"
         x="227.37428"
         y="69.546516"
         style="font-size:14px;font-style:normal;fill:#ffffff;-inkscape-font-specification:Bitstream Vera Sans"
         id="tspan7214">Abilities </tspan></text>
    <path
       style="fill:#6affff;fill-opacity:1;fill-rule:nonzero;stroke:#0001b2;stroke-width:2;stroke-miterlimit:4;stroke-opacity:0.62240666;stroke-dasharray:none;display:inline;filter:url(#filter6927-0)"
       id="path6917-0"
       d="m 333.86921,143.38852 c 1.19421,0.57223 2.32775,0.85545 3.64893,0.79578 0.3756,-0.017 1.50213,-0.0619 1.12615,-0.0639 -5.87801,-0.0316 -11.75617,-0.0166 -17.63425,-0.0249 2.14575,-0.0323 4.26722,-0.17827 6.36776,-0.61928 2.45444,-0.81686 4.97775,-1.38955 7.49485,-1.97517 3.9,-0.94982 7.8684,-1.58718 11.8237,-2.2574 3.8581,-0.69245 7.66282,-1.59897 11.54889,-2.13187 2.7339,-0.38812 5.42964,-0.9788 8.17495,-1.28823 1.96334,-0.0365 3.85673,-0.52569 5.77357,-0.88418 1.80342,-0.12082 3.52191,-0.67838 5.28922,-1.00677 1.53826,-0.12702 3.01977,-0.50908 4.49228,-0.95375 0.91644,-0.23979 1.7995,-0.53582 2.74311,-0.33445 1.19767,-0.51038 2.16617,-1.38008 3.45052,-1.70262 1.49837,-0.7424 3.11566,-1.1189 4.7685,-1.29853 1.66516,-0.54715 3.41839,-0.71675 5.10825,-1.14422 1.50815,-0.61865 3.13681,-0.71453 4.69873,-1.09317 1.61711,-0.40824 3.2644,-0.81372 4.9381,-0.869 1.2346,-0.30653 2.40048,-0.78764 3.66085,-0.99163 1.27779,-0.0278 2.45918,-0.57807 3.68604,-0.88194 1.38801,-0.14032 2.71013,-0.62282 4.08448,-0.93002 1.50415,-0.1303 2.92049,-0.46637 4.37537,-0.84312 1.14866,-0.28693 2.31902,-0.47503 3.49794,-0.57523 0.95307,-0.13073 1.85802,0.1358 2.78079,-0.13188 0.99301,-0.56033 2.07567,-0.74747 3.19391,-0.85245 1.81438,-0.0988 3.62342,-0.0203 5.42945,-0.23107 3.35717,-0.41735 6.68909,-0.99398 10.04626,-1.41489 1.73582,-0.18721 3.42636,-0.6399 5.1082,-1.09134 0.81852,-0.2797 1.69,-0.35273 2.54831,-0.41175 12.65661,-0.16479 38.94234,0.0587 1.04755,0.16344 -0.15875,4.4e-4 0.30879,-0.0747 0.46055,-0.12133 0.3849,-0.11819 0.56067,-0.20922 0.94233,-0.37555 1.01503,-0.37046 2.0948,-0.65476 3.17867,-0.53632 1.15041,-0.35377 2.25154,-0.76869 3.45238,-0.96149 1.03603,-0.14368 2.08012,-0.19192 3.12462,-0.21302 1.43078,0.0803 2.91467,-0.47887 4.35297,-0.7087 1.79716,-0.21568 3.53263,-0.74833 5.32101,-1.0307 2.0913,-0.10257 4.13167,-0.55131 6.18845,-0.90459 2.00018,-0.44345 3.88764,-1.36572 5.83518,-2.05029 1.90273,-0.62609 3.83192,-1.16397 5.74938,-1.74592 1.55166,-0.75433 3.17828,-1.23627 4.8805,-1.49067 1.52679,-0.45643 3.04069,-0.88161 4.62672,-1.06875 1.75015,-0.27122 3.36882,-0.97595 5.04899,-1.487 1.99843,-0.57612 3.96729,-1.1549 6.03017,-1.45877 2.27713,-0.16282 4.50634,-0.65187 6.76819,-0.94189 2.00074,-0.12274 3.94875,-0.57756 5.90889,-0.96245 1.35408,-0.28101 2.70141,-0.2809 4.02631,-0.68082 1.47537,-0.40444 2.99263,-0.45857 4.45047,-0.9136 0.95002,-0.28289 1.91052,-0.77887 2.91796,-0.68879 1.29716,-0.485708 2.61354,-0.823579 3.98378,-1.020473 1.28187,0.05283 2.42092,-0.404727 3.62716,-0.765602 1.574,-0.244465 3.11774,-0.520612 4.67083,-0.888097 1.63914,-0.407531 3.32502,-0.497642 5.00545,-0.558419 7.15339,-0.147332 14.53002,-0.59339 21.51475,-0.04707 5.97987,0.467728 -23.94058,0.812028 -17.9944,0.02425 0.78187,-0.236481 1.50312,-0.642318 2.29819,-0.849212 1.06698,-0.220267 2.16909,-0.187559 3.25375,-0.193737 7.24096,-0.197563 14.48193,0.0092 21.72285,0.0026 1.26637,0.0043 2.53269,0.008 3.79907,0.009 6.55002,-0.02334 14.53417,0.128425 -16.9945,0.06415 -0.20455,-4.17e-4 0.40548,-0.05759 0.60501,-0.102617 0.43096,-0.09725 0.85212,-0.233762 1.27881,-0.34834 1.49196,-0.444662 3.05759,-0.520699 4.60302,-0.596001 7.61443,-0.217807 15.235,-0.06007 22.85223,-0.04296 -32.17867,3.843089 -21.09785,0.279089 -13.99369,-0.726142 1.70048,-0.223948 3.416,-0.260896 5.12838,-0.285842 7.99277,-0.05347 15.98588,-0.0044 23.97874,-0.0043 7.47972,0.0037 -11.41384,0.03831 -17.12062,0.0071 -0.2576,-0.0014 0.51234,-0.05703 0.76622,-0.100692 0.75504,-0.129861 1.5017,-0.329352 2.25242,-0.48317 1.31966,-0.294797 2.66951,-0.376318 4.01636,-0.429985 7.43438,-0.168544 14.87253,-0.02949 22.30873,-0.02328 1.39453,0.0012 2.78906,0.0093 4.18359,0.009 0.7521,0.132364 1.59098,-0.159093 2.3376,-0.0023 0.6635,0.139377 1.32492,0.532611 2.00384,0.694865 1.02048,0.321718 2.07159,0.338491 3.12873,0.351657 6.90265,-0.08311 16.29246,-0.02183 -16.02986,-0.02411 1.30431,0.0063 2.60868,0.0029 3.91299,-0.0032 1.46661,0.05396 2.87826,0.02438 4.31846,-0.260518 1.80071,-0.43582 3.64875,-0.590084 5.49352,-0.686925 8.4913,-0.175934 16.99958,-0.06689 25.48543,-0.0668 1.99612,0.0067 3.99231,0.003 5.98843,-0.0059 0.82361,-0.0048 1.64727,-0.01287 2.47089,-0.0096 7.16765,-0.05069 -26.31198,0.0092 -16.90268,0.0014 0.67405,0.0026 1.34813,-0.0058 2.02217,-0.0025 7.15639,0.01467 14.31318,-0.05232 21.4694,0.0092 6.66348,-0.0064 15.71719,0.217453 -15.62844,0.0076 -0.60939,-0.0041 1.2065,-0.174981 1.80569,-0.286094 1.54476,-0.396417 3.15576,-0.421226 4.7071,-0.748508 0.83122,-0.119945 1.55924,-0.529457 2.32857,-0.808476 0.44403,-0.322748 0.28466,0.649394 0.68174,0.211198 0.0914,-0.763749 0.23161,-1.119585 0.88803,-1.369528 6.58462,-1.358388 13.52226,-0.130102 20.28282,-0.07899 0.18339,-0.02056 0.19461,0.0935 0.29733,-0.0053 7.08067,-0.07669 -23.2421,5.397516 -18.39178,0.346735 0.15012,0.602766 -0.13068,-1.058346 0.44644,-1.32797 6.57146,-1.047989 13.446,-0.940976 19.9772,-0.0062 -0.0162,0.996161 -0.0325,1.992322 -0.0487,2.988483 -0.009,0.0018 -0.0187,0.0037 -0.028,0.0055 0,0 -19.16143,-3.027204 -19.16143,-3.027204 l 0,0 c 0.0102,0.0018 0.0204,0.0035 0.0307,0.0053 0.0114,0.995908 0.0228,1.991815 0.0342,2.987722 -6.68078,0.268543 25.27855,0.867758 18.32379,-0.02002 -0.82405,-0.397033 0.14496,-2.350751 -0.23257,-0.807619 -2.23841,6.804414 -13.27553,1.802168 -20.08014,1.88275 -0.23166,-0.1255 -0.0617,0.0096 -0.29211,-0.01119 -7.10415,-0.08024 25.22175,1.133075 17.99585,-0.07227 -0.67498,-0.136971 -0.51252,-0.223112 -0.65538,-0.984863 -0.0101,-0.05389 -0.0233,0.107149 -0.0349,0.160723 -0.14664,0.545007 -0.39424,1.77137 -0.91704,1.827109 -0.87868,-0.02998 -1.62652,0.306032 -2.47205,0.601418 -0.51715,0.167401 -1.01316,0.407382 -1.54379,0.525288 -1.04504,0.23221 -2.19414,0.04546 -3.23414,0.35832 -7.89071,1.522969 -16.00601,0.565805 -24.02359,0.646688 -8.15347,0.0632 25.58458,-0.0051 16.53582,0.0092 -0.68441,0.0035 -1.36887,-0.0053 -2.0533,-0.0025 -7.0583,-0.0055 -14.11675,0.04877 -21.17509,0.0015 -0.78191,0.0028 -1.56384,-0.0046 -2.34571,-0.01158 -1.94664,-0.01231 -3.89335,-0.02032 -5.84003,-0.0172 32.43407,-0.002 19.42476,-0.02813 12.14428,0.01386 -1.80555,0.02957 -3.62394,0.06587 -5.40826,0.363399 -1.44582,0.325577 -2.78487,0.850051 -4.29169,0.666677 -1.29257,-0.0034 -2.58522,-0.0036 -3.87774,0.0081 -7.10282,-1.1e-5 -14.70619,0.352753 -22.00178,-0.104798 -1.05327,-0.134923 -2.06906,-0.421423 -3.09225,-0.698638 -1.39942,-0.36758 -2.79205,-0.222482 -4.23354,-0.233305 -1.42294,-0.0012 -2.84588,0.0057 -4.26883,0.001 -9.20263,-0.0311 25.48539,0.04349 15.6226,-0.01099 -1.33623,-0.0027 -2.67597,-0.01197 -4.00629,0.128525 -0.72803,0.109414 -2.57553,0.637448 -3.09271,0.649628 -11.24137,0.264742 -13.56936,0.257579 -20.64328,0.248126 -12.41295,-0.03168 24.4315,0.0162 13.7563,-0.0064 -1.69972,-9.94e-4 -3.40081,-0.005 -5.09844,0.09172 -8.29632,0.656289 -13.02325,4.850774 -23.81008,0.936819 -8.10789,-0.0054 26.59992,0.02292 14.97798,-0.0049 -1.50319,0.0099 -3.01434,0.02762 -4.50874,0.189369 -0.43835,0.10138 -1.51579,0.525291 -1.88901,0.535376 -6.96712,0.188256 -13.94904,0.332441 -20.92421,0.308485 -1.30442,7.9e-4 -2.60879,0.005 -3.9132,0.006 -6.80722,-0.02941 -15.80487,0.04267 16.26497,-0.0088 -1.04641,-0.0044 -2.09414,0.0029 -3.13939,-0.04823 -0.79429,0.0062 -1.6062,0.02289 -2.30205,0.469487 -6.91496,3.686938 21.62895,-11.432487 -20.06973,0.601242 -5.90478,1.704046 12.29149,-0.002 18.43723,-0.0051 0.20801,-1.02e-4 -0.416,-0.0025 -0.624,-0.0037 -0.93442,-0.0055 -0.45083,-0.004 -1.47342,-0.0035 -1.64902,0.01063 -3.31241,-0.01562 -4.946,0.234821 -1.56284,0.241435 -3.01511,0.871385 -4.59887,0.890415 -0.83887,0.0795 -1.57696,0.26363 -2.35127,0.60681 -0.21756,0.0964 -0.40685,0.26238 -0.63728,0.32179 -0.21802,0.0562 -0.45016,0.0111 -0.67523,0.0166 -1.30599,0.0812 -2.64613,0.0862 -3.86197,0.61716 -0.84099,0.61001 -1.98318,0.31404 -2.97067,0.67813 -1.58867,0.55807 -2.77819,1.02683 -4.51701,1.06603 -0.74518,0.13188 -1.31369,0.50806 -2.02799,0.67834 -0.63916,0.15237 -1.38505,-0.0658 -2.02514,0.12979 -2.03679,0.30064 -4.02887,0.84758 -6.06916,1.06052 -2.26848,0.19466 -4.47765,0.65112 -6.7177,0.94206 -2.04323,0.15132 -4.06777,0.38057 -5.95919,1.22823 -1.76929,0.3061 -3.30381,1.10093 -5.03935,1.53335 -1.49866,0.47046 -3.13725,0.32097 -4.5959,1.00177 -1.58319,0.56625 -3.38112,0.35908 -4.86664,1.24192 -1.83411,0.89905 -3.88039,1.28654 -5.83998,1.82171 -2.00217,0.68525 -4.06028,1.199 -5.81722,2.42778 -2.08038,0.22335 -4.10216,0.80084 -6.17876,0.95248 -1.79287,0.12787 -3.57232,0.40614 -5.27143,1.01661 -1.4362,0.13444 -3.04198,0.16742 -4.2856,0.95379 -1.05896,-0.0112 -2.11864,-0.0339 -3.17688,0.0206 -1.15254,0.0421 -2.34777,-0.0118 -3.35046,0.6452 -0.96304,0.60973 -2.07923,0.23406 -3.16681,0.48664 -0.41679,0.0689 -0.97909,0.46762 -1.35782,0.47952 -6.48321,0.20373 -13.70575,-2.59069 -19.45485,0.41287 -5.42174,2.83252 25.28652,0.13169 18.35117,-0.008 -0.84282,-0.0399 -1.68509,0.003 -2.52766,-0.0322 -1.84664,0.42156 -3.68622,0.87101 -5.53427,1.28502 -3.3319,0.32322 -6.62744,0.824 -9.92249,1.38367 -1.76363,0.27941 -3.46861,0.58357 -5.2705,0.43025 -1.00598,-0.009 -2.02716,-0.0709 -3.007,0.18744 -1.11064,0.60642 -1.57125,1.00328 -2.9016,0.82318 -1.18234,-0.0155 -2.35893,0.0427 -3.53044,0.21616 -1.50475,0.28242 -2.85192,0.96048 -4.3992,0.93989 -0.91344,0.10429 -2.06092,0.15725 -2.90902,0.54194 -0.19663,0.0892 -0.33533,0.28823 -0.53949,0.35849 -0.17376,0.0598 -0.36736,0.0112 -0.55105,0.0168 -1.30276,0.15533 -2.56523,0.42283 -3.74948,1.01973 -1.2598,0.0602 -2.46726,0.1286 -3.62506,0.70797 -1.52813,0.70624 -3.37023,0.33421 -4.98779,0.83746 -0.54971,0.16716 -1.07111,0.43153 -1.63287,0.55218 -0.99992,0.21475 -2.09831,0.0134 -3.05897,0.49124 -1.77553,0.61803 -3.31952,0.76281 -5.1105,1.23096 -1.4991,0.58106 -3.1911,0.32259 -4.67657,0.993 -1.08939,0.66823 -2.55544,0.56085 -3.43704,1.68311 -0.19746,0.20808 -0.34354,0.48154 -0.59239,0.62423 -0.51759,0.29681 -1.66544,-0.36712 -2.19652,0.093 -1.58065,0.23683 -3.04888,0.9579 -4.63612,1.0912 -1.81519,0.17397 -3.50709,0.72746 -5.28527,1.01695 -2.00014,0.16606 -3.89192,0.87717 -5.89277,0.96199 -2.81989,0.16727 -5.59918,0.62909 -8.36505,1.19812 -3.93575,0.39956 -7.77172,1.20683 -11.63989,2.00487 -3.87372,0.74467 -7.7943,1.25197 -11.63655,2.15846 -2.43577,0.65247 -4.90223,1.14659 -7.3015,1.91259 -2.0819,0.80559 -4.22214,1.06641 -6.44699,1.11385 -8.36841,0.0158 -17.26508,2.12932 -25.02008,-1.50552 0,0 19.09925,-2.12325 19.09925,-2.12325 z"
       transform="matrix(1.5862448,0,0,0.2075158,-431.63662,78.79375)" />
    <path
       style="fill:#6affff;fill-opacity:1;fill-rule:nonzero;stroke:#0001b2;stroke-width:2;stroke-miterlimit:4;stroke-opacity:0.62240666;stroke-dasharray:none;display:inline;filter:url(#filter6927-8)"
       id="path6917-08"
       d="m 333.86921,143.38852 c 1.19421,0.57223 2.32775,0.85545 3.64893,0.79578 0.3756,-0.017 1.50213,-0.0619 1.12615,-0.0639 -5.87801,-0.0316 -11.75617,-0.0166 -17.63425,-0.0249 2.14575,-0.0323 4.26722,-0.17827 6.36776,-0.61928 2.45444,-0.81686 4.97775,-1.38955 7.49485,-1.97517 3.9,-0.94982 7.8684,-1.58718 11.8237,-2.2574 3.8581,-0.69245 7.66282,-1.59897 11.54889,-2.13187 2.7339,-0.38812 5.42964,-0.9788 8.17495,-1.28823 1.96334,-0.0365 3.85673,-0.52569 5.77357,-0.88418 1.80342,-0.12082 3.52191,-0.67838 5.28922,-1.00677 1.53826,-0.12702 3.01977,-0.50908 4.49228,-0.95375 0.91644,-0.23979 1.7995,-0.53582 2.74311,-0.33445 1.19767,-0.51038 2.16617,-1.38008 3.45052,-1.70262 1.49837,-0.7424 3.11566,-1.1189 4.7685,-1.29853 1.66516,-0.54715 3.41839,-0.71675 5.10825,-1.14422 1.50815,-0.61865 3.13681,-0.71453 4.69873,-1.09317 1.61711,-0.40824 3.2644,-0.81372 4.9381,-0.869 1.2346,-0.30653 2.40048,-0.78764 3.66085,-0.99163 1.27779,-0.0278 2.45918,-0.57807 3.68604,-0.88194 1.38801,-0.14032 2.71013,-0.62282 4.08448,-0.93002 1.50415,-0.1303 2.92049,-0.46637 4.37537,-0.84312 1.14866,-0.28693 2.31902,-0.47503 3.49794,-0.57523 0.95307,-0.13073 1.85802,0.1358 2.78079,-0.13188 0.99301,-0.56033 2.07567,-0.74747 3.19391,-0.85245 1.81438,-0.0988 3.62342,-0.0203 5.42945,-0.23107 3.35717,-0.41735 6.68909,-0.99398 10.04626,-1.41489 1.73582,-0.18721 3.42636,-0.6399 5.1082,-1.09134 0.81852,-0.2797 1.69,-0.35273 2.54831,-0.41175 12.65661,-0.16479 38.94234,0.0587 1.04755,0.16344 -0.15875,4.4e-4 0.30879,-0.0747 0.46055,-0.12133 0.3849,-0.11819 0.56067,-0.20922 0.94233,-0.37555 1.01503,-0.37046 2.0948,-0.65476 3.17867,-0.53632 1.15041,-0.35377 2.25154,-0.76869 3.45238,-0.96149 1.03603,-0.14368 2.08012,-0.19192 3.12462,-0.21302 1.43078,0.0803 2.91467,-0.47887 4.35297,-0.7087 1.79716,-0.21568 3.53263,-0.74833 5.32101,-1.0307 2.0913,-0.10257 4.13167,-0.55131 6.18845,-0.90459 2.00018,-0.44345 3.88764,-1.36572 5.83518,-2.05029 1.90273,-0.62609 3.83192,-1.16397 5.74938,-1.74592 1.55166,-0.75433 3.17828,-1.23627 4.8805,-1.49067 1.52679,-0.45643 3.04069,-0.88161 4.62672,-1.06875 1.75015,-0.27122 3.36882,-0.97595 5.04899,-1.487 1.99843,-0.57612 3.96729,-1.1549 6.03017,-1.45877 2.27713,-0.16282 4.50634,-0.65187 6.76819,-0.94189 2.00074,-0.12274 3.94875,-0.57756 5.90889,-0.96245 1.35408,-0.28101 2.70141,-0.2809 4.02631,-0.68082 1.47537,-0.40444 2.99263,-0.45857 4.45047,-0.9136 0.95002,-0.28289 1.91052,-0.77887 2.91796,-0.68879 1.29716,-0.485708 2.61354,-0.823579 3.98378,-1.020473 1.28187,0.05283 2.42092,-0.404727 3.62716,-0.765602 1.574,-0.244465 3.11774,-0.520612 4.67083,-0.888097 1.63914,-0.407531 3.32502,-0.497642 5.00545,-0.558419 7.15339,-0.147332 14.53002,-0.59339 21.51475,-0.04707 5.97987,0.467728 -23.94058,0.812028 -17.9944,0.02425 0.78187,-0.236481 1.50312,-0.642318 2.29819,-0.849212 1.06698,-0.220267 2.16909,-0.187559 3.25375,-0.193737 7.24096,-0.197563 14.48193,0.0092 21.72285,0.0026 1.26637,0.0043 2.53269,0.008 3.79907,0.009 6.55002,-0.02334 14.53417,0.128425 -16.9945,0.06415 -0.20455,-4.17e-4 0.40548,-0.05759 0.60501,-0.102617 0.43096,-0.09725 0.85212,-0.233762 1.27881,-0.34834 1.49196,-0.444662 3.05759,-0.520699 4.60302,-0.596001 7.61443,-0.217807 15.235,-0.06007 22.85223,-0.04296 -32.17867,3.843089 -21.09785,0.279089 -13.99369,-0.726142 1.70048,-0.223948 3.416,-0.260896 5.12838,-0.285842 7.99277,-0.05347 15.98588,-0.0044 23.97874,-0.0043 7.47972,0.0037 -11.41384,0.03831 -17.12062,0.0071 -0.2576,-0.0014 0.51234,-0.05703 0.76622,-0.100692 0.75504,-0.129861 1.5017,-0.329352 2.25242,-0.48317 1.31966,-0.294797 2.66951,-0.376318 4.01636,-0.429985 7.43438,-0.168544 14.87253,-0.02949 22.30873,-0.02328 1.39453,0.0012 2.78906,0.0093 4.18359,0.009 0.7521,0.132364 1.59098,-0.159093 2.3376,-0.0023 0.6635,0.139377 1.32492,0.532611 2.00384,0.694865 1.02048,0.321718 2.07159,0.338491 3.12873,0.351657 6.90265,-0.08311 16.29246,-0.02183 -16.02986,-0.02411 1.30431,0.0063 2.60868,0.0029 3.91299,-0.0032 1.46661,0.05396 2.87826,0.02438 4.31846,-0.260518 1.80071,-0.43582 3.64875,-0.590084 5.49352,-0.686925 8.4913,-0.175934 16.99958,-0.06689 25.48543,-0.0668 1.99612,0.0067 3.99231,0.003 5.98843,-0.0059 0.82361,-0.0048 1.64727,-0.01287 2.47089,-0.0096 7.16765,-0.05069 -26.31198,0.0092 -16.90268,0.0014 0.67405,0.0026 1.34813,-0.0058 2.02217,-0.0025 7.15639,0.01467 14.31318,-0.05232 21.4694,0.0092 6.66348,-0.0064 15.71719,0.217453 -15.62844,0.0076 -0.60939,-0.0041 1.2065,-0.174981 1.80569,-0.286094 1.54476,-0.396417 3.15576,-0.421226 4.7071,-0.748508 0.83122,-0.119945 1.55924,-0.529457 2.32857,-0.808476 0.44403,-0.322748 0.28466,0.649394 0.68174,0.211198 0.0914,-0.763749 0.23161,-1.119585 0.88803,-1.369528 6.58462,-1.358388 13.52226,-0.130102 20.28282,-0.07899 0.18339,-0.02056 0.19461,0.0935 0.29733,-0.0053 7.08067,-0.07669 -23.2421,5.397516 -18.39178,0.346735 0.15012,0.602766 -0.13068,-1.058346 0.44644,-1.32797 6.57146,-1.047989 13.446,-0.940976 19.9772,-0.0062 -0.0162,0.996161 -0.0325,1.992322 -0.0487,2.988483 -0.009,0.0018 -0.0187,0.0037 -0.028,0.0055 0,0 -19.16143,-3.027204 -19.16143,-3.027204 l 0,0 c 0.0102,0.0018 0.0204,0.0035 0.0307,0.0053 0.0114,0.995908 0.0228,1.991815 0.0342,2.987722 -6.68078,0.268543 25.27855,0.867758 18.32379,-0.02002 -0.82405,-0.397033 0.14496,-2.350751 -0.23257,-0.807619 -2.23841,6.804414 -13.27553,1.802168 -20.08014,1.88275 -0.23166,-0.1255 -0.0617,0.0096 -0.29211,-0.01119 -7.10415,-0.08024 25.22175,1.133075 17.99585,-0.07227 -0.67498,-0.136971 -0.51252,-0.223112 -0.65538,-0.984863 -0.0101,-0.05389 -0.0233,0.107149 -0.0349,0.160723 -0.14664,0.545007 -0.39424,1.77137 -0.91704,1.827109 -0.87868,-0.02998 -1.62652,0.306032 -2.47205,0.601418 -0.51715,0.167401 -1.01316,0.407382 -1.54379,0.525288 -1.04504,0.23221 -2.19414,0.04546 -3.23414,0.35832 -7.89071,1.522969 -16.00601,0.565805 -24.02359,0.646688 -8.15347,0.0632 25.58458,-0.0051 16.53582,0.0092 -0.68441,0.0035 -1.36887,-0.0053 -2.0533,-0.0025 -7.0583,-0.0055 -14.11675,0.04877 -21.17509,0.0015 -0.78191,0.0028 -1.56384,-0.0046 -2.34571,-0.01158 -1.94664,-0.01231 -3.89335,-0.02032 -5.84003,-0.0172 32.43407,-0.002 19.42476,-0.02813 12.14428,0.01386 -1.80555,0.02957 -3.62394,0.06587 -5.40826,0.363399 -1.44582,0.325577 -2.78487,0.850051 -4.29169,0.666677 -1.29257,-0.0034 -2.58522,-0.0036 -3.87774,0.0081 -7.10282,-1.1e-5 -14.70619,0.352753 -22.00178,-0.104798 -1.05327,-0.134923 -2.06906,-0.421423 -3.09225,-0.698638 -1.39942,-0.36758 -2.79205,-0.222482 -4.23354,-0.233305 -1.42294,-0.0012 -2.84588,0.0057 -4.26883,0.001 -9.20263,-0.0311 25.48539,0.04349 15.6226,-0.01099 -1.33623,-0.0027 -2.67597,-0.01197 -4.00629,0.128525 -0.72803,0.109414 -2.57553,0.637448 -3.09271,0.649628 -11.24137,0.264742 -13.56936,0.257579 -20.64328,0.248126 -12.41295,-0.03168 24.4315,0.0162 13.7563,-0.0064 -1.69972,-9.94e-4 -3.40081,-0.005 -5.09844,0.09172 -8.29632,0.656289 -13.02325,4.850774 -23.81008,0.936819 -8.10789,-0.0054 26.59992,0.02292 14.97798,-0.0049 -1.50319,0.0099 -3.01434,0.02762 -4.50874,0.189369 -0.43835,0.10138 -1.51579,0.525291 -1.88901,0.535376 -6.96712,0.188256 -13.94904,0.332441 -20.92421,0.308485 -1.30442,7.9e-4 -2.60879,0.005 -3.9132,0.006 -6.80722,-0.02941 -15.80487,0.04267 16.26497,-0.0088 -1.04641,-0.0044 -2.09414,0.0029 -3.13939,-0.04823 -0.79429,0.0062 -1.6062,0.02289 -2.30205,0.469487 -6.91496,3.686938 21.62895,-11.432487 -20.06973,0.601242 -5.90478,1.704046 12.29149,-0.002 18.43723,-0.0051 0.20801,-1.02e-4 -0.416,-0.0025 -0.624,-0.0037 -0.93442,-0.0055 -0.45083,-0.004 -1.47342,-0.0035 -1.64902,0.01063 -3.31241,-0.01562 -4.946,0.234821 -1.56284,0.241435 -3.01511,0.871385 -4.59887,0.890415 -0.83887,0.0795 -1.57696,0.26363 -2.35127,0.60681 -0.21756,0.0964 -0.40685,0.26238 -0.63728,0.32179 -0.21802,0.0562 -0.45016,0.0111 -0.67523,0.0166 -1.30599,0.0812 -2.64613,0.0862 -3.86197,0.61716 -0.84099,0.61001 -1.98318,0.31404 -2.97067,0.67813 -1.58867,0.55807 -2.77819,1.02683 -4.51701,1.06603 -0.74518,0.13188 -1.31369,0.50806 -2.02799,0.67834 -0.63916,0.15237 -1.38505,-0.0658 -2.02514,0.12979 -2.03679,0.30064 -4.02887,0.84758 -6.06916,1.06052 -2.26848,0.19466 -4.47765,0.65112 -6.7177,0.94206 -2.04323,0.15132 -4.06777,0.38057 -5.95919,1.22823 -1.76929,0.3061 -3.30381,1.10093 -5.03935,1.53335 -1.49866,0.47046 -3.13725,0.32097 -4.5959,1.00177 -1.58319,0.56625 -3.38112,0.35908 -4.86664,1.24192 -1.83411,0.89905 -3.88039,1.28654 -5.83998,1.82171 -2.00217,0.68525 -4.06028,1.199 -5.81722,2.42778 -2.08038,0.22335 -4.10216,0.80084 -6.17876,0.95248 -1.79287,0.12787 -3.57232,0.40614 -5.27143,1.01661 -1.4362,0.13444 -3.04198,0.16742 -4.2856,0.95379 -1.05896,-0.0112 -2.11864,-0.0339 -3.17688,0.0206 -1.15254,0.0421 -2.34777,-0.0118 -3.35046,0.6452 -0.96304,0.60973 -2.07923,0.23406 -3.16681,0.48664 -0.41679,0.0689 -0.97909,0.46762 -1.35782,0.47952 -6.48321,0.20373 -13.70575,-2.59069 -19.45485,0.41287 -5.42174,2.83252 25.28652,0.13169 18.35117,-0.008 -0.84282,-0.0399 -1.68509,0.003 -2.52766,-0.0322 -1.84664,0.42156 -3.68622,0.87101 -5.53427,1.28502 -3.3319,0.32322 -6.62744,0.824 -9.92249,1.38367 -1.76363,0.27941 -3.46861,0.58357 -5.2705,0.43025 -1.00598,-0.009 -2.02716,-0.0709 -3.007,0.18744 -1.11064,0.60642 -1.57125,1.00328 -2.9016,0.82318 -1.18234,-0.0155 -2.35893,0.0427 -3.53044,0.21616 -1.50475,0.28242 -2.85192,0.96048 -4.3992,0.93989 -0.91344,0.10429 -2.06092,0.15725 -2.90902,0.54194 -0.19663,0.0892 -0.33533,0.28823 -0.53949,0.35849 -0.17376,0.0598 -0.36736,0.0112 -0.55105,0.0168 -1.30276,0.15533 -2.56523,0.42283 -3.74948,1.01973 -1.2598,0.0602 -2.46726,0.1286 -3.62506,0.70797 -1.52813,0.70624 -3.37023,0.33421 -4.98779,0.83746 -0.54971,0.16716 -1.07111,0.43153 -1.63287,0.55218 -0.99992,0.21475 -2.09831,0.0134 -3.05897,0.49124 -1.77553,0.61803 -3.31952,0.76281 -5.1105,1.23096 -1.4991,0.58106 -3.1911,0.32259 -4.67657,0.993 -1.08939,0.66823 -2.55544,0.56085 -3.43704,1.68311 -0.19746,0.20808 -0.34354,0.48154 -0.59239,0.62423 -0.51759,0.29681 -1.66544,-0.36712 -2.19652,0.093 -1.58065,0.23683 -3.04888,0.9579 -4.63612,1.0912 -1.81519,0.17397 -3.50709,0.72746 -5.28527,1.01695 -2.00014,0.16606 -3.89192,0.87717 -5.89277,0.96199 -2.81989,0.16727 -5.59918,0.62909 -8.36505,1.19812 -3.93575,0.39956 -7.77172,1.20683 -11.63989,2.00487 -3.87372,0.74467 -7.7943,1.25197 -11.63655,2.15846 -2.43577,0.65247 -4.90223,1.14659 -7.3015,1.91259 -2.0819,0.80559 -4.22214,1.06641 -6.44699,1.11385 -8.36841,0.0158 -17.26508,2.12932 -25.02008,-1.50552 0,0 19.09925,-2.12325 19.09925,-2.12325 z"
       transform="matrix(1.5862448,0,0,0.2075158,-437.61906,84.018013)" />
    <path
       style="fill:#00000c;fill-opacity:1;fill-rule:nonzero;stroke:#0001b2;stroke-width:2;stroke-miterlimit:4;stroke-opacity:0.62240666;stroke-dasharray:none;display:inline;filter:url(#filter6927-4)"
       id="path6917-06"
       d="m 333.86921,143.38852 c 1.19421,0.57223 2.32775,0.85545 3.64893,0.79578 0.3756,-0.017 1.50213,-0.0619 1.12615,-0.0639 -5.87801,-0.0316 -11.75617,-0.0166 -17.63425,-0.0249 2.14575,-0.0323 4.26722,-0.17827 6.36776,-0.61928 2.45444,-0.81686 4.97775,-1.38955 7.49485,-1.97517 3.9,-0.94982 7.8684,-1.58718 11.8237,-2.2574 3.8581,-0.69245 7.66282,-1.59897 11.54889,-2.13187 2.7339,-0.38812 5.42964,-0.9788 8.17495,-1.28823 1.96334,-0.0365 3.85673,-0.52569 5.77357,-0.88418 1.80342,-0.12082 3.52191,-0.67838 5.28922,-1.00677 1.53826,-0.12702 3.01977,-0.50908 4.49228,-0.95375 0.91644,-0.23979 1.7995,-0.53582 2.74311,-0.33445 1.19767,-0.51038 2.16617,-1.38008 3.45052,-1.70262 1.49837,-0.7424 3.11566,-1.1189 4.7685,-1.29853 1.66516,-0.54715 3.41839,-0.71675 5.10825,-1.14422 1.50815,-0.61865 3.13681,-0.71453 4.69873,-1.09317 1.61711,-0.40824 3.2644,-0.81372 4.9381,-0.869 1.2346,-0.30653 2.40048,-0.78764 3.66085,-0.99163 1.27779,-0.0278 2.45918,-0.57807 3.68604,-0.88194 1.38801,-0.14032 2.71013,-0.62282 4.08448,-0.93002 1.50415,-0.1303 2.92049,-0.46637 4.37537,-0.84312 1.14866,-0.28693 2.31902,-0.47503 3.49794,-0.57523 0.95307,-0.13073 1.85802,0.1358 2.78079,-0.13188 0.99301,-0.56033 2.07567,-0.74747 3.19391,-0.85245 1.81438,-0.0988 3.62342,-0.0203 5.42945,-0.23107 3.35717,-0.41735 6.68909,-0.99398 10.04626,-1.41489 1.73582,-0.18721 3.42636,-0.6399 5.1082,-1.09134 0.81852,-0.2797 1.69,-0.35273 2.54831,-0.41175 12.65661,-0.16479 38.94234,0.0587 1.04755,0.16344 -0.15875,4.4e-4 0.30879,-0.0747 0.46055,-0.12133 0.3849,-0.11819 0.56067,-0.20922 0.94233,-0.37555 1.01503,-0.37046 2.0948,-0.65476 3.17867,-0.53632 1.15041,-0.35377 2.25154,-0.76869 3.45238,-0.96149 1.03603,-0.14368 2.08012,-0.19192 3.12462,-0.21302 1.43078,0.0803 2.91467,-0.47887 4.35297,-0.7087 1.79716,-0.21568 3.53263,-0.74833 5.32101,-1.0307 2.0913,-0.10257 4.13167,-0.55131 6.18845,-0.90459 2.00018,-0.44345 3.88764,-1.36572 5.83518,-2.05029 1.90273,-0.62609 3.83192,-1.16397 5.74938,-1.74592 1.55166,-0.75433 3.17828,-1.23627 4.8805,-1.49067 1.52679,-0.45643 3.04069,-0.88161 4.62672,-1.06875 1.75015,-0.27122 3.36882,-0.97595 5.04899,-1.487 1.99843,-0.57612 3.96729,-1.1549 6.03017,-1.45877 2.27713,-0.16282 4.50634,-0.65187 6.76819,-0.94189 2.00074,-0.12274 3.94875,-0.57756 5.90889,-0.96245 1.35408,-0.28101 2.70141,-0.2809 4.02631,-0.68082 1.47537,-0.40444 2.99263,-0.45857 4.45047,-0.9136 0.95002,-0.28289 1.91052,-0.77887 2.91796,-0.68879 1.29716,-0.485708 2.61354,-0.823579 3.98378,-1.020473 1.28187,0.05283 2.42092,-0.404727 3.62716,-0.765602 1.574,-0.244465 3.11774,-0.520612 4.67083,-0.888097 1.63914,-0.407531 3.32502,-0.497642 5.00545,-0.558419 7.15339,-0.147332 14.53002,-0.59339 21.51475,-0.04707 5.97987,0.467728 -23.94058,0.812028 -17.9944,0.02425 0.78187,-0.236481 1.50312,-0.642318 2.29819,-0.849212 1.06698,-0.220267 2.16909,-0.187559 3.25375,-0.193737 7.24096,-0.197563 14.48193,0.0092 21.72285,0.0026 1.26637,0.0043 2.53269,0.008 3.79907,0.009 6.55002,-0.02334 14.53417,0.128425 -16.9945,0.06415 -0.20455,-4.17e-4 0.40548,-0.05759 0.60501,-0.102617 0.43096,-0.09725 0.85212,-0.233762 1.27881,-0.34834 1.49196,-0.444662 3.05759,-0.520699 4.60302,-0.596001 7.61443,-0.217807 15.235,-0.06007 22.85223,-0.04296 -32.17867,3.843089 -21.09785,0.279089 -13.99369,-0.726142 1.70048,-0.223948 3.416,-0.260896 5.12838,-0.285842 7.99277,-0.05347 15.98588,-0.0044 23.97874,-0.0043 7.47972,0.0037 -11.41384,0.03831 -17.12062,0.0071 -0.2576,-0.0014 0.51234,-0.05703 0.76622,-0.100692 0.75504,-0.129861 1.5017,-0.329352 2.25242,-0.48317 1.31966,-0.294797 2.66951,-0.376318 4.01636,-0.429985 7.43438,-0.168544 14.87253,-0.02949 22.30873,-0.02328 1.39453,0.0012 2.78906,0.0093 4.18359,0.009 0.7521,0.132364 1.59098,-0.159093 2.3376,-0.0023 0.6635,0.139377 1.32492,0.532611 2.00384,0.694865 1.02048,0.321718 2.07159,0.338491 3.12873,0.351657 6.90265,-0.08311 16.29246,-0.02183 -16.02986,-0.02411 1.30431,0.0063 2.60868,0.0029 3.91299,-0.0032 1.46661,0.05396 2.87826,0.02438 4.31846,-0.260518 1.80071,-0.43582 3.64875,-0.590084 5.49352,-0.686925 8.4913,-0.175934 16.99958,-0.06689 25.48543,-0.0668 1.99612,0.0067 3.99231,0.003 5.98843,-0.0059 0.82361,-0.0048 1.64727,-0.01287 2.47089,-0.0096 7.16765,-0.05069 -26.31198,0.0092 -16.90268,0.0014 0.67405,0.0026 1.34813,-0.0058 2.02217,-0.0025 7.15639,0.01467 14.31318,-0.05232 21.4694,0.0092 6.66348,-0.0064 15.71719,0.217453 -15.62844,0.0076 -0.60939,-0.0041 1.2065,-0.174981 1.80569,-0.286094 1.54476,-0.396417 3.15576,-0.421226 4.7071,-0.748508 0.83122,-0.119945 1.55924,-0.529457 2.32857,-0.808476 0.44403,-0.322748 0.28466,0.649394 0.68174,0.211198 0.0914,-0.763749 0.23161,-1.119585 0.88803,-1.369528 6.58462,-1.358388 13.52226,-0.130102 20.28282,-0.07899 0.18339,-0.02056 0.19461,0.0935 0.29733,-0.0053 7.08067,-0.07669 -23.2421,5.397516 -18.39178,0.346735 0.15012,0.602766 -0.13068,-1.058346 0.44644,-1.32797 6.57146,-1.047989 13.446,-0.940976 19.9772,-0.0062 -0.0162,0.996161 -0.0325,1.992322 -0.0487,2.988483 -0.009,0.0018 -0.0187,0.0037 -0.028,0.0055 0,0 -19.16143,-3.027204 -19.16143,-3.027204 l 0,0 c 0.0102,0.0018 0.0204,0.0035 0.0307,0.0053 0.0114,0.995908 0.0228,1.991815 0.0342,2.987722 -6.68078,0.268543 25.27855,0.867758 18.32379,-0.02002 -0.82405,-0.397033 0.14496,-2.350751 -0.23257,-0.807619 -2.23841,6.804414 -13.27553,1.802168 -20.08014,1.88275 -0.23166,-0.1255 -0.0617,0.0096 -0.29211,-0.01119 -7.10415,-0.08024 25.22175,1.133075 17.99585,-0.07227 -0.67498,-0.136971 -0.51252,-0.223112 -0.65538,-0.984863 -0.0101,-0.05389 -0.0233,0.107149 -0.0349,0.160723 -0.14664,0.545007 -0.39424,1.77137 -0.91704,1.827109 -0.87868,-0.02998 -1.62652,0.306032 -2.47205,0.601418 -0.51715,0.167401 -1.01316,0.407382 -1.54379,0.525288 -1.04504,0.23221 -2.19414,0.04546 -3.23414,0.35832 -7.89071,1.522969 -16.00601,0.565805 -24.02359,0.646688 -8.15347,0.0632 25.58458,-0.0051 16.53582,0.0092 -0.68441,0.0035 -1.36887,-0.0053 -2.0533,-0.0025 -7.0583,-0.0055 -14.11675,0.04877 -21.17509,0.0015 -0.78191,0.0028 -1.56384,-0.0046 -2.34571,-0.01158 -1.94664,-0.01231 -3.89335,-0.02032 -5.84003,-0.0172 32.43407,-0.002 19.42476,-0.02813 12.14428,0.01386 -1.80555,0.02957 -3.62394,0.06587 -5.40826,0.363399 -1.44582,0.325577 -2.78487,0.850051 -4.29169,0.666677 -1.29257,-0.0034 -2.58522,-0.0036 -3.87774,0.0081 -7.10282,-1.1e-5 -14.70619,0.352753 -22.00178,-0.104798 -1.05327,-0.134923 -2.06906,-0.421423 -3.09225,-0.698638 -1.39942,-0.36758 -2.79205,-0.222482 -4.23354,-0.233305 -1.42294,-0.0012 -2.84588,0.0057 -4.26883,0.001 -9.20263,-0.0311 25.48539,0.04349 15.6226,-0.01099 -1.33623,-0.0027 -2.67597,-0.01197 -4.00629,0.128525 -0.72803,0.109414 -2.57553,0.637448 -3.09271,0.649628 -11.24137,0.264742 -13.56936,0.257579 -20.64328,0.248126 -12.41295,-0.03168 24.4315,0.0162 13.7563,-0.0064 -1.69972,-9.94e-4 -3.40081,-0.005 -5.09844,0.09172 -8.29632,0.656289 -13.02325,4.850774 -23.81008,0.936819 -8.10789,-0.0054 26.59992,0.02292 14.97798,-0.0049 -1.50319,0.0099 -3.01434,0.02762 -4.50874,0.189369 -0.43835,0.10138 -1.51579,0.525291 -1.88901,0.535376 -6.96712,0.188256 -13.94904,0.332441 -20.92421,0.308485 -1.30442,7.9e-4 -2.60879,0.005 -3.9132,0.006 -6.80722,-0.02941 -15.80487,0.04267 16.26497,-0.0088 -1.04641,-0.0044 -2.09414,0.0029 -3.13939,-0.04823 -0.79429,0.0062 -1.6062,0.02289 -2.30205,0.469487 -6.91496,3.686938 21.62895,-11.432487 -20.06973,0.601242 -5.90478,1.704046 12.29149,-0.002 18.43723,-0.0051 0.20801,-1.02e-4 -0.416,-0.0025 -0.624,-0.0037 -0.93442,-0.0055 -0.45083,-0.004 -1.47342,-0.0035 -1.64902,0.01063 -3.31241,-0.01562 -4.946,0.234821 -1.56284,0.241435 -3.01511,0.871385 -4.59887,0.890415 -0.83887,0.0795 -1.57696,0.26363 -2.35127,0.60681 -0.21756,0.0964 -0.40685,0.26238 -0.63728,0.32179 -0.21802,0.0562 -0.45016,0.0111 -0.67523,0.0166 -1.30599,0.0812 -2.64613,0.0862 -3.86197,0.61716 -0.84099,0.61001 -1.98318,0.31404 -2.97067,0.67813 -1.58867,0.55807 -2.77819,1.02683 -4.51701,1.06603 -0.74518,0.13188 -1.31369,0.50806 -2.02799,0.67834 -0.63916,0.15237 -1.38505,-0.0658 -2.02514,0.12979 -2.03679,0.30064 -4.02887,0.84758 -6.06916,1.06052 -2.26848,0.19466 -4.47765,0.65112 -6.7177,0.94206 -2.04323,0.15132 -4.06777,0.38057 -5.95919,1.22823 -1.76929,0.3061 -3.30381,1.10093 -5.03935,1.53335 -1.49866,0.47046 -3.13725,0.32097 -4.5959,1.00177 -1.58319,0.56625 -3.38112,0.35908 -4.86664,1.24192 -1.83411,0.89905 -3.88039,1.28654 -5.83998,1.82171 -2.00217,0.68525 -4.06028,1.199 -5.81722,2.42778 -2.08038,0.22335 -4.10216,0.80084 -6.17876,0.95248 -1.79287,0.12787 -3.57232,0.40614 -5.27143,1.01661 -1.4362,0.13444 -3.04198,0.16742 -4.2856,0.95379 -1.05896,-0.0112 -2.11864,-0.0339 -3.17688,0.0206 -1.15254,0.0421 -2.34777,-0.0118 -3.35046,0.6452 -0.96304,0.60973 -2.07923,0.23406 -3.16681,0.48664 -0.41679,0.0689 -0.97909,0.46762 -1.35782,0.47952 -6.48321,0.20373 -13.70575,-2.59069 -19.45485,0.41287 -5.42174,2.83252 25.28652,0.13169 18.35117,-0.008 -0.84282,-0.0399 -1.68509,0.003 -2.52766,-0.0322 -1.84664,0.42156 -3.68622,0.87101 -5.53427,1.28502 -3.3319,0.32322 -6.62744,0.824 -9.92249,1.38367 -1.76363,0.27941 -3.46861,0.58357 -5.2705,0.43025 -1.00598,-0.009 -2.02716,-0.0709 -3.007,0.18744 -1.11064,0.60642 -1.57125,1.00328 -2.9016,0.82318 -1.18234,-0.0155 -2.35893,0.0427 -3.53044,0.21616 -1.50475,0.28242 -2.85192,0.96048 -4.3992,0.93989 -0.91344,0.10429 -2.06092,0.15725 -2.90902,0.54194 -0.19663,0.0892 -0.33533,0.28823 -0.53949,0.35849 -0.17376,0.0598 -0.36736,0.0112 -0.55105,0.0168 -1.30276,0.15533 -2.56523,0.42283 -3.74948,1.01973 -1.2598,0.0602 -2.46726,0.1286 -3.62506,0.70797 -1.52813,0.70624 -3.37023,0.33421 -4.98779,0.83746 -0.54971,0.16716 -1.07111,0.43153 -1.63287,0.55218 -0.99992,0.21475 -2.09831,0.0134 -3.05897,0.49124 -1.77553,0.61803 -3.31952,0.76281 -5.1105,1.23096 -1.4991,0.58106 -3.1911,0.32259 -4.67657,0.993 -1.08939,0.66823 -2.55544,0.56085 -3.43704,1.68311 -0.19746,0.20808 -0.34354,0.48154 -0.59239,0.62423 -0.51759,0.29681 -1.66544,-0.36712 -2.19652,0.093 -1.58065,0.23683 -3.04888,0.9579 -4.63612,1.0912 -1.81519,0.17397 -3.50709,0.72746 -5.28527,1.01695 -2.00014,0.16606 -3.89192,0.87717 -5.89277,0.96199 -2.81989,0.16727 -5.59918,0.62909 -8.36505,1.19812 -3.93575,0.39956 -7.77172,1.20683 -11.63989,2.00487 -3.87372,0.74467 -7.7943,1.25197 -11.63655,2.15846 -2.43577,0.65247 -4.90223,1.14659 -7.3015,1.91259 -2.0819,0.80559 -4.22214,1.06641 -6.44699,1.11385 -8.36841,0.0158 -17.26508,2.12932 -25.02008,-1.50552 0,0 19.09925,-2.12325 19.09925,-2.12325 z"
       transform="matrix(1.5862448,0,0,0.2075158,-434.55442,72.780978)" />
    <path
       style="fill:#6affff;fill-opacity:1;fill-rule:nonzero;stroke:#0001b2;stroke-width:2;stroke-miterlimit:4;stroke-opacity:0.62240666;stroke-dasharray:none;display:inline;filter:url(#filter6927-5)"
       id="path6917-9"
       d="m 333.86921,143.38852 c 1.19421,0.57223 2.32775,0.85545 3.64893,0.79578 0.3756,-0.017 1.50213,-0.0619 1.12615,-0.0639 -5.87801,-0.0316 -11.75617,-0.0166 -17.63425,-0.0249 2.14575,-0.0323 4.26722,-0.17827 6.36776,-0.61928 2.45444,-0.81686 4.97775,-1.38955 7.49485,-1.97517 3.9,-0.94982 7.8684,-1.58718 11.8237,-2.2574 3.8581,-0.69245 7.66282,-1.59897 11.54889,-2.13187 2.7339,-0.38812 5.42964,-0.9788 8.17495,-1.28823 1.96334,-0.0365 3.85673,-0.52569 5.77357,-0.88418 1.80342,-0.12082 3.52191,-0.67838 5.28922,-1.00677 1.53826,-0.12702 3.01977,-0.50908 4.49228,-0.95375 0.91644,-0.23979 1.7995,-0.53582 2.74311,-0.33445 1.19767,-0.51038 2.16617,-1.38008 3.45052,-1.70262 1.49837,-0.7424 3.11566,-1.1189 4.7685,-1.29853 1.66516,-0.54715 3.41839,-0.71675 5.10825,-1.14422 1.50815,-0.61865 3.13681,-0.71453 4.69873,-1.09317 1.61711,-0.40824 3.2644,-0.81372 4.9381,-0.869 1.2346,-0.30653 2.40048,-0.78764 3.66085,-0.99163 1.27779,-0.0278 2.45918,-0.57807 3.68604,-0.88194 1.38801,-0.14032 2.71013,-0.62282 4.08448,-0.93002 1.50415,-0.1303 2.92049,-0.46637 4.37537,-0.84312 1.14866,-0.28693 2.31902,-0.47503 3.49794,-0.57523 0.95307,-0.13073 1.85802,0.1358 2.78079,-0.13188 0.99301,-0.56033 2.07567,-0.74747 3.19391,-0.85245 1.81438,-0.0988 3.62342,-0.0203 5.42945,-0.23107 3.35717,-0.41735 6.68909,-0.99398 10.04626,-1.41489 1.73582,-0.18721 3.42636,-0.6399 5.1082,-1.09134 0.81852,-0.2797 1.69,-0.35273 2.54831,-0.41175 12.65661,-0.16479 38.94234,0.0587 1.04755,0.16344 -0.15875,4.4e-4 0.30879,-0.0747 0.46055,-0.12133 0.3849,-0.11819 0.56067,-0.20922 0.94233,-0.37555 1.01503,-0.37046 2.0948,-0.65476 3.17867,-0.53632 1.15041,-0.35377 2.25154,-0.76869 3.45238,-0.96149 1.03603,-0.14368 2.08012,-0.19192 3.12462,-0.21302 1.43078,0.0803 2.91467,-0.47887 4.35297,-0.7087 1.79716,-0.21568 3.53263,-0.74833 5.32101,-1.0307 2.0913,-0.10257 4.13167,-0.55131 6.18845,-0.90459 2.00018,-0.44345 3.88764,-1.36572 5.83518,-2.05029 1.90273,-0.62609 3.83192,-1.16397 5.74938,-1.74592 1.55166,-0.75433 3.17828,-1.23627 4.8805,-1.49067 1.52679,-0.45643 3.04069,-0.88161 4.62672,-1.06875 1.75015,-0.27122 3.36882,-0.97595 5.04899,-1.487 1.99843,-0.57612 3.96729,-1.1549 6.03017,-1.45877 2.27713,-0.16282 4.50634,-0.65187 6.76819,-0.94189 2.00074,-0.12274 3.94875,-0.57756 5.90889,-0.96245 1.35408,-0.28101 2.70141,-0.2809 4.02631,-0.68082 1.47537,-0.40444 2.99263,-0.45857 4.45047,-0.9136 0.95002,-0.28289 1.91052,-0.77887 2.91796,-0.68879 1.29716,-0.485708 2.61354,-0.823579 3.98378,-1.020473 1.28187,0.05283 2.42092,-0.404727 3.62716,-0.765602 1.574,-0.244465 3.11774,-0.520612 4.67083,-0.888097 1.63914,-0.407531 3.32502,-0.497642 5.00545,-0.558419 7.15339,-0.147332 14.53002,-0.59339 21.51475,-0.04707 5.97987,0.467728 -23.94058,0.812028 -17.9944,0.02425 0.78187,-0.236481 1.50312,-0.642318 2.29819,-0.849212 1.06698,-0.220267 2.16909,-0.187559 3.25375,-0.193737 7.24096,-0.197563 14.48193,0.0092 21.72285,0.0026 1.26637,0.0043 2.53269,0.008 3.79907,0.009 6.55002,-0.02334 14.53417,0.128425 -16.9945,0.06415 -0.20455,-4.17e-4 0.40548,-0.05759 0.60501,-0.102617 0.43096,-0.09725 0.85212,-0.233762 1.27881,-0.34834 1.49196,-0.444662 3.05759,-0.520699 4.60302,-0.596001 7.61443,-0.217807 15.235,-0.06007 22.85223,-0.04296 -32.17867,3.843089 -21.09785,0.279089 -13.99369,-0.726142 1.70048,-0.223948 3.416,-0.260896 5.12838,-0.285842 7.99277,-0.05347 15.98588,-0.0044 23.97874,-0.0043 7.47972,0.0037 -11.41384,0.03831 -17.12062,0.0071 -0.2576,-0.0014 0.51234,-0.05703 0.76622,-0.100692 0.75504,-0.129861 1.5017,-0.329352 2.25242,-0.48317 1.31966,-0.294797 2.66951,-0.376318 4.01636,-0.429985 7.43438,-0.168544 14.87253,-0.02949 22.30873,-0.02328 1.39453,0.0012 2.78906,0.0093 4.18359,0.009 0.7521,0.132364 1.59098,-0.159093 2.3376,-0.0023 0.6635,0.139377 1.32492,0.532611 2.00384,0.694865 1.02048,0.321718 2.07159,0.338491 3.12873,0.351657 6.90265,-0.08311 16.29246,-0.02183 -16.02986,-0.02411 1.30431,0.0063 2.60868,0.0029 3.91299,-0.0032 1.46661,0.05396 2.87826,0.02438 4.31846,-0.260518 1.80071,-0.43582 3.64875,-0.590084 5.49352,-0.686925 8.4913,-0.175934 16.99958,-0.06689 25.48543,-0.0668 1.99612,0.0067 3.99231,0.003 5.98843,-0.0059 0.82361,-0.0048 1.64727,-0.01287 2.47089,-0.0096 7.16765,-0.05069 -26.31198,0.0092 -16.90268,0.0014 0.67405,0.0026 1.34813,-0.0058 2.02217,-0.0025 7.15639,0.01467 14.31318,-0.05232 21.4694,0.0092 6.66348,-0.0064 15.71719,0.217453 -15.62844,0.0076 -0.60939,-0.0041 1.2065,-0.174981 1.80569,-0.286094 1.54476,-0.396417 3.15576,-0.421226 4.7071,-0.748508 0.83122,-0.119945 1.55924,-0.529457 2.32857,-0.808476 0.44403,-0.322748 0.28466,0.649394 0.68174,0.211198 0.0914,-0.763749 0.23161,-1.119585 0.88803,-1.369528 6.58462,-1.358388 13.52226,-0.130102 20.28282,-0.07899 0.18339,-0.02056 0.19461,0.0935 0.29733,-0.0053 7.08067,-0.07669 -23.2421,5.397516 -18.39178,0.346735 0.15012,0.602766 -0.13068,-1.058346 0.44644,-1.32797 6.57146,-1.047989 13.446,-0.940976 19.9772,-0.0062 -0.0162,0.996161 -0.0325,1.992322 -0.0487,2.988483 -0.009,0.0018 -0.0187,0.0037 -0.028,0.0055 0,0 -19.16143,-3.027204 -19.16143,-3.027204 l 0,0 c 0.0102,0.0018 0.0204,0.0035 0.0307,0.0053 0.0114,0.995908 0.0228,1.991815 0.0342,2.987722 -6.68078,0.268543 25.27855,0.867758 18.32379,-0.02002 -0.82405,-0.397033 0.14496,-2.350751 -0.23257,-0.807619 -2.23841,6.804414 -13.27553,1.802168 -20.08014,1.88275 -0.23166,-0.1255 -0.0617,0.0096 -0.29211,-0.01119 -7.10415,-0.08024 25.22175,1.133075 17.99585,-0.07227 -0.67498,-0.136971 -0.51252,-0.223112 -0.65538,-0.984863 -0.0101,-0.05389 -0.0233,0.107149 -0.0349,0.160723 -0.14664,0.545007 -0.39424,1.77137 -0.91704,1.827109 -0.87868,-0.02998 -1.62652,0.306032 -2.47205,0.601418 -0.51715,0.167401 -1.01316,0.407382 -1.54379,0.525288 -1.04504,0.23221 -2.19414,0.04546 -3.23414,0.35832 -7.89071,1.522969 -16.00601,0.565805 -24.02359,0.646688 -8.15347,0.0632 25.58458,-0.0051 16.53582,0.0092 -0.68441,0.0035 -1.36887,-0.0053 -2.0533,-0.0025 -7.0583,-0.0055 -14.11675,0.04877 -21.17509,0.0015 -0.78191,0.0028 -1.56384,-0.0046 -2.34571,-0.01158 -1.94664,-0.01231 -3.89335,-0.02032 -5.84003,-0.0172 32.43407,-0.002 19.42476,-0.02813 12.14428,0.01386 -1.80555,0.02957 -3.62394,0.06587 -5.40826,0.363399 -1.44582,0.325577 -2.78487,0.850051 -4.29169,0.666677 -1.29257,-0.0034 -2.58522,-0.0036 -3.87774,0.0081 -7.10282,-1.1e-5 -14.70619,0.352753 -22.00178,-0.104798 -1.05327,-0.134923 -2.06906,-0.421423 -3.09225,-0.698638 -1.39942,-0.36758 -2.79205,-0.222482 -4.23354,-0.233305 -1.42294,-0.0012 -2.84588,0.0057 -4.26883,0.001 -9.20263,-0.0311 25.48539,0.04349 15.6226,-0.01099 -1.33623,-0.0027 -2.67597,-0.01197 -4.00629,0.128525 -0.72803,0.109414 -2.57553,0.637448 -3.09271,0.649628 -11.24137,0.264742 -13.56936,0.257579 -20.64328,0.248126 -12.41295,-0.03168 24.4315,0.0162 13.7563,-0.0064 -1.69972,-9.94e-4 -3.40081,-0.005 -5.09844,0.09172 -8.29632,0.656289 -13.02325,4.850774 -23.81008,0.936819 -8.10789,-0.0054 26.59992,0.02292 14.97798,-0.0049 -1.50319,0.0099 -3.01434,0.02762 -4.50874,0.189369 -0.43835,0.10138 -1.51579,0.525291 -1.88901,0.535376 -6.96712,0.188256 -13.94904,0.332441 -20.92421,0.308485 -1.30442,7.9e-4 -2.60879,0.005 -3.9132,0.006 -6.80722,-0.02941 -15.80487,0.04267 16.26497,-0.0088 -1.04641,-0.0044 -2.09414,0.0029 -3.13939,-0.04823 -0.79429,0.0062 -1.6062,0.02289 -2.30205,0.469487 -6.91496,3.686938 21.62895,-11.432487 -20.06973,0.601242 -5.90478,1.704046 12.29149,-0.002 18.43723,-0.0051 0.20801,-1.02e-4 -0.416,-0.0025 -0.624,-0.0037 -0.93442,-0.0055 -0.45083,-0.004 -1.47342,-0.0035 -1.64902,0.01063 -3.31241,-0.01562 -4.946,0.234821 -1.56284,0.241435 -3.01511,0.871385 -4.59887,0.890415 -0.83887,0.0795 -1.57696,0.26363 -2.35127,0.60681 -0.21756,0.0964 -0.40685,0.26238 -0.63728,0.32179 -0.21802,0.0562 -0.45016,0.0111 -0.67523,0.0166 -1.30599,0.0812 -2.64613,0.0862 -3.86197,0.61716 -0.84099,0.61001 -1.98318,0.31404 -2.97067,0.67813 -1.58867,0.55807 -2.77819,1.02683 -4.51701,1.06603 -0.74518,0.13188 -1.31369,0.50806 -2.02799,0.67834 -0.63916,0.15237 -1.38505,-0.0658 -2.02514,0.12979 -2.03679,0.30064 -4.02887,0.84758 -6.06916,1.06052 -2.26848,0.19466 -4.47765,0.65112 -6.7177,0.94206 -2.04323,0.15132 -4.06777,0.38057 -5.95919,1.22823 -1.76929,0.3061 -3.30381,1.10093 -5.03935,1.53335 -1.49866,0.47046 -3.13725,0.32097 -4.5959,1.00177 -1.58319,0.56625 -3.38112,0.35908 -4.86664,1.24192 -1.83411,0.89905 -3.88039,1.28654 -5.83998,1.82171 -2.00217,0.68525 -4.06028,1.199 -5.81722,2.42778 -2.08038,0.22335 -4.10216,0.80084 -6.17876,0.95248 -1.79287,0.12787 -3.57232,0.40614 -5.27143,1.01661 -1.4362,0.13444 -3.04198,0.16742 -4.2856,0.95379 -1.05896,-0.0112 -2.11864,-0.0339 -3.17688,0.0206 -1.15254,0.0421 -2.34777,-0.0118 -3.35046,0.6452 -0.96304,0.60973 -2.07923,0.23406 -3.16681,0.48664 -0.41679,0.0689 -0.97909,0.46762 -1.35782,0.47952 -6.48321,0.20373 -13.70575,-2.59069 -19.45485,0.41287 -5.42174,2.83252 25.28652,0.13169 18.35117,-0.008 -0.84282,-0.0399 -1.68509,0.003 -2.52766,-0.0322 -1.84664,0.42156 -3.68622,0.87101 -5.53427,1.28502 -3.3319,0.32322 -6.62744,0.824 -9.92249,1.38367 -1.76363,0.27941 -3.46861,0.58357 -5.2705,0.43025 -1.00598,-0.009 -2.02716,-0.0709 -3.007,0.18744 -1.11064,0.60642 -1.57125,1.00328 -2.9016,0.82318 -1.18234,-0.0155 -2.35893,0.0427 -3.53044,0.21616 -1.50475,0.28242 -2.85192,0.96048 -4.3992,0.93989 -0.91344,0.10429 -2.06092,0.15725 -2.90902,0.54194 -0.19663,0.0892 -0.33533,0.28823 -0.53949,0.35849 -0.17376,0.0598 -0.36736,0.0112 -0.55105,0.0168 -1.30276,0.15533 -2.56523,0.42283 -3.74948,1.01973 -1.2598,0.0602 -2.46726,0.1286 -3.62506,0.70797 -1.52813,0.70624 -3.37023,0.33421 -4.98779,0.83746 -0.54971,0.16716 -1.07111,0.43153 -1.63287,0.55218 -0.99992,0.21475 -2.09831,0.0134 -3.05897,0.49124 -1.77553,0.61803 -3.31952,0.76281 -5.1105,1.23096 -1.4991,0.58106 -3.1911,0.32259 -4.67657,0.993 -1.08939,0.66823 -2.55544,0.56085 -3.43704,1.68311 -0.19746,0.20808 -0.34354,0.48154 -0.59239,0.62423 -0.51759,0.29681 -1.66544,-0.36712 -2.19652,0.093 -1.58065,0.23683 -3.04888,0.9579 -4.63612,1.0912 -1.81519,0.17397 -3.50709,0.72746 -5.28527,1.01695 -2.00014,0.16606 -3.89192,0.87717 -5.89277,0.96199 -2.81989,0.16727 -5.59918,0.62909 -8.36505,1.19812 -3.93575,0.39956 -7.77172,1.20683 -11.63989,2.00487 -3.87372,0.74467 -7.7943,1.25197 -11.63655,2.15846 -2.43577,0.65247 -4.90223,1.14659 -7.3015,1.91259 -2.0819,0.80559 -4.22214,1.06641 -6.44699,1.11385 -8.36841,0.0158 -17.26508,2.12932 -25.02008,-1.50552 0,0 19.09925,-2.12325 19.09925,-2.12325 z"
       transform="matrix(1.5862448,0,0,0.2075158,-446.813,77.888716)" />
    <path
       style="fill:#6affff;fill-opacity:1;fill-rule:nonzero;stroke:#0001b2;stroke-width:2;stroke-miterlimit:4;stroke-opacity:0.62240666;stroke-dasharray:none;display:inline;filter:url(#filter6927-80)"
       id="path6917-2"
       d="m 333.86921,143.38852 c 1.19421,0.57223 2.32775,0.85545 3.64893,0.79578 0.3756,-0.017 1.50213,-0.0619 1.12615,-0.0639 -5.87801,-0.0316 -11.75617,-0.0166 -17.63425,-0.0249 2.14575,-0.0323 4.26722,-0.17827 6.36776,-0.61928 2.45444,-0.81686 4.97775,-1.38955 7.49485,-1.97517 3.9,-0.94982 7.8684,-1.58718 11.8237,-2.2574 3.8581,-0.69245 7.66282,-1.59897 11.54889,-2.13187 2.7339,-0.38812 5.42964,-0.9788 8.17495,-1.28823 1.96334,-0.0365 3.85673,-0.52569 5.77357,-0.88418 1.80342,-0.12082 3.52191,-0.67838 5.28922,-1.00677 1.53826,-0.12702 3.01977,-0.50908 4.49228,-0.95375 0.91644,-0.23979 1.7995,-0.53582 2.74311,-0.33445 1.19767,-0.51038 2.16617,-1.38008 3.45052,-1.70262 1.49837,-0.7424 3.11566,-1.1189 4.7685,-1.29853 1.66516,-0.54715 3.41839,-0.71675 5.10825,-1.14422 1.50815,-0.61865 3.13681,-0.71453 4.69873,-1.09317 1.61711,-0.40824 3.2644,-0.81372 4.9381,-0.869 1.2346,-0.30653 2.40048,-0.78764 3.66085,-0.99163 1.27779,-0.0278 2.45918,-0.57807 3.68604,-0.88194 1.38801,-0.14032 2.71013,-0.62282 4.08448,-0.93002 1.50415,-0.1303 2.92049,-0.46637 4.37537,-0.84312 1.14866,-0.28693 2.31902,-0.47503 3.49794,-0.57523 0.95307,-0.13073 1.85802,0.1358 2.78079,-0.13188 0.99301,-0.56033 2.07567,-0.74747 3.19391,-0.85245 1.81438,-0.0988 3.62342,-0.0203 5.42945,-0.23107 3.35717,-0.41735 6.68909,-0.99398 10.04626,-1.41489 1.73582,-0.18721 3.42636,-0.6399 5.1082,-1.09134 0.81852,-0.2797 1.69,-0.35273 2.54831,-0.41175 12.65661,-0.16479 38.94234,0.0587 1.04755,0.16344 -0.15875,4.4e-4 0.30879,-0.0747 0.46055,-0.12133 0.3849,-0.11819 0.56067,-0.20922 0.94233,-0.37555 1.01503,-0.37046 2.0948,-0.65476 3.17867,-0.53632 1.15041,-0.35377 2.25154,-0.76869 3.45238,-0.96149 1.03603,-0.14368 2.08012,-0.19192 3.12462,-0.21302 1.43078,0.0803 2.91467,-0.47887 4.35297,-0.7087 1.79716,-0.21568 3.53263,-0.74833 5.32101,-1.0307 2.0913,-0.10257 4.13167,-0.55131 6.18845,-0.90459 2.00018,-0.44345 3.88764,-1.36572 5.83518,-2.05029 1.90273,-0.62609 3.83192,-1.16397 5.74938,-1.74592 1.55166,-0.75433 3.17828,-1.23627 4.8805,-1.49067 1.52679,-0.45643 3.04069,-0.88161 4.62672,-1.06875 1.75015,-0.27122 3.36882,-0.97595 5.04899,-1.487 1.99843,-0.57612 3.96729,-1.1549 6.03017,-1.45877 2.27713,-0.16282 4.50634,-0.65187 6.76819,-0.94189 2.00074,-0.12274 3.94875,-0.57756 5.90889,-0.96245 1.35408,-0.28101 2.70141,-0.2809 4.02631,-0.68082 1.47537,-0.40444 2.99263,-0.45857 4.45047,-0.9136 0.95002,-0.28289 1.91052,-0.77887 2.91796,-0.68879 1.29716,-0.485708 2.61354,-0.823579 3.98378,-1.020473 1.28187,0.05283 2.42092,-0.404727 3.62716,-0.765602 1.574,-0.244465 3.11774,-0.520612 4.67083,-0.888097 1.63914,-0.407531 3.32502,-0.497642 5.00545,-0.558419 7.15339,-0.147332 14.53002,-0.59339 21.51475,-0.04707 5.97987,0.467728 -23.94058,0.812028 -17.9944,0.02425 0.78187,-0.236481 1.50312,-0.642318 2.29819,-0.849212 1.06698,-0.220267 2.16909,-0.187559 3.25375,-0.193737 7.24096,-0.197563 14.48193,0.0092 21.72285,0.0026 1.26637,0.0043 2.53269,0.008 3.79907,0.009 6.55002,-0.02334 14.53417,0.128425 -16.9945,0.06415 -0.20455,-4.17e-4 0.40548,-0.05759 0.60501,-0.102617 0.43096,-0.09725 0.85212,-0.233762 1.27881,-0.34834 1.49196,-0.444662 3.05759,-0.520699 4.60302,-0.596001 7.61443,-0.217807 15.235,-0.06007 22.85223,-0.04296 -32.17867,3.843089 -21.09785,0.279089 -13.99369,-0.726142 1.70048,-0.223948 3.416,-0.260896 5.12838,-0.285842 7.99277,-0.05347 15.98588,-0.0044 23.97874,-0.0043 7.47972,0.0037 -11.41384,0.03831 -17.12062,0.0071 -0.2576,-0.0014 0.51234,-0.05703 0.76622,-0.100692 0.75504,-0.129861 1.5017,-0.329352 2.25242,-0.48317 1.31966,-0.294797 2.66951,-0.376318 4.01636,-0.429985 7.43438,-0.168544 14.87253,-0.02949 22.30873,-0.02328 1.39453,0.0012 2.78906,0.0093 4.18359,0.009 0.7521,0.132364 1.59098,-0.159093 2.3376,-0.0023 0.6635,0.139377 1.32492,0.532611 2.00384,0.694865 1.02048,0.321718 2.07159,0.338491 3.12873,0.351657 6.90265,-0.08311 16.29246,-0.02183 -16.02986,-0.02411 1.30431,0.0063 2.60868,0.0029 3.91299,-0.0032 1.46661,0.05396 2.87826,0.02438 4.31846,-0.260518 1.80071,-0.43582 3.64875,-0.590084 5.49352,-0.686925 8.4913,-0.175934 16.99958,-0.06689 25.48543,-0.0668 1.99612,0.0067 3.99231,0.003 5.98843,-0.0059 0.82361,-0.0048 1.64727,-0.01287 2.47089,-0.0096 7.16765,-0.05069 -26.31198,0.0092 -16.90268,0.0014 0.67405,0.0026 1.34813,-0.0058 2.02217,-0.0025 7.15639,0.01467 14.31318,-0.05232 21.4694,0.0092 6.66348,-0.0064 15.71719,0.217453 -15.62844,0.0076 -0.60939,-0.0041 1.2065,-0.174981 1.80569,-0.286094 1.54476,-0.396417 3.15576,-0.421226 4.7071,-0.748508 0.83122,-0.119945 1.55924,-0.529457 2.32857,-0.808476 0.44403,-0.322748 0.28466,0.649394 0.68174,0.211198 0.0914,-0.763749 0.23161,-1.119585 0.88803,-1.369528 6.58462,-1.358388 13.52226,-0.130102 20.28282,-0.07899 0.18339,-0.02056 0.19461,0.0935 0.29733,-0.0053 7.08067,-0.07669 -23.2421,5.397516 -18.39178,0.346735 0.15012,0.602766 -0.13068,-1.058346 0.44644,-1.32797 6.57146,-1.047989 13.446,-0.940976 19.9772,-0.0062 -0.0162,0.996161 -0.0325,1.992322 -0.0487,2.988483 -0.009,0.0018 -0.0187,0.0037 -0.028,0.0055 0,0 -19.16143,-3.027204 -19.16143,-3.027204 l 0,0 c 0.0102,0.0018 0.0204,0.0035 0.0307,0.0053 0.0114,0.995908 0.0228,1.991815 0.0342,2.987722 -6.68078,0.268543 25.27855,0.867758 18.32379,-0.02002 -0.82405,-0.397033 0.14496,-2.350751 -0.23257,-0.807619 -2.23841,6.804414 -13.27553,1.802168 -20.08014,1.88275 -0.23166,-0.1255 -0.0617,0.0096 -0.29211,-0.01119 -7.10415,-0.08024 25.22175,1.133075 17.99585,-0.07227 -0.67498,-0.136971 -0.51252,-0.223112 -0.65538,-0.984863 -0.0101,-0.05389 -0.0233,0.107149 -0.0349,0.160723 -0.14664,0.545007 -0.39424,1.77137 -0.91704,1.827109 -0.87868,-0.02998 -1.62652,0.306032 -2.47205,0.601418 -0.51715,0.167401 -1.01316,0.407382 -1.54379,0.525288 -1.04504,0.23221 -2.19414,0.04546 -3.23414,0.35832 -7.89071,1.522969 -16.00601,0.565805 -24.02359,0.646688 -8.15347,0.0632 25.58458,-0.0051 16.53582,0.0092 -0.68441,0.0035 -1.36887,-0.0053 -2.0533,-0.0025 -7.0583,-0.0055 -14.11675,0.04877 -21.17509,0.0015 -0.78191,0.0028 -1.56384,-0.0046 -2.34571,-0.01158 -1.94664,-0.01231 -3.89335,-0.02032 -5.84003,-0.0172 32.43407,-0.002 19.42476,-0.02813 12.14428,0.01386 -1.80555,0.02957 -3.62394,0.06587 -5.40826,0.363399 -1.44582,0.325577 -2.78487,0.850051 -4.29169,0.666677 -1.29257,-0.0034 -2.58522,-0.0036 -3.87774,0.0081 -7.10282,-1.1e-5 -14.70619,0.352753 -22.00178,-0.104798 -1.05327,-0.134923 -2.06906,-0.421423 -3.09225,-0.698638 -1.39942,-0.36758 -2.79205,-0.222482 -4.23354,-0.233305 -1.42294,-0.0012 -2.84588,0.0057 -4.26883,0.001 -9.20263,-0.0311 25.48539,0.04349 15.6226,-0.01099 -1.33623,-0.0027 -2.67597,-0.01197 -4.00629,0.128525 -0.72803,0.109414 -2.57553,0.637448 -3.09271,0.649628 -11.24137,0.264742 -13.56936,0.257579 -20.64328,0.248126 -12.41295,-0.03168 24.4315,0.0162 13.7563,-0.0064 -1.69972,-9.94e-4 -3.40081,-0.005 -5.09844,0.09172 -8.29632,0.656289 -13.02325,4.850774 -23.81008,0.936819 -8.10789,-0.0054 26.59992,0.02292 14.97798,-0.0049 -1.50319,0.0099 -3.01434,0.02762 -4.50874,0.189369 -0.43835,0.10138 -1.51579,0.525291 -1.88901,0.535376 -6.96712,0.188256 -13.94904,0.332441 -20.92421,0.308485 -1.30442,7.9e-4 -2.60879,0.005 -3.9132,0.006 -6.80722,-0.02941 -15.80487,0.04267 16.26497,-0.0088 -1.04641,-0.0044 -2.09414,0.0029 -3.13939,-0.04823 -0.79429,0.0062 -1.6062,0.02289 -2.30205,0.469487 -6.91496,3.686938 21.62895,-11.432487 -20.06973,0.601242 -5.90478,1.704046 12.29149,-0.002 18.43723,-0.0051 0.20801,-1.02e-4 -0.416,-0.0025 -0.624,-0.0037 -0.93442,-0.0055 -0.45083,-0.004 -1.47342,-0.0035 -1.64902,0.01063 -3.31241,-0.01562 -4.946,0.234821 -1.56284,0.241435 -3.01511,0.871385 -4.59887,0.890415 -0.83887,0.0795 -1.57696,0.26363 -2.35127,0.60681 -0.21756,0.0964 -0.40685,0.26238 -0.63728,0.32179 -0.21802,0.0562 -0.45016,0.0111 -0.67523,0.0166 -1.30599,0.0812 -2.64613,0.0862 -3.86197,0.61716 -0.84099,0.61001 -1.98318,0.31404 -2.97067,0.67813 -1.58867,0.55807 -2.77819,1.02683 -4.51701,1.06603 -0.74518,0.13188 -1.31369,0.50806 -2.02799,0.67834 -0.63916,0.15237 -1.38505,-0.0658 -2.02514,0.12979 -2.03679,0.30064 -4.02887,0.84758 -6.06916,1.06052 -2.26848,0.19466 -4.47765,0.65112 -6.7177,0.94206 -2.04323,0.15132 -4.06777,0.38057 -5.95919,1.22823 -1.76929,0.3061 -3.30381,1.10093 -5.03935,1.53335 -1.49866,0.47046 -3.13725,0.32097 -4.5959,1.00177 -1.58319,0.56625 -3.38112,0.35908 -4.86664,1.24192 -1.83411,0.89905 -3.88039,1.28654 -5.83998,1.82171 -2.00217,0.68525 -4.06028,1.199 -5.81722,2.42778 -2.08038,0.22335 -4.10216,0.80084 -6.17876,0.95248 -1.79287,0.12787 -3.57232,0.40614 -5.27143,1.01661 -1.4362,0.13444 -3.04198,0.16742 -4.2856,0.95379 -1.05896,-0.0112 -2.11864,-0.0339 -3.17688,0.0206 -1.15254,0.0421 -2.34777,-0.0118 -3.35046,0.6452 -0.96304,0.60973 -2.07923,0.23406 -3.16681,0.48664 -0.41679,0.0689 -0.97909,0.46762 -1.35782,0.47952 -6.48321,0.20373 -13.70575,-2.59069 -19.45485,0.41287 -5.42174,2.83252 25.28652,0.13169 18.35117,-0.008 -0.84282,-0.0399 -1.68509,0.003 -2.52766,-0.0322 -1.84664,0.42156 -3.68622,0.87101 -5.53427,1.28502 -3.3319,0.32322 -6.62744,0.824 -9.92249,1.38367 -1.76363,0.27941 -3.46861,0.58357 -5.2705,0.43025 -1.00598,-0.009 -2.02716,-0.0709 -3.007,0.18744 -1.11064,0.60642 -1.57125,1.00328 -2.9016,0.82318 -1.18234,-0.0155 -2.35893,0.0427 -3.53044,0.21616 -1.50475,0.28242 -2.85192,0.96048 -4.3992,0.93989 -0.91344,0.10429 -2.06092,0.15725 -2.90902,0.54194 -0.19663,0.0892 -0.33533,0.28823 -0.53949,0.35849 -0.17376,0.0598 -0.36736,0.0112 -0.55105,0.0168 -1.30276,0.15533 -2.56523,0.42283 -3.74948,1.01973 -1.2598,0.0602 -2.46726,0.1286 -3.62506,0.70797 -1.52813,0.70624 -3.37023,0.33421 -4.98779,0.83746 -0.54971,0.16716 -1.07111,0.43153 -1.63287,0.55218 -0.99992,0.21475 -2.09831,0.0134 -3.05897,0.49124 -1.77553,0.61803 -3.31952,0.76281 -5.1105,1.23096 -1.4991,0.58106 -3.1911,0.32259 -4.67657,0.993 -1.08939,0.66823 -2.55544,0.56085 -3.43704,1.68311 -0.19746,0.20808 -0.34354,0.48154 -0.59239,0.62423 -0.51759,0.29681 -1.66544,-0.36712 -2.19652,0.093 -1.58065,0.23683 -3.04888,0.9579 -4.63612,1.0912 -1.81519,0.17397 -3.50709,0.72746 -5.28527,1.01695 -2.00014,0.16606 -3.89192,0.87717 -5.89277,0.96199 -2.81989,0.16727 -5.59918,0.62909 -8.36505,1.19812 -3.93575,0.39956 -7.77172,1.20683 -11.63989,2.00487 -3.87372,0.74467 -7.7943,1.25197 -11.63655,2.15846 -2.43577,0.65247 -4.90223,1.14659 -7.3015,1.91259 -2.0819,0.80559 -4.22214,1.06641 -6.44699,1.11385 -8.36841,0.0158 -17.26508,2.12932 -25.02008,-1.50552 0,0 19.09925,-2.12325 19.09925,-2.12325 z"
       transform="matrix(1.5862448,0,0,0.2075158,-442.26551,98.147299)" />
    <rect
       style="fill:url(#radialGradient7096);fill-opacity:1;fill-rule:nonzero;stroke:none;filter:url(#filter7126)"
       id="rect7078"
       width="119.52115"
       height="134.84438"
       x="289.09818"
       y="173.83066"
       transform="matrix(4.8481341,0,0,0.28110811,-1324.0674,52.208852)" />
    <rect
       style="fill:url(#radialGradient7154);fill-opacity:1;fill-rule:nonzero;stroke:none"
       id="rect7132"
       width="632.33838"
       height="2.0430965"
       x="54.142059"
       y="89.904083" />
    <rect
       style="fill:#000004;fill-opacity:0.16597511;fill-rule:nonzero;stroke:none"
       id="rect7134"
       width="4.0861931"
       height="2.0430965"
       x="96.025536"
       y="500.7261" />
    <rect
       style="fill:#00b4f4;fill-opacity:1;fill-rule:nonzero;stroke:none;display:inline"
       id="rect7132-7"
       width="632.33838"
       height="2.0430965"
       x="54.061363"
       y="127.47951" />
  </g>
  <g
     inkscape:groupmode="layer"
     id="layer8"
     inkscape:label="Layer#1" />
  <g
     inkscape:groupmode="layer"
     id="layer7"
     inkscape:label="Layer"
     style="display:inline">
    <text
       xml:space="preserve"
       style="font-size:60.23571396px;font-style:normal;font-variant:normal;font-weight:bold;font-stretch:normal;fill:url(#linearGradient6915);fill-opacity:1;stroke:none;font-family:Apple LiSung;-inkscape-font-specification:Apple LiSung Bold"
       x="53.156448"
       y="86.337006"
       id="text6898"
       transform="scale(0.96436999,1.0369464)"><tspan
         sodipodi:role="line"
         id="tspan6900"
         x="53.156448"
         y="86.337006"
         style="font-size:60.23571396px;font-style:normal;font-variant:normal;font-weight:bold;font-stretch:normal;fill:url(#linearGradient6915);fill-opacity:1;font-family:Apple LiSung;-inkscape-font-specification:Apple LiSung Bold">varfu</tspan></text>
  </g>
</svg>
