<?xml version="1.0" encoding="UTF-8" standalone="no"?>
<!-- Created with Inkscape (http://www.inkscape.org/) -->

<svg
   xmlns:dc="http://purl.org/dc/elements/1.1/"
   xmlns:cc="http://creativecommons.org/ns#"
   xmlns:rdf="http://www.w3.org/1999/02/22-rdf-syntax-ns#"
   xmlns:svg="http://www.w3.org/2000/svg"
   xmlns="http://www.w3.org/2000/svg"
   xmlns:sodipodi="http://sodipodi.sourceforge.net/DTD/sodipodi-0.dtd"
   xmlns:inkscape="http://www.inkscape.org/namespaces/inkscape"
   width="744.09448819"
   height="1052.3622047"
   id="svg2"
   version="1.1"
   inkscape:version="0.47pre1 r21720"
   sodipodi:docname="2009Aug04ThrillTop01.svg"
   inkscape:output_extension="org.inkscape.output.svg.inkscape">
  <defs
     id="defs4">
    <inkscape:perspective
       sodipodi:type="inkscape:persp3d"
       inkscape:vp_x="0 : 526.18109 : 1"
       inkscape:vp_y="0 : 1000 : 0"
       inkscape:vp_z="744.09448 : 526.18109 : 1"
       inkscape:persp3d-origin="372.04724 : 350.78739 : 1"
       id="perspective10" />
  </defs>
  <sodipodi:namedview
     id="base"
     pagecolor="#ffffff"
     bordercolor="#666666"
     borderopacity="1.0"
     inkscape:pageopacity="0.0"
     inkscape:pageshadow="2"
     inkscape:zoom="0.98994949"
     inkscape:cx="274.19233"
     inkscape:cy="633.73373"
     inkscape:document-units="px"
     inkscape:current-layer="layer1"
     showgrid="false"
     borderlayer="false"
     inkscape:window-width="1520"
     inkscape:window-height="1170"
     inkscape:window-x="0"
     inkscape:window-y="0"
     inkscape:window-maximized="0" />
  <metadata
     id="metadata7">
    <rdf:RDF>
      <cc:Work
         rdf:about="">
        <dc:format>image/svg+xml</dc:format>
        <dc:type
           rdf:resource="http://purl.org/dc/dcmitype/StillImage" />
      </cc:Work>
    </rdf:RDF>
  </metadata>
  <g
     inkscape:label="Layer 1"
     inkscape:groupmode="layer"
     id="layer1">
    <path
       inkscape:export-xdpi="90"
       inkscape:export-ydpi="90"
       style="fill:#808000;fill-opacity:1;fill-rule:nonzero;stroke:none"
       id="path2816"
       d="m 95.048886,278.76013 c 1.32496,0.0147 -54.497017,42.82324 -53.174978,42.74172 1.653537,-0.082 3.291111,-0.32114 4.915783,-0.62913 2.097483,-0.44577 4.168992,-1.00841 6.226616,-1.60989 2.426094,-0.70342 4.836948,-1.45878 7.250165,-2.20513 2.743736,-0.89581 5.468596,-1.8476 8.202184,-2.77359 2.92489,-1.03011 5.8637,-2.01961 8.8003,-3.01558 3.18003,-1.06473 6.342,-2.17984 9.54112,-3.18696 3.48839,-1.04928 6.97996,-2.08781 10.46876,-3.13581 3.755274,-1.1486 7.538594,-2.20047 11.334504,-3.20535 4.04554,-1.04337 8.12038,-1.9678 12.19801,-2.87587 4.2232,-0.9198 8.4648,-1.74978 12.71127,-2.55384 4.34897,-0.8255 8.71239,-1.56818 13.08369,-2.26441 4.56883,-0.71345 9.14434,-1.38431 13.72563,-2.01272 4.65402,-0.64572 9.31688,-1.22545 13.98143,-1.78924 4.77712,-0.51722 9.56624,-0.91726 14.35433,-1.31749 4.86146,-0.35015 9.72986,-0.59354 14.59682,-0.85255 4.87634,-0.25923 9.75932,-0.36171 14.64042,-0.48897 4.86607,-0.12701 9.73451,-0.10672 14.60183,-0.11385 4.79015,0.0556 9.58044,0.14086 14.36841,0.29757 4.76515,0.14872 9.52446,0.4102 14.28284,0.69752 4.83237,0.28486 9.65573,0.6982 14.47511,1.14812 5.18288,0.52497 10.35354,1.16431 15.51868,1.84008 5.68853,0.70215 11.34044,1.65021 16.99427,2.5829 6.24513,1.06821 12.48353,2.17559 18.72169,3.28379 6.83902,1.20141 13.67636,2.41269 20.52295,3.57048 7.47774,1.2485 57.81877,36.7424 65.31595,37.86844 8.28472,1.19959 -26.27531,-31.97196 -17.97636,-30.87545 9.16012,1.2093 18.34239,2.23881 27.52852,3.22732 9.45567,1.0129 18.92011,1.9413 28.38747,2.83745 9.55044,0.9449 19.11986,1.67131 28.69143,2.36137 9.58839,0.6867 19.18081,1.31427 28.77425,1.92556 9.20994,0.54078 18.42597,0.97063 27.64117,1.41023 8.40843,0.40261 16.81721,0.79782 25.22608,1.19121 7.6609,0.35346 15.32215,0.69901 22.98336,1.0456 6.81425,0.3082 13.6285,0.61626 20.44275,0.92433 6.0488,0.27347 12.09761,0.54693 18.14641,0.8204 5.36913,0.24273 10.73826,0.48547 16.10739,0.72821 4.76582,0.21546 9.53164,0.43092 14.29747,0.64638 4.2303,0.19125 8.46061,0.3825 12.69092,0.57375 3.75496,0.16976 7.50993,0.33952 11.26489,0.50929 3.33303,0.15068 6.66607,0.30137 9.9991,0.45205 2.95852,0.13376 5.91703,0.26751 8.87555,0.40126 1.78526,0.0807 3.57052,0.16142 5.35578,0.24214 0,0 -9.39835,5.42613 -9.39835,5.42613 l 0,0 c -1.7715,-0.0887 -3.543,-0.17731 -5.3145,-0.26596 -2.93571,-0.14692 -5.87142,-0.29384 -8.80714,-0.44076 -3.30734,-0.16551 -6.61469,-0.33103 -9.92203,-0.49655 -3.72603,-0.18647 -7.45205,-0.37294 -11.17808,-0.55941 -4.1977,-0.21007 -8.3954,-0.42015 -12.59311,-0.63022 -4.72909,-0.23667 -9.45818,-0.47334 -14.18727,-0.71 -5.32775,-0.26663 -10.6555,-0.53326 -15.98325,-0.79989 -6.00218,-0.30038 -149.14723,-26.31505 -155.14942,-26.61543 -6.76181,-0.33839 123.61923,25.0375 116.85741,24.69915 -7.60692,-0.38059 101.92904,-9.33304 94.32198,-9.71084 -8.36233,-0.41312 -133.86702,7.73511 -142.22818,7.29895 -9.17261,-0.47871 -18.34607,-0.94376 -27.51538,-1.48286 -9.5813,-0.62646 -19.16259,-1.25498 -28.73952,-1.9456 -9.58257,-0.69305 -19.16583,-1.38683 -28.72686,-2.34091 -9.46858,-0.90309 -18.93544,-1.82494 -28.39342,-2.83403 -9.22924,-0.99113 -18.45891,-1.98428 -27.66854,-3.14647 -8.35121,-1.06392 100.4427,3.56434 92.10567,2.39433 -7.5463,-1.0914 -132.22015,-7.99482 -139.74695,-9.21314 -6.88444,-1.12921 -13.75358,-2.3485 -20.63314,-3.50686 -6.27326,-1.09714 27.44648,20.70255 21.16777,19.63716 -5.69561,-0.90976 -51.39043,-24.68393 -57.11886,-25.36811 -5.19172,-0.66543 21.03848,15.85682 15.82868,15.34968 -4.83557,-0.43962 -255.389728,-3.69812 -260.237528,-3.97749 -4.75282,-0.29776 204.778158,-14.8415 200.018028,-14.99197 -4.78594,-0.16042 -81.00344,-17.37818 -85.79151,-17.44359 -4.86638,-0.003 61.69437,17.11996 56.82945,17.25514 -4.88022,0.11753 -9.76243,0.22011 -14.63725,0.48714 -4.8693,0.25041 -9.7393,0.49992 -14.60227,0.85569 -4.79454,0.40199 -9.59037,0.79948 -14.37297,1.32826 -4.66809,0.56608 -9.33421,1.14905 -13.99199,1.79533 -4.58779,0.63963 -9.17312,1.29853 -13.74798,2.02563 -4.38261,0.70688 -8.75718,1.4622 -13.11961,2.28514 -4.25766,0.80501 -8.50935,1.64316 -12.74204,2.57162 -4.09094,0.91122 -8.17961,1.83706 -12.235064,2.89725 -3.81082,1.01247 92.390884,-9.35681 88.621644,-8.19789 -3.50726,1.06107 -107.018794,13.53648 -110.526054,14.59745 -3.21499,1.02092 -43.538687,-0.71638 -46.735387,0.35951 -2.951966,1.00812 31.234371,4.85995 28.293728,5.90091 -2.750293,0.9308 -5.488861,1.89596 -8.248126,2.80011 -2.443501,0.76267 -4.884377,1.53497 -7.340194,2.25711 -2.081404,0.61075 -4.175816,1.18389 -6.294977,1.64936 -1.654082,0.32783 -3.319771,0.59047 -5.006119,0.68128 -1.322069,0.0926 -2.643712,0.17069 -3.96979,0.11652 0,0 66.764535,-48.41221 66.764535,-48.41221 z"
       sodipodi:nodetypes="cccccccccccsccccsscccccccccsccccccssssssssscccssssssssscsccccccccccccccccccccscccccccscccc" />
  </g>
</svg>
