<?xml version="1.0" encoding="UTF-8" standalone="no"?>
<!-- Created with Inkscape (http://www.inkscape.org/) -->

<svg
   xmlns:dc="http://purl.org/dc/elements/1.1/"
   xmlns:cc="http://creativecommons.org/ns#"
   xmlns:rdf="http://www.w3.org/1999/02/22-rdf-syntax-ns#"
   xmlns:svg="http://www.w3.org/2000/svg"
   xmlns="http://www.w3.org/2000/svg"
   xmlns:sodipodi="http://sodipodi.sourceforge.net/DTD/sodipodi-0.dtd"
   xmlns:inkscape="http://www.inkscape.org/namespaces/inkscape"
   width="744.09448819"
   height="1052.3622047"
   id="svg2"
   version="1.1"
   inkscape:version="0.47 r22583"
   sodipodi:docname="New document 1">
  <defs
     id="defs4">
    <inkscape:perspective
       sodipodi:type="inkscape:persp3d"
       inkscape:vp_x="0 : 526.18109 : 1"
       inkscape:vp_y="0 : 1000 : 0"
       inkscape:vp_z="744.09448 : 526.18109 : 1"
       inkscape:persp3d-origin="372.04724 : 350.78739 : 1"
       id="perspective10" />
  </defs>
  <sodipodi:namedview
     id="base"
     pagecolor="#ffffff"
     bordercolor="#666666"
     borderopacity="1.0"
     inkscape:pageopacity="0.0"
     inkscape:pageshadow="2"
     inkscape:zoom="1.4500015"
     inkscape:cx="328.73656"
     inkscape:cy="611.72404"
     inkscape:document-units="px"
     inkscape:current-layer="layer1"
     showgrid="false"
     inkscape:window-width="1252"
     inkscape:window-height="939"
     inkscape:window-x="31"
     inkscape:window-y="0"
     inkscape:window-maximized="0" />
  <metadata
     id="metadata7">
    <rdf:RDF>
      <cc:Work
         rdf:about="">
        <dc:format>image/svg+xml</dc:format>
        <dc:type
           rdf:resource="http://purl.org/dc/dcmitype/StillImage" />
        <dc:title></dc:title>
      </cc:Work>
    </rdf:RDF>
  </metadata>
  <g
     inkscape:label="Layer 1"
     inkscape:groupmode="layer"
     id="layer1">
    <path
       style="fill:#00ffff;fill-opacity:1;fill-rule:nonzero;stroke:none"
       id="path2816"
       d="m 77.961934,518.68664 c -12.072818,0.50964 -2.424558,2.78382 0.817139,1.43234 1.529391,-0.63764 2.992001,-1.40308 4.471724,-2.15597 2.212416,-1.17335 5.098589,-3.05397 7.320131,-4.21051 3.549253,-2.38511 5.871844,-4.85543 9.084674,-7.70344 5.882768,-5.38771 11.956748,-10.54056 17.825838,-15.94344 6.79333,-5.8494 12.97443,-12.3429 18.96869,-19.06737 5.59313,-4.86414 6.92697,-9.56148 10.37742,-14.34837 2.77171,-4.06458 5.48736,-8.17731 8.36894,-12.15638 2.56877,-3.54497 5.0488,-7.19924 7.22831,-11.02672 1.39108,-1.96504 2.31249,-4.22457 3.20544,-6.47397 0.31219,-0.81515 2.67897,-2.32647 2.94126,-3.161 0,0 1.38269,-1.77005 1.38269,-1.77005 l 0,0 c -0.30764,0.84624 -0.63978,1.68236 -0.97408,2.51725 -0.92866,2.27706 -1.77832,4.63959 -3.25393,6.59173 -2.20918,3.87041 -4.85954,7.47324 -7.38808,11.11299 -2.89454,3.95468 -5.52914,8.11881 -8.30572,12.16682 -3.59696,4.74697 -6.30704,10.23164 -10.60403,14.4116 -6.05147,6.70253 -12.19112,13.27956 -19.01203,19.13938 -5.80572,5.4238 -11.86623,10.5392 -17.66567,15.97305 -3.193264,2.87887 -6.192962,6.0007 -9.577033,8.62987 -2.258417,1.12438 -4.447559,2.34502 -6.683571,3.51803 -6.49587,3.24261 -8.078616,4.26875 -16.638419,3.87569 0,0 8.110307,-1.35153 8.110307,-1.35153 z"
       sodipodi:nodetypes="csccccccscccccccccccccccc" />
    <path
       style="fill:#28170b;fill-opacity:1;fill-rule:nonzero;stroke:none"
       id="path2818"
       d="m 91.768388,420.72357 c 0.830967,0.0383 1.694831,0.0785 2.552604,0.0863 0.362579,0.003 1.451204,-0.005 1.088335,-0.007 -4.326883,-0.021 -6.336681,0.0146 -3.381864,-0.0277 2.529385,-0.0452 5.066216,-0.0664 7.605131,-0.0775 3.010416,-0.009 6.021336,-0.009 9.032056,-0.009 5.06795,-5.7e-4 10.1359,3.8e-4 15.20385,10e-4 4.60784,0.0143 9.20355,0.0992 13.80851,0.14079 5.06352,0.0397 10.132,0.0451 15.19903,0.0489 2.58773,7.6e-4 1.37443,7.6e-4 3.73001,3.8e-4 0.51102,-8e-5 2.04408,-1e-4 1.53306,-1.9e-4 -8.61235,-0.002 -4.23246,-7.7e-4 -2.31196,-10e-4 2.81795,-3.8e-4 5.6359,5.7e-4 8.45385,3.8e-4 4.91694,-0.009 9.83036,0.008 14.74639,0.0265 0.57006,0.0108 1.1397,0.0225 1.71019,0.0324 2.19193,0.0382 4.38724,0.0643 6.58635,0.0818 0.86371,0.007 3.45174,3.9e-4 2.5918,0.0173 -0.9753,0.0191 -1.96053,-0.007 -2.9408,-0.0105 5.22062,-0.0317 10.44457,-0.11194 15.6,-0.27312 5.93176,-0.20744 11.88979,-0.38693 17.8566,-0.55337 6.9228,-0.16127 13.85606,-0.30603 20.76501,-0.48809 4.81309,-0.15274 9.6912,-0.20894 14.50107,-0.3627 2.82602,-0.11679 5.70235,-0.14354 8.58236,-0.15817 5.33871,0.0342 10.61924,-0.1198 15.90885,-0.23189 5.04548,-0.0822 10.09491,-0.15493 15.14388,-0.23058 4.6846,-0.0694 9.3818,-0.0946 14.0785,-0.10805 7.1078,-0.009 14.22072,-0.022 21.32072,0.0519 6.67933,0.0759 13.36864,0.10511 20.05799,0.12252 6.84864,0.0136 13.69775,0.013 20.54667,0.0129 -0.77222,-1.5e-4 -3.08888,5.8e-4 -2.31667,-3.8e-4 4.92989,-0.006 9.81395,-0.0301 14.73706,-0.0838 6.46021,-0.063 12.92484,-0.0828 19.38416,-0.15008 7.42516,-0.0731 14.83764,-0.18966 22.24142,-0.31859 6.98021,-0.12475 13.98826,-0.16724 20.99452,-0.19109 7.80248,-0.019 15.60595,-0.0159 23.40888,-0.016 1.57558,3.8e-4 3.15115,3.8e-4 4.72673,7.6e-4 0.78742,1.4e-4 3.14286,0.0202 2.36225,3.9e-4 -1.03122,-0.0261 -2.23104,0.0838 -3.11897,-0.0196 -0.76806,-0.0895 1.79654,-0.0199 2.69482,-0.0298 0.94571,-0.0105 1.89142,-0.0209 2.83714,-0.0314 5.62629,-0.0622 11.26143,-0.0841 16.89559,-0.0998 5.02735,-0.0142 10.05559,-0.01 15.08327,-0.01 -1.37106,-0.006 -2.7497,0.01 -4.11317,-0.0182 -0.59729,-0.0123 1.1969,-0.0201 1.79558,-0.0297 3.00894,-0.048 6.01873,-0.0785 9.03536,-0.10195 4.60659,-0.073 9.2112,-0.14469 13.82802,-0.18931 2.42385,0.0153 4.77275,-0.0632 7.14041,-0.14393 2.32012,-0.0703 4.67574,-0.0723 7.01874,-0.0794 4.22366,-0.007 8.4476,-0.005 12.67136,-0.004 2.54049,10e-4 5.08098,0.002 7.62147,9.5e-4 1.55395,0.0318 2.4646,0.15827 0.77999,0.37404 0,0 -5.8028,-0.13024 -5.8028,-0.13024 l 0,0 c 1.77131,-0.0491 -0.0501,-0.0341 -0.70985,-0.0705 -2.54239,-0.001 -5.08478,-9.6e-4 -7.62718,-9.6e-4 -2.7721,-7.6e-4 -0.43335,-1e-5 3.67696,-3.8e-4 0.36471,-4e-5 -0.72942,-1.8e-4 -1.09413,-1.9e-4 -1.27067,-8e-5 -2.54136,7e-5 -3.81199,0.002 -2.32183,0.005 -4.65359,0.006 -6.95951,0.0641 -2.42353,0.0721 -4.80031,0.18521 -7.28483,0.15295 -4.62949,0.04 -9.24826,0.10636 -13.86219,0.18924 -6.0037,0.0435 -11.97142,0.17207 -17.98652,0.15709 10.50919,3e-5 -1.9696,-0.002 -3.82653,0.005 -5.64853,0.012 -11.29819,0.0319 -16.93886,0.0936 -6.86166,0.0771 -13.72796,0.103 -20.60169,0.0871 1.03942,-1.9e-4 2.07892,0.002 3.11826,-5.7e-4 0.88941,-0.002 -1.77898,-3.8e-4 -2.66847,-3.8e-4 -4.27682,-1.9e-4 -8.55375,0.002 -12.83029,0.0119 -7.01302,0.0221 -14.02878,0.06 -21.01686,0.18262 -7.40017,0.1281 -14.80718,0.24774 -22.22783,0.32273 -6.43606,0.0693 -12.87568,0.0935 -19.3143,0.15193 -7.79763,0.0854 -15.58641,0.12455 -23.40156,0.0887 -6.84684,-5.7e-4 -13.69393,1.9e-4 -20.54043,-0.0145 -6.7026,-0.0183 -13.40426,-0.0507 -20.09707,-0.12552 -9.00288,-0.0879 -0.0641,0.0178 -0.5777,-0.0506 -0.73581,-0.098 -1.79435,3.8e-4 -2.69152,5.7e-4 -2.31609,5.7e-4 -4.6322,0.002 -6.94819,0.006 -4.71422,0.0111 -9.42955,0.0325 -14.13259,0.0995 -5.05128,0.0744 -10.09813,0.1544 -15.14959,0.22702 -5.26155,0.10831 -10.5075,0.27526 -15.8158,0.24375 -2.86322,0.0129 -5.73052,0.031 -8.54456,0.14363 -4.88047,0.15697 -9.82956,0.20839 -14.71708,0.35988 -6.89979,0.18468 -13.82656,0.32904 -20.74349,0.48804 -5.94396,0.16366 -11.87582,0.34524 -17.7823,0.5526 -5.14637,0.17661 -10.38626,0.24786 -15.60731,0.28926 -6.40588,0.007 -12.81018,0.0177 -19.18529,-0.12358 10.23536,-0.0446 -1.46026,-0.005 -3.39986,-0.0186 -2.7921,5e-5 -5.58419,0.001 -8.37628,0.002 -4.76036,3.8e-4 -9.52076,0.001 -14.28106,-0.004 -5.05927,-0.006 -10.12012,-0.013 -15.17552,-0.0543 -4.63068,-0.044 -9.25469,-0.12945 -13.89186,-0.13302 -1.88082,6e-5 -14.24675,-2e-5 -3.8704,-1.8e-4 -3.00486,-1.4e-4 -6.00989,-5.7e-4 -9.01453,0.007 -2.53155,0.009 -5.06277,0.026 -7.584766,0.0716 -3.916183,0.0637 -7.957373,0.1162 -11.799688,-0.0673 0,0 5.820902,-0.14819 5.820902,-0.14819 z" />
    <path
       style="fill:#28170b;fill-opacity:1;fill-rule:nonzero;stroke:none"
       id="path2820"
       d="m 547.70633,421.46625 c -0.52962,3.90437 -0.26598,8.10981 -0.11446,12.14655 0.38455,6.34926 1.03354,12.53116 1.55707,18.7921 0.43882,5.51692 0.89236,10.9832 1.12269,16.61327 0.16321,4.88842 0.20597,9.80047 0.23296,14.70806 0.008,3.31669 0.009,6.63352 0.004,9.95025 -0.002,3.23232 -0.005,6.46461 -0.006,9.69694 -0.001,3.28858 -0.006,6.57733 0.006,9.8658 0.004,2.3765 0.007,4.7532 0.004,7.12973 -0.005,2.56607 6.9e-4,5.13216 -0.002,7.69823 7e-4,1.92989 0.005,3.85986 0.0131,5.78963 -0.004,1.44952 -6.9e-4,2.89906 -3.4e-4,4.34863 0.005,1.26432 3.4e-4,2.52865 -2.8e-4,3.79308 0.0136,1.07484 0.0347,2.09437 -0.14836,3.05913 -0.17716,0.80449 -0.16613,1.78385 -0.18224,2.70311 -0.008,0.76865 -0.011,1.53827 -0.002,2.30699 0.0357,1.99842 0.33769,0.19216 -2.04121,-0.0381 0.003,-0.4842 0.001,-0.22162 0.005,-0.78774 0,0 2.03264,3.4e-4 2.03264,3.4e-4 l 0,0 c 0.003,0.56708 0.002,0.30391 0.004,0.78951 -1.96655,0.28009 -2.06217,2.23647 -2.04524,0.0383 0.007,-0.77863 0.0152,-1.55711 0.0248,-2.33548 0.0137,-1.02073 -0.001,-2.09047 0.16931,-3.01601 0.21889,-0.80339 0.15988,-1.74825 0.16131,-2.72013 -7e-4,-1.26443 -0.005,-2.52876 -2.9e-4,-3.79308 3.3e-4,-1.44957 0.003,-2.89911 -3.4e-4,-4.34863 0.008,-1.92977 0.0123,-3.85974 0.0131,-5.78963 -0.002,-2.56606 0.003,-5.13216 -0.002,-7.69822 -0.003,-2.37653 -3.5e-4,-4.75323 0.004,-7.12972 0.0116,-3.28854 0.007,-6.57735 0.006,-9.86601 -2.9e-4,-3.23275 -0.002,-6.46552 0.002,-9.69825 0.001,-3.31462 0.0147,-6.62904 0.0117,-9.94369 -0.003,-4.88654 -0.0274,-9.78073 -0.19758,-14.64667 -0.23328,-5.60341 -0.68826,-11.04804 -1.1116,-16.5494 -0.51228,-6.29268 -1.16438,-12.49228 -1.56114,-18.85832 -0.1748,-4.12903 -0.44409,-8.37524 0.0194,-12.43337 0,0 2.02372,0.22272 2.02372,0.22272 z" />
    <path
       style="fill:#483737;fill-opacity:1;fill-rule:nonzero;stroke:none"
       id="path2957"
       d="m 174.16792,534.35372 c -0.26176,0.10111 2.58246,0.18545 1.93882,0.11556 -0.86055,-0.0934 -1.83725,0.25883 -2.59151,-0.16587 -0.46942,-0.26431 1.0516,-0.24221 1.56232,-0.41363 1.42974,-0.47988 1.92402,-0.81352 3.26407,-1.52301 3.98795,-2.42162 7.11221,-5.92633 10.05983,-9.48328 2.97995,-3.68782 5.65128,-7.60762 8.21599,-11.59122 2.23549,-3.36085 4.36528,-6.78773 6.46049,-10.23695 2.07032,-3.5825 4.0898,-7.19359 6.21764,-10.74262 2.26672,-4.08958 4.24835,-8.32919 6.34908,-12.50545 1.89074,-3.53749 3.62336,-7.13038 5.16872,-10.83083 1.15167,-2.99748 2.71083,-5.80809 4.01891,-8.73517 1.02614,-2.17007 1.77844,-4.44396 2.85933,-6.58699 1.04002,-2.07324 2.03655,-4.16705 2.97824,-6.28665 0.69259,-1.74017 1.78083,-3.26436 2.66373,-4.90491 0.80843,-1.50922 1.58505,-3.03723 2.32391,-4.58192 0.70591,-1.21843 1.64636,-2.26866 2.43314,-3.43307 0.27052,-0.35684 0.43501,-0.76255 0.52864,-1.19635 0,0 4.11932,0.089 4.11932,0.089 l 0,0 c -0.10707,0.48145 -0.25882,0.96042 -0.56877,1.35311 -0.79694,1.14299 -1.70652,2.19642 -2.46098,3.36762 -0.73749,1.55354 -1.53026,3.08205 -2.33886,4.59939 -0.8669,1.64359 -1.95943,3.15375 -2.67425,4.8766 -0.95543,2.12179 -1.95577,4.22333 -2.99595,6.30506 -1.08488,2.13846 -1.83101,4.40937 -2.87964,6.56714 -1.31323,2.9274 -2.89988,5.72693 -4.0604,8.72414 -1.56507,3.7075 -3.29612,7.31695 -5.21505,10.85614 -2.11269,4.17983 -4.11663,8.41579 -6.34834,12.53363 -2.11782,3.55034 -4.12521,7.16376 -6.1864,10.74675 -2.09475,3.45915 -4.24155,6.88536 -6.4926,10.24566 -2.57366,3.99933 -5.26783,7.92429 -8.24686,11.6352 -2.94437,3.5864 -6.05768,7.12293 -10.00589,9.63882 -4.25161,2.36321 -4.63775,2.17035 -10.12713,2.29602 -1.01855,0.0233 -1.13404,-0.0497 -2.03252,-0.24598 0,0 4.06297,-0.4859 4.06297,-0.4859 z" />
    <path
       style="fill:#483737;fill-opacity:1;fill-rule:nonzero;stroke:none"
       id="path2959"
       d="m 171.48813,424.79867 c 1.89524,0.91052 3.81801,1.74819 5.82747,2.37353 1.86918,0.72558 3.8565,1.05203 5.69765,1.84613 2.60696,1.10902 5.29742,1.95757 8.04078,2.65287 3.23393,1.06737 6.54117,1.91074 9.89277,2.51008 3.08553,0.4404 6.16428,0.9008 9.27314,1.14147 2.83792,0.0756 5.65648,0.41067 8.48638,0.61556 3.08097,0.42973 6.17779,0.68301 9.28417,0.82046 2.76439,0.10169 5.5308,0.11991 8.29675,0.124 2.31866,-0.003 -0.009,5.3e-4 -2.32406,-0.003 -0.20475,-2.8e-4 0.4095,-0.001 0.61425,-0.002 0.40899,-0.002 0.81799,-0.004 1.22698,-0.005 0.44519,-0.001 0.89037,-0.002 1.33555,-0.005 0.0416,-1e-4 0.0832,-5.7e-4 0.12487,-8.6e-4 0,0 4.08462,0.64676 4.08462,0.64676 l 0,0 c -0.0442,-2.2e-4 -0.0883,-6.8e-4 -0.13248,-6.5e-4 -0.45364,-0.001 -0.90728,-0.001 -1.36091,4e-5 -2.51505,0.003 -5.03012,0.006 -7.54516,-0.002 -2.74675,-0.0122 -5.49382,-0.04 -8.23869,-0.15046 -3.1143,-0.14885 -6.21469,-0.43445 -9.30791,-0.8281 -2.83189,-0.21478 -5.65613,-0.5194 -8.49575,-0.61704 -3.09945,-0.26431 -6.17208,-0.73144 -9.24849,-1.18546 -3.34966,-0.63137 -6.64878,-1.49904 -9.8955,-2.53784 -2.76442,-0.7225 -5.48077,-1.58711 -8.11645,-2.69763 -1.86019,-0.71256 -3.81944,-1.10767 -5.6826,-1.81723 -2.02091,-0.66967 -3.96565,-1.52671 -5.89302,-2.42806 0,0 4.05564,-0.45087 4.05564,-0.45087 z" />
    <path
       style="fill:#483737;fill-opacity:1;fill-rule:nonzero;stroke:none"
       id="path2961"
       d="m 81.75422,520.56063 c 1.916976,0.82922 3.811667,1.7035 5.766346,2.45616 3.309931,1.03755 6.669928,1.89325 10.038384,2.7151 4.24129,1.06769 8.36393,2.56789 12.47817,4.04179 3.84655,1.44893 7.86216,2.25995 11.85404,3.16802 4.19323,1.02221 8.43698,1.77634 12.69812,2.44825 3.43398,0.44588 6.88343,0.78285 10.30782,1.30089 2.95448,0.53 5.96134,0.57303 8.93612,0.90431 2.54687,0.30162 5.09994,0.47823 7.6423,0.81487 2.37611,0.23156 4.73924,0.53795 7.10798,0.83435 1.93763,0.24483 3.88935,0.32972 5.84021,0.37627 0.60022,0.0113 1.20053,0.0154 1.80084,0.0158 0.14543,9e-5 0.58169,-3.8e-4 0.43627,-4.5e-4 -3.62979,-0.002 -4.92156,0.004 -3.40246,-0.002 0.18941,-8.8e-4 0.37884,-0.003 0.56823,-0.004 0.0109,-0.008 0.008,0.008 0.01,0.009 0,0 4.09094,0.61995 4.09094,0.61995 l 0,0 c -0.005,0.003 -0.002,0.0161 -0.0143,0.01 -0.19869,0.005 -0.39749,0.006 -0.59626,0.006 -2.30086,0.006 -4.60246,0.023 -6.90295,-0.0307 -1.93924,-0.0621 -3.8785,-0.16547 -5.80323,-0.42207 -2.36553,-0.30561 -4.7321,-0.57359 -7.10244,-0.83668 -2.53807,-0.32881 -5.09008,-0.49424 -7.63039,-0.80644 -2.97343,-0.29609 -5.96751,-0.40801 -8.91752,-0.92374 -3.41272,-0.49148 -6.84258,-0.85396 -10.25954,-1.31249 -4.25273,-0.68785 -8.48814,-1.45434 -12.67547,-2.47603 -4.00756,-0.88673 -8.01991,-1.74825 -11.8696,-3.21453 -4.11496,-1.4732 -8.241819,-2.96053 -12.492032,-3.99856 -3.396678,-0.82688 -6.791163,-1.67909 -10.118721,-2.75641 -1.977022,-0.76299 -3.882516,-1.67921 -5.853325,-2.45084 0,0 4.062968,-0.4859 4.062968,-0.4859 z" />
    <path
       style="fill:#483737;fill-opacity:1;fill-rule:nonzero;stroke:none"
       id="path2963"
       d="m 127.05425,512.92219 c 1.25095,-0.22742 2.51104,-0.5809 3.67432,-1.10295 0.82237,-0.33191 1.2538,-0.92948 1.68095,-1.66992 0.46648,-0.97145 1.18764,-1.7779 1.77242,-2.67173 0.52439,-0.69902 1.182,-1.28091 1.81383,-1.87941 0.83084,-0.72323 1.44761,-1.64287 2.13753,-2.49395 0.7218,-0.98989 1.464,-1.97479 2.31321,-2.85997 0.81565,-1.00024 1.93011,-1.68243 2.89419,-2.52513 0.98964,-0.99933 1.80406,-2.14473 2.69676,-3.22637 0.98493,-1.19829 2.11969,-2.26157 3.11771,-3.44671 0.74817,-1.02104 1.71282,-1.85289 2.64879,-2.69527 0.73851,-0.72887 1.31247,-1.56428 1.82525,-2.4624 0.82401,-1.39795 1.78702,-2.67036 2.81696,-3.91992 0.72362,-0.87051 1.5021,-1.69213 2.29151,-2.50255 0.73369,-0.76891 1.46381,-1.54237 2.16074,-2.34608 0.73195,-1.06404 1.52837,-2.07831 2.30779,-3.10753 0.83159,-1.04774 1.94436,-1.8152 2.79067,-2.84149 0.95572,-1.0358 1.62446,-2.27888 2.46518,-3.39928 0.44259,-0.75839 1.05908,-1.35318 1.71962,-1.9132 0.78592,-0.45038 1.28527,-1.18815 1.88384,-1.83659 0.40673,-0.41837 0.65992,-0.95855 0.98027,-1.44467 0.27881,-0.41959 0.62568,-0.79079 0.97425,-1.15299 0.42202,-0.31567 0.57255,-0.79302 0.81934,-1.23042 0.18754,-0.30332 0.39203,-0.59605 0.60955,-0.87858 0.0257,-0.031 0.0501,-0.0636 0.0748,-0.0952 0,0 0.68703,0.0593 0.68703,0.0593 l 0,0 c -0.0217,0.0236 -0.0591,0.0495 -0.075,0.0814 -0.21988,0.27794 -0.42379,0.56853 -0.61237,0.86856 -0.25393,0.43797 -0.3912,0.931 -0.82033,1.24731 -0.34648,0.35957 -0.69416,0.72536 -0.97351,1.14056 -0.32433,0.48797 -0.57738,1.03285 -0.98261,1.45576 -0.60413,0.64607 -1.09424,1.39752 -1.88615,1.84438 -0.65496,0.56069 -1.2831,1.13665 -1.71982,1.89826 -0.84801,1.11682 -1.51281,2.36405 -2.46858,3.40164 -0.83618,1.03437 -1.95295,1.79591 -2.78866,2.83913 -0.77991,1.03065 -1.58159,2.04252 -2.30861,3.11176 -0.69193,0.8089 -1.42714,1.57838 -2.1581,2.35053 -0.79067,0.80825 -1.56952,1.62867 -2.29503,2.49666 -1.03171,1.245 -1.99438,2.51174 -2.81654,3.9081 -0.51115,0.90654 -1.08261,1.74868 -1.82278,2.48456 -0.93674,0.83908 -1.90535,1.66556 -2.65261,2.68533 -0.99259,1.1895 -2.13368,2.24702 -3.11739,3.44621 -0.89427,1.08424 -1.71165,2.23033 -2.69725,3.23713 -0.95687,0.84851 -2.07778,1.5195 -2.89057,2.51996 -0.8554,0.87726 -1.59421,1.86554 -2.31516,2.85388 -0.69121,0.85234 -1.30393,1.77687 -2.1339,2.50321 -0.62965,0.59505 -1.28318,1.17464 -1.81374,1.86326 -0.57939,0.89607 -1.30973,1.69541 -1.77313,2.66787 -0.42877,0.75222 -0.85017,1.37098 -1.68402,1.71216 -1.15831,0.53623 -2.42782,0.88077 -3.67634,1.12072 0,0 -0.67428,-0.0954 -0.67428,-0.0954 z" />
    <path
       style="fill:#483737;fill-opacity:1;fill-rule:nonzero;stroke:none"
       id="path2965"
       d="m 154.46272,460.16488 c 0.69204,0.59895 1.39972,1.04816 2.31348,1.15569 1.07108,0.005 -0.58177,0.0761 0.15194,-0.0242 -0.009,0.17871 -0.058,-0.0151 0.0555,-0.027 0.28625,-0.03 0.57563,9.1e-4 0.86344,0.001 0.14007,8.2e-4 0.28013,0.002 0.42019,0.004 0.34992,-0.0699 0.41349,0.15407 0.65892,0.3353 0.28875,0.22776 0.60674,0.29295 0.96183,0.33601 0.33024,-0.0224 0.50826,0.15527 0.74991,0.3588 0.24717,0.2818 0.39752,0.30193 0.76642,0.3301 0.3001,0.0679 0.73171,-0.0999 0.95832,0.12788 0.10054,0.17591 0.10226,0.36798 0.0813,0.56228 0.17512,-0.01 0.35451,0.019 0.53233,0.0239 -0.79352,-0.002 -0.0982,-0.006 0.26335,-0.006 0.55775,-3.1e-4 1.11551,5.5e-4 1.67326,6.8e-4 0.33003,-0.0131 0.5452,-0.0498 0.75781,0.22653 0.16057,0.28501 0.40739,0.49047 0.60703,0.76292 0.14098,0.28264 0.38876,0.32811 0.67884,0.37848 0.0798,0.0145 0.16036,0.0174 0.24104,0.0191 0,0 -0.68091,0.10583 -0.68091,0.10583 l 0,0 c -0.0808,-0.007 -0.16157,-0.014 -0.2412,-0.0302 -0.29589,-0.0618 -0.53714,-0.14566 -0.68285,-0.42962 -0.19657,-0.26506 -0.44652,-0.47511 -0.60741,-0.75905 -0.20666,-0.23075 -0.46302,-0.16592 -0.75148,-0.16645 -0.2486,-2.4e-4 -1.3603,-9.7e-4 -0.31595,-8.4e-4 -0.54064,1.5e-4 -1.0813,0.007 -1.62192,0.005 -0.18551,-0.01 -0.40917,0.008 -0.54069,-0.14038 0.0209,-0.17028 0.026,-0.34225 -0.0773,-0.49026 -0.26976,-0.15889 -0.65304,-0.01 -0.95146,-0.0879 -0.3565,-0.0343 -0.53327,-0.11143 -0.77252,-0.37138 -0.23768,-0.19563 -0.42936,-0.33158 -0.74563,-0.32029 -0.35843,-0.0502 -0.67876,-0.14009 -0.96587,-0.37303 -0.23102,-0.19702 -0.32616,-0.34206 -0.65626,-0.29001 -0.13908,-0.002 -0.27817,-0.003 -0.41727,-0.004 0.16484,-2.9e-4 0.33425,0.0377 0.49451,-8.8e-4 0.004,-8.7e-4 -0.15116,-0.22304 -0.0526,0.0122 -0.49368,0.10489 -1.01071,0.0531 -1.51202,0.0299 -0.91124,-0.12746 -1.61915,-0.60172 -2.31582,-1.19089 0,0 0.6796,-0.0632 0.6796,-0.0632 z" />
    <path
       style="fill:#483737;fill-opacity:1;fill-rule:nonzero;stroke:none"
       id="path2967"
       d="m 146.9578,466.28039 c 0.98374,0.43864 2.03424,0.70702 2.96103,1.26067 0.43125,0.22865 0.87466,0.43603 1.33207,0.60697 0.10819,0.0294 0.16767,0.0495 0.26693,0.10473 0.28709,0.24447 0.65291,0.38598 0.99832,0.53183 0.25449,0.0947 0.65234,-0.0401 0.80937,0.19202 0.0823,0.30226 0.13861,0.40218 0.43822,0.51062 0.11328,0.0407 0.23077,0.0596 0.34956,0.0703 -1.27456,-0.0283 0.58171,-0.0186 0.92461,0.20816 0.32291,0.28183 0.74198,0.37709 1.15468,0.43475 0.3561,0.0469 0.71593,0.0446 1.07439,0.0446 -1.10275,3.9e-4 -0.0703,-0.004 0.19239,-0.005 0.54611,-0.08 0.97995,-0.0246 1.4521,0.21173 0.35149,0.21874 0.71142,0.36909 1.01133,0.65521 0.30154,0.20119 0.63081,0.35738 0.9694,0.4851 0.14068,0.0472 0.14342,3.8e-4 0.14664,0.16584 -0.006,0.24485 0.30049,0.38436 0.4933,0.48985 0.0215,0.0106 0.0431,0.0212 0.0646,0.0318 0,0 -0.68427,0.0753 -0.68427,0.0753 l 0,0 c -0.0215,-0.0116 -0.043,-0.0231 -0.0645,-0.0347 -0.21197,-0.12469 -0.50743,-0.28539 -0.49743,-0.56259 -0.0265,-0.0197 -0.0618,-0.0917 -0.14146,-0.0831 -0.33983,-0.13584 -0.67337,-0.29461 -0.96991,-0.51123 -0.29889,-0.27127 -0.66661,-0.42299 -1.00855,-0.63492 -0.15223,-0.0713 -0.63282,-0.13662 -0.47069,-0.181 0.55973,-0.15322 0.63983,0.0188 0.37928,2.1e-4 -0.517,0.001 -1.03398,0.006 -1.55098,0.005 -0.35871,-0.002 -0.71879,-0.002 -1.0745,-0.0547 -0.41845,-0.0662 -0.82716,-0.18432 -1.15831,-0.46293 -0.34626,-0.20723 -0.18182,-0.0574 0.29588,-0.17667 0.11028,-0.0275 -0.93216,0.0264 -1.21963,0.002 -0.11902,-0.0213 -0.23751,-0.0459 -0.35047,-0.0908 -0.28223,-0.12008 -0.35159,-0.26529 -0.44166,-0.54375 -0.20612,-0.1682 -0.56917,-0.0251 -0.8061,-0.16089 -0.34584,-0.15003 -0.69751,-0.30285 -0.99836,-0.53344 -0.0906,-0.0321 -0.17603,-0.0686 -0.26708,-0.10038 -0.45524,-0.17778 -0.89885,-0.38536 -1.32808,-0.61906 -0.92874,-0.5434 -1.97873,-0.81308 -2.95928,-1.25034 0,0 0.67716,-0.081 0.67716,-0.081 z" />
    <path
       style="fill:#483737;fill-opacity:1;fill-rule:nonzero;stroke:none"
       id="path2969"
       d="m 139.29027,481.63153 c 0.86278,0.74365 1.76896,1.4353 2.68381,2.11323 0.31638,0.16772 0.66195,0.28719 1.021,0.30968 0.0862,0.18252 0.21134,0.35865 0.42873,0.50533 0.10809,0.0727 0.22534,0.12701 0.34594,0.17382 -0.0997,-0.0104 -0.81004,-0.009 -0.23475,-0.0165 0.10286,0.24389 1.15596,-0.22818 0.973,0.11347 0,0 -0.68086,-0.10721 -0.68086,-0.10721 l 0,0 c 0.14467,0.269 -0.61101,0.0139 0.38711,0.10076 -0.36739,0.001 -0.79761,0.0826 -1.12868,-0.007 -0.11948,-0.056 -0.23742,-0.11541 -0.34579,-0.19164 -0.18792,-0.13658 -0.30669,-0.33269 -0.42551,-0.46961 -0.36109,-0.0425 -0.70815,-0.16264 -1.02141,-0.34767 -0.91264,-0.68358 -1.81896,-1.37763 -2.68208,-2.12333 0,0 0.67949,-0.0535 0.67949,-0.0535 z" />
    <path
       style="fill:#483737;fill-opacity:1;fill-rule:nonzero;stroke:none"
       id="path2971"
       d="m 125.49724,490.50968 c 0.75923,0.55177 1.45692,1.18782 2.31459,1.58166 0.25125,0.10322 0.50825,0.20038 0.77851,0.23563 0.0963,0.22422 0.34043,0.50762 0.53574,0.71073 0.34513,0.33947 0.82567,0.48965 1.28375,0.61418 0.44594,0.145 0.76309,0.42619 1.23846,0.55334 0.52069,0.30965 1.10522,0.50006 1.60675,0.83982 0.35435,0.32612 0.77352,0.5098 1.22729,0.65094 0.3161,0.0896 0.63234,0.009 0.92382,0.16548 0.38684,0.27169 0.80987,0.3862 1.13959,0.73306 0.27962,0.21087 0.58904,0.37942 0.91094,0.51602 0.23939,0.0561 0.47086,-0.0294 0.66664,0.13454 0.12627,0.16435 0.16285,0.35728 0.17171,0.55787 0.002,0.0379 -0.01,0.0736 -0.0169,0.11014 0,0 -0.68724,-0.0571 -0.68724,-0.0571 l 0,0 c 0.005,-0.0177 0.0172,-0.0347 0.0153,-0.053 -0.007,-0.17981 -0.0384,-0.35388 -0.1668,-0.49128 -0.20963,-0.10986 -0.4468,-0.0296 -0.66626,-0.12165 -0.32282,-0.14565 -0.63623,-0.31741 -0.91112,-0.54254 -0.32834,-0.32682 -0.76037,-0.446 -1.13765,-0.70814 -0.298,-0.11533 -0.61854,-0.0538 -0.92337,-0.15705 -0.4529,-0.14945 -0.86714,-0.35058 -1.22739,-0.66966 -0.50649,-0.32282 -1.07565,-0.53366 -1.60379,-0.81878 -0.46364,-0.1339 -0.78648,-0.43459 -1.24128,-0.55318 -0.46344,-0.13482 -0.94205,-0.29749 -1.28553,-0.65159 -0.18729,-0.20622 -0.3697,-0.45885 -0.53447,-0.6631 -0.26784,-0.0552 -0.5261,-0.14679 -0.77619,-0.25739 -0.85266,-0.40751 -1.55052,-1.04793 -2.31471,-1.59575 0,0 0.67961,-0.0632 0.67961,-0.0632 z" />
    <path
       style="fill:#483737;fill-opacity:1;fill-rule:nonzero;stroke:none"
       id="path2973"
       d="m 120.75093,500.07345 c 1.03398,0.52623 2.19313,0.71589 3.25923,1.1414 0.82671,0.30208 1.515,0.85431 2.1891,1.40054 0.50554,0.38564 0.98885,0.7997 1.47107,1.21389 0.20045,0.18416 0.50418,0.19954 0.76639,0.21434 0.18432,0.26485 0.40614,0.70011 0.61417,1.02624 0.14825,0.25493 0.47719,0.30639 0.75001,0.34558 0.22511,-0.0121 0.35907,0.16597 0.51341,0.31118 0.29597,0.30151 0.53449,0.61883 0.93146,0.77731 0.43825,0.14133 0.89134,0.23429 1.34846,0.28733 0.0492,0.008 0.0988,0.007 0.14832,0.008 0,0 -0.68104,0.10552 -0.68104,0.10552 l 0,0 c -0.0494,-0.004 -0.0988,-0.008 -0.14787,-0.0147 -0.45729,-0.0606 -0.91168,-0.15438 -1.34752,-0.30766 -0.3852,-0.18603 -0.63858,-0.4968 -0.93624,-0.79963 -0.1549,-0.14093 -0.29239,-0.27155 -0.51014,-0.27113 -0.28748,-0.0528 -0.60271,-0.12885 -0.75398,-0.40342 -0.1945,-0.30881 -0.38293,-0.73704 -0.6094,-0.96228 -0.27214,-0.0242 -0.5658,-0.0588 -0.76982,-0.25812 -0.48006,-0.41487 -0.96368,-0.82632 -1.46744,-1.21233 -0.66794,-0.54722 -1.36413,-1.08033 -2.18529,-1.37957 -1.07342,-0.40994 -2.2212,-0.62717 -3.26004,-1.14187 0,0 0.67716,-0.081 0.67716,-0.081 z" />
    <path
       style="fill:#808000;fill-opacity:1;fill-rule:nonzero;stroke:none"
       id="path2977"
       d="m 166.88656,452.08372 c 1.03607,-0.87055 2.03175,-1.75771 2.9313,-2.77106 0.53577,-0.47075 1.00942,-1.00757 1.43275,-1.58045 0.22162,-0.21362 0.53645,-0.20073 0.79524,-0.32941 0.33428,-0.28202 0.71999,-0.44145 1.14418,-0.53112 0.44097,0.001 0.64172,-0.10457 0.95309,-0.37349 0.49137,-0.27762 0.84748,-0.7132 1.28596,-1.04896 0.45208,-0.35733 1.0219,-0.48808 1.51776,-0.74988 0.35441,-0.29628 0.80561,-0.42303 1.19414,-0.65998 0.41312,-0.28598 0.82074,-0.54454 1.17199,-0.9087 0.35581,-0.29928 0.77484,-0.39969 1.22363,-0.45598 0.4071,0.0177 0.69482,-0.14927 0.98534,-0.41648 0.35252,-0.23331 0.76399,-0.26112 1.17348,-0.28364 1.06408,-0.025 2.12886,-0.0152 3.19318,-0.0135 1.25665,0.003 2.5133,0.003 3.76994,0.004 1.56436,5.8e-4 3.12872,5.5e-4 4.69308,3.2e-4 0.96695,-1.5e-4 2.13319,-8e-5 3.18081,-6e-5 1.20488,-9e-5 2.40977,5e-5 3.61465,-2.1e-4 1.16967,-2.1e-4 2.33934,9e-5 3.50901,-9e-5 0.73979,1e-4 1.47959,-2.3e-4 2.21938,-1.8e-4 0.10096,-2e-5 2.30708,2e-5 1.51295,2e-4 0.98219,-0.0198 1.9547,-0.041 2.87967,0.32476 0.68721,0.26061 1.41214,0.30886 2.13814,0.34376 0.84377,0.0449 1.73996,0.25915 2.5071,0.6223 0.89059,0.45294 1.87985,0.61139 2.82661,0.9066 0.78666,0.24181 1.58388,0.42755 2.40032,0.52804 0.40994,-0.0131 0.69524,0.23001 0.99658,0.47805 0.29046,0.13088 0.60038,0.22056 0.91862,0.239 0.2168,0.008 0.11095,0.005 0.31752,0.009 0.81504,0.002 -0.62565,0.002 -0.0223,-2.1e-4 0.59514,-0.0443 1.03846,0.0745 1.15341,0.62675 0.0143,0.0553 -0.001,0.10309 -0.0139,0.15518 0,0 -0.68586,-0.0715 -0.68586,-0.0715 l 0,0 c 0.004,-0.023 0.0181,-0.0467 0.0114,-0.0691 -0.14412,-0.49062 -0.39043,-0.28795 0.35022,-0.53504 0.0433,-0.0144 -0.0913,5.5e-4 -0.13691,8.3e-4 -0.55086,0.003 -1.10258,0.0137 -1.65296,-0.0144 -0.32176,-0.0344 -0.63943,-0.12169 -0.92344,-0.28001 -0.30041,-0.24208 -0.58788,-0.44905 -0.99032,-0.44029 -0.81511,-0.10646 -1.61091,-0.29894 -2.39678,-0.54056 -0.94915,-0.29304 -1.94049,-0.45534 -2.83058,-0.91494 -0.77707,-0.34367 -1.65518,-0.56363 -2.50304,-0.59672 -0.7291,-0.038 -1.45572,-0.0967 -2.14316,-0.36535 -0.20712,-0.0802 -0.65414,-0.005 -0.62695,-0.22568 0.0148,-0.11965 0.40934,0.033 0.35399,-0.0741 -0.0714,-0.13813 -1.09826,0.0819 -1.25413,-10e-5 -0.95404,5e-5 -1.90808,2.1e-4 -2.86212,2.1e-4 -0.73904,4e-5 -1.47807,-2.8e-4 -2.2171,-1.9e-4 -1.1085,-1.7e-4 -1.23104,9e-5 -2.16294,-8e-5 -1.20573,-2.6e-4 -2.41146,-1.2e-4 -3.61718,-1.9e-4 -1.50676,3e-5 -3.01352,9e-5 -4.52028,-1e-5 -1.56404,-2.6e-4 -3.12809,-3.1e-4 -4.69214,-4.9e-4 -1.25817,-4.1e-4 -2.51635,-6e-4 -3.77452,-0.003 -0.46229,-7.7e-4 -1.01624,-0.007 -1.84296,0.0108 -0.40267,0.0173 -0.80409,0.0369 -1.16576,0.2359 -0.28932,0.27669 -0.57316,0.48682 -0.9911,0.4598 -0.44238,0.0484 -0.85691,0.12832 -1.21892,0.40885 -0.35343,0.37248 -0.75383,0.63707 -1.17364,0.92497 -0.37999,0.25429 -0.84519,0.35729 -1.1947,0.66367 -0.47607,0.28689 -1.07294,0.37631 -1.51898,0.74139 -0.44774,0.31872 -0.78194,0.78084 -1.28253,1.04607 -0.33416,0.25491 -0.47759,0.44223 -0.95783,0.40691 -0.42329,0.0741 -0.81458,0.22 -1.14019,0.50805 -0.24104,0.16343 -0.5495,0.1216 -0.79291,0.30188 -0.4252,0.57485 -0.89732,1.1191 -1.44034,1.58607 -0.90229,1.01532 -1.89617,1.90666 -2.92943,2.78495 0,0 -0.6796,-0.0632 -0.6796,-0.0632 z" />
    <path
       style="fill:#483737;fill-opacity:1;fill-rule:nonzero;stroke:none"
       id="path2979"
       d="m 208.45957,467.1357 c -0.40646,-1.2023 -0.89442,-2.36721 -1.37044,-3.54231 -0.18414,-0.66421 -0.51566,-1.20283 -1.01827,-1.66529 -0.42255,-0.56199 -0.94881,-1.05779 -1.23106,-1.70534 -0.3242,-0.98233 -1.06474,-1.76227 -1.66387,-2.5892 -0.58475,-0.49566 -0.94388,-1.16622 -1.38639,-1.76847 -0.41911,-0.50927 -0.79385,-1.05189 -1.18493,-1.58575 -0.43859,-0.69445 -0.81792,-1.42771 -1.28288,-2.1139 -0.13494,-0.4982 -0.51501,-0.81676 -0.77,-1.2453 -0.39195,-0.37793 -0.68442,-0.84504 -1.03012,-1.26526 -0.23077,-0.50973 -0.5521,-0.90448 -1.00002,-1.23484 -0.2393,-0.12367 -0.42639,-0.30899 -0.62271,-0.49081 -0.38142,-0.29365 -0.63303,-0.6924 -0.94274,-1.04643 -0.34217,-0.50945 -0.85866,-0.49986 -1.36398,-0.72823 -0.60788,-0.17128 -1.05617,-0.53866 -1.55336,-0.89922 -0.34487,-0.2954 -0.55302,-0.66287 -0.93767,-0.92878 -0.2152,-0.17484 -0.4392,-0.1816 -0.70433,-0.19223 -0.29932,0.0273 -0.37619,-0.26568 -0.60101,-0.43394 -0.14085,-0.0989 -0.2902,-0.18452 -0.44719,-0.25456 -0.007,-0.0183 -0.035,-0.003 -0.0392,-0.003 0,0 0.68219,-0.10083 0.68219,-0.10083 l 0,0 c 0.0126,0.008 0.0242,0.0236 0.0415,0.025 0.15567,0.0785 0.30654,0.16652 0.44657,0.27095 0.21337,0.17214 0.29359,0.42599 0.59643,0.39222 0.26827,0.016 0.49454,0.0553 0.70829,0.23092 0.37338,0.27086 0.58321,0.64809 0.9362,0.92985 0.49201,0.36032 0.95221,0.70871 1.55113,0.88399 0.51999,0.21078 1.02301,0.25404 1.36732,0.75935 0.3021,0.35975 0.56941,0.74205 0.94406,1.03829 0.19519,0.17951 0.39237,0.35024 0.62214,0.48402 0.44122,0.34008 0.75799,0.74792 0.99915,1.25126 0.34651,0.42362 0.64561,0.88597 1.032,1.27511 0.25703,0.42232 0.62974,0.75012 0.76865,1.24191 0.45943,0.68749 0.83587,1.42184 1.28093,2.11132 0.39034,0.53407 0.77029,1.07354 1.1864,1.5861 0.43298,0.61065 0.81341,1.26076 1.38301,1.76858 0.60129,0.83123 1.33975,1.61576 1.66653,2.60314 0.29086,0.6336 0.80582,1.13022 1.23126,1.67845 0.49505,0.48149 0.83402,1.01952 1.01536,1.69469 0.47685,1.17516 0.95607,2.34386 1.37246,3.54255 0,0 -0.68149,0.0259 -0.68149,0.0259 z" />
    <path
       style="fill:#483737;fill-opacity:1;fill-rule:nonzero;stroke:none"
       id="path2981"
       d="m 183.50889,455.84685 c 1.04054,0.21973 2.08778,0.41106 3.14531,0.52668 0.50484,0.0564 1.01182,0.0747 1.51933,0.0784 0.0486,0 0.19445,1.4e-4 0.14584,10e-6 -1.14145,-0.003 0.58113,-0.0702 0.89165,0.33677 0.097,0.265 0.27618,0.29947 0.53751,0.34242 0.0289,0.0158 0.58842,0.0128 0.52161,0.0125 -0.50032,-0.002 -0.68595,8.9e-4 -0.39264,-0.003 0.32702,-0.005 0.65412,-0.004 0.98117,-0.004 0.53849,-8.4e-4 1.07699,-6e-5 1.61548,-3e-4 0.39311,-0.0685 0.57528,0.26504 0.88041,0.4338 0.30381,0.35386 0.59041,0.63388 1.01829,0.82623 0.32658,0.0822 0.66313,0.11747 0.99917,0.12709 -1.16098,-0.0119 0.58202,-0.009 0.80074,-0.009 0.0294,3.3e-4 0.0588,6.5e-4 0.0882,9.8e-4 0,0 -0.6798,0.10685 -0.6798,0.10685 l 0,0 c -0.029,-3.7e-4 -0.0579,-7.3e-4 -0.0868,-0.001 0.17021,-4.7e-4 0.34042,-8.5e-4 0.51063,-0.001 0.0778,-2.5e-4 -0.1556,1.4e-4 -0.23339,0.001 -0.35983,0.005 -0.71991,0.0194 -1.07966,0.007 -0.33765,-0.0163 -0.67767,-0.0512 -1.0011,-0.15434 -0.41894,-0.20118 -0.70125,-0.50182 -1.01881,-0.83329 -0.29255,-0.18739 -0.48931,-0.4617 -0.8761,-0.39711 -0.0574,-4e-5 -0.22948,-1e-4 -0.17211,-1e-4 0.14685,1e-5 0.29369,2e-5 0.44053,1.1e-4 0.176,1.1e-4 -0.70399,-3e-5 -0.52799,1.3e-4 -0.3265,2.6e-4 -0.65307,-0.001 -0.97952,0.004 -0.49495,0.006 -0.99623,0.027 -1.48964,-0.0217 -0.25981,-0.055 -0.43664,-0.13568 -0.54114,-0.39174 -0.23811,-0.29446 -0.12388,-0.0661 0.3913,-0.27802 0.052,-0.0214 -0.11244,5.3e-4 -0.16866,7.9e-4 -0.41775,0.002 -0.83551,0.004 -1.25326,0.002 -0.50662,-0.006 -1.01257,-0.0282 -1.51631,-0.086 -1.05745,-0.12159 -2.10469,-0.31438 -3.14621,-0.53246 0,0 0.67597,-0.0934 0.67597,-0.0934 z" />
    <path
       style="fill:#483737;fill-opacity:1;fill-rule:nonzero;stroke:none"
       id="path2989"
       d="m 202.12956,448.95031 c 1.09285,0.11043 2.08284,0.53831 3.12221,0.84518 0.88442,0.42463 1.81295,0.73415 2.75505,1.00072 0.23288,0.0525 0.46147,0.14871 0.70266,0.14331 0.31762,0.0821 0.64066,0.3388 0.94534,0.51035 0.51727,0.22179 1.10547,0.13968 1.65452,0.258 0.7162,0.27272 1.55592,0.27187 2.23504,0.62456 0.35253,0.34202 0.71926,0.50864 1.19694,0.60039 0.40448,0.0648 0.81649,0.0702 1.22544,0.0722 -1.23423,-0.002 0.6445,-0.10413 0.87446,0.34153 0.17791,0.17384 0.4042,0.2674 0.63693,0.34003 0.42419,0.0392 -0.81799,0.0137 -0.25769,7.7e-4 0.38764,-0.005 0.78106,-0.01 1.16425,0.005 -1.85945,0.24603 -0.43118,-0.004 0.22452,-0.004 0.61521,2.1e-4 -0.70011,-4.9e-4 -0.11687,-4.5e-4 0.3979,4.4e-4 0.79581,3.2e-4 1.19371,5e-5 -0.009,0.0359 -0.0171,0.0719 -0.0256,0.10781 -0.007,0 -0.0135,2e-5 -0.0203,3e-5 0,0 -0.68106,-0.10786 -0.68106,-0.10786 l 0,0 c 0.007,1e-5 0.0137,4e-5 0.0206,3e-5 0.008,0.0359 0.0169,0.0719 0.0254,0.1078 -0.22,-3.3e-4 -0.76077,-6.8e-4 0.16708,-2.1e-4 -0.41388,1.4e-4 -0.82777,8e-4 -1.24165,2e-4 -1.02584,-0.002 1.35434,-0.24906 -0.22787,-0.002 -0.45657,0.002 0.83197,-0.003 0.19669,-3.6e-4 -0.36725,0.006 -0.75035,0.093 -1.10412,-0.0194 -0.23934,-0.0876 -0.4726,-0.19262 -0.63998,-0.39408 -0.23627,-0.43324 1.06052,-0.27083 0.0137,-0.26891 -0.29374,5.4e-4 -0.58748,5.9e-4 -0.88122,8.8e-4 -0.40926,-0.005 -0.82169,-0.0123 -1.22536,-0.0855 -0.47295,-0.10103 -0.83673,-0.29708 -1.19829,-0.6178 -0.69459,-0.31825 -1.50867,-0.35426 -2.23014,-0.60765 -0.55151,-0.10496 -1.15204,-0.0232 -1.66201,-0.27877 -0.29761,-0.16922 -0.60648,-0.43176 -0.94214,-0.47713 -0.24001,-0.0192 -0.46871,-0.10283 -0.70134,-0.16074 -0.93964,-0.27129 -1.86236,-0.59035 -2.75088,-1.00206 -1.03709,-0.31291 -2.03335,-0.7241 -3.12395,-0.83859 0,0 0.67597,-0.0934 0.67597,-0.0934 z" />
    <path
       style="fill:#483737;fill-opacity:1;fill-rule:nonzero;stroke:none"
       id="path2991"
       d="m 209.0261,446.88135 c 0.98114,0.21044 1.96564,0.39557 2.96041,0.52733 0.48417,0.0681 0.97395,0.0748 1.46199,0.0777 0.41658,0.0255 0.75043,0.36896 1.14868,0.50865 0.3925,0.0798 0.71001,0.1588 1.03459,0.3921 0.32832,0.19144 0.47158,0.51299 0.73317,0.77112 0.23822,0.27221 0.56298,0.32866 0.9043,0.3799 0.3145,0.16688 0.60146,0.38013 0.8759,0.60566 0.21874,0.20131 0.42619,0.41539 0.6357,0.62645 0.29974,0.13078 0.61957,0.15118 0.94111,0.16166 0.21072,0.005 0.81885,0.006 -0.18581,0.003 -0.16694,-4.7e-4 0.33387,-0.001 0.50081,-0.002 0.2421,-0.002 0.48422,-0.003 0.72634,-0.003 0.52871,-0.0394 1.00723,0.10269 1.39346,0.45313 0.17078,0.2136 0.41681,0.21759 0.67281,0.23857 0.0667,0.006 0.13353,0.005 0.20033,0.005 0,0 -0.68044,0.10732 -0.68044,0.10732 l 0,0 c -0.0668,-0.003 -0.13363,-0.004 -0.20014,-0.0111 -0.26242,-0.0287 -0.50134,-0.0665 -0.67678,-0.28236 -0.79559,-0.71702 0.60877,-0.32862 -0.03,-0.40297 -0.24223,2.6e-4 -0.48446,3.1e-4 -0.72668,0.003 -0.55739,0.004 -1.115,0.0105 -1.67226,-0.003 -0.32731,-0.0145 -0.66004,-0.0405 -0.94813,-0.21283 -0.20774,-0.21034 -0.41314,-0.42424 -0.63549,-0.6192 -0.26923,-0.21875 -0.5488,-0.4359 -0.87115,-0.56992 -0.34761,-0.0605 -0.66847,-0.14398 -0.9078,-0.42288 -0.25138,-0.25796 -0.40825,-0.57473 -0.73205,-0.75901 -0.3196,-0.2182 -0.66128,-0.27574 -1.03227,-0.37497 -0.3847,-0.15397 -0.72216,-0.48356 -1.1455,-0.48474 -0.488,-0.004 -0.97738,-0.0156 -1.46111,-0.0866 -0.99429,-0.13537 -1.97811,-0.32489 -2.95991,-0.53181 0,0 0.67596,-0.0934 0.67596,-0.0934 z" />
    <path
       style="fill:#483737;fill-opacity:1;fill-rule:nonzero;stroke:none"
       id="path2993"
       d="m 210.4045,445.41287 c 1.01415,4.8e-4 2.0283,4e-5 3.04245,3e-5 0.53645,-2.1e-4 1.0729,-1.8e-4 1.60935,-3.3e-4 0.17729,0 0.35457,-2.8e-4 0.53185,-1.2e-4 0.31568,-0.008 0.38372,0.38634 0.62714,0.51968 0.21805,0.0981 0.44711,0.16469 0.686,0.17083 0.36123,-0.0266 0.62226,0.25072 0.92199,0.43651 0.2465,0.19249 0.54524,0.21769 0.84631,0.247 0.33618,-0.0181 0.60897,0.0751 0.9126,0.22027 0.53604,0.24021 1.09239,0.37635 1.67434,0.43432 0.29378,0.0968 0.88174,-0.11669 1.06693,0.15687 0.2121,0.1845 0.43667,0.3541 0.66495,0.51793 0.0153,0.0108 0.0307,0.0215 0.046,0.0323 0,0 -0.68556,0.0655 -0.68556,0.0655 l 0,0 c -0.0152,-0.011 -0.0304,-0.022 -0.0456,-0.0329 -0.22934,-0.16806 -0.45793,-0.33896 -0.66572,-0.5335 -0.25713,-0.202 -0.75978,0.0159 -1.05796,-0.1063 -0.58326,-0.0667 -1.1415,-0.21235 -1.6779,-0.45643 -0.30153,-0.13495 -0.58427,-0.2008 -0.91213,-0.1977 -0.30498,-0.0355 -0.6,-0.0834 -0.84899,-0.27781 -0.29599,-0.18482 -0.55206,-0.43636 -0.91876,-0.40256 -0.24165,-0.0228 -0.47519,-0.0911 -0.69009,-0.20647 -0.21241,-0.16282 -0.31072,-0.50111 -0.6229,-0.47987 -0.17677,1.6e-4 -0.35353,-1.1e-4 -0.5303,-1.2e-4 -0.53508,-1.5e-4 -1.07015,-1.2e-4 -1.60523,-3.3e-4 -1.01428,-10e-6 -2.02856,-4.5e-4 -3.04285,3e-5 0,0 0.67414,-0.10677 0.67414,-0.10677 z" />
    <path
       style="fill:#483737;fill-opacity:1;fill-rule:nonzero;stroke:none"
       id="path3003"
       d="m 170.40605,472.48728 c 1.02065,0.42888 2.06211,0.81651 3.14517,1.05372 0.31184,0.16914 1.01249,-0.041 1.2106,0.26935 0.0907,0.42621 0.60588,0.44161 0.98881,0.49866 0.45039,0.0622 0.90456,0.071 1.35835,0.074 0.0777,2e-5 0.31085,1.9e-4 0.23314,5e-5 -1.1474,-0.002 0.28068,-0.18314 0.79565,0.44146 0.24233,0.18754 0.56391,0.27144 0.83981,0.44977 0.42875,0.26821 0.96187,0.2982 1.39117,0.54119 0.79235,0.35758 1.53744,0.78925 2.36661,1.07052 0.36011,0.0965 0.71877,0.24412 1.09516,0.25724 -0.11014,0.002 0.37061,0.004 0.27796,0.003 -1.21368,-0.008 0.28028,-0.18279 0.4481,0.46376 0,0 -0.68733,0.0182 -0.68733,0.0182 l 0,0 c -0.0241,-0.0853 -0.18054,-0.20078 -0.10364,-0.24485 0.16114,-0.0924 0.71426,-0.0662 0.54104,-0.13323 -0.24628,-0.0953 -0.80615,0.0283 -1.15567,-0.004 -0.37505,-0.037 -0.73344,-0.17042 -1.09304,-0.27582 -0.82768,-0.28856 -1.57435,-0.72486 -2.37054,-1.08055 -0.44614,-0.21591 -0.96315,-0.27741 -1.3919,-0.54676 -0.27613,-0.1721 -0.6213,-0.23946 -0.84337,-0.47027 -0.10544,-0.12082 -0.50526,-0.23873 -0.36397,-0.31457 0.1429,-0.0767 0.64185,-0.0428 0.48172,-0.0685 -0.37484,-0.0602 -0.76053,0.0167 -1.13893,6e-5 -0.45395,-0.005 -0.90826,-0.0174 -1.35816,-0.0845 -0.39475,-0.0683 -0.87863,-0.11371 -0.99713,-0.54817 -0.28133,-0.24555 -0.87948,-0.0265 -1.20041,-0.22431 -1.08196,-0.24844 -2.12331,-0.63722 -3.14636,-1.06456 0,0 0.67716,-0.081 0.67716,-0.081 z" />
    <path
       style="fill:#483737;fill-opacity:1;fill-rule:nonzero;stroke:none"
       id="path3005"
       d="m 155.84204,486.37175 c 0.96869,0.67612 1.97067,1.33321 3.01129,1.89626 0.99055,0.64423 2.09327,1.09922 3.07506,1.74889 0.77061,0.70608 1.71641,1.09284 2.63355,1.54827 0.67433,0.28301 1.28584,0.63776 1.91138,1.01287 0.4139,0.32498 0.84717,0.37022 1.35567,0.40869 0.56463,-0.0334 1.05515,0.23274 1.56341,0.44695 0.46887,0.32886 0.92637,0.62599 1.46597,0.82301 0.46703,0.30675 0.91359,0.57832 1.46326,0.70057 0.53785,0.12029 1.00642,0.47138 1.50809,0.71354 0.69546,0.35214 1.44483,0.57699 2.21123,0.70553 0.46977,-0.0143 0.66753,0.15209 1.01855,0.41231 0.16176,0.11856 0.32551,0.23438 0.49134,0.34717 0.011,0.0105 0.0268,0.016 0.0393,0.0236 0,0 -0.6859,0.0714 -0.6859,0.0714 l 0,0 c -0.0129,-0.009 -0.0252,-0.0202 -0.0392,-0.0282 -0.16449,-0.11461 -0.32774,-0.23098 -0.4889,-0.35024 -0.33839,-0.2535 -0.56852,-0.38073 -1.01268,-0.38062 -0.7673,-0.13663 -1.51532,-0.3717 -2.21239,-0.72454 -0.49983,-0.24069 -0.96283,-0.59246 -1.50793,-0.69868 -0.54427,-0.13748 -0.98927,-0.42129 -1.46558,-0.70887 -0.5349,-0.20457 -0.98669,-0.51736 -1.46561,-0.82586 -0.50665,-0.21291 -0.99705,-0.45747 -1.56036,-0.42539 -0.50898,-0.0436 -0.94503,-0.11985 -1.35883,-0.44011 -0.62205,-0.37559 -1.24086,-0.71813 -1.90874,-1.0073 -0.92258,-0.4478 -1.8522,-0.86362 -2.63062,-1.55691 -0.98973,-0.63711 -2.08231,-1.10676 -3.07658,-1.74339 -1.03862,-0.57314 -2.04525,-1.22415 -3.01442,-1.90577 0,0 0.6796,-0.0632 0.6796,-0.0632 z" />
    <path
       style="fill:#483737;fill-opacity:1;fill-rule:nonzero;stroke:none"
       id="path3007"
       d="m 167.09599,473.74764 c 1.23124,0.70473 2.46436,1.41471 3.75805,2.00042 0.70544,0.4055 1.59892,0.27183 2.27491,0.67926 0.62154,0.42055 1.16812,0.92208 1.76003,1.38011 0.29431,0.23465 0.55147,0.44286 0.92464,0.49386 0.34143,-0.0166 0.6085,0.0894 0.92139,0.22156 0.50381,0.24797 1.05333,0.3682 1.60687,0.43535 0.39944,-0.006 0.53922,0.0308 0.80622,0.2672 0.18376,0.15676 0.37771,0.30081 0.57476,0.44025 0.02,0.0198 0.0501,0.0301 0.0728,0.0437 0,0 -0.68554,0.0746 -0.68554,0.0746 l 0,0 c -0.024,-0.0174 -0.0475,-0.0368 -0.0728,-0.0527 -0.19651,-0.1429 -0.39101,-0.28898 -0.57365,-0.4495 -0.23714,-0.23017 -0.46791,-0.20058 -0.79979,-0.225 -0.55529,-0.0737 -1.10219,-0.20721 -1.60873,-0.45343 -0.3073,-0.12403 -0.59084,-0.20322 -0.92165,-0.20548 -0.36775,-0.068 -0.63275,-0.30403 -0.9255,-0.52841 -0.58653,-0.4599 -1.13469,-0.95745 -1.75841,-1.37003 -0.69556,-0.36373 -1.56868,-0.27083 -2.27055,-0.67391 -1.2924,-0.5927 -2.52661,-1.30441 -3.76077,-2.00784 0,0 0.67773,-0.0701 0.67773,-0.0701 z" />
    <path
       style="fill:#483737;fill-opacity:1;fill-rule:nonzero;stroke:none"
       id="path3009"
       d="m 159.37158,481.45278 c 1.30813,0.80782 2.76055,1.29367 4.25408,1.61863 1.16414,0.3012 2.25337,0.8205 3.39859,1.17189 1.3714,0.33355 2.46859,1.19802 3.67727,1.87817 0.68775,0.31616 1.35369,0.62633 2.01764,0.99122 0.63804,0.2313 1.25178,0.54175 1.89222,0.78421 0.61515,0.12651 1.17355,0.37137 1.75727,0.59544 0.70948,0.17841 1.31703,0.55697 2.01375,0.77607 0.75056,0.16828 1.45734,0.50391 2.1708,0.79055 0.1626,0.0653 0.32508,0.13092 0.48719,0.19744 0.006,-0.003 0.006,0.004 0.009,0.005 0,0 -0.68519,0.078 -0.68519,0.078 l 0,0 c -0.002,-6.2e-4 -0.009,0.009 -0.009,-0.002 -0.16075,-0.0663 -0.32172,-0.13201 -0.48293,-0.19717 -0.71164,-0.2876 -1.4175,-0.6168 -2.16768,-0.78586 -0.69209,-0.22496 -1.30756,-0.60012 -2.01517,-0.78017 -0.58102,-0.22975 -1.14937,-0.44843 -1.75742,-0.595 -0.63917,-0.24699 -1.25896,-0.54817 -1.89399,-0.79354 -0.6607,-0.36538 -1.33463,-0.66295 -2.01261,-0.99248 -1.20328,-0.6831 -2.30459,-1.53609 -3.675,-1.86389 -1.14111,-0.35998 -2.23247,-0.86875 -3.39601,-1.16646 -1.49543,-0.33435 -2.94141,-0.83506 -4.26057,-1.62899 0,0 0.67716,-0.081 0.67716,-0.081 z" />
    <path
       style="fill:#483737;fill-opacity:1;fill-rule:nonzero;stroke:none"
       id="path3011"
       d="m 164.33709,477.93554 c 1.11276,0.40349 2.18631,0.87622 3.25937,1.37334 0.82089,0.28531 1.56355,0.73638 2.38641,1.01502 0.5016,0.0653 0.87714,0.30033 1.31137,0.52747 0.36193,0.38519 0.78166,0.67375 1.24897,0.91623 0.11253,0.0586 0.22863,0.11003 0.35031,0.14336 0.0564,-0.002 0.22577,-0.006 0.16931,-0.007 -1.15795,-0.0324 0.23348,0.0487 0.46329,0.0921 0.16698,0.0315 0.37235,0.23509 0.50227,0.34048 0.19457,0.18014 0.49292,0.21029 0.74886,0.24436 0.62556,0.0237 -0.57873,0.0106 -0.078,0.007 0.2603,-0.002 0.52061,-0.002 0.78092,-0.003 0.0551,-1.2e-4 0.11019,-2.2e-4 0.16529,-3.2e-4 0,0 0.68083,0.1078 0.68083,0.1078 l 0,0 c -0.0555,-1e-5 -0.111,-6e-5 -0.16651,4e-5 -0.26062,3.1e-4 -0.52125,5.9e-4 -0.78186,0.002 -0.4271,0.003 -0.85724,0.0353 -1.28175,-0.0166 -0.26446,-0.0423 -0.55137,-0.089 -0.75185,-0.28048 -0.26868,-0.20978 -0.50207,-0.31508 -0.49841,-0.31775 0.54107,-0.3947 0.72201,0.15294 -0.63578,-0.0783 -0.1189,-0.0479 -0.23622,-0.0995 -0.34939,-0.15995 -0.46249,-0.24828 -0.87197,-0.55088 -1.24774,-0.91692 -0.4257,-0.23547 -0.82201,-0.4292 -1.30874,-0.51661 -0.81917,-0.28677 -1.56466,-0.73489 -2.38444,-1.02233 -1.07171,-0.4985 -2.14852,-0.96476 -3.2599,-1.36956 0,0 0.67716,-0.081 0.67716,-0.081 z" />
  </g>
</svg>
