<?xml version="1.0" encoding="UTF-8" standalone="no"?>
<!-- Created with Inkscape (http://www.inkscape.org/) -->

<svg
   xmlns:dc="http://purl.org/dc/elements/1.1/"
   xmlns:cc="http://creativecommons.org/ns#"
   xmlns:rdf="http://www.w3.org/1999/02/22-rdf-syntax-ns#"
   xmlns:svg="http://www.w3.org/2000/svg"
   xmlns="http://www.w3.org/2000/svg"
   xmlns:sodipodi="http://sodipodi.sourceforge.net/DTD/sodipodi-0.dtd"
   xmlns:inkscape="http://www.inkscape.org/namespaces/inkscape"
   width="744.09448819"
   height="1052.3622047"
   id="svg2"
   version="1.1"
   inkscape:version="0.47pre1 r21720"
   sodipodi:docname="2009Aug11ThrLayout04.svg"
   inkscape:output_extension="org.inkscape.output.svg.inkscape">
  <defs
     id="defs4">
    <inkscape:perspective
       sodipodi:type="inkscape:persp3d"
       inkscape:vp_x="0 : 526.18109 : 1"
       inkscape:vp_y="0 : 1000 : 0"
       inkscape:vp_z="744.09448 : 526.18109 : 1"
       inkscape:persp3d-origin="372.04724 : 350.78739 : 1"
       id="perspective10" />
    <inkscape:perspective
       id="perspective2826"
       inkscape:persp3d-origin="0.5 : 0.33333333 : 1"
       inkscape:vp_z="1 : 0.5 : 1"
       inkscape:vp_y="0 : 1000 : 0"
       inkscape:vp_x="0 : 0.5 : 1"
       sodipodi:type="inkscape:persp3d" />
    <inkscape:perspective
       id="perspective2887"
       inkscape:persp3d-origin="0.5 : 0.33333333 : 1"
       inkscape:vp_z="1 : 0.5 : 1"
       inkscape:vp_y="0 : 1000 : 0"
       inkscape:vp_x="0 : 0.5 : 1"
       sodipodi:type="inkscape:persp3d" />
    <inkscape:perspective
       id="perspective2954"
       inkscape:persp3d-origin="0.5 : 0.33333333 : 1"
       inkscape:vp_z="1 : 0.5 : 1"
       inkscape:vp_y="0 : 1000 : 0"
       inkscape:vp_x="0 : 0.5 : 1"
       sodipodi:type="inkscape:persp3d" />
    <inkscape:perspective
       id="perspective2954-3"
       inkscape:persp3d-origin="0.5 : 0.33333333 : 1"
       inkscape:vp_z="1 : 0.5 : 1"
       inkscape:vp_y="0 : 1000 : 0"
       inkscape:vp_x="0 : 0.5 : 1"
       sodipodi:type="inkscape:persp3d" />
  </defs>
  <sodipodi:namedview
     id="base"
     pagecolor="#ffffff"
     bordercolor="#666666"
     borderopacity="1.0"
     inkscape:pageopacity="0.0"
     inkscape:pageshadow="2"
     inkscape:zoom="1"
     inkscape:cx="409.21919"
     inkscape:cy="760"
     inkscape:document-units="px"
     inkscape:current-layer="layer1"
     showgrid="false"
     inkscape:window-width="1349"
     inkscape:window-height="1159"
     inkscape:window-x="559"
     inkscape:window-y="6"
     inkscape:window-maximized="0" />
  <metadata
     id="metadata7">
    <rdf:RDF>
      <cc:Work
         rdf:about="">
        <dc:format>image/svg+xml</dc:format>
        <dc:type
           rdf:resource="http://purl.org/dc/dcmitype/StillImage" />
        <dc:title></dc:title>
      </cc:Work>
    </rdf:RDF>
  </metadata>
  <g
     inkscape:label="Layer 1"
     inkscape:groupmode="layer"
     id="layer1">
    <rect
       style="fill:#f2f2f2;fill-opacity:1;fill-rule:nonzero;stroke:none"
       id="rect2816"
       width="128"
       height="436"
       x="524"
       y="167.36218" />
    <rect
       style="fill:#f2f2f2;fill-opacity:1;fill-rule:nonzero;stroke:none"
       id="rect2816-7"
       width="128"
       height="436"
       x="523"
       y="634.36218" />
    <rect
       style="fill:#f2f2f2;fill-opacity:1;fill-rule:nonzero;stroke:none"
       id="rect2840"
       width="638"
       height="28"
       x="65"
       y="84.362183" />
    <path
       inkscape:export-xdpi="90"
       inkscape:export-ydpi="90"
       style="fill:#666666;fill-opacity:1;fill-rule:nonzero;stroke:none"
       id="path2816"
       d="m 32.93617,66.50105 c 0.0214,1.32487 -44.29122,-53.31081 -44.17373,-51.99148 0.12699,1.65069 0.41063,3.28114 0.76274,4.89683 0.50272,2.08456 1.12155,4.13999 1.77884,6.18047 0.76921,2.40604 1.58994,4.79543 2.40172,7.18743 0.97018,2.71833 1.99581,5.41627 2.99589,8.12363 1.10937,2.89576 2.17852,5.80653 3.25408,8.71492 1.15092,3.14986 2.35171,6.2803 3.44556,9.45081 1.14388,3.45853 2.27709,6.92052 3.4197,10.3795 1.25042,3.72261 2.40491,7.47589 3.51277,11.24303 1.15314,4.01563 2.18818,8.06379 3.20694,12.11518 1.03445,4.19659 1.97961,8.41402 2.899,12.63702 0.9436,4.32488 1.80482,8.66646 2.61981,13.01718 0.83759,4.54771 1.63278,9.10326 2.3857,13.66574 0.7722,4.63471 1.47868,9.28006 2.16927,13.92753 0.6471,4.76127 1.17739,9.53772 1.70784,14.31314 0.48239,4.85012 0.85825,9.71009 1.24968,14.56819 0.39191,4.86747 0.6273,9.74585 0.88742,14.62168 0.25946,4.86081 0.37173,9.72799 0.51139,14.59332 0.0749,4.78988 0.12005,9.58072 0.0938,14.37118 -0.0189,4.76743 -0.15071,9.5321 -0.30836,14.29654 -0.15318,4.83833 -0.43503,9.67116 -0.75357,14.501 -0.38365,5.19525 -0.88197,10.3814 -1.41685,15.56303 -0.547,5.70554 -1.34082,11.38117 -2.11922,17.0583 -0.89777,6.2719 -1.83488,12.53814 -2.77281,18.80416 -1.01475,6.86919 -2.03941,13.73698 -3.01036,20.61256 -1.04443,7.50896 -35.15447,58.79776 -36.07596,66.32282 -0.97357,8.31431 31.24468,-27.13611 30.37454,-18.81038 -0.95944,9.18965 -1.73855,18.39655 -2.47657,27.60619 -0.75507,9.47974 -1.42542,18.96595 -2.06346,28.4542 -0.68451,9.57263 -1.15009,19.15828 -1.57928,28.74509 -0.42537,9.60353 -0.79152,19.20949 -1.14138,28.81601 -0.28981,9.22125 -0.46856,18.44557 -0.65708,27.66932 -0.17352,8.41628 -0.33963,16.8327 -0.50391,25.24916 -0.14474,7.66769 -0.28156,15.33551 -0.41942,23.00331 -0.12255,6.82012 -0.24495,13.64023 -0.36737,20.46034 -0.10867,6.054 -0.21733,12.10802 -0.326,18.16202 -0.0965,5.37375 -0.19291,10.7475 -0.28937,16.12125 -0.0856,4.76992 -0.17123,9.53984 -0.25684,14.30977 -0.076,4.23394 -0.15199,8.46788 -0.22799,12.70183 -0.0675,3.75819 -0.13491,7.51639 -0.20238,11.27458 -0.0599,3.3359 -0.11975,6.67181 -0.17962,10.00771 -0.0532,2.96106 -0.1063,5.92212 -0.15945,8.88318 -0.0321,1.7868 -0.0641,3.57359 -0.0962,5.36039 0,0 -5.68002,-9.24712 -5.68002,-9.24712 l 0,0 c 0.0404,-1.77326 0.0808,-3.54652 0.12116,-5.31978 0.0669,-2.93862 0.13386,-5.87724 0.20079,-8.81587 0.0754,-3.31062 0.1508,-6.62125 0.22621,-9.93187 0.0849,-3.72973 0.1699,-7.45944 0.25484,-11.18917 0.0957,-4.20186 0.19141,-8.40373 0.2871,-12.6056 0.10782,-4.73378 0.21564,-9.46756 0.32345,-14.20134 0.12146,-5.33304 0.24293,-10.66607 0.36439,-15.99911 0.13684,-6.00813 22.24429,-149.80844 22.38113,-155.81658 0.15415,-6.76852 -21.66229,124.25512 -21.50818,117.48659 0.17333,-7.61446 12.10492,101.63713 12.27546,94.0226 0.18527,-8.37047 -11.3772,-133.60677 -11.16886,-141.97671 0.22878,-9.18224 0.44388,-18.36496 0.73312,-27.54555 0.36534,-9.59481 0.73275,-19.18966 1.16235,-28.78184 0.43188,-9.59789 0.86446,-19.19649 1.55786,-28.77995 0.64494,-9.48966 1.30869,-18.97811 2.05988,-28.46006 0.73947,-9.2528 1.48094,-18.50609 2.39194,-27.74395 0.83614,-8.37708 -0.82815,100.50251 0.11443,92.13671 0.88552,-7.57322 4.39174,-132.38881 5.40466,-139.94599 0.94135,-6.91264 1.97315,-13.81243 2.94376,-20.72098 0.92593,-6.30081 -19.94756,28 -19.05352,21.69461 0.75434,-5.71827 23.27551,-52.04348 23.80346,-57.78841 0.52383,-5.20792 -15.2781,21.46243 -14.913,16.24075 C 5.62588,265.55437 2.06104,15.00438 2.20831,10.15077 2.37655,5.3916 22.62005,214.4489 22.64085,209.68644 c 0.03,-4.78854 15.16616,-81.44659 15.10118,-86.23466 -0.12951,-4.86466 -15.43379,62.13764 -15.70138,57.2782 -0.25037,-4.87521 -0.48585,-9.75281 -0.88551,-14.61856 -0.3829,-4.86067 -0.76492,-9.72207 -1.25297,-14.57355 -0.53238,-4.78182 -1.06031,-9.56505 -1.71911,-14.33148 -0.69298,-4.65095 -1.40278,-9.29946 -2.17564,-13.93792 -0.76431,-4.56867 -1.54782,-9.13436 -2.39921,-13.68773 -0.82595,-4.36173 -1.7001,-8.71412 -2.64152,-13.05252 C 10.04605,92.29406 9.09244,88.06676 8.04908,83.86092 7.02681,79.79631 5.98999,75.73437 4.81977,71.70929 3.70391,67.92745 16.68874,163.81114 15.42762,160.07486 14.27145,156.59779 -1.01777,53.46432 -2.17384,49.98725 -3.28192,46.80125 -2.6432,6.44519 -3.80574,3.27897 -4.89386,0.35555 -7.81343,34.63409 -8.93407,31.72288 c -1.00534,-2.72393 -2.04471,-5.4352 -3.02365,-8.16883 -0.82892,-2.42183 -1.6674,-4.84077 -2.45614,-7.27601 -0.66719,-2.06401 -1.29715,-4.14204 -1.82015,-6.24774 -0.37274,-1.64454 -0.68064,-3.30246 -0.81733,-4.98571 -0.12856,-1.31906 -0.24261,-2.63808 -0.22457,-3.96515 0,0 50.21214,65.42161 50.21214,65.42161 z"
       sodipodi:nodetypes="cccccccccccsccccsscccccccccsccccccssssssssscccssssssssscsccccccccccccccccccccscccccccscccc" />
    <rect
       style="fill:#666666;fill-opacity:1;fill-rule:nonzero;stroke:none"
       id="rect2922"
       width="138"
       height="44"
       x="173"
       y="44.362183" />
    <rect
       style="fill:#666666;fill-opacity:1;fill-rule:nonzero;stroke:none"
       id="rect2922-8"
       width="414"
       height="44"
       x="172"
       y="44.362183" />
    <rect
       style="fill:#666666;fill-opacity:1;fill-rule:nonzero;stroke:none"
       id="rect2922-9"
       width="138"
       height="44"
       x="448"
       y="44.362183" />
  </g>
</svg>
