<?xml version="1.0" encoding="UTF-8" standalone="no"?>
<!-- Created with Inkscape (http://www.inkscape.org/) -->

<svg
   xmlns:dc="http://purl.org/dc/elements/1.1/"
   xmlns:cc="http://creativecommons.org/ns#"
   xmlns:rdf="http://www.w3.org/1999/02/22-rdf-syntax-ns#"
   xmlns:svg="http://www.w3.org/2000/svg"
   xmlns="http://www.w3.org/2000/svg"
   xmlns:sodipodi="http://sodipodi.sourceforge.net/DTD/sodipodi-0.dtd"
   xmlns:inkscape="http://www.inkscape.org/namespaces/inkscape"
   width="744.09448819"
   height="1052.3622047"
   id="svg6073"
   version="1.1"
   inkscape:version="0.47 r22583"
   sodipodi:docname="2009Dec15-a01c-freefem.svg">
  <defs
     id="defs6075">
    <inkscape:perspective
       sodipodi:type="inkscape:persp3d"
       inkscape:vp_x="0 : 526.18109 : 1"
       inkscape:vp_y="0 : 1000 : 0"
       inkscape:vp_z="744.09448 : 526.18109 : 1"
       inkscape:persp3d-origin="372.04724 : 350.78739 : 1"
       id="perspective6081" />
    <filter
       id="filter6190"
       inkscape:label="Color outline"
       inkscape:menu="Morphology"
       inkscape:menu-tooltip="Draws a colored outline around"
       width="1.5"
       height="1.5"
       x="-0.25"
       y="-0.25"
       color-interpolation-filters="sRGB">
      <feGaussianBlur
         id="feGaussianBlur6192"
         in="SourceAlpha"
         stdDeviation="3"
         result="blur" />
      <feColorMatrix
         id="feColorMatrix6194"
         values="1 0 0 0 0 0 1 0 0 0 0 0 1 0 0 0 0 0 10 -1 "
         result="result4" />
      <feFlood
         id="feFlood6196"
         result="result1"
         flood-color="rgb(154,27,74)"
         in="blur" />
      <feComposite
         in2="result4"
         id="feComposite6198"
         result="result2"
         in="result1"
         operator="atop" />
      <feComposite
         in2="result2"
         id="feComposite6200"
         in="SourceGraphic"
         result="result3"
         operator="atop" />
    </filter>
  </defs>
  <sodipodi:namedview
     id="base"
     pagecolor="#ffffff"
     bordercolor="#666666"
     borderopacity="1.0"
     inkscape:pageopacity="0.0"
     inkscape:pageshadow="2"
     inkscape:zoom="0.99257812"
     inkscape:cx="536.31756"
     inkscape:cy="686.23377"
     inkscape:document-units="px"
     inkscape:current-layer="layer1"
     showgrid="false"
     inkscape:window-width="1327"
     inkscape:window-height="914"
     inkscape:window-x="495"
     inkscape:window-y="29"
     inkscape:window-maximized="0" />
  <metadata
     id="metadata6078">
    <rdf:RDF>
      <cc:Work
         rdf:about="">
        <dc:format>image/svg+xml</dc:format>
        <dc:type
           rdf:resource="http://purl.org/dc/dcmitype/StillImage" />
        <dc:title></dc:title>
        <dc:title></dc:title>
      </cc:Work>
    </rdf:RDF>
  </metadata>
  <g
     inkscape:label="Layer 1"
     inkscape:groupmode="layer"
     id="layer1">
    <path
       style="fill:#000018;fill-opacity:1;fill-rule:nonzero;stroke:none;filter:url(#filter6190)"
       id="path6083"
       d="m 290.2648,-7.7913068 c 0.40728,1.73191 0.76012,3.62485 1.06593,5.64559 0.27024,2.28558997 0.62185,4.39151 0.97864,6.48211 0.58097,3.18783 1.18769,6.2915098 1.72738,9.5924798 0.84353,5.31408 1.6365,10.74889 2.4128,16.21554 0.98859,6.70893 1.82769,13.70915 2.68004,20.6875 0.83199,7.1657 1.68,14.30035 2.53141,21.431 0.82617,6.67272 1.63925,13.36962 2.41105,20.14067 0.77793,6.53541 1.50721,13.158057 2.21186,19.818007 0.60876,6.23103 1.2728,12.37581 1.89725,18.5828 0.5575,6.35799 1.12338,12.70336 1.71668,19.01196 0.64484,6.77899 1.10009,13.7992 1.641,20.71014 0.54761,7.12536 1.09278,14.25909 1.58953,21.4414 0.54126,7.59364 1.16986,15.08362 1.75528,22.62541 0.52604,7.65696 0.95045,15.40972 1.3996,23.13824 0.33938,6.68672 0.64741,13.39926 0.86354,20.1642 0.268,7.01704 0.38501,14.09948 0.53296,21.16512 0.11012,6.60441 0.22107,13.2108 0.39449,19.79542 0.18523,6.28769 0.26308,12.60845 0.30705,18.93142 -0.0104,6.19082 0.11447,12.36184 0.1928,18.54043 0.10547,5.84002 0.0452,11.66946 -0.0359,17.50385 -0.11961,5.80232 -0.30321,11.57851 -0.44962,17.37023 -0.13186,5.85202 -0.31013,11.68859 -0.52269,17.50408 -0.20522,5.82269 -0.45515,11.61463 -0.75652,17.37226 -0.33544,5.58162 -0.58621,11.22732 -0.84959,16.86365 -0.19124,4.6054 -0.41826,9.18756 -0.55991,13.82173 -0.1821,4.6229 -0.25021,9.28977 -0.40751,13.92399 -0.11265,3.49994 -0.34377,7.00259 -0.65901,10.3157 -0.19409,2.28542 -0.40408,4.55417 -0.58626,6.8534 -0.14461,2.05152 -0.36114,4.00813 -0.53026,6.03238 -0.16279,2.50158 -0.28392,5.06119 -0.3885,7.61239 -0.13449,3.27225 -0.13321,6.5954 -0.15234,9.89953 -0.018,3.63625 -0.13247,7.25169 -0.18615,10.88408 -0.0151,3.47178 -0.0998,6.90826 -0.19849,10.35462 -0.0101,3.03077 -0.27461,5.85374 -0.45202,8.76921 -0.13876,2.48274 -0.25077,5.03191 -0.43944,7.46485 -0.17155,2.01257 -0.24809,4.12335 -0.27887,6.23372 -0.017,2.19242 -0.0115,4.36188 -0.10302,6.52895 -0.10039,2.20203 -0.14252,4.42946 -0.16324,6.66129 0.0132,1.85413 -0.16141,3.6013 -0.21512,5.4261 -0.016,1.71587 -0.1063,3.35921 -0.18359,5.04165 -0.0805,1.43159 -0.11583,2.89001 -0.15184,4.34591 -0.0174,0.99075 -0.01,1.98058 -0.005,2.97239 -0.0145,1.50009 -0.12049,2.98922 -0.17687,4.48467 -0.0425,1.57324 -0.0598,3.12728 -0.14249,4.67629 -0.0759,1.87905 -0.1259,3.77053 -0.17815,5.66098 -0.0288,1.15269 -0.0186,2.30806 -0.0185,3.4632 -0.0788,1.14544 -0.15709,2.28458 -0.2134,3.45182 -0.022,1.15384 -0.0426,2.30599 -0.052,3.46211 0.0378,1.0216 -0.0425,1.89353 -0.10888,2.85734 -0.0865,1.25686 -0.11074,2.57637 -0.13599,3.87239 -0.0102,0.95315 -0.009,1.90678 -0.0185,2.86001 -0.084,-0.64956 -0.23775,-0.77845 -0.41197,-0.80288 -0.0453,0.17005 -0.12644,-0.15969 -0.17414,-0.0304 -0.14687,0.39788 -0.18124,1.37584 -0.1968,1.99081 -0.007,1.26851 0.01,2.54316 0.0238,3.812 0.0186,2.24893 0.0177,4.49772 0.0122,6.74721 0.0306,1.53392 -0.0912,2.96983 -0.1659,4.45563 -0.0674,1.46241 -0.0924,2.94353 -0.10309,4.42654 -0.008,1.32741 1e-4,2.65551 -0.01,3.98344 -0.003,0.83415 -10e-4,1.66867 -0.007,2.50259 0.002,0.61521 -2.5e-4,1.22998 -7.7e-4,1.84506 -0.12367,-0.58161 -0.18887,1.19063 -0.20774,1.5177 -0.0353,1.44183 -0.0277,2.88973 -0.0352,4.33564 -0.0182,1.10895 -0.009,2.21678 -7.7e-4,3.32587 -0.003,1.06498 -0.002,2.13006 -0.0136,3.19426 -0.0108,0.36751 -0.004,0.73392 -0.005,1.1023 0.002,0.41429 0.003,0.82825 -0.002,1.2428 -0.004,0.49509 0.0104,0.98956 0.0128,1.48554 0.0149,1.6616 0.0159,3.32496 0.0157,4.98764 -0.008,1.30501 -0.005,2.61065 -0.0171,3.91529 -0.016,0.63585 -0.002,1.26865 -0.003,1.90576 -0.002,0.35094 -0.005,0.70169 -0.012,1.05172 4.96561,-0.36327 3.7961,4.2938 5.01347,-0.74559 0,0 -4.84674,-1.00887 -4.84674,-1.00887 l 0,0 c -0.78733,6.7399 -0.20924,0.97825 4.74246,1.75446 -0.007,-0.35003 -0.0103,-0.70078 -0.012,-1.05172 -0.002,-0.63711 0.013,-1.26991 -0.003,-1.90576 -0.0118,-1.30464 -0.009,-2.61028 -0.0171,-3.91529 -2.1e-4,-1.66268 7.7e-4,-3.32604 0.0157,-4.98764 0.002,-0.49597 0.0163,-0.99042 0.0128,-1.48551 -0.004,-0.41453 -0.004,-0.82848 -0.002,-1.24276 -10e-4,-0.36872 0.006,-0.73548 -0.005,-1.10331 -0.0123,-1.06484 -0.0118,-2.13061 -0.0151,-3.19624 0.007,-1.10316 0.0139,-2.20459 -10e-4,-3.30767 -10e-4,-1.28911 -0.002,-2.60307 0.0607,-3.87148 0.0566,-0.72312 0.23013,-1.15377 0.21577,-1.99719 -5.2e-4,-0.61584 -0.002,-1.23132 -0.001,-1.8473 -0.006,-0.83444 -0.005,-1.66947 -0.01,-2.50414 -0.0112,-1.30802 -0.006,-2.61551 -1.9e-4,-3.9235 0.0111,-1.37387 0.026,-2.75184 0.0959,-4.10366 0.0866,-1.60259 0.19855,-3.18038 0.14478,-4.83734 -0.007,-2.25506 -0.01,-4.50935 -0.002,-6.76458 0.006,-1.12723 -0.007,-2.26286 0.0228,-3.38426 0.0765,0.46693 0.15943,0.65345 0.30384,0.51152 0.3129,-0.16642 0.44623,-0.85904 0.47712,-2.0804 -0.0103,-0.91434 -0.009,-1.82997 0.002,-2.74417 0.0123,-1.16715 0.0385,-2.33829 0.1284,-3.45916 0.0853,-1.10299 0.14753,-2.19661 0.1248,-3.3562 -0.001,-1.05181 -7.7e-4,-2.11326 0.0432,-3.15331 0.055,-1.27557 0.16763,-2.49955 0.207,-3.78649 2.6e-4,-1.10925 0.009,-2.21896 0.0166,-3.32782 0.0163,-1.81467 0.0591,-3.6318 0.16146,-5.40628 0.0861,-1.58604 0.10616,-3.17592 0.14578,-4.78619 0.0624,-1.59301 0.18235,-3.15665 0.19491,-4.76823 0.004,-0.95082 0.007,-1.90041 0.0131,-2.85076 0.01,-1.37897 0.0501,-2.75046 0.11641,-4.10583 0.0905,-1.70399 0.17114,-3.39064 0.18921,-5.13543 0.0821,-1.86126 0.20539,-3.71172 0.19558,-5.61435 0.0254,-2.15847 0.0691,-4.31615 0.16833,-6.44463 0.0858,-2.22241 0.0789,-4.44379 0.1035,-6.68555 0.0461,-1.99259 0.11509,-3.96775 0.27602,-5.87773 0.15273,-2.49365 0.27984,-5.01399 0.41332,-7.52414 0.17956,-2.98089 0.43352,-5.89687 0.43958,-8.99529 0.0997,-3.4766 0.16159,-6.94758 0.17311,-10.44751 0.0621,-3.65726 0.19348,-7.29751 0.20372,-10.96434 0.0118,-3.21397 0.0401,-6.43721 0.17144,-9.61644 0.11566,-2.45576 0.23226,-4.93099 0.42399,-7.31424 0.18042,-2.00134 0.3528,-4.01792 0.50482,-6.05456 0.20254,-2.272 0.40442,-4.54365 0.58528,-6.84375 0.26769,-3.48478 0.48966,-7.07846 0.5865,-10.69586 0.13189,-4.64868 0.23768,-9.30968 0.42319,-13.93264 0.13351,-4.59264 0.34261,-9.14344 0.51306,-13.7163 0.246,-5.6315 0.50054,-11.2552 0.84202,-16.81437 0.304,-5.78857 0.52318,-11.62664 0.73469,-17.47767 0.22306,-5.83895 0.42612,-11.69485 0.53295,-17.58604 0.15096,-5.81942 0.34156,-11.62212 0.46574,-17.45244 0.0824,-5.89902 0.11084,-11.78825 0.005,-17.68951 -0.0719,-6.16793 -0.1846,-12.32882 -0.18499,-18.50597 -0.0485,-6.36654 -0.1349,-12.72823 -0.3187,-19.06024 -0.16302,-6.581 -0.3007,-13.17093 -0.42109,-19.76558 -0.15543,-7.0862 -0.25879,-14.19521 -0.51168,-21.2429 -0.22483,-6.82639 -0.53021,-13.60536 -0.89439,-20.34005 -0.45702,-7.77184 -0.92718,-15.53359 -1.44067,-23.2528 -0.56871,-7.52917 -1.16675,-15.02311 -1.70608,-22.58588 -0.50484,-7.19613 -1.05955,-14.34034 -1.60737,-21.48799 -0.52822,-6.95277 -0.97193,-14.01676 -1.62101,-20.81818 -0.59079,-6.31837 -1.13364,-12.70001 -1.69561,-19.05765 -0.62703,-6.22327 -1.29844,-12.37611 -1.91547,-18.61475 -0.71325,-6.66929 -1.43917,-13.321777 -2.22824,-19.860707 -0.77325,-6.78439 -1.5705,-13.52719 -2.4191,-20.17442 -0.85992,-7.13007 -1.7171,-14.26325 -2.55351,-21.43587 -0.84543,-6.99402 -1.66141,-14.04239 -2.62595,-20.80569 -0.76517,-5.47264 -1.5492,-10.90612 -2.34569,-16.31031 -0.49983,-3.3555798 -1.06319,-6.5333998 -1.65167,-9.6598598 -0.33803,-2.0985 -0.71853,-4.09997003 -0.9529,-6.41785 -0.31672,-2.05826 -0.65009,-4.0629 -1.04481,-5.91196 0,0 -4.84477,1.27544 -4.84477,1.27544 z" />
    <path
       style="fill:#0048d8;stroke:#000000;stroke-width:1px;stroke-linecap:butt;stroke-linejoin:miter;stroke-opacity:1"
       d="M 320.45258,333.03829 C 374.32337,247.99116 474.40206,60.25946 584.41165,-8.496534"
       id="path6085" />
    <path
       style="fill:#009cf0;stroke:#000000;stroke-width:1px;stroke-linecap:butt;stroke-linejoin:miter;stroke-opacity:1"
       d="M 318.5124,288.32992 C 404.47462,177.92368 528.53333,-16.186939 682.21173,-101.56383"
       id="path6087" />
    <flowRoot
       xml:space="preserve"
       id="flowRoot6089"
       style="font-size:40px;font-style:normal;font-weight:normal;fill:#000000;fill-opacity:1;stroke:none;font-family:Bitstream Vera Sans"><flowRegion
         id="flowRegion6091"><rect
           id="rect6093"
           width="224.66747"
           height="139.03188"
           x="58.433689"
           y="18.690399" /></flowRegion><flowPara
         style="font-size:40px;font-style:normal;font-variant:normal;font-weight:normal;font-stretch:normal;font-family:Serif;-inkscape-font-specification:Serif"
         id="flowPara6132">varfu</flowPara><flowPara
         style="font-size:20px;font-style:normal;font-variant:normal;font-weight:normal;font-stretch:normal;font-family:Serto Kharput;-inkscape-font-specification:Serto Kharput"
         id="flowPara6138">free tech</flowPara></flowRoot>  </g>
</svg>
