<?xml version="1.0" encoding="UTF-8" standalone="no"?>
<!-- Created with Inkscape (http://www.inkscape.org/) -->

<svg
   xmlns:dc="http://purl.org/dc/elements/1.1/"
   xmlns:cc="http://creativecommons.org/ns#"
   xmlns:rdf="http://www.w3.org/1999/02/22-rdf-syntax-ns#"
   xmlns:svg="http://www.w3.org/2000/svg"
   xmlns="http://www.w3.org/2000/svg"
   xmlns:sodipodi="http://sodipodi.sourceforge.net/DTD/sodipodi-0.dtd"
   xmlns:inkscape="http://www.inkscape.org/namespaces/inkscape"
   width="744.09448819"
   height="1052.3622047"
   id="svg2"
   version="1.1"
   inkscape:version="0.47 r22583"
   sodipodi:docname="New document 1">
  <defs
     id="defs4">
    <inkscape:perspective
       sodipodi:type="inkscape:persp3d"
       inkscape:vp_x="0 : 526.18109 : 1"
       inkscape:vp_y="0 : 1000 : 0"
       inkscape:vp_z="744.09448 : 526.18109 : 1"
       inkscape:persp3d-origin="372.04724 : 350.78739 : 1"
       id="perspective10" />
  </defs>
  <sodipodi:namedview
     id="base"
     pagecolor="#ffffff"
     bordercolor="#666666"
     borderopacity="1.0"
     inkscape:pageopacity="0.0"
     inkscape:pageshadow="2"
     inkscape:zoom="0.9983453"
     inkscape:cx="189.69337"
     inkscape:cy="520"
     inkscape:document-units="px"
     inkscape:current-layer="layer1"
     showgrid="false"
     inkscape:snap-bbox="true"
     inkscape:snap-grids="true"
     inkscape:snap-to-guides="true"
     inkscape:snap-midpoints="false"
     inkscape:snap-smooth-nodes="false"
     inkscape:object-nodes="false"
     inkscape:object-paths="false"
     inkscape:window-width="1916"
     inkscape:window-height="1156"
     inkscape:window-x="4"
     inkscape:window-y="0"
     inkscape:window-maximized="0" />
  <metadata
     id="metadata7">
    <rdf:RDF>
      <cc:Work
         rdf:about="">
        <dc:format>image/svg+xml</dc:format>
        <dc:type
           rdf:resource="http://purl.org/dc/dcmitype/StillImage" />
        <dc:title></dc:title>
      </cc:Work>
    </rdf:RDF>
  </metadata>
  <g
     inkscape:label="Layer 1"
     inkscape:groupmode="layer"
     id="layer1">
    <rect
       style="fill:#4fc3ff;fill-opacity:0.07053941;fill-rule:nonzero;stroke:#95efff;stroke-width:9;stroke-miterlimit:13.89999962;stroke-opacity:1;stroke-dasharray:none;stroke-dashoffset:0"
       id="rect2816"
       width="197.32645"
       height="790.30768"
       x="-728.53381"
       y="125.82906"
       rx="61.101097"
       ry="1.468888"
       transform="scale(-1,1)" />
    <path
       style="fill:#4fc3ff;fill-opacity:0.07053941;fill-rule:nonzero;stroke:#95efff;stroke-width:11.20589447;stroke-miterlimit:13.89999962;stroke-opacity:1;stroke-dasharray:none;stroke-dashoffset:0"
       id="path3592"
       d="m 689.22883,124.13245 c -5.06514,-0.77984 -9.92938,-1.87552 -14.54854,-3.35208 -3.48795,-1.17111 -6.96305,-2.37684 -10.69292,-3.23946 -3.96545,-0.85025 -7.8961,-1.75942 -11.8789,-2.57961 -4.59199,-1.12913 -9.43826,-1.73285 -14.18163,-2.56828 -5.42711,-0.96205 -10.92356,-1.70071 -16.46455,-2.36531 -6.36792,-0.77128 -12.85808,-1.0085 -19.33052,-1.1811 -4.76503,0.0124 -9.46632,-0.49041 -14.18931,-0.79698 -5.28026,-0.15219 -10.52608,-0.5485 -15.78798,-0.84176 -4.13738,-0.22445 -8.28471,-0.35326 -12.43699,-0.40111 -8.26694,-0.0396 -16.53436,-0.0199 -24.80149,-0.0152 -5.85471,0.004 -11.70944,0.004 -17.56416,0.004 -5.32176,5.5e-4 -10.64355,1.4e-4 -15.96534,2.7e-4 2.19828,8e-5 4.39654,-6e-5 6.5948,2.4e-4 0.93752,1.3e-4 -1.87506,3e-4 -2.81257,2.9e-4 -3.69615,0 -7.39229,-1.7e-4 -11.08842,1.4e-4 -8.63473,-0.27152 -17.14586,0.54079 -25.73422,0.81159 -5.649,0.23153 -11.31205,0.57659 -16.93036,1.02253 -7.13144,0.5777 -14.31123,0.83537 -21.46553,1.28463 -7.58501,0.15543 -14.97354,1.1749 -22.42756,1.94119 -5.75442,0.4201 -11.45424,1.04569 -17.22676,1.37431 -7.21295,0.68214 -14.48987,0.99549 -21.77594,1.1864 -7.82002,0.16531 -15.64602,0.16876 -23.46977,0.17517 -1.3707,3.9e-4 -5.48281,-5.1e-4 -4.11212,9.8e-4 1.6228,0.002 3.24562,0.006 4.86836,-2.7e-4 1.50332,-0.006 -3.00668,-6.9e-4 -4.51001,-9.8e-4 -4.55774,-9.7e-4 -9.06652,-0.10581 -13.61627,-0.26557 -8.8291,-0.29412 -17.35668,-1.72863 -25.96328,-2.83953 -9.01162,-1.12169 -18.03411,-2.13391 -26.93298,-3.55477 -8.22943,-1.47503 -16.60952,-2.60693 -24.88689,-3.97075 -7.87582,-1.39605 -15.65414,-2.98379 -23.54576,-4.346712 -6.15623,-1.152645 -12.10158,-2.74514 -17.90315,-4.443347 -6.84444,-1.932838 -13.7927,-3.742705 -20.51611,-5.828941 -6.01286,-2.1067 -12.51609,-3.57151 -18.77847,-5.362789 -6.98906,-1.927509 -13.96135,-3.87792 -20.98241,-5.761899 -6.88712,-1.965111 -13.91533,-3.718564 -20.93292,-5.502557 -8.65052,-2.116087 -17.1022,-4.508631 -25.70622,-6.690884 -6.7251,-1.45719 -13.37155,-2.987578 -19.90481,-4.737608 -6.34644,-1.673892 -12.87249,-3.05958 -19.20889,-4.746421 -4.25445,-1.183179 -8.61393,-2.171649 -13.05012,-3.06707 -3.42354,-0.739664 -6.50198,-1.931987 -9.82003,-2.824895 0,0 -9.39706,0.670343 -9.39706,0.670343 l 0,0 c 3.38206,0.847016 6.45229,2.040599 9.83161,2.875222 4.45626,0.869021 8.83001,1.834989 13.0983,3.007566 6.34889,1.686593 12.86055,3.100566 19.24215,4.741866 6.54628,1.764674 13.16476,3.360189 19.95738,4.746813 8.61506,2.164174 17.06357,4.554424 25.70038,6.68793 6.98526,1.809717 14.03997,3.51057 20.89522,5.498397 7.04132,1.846203 13.97329,3.845383 20.97688,5.744356 6.24536,1.813822 12.75312,3.258696 18.78409,5.34268 6.68052,2.126813 13.64961,3.90344 20.47795,5.84548 5.80876,1.736261 11.7948,3.330327 17.94892,4.54332 7.92947,1.32922 15.72641,2.92662 23.61392,4.34371 8.25203,1.4033 16.64661,2.48775 24.86114,3.97954 2.75712,0.44052 5.48675,0.94967 8.26942,1.32606 6.19987,0.83857 12.52622,1.33764 18.70161,2.25381 8.62362,1.09448 17.13571,2.58751 25.96963,2.92362 11.92453,0.44232 23.85842,0.31469 35.804,0.30193 7.82396,-0.01 15.6505,-0.0174 23.46988,-0.20008 7.30755,-0.20896 14.59416,-0.56914 21.83724,-1.21115 5.7658,-0.35938 11.47815,-0.9581 17.22366,-1.41628 7.43124,-0.78772 14.82117,-1.72593 22.38467,-1.90599 7.16853,-0.44505 14.36572,-0.6961 21.50754,-1.29335 5.63273,-0.4067 11.28647,-0.78962 16.94933,-0.98074 3.6528,-0.12798 7.28671,-0.32355 10.92919,-0.53114 0.91635,-0.0523 3.66461,-0.0929 2.7496,-0.15315 -2.17109,-0.14295 -4.36625,-0.0647 -6.54937,-0.097 8.63689,7.6e-4 17.27376,1.3e-4 25.91065,7.5e-4 5.32034,1.3e-4 10.64067,-2.4e-4 15.96101,-8e-4 5.8486,-9.7e-4 11.69722,-0.005 17.54583,-0.006 2.91408,-8.9e-4 13.62368,-0.008 -0.70224,-9.8e-4 -1.21773,6e-4 2.33336,-9.7e-4 4.81158,0.006 0.68087,0.002 1.36175,0.006 2.04263,0.009 4.16982,0.034 8.33628,0.1384 12.49258,0.35363 5.24487,0.27694 10.46292,0.72229 15.72648,0.84015 4.75632,0.27957 9.47821,0.83075 14.26973,0.82457 6.45507,0.1506 12.93137,0.35484 19.29022,1.09377 5.52392,0.68754 11.04619,1.33444 16.45849,2.31738 4.73137,0.83473 9.55576,1.43776 14.1423,2.54986 3.9947,0.78338 7.89178,1.73172 11.85693,2.56767 3.77514,0.76488 7.22122,2.00083 10.70553,3.15499 4.63606,1.50506 9.45349,2.66672 14.5371,3.50851 0,0 9.39464,-0.77755 9.39464,-0.77755 l 0,-1.3e-4 z"
       sodipodi:nodetypes="ccccccccccssssscccccccsssscccccccccccccccccccccccccccccscccccccccsscssssssccccccccccc" />
  </g>
</svg>
