<?xml version="1.0" encoding="UTF-8" standalone="no"?>
<!-- Created with Inkscape (http://www.inkscape.org/) -->

<svg
   xmlns:dc="http://purl.org/dc/elements/1.1/"
   xmlns:cc="http://creativecommons.org/ns#"
   xmlns:rdf="http://www.w3.org/1999/02/22-rdf-syntax-ns#"
   xmlns:svg="http://www.w3.org/2000/svg"
   xmlns="http://www.w3.org/2000/svg"
   xmlns:sodipodi="http://sodipodi.sourceforge.net/DTD/sodipodi-0.dtd"
   xmlns:inkscape="http://www.inkscape.org/namespaces/inkscape"
   width="744.09448819"
   height="1052.3622047"
   id="svg2"
   version="1.1"
   inkscape:version="0.47+devel r9247"
   sodipodi:docname="New document 1">
  <defs
     id="defs4">
    <inkscape:path-effect
       effect="spiro"
       id="path-effect3008"
       is_visible="true" />
    <inkscape:path-effect
       effect="spiro"
       id="path-effect3004"
       is_visible="true" />
    <inkscape:path-effect
       effect="spiro"
       id="path-effect2988"
       is_visible="true" />
    <inkscape:path-effect
       effect="spiro"
       id="path-effect2984"
       is_visible="true" />
    <inkscape:path-effect
       effect="spiro"
       id="path-effect2980"
       is_visible="true" />
    <inkscape:path-effect
       effect="spiro"
       id="path-effect2970"
       is_visible="true" />
    <inkscape:path-effect
       effect="spiro"
       id="path-effect2966"
       is_visible="true" />
    <inkscape:path-effect
       effect="spiro"
       id="path-effect2962"
       is_visible="true" />
    <inkscape:path-effect
       effect="spiro"
       id="path-effect2958"
       is_visible="true" />
    <inkscape:path-effect
       effect="spiro"
       id="path-effect2954"
       is_visible="true" />
    <inkscape:path-effect
       effect="spiro"
       id="path-effect2950"
       is_visible="true" />
    <inkscape:path-effect
       effect="spiro"
       id="path-effect2946"
       is_visible="true" />
    <inkscape:path-effect
       effect="spiro"
       id="path-effect2942"
       is_visible="true" />
    <inkscape:path-effect
       effect="spiro"
       id="path-effect2934"
       is_visible="true" />
  </defs>
  <sodipodi:namedview
     id="base"
     pagecolor="#ffffff"
     bordercolor="#666666"
     borderopacity="1.0"
     inkscape:pageopacity="0.0"
     inkscape:pageshadow="2"
     inkscape:zoom="1.1809211"
     inkscape:cx="385.10289"
     inkscape:cy="618.03124"
     inkscape:document-units="px"
     inkscape:current-layer="layer2"
     showgrid="false"
     inkscape:window-width="828"
     inkscape:window-height="920"
     inkscape:window-x="113"
     inkscape:window-y="29"
     inkscape:window-maximized="0" />
  <metadata
     id="metadata7">
    <rdf:RDF>
      <cc:Work
         rdf:about="">
        <dc:format>image/svg+xml</dc:format>
        <dc:type
           rdf:resource="http://purl.org/dc/dcmitype/StillImage" />
        <dc:title></dc:title>
      </cc:Work>
    </rdf:RDF>
  </metadata>
  <g
     inkscape:label="Layer 1"
     inkscape:groupmode="layer"
     id="layer1">
    <rect
       style="fill:#dde4ec;fill-opacity:1;fill-rule:nonzero;stroke:none"
       id="rect2915"
       width="597.08069"
       height="630.42023"
       x="82.843681"
       y="220.89449" />
    <path
       style="fill:#dde4ec;fill-opacity:1;fill-rule:nonzero;stroke:none"
       id="path2917"
       d="m 7.6773583,290.19186 c -1.0058502,0.85051 -2.0796384,1.61671 -3.1500299,2.3831 0.018392,-0.0674 0.036784,-0.13489 0.055176,-0.20233 0,0 -6.0416013,0.11261 -6.0416013,0.11261 l 0,0 c 1.734e-4,-0.16407 3.467e-4,-0.32813 5.201e-4,-0.4922 1.08326851,-0.71369 2.14679388,-1.45943 3.1590185,-2.27157 0,0 5.9769161,0.47039 5.9769161,0.47039 z"
       inkscape:connector-curvature="0" />
    <path
       style="fill:#dde4ec;fill-opacity:1;fill-rule:nonzero;stroke:none"
       id="path2919"
       d="m 138.83441,511.58211 c 0.25565,0.0529 0.51028,0.111 0.76696,0.1587 1.20371,0.22371 4.59215,0.34391 3.10364,0.26589 -4.74653,-0.24879 -6.20985,0.25558 -3.20999,-0.49893 3.81686,-1.44174 7.17387,-3.90309 10.6004,-6.08209 5.54729,-3.49001 10.99261,-7.12628 16.31684,-10.94685 6.03461,-4.18686 11.84966,-8.66251 17.53925,-13.30376 5.62302,-4.44201 10.97456,-9.20358 16.19871,-14.1037 4.46228,-4.2037 8.84656,-8.48963 12.76265,-13.21168 3.91368,-4.65156 7.41597,-9.60377 10.8839,-14.58875 3.03902,-4.2792 6.26377,-8.42301 9.20691,-12.76985 2.23337,-3.65146 4.42146,-7.332 6.5931,-11.02035 2.39219,-3.85423 4.8118,-7.68789 7.19885,-11.54586 2.53064,-3.98103 4.62417,-8.20731 6.84913,-12.35865 2.41296,-4.25111 4.74141,-8.51953 6.59331,-13.04568 1.89541,-4.66163 3.69437,-9.35377 5.24171,-14.14228 1.83052,-5.54636 3.33818,-11.19583 4.63164,-16.88982 1.22498,-6.77205 2.42988,-13.54747 3.45167,-20.35356 0.91451,-7.20485 1.75838,-14.41833 2.72942,-21.6159 0.88808,-7.26334 1.50182,-14.56119 2.08521,-21.85526 0.42963,-5.59039 0.83364,-11.19265 1.45995,-16.76537 0.0918,-0.79228 0.18353,-1.58455 0.27529,-2.37683 0,0 5.75188,0.0673 5.75188,0.0673 l 0,0 c -0.0943,0.79142 -0.18868,1.58284 -0.28302,2.37426 -0.63448,5.56961 -1.14684,11.15896 -1.58277,16.74683 -0.6185,7.30189 -1.27763,14.60462 -2.12309,21.88329 -0.95398,7.20243 -1.81385,14.41637 -2.71812,21.62509 -1.0239,6.81618 -2.18734,13.60868 -3.39455,20.39446 -1.25623,5.71366 -2.76562,11.37476 -4.562,16.94324 -1.53131,4.80542 -3.32647,9.51225 -5.21827,14.18714 -1.84976,4.55033 -4.16424,8.84341 -6.60462,13.10503 -2.22295,4.16136 -4.28876,8.41113 -6.83228,12.39532 -2.37775,3.85339 -4.78294,7.68523 -7.16672,11.53432 -2.16635,3.70686 -4.40085,7.37691 -6.61331,11.05683 -2.9587,4.36451 -6.26594,8.47328 -9.32124,12.76924 -3.46012,5.00387 -6.9526,9.97719 -10.87478,14.63644 -3.90632,4.76754 -8.30606,9.07794 -12.80779,13.28155 -5.25179,4.90044 -10.61596,9.67999 -16.25386,14.13604 -5.67556,4.66699 -11.49289,9.14654 -17.52979,13.3394 -5.28715,3.82295 -10.68267,7.47955 -16.18291,10.9906 -3.40801,2.20483 -6.74519,4.64839 -10.4755,6.27086 -3.99111,1.22188 -8.37838,0.96076 -12.43044,0.10615 0,0 5.94463,-0.7928 5.94463,-0.7928 z"
       inkscape:connector-curvature="0" />
  </g>
  <g
     inkscape:groupmode="layer"
     id="layer2"
     inkscape:label="Ad::thrilldesigns.com">
    <path
       style="fill:#dde4ec;fill-opacity:1;fill-rule:nonzero;stroke:none"
       id="path2922"
       d="m 118.73913,377.85997 c 5.4033,-3.85018 10.62274,-7.95485 15.87205,-12.01169 13.85535,-10.88107 27.42627,-22.11402 41.34231,-32.91762 15.29669,-11.69313 31.01519,-23.01343 48.08577,-32.01195 3.30478,-1.74207 6.70789,-3.29086 10.06183,-4.93628 15.50906,-6.78028 32.00762,-12.10403 48.96256,-13.6141 3.01877,-0.26887 6.05733,-0.22288 9.08599,-0.33431 13.22066,-0.2464 26.04736,1.95083 38.08619,7.47861 6.53353,2.99996 8.18791,4.39097 14.17279,8.29289 8.4354,6.28734 15.61155,14.1419 21.25375,23.02162 3.17728,5.00042 4.35662,7.82353 6.91813,13.11996 6.30051,13.97598 7.98095,29.29602 10.18518,44.30009 2.07416,13.76866 3.94153,27.74136 8.41639,40.99181 1.08563,3.21465 2.40613,6.34513 3.60919,9.5177 5.43338,12.59496 12.35746,24.60757 21.39583,34.98157 5.29094,6.07281 7.39029,7.55598 13.41969,12.84134 13.05649,10.28731 28.20251,17.53134 44.33136,21.52253 3.59936,0.89069 7.26339,1.49604 10.89509,2.24405 11.73402,1.9964 23.65636,2.87778 35.55832,2.60395 2.5272,-0.0581 5.0429,-0.36337 7.56079,-0.58776 13.41582,-1.19559 9.78357,-0.85145 22.91248,-2.75424 13.33096,-2.14245 26.55196,-5.21667 39.27777,-9.77151 7.08402,-2.53553 8.90281,-3.51067 15.6125,-6.53765 8.98241,-4.22865 17.35173,-9.56508 25.34236,-15.42262 1.12605,-0.84141 2.24638,-1.69198 3.31905,-2.60099 0,0 5.97715,0.53327 5.97715,0.53327 l 0,0 c -1.17012,0.90941 -2.38488,1.75927 -3.59648,2.61203 -8.31673,5.75498 -16.88022,11.16982 -26.06741,15.45223 -6.6978,2.99582 -8.72634,4.05262 -15.77758,6.56991 -12.81333,4.57435 -26.12434,7.66078 -39.54281,9.81809 -3.75839,0.54676 -7.50474,1.18388 -11.27518,1.64028 -21.19432,2.56553 -42.79238,2.54826 -63.87552,-0.92569 -3.65551,-0.75751 -7.34388,-1.37089 -10.96654,-2.27252 -16.20968,-4.03435 -31.42499,-11.33945 -44.52868,-21.71106 -6.08543,-5.37407 -8.06363,-6.74888 -13.37585,-12.93281 -8.98219,-10.45611 -15.77714,-22.56802 -21.33172,-35.1272 -1.26109,-3.18426 -2.65619,-6.31865 -3.78328,-9.55277 -4.61212,-13.2342 -6.40352,-27.27972 -8.53325,-41.05833 -2.21583,-14.96149 -4.00866,-30.20045 -10.27076,-44.14358 -2.55093,-5.29107 -3.69189,-8.04996 -6.86862,-13.03951 -5.61702,-8.82243 -12.7583,-16.6213 -21.17304,-22.83492 -2.27754,-1.47285 -4.48599,-3.05846 -6.8326,-4.41855 -10.95515,-6.34953 -23.06801,-9.79406 -35.61941,-11.10258 -3.04238,0.0925 -6.09392,0.0243 -9.12715,0.27761 -16.92484,1.41358 -33.66674,6.72443 -49.16463,13.43689 -3.36429,1.63538 -6.77832,3.17218 -10.09289,4.90615 -17.06627,8.92799 -32.77732,20.20826 -47.98882,31.95156 -13.72844,10.77455 -27.1069,21.97617 -40.65152,32.97937 -5.07607,4.03773 -10.13039,8.1043 -15.25294,12.08078 0,0 -5.95784,-0.55405 -5.95784,-0.55405 z"
       inkscape:connector-curvature="0" />
    <path
       style="fill:none;stroke:#000000;stroke-width:1px;stroke-linecap:butt;stroke-linejoin:miter;stroke-opacity:1"
       d="m 118.20379,280.50152 c 54.71946,19.89327 156.87881,1.50285 216.20181,-22.22635"
       id="path2926"
       inkscape:connector-curvature="0" />
    <path
       style="fill:none;stroke:#000000;stroke-width:1px;stroke-linecap:butt;stroke-linejoin:miter;stroke-opacity:1"
       d="m 123.25524,395.67445 c 128.51456,9.80408 352.25328,-2.02058 520.29874,-2.02058"
       id="path2928"
       inkscape:connector-curvature="0" />
    <path
       style="fill:#f44800;fill-opacity:1;fill-rule:nonzero;stroke:none"
       id="path2936"
       d="m 172.28933,509.03187 c 6.32916,-7.23138 14.0543,-12.96012 21.80596,-18.55083 6.3776,-4.24057 12.93986,-8.54399 20.29797,-10.91132 3.91931,-1.26096 5.06245,-1.18177 9.0977,-1.62171 3.36705,0.0883 6.74259,0.0104 10.10117,0.26505 3.21044,0.2434 7.4903,1.48604 10.49402,2.43449 6.57486,2.07607 12.90244,4.79553 19.25491,7.45336 14.99037,6.37986 28.96657,14.7989 43.43852,22.22258 13.62081,6.86309 28.07643,12.22343 43.26507,14.22613 3.01976,0.39817 6.06851,0.53202 9.10277,0.79803 14.37326,0.20236 28.33082,-3.76819 41.02437,-10.36465 3.13954,-1.63153 6.12501,-3.54384 9.18751,-5.31577 12.18877,-7.7163 23.16613,-17.07248 33.91139,-26.63869 0,0 4.70177,0.39821 4.70177,0.39821 l 0,0 c -10.79402,9.55003 -21.79819,18.91393 -33.94915,26.72879 -7.63741,4.4824 -10.20195,6.35876 -18.35513,9.70238 -13.38194,5.48794 -26.95901,6.93071 -41.34659,6.20972 -3.03429,-0.28027 -6.08361,-0.42909 -9.10288,-0.84081 -15.21406,-2.07468 -29.68305,-7.50469 -43.3433,-14.36303 -14.51415,-7.42763 -28.55122,-15.82537 -43.60284,-22.16355 -6.41738,-2.64784 -12.81274,-5.34756 -19.46673,-7.36202 -16.1514,-4.88976 4.45506,1.48059 -10.60411,-2.30368 -0.24479,-0.0615 0.46771,-0.18995 0.70157,-0.28493 -3.97387,0.36739 -5.27463,0.28743 -9.15081,1.46774 -7.42247,2.26016 -14.0555,6.52833 -20.47194,10.75528 -7.57011,5.47665 -15.20127,11.06798 -21.04317,18.46118 0,0 -5.94805,-0.40195 -5.94805,-0.40195 z"
       inkscape:connector-curvature="0" />
    <path
       style="fill:none;stroke:#000000;stroke-width:1px;stroke-linecap:butt;stroke-linejoin:miter;stroke-opacity:1"
       d="m 120.22437,296.66615 5.05144,1.01028"
       id="path2940"
       inkscape:path-effect="#path-effect2942"
       inkscape:original-d="m 120.22437,296.66615 c -1.62266,8.89053 4.90198,0.98039 5.05144,1.01028"
       inkscape:connector-curvature="0" />
    <path
       style="fill:none;stroke:#000000;stroke-width:1px;stroke-linecap:butt;stroke-linejoin:miter;stroke-opacity:1"
       d="m 227.31498,291.6147 2.02058,23.23664"
       id="path2944"
       inkscape:path-effect="#path-effect2946"
       inkscape:original-d="m 227.31498,291.6147 2.02058,23.23664"
       inkscape:connector-curvature="0" />
    <path
       style="fill:none;stroke:#000000;stroke-width:1px;stroke-linecap:butt;stroke-linejoin:miter;stroke-opacity:1"
       d="m 228.32527,315.86163 -31.31895,6.06174 6.06173,71.7305"
       id="path2948"
       inkscape:path-effect="#path-effect2950"
       inkscape:original-d="m 228.32527,315.86163 -31.31895,6.06174 6.06173,71.7305"
       inkscape:connector-curvature="0" />
    <path
       style="fill:none;stroke:#000000;stroke-width:1px;stroke-linecap:butt;stroke-linejoin:miter;stroke-opacity:1"
       d="m 204.07834,395.67445 -28.28809,-1.01029 -1.01028,-72.74079 -43.44242,-2.02058 -1.01029,-24.24693 97.99801,-3.03087"
       id="path2952"
       inkscape:path-effect="#path-effect2954"
       inkscape:original-d="m 204.07834,395.67445 -28.28809,-1.01029 -1.01028,-72.74079 -43.44242,-2.02058 -1.01029,-24.24693 97.99801,-3.03087"
       inkscape:connector-curvature="0" />
    <path
       style="fill:none;stroke:#000000;stroke-width:1px;stroke-linecap:butt;stroke-linejoin:miter;stroke-opacity:1"
       d="m 241.45903,289.59412 5.05144,107.09062"
       id="path2956"
       inkscape:path-effect="#path-effect2958"
       inkscape:original-d="m 241.45903,289.59412 5.05144,107.09062"
       inkscape:connector-curvature="0" />
    <path
       style="fill:none;stroke:#000000;stroke-width:1px;stroke-linecap:butt;stroke-linejoin:miter;stroke-opacity:1"
       d="m 265.70596,394.66416 4.04115,-1.01029"
       id="path2960"
       inkscape:path-effect="#path-effect2962"
       inkscape:original-d="m 265.70596,394.66416 c 1.34705,-0.33676 2.6941,-0.67353 4.04115,-1.01029"
       inkscape:connector-curvature="0" />
    <path
       style="fill:none;stroke:#000000;stroke-width:1px;stroke-linecap:butt;stroke-linejoin:miter;stroke-opacity:1"
       d="m 246.51047,395.67445 25.25722,-1.01029"
       id="path2964"
       inkscape:path-effect="#path-effect2966"
       inkscape:original-d="m 246.51047,395.67445 25.25722,-1.01029"
       inkscape:connector-curvature="0" />
    <path
       style="fill:none;stroke:#000000;stroke-width:1px;stroke-linecap:butt;stroke-linejoin:miter;stroke-opacity:1"
       d="m 270.7574,354.25261 -1.01029,37.38068"
       id="path2968"
       inkscape:path-effect="#path-effect2970"
       inkscape:original-d="m 270.7574,354.25261 -1.01029,37.38068"
       inkscape:connector-curvature="0" />
    <path
       style="fill:#f44800;fill-opacity:1;fill-rule:nonzero;stroke:none"
       id="path2990"
       d="m 272.66291,352.02509 c 1.00721,-1.37778 1.43448,-2.13262 2.75,-3.25 0.35238,-0.2993 1.123,-1.19604 1.17521,-0.73666 0.15489,1.36269 0.50278,3.60788 -0.80021,4.03584 -3.98728,1.30963 0.56092,-4.50143 0.74202,-4.74847 1.04227,-1.38334 2.27916,-2.58007 3.55013,-3.74629 0.16988,-0.15588 0.60589,-0.67513 0.51282,-0.46418 -0.16908,0.38322 -0.50144,0.67109 -0.75216,1.00663 -1.11982,-0.75092 3.87286,-3.9525 4.27952,-2.48772 0.13683,0.49283 -1.09546,0.38818 -1.52987,0.11819 -0.26143,-0.16249 1.75608,-0.87709 0.40282,-0.374 0.0677,-0.40893 -0.40867,0.79274 -0.33588,0.58116 1.21425,-3.52945 1.21375,-3.80579 4.81174,-3.11106 1.64443,-0.45605 0.29593,5.41784 -1.34241,4.94036 -1.6465,-0.47987 0.46486,-3.42119 1.02682,-5.04151 0.0222,-0.064 1.02263,-0.007 1.18398,6.8e-4 0.72913,0.0371 1.45893,0.0251 2.18835,0.0139 4.3285,0.0322 3.0988,-1.13495 2.55295,5.19824 -0.0874,-1.1e-4 -0.26571,0.0871 -0.26235,-3.2e-4 0.23892,-6.22072 -0.69442,-5.19575 3.11403,-5.19571 1.17388,-5e-5 2.34776,-1.7e-4 3.52163,-8e-5 1.87782,-0.20952 3.44553,0.53158 4.75033,1.90067 1.89086,5.64326 0.4621,1.72771 0.5773,1.36941 0.0812,-0.2524 0.6155,0.57743 0.72164,0.33448 0.13266,-0.30367 -0.61622,-0.29061 -0.94744,-0.3012 -0.56712,0.55208 -1.5856,0.8733 -1.70138,1.65626 -0.14653,0.99087 0.11882,2.42495 1.03953,2.81941 1.12186,0.48063 2.59638,-0.10147 3.56187,-0.84805 0.51163,-0.39563 0.10527,-1.29599 0.0434,-1.93977 -0.015,-0.15634 -0.41649,-0.43662 -0.26709,-0.38817 0.34312,0.11128 0.6027,0.39649 0.90406,0.59474 4.19297,2.71664 -1.37893,8.78462 0.3248,1.20401 0.11636,-0.51772 0.82454,0.66817 1.23681,1.00226 0.41946,-0.61491 2.05212,4.21443 0.98361,3.56039 -3.84763,-2.35513 1.51011,-1.65676 -0.89254,-2.60085 -0.32344,-0.12709 -0.68822,-0.097 -1.03233,-0.14557 -2.02671,1.76891 -2.85476,1.41958 -1.48869,4.18147 0.1603,0.32408 0.56128,0.48387 0.90374,0.59981 2.57314,0.87115 3.34639,-3.60999 3.44122,-1.46218 0.0355,2.24167 -12.0652,-0.32694 -1.63218,-2.56344 0.79764,-0.17098 1.40127,0.8616 1.98494,1.43151 0.31099,0.30366 0.42862,0.75629 0.64294,1.13443 0.0819,0.45698 0.32305,0.91318 0.24563,1.37094 -0.11458,0.67735 -0.57354,1.25082 -0.79887,1.89978 -0.0486,0.14006 0.23412,-0.21293 0.26362,-0.35823 0.33057,-1.62818 0.40156,-1.5663 0.15714,-1.80123 -5.76305,4.41817 -4.7965,3.32389 1.03997,2.75532 0.077,-0.007 0.0634,0.30203 0.0376,0.22908 -0.15236,-0.43068 -0.30504,-0.86124 -0.45756,-1.29186 0.70154,1.31484 0.49779,2.63477 0.49897,4.03956 0.0123,2.96069 0.46516,1.47094 -5.19175,1.20119 0.83559,-2.43425 5.19505,-1.19656 5.19696,1.02547 0,0 -5.19607,0.004 -5.19607,0.004 l 0,0 c -0.002,-2.19301 4.09883,-3.60212 5.19512,-1.05753 -5.69485,0.28568 -5.17395,1.76111 -5.20032,-1.18621 0.003,-0.69629 -0.22148,-3.41566 0.49288,-0.97346 -0.002,-0.005 -1.07168,-2.57385 -0.49738,-2.86778 1.47982,-0.75737 3.09472,-1.31787 4.74132,-1.54631 0.31289,-0.0434 0.65547,0.56841 0.46907,0.82344 -0.97449,1.33321 -2.3844,2.28535 -3.5766,3.42803 -1.82674,-1.17031 -2.39994,-1.98856 -2.59951,-4.53883 -0.0308,-0.39386 0.20338,-1.30514 0.51788,-1.06605 0.56375,0.42856 -1.06807,1.63216 -0.039,2.12409 0.31258,0.14188 0.94869,0.43951 1.1061,0.32551 8.32944,-6.03229 -2.58443,-0.11391 -2.59224,-2.31869 -0.25635,-6.17019 6.31052,-3.81635 5.30365,-0.43699 -0.27864,0.93519 -1.41213,1.34713 -2.11819,2.0207 -3.54265,-0.15676 -2.50014,-0.58636 -3.95458,-3.6866 -0.28103,-0.59903 0.55025,2.49102 0.45608,1.50375 1.3153,-0.80478 -0.70044,0.48046 -1.51965,-3.86119 -0.0786,-0.41661 0.54256,-1.43235 0.72102,-1.04778 2.45433,5.28878 1.15117,4.10836 -0.0433,3.27735 -0.42096,-0.28147 -1.80393,-1.1833 -1.92246,-1.41843 -0.99927,-1.98221 -1.83943,-5.94714 3.17024,-4.81907 4.30452,0.96928 0.0232,4.48218 -0.42415,4.97567 -0.46487,0.0771 -0.9241,0.25711 -1.39461,0.23126 -2.26159,-0.12424 -4.21582,-1.68886 -4.93631,-3.8143 -0.0852,-0.25143 0.34081,0.40714 0.51122,0.61072 -0.0789,-0.40734 -0.0677,-0.14229 0.8685,-0.0993 0.22899,0.0105 -1.67877,-0.007 -1.68543,0 -1.17375,-10e-5 -2.3475,3e-5 -3.52125,8e-5 -3.80728,-4e-5 -2.87711,1.02221 -3.10761,-5.19644 -0.003,-0.0877 0.17544,2.1e-4 0.26316,3.2e-4 0.53399,6.32739 1.78068,5.15965 -2.49854,5.19354 -0.85243,0.004 -1.70542,0.029 -2.55733,-0.0227 -1.6494,-0.196 1.63633,-5.23785 -0.005,-4.98302 -11.95798,1.85655 2.87678,6.11832 -2.10077,4.85765 -0.35489,-0.13343 -1.40616,-0.23552 -1.06468,-0.40029 0.4571,-0.22056 1.01769,0.30265 1.51134,0.18477 5.7983,-1.38461 -4.02002,-0.0782 1.39853,-2.56473 0.89996,-0.41298 -0.40213,3.31463 -0.28217,2.95714 -1.7743,2.23237 -1.35458,1.79393 -4.27549,2.76372 -0.1133,0.0376 0.23312,-0.0626 0.33679,-0.12176 0.3625,-0.20698 0.79447,-0.34791 1.05584,-0.67339 0.24672,-0.30723 0.25532,-0.74557 0.38298,-1.11835 -0.3028,0.71054 -0.5417,1.45186 -0.9084,2.13163 -0.47481,0.88017 -3.05624,2.3266 -3.35893,3.43016 -1.25381,1.7091 -0.59366,1.28039 -1.25798,-1.99848 -0.91871,1.1093 -0.41739,2.85165 -0.55021,4.28585 -0.009,0.0977 0.24883,-0.30159 0.17521,-0.23667 -0.35014,0.30881 -0.70709,0.61534 -1.00866,0.97174 -0.61742,0.72968 -1.16089,1.51884 -1.74134,2.27826 0,0 -3.67418,-3.67418 -3.67418,-3.67418 z"
       inkscape:connector-curvature="0" />
    <path
       style="fill:#f44800;fill-opacity:1;fill-rule:nonzero;stroke:none"
       id="path2992"
       d="m 320.93137,348.53865 c 0.5,0.66667 1.92268,1.28182 1.5,2 -1.77575,3.01721 -5.18954,4.78403 -7.1855,7.66031 -0.32582,0.46952 0.69177,0.9463 0.82789,1.50134 0.46219,1.88463 -0.21002,3.34455 -0.60283,5.11266 -0.0902,2.9233 0.17924,5.83609 0.16614,8.76496 -0.0525,1.857 -0.0469,3.7134 -0.0381,5.57072 0.005,1.36161 -0.002,2.72322 -0.002,4.08484 0.001,0.60133 6.6e-4,1.20267 5.9e-4,1.804 -3e-5,0.83495 3e-5,1.6699 3e-5,2.50484 -3e-5,0.89247 -10e-6,1.78494 -10e-6,2.6774 0,1.01885 0,2.03769 0,3.05653 2.1e-4,1.7805 0.15302,5.30907 -5.19608,0.10742 -0.95588,-0.92953 2.45472,-3.33293 3.54224,-2.81272 1.04277,0.49881 1.79926,1.45171 2.69889,2.17756 0.2779,2.18076 0.32203,0.9764 -0.11857,2.90547 -0.132,0.57795 0.009,0.0275 0.0186,-0.27291 0.216,0.81582 -0.0358,1.34446 -0.12794,2.16432 0.1808,-0.8047 0.15619,-0.36489 0.1663,-0.13477 -0.004,-0.0678 0.0557,-0.20055 -0.0121,-0.20348 -1.71739,-0.0743 -3.43806,-0.002 -5.15696,-0.0202 -0.0213,-2.4e-4 5.78688,-2.03081 3.67765,-2.3228 -0.49054,1.54679 -0.98108,3.09358 -1.47162,4.64037 0.10507,0.0577 0.25994,0.27966 0.31521,0.17326 0.80937,-1.5582 1.33141,-3.25237 2.10335,-4.82945 0.0264,-0.0539 0.88688,-0.0352 1.02555,-0.0494 -1.77124,0.0708 1.60961,-0.0285 1.93382,-0.0265 0.32921,-0.005 0.14712,-0.002 0.68796,-0.007 2.4898,-0.0189 2.21403,5.17954 0.15416,5.19595 0,0 -0.0414,-5.19592 -0.0414,-5.19592 l 0,0 c 2.04787,-0.0163 2.40121,5.17725 -0.0714,5.19589 -0.47764,0.004 -0.39618,0.003 -0.77008,0.007 -0.31213,-0.003 -0.62435,-0.009 -0.93612,-0.0245 -0.0636,-0.003 -0.24368,0.0306 -0.19088,-0.005 0.11063,-0.0745 0.51328,-0.13808 0.38077,-0.12291 -0.24214,0.0277 -0.47548,0.10732 -0.71322,0.16098 -0.25815,0.0194 -2.53796,0.14819 -2.53745,-0.0456 0.005,-1.72158 0.38332,-3.44001 0.87338,-5.09037 0.0588,-0.19801 0.57558,0.0629 0.55837,0.2687 -0.14001,1.67434 -0.66272,3.29438 -0.99408,4.94156 -0.0121,-2.1e-4 -2.03896,0.0189 -1.84946,-0.24077 8.45114,-11.57859 -1.15158,8.46452 -2.15957,-2.25855 -0.0152,-0.74642 0.36882,-3.19415 0.0696,-1.10775 -0.0915,-0.64695 -0.26922,-2.23304 0.26857,-2.78216 0.16297,-0.16642 -0.10092,0.46359 -0.0735,0.6949 0.0181,0.15307 0.13664,0.27634 0.20495,0.41451 0.83507,0.37768 2.12866,1.58179 2.62674,0.81244 0.44676,-0.69008 1.86572,-1.86646 1.11439,-2.20009 -5.34087,-2.37167 -5.19667,2.36116 -5.19608,-0.10742 0,-1.01884 0,-2.03768 0,-3.05652 0,-0.89247 -10e-6,-1.78495 1e-5,-2.67743 0,-0.83513 -5e-5,-1.67025 -2e-5,-2.50538 6e-5,-0.6008 5.5e-4,-1.20159 -6e-4,-1.80238 -2.7e-4,-1.35372 0.006,-2.70744 0.002,-4.06116 -0.009,-1.87395 -0.0142,-3.74708 0.0381,-5.62068 0.0174,-3.30333 -0.39138,-6.59961 -0.037,-9.8913 0.20068,-0.86782 0.54083,-2.46016 0.65824,-2.47633 0.30199,-0.0416 0.21426,0.57343 0.36393,0.83899 0.0863,0.15319 -0.0101,-0.56704 -0.17211,-0.49865 -10.7871,4.55406 -7.45426,7.63529 -11.1855,2.6603 0,0 20.86274,-15.64706 20.86274,-15.64706 z"
       inkscape:connector-curvature="0" />
    <path
       style="fill:#f44800;fill-opacity:1;fill-rule:nonzero;stroke:none"
       id="path2994"
       d="m 335,391.76414 c 1.33333,0 2.66667,0 4,0 0,0 0,5.19608 0,5.19608 l 0,0 c -1.33333,0 -2.66667,0 -4,0 0,0 0,-5.19608 0,-5.19608 z"
       inkscape:connector-curvature="0" />
    <path
       style="fill:#f44800;fill-opacity:1;fill-rule:nonzero;stroke:none"
       id="path2996"
       d="m 335.40196,390.36218 c 0,-1.91666 0,-3.83333 0,-5.75 0,-0.25 -0.0673,-0.99077 0,-0.75 0.58522,2.09379 -0.29496,0.46171 -0.56366,0.0661 -0.82519,-1.57239 -0.72872,-3.13812 -0.54454,-4.82989 0.0389,-0.35737 0.18118,-0.71583 0.126,-1.07106 -0.0204,-0.13131 -0.13813,0.39697 -0.24333,0.31578 -0.24803,-0.19142 -0.28686,-0.5571 -0.43029,-0.83566 -0.903,-2.4744 -1.99165,-4.01251 -1.32089,-6.8094 0.56286,-1.58373 0.0838,-0.16733 0.0482,-0.25024 -0.67334,-1.56575 0.94402,-0.002 0.067,0.35255 -0.31151,0.12594 -0.46048,-0.5004 -0.61464,-0.79896 -0.28271,-0.54752 -0.45637,-1.14478 -0.68456,-1.71717 0.039,0.84411 -0.32744,-3.11997 0.0949,-2.4286 0.38671,0.63309 0.58839,1.45508 0.43924,2.18178 -0.0733,0.35704 -0.54056,-0.50642 -0.71772,-0.82496 -0.44101,-0.79295 -0.6804,-1.68656 -1.11376,-2.48371 -0.0956,-0.1488 -0.43673,-0.5404 -0.28689,-0.44641 0.18981,0.11906 0.4543,0.74849 0.41642,0.52766 -0.16671,-0.97186 -0.61937,-1.87732 -0.81376,-2.84401 -0.0826,-0.41091 0.18917,-1.579 0.2121,-2.09317 -0.0736,-1.2781 -0.0931,-2.55544 -0.0739,-3.83528 0.0139,-0.83638 0.004,-1.48409 0.003,-2.35506 0.001,-0.95411 0.001,-1.90823 0.001,-2.86235 0.0198,0.43311 -0.13741,1.27896 0.51696,1.4869 0.55798,0.17731 2.30622,0.34174 1.74889,0.1624 -3.84671,-1.23785 -2.75567,0.65406 -4.47463,-3.2916 0.0922,-3.988 -0.14367,-4.75287 5.42601,-2.61555 0.27254,0.10458 0.31061,0.84028 0.0208,0.8755 -1.7262,0.20983 -3.47398,-0.16308 -5.21097,-0.24463 -0.007,-0.12516 -0.0942,-1.55402 -0.0426,-1.47076 0.19946,0.32206 -0.006,0.78146 0.15109,1.12638 0.11693,0.25746 0.34807,0.50757 0.62231,0.57651 2.20388,0.5541 1.95837,-0.37502 3.19196,-2.17237 -1.16587,-3.70419 -1.48806,-1.97938 -4.87421,-0.6404 -0.0351,0.0139 -0.0302,-0.7319 -0.0708,-1.36222 -0.014,0.30667 0.0125,-1.45464 -9.3e-4,-1.48797 -0.0323,-0.0802 -0.17771,0.0842 -0.25523,0.046 -0.1209,-0.0597 -0.17805,-0.20251 -0.26708,-0.30377 0.1328,0.15561 0.20424,0.53129 0.39838,0.46682 1.42614,-0.4736 2.83909,-1.08004 4.06506,-1.94905 0.2184,-0.15482 -0.4111,-1.86726 -0.81652,-1.6701 -1.46298,0.71145 -2.65586,1.87943 -3.9838,2.81915 0.52162,1.84397 4.82743,-1.31731 4.98802,-1.36784 0,0 -5.00766,1.38656 -5.00766,1.38656 l 0,0 c -0.49708,-1.86123 4.45015,-3.69418 4.92669,-1.72757 -1.28642,1.05893 -2.39654,2.37887 -3.85925,3.17678 -0.5808,0.31683 -1.57249,-2.51531 -1.44349,-2.64415 1.10318,-1.10187 2.57418,-1.86056 4.06695,-2.31087 0.38734,-0.11684 0.60148,0.54125 0.90222,0.81187 1.08725,1.63789 1.65068,3.77051 1.47249,4.4283 0.0247,0.40053 0.3164,1.95834 0.0528,2.22919 -3.29955,3.38981 -4.01178,3.92114 -5.48945,0.15045 0.49717,-0.8585 0.70212,-1.97463 1.49152,-2.5755 0.5825,-0.44339 1.46454,-0.35361 2.18482,-0.22285 1.92717,0.34987 2.83562,2.45636 2.76981,4.19863 -1.71616,0.13893 -3.44655,0.15614 -5.14848,0.41677 -0.12106,0.0185 -0.0678,0.33867 0.0521,0.36371 6.24904,1.30496 4.13317,2.09552 4.98666,0.002 0.0994,-0.24387 -0.2996,1.06851 -0.18561,0.76797 -0.23039,-0.25822 -0.447,-0.52943 -0.69116,-0.77467 -0.42055,-0.4224 -2.37293,0.0386 -1.7836,0.12787 0.74121,0.11232 1.52365,-0.21638 2.24886,-0.0264 1.67601,0.43898 1.8848,1.88197 2.51723,3.23727 1.5e-4,0.95295 -6e-5,1.90589 -0.001,2.85883 6.5e-4,0.81295 0.0101,1.62589 -0.004,2.43879 -0.0208,1.33869 0.0271,2.67202 0.0683,4.00992 -0.0457,0.87706 -0.0479,1.1847 -0.17701,2.14684 -0.0368,0.27444 0.0137,1.0385 -0.15199,0.81667 -3.00908,-4.02816 -0.0116,-1.89738 0.28799,-0.626 0.23016,0.50367 0.46031,1.00735 0.69047,1.51103 -0.0785,-0.0192 -0.20187,-0.13104 -0.23538,-0.0575 -0.027,0.0593 2.23974,4.02855 1.14989,2.89819 -0.0563,0.0111 -0.19187,-0.0193 -0.16894,0.0333 0.096,0.22032 0.31665,0.36594 0.43419,0.57556 1.07867,1.92366 1.43687,2.66226 0.95893,4.59742 -0.0239,0.0665 -0.0478,0.13296 -0.0718,0.19944 -0.0218,-0.0576 -0.0383,-0.22813 -0.0655,-0.17283 -0.4845,0.98723 1.25945,2.09602 1.06635,3.10539 0.88295,1.75608 1.71801,3.97845 0.78284,5.89168 0.6403,0.99117 0.92156,1.37287 1.43634,2.81613 0.084,0.23547 0,0.5 0,0.75 0,1.91667 0,3.83334 0,5.75 0,0 -5.19608,0 -5.19608,0 z"
       inkscape:connector-curvature="0" />
    <path
       style="fill:#f44800;fill-opacity:1;fill-rule:nonzero;stroke:none"
       id="path2998"
       d="m 314.96078,343.36218 c 1.73203,-0.83333 4.53055,-0.69683 5.19608,-2.5 0.54786,-1.48434 -6.12142,1.55433 -4.64097,0.99603 8.22129,-3.10035 10.38719,-1.81164 8.16798,-3.20933 -0.59069,-1.32225 -1.58448,-2.36698 -2.36814,-3.54639 -0.73651,-1.10847 -1.19554,-2.15247 -2.101,-3.12544 0.74539,0.99682 -2.07234,-3.01959 -1.19696,-2.62295 0.96925,0.43917 1.41977,1.66781 2.37879,2.12888 0.39481,0.1898 1.69353,-0.33442 1.2579,-0.3805 -4.77174,-0.50471 -2.02149,1.06769 -4.43006,-0.59659 0.0626,-6.02414 -1.36851,-2.34907 -1.02865,-1.76049 0.17079,0.2958 0.98832,0.66174 0.66709,0.77781 -0.99658,0.36006 -3.08855,-1.90384 -3.71579,-2.47756 -0.30155,-0.53433 -0.5712,-1.08797 -0.90467,-1.60299 -0.11608,-0.17927 0.0918,0.44578 0.249,0.59035 1.29241,1.1886 0.55228,0.24137 1.42542,0.64487 0.0333,0.0154 -0.0574,0.0803 -0.0899,0.0634 -1.21102,-0.63219 -2.39119,-1.3218 -3.58678,-1.9827 -0.84638,-1.94632 2.10795,-6.68638 2.01118,0.94144 -0.007,0.58965 -1.10982,-0.39969 -1.6709,-0.58116 -1.88196,-0.6087 -0.35623,0.16735 -2.7597,-1.48844 -1.02986,-0.75772 -0.45413,-0.1861 0.90795,0.0255 0.45622,0.0709 1.62173,-0.63804 1.17128,-0.73927 -1.44636,-0.32501 -2.96217,-0.12584 -4.44326,-0.18876 -1.82728,-2.354 -1.31337,-1.54623 3.23377,-4.38746 0.13149,-0.0822 0.39921,0.18641 0.33176,0.32601 -2.25603,4.66907 -1.01074,4.41174 -3.63677,4.30708 -1.24744,-0.0611 -2.49659,-0.0114 -3.74511,-0.008 -1.88746,0.17739 -1.4822,-5.15293 0.25319,-5.20211 1.73236,-0.0491 -0.009,3.47515 -0.23002,5.19407 -0.0186,0.14463 -0.29901,0.0462 -0.43746,5e-4 -0.73848,-0.244 -1.47573,-0.50776 -2.16837,-0.8615 -0.34911,-0.17829 -0.61959,-0.48038 -0.92939,-0.72057 -0.0423,0.003 0.17261,0.29676 0.0654,0.33486 -1.10523,0.39298 -2.58477,0.30435 -3.74216,0.3118 -0.69114,-0.43297 -1.33941,0.1098 -2.05955,-0.0935 -1.40386,-0.39639 -2.26374,-0.92879 -3.34196,-1.74091 5.65192,0.70521 -0.84245,0.82944 -2.17436,0.76945 -0.74522,-0.0171 -1.49201,0.0121 -2.23838,0.004 -0.0232,-0.0831 -2.04543,0.0489 -2.04556,-0.002 -0.019,-7.64754 -0.0814,-5.99555 2.21526,-0.78818 -1.18716,1.74728 -3.88787,2.72869 -5.8777,1.66655 -0.43392,-0.23162 -0.81485,-0.55112 -1.22228,-0.82667 0.53225,0.29543 1.0645,0.59087 1.59675,0.88631 -0.24449,0.01 -0.97586,0.0627 -0.73345,0.0294 0.29509,-0.0405 0.88981,-0.34906 0.89211,-0.0512 0.003,0.36282 -0.58699,0.4269 -0.88765,0.63001 -0.17856,0.12063 -0.39613,0.49227 -0.54935,0.34076 -1.22403,-1.21032 -2.13521,-2.70062 -3.20281,-4.05092 1.99247,-1.81486 0.97809,-0.66754 1.92744,4.12554 0.0163,0.0825 0.0252,0.18799 -0.0313,0.25023 -0.69275,0.48386 -0.39289,0.20906 -0.91216,0.81046 -0.5396,0.89828 0.68219,-1.10029 0.40561,-1.41401 -0.96677,-1.09662 -2.52741,-1.47448 -3.83695,-2.12434 -0.13331,-0.0662 -0.48013,0.21604 -0.3465,0.28153 1.52542,0.74768 3.10949,1.36923 4.66424,2.05384 -0.13856,1.9984 -0.17709,2.07352 -3.06547,3.44282 -0.44012,0.20865 -0.96839,-0.11908 -1.45532,-0.13113 -0.24381,-0.006 0.65876,-0.1223 0.72289,0.11301 0.0606,0.22248 -0.39781,0.23331 -0.59671,0.34996 0.32466,-0.67427 -0.94637,1.13924 -0.7789,0.80542 0.11563,-0.23049 0.6036,-0.42762 0.44624,-0.6319 -3.01203,-3.91015 -2.17897,-4.14956 -3.76219,-3.20235 -0.16513,0.2502 -0.68969,0.5223 -0.49539,0.75059 1.07749,1.26598 4.76942,1.73166 3.87859,3.13527 -0.24656,0.38849 -0.62938,0.69152 -0.95536,1.01257 -0.93456,0.75368 -3.00348,2.55413 0.44274,-3.08853 0.22582,-0.36974 0.38805,0.77934 0.51332,1.19408 0.0851,0.28183 0.17517,0.58855 0.11196,0.87608 -0.62178,2.82833 -0.84062,1.91945 -3.939,2.48051 0.58878,-0.01 1.18931,0.0876 1.76634,-0.0299 0.69082,-0.14063 0.65042,-1.1098 0.79656,-1.52573 0.0137,-0.039 0.0793,0.0647 0.0672,0.10421 -0.29254,0.95375 -0.39476,2.01542 -0.96781,2.83201 -0.35201,0.5016 -1.08271,0.57426 -1.62406,0.86139 -3.78096,-0.14096 0.63959,0.41731 -3.52865,-2.02945 -0.66022,-0.38755 0.76593,1.48872 1.48469,1.75228 1.74342,0.63927 1.84577,-0.16882 2.64816,-0.78413 0.64101,1.84528 -0.30267,3.39777 -1.98551,4.49966 -1.39157,1.30743 -0.50516,-3.91355 0.54168,-3.42416 3.20498,1.49831 -0.72953,4.23806 -1.64117,4.68301 -0.33425,0.16314 -1.28608,0.60917 -1.07363,0.30389 0.51529,-0.74044 1.38195,-1.15988 2.07292,-1.73981 0.43226,0.20986 -0.3106,-1.67567 -0.19485,-1.26503 1.1474,4.07056 1.08992,2.88288 -4.67754,2.80823 0,0 5.04782,-1.23238 5.04782,-1.23238 l 0,0 c -1.67375,0.17095 -3.36312,0.22781 -5.02126,0.51287 -0.25754,0.0443 0.37504,0.91467 0.34043,0.81274 -0.77601,-2.28609 -0.37437,0.31125 -0.6293,-2.43275 0.73486,-0.86292 1.53188,-1.67654 2.20457,-2.58875 0.16864,-0.22868 -0.69067,0.22665 -0.68249,0.51067 0.2256,7.82905 0.62439,-0.63627 0.69352,-1.19408 0.009,-0.07 0.12147,-0.0718 0.18221,-0.10763 0.15018,-0.0973 0.46727,-0.46996 0.45055,-0.29181 -0.0544,0.57993 -0.42338,1.0875 -0.57789,1.64911 -0.0335,0.12167 0.0454,0.25439 0.0202,0.37804 -0.17497,0.85841 0.14362,-2.44675 -0.26597,-1.82177 0.17266,-2.03472 0.62581,-4.69416 3.78159,-4.32334 0.99882,0.11736 1.39724,1.51001 2.30071,1.95177 1.00549,0.49166 -2.41794,-2.9201 -2.94327,-1.61612 -1.80941,1.47281 0.44024,-0.64626 -0.97505,2.63891 -0.34816,0.80815 -0.32016,-1.82222 0.005,-2.63983 0.78871,-1.9825 1.75827,-1.6361 3.81615,-2.24697 -2.28693,1.01693 -2.10516,0.33775 -2.68538,2.70951 -0.0713,0.29125 0.32284,1.1083 0.38207,0.81436 0.90636,-4.49772 1.39788,-4.78138 0.10291,-3.69975 0.17829,-0.17407 1.31971,-1.41898 1.37489,-1.38298 4.51928,2.94885 5.0292,1.53796 3.61396,3.76127 -1.80209,1.78823 -2.00882,1.11618 -4.8159,-2.35356 -0.38549,-0.47648 2.48538,-2.64797 2.53699,-2.68655 1.26574,-0.72196 1.17586,-0.76424 3.07817,-1.12254 0.18137,-0.0342 0.63831,-0.0541 0.54374,0.10434 -2.42483,4.06354 -1.95679,2.81989 -1.82685,1.72358 1.55601,0.37065 3.1582,0.58375 4.66801,1.11194 0.16565,0.058 -0.21458,0.27913 -0.33953,0.40236 -0.18032,0.17786 -0.33005,0.56777 -0.57363,0.49832 -1.48057,-0.42216 -3.13842,-0.7756 -4.22478,-1.86653 -0.63226,-0.63491 0.74873,-2.14516 1.13604,-2.6269 0.44213,-0.40939 3.49782,-3.20515 4.18934,-2.53696 1.93029,1.86516 0.87066,6.1997 2.41434,4.43803 -1.14801,-1.25656 -2.37477,-2.44546 -3.44403,-3.76968 -0.0659,-0.0817 0.1838,-0.10176 0.27162,-0.15921 0.19787,-0.12945 0.37738,-0.28807 0.58502,-0.40119 2.59777,-1.41531 2.70012,-1.46452 5.43639,-0.26059 -1.24446,-0.78479 -0.79019,-1.04384 -1.45523,0.0867 -0.0335,0.057 0.10514,-0.0802 0.1577,-0.12034 0.84233,1.13548 1.41947,4.28523 2.52699,3.40645 6.36157,-5.0477 -3.03969,-5.19996 0.74018,-5.19843 0.86669,3.5e-4 0.59548,-0.002 1.11027,0.004 0.80474,0.01 1.6097,-0.0262 2.41379,5.7e-4 1.92986,0.0869 2.92616,0.17086 5.08541,0.28504 0.27464,0.21225 0.868,0.26182 0.84523,0.60817 -0.0143,0.21693 -0.86368,0.045 -0.64809,0.073 0.84888,0.1101 1.71364,0.0398 2.56451,0.13323 0.16793,0.0184 -0.33683,-0.0265 -0.50525,-0.0397 2.37998,0.0272 4.78279,-0.91624 6.96058,0.52237 0.89723,0.84514 -0.17483,-0.32326 -0.19066,0.41304 -0.003,0.16064 0.45986,-0.15949 0.48203,-3.5e-4 0.23935,1.71785 1.97572,5.14371 0.24212,5.19768 -1.73236,0.0539 -2.15136,-5.34109 -0.31946,-5.18977 1.3223,-0.004 2.64551,-0.0532 3.9668,0.012 0.36146,0.0145 1.11309,-0.31725 1.0844,0.0434 -1.34227,16.8715 -3.22474,-7.23703 2.56282,1.34119 -1.1908,0.24541 -2.35846,0.80382 -3.57241,0.73623 -0.42823,-0.0238 0.5808,-0.64242 0.93585,-0.88302 1.4963,-1.01396 3.38985,-0.46189 4.60912,0.67476 -0.57077,0.52972 -0.14712,0.0463 1.35434,0.62342 1.35429,0.52058 3.36112,6.60926 2.60366,2.80078 -1.10683,-0.39409 -2.3023,-0.59606 -3.32049,-1.18229 -0.2364,-0.1361 0.49871,-0.23293 0.76574,-0.28861 0.53144,-0.11082 1.07722,-0.27981 1.61531,-0.20789 1.48479,0.19847 1.99882,0.88901 2.81851,2.03099 0.074,0.10312 -0.21802,-0.13002 -0.32704,-0.19503 0.27084,0.26216 0.64188,0.45038 0.81251,0.78648 0.0578,0.11392 -0.47201,-0.0121 -0.37636,0.0726 0.21671,0.19189 0.54753,0.19077 0.81048,0.3118 1.47085,0.67703 2.91172,0.89491 3.25627,2.71978 0.0628,0.3328 -0.49002,-0.46766 -0.73503,-0.70149 -0.77474,0.0885 -1.59208,1.15145 -2.23084,0.70419 -0.55315,-0.38732 1.17315,-1.03663 1.82822,-0.87268 2.22398,0.5566 2.80476,1.49557 3.0412,2.26373 0.98121,1.16378 1.49743,2.15117 2.30525,3.37457 0.16984,0.25722 1.91382,2.38201 1.88235,2.97744 -0.0168,0.31702 -0.50032,-0.39089 -0.75049,-0.58634 0.36803,0.33804 0.0596,0.064 1.02096,0.69961 0.34328,0.28976 0.49354,0.93243 0.94164,0.96411 3.64293,0.25754 7.91608,-2.14788 10.95538,-0.12305 1.71493,1.14252 -4.05956,2.97833 -3.64097,4.99603 0.39043,1.882 3.46405,1.66667 5.19608,2.5 0,0 -26.07844,0 -26.07844,0 z"
       inkscape:connector-curvature="0" />
    <path
       style="fill:#f44800;fill-opacity:1;fill-rule:nonzero;stroke:none"
       id="path3000"
       d="m 257.29028,338.0719 c -2.05184,-3.49956 2.54811,-5.61933 2.62263,-8.62263 0.0117,-0.47045 -0.69284,-0.69418 -0.82461,-1.14595 -0.24163,-0.82843 -0.14091,-1.72109 -0.26089,-2.57565 -0.066,-0.47033 -0.25214,1.10141 0.0988,1.42139 0.80248,0.73161 1.97189,0.91023 2.95783,1.36534 -4.58838,-2.22473 -3.51865,-1.67564 -3.45821,-5.45904 0.002,0.0765 0.009,0.30575 0.005,0.2294 -0.0783,-1.33194 -0.0354,-2.6737 -0.0295,-4.0074 0.005,-1.65246 9.8e-4,-3.30493 5.8e-4,-4.9574 7.5e-4,-1.67301 4.5e-4,-3.34602 3.9e-4,-5.01903 -8e-5,-1.64082 -2e-5,-3.28164 -10e-6,-4.92246 -0.11244,-0.19416 0.2181,-0.63474 -1e-5,-0.77011 -0.1244,-0.0772 -0.0186,0.36818 -0.15905,0.40943 -0.506,0.1486 -1.0347,-2.51609 -1.09095,-2.96715 0.70106,-0.85124 1.76536,-1.50397 2.10317,-2.55372 0.2178,-0.67681 -1.13711,0.85398 -1.69715,1.29201 -0.19733,0.15435 -0.13818,-0.73682 -0.11007,-0.26866 -0.11678,-0.97165 -0.0405,-1.95249 -0.042,-2.92864 -0.009,-0.97619 -0.004,-1.95246 -0.004,-2.92868 3.1e-4,-0.80771 -1.4e-4,-1.61541 -6e-5,-2.42312 1.8e-4,-0.89295 6e-5,-1.7859 5e-5,-2.67885 0,-0.30651 0,-0.61303 0,-0.91954 0,-0.41039 10e-6,-0.73909 10e-6,-0.73909 5.28161,0.25444 5.19609,-1.33665 5.19608,0.65488 -17.26292,-1.03083 12.11828,0.58093 -5.19608,-0.34381 6.05228,0.22094 7.20957,-0.64098 1.40828,2.63247 -0.51167,0.28871 -1.56646,0.047 -2.17292,0.0815 -1.09939,0.0848 -2.20236,0.0319 -3.30367,0.0278 -0.82333,0.004 -1.64663,0.007 -2.46999,0.005 -0.48809,-0.0518 -5.22264,0.0984 -2.33443,-0.0492 0.48048,-0.33322 1.23568,-0.73737 0.72439,-1.64873 -0.53608,-0.95556 -1.40823,-1.77769 -2.39755,-2.24856 -0.4507,-0.21452 -1.3357,-0.0651 -1.4362,0.42386 -0.2989,1.45412 0.22895,2.96021 0.34343,4.44031 -1.50199,0.19137 -6.20473,0.72048 -0.92201,-5.10453 0.81544,-0.89914 1.82518,1.6007 2.73776,2.40106 0.74527,4.19582 -2.78213,4.33989 -5.74862,3.64054 0.41565,-1.69165 0.83131,-3.3833 1.24697,-5.07495 0.0285,0.003 0.77924,0.0774 0.77353,0.12217 -0.21903,1.72074 -0.66062,3.40689 -1.0645,5.09384 -0.0119,0.0495 -0.1557,0.0397 -0.15237,-0.0111 0.11348,-1.73065 0.32848,-3.45313 0.49272,-5.1797 0.035,0.001 0.0699,0.003 0.10486,0.004 0,0 -0.22612,5.19116 -0.22612,5.19116 l 0,0 c -0.0211,-9.5e-4 -0.0422,-0.002 -0.0633,-0.003 0.0291,-1.73137 0.043,-3.46306 0.0874,-5.1941 0.0441,-1.71626 -0.40304,3.41276 -0.48412,5.12768 -6.1e-4,0.0129 0.55542,0.0858 0.13626,0.0294 0.15134,-1.71183 0.30268,-3.42366 0.45402,-5.13549 3.70046,0.68817 -1.31089,-0.33113 -0.5677,2.76358 0.82257,0.47223 2.05088,2.26868 2.46771,1.41669 2.52011,-5.15108 -3.40899,-5.37284 1.36127,-5.24517 2.17149,0.34749 2.61969,0.13346 2.21697,4.81529 -0.0538,0.62496 -1.16481,0.88068 -1.75701,0.67389 -3.50156,-1.22272 -3.26546,-3.24623 -1.52203,-5.39713 0.74607,-0.34964 1.46196,-0.77268 2.23821,-1.04893 0.76793,-0.27329 2.39572,0.16331 3.29747,4.4e-4 0.82775,0.001 1.65542,-0.002 2.48314,-0.005 1.00338,0.004 2.00751,0.0578 3.00883,-0.0206 0.39488,-0.0197 3.83961,0.0697 3.82708,0.0976 -1.6696,3.72838 -7.27444,2.73014 2.40828,2.37709 -17.31435,0.92504 12.06682,-0.68709 -5.19608,0.34371 1e-5,-1.99138 -0.0855,-0.40015 5.19608,-0.65458 0.0465,-0.002 0,0.093 0,0.13957 -1e-5,0.19979 -1e-5,0.39958 -1e-5,0.59937 0,0.30649 0,0.61299 0,0.91948 1e-5,0.89315 1.2e-4,1.7863 -5e-5,2.67945 -9e-5,0.80835 3.5e-4,1.6167 6e-5,2.42506 -4.7e-4,0.97539 -0.005,1.95084 0.004,2.9262 -6.7e-4,0.54862 0.0146,1.71762 -0.0499,1.95571 0.1188,0.80182 0.41675,2.34143 -0.11007,3.01513 -0.10685,0.13664 -5.36909,5.61075 -0.094,-0.51182 -0.0526,-0.17278 -0.0687,-0.36116 -0.15767,-0.51833 -0.0282,-0.0498 -0.19426,-0.0988 -0.16408,-0.0502 0.7368,1.18606 1.79556,2.37351 1.57175,3.8964 0,1.64074 -6e-5,3.28149 10e-6,4.92223 7e-5,1.67267 3.7e-4,3.34533 -3.8e-4,5.01799 4e-4,1.66061 0.004,3.32121 -6.3e-4,4.98181 -0.006,1.284 -0.0266,2.56986 0.024,3.85286 -0.0117,0.5582 -0.0289,1.11498 -0.0881,1.67052 -0.0119,0.11157 0.0688,0.36475 -0.0392,0.33432 -0.13215,-0.0372 -0.0203,-0.32615 -0.1439,-0.38592 -0.9986,-0.483 -2.07253,-0.79156 -3.10879,-1.18733 1.62695,0.60548 4.39284,0.54731 3.68166,3.16173 -0.12431,0.45696 -0.35632,-0.87802 -0.51089,-1.32565 -0.043,-0.12449 0.0447,0.33797 0.17539,0.35404 1.1295,0.13886 2.31188,0.37482 3.41291,0.0871 1.67777,-0.43844 3.13981,-1.47314 4.70972,-2.20971 0,0 -14.41944,14.41943 -14.41944,14.41943 z"
       inkscape:connector-curvature="0" />
    <path
       style="fill:none;stroke:#000000;stroke-width:1px;stroke-linecap:butt;stroke-linejoin:miter;stroke-opacity:1"
       d="m 366,322.36218 5,70 18,2 1,-60 56,-4 -60,21 3,3 0,22"
       id="path3002"
       inkscape:path-effect="#path-effect3004"
       inkscape:original-d="m 366,322.36218 c 0,72 5,70 5,70 l 18,2 1,-60 c 98.29555,19.52185 63.81843,4.26991 56,-4 -4.66484,32.15361 -25.26889,38.89525 -60,21 l 3,3 0,22"
       inkscape:connector-curvature="0"
       sodipodi:nodetypes="cccccccc"
       transform="translate(-5,17)" />
    <path
       transform="translate(-3.3348388,-0.31210888)"
       style="fill:none;stroke:#000000;stroke-width:1px;stroke-linecap:butt;stroke-linejoin:miter;stroke-opacity:1"
       d="m 441,329.36218 c -7.56535,-2.1123 19.27763,-31.46945 -75,-6 l 75,6"
       id="path3006"
       inkscape:connector-curvature="0"
       sodipodi:nodetypes="ccc" />
  </g>
</svg>
