<?xml version="1.0" encoding="UTF-8" standalone="no"?>
<!-- Created with Inkscape (http://www.inkscape.org/) -->

<svg
   xmlns:dc="http://purl.org/dc/elements/1.1/"
   xmlns:cc="http://creativecommons.org/ns#"
   xmlns:rdf="http://www.w3.org/1999/02/22-rdf-syntax-ns#"
   xmlns:svg="http://www.w3.org/2000/svg"
   xmlns="http://www.w3.org/2000/svg"
   xmlns:xlink="http://www.w3.org/1999/xlink"
   xmlns:sodipodi="http://sodipodi.sourceforge.net/DTD/sodipodi-0.dtd"
   xmlns:inkscape="http://www.inkscape.org/namespaces/inkscape"
   width="744.09448819"
   height="1052.3622047"
   id="svg2"
   version="1.1"
   inkscape:version="0.47+devel r9302"
   sodipodi:docname="2010apr10-2009Aug11ThrLayout08-renewed01d.svg"
   inkscape:output_extension="org.inkscape.output.svg.inkscape">
  <defs
     id="defs4">
    <linearGradient
       id="linearGradient4147">
      <stop
         style="stop-color:#009cd8;stop-opacity:1;"
         offset="0"
         id="stop4149" />
      <stop
         id="stop4155"
         offset="0.42553192"
         style="stop-color:#009cd8;stop-opacity:0.49803922;" />
      <stop
         style="stop-color:#009cd8;stop-opacity:0;"
         offset="1"
         id="stop4151" />
    </linearGradient>
    <linearGradient
       inkscape:collect="always"
       id="linearGradient3808">
      <stop
         style="stop-color:#000000;stop-opacity:1;"
         offset="0"
         id="stop3810" />
      <stop
         style="stop-color:#000000;stop-opacity:0;"
         offset="1"
         id="stop3812" />
    </linearGradient>
    <marker
       inkscape:stockid="CurveOut"
       orient="auto"
       refY="0.0"
       refX="0.0"
       id="CurveOut"
       style="overflow:visible">
      <path
         id="path4086"
         d="M -5.4129913,-5.0456926 C -2.6529913,-5.0456926 -0.41299131,-2.8056926 -0.41299131,-0.045692580 C -0.41299131,2.7143074 -2.6529913,4.9543074 -5.4129913,4.9543074"
         style="fill:none;fill-rule:evenodd;stroke:#000000;stroke-width:1.0pt;marker-start:none;marker-end:none"
         transform="scale(0.6)" />
    </marker>
    <marker
       inkscape:stockid="Scissors"
       orient="auto"
       refY="0.0"
       refX="0.0"
       id="Scissors"
       style="overflow:visible">
      <path
         id="schere"
         style="marker-start:none"
         d="M 9.0898857,-3.6061018 C 8.1198849,-4.7769976 6.3697607,-4.7358294 5.0623558,-4.2327734 L -3.1500488,-1.1548705 C -5.5383421,-2.4615840 -7.8983361,-2.0874077 -7.8983361,-2.7236578 C -7.8983361,-3.2209742 -7.4416699,-3.1119800 -7.5100293,-4.4068519 C -7.5756648,-5.6501286 -8.8736064,-6.5699315 -10.100428,-6.4884954 C -11.327699,-6.4958500 -12.599867,-5.5553341 -12.610769,-4.2584343 C -12.702194,-2.9520479 -11.603560,-1.7387447 -10.304005,-1.6532027 C -8.7816644,-1.4265411 -6.0857470,-2.3487593 -4.8210600,-0.082342643 C -5.7633447,1.6559151 -7.4350844,1.6607341 -8.9465707,1.5737277 C -10.201445,1.5014928 -11.708664,1.8611256 -12.307219,3.0945882 C -12.885586,4.2766744 -12.318421,5.9591904 -10.990470,6.3210002 C -9.6502788,6.8128279 -7.8098011,6.1912892 -7.4910978,4.6502760 C -7.2454393,3.4624530 -8.0864637,2.9043186 -7.7636052,2.4731223 C -7.5199917,2.1477623 -5.9728246,2.3362771 -3.2164999,1.0982979 L 5.6763468,4.2330688 C 6.8000164,4.5467672 8.1730685,4.5362646 9.1684433,3.4313614 L -0.051640930,-0.053722219 L 9.0898857,-3.6061018 z M -9.2179159,-5.5066058 C -7.9233569,-4.7838060 -8.0290767,-2.8230356 -9.3743431,-2.4433169 C -10.590861,-2.0196559 -12.145370,-3.2022863 -11.757521,-4.5207817 C -11.530373,-5.6026336 -10.104134,-6.0014137 -9.2179159,-5.5066058 z M -9.1616516,2.5107591 C -7.8108215,3.0096239 -8.0402087,5.2951947 -9.4138723,5.6023681 C -10.324932,5.9187072 -11.627422,5.4635705 -11.719569,4.3902287 C -11.897178,3.0851737 -10.363484,1.9060805 -9.1616516,2.5107591 z " />
    </marker>
    <marker
       style="overflow:visible"
       inkscape:stockid="InfiniteLineStart"
       id="InfiniteLineStart"
       refX="0"
       refY="0"
       orient="auto">
      <g
         id="g4143"
         transform="translate(-13,0)">
        <circle
           d="M 3.8,0 C 3.8,0.44182781 3.4418278,0.80000001 3,0.80000001 2.5581722,0.80000001 2.2,0.44182781 2.2,0 c 0,-0.44182781 0.3581722,-0.80000001 0.8,-0.80000001 0.4418278,0 0.8,0.3581722 0.8,0.80000001 z"
           id="circle4145"
           r="0.8"
           cy="0"
           cx="3" />
        <circle
           d="M 7.3,0 C 7.3,0.44182781 6.9418278,0.80000001 6.5,0.80000001 6.0581722,0.80000001 5.7,0.44182781 5.7,0 c 0,-0.44182781 0.3581722,-0.80000001 0.8,-0.80000001 0.4418278,0 0.8,0.3581722 0.8,0.80000001 z"
           id="circle4147"
           r="0.8"
           cy="0"
           cx="6.5" />
        <circle
           d="M 10.8,0 C 10.8,0.44182781 10.441828,0.80000001 10,0.80000001 9.5581722,0.80000001 9.2,0.44182781 9.2,0 c 0,-0.44182781 0.3581722,-0.80000001 0.8,-0.80000001 0.441828,0 0.8,0.3581722 0.8,0.80000001 z"
           id="circle4149"
           r="0.8"
           cy="0"
           cx="10" />
      </g>
    </marker>
    <marker
       inkscape:stockid="Torso"
       orient="auto"
       refY="0.0"
       refX="0.0"
       id="Torso"
       style="overflow:visible">
      <g
         id="g4111"
         transform="scale(0.7)">
        <path
           id="path4113"
           d="M -4.7792281,-3.2395420 C -2.4288541,-2.8736027 0.52103922,-1.3019943 0.25792722,0.38794346 C -0.0051877922,2.0778819 -2.2126741,2.6176539 -4.5630471,2.2517169 C -6.9134221,1.8857769 -8.5210350,0.75201414 -8.2579220,-0.93792336 C -7.9948090,-2.6278615 -7.1296041,-3.6054813 -4.7792281,-3.2395420 z "
           style="fill:none;fill-opacity:0.75000000;fill-rule:evenodd;stroke:#000000;stroke-width:1.2500000;marker-start:none;marker-mid:none;marker-end:none" />
        <path
           id="path4115"
           d="M 4.4598789,0.088665736 C -2.5564571,-4.3783320 5.2248769,-3.9061806 -0.84829578,-8.7197331"
           style="fill:none;fill-opacity:0.75000000;fill-rule:evenodd;stroke:#000000;stroke-width:1.0000000pt;marker-end:none" />
        <path
           id="path4117"
           d="M 4.9298719,0.057520736 C -1.3872731,1.7494689 1.8027579,5.4782079 -4.9448731,7.5462725"
           style="fill:none;fill-opacity:0.75000000;fill-rule:evenodd;stroke:#000000;stroke-width:1.0000000pt;marker-start:none;marker-end:none" />
        <rect
           id="rect4119"
           transform="matrix(0.527536,-0.849533,0.887668,0.460484,0,0)"
           y="-1.7408575"
           x="-10.391706"
           height="2.7608147"
           width="2.6366582"
           style="fill-rule:evenodd;stroke-width:1.0000000pt;marker-end:none" />
        <rect
           id="rect4121"
           transform="matrix(0.671205,-0.741272,0.790802,0.612072,0,0)"
           y="-7.9629307"
           x="4.9587269"
           height="2.8614161"
           width="2.7327356"
           style="fill-rule:evenodd;stroke-width:1.0000000pt;marker-end:none" />
        <path
           id="path4123"
           transform="matrix(0,-1.109517,1.109517,0,25.96648,19.71619)"
           d="m 16.779951,-28.685045 c 0,0.335412 -0.271905,0.607317 -0.607317,0.607317 -0.335412,0 -0.607317,-0.271905 -0.607317,-0.607317 0,-0.335412 0.271905,-0.607318 0.607317,-0.607318 0.335412,0 0.607317,0.271906 0.607317,0.607318 z"
           sodipodi:ry="0.60731727"
           sodipodi:rx="0.60731727"
           sodipodi:cy="-28.685045"
           sodipodi:cx="16.172634"
           style="fill:#ff0000;fill-opacity:0.75000000;fill-rule:evenodd;stroke:#000000;stroke-width:1.0000000pt;marker-start:none;marker-end:none"
           sodipodi:type="arc" />
        <path
           id="path4125"
           transform="matrix(0,-1.109517,1.109517,0,26.82450,16.99126)"
           d="m 16.779951,-28.685045 c 0,0.335412 -0.271905,0.607317 -0.607317,0.607317 -0.335412,0 -0.607317,-0.271905 -0.607317,-0.607317 0,-0.335412 0.271905,-0.607318 0.607317,-0.607318 0.335412,0 0.607317,0.271906 0.607317,0.607318 z"
           sodipodi:ry="0.60731727"
           sodipodi:rx="0.60731727"
           sodipodi:cy="-28.685045"
           sodipodi:cx="16.172634"
           style="fill:#ff0000;fill-opacity:0.75000000;fill-rule:evenodd;stroke:#000000;stroke-width:1.0000000pt;marker-start:none;marker-end:none"
           sodipodi:type="arc" />
      </g>
    </marker>
    <marker
       inkscape:stockid="RazorWire"
       id="RazorWire"
       refX="0"
       refY="0"
       orient="auto">
       style=&quot;overflow:visible&quot;&gt;
      <path
   id="path4131"
   transform="scale(0.8,0.8)"
   style="fill:#808080;fill-opacity:1;fill-rule:evenodd;stroke:#000000;stroke-width:0.1pt"
   d="M 0.022727273,-0.74009011 L 0.022727273,0.69740989 L -7.7585227,3.0099099 L 10.678977,3.0099099 L 3.4914773,0.69740989 L 3.4914773,-0.74009011 L 10.741477,-2.8963401 L -7.7272727,-2.8963401 L 0.022727273,-0.74009011 z " />
</marker>
    <marker
       inkscape:stockid="Arrow1Mstart"
       orient="auto"
       refY="0.0"
       refX="0.0"
       id="Arrow1Mstart"
       style="overflow:visible">
      <path
         id="path3904"
         d="M 0.0,0.0 L 5.0,-5.0 L -12.5,0.0 L 5.0,5.0 L 0.0,0.0 z "
         style="fill-rule:evenodd;stroke:#000000;stroke-width:1.0pt;marker-start:none"
         transform="scale(0.4) translate(10,0)" />
    </marker>
    <marker
       inkscape:stockid="Arrow1Lstart"
       orient="auto"
       refY="0.0"
       refX="0.0"
       id="Arrow1Lstart"
       style="overflow:visible">
      <path
         id="path3898"
         d="M 0.0,0.0 L 5.0,-5.0 L -12.5,0.0 L 5.0,5.0 L 0.0,0.0 z "
         style="fill-rule:evenodd;stroke:#000000;stroke-width:1.0pt;marker-start:none"
         transform="scale(0.8) translate(12.5,0)" />
    </marker>
    <inkscape:perspective
       sodipodi:type="inkscape:persp3d"
       inkscape:vp_x="0 : 526.18109 : 1"
       inkscape:vp_y="0 : 1000 : 0"
       inkscape:vp_z="744.09448 : 526.18109 : 1"
       inkscape:persp3d-origin="372.04724 : 350.78739 : 1"
       id="perspective10" />
    <inkscape:perspective
       id="perspective2826"
       inkscape:persp3d-origin="0.5 : 0.33333333 : 1"
       inkscape:vp_z="1 : 0.5 : 1"
       inkscape:vp_y="0 : 1000 : 0"
       inkscape:vp_x="0 : 0.5 : 1"
       sodipodi:type="inkscape:persp3d" />
    <inkscape:perspective
       id="perspective2887"
       inkscape:persp3d-origin="0.5 : 0.33333333 : 1"
       inkscape:vp_z="1 : 0.5 : 1"
       inkscape:vp_y="0 : 1000 : 0"
       inkscape:vp_x="0 : 0.5 : 1"
       sodipodi:type="inkscape:persp3d" />
    <inkscape:perspective
       id="perspective2954"
       inkscape:persp3d-origin="0.5 : 0.33333333 : 1"
       inkscape:vp_z="1 : 0.5 : 1"
       inkscape:vp_y="0 : 1000 : 0"
       inkscape:vp_x="0 : 0.5 : 1"
       sodipodi:type="inkscape:persp3d" />
    <inkscape:perspective
       id="perspective2954-3"
       inkscape:persp3d-origin="0.5 : 0.33333333 : 1"
       inkscape:vp_z="1 : 0.5 : 1"
       inkscape:vp_y="0 : 1000 : 0"
       inkscape:vp_x="0 : 0.5 : 1"
       sodipodi:type="inkscape:persp3d" />
    <inkscape:perspective
       id="perspective3048"
       inkscape:persp3d-origin="0.5 : 0.33333333 : 1"
       inkscape:vp_z="1 : 0.5 : 1"
       inkscape:vp_y="0 : 1000 : 0"
       inkscape:vp_x="0 : 0.5 : 1"
       sodipodi:type="inkscape:persp3d" />
    <filter
       inkscape:collect="always"
       id="filter3858"
       x="-0.11727906"
       width="1.2345581"
       y="-1.2057066"
       height="3.4114132">
      <feGaussianBlur
         inkscape:collect="always"
         stdDeviation="9.9060937"
         id="feGaussianBlur3860" />
    </filter>
    <radialGradient
       inkscape:collect="always"
       xlink:href="#linearGradient3808"
       id="radialGradient3816"
       cx="182.91406"
       cy="-101.38912"
       fx="182.91406"
       fy="-101.38912"
       r="133.34375"
       gradientTransform="matrix(1,0,0,0.1601828,0,-85.14833)"
       gradientUnits="userSpaceOnUse" />
    <radialGradient
       inkscape:collect="always"
       xlink:href="#linearGradient3808"
       id="radialGradient3818"
       gradientUnits="userSpaceOnUse"
       gradientTransform="matrix(1,0,0,0.1601828,0,-85.14833)"
       cx="182.91406"
       cy="-101.38912"
       fx="182.91406"
       fy="-101.38912"
       r="133.34375" />
    <radialGradient
       inkscape:collect="always"
       xlink:href="#linearGradient3808"
       id="radialGradient3820"
       gradientUnits="userSpaceOnUse"
       gradientTransform="matrix(1,0,0,0.1601828,0,-85.14833)"
       cx="182.91406"
       cy="-101.38912"
       fx="182.91406"
       fy="-101.38912"
       r="133.34375" />
    <radialGradient
       inkscape:collect="always"
       xlink:href="#linearGradient3808"
       id="radialGradient3822"
       gradientUnits="userSpaceOnUse"
       gradientTransform="matrix(1,0,0,0.1601828,0,-85.14833)"
       cx="182.91406"
       cy="-101.38912"
       fx="182.91406"
       fy="-101.38912"
       r="133.34375" />
    <filter
       id="filter3978"
       inkscape:label="filterOverlay_carnival"
       inkscape:menu="Overlays"
       inkscape:menu-tooltip="White splotches evocating carnaval masks"
       color-interpolation-filters="sRGB">
      <feGaussianBlur
         id="feGaussianBlur3980"
         stdDeviation="0.01"
         result="result8" />
      <feTurbulence
         id="feTurbulence3982"
         baseFrequency="0.025 0.028"
         numOctaves="5"
         type="turbulence"
         result="result7"
         seed="3" />
      <feColorMatrix
         id="feColorMatrix3984"
         values="1 0 0 0 0 0 1 0 0 0 0 0 1 0 0 0 0 0 6 -2.4 "
         result="result5" />
      <feComposite
         in2="result7"
         id="feComposite3986"
         operator="in"
         in="result8"
         result="result6" />
      <feDisplacementMap
         in2="result6"
         id="feDisplacementMap3988"
         result="result4"
         scale="40"
         yChannelSelector="A"
         xChannelSelector="R"
         in="result5" />
      <feFlood
         id="feFlood3990"
         flood-color="rgb(255,255,255)"
         flood-opacity="1"
         result="result10" />
      <feComposite
         in2="result4"
         id="feComposite3992"
         operator="in"
         result="result2" />
      <feComposite
         in2="result8"
         id="feComposite3994"
         operator="in"
         in="result2"
         result="result9" />
      <feBlend
         in2="result8"
         id="feBlend3996"
         mode="normal"
         result="result11" />
      <feBlend
         in2="result11"
         id="feBlend3998"
         mode="multiply" />
    </filter>
    <linearGradient
       inkscape:collect="always"
       xlink:href="#linearGradient4147"
       id="linearGradient4153"
       x1="442"
       y1="-159.63782"
       x2="442"
       y2="-150.67749"
       gradientUnits="userSpaceOnUse" />
  </defs>
  <sodipodi:namedview
     id="base"
     pagecolor="#ffffff"
     bordercolor="#666666"
     borderopacity="1.0"
     inkscape:pageopacity="0.0"
     inkscape:pageshadow="2"
     inkscape:zoom="1"
     inkscape:cx="319.13962"
     inkscape:cy="866.49844"
     inkscape:document-units="px"
     inkscape:current-layer="layer1"
     showgrid="false"
     inkscape:window-width="1525"
     inkscape:window-height="1159"
     inkscape:window-x="121"
     inkscape:window-y="0"
     inkscape:window-maximized="0"
     inkscape:showpageshadow="false"
     showborder="false" />
  <metadata
     id="metadata7">
    <rdf:RDF>
      <cc:Work
         rdf:about="">
        <dc:format>image/svg+xml</dc:format>
        <dc:type
           rdf:resource="http://purl.org/dc/dcmitype/StillImage" />
        <dc:title></dc:title>
      </cc:Work>
    </rdf:RDF>
  </metadata>
  <g
     inkscape:label="Layer 1"
     inkscape:groupmode="layer"
     id="layer1"
     style="display:inline">
    <rect
       style="opacity:0.159375;fill:url(#linearGradient4153);fill-opacity:1;fill-rule:nonzero;stroke:none"
       id="rect4039"
       width="296"
       height="74"
       x="442"
       y="-196.63782"
       transform="matrix(0.46959459,0,0,-0.99999997,-165.56081,-41.275595)" />
    <path
       sodipodi:nodetypes="cccccccccccsccccsscccccccccsccccccssssssssscccssssssssscsccccccccccccccccccccscccccccscccc"
       d="m 32.93617,66.50105 c 0.0214,1.32487 -44.29122,-53.31081 -44.17373,-51.99148 0.12699,1.65069 0.41063,3.28114 0.76274,4.89683 0.50272,2.08456 1.12155,4.13999 1.77884,6.18047 0.76921,2.40604 1.58994,4.79543 2.40172,7.18743 0.97018,2.71833 1.99581,5.41627 2.99589,8.12363 1.10937,2.89576 2.17852,5.80653 3.25408,8.71492 1.15092,3.14986 2.35171,6.2803 3.44556,9.45081 1.14388,3.45853 2.27709,6.92052 3.4197,10.3795 1.25042,3.72261 2.40491,7.47589 3.51277,11.24303 1.15314,4.01563 2.18818,8.06379 3.20694,12.11518 1.03445,4.19659 1.97961,8.41402 2.899,12.63702 0.9436,4.32488 1.80482,8.66646 2.61981,13.01718 0.83759,4.54771 1.63278,9.10326 2.3857,13.66574 0.7722,4.63471 1.47868,9.28006 2.16927,13.92753 0.6471,4.76127 1.17739,9.53772 1.70784,14.31314 0.48239,4.85012 0.85825,9.71009 1.24968,14.56819 0.39191,4.86747 0.6273,9.74585 0.88742,14.62168 0.25946,4.86081 0.37173,9.72799 0.51139,14.59332 0.0749,4.78988 0.12005,9.58072 0.0938,14.37118 -0.0189,4.76743 -0.15071,9.5321 -0.30836,14.29654 -0.15318,4.83833 -0.43503,9.67116 -0.75357,14.501 -0.38365,5.19525 -0.88197,10.3814 -1.41685,15.56303 -0.547,5.70554 -1.34082,11.38117 -2.11922,17.0583 -0.89777,6.2719 -1.83488,12.53814 -2.77281,18.80416 -1.01475,6.86919 -2.03941,13.73698 -3.01036,20.61256 -1.04443,7.50896 -35.15447,58.79776 -36.07596,66.32282 -0.97357,8.31431 31.24468,-27.13611 30.37454,-18.81038 -0.95944,9.18965 -1.73855,18.39655 -2.47657,27.60619 -0.75507,9.47974 -1.42542,18.96595 -2.06346,28.4542 -0.68451,9.57263 -1.15009,19.15828 -1.57928,28.74509 -0.42537,9.60353 -0.79152,19.20949 -1.14138,28.81601 -0.28981,9.22125 -0.46856,18.44557 -0.65708,27.66932 -0.17352,8.41628 -0.33963,16.8327 -0.50391,25.24916 -0.14474,7.66769 -0.28156,15.33551 -0.41942,23.00331 -0.12255,6.82012 -0.24495,13.64023 -0.36737,20.46034 -0.10867,6.054 -0.21733,12.10802 -0.326,18.16202 -0.0965,5.37375 -0.19291,10.7475 -0.28937,16.12125 -0.0856,4.76992 -0.17123,9.53984 -0.25684,14.30977 -0.076,4.23394 -0.15199,8.46788 -0.22799,12.70183 -0.0675,3.75819 -0.13491,7.51639 -0.20238,11.27458 -0.0599,3.3359 -0.11975,6.67181 -0.17962,10.00771 -0.0532,2.96106 -0.1063,5.92212 -0.15945,8.88318 -0.0321,1.7868 -0.0641,3.57359 -0.0962,5.36039 0,0 -5.68002,-9.24712 -5.68002,-9.24712 l 0,0 c 0.0404,-1.77326 0.0808,-3.54652 0.12116,-5.31978 0.0669,-2.93862 0.13386,-5.87724 0.20079,-8.81587 0.0754,-3.31062 0.1508,-6.62125 0.22621,-9.93187 0.0849,-3.72973 0.1699,-7.45944 0.25484,-11.18917 0.0957,-4.20186 0.19141,-8.40373 0.2871,-12.6056 0.10782,-4.73378 0.21564,-9.46756 0.32345,-14.20134 0.12146,-5.33304 0.24293,-10.66607 0.36439,-15.99911 0.13684,-6.00813 22.24429,-149.80844 22.38113,-155.81658 0.15415,-6.76852 -21.66229,124.25512 -21.50818,117.48659 0.17333,-7.61446 12.10492,101.63713 12.27546,94.0226 0.18527,-8.37047 -11.3772,-133.60677 -11.16886,-141.97671 0.22878,-9.18224 0.44388,-18.36496 0.73312,-27.54555 0.36534,-9.59481 0.73275,-19.18966 1.16235,-28.78184 0.43188,-9.59789 0.86446,-19.19649 1.55786,-28.77995 0.64494,-9.48966 1.30869,-18.97811 2.05988,-28.46006 0.73947,-9.2528 1.48094,-18.50609 2.39194,-27.74395 0.83614,-8.37708 -0.82815,100.50251 0.11443,92.13671 0.88552,-7.57322 4.39174,-132.38881 5.40466,-139.94599 0.94135,-6.91264 1.97315,-13.81243 2.94376,-20.72098 0.92593,-6.30081 -19.94756,28 -19.05352,21.69461 0.75434,-5.71827 23.27551,-52.04348 23.80346,-57.78841 0.52383,-5.20792 -15.2781,21.46243 -14.913,16.24075 C 5.62588,265.55437 2.06104,15.00438 2.20831,10.15077 2.37655,5.3916 22.62005,214.4489 22.64085,209.68644 c 0.03,-4.78854 15.16616,-81.44659 15.10118,-86.23466 -0.12951,-4.86466 -15.43379,62.13764 -15.70138,57.2782 -0.25037,-4.87521 -0.48585,-9.75281 -0.88551,-14.61856 -0.3829,-4.86067 -0.76492,-9.72207 -1.25297,-14.57355 -0.53238,-4.78182 -1.06031,-9.56505 -1.71911,-14.33148 -0.69298,-4.65095 -1.40278,-9.29946 -2.17564,-13.93792 -0.76431,-4.56867 -1.54782,-9.13436 -2.39921,-13.68773 -0.82595,-4.36173 -1.7001,-8.71412 -2.64152,-13.05252 C 10.04605,92.29406 9.09244,88.06676 8.04908,83.86092 7.02681,79.79631 5.98999,75.73437 4.81977,71.70929 3.70391,67.92745 16.68874,163.81114 15.42762,160.07486 14.27145,156.59779 -1.01777,53.46432 -2.17384,49.98725 -3.28192,46.80125 -2.6432,6.44519 -3.80574,3.27897 -4.89386,0.35555 -7.81343,34.63409 -8.93407,31.72288 c -1.00534,-2.72393 -2.04471,-5.4352 -3.02365,-8.16883 -0.82892,-2.42183 -1.6674,-4.84077 -2.45614,-7.27601 -0.66719,-2.06401 -1.29715,-4.14204 -1.82015,-6.24774 -0.37274,-1.64454 -0.68064,-3.30246 -0.81733,-4.98571 -0.12856,-1.31906 -0.24261,-2.63808 -0.22457,-3.96515 0,0 50.21214,65.42161 50.21214,65.42161 z"
       id="path4002"
       style="fill:#666666;fill-opacity:1;fill-rule:nonzero;stroke:none;filter:url(#filter3978)"
       inkscape:export-ydpi="90"
       inkscape:export-xdpi="90"
       inkscape:connector-curvature="0"
       transform="matrix(1,0,0,1.2398619,728,-137.25892)" />
    <rect
       style="fill:#00a4d4;fill-opacity:1;fill-rule:nonzero;stroke:#ffffff;stroke-width:0.28158339999999998;stroke-linejoin:bevel;stroke-opacity:1;filter:url(#filter3858)"
       id="rect2816-7"
       width="202.71841"
       height="19.718416"
       x="49.640808"
       y="13.002975"
       transform="matrix(2.5606856,0,0,2.3615626,-40.16355,14.871705)" />
    <rect
       y="16.362183"
       x="630"
       height="587"
       width="105"
       id="rect3062"
       style="fill:#999999;fill-opacity:1;fill-rule:nonzero;stroke:none;opacity:0.41532258" />
    <path
       inkscape:export-xdpi="90"
       inkscape:export-ydpi="90"
       style="fill:#666666;fill-opacity:1;fill-rule:nonzero;stroke:none;filter:url(#filter3978)"
       id="path2816"
       d="m 32.93617,66.50105 c 0.0214,1.32487 -44.29122,-53.31081 -44.17373,-51.99148 0.12699,1.65069 0.41063,3.28114 0.76274,4.89683 0.50272,2.08456 1.12155,4.13999 1.77884,6.18047 0.76921,2.40604 1.58994,4.79543 2.40172,7.18743 0.97018,2.71833 1.99581,5.41627 2.99589,8.12363 1.10937,2.89576 2.17852,5.80653 3.25408,8.71492 1.15092,3.14986 2.35171,6.2803 3.44556,9.45081 1.14388,3.45853 2.27709,6.92052 3.4197,10.3795 1.25042,3.72261 2.40491,7.47589 3.51277,11.24303 1.15314,4.01563 2.18818,8.06379 3.20694,12.11518 1.03445,4.19659 1.97961,8.41402 2.899,12.63702 0.9436,4.32488 1.80482,8.66646 2.61981,13.01718 0.83759,4.54771 1.63278,9.10326 2.3857,13.66574 0.7722,4.63471 1.47868,9.28006 2.16927,13.92753 0.6471,4.76127 1.17739,9.53772 1.70784,14.31314 0.48239,4.85012 0.85825,9.71009 1.24968,14.56819 0.39191,4.86747 0.6273,9.74585 0.88742,14.62168 0.25946,4.86081 0.37173,9.72799 0.51139,14.59332 0.0749,4.78988 0.12005,9.58072 0.0938,14.37118 -0.0189,4.76743 -0.15071,9.5321 -0.30836,14.29654 -0.15318,4.83833 -0.43503,9.67116 -0.75357,14.501 -0.38365,5.19525 -0.88197,10.3814 -1.41685,15.56303 -0.547,5.70554 -1.34082,11.38117 -2.11922,17.0583 -0.89777,6.2719 -1.83488,12.53814 -2.77281,18.80416 -1.01475,6.86919 -2.03941,13.73698 -3.01036,20.61256 -1.04443,7.50896 -35.15447,58.79776 -36.07596,66.32282 -0.97357,8.31431 31.24468,-27.13611 30.37454,-18.81038 -0.95944,9.18965 -1.73855,18.39655 -2.47657,27.60619 -0.75507,9.47974 -1.42542,18.96595 -2.06346,28.4542 -0.68451,9.57263 -1.15009,19.15828 -1.57928,28.74509 -0.42537,9.60353 -0.79152,19.20949 -1.14138,28.81601 -0.28981,9.22125 -0.46856,18.44557 -0.65708,27.66932 -0.17352,8.41628 -0.33963,16.8327 -0.50391,25.24916 -0.14474,7.66769 -0.28156,15.33551 -0.41942,23.00331 -0.12255,6.82012 -0.24495,13.64023 -0.36737,20.46034 -0.10867,6.054 -0.21733,12.10802 -0.326,18.16202 -0.0965,5.37375 -0.19291,10.7475 -0.28937,16.12125 -0.0856,4.76992 -0.17123,9.53984 -0.25684,14.30977 -0.076,4.23394 -0.15199,8.46788 -0.22799,12.70183 -0.0675,3.75819 -0.13491,7.51639 -0.20238,11.27458 -0.0599,3.3359 -0.11975,6.67181 -0.17962,10.00771 -0.0532,2.96106 -0.1063,5.92212 -0.15945,8.88318 -0.0321,1.7868 -0.0641,3.57359 -0.0962,5.36039 0,0 -5.68002,-9.24712 -5.68002,-9.24712 l 0,0 c 0.0404,-1.77326 0.0808,-3.54652 0.12116,-5.31978 0.0669,-2.93862 0.13386,-5.87724 0.20079,-8.81587 0.0754,-3.31062 0.1508,-6.62125 0.22621,-9.93187 0.0849,-3.72973 0.1699,-7.45944 0.25484,-11.18917 0.0957,-4.20186 0.19141,-8.40373 0.2871,-12.6056 0.10782,-4.73378 0.21564,-9.46756 0.32345,-14.20134 0.12146,-5.33304 0.24293,-10.66607 0.36439,-15.99911 0.13684,-6.00813 22.24429,-149.80844 22.38113,-155.81658 0.15415,-6.76852 -21.66229,124.25512 -21.50818,117.48659 0.17333,-7.61446 12.10492,101.63713 12.27546,94.0226 0.18527,-8.37047 -11.3772,-133.60677 -11.16886,-141.97671 0.22878,-9.18224 0.44388,-18.36496 0.73312,-27.54555 0.36534,-9.59481 0.73275,-19.18966 1.16235,-28.78184 0.43188,-9.59789 0.86446,-19.19649 1.55786,-28.77995 0.64494,-9.48966 1.30869,-18.97811 2.05988,-28.46006 0.73947,-9.2528 1.48094,-18.50609 2.39194,-27.74395 0.83614,-8.37708 -0.82815,100.50251 0.11443,92.13671 0.88552,-7.57322 4.39174,-132.38881 5.40466,-139.94599 0.94135,-6.91264 1.97315,-13.81243 2.94376,-20.72098 0.92593,-6.30081 -19.94756,28 -19.05352,21.69461 0.75434,-5.71827 23.27551,-52.04348 23.80346,-57.78841 0.52383,-5.20792 -15.2781,21.46243 -14.913,16.24075 C 5.62588,265.55437 2.06104,15.00438 2.20831,10.15077 2.37655,5.3916 22.62005,214.4489 22.64085,209.68644 c 0.03,-4.78854 15.16616,-81.44659 15.10118,-86.23466 -0.12951,-4.86466 -15.43379,62.13764 -15.70138,57.2782 -0.25037,-4.87521 -0.48585,-9.75281 -0.88551,-14.61856 -0.3829,-4.86067 -0.76492,-9.72207 -1.25297,-14.57355 -0.53238,-4.78182 -1.06031,-9.56505 -1.71911,-14.33148 -0.69298,-4.65095 -1.40278,-9.29946 -2.17564,-13.93792 -0.76431,-4.56867 -1.54782,-9.13436 -2.39921,-13.68773 -0.82595,-4.36173 -1.7001,-8.71412 -2.64152,-13.05252 C 10.04605,92.29406 9.09244,88.06676 8.04908,83.86092 7.02681,79.79631 5.98999,75.73437 4.81977,71.70929 3.70391,67.92745 16.68874,163.81114 15.42762,160.07486 14.27145,156.59779 -1.01777,53.46432 -2.17384,49.98725 -3.28192,46.80125 -2.6432,6.44519 -3.80574,3.27897 -4.89386,0.35555 -7.81343,34.63409 -8.93407,31.72288 c -1.00534,-2.72393 -2.04471,-5.4352 -3.02365,-8.16883 -0.82892,-2.42183 -1.6674,-4.84077 -2.45614,-7.27601 -0.66719,-2.06401 -1.29715,-4.14204 -1.82015,-6.24774 -0.37274,-1.64454 -0.68064,-3.30246 -0.81733,-4.98571 -0.12856,-1.31906 -0.24261,-2.63808 -0.22457,-3.96515 0,0 50.21214,65.42161 50.21214,65.42161 z"
       sodipodi:nodetypes="cccccccccccsccccsscccccccccsccccccssssssssscccssssssssscsccccccccccccccccccccscccccccscccc"
       inkscape:connector-curvature="0"
       transform="matrix(-1,0,0,1,19.328068,0)" />
    <rect
       style="fill:#dde4ec;fill-opacity:1;fill-rule:nonzero;stroke:none"
       id="rect2958"
       width="713.18994"
       height="108.33265"
       x="22.067762"
       y="-98.17067"
       transform="matrix(1.0688523,0,0,0.98327267,-47.590256,-20.974782)" />
    <flowRoot
       xml:space="preserve"
       id="flowRoot3800"
       style="font-size:40px;font-style:normal;font-variant:normal;font-weight:normal;font-stretch:normal;fill:#000000;fill-opacity:1;stroke:url(#radialGradient3816);font-family:Sans;-inkscape-font-specification:ClearlyU PUA"
       transform="translate(-62,62)"><flowRegion
         id="flowRegion3802"
         style="stroke:url(#radialGradient3820)"><rect
           id="rect3804"
           width="667"
           height="141"
           x="47"
           y="-134.63782"
           style="font-style:normal;font-variant:normal;font-weight:normal;font-stretch:normal;stroke:url(#radialGradient3818);font-family:Sans;-inkscape-font-specification:ClearlyU PUA" /></flowRegion><flowPara
         id="flowPara3806"
         style="font-size:48px;font-style:normal;font-variant:normal;font-weight:bold;font-stretch:normal;stroke:url(#radialGradient3822);font-family:Serto Jerusalem Outline;-inkscape-font-specification:Serto Jerusalem Outline Bold">andrespect</flowPara></flowRoot>    <rect
       style="opacity:0.41532258000000000;fill:#7b715d;fill-opacity:1;stroke:none"
       id="rect4000"
       width="761"
       height="46"
       x="-22"
       y="-8.6378174"
       transform="matrix(1,0,0,0.17391304,0,-7.1355883)" />
    <rect
       style="opacity:1;fill:#000000;fill-opacity:1;fill-rule:nonzero;stroke:none"
       id="rect4023"
       width="726"
       height="18"
       x="-13"
       y="-143.63782" />
  </g>
  <g
     inkscape:groupmode="layer"
     id="layer2"
     inkscape:label="Layer"
     style="display:inline">
    <rect
       style="fill:#f2f2f2;fill-opacity:1;fill-rule:nonzero;stroke:none"
       id="rect2840"
       width="743"
       height="28"
       x="-5.0182081e-14"
       y="84.362183" />
    <rect
       style="opacity:0.89300411000000002;fill:#ffffff;fill-opacity:1;fill-rule:nonzero;stroke:none;display:inline"
       id="rect2922-9"
       width="743"
       height="86"
       x="2"
       y="2.3621826" />
  </g>
</svg>
