<?xml version="1.0" encoding="UTF-8" standalone="no"?>
<!-- Created with Inkscape (http://www.inkscape.org/) -->

<svg
   xmlns:dc="http://purl.org/dc/elements/1.1/"
   xmlns:cc="http://creativecommons.org/ns#"
   xmlns:rdf="http://www.w3.org/1999/02/22-rdf-syntax-ns#"
   xmlns:svg="http://www.w3.org/2000/svg"
   xmlns="http://www.w3.org/2000/svg"
   xmlns:sodipodi="http://sodipodi.sourceforge.net/DTD/sodipodi-0.dtd"
   xmlns:inkscape="http://www.inkscape.org/namespaces/inkscape"
   width="225"
   height="225"
   id="svg4118"
   version="1.1"
   inkscape:version="0.48.1 r9760"
   sodipodi:docname="perceiver_face--proportioned.svg"
   inkscape:export-filename="/home/go/Downloads/perceiver_face--proportioned-v2.png"
   inkscape:export-xdpi="300"
   inkscape:export-ydpi="300">
  <defs
     id="defs4120" />
  <sodipodi:namedview
     id="base"
     pagecolor="#ffffff"
     bordercolor="#666666"
     borderopacity="1.0"
     inkscape:pageopacity="0.0"
     inkscape:pageshadow="2"
     inkscape:zoom="1"
     inkscape:cx="99.102591"
     inkscape:cy="103.73067"
     inkscape:document-units="px"
     showgrid="false"
     height="200px"
     inkscape:window-width="528"
     inkscape:window-height="444"
     inkscape:window-x="125"
     inkscape:window-y="77"
     inkscape:window-maximized="0"
     inkscape:current-layer="svg4118"
     showborder="true"
     inkscape:showpageshadow="false"
     borderlayer="false"
     fit-margin-left="44"
     fit-margin-right="30"
     fit-margin-top="5"
     fit-margin-bottom="0" />
  <metadata
     id="metadata4123">
    <rdf:RDF>
      <cc:Work
         rdf:about="">
        <dc:format>image/svg+xml</dc:format>
        <dc:type
           rdf:resource="http://purl.org/dc/dcmitype/StillImage" />
        <dc:title></dc:title>
      </cc:Work>
    </rdf:RDF>
  </metadata>
  <path
     sodipodi:type="arc"
     style="fill:#000000;fill-opacity:1;fill-rule:evenodd;stroke:none"
     id="path3287"
     sodipodi:cx="130"
     sodipodi:cy="259.50504"
     sodipodi:rx="30"
     sodipodi:ry="27.142857"
     d="m 160,259.50504 a 30,27.142857 0 1 1 -60,0 30,27.142857 0 1 1 60,0 z"
     transform="matrix(0.22792904,0,0,0.22792904,38.05393,-1.9763755)" />
  <path
     style="fill:#000000;fill-opacity:1;stroke:none"
     d="M 66.73628,67.787765 C 55.09197,131.54591 80.31855,178.31272 115.98411,203.61605 79.48031,186.79207 62.70656,137.59975 60,104.12695 60.52712,91.782375 62.59413,79.451345 66.73628,67.787765 z"
     id="path3293"
     inkscape:connector-curvature="0"
     sodipodi:nodetypes="cccc" />
  <path
     style="fill:#000000;fill-opacity:1;stroke:none"
     d="M 137.15334,201.05545 C 60.06349,166.02431 52.34454,0.05806443 204.36187,8.7988746 67.44121,-21.423885 38.69082,172.56155 137.15334,201.05545 z"
     id="path3341"
     inkscape:connector-curvature="0"
     sodipodi:nodetypes="ccc" />
  <path
     style="fill:#000000;fill-opacity:1;stroke:none"
     d="m 129.32924,102.23913 c 23.10809,-5.847147 39.8685,0.52387 36.61212,23.44671 -2.3813,33.05161 -1.49028,66.20832 -1.79171,99.31416 -16.12541,-79.13103 9.78038,-103.98286 -34.82041,-122.76087 z"
     id="path3343"
     inkscape:connector-curvature="0"
     sodipodi:nodetypes="cccc" />
  <path
     style="fill:#000000;fill-opacity:1;stroke:none"
     id="path3347"
     d="m 124.24888,60.929585 c -1.87283,1.04725 3.44703,-2.77869 1.86279,-0.91019 -0.30568,0.41904 -0.50009,0.90228 -0.62829,1.40157 -0.10141,0.42912 -0.0506,0.84518 0.10034,1.25312 0.17775,0.43269 0.5265,0.72989 0.88745,1.00831 0.44877,0.30402 0.91955,0.57797 1.39251,0.84293 0.42948,0.25446 0.90607,0.3257 1.39586,0.34625 1.25578,-0.13721 3.58174,-1.78529 -1.41168,1.07679 0.39821,-0.21901 0.66232,-0.55564 0.87159,-0.94903 0.19628,-0.39199 0.24033,-0.81476 0.23151,-1.24602 -0.0591,-0.45303 -0.25171,-0.87534 -0.47608,-1.26866 -0.27845,-0.45988 -0.67414,-0.81992 -1.09154,-1.15011 -0.5035,-0.38371 -1.06692,-0.67355 -1.63761,-0.94195 -0.10614,-0.0464 -0.21227,-0.0928 -0.31841,-0.13917 0,0 2.71214,-1.80185 2.71214,-1.80185 l 0,0 c 0.10782,0.049 0.21564,0.0979 0.32347,0.1468 0.58691,0.28685 1.16492,0.59755 1.67847,1.00541 0.4417,0.36327 0.85744,0.75942 1.15421,1.25426 0.25023,0.43855 0.45519,0.90535 0.54992,1.40402 0.0316,0.47085 0.0117,0.94229 -0.16296,1.38733 -0.17787,0.43231 -0.40759,0.84673 -0.79898,1.12137 -1.2365,0.71777 -2.67266,2.03266 -4.27323,1.99402 -0.52274,-0.0592 -1.02405,-0.18425 -1.47666,-0.46476 -0.48158,-0.28012 -0.972,-0.55055 -1.41905,-0.88442 -0.39839,-0.3237 -0.7723,-0.67557 -0.97621,-1.15823 -0.18017,-0.45765 -0.27009,-0.92986 -0.18796,-1.42204 0.10328,-0.53965 0.29302,-1.05161 0.57091,-1.52731 0.82139,-1.23336 2.28381,-2.1831 3.76176,-2.29235 0,0 -2.63427,1.91391 -2.63427,1.91391 z"
     inkscape:connector-curvature="0" />
  <path
     style="fill:#000000;fill-opacity:1;stroke:none"
     id="path3359"
     d="m 100.83633,59.494315 c -0.22875,-0.22889 -0.47538,-0.33673 -0.79644,-0.30697 -1.80314,1.18924 3.43065,-2.91826 1.89011,-0.84462 -0.31621,0.47545 -0.50066,1.01816 -0.64096,1.56725 -0.12786,0.52293 -0.10671,1.04694 0.0179,1.56591 0.13834,0.50207 0.47505,0.89377 0.83302,1.25614 0.37,0.36977 0.79069,0.64636 1.30251,0.75941 1.09269,0.0754 3.79647,-1.908 -1.68744,1.23152 0.41035,-0.27058 0.69229,-0.6732 0.92375,-1.09809 0.24323,-0.46952 0.35878,-0.97886 0.39815,-1.50232 0.046,-0.54229 -0.0935,-1.05224 -0.31132,-1.54233 -0.23975,-0.4997 -0.61391,-0.90312 -1.01746,-1.27414 -0.0758,-0.0627 -0.15156,-0.12549 -0.22734,-0.18824 0,0 2.76174,-1.72487 2.76174,-1.72487 l 0,0 c 0.0787,0.0675 0.15745,0.13498 0.23617,0.20247 0.42831,0.40681 0.82325,0.84855 1.08309,1.38531 0.24095,0.53041 0.41488,1.08805 0.38388,1.6784 -0.0163,0.55932 -0.10866,1.10863 -0.34072,1.62256 -0.21134,0.46789 -0.48039,0.90048 -0.85756,1.25504 -1.02509,0.59835 -2.54735,2.13847 -4.03092,1.79531 -0.53795,-0.18218 -0.99845,-0.49563 -1.39532,-0.90277 -0.39065,-0.40869 -0.75253,-0.85182 -0.91768,-1.40323 -0.1502,-0.56023 -0.20293,-1.13029 -0.0888,-1.70466 0.12326,-0.58115 0.30276,-1.15133 0.59237,-1.67307 0.76404,-1.28123 2.25939,-2.25681 3.73782,-2.36001 0.3597,0.0643 0.65864,0.23189 0.91875,0.49011 0,0 -2.76732,1.71589 -2.76732,1.71589 z"
     inkscape:connector-curvature="0" />
</svg>
