<?xml version="1.0" encoding="UTF-8" standalone="no"?>
<!-- Created with Inkscape (http://www.inkscape.org/) -->

<svg
   xmlns:dc="http://purl.org/dc/elements/1.1/"
   xmlns:cc="http://creativecommons.org/ns#"
   xmlns:rdf="http://www.w3.org/1999/02/22-rdf-syntax-ns#"
   xmlns:svg="http://www.w3.org/2000/svg"
   xmlns="http://www.w3.org/2000/svg"
   xmlns:sodipodi="http://sodipodi.sourceforge.net/DTD/sodipodi-0.dtd"
   xmlns:inkscape="http://www.inkscape.org/namespaces/inkscape"
   width="744.09448819"
   height="1052.3622047"
   id="svg2"
   version="1.1"
   inkscape:version="0.48.1 r9760"
   sodipodi:docname="New document 1">
  <defs
     id="defs4" />
  <sodipodi:namedview
     id="base"
     pagecolor="#ffffff"
     bordercolor="#666666"
     borderopacity="1.0"
     inkscape:pageopacity="0.0"
     inkscape:pageshadow="2"
     inkscape:zoom="0.35"
     inkscape:cx="375"
     inkscape:cy="520"
     inkscape:document-units="px"
     inkscape:current-layer="layer1"
     showgrid="false"
     inkscape:window-width="1280"
     inkscape:window-height="725"
     inkscape:window-x="0"
     inkscape:window-y="24"
     inkscape:window-maximized="1" />
  <metadata
     id="metadata7">
    <rdf:RDF>
      <cc:Work
         rdf:about="">
        <dc:format>image/svg+xml</dc:format>
        <dc:type
           rdf:resource="http://purl.org/dc/dcmitype/StillImage" />
        <dc:title></dc:title>
      </cc:Work>
    </rdf:RDF>
  </metadata>
  <g
     inkscape:label="Layer 1"
     inkscape:groupmode="layer"
     id="layer1">
    <path
       sodipodi:type="arc"
       style="fill:#000000;fill-rule:evenodd;stroke:#000000;stroke-width:1px;stroke-linecap:butt;stroke-linejoin:miter;stroke-opacity:1"
       id="path3287"
       sodipodi:cx="130"
       sodipodi:cy="259.50504"
       sodipodi:rx="30"
       sodipodi:ry="27.142857"
       d="m 160,259.50504 a 30,27.142857 0 1 1 -60,0 30,27.142857 0 1 1 60,0 z" />
    <path
       style="fill:#000000"
       id="path3293"
       d="m 144.75536,306.07833 c -0.0313,1.91585 -0.0431,3.83191 -0.065,5.74788 -0.0361,3.60864 -0.0666,7.21736 -0.0809,10.82615 -0.0227,4.67562 -0.006,9.35136 -0.0448,14.02688 -0.0715,4.80426 -0.54843,9.58959 -0.92845,14.37605 -0.45865,5.59928 -0.80347,11.20684 -1.13786,16.81462 -0.37379,6.4626 -0.68208,12.92868 -0.96689,19.39574 -0.30156,6.91108 -0.55773,13.82403 -0.80923,20.73708 -0.25188,7.05533 -0.47129,14.11172 -0.68781,21.1682 -0.21621,7.1763 -0.40888,14.35328 -0.59133,21.53051 -0.18778,7.29887 -0.34899,14.59839 -0.5097,21.8979 -0.15676,7.40918 -0.2988,14.81865 -0.43867,22.22816 -0.13796,7.68035 -0.26743,15.36088 -0.38492,23.04158 -0.13759,8.16427 -0.23942,16.32907 -0.33672,24.49391 -0.10087,8.23312 -0.18495,16.46643 -0.27271,24.6997 -0.12054,8.1672 -0.11177,16.33504 -0.007,24.50225 0.15108,8.1401 0.34946,16.27923 0.53291,24.41864 0.18059,8.26231 0.33715,16.52513 0.49468,24.7879 0.15809,8.60251 0.27888,17.20561 0.41308,25.8085 0.17596,8.72154 0.45364,17.44063 0.69716,26.16045 0.25012,8.61771 0.41508,17.23763 0.78361,25.85136 0.30393,8.46199 1.35166,16.86386 2.52571,25.2409 1.22248,8.67448 2.89008,17.27756 4.80577,25.82316 1.84562,8.06631 4.25505,15.98344 6.90626,23.81664 2.49758,7.09226 5.26181,14.08621 8.18881,21.01108 2.80948,6.73828 6.2379,13.17799 9.84185,19.51666 3.8477,6.67661 8.20553,13.03801 12.58805,19.36988 4.69468,6.60128 9.38359,13.20769 14.12266,19.7774 4.59106,6.5497 9.46751,12.88752 14.5162,19.08877 4.79047,5.93712 10.15972,11.33782 15.79747,16.46112 5.95925,5.23899 12.31188,10.00571 18.71066,14.68902 6.40688,4.66895 13.01371,9.05125 19.69277,13.31821 6.45697,4.21599 13.19936,7.93924 20.09382,11.38127 7.54082,3.69007 15.3475,6.78632 23.19243,9.75849 8.28758,3.02737 16.64137,5.86573 24.9223,8.91168 5.58157,2.04673 2.79703,1.00025 8.35353,3.13964 0,0 -34.79953,23.39616 -34.79953,23.39616 l 0,0 c -5.52716,-2.0854 -2.75496,-1.05437 -8.31671,-3.09286 -8.31619,-3.01255 -16.69877,-5.8399 -24.97985,-8.9493 -7.95078,-3.066 -15.86048,-6.26281 -23.4876,-10.07799 -6.98349,-3.562 -13.80826,-7.41165 -20.35358,-11.73542 -6.71412,-4.35011 -13.3539,-8.81669 -19.79792,-13.56076 -6.49809,-4.79586 -12.97235,-9.65008 -18.989,-15.04796 -5.7488,-5.30188 -11.22433,-10.88291 -16.11457,-16.9993 -5.06724,-6.28506 -9.96615,-12.70268 -14.60419,-19.31274 -4.74713,-6.5953 -9.48123,-13.20052 -14.18232,-19.8286 -4.46954,-6.42327 -8.88755,-12.89304 -12.81364,-19.668 -3.7042,-6.47187 -7.22888,-13.05089 -10.10209,-19.94229 -2.96853,-7.02189 -5.76058,-14.11855 -8.28736,-21.31232 -2.69199,-7.97456 -5.13553,-16.03387 -7.03566,-24.23801 -1.98258,-8.63909 -3.67416,-17.34297 -4.97773,-26.11204 -1.25578,-8.49389 -2.3719,-17.01527 -2.72179,-25.6033 -0.40541,-8.63557 -0.56644,-17.27829 -0.80618,-25.91963 -0.2439,-8.73635 -0.50123,-17.47237 -0.71701,-26.20946 -0.12996,-8.59206 -0.28129,-17.18376 -0.4462,-25.77522 -0.15346,-8.25578 -0.31875,-16.51134 -0.5051,-24.76645 -0.17887,-8.14897 -0.37353,-16.2976 -0.54284,-24.44677 -0.1444,-8.19949 -0.152037,-16.40114 -0.0342,-24.60111 0.0812,-8.23531 0.17425,-16.47049 0.26859,-24.70567 0.0982,-8.16167 0.19724,-16.32332 0.29412,-24.48501 0.10796,-7.67973 0.21761,-15.35941 0.35028,-23.03877 0.12408,-7.4115 0.26182,-14.82277 0.41815,-22.23367 0.14865,-7.30238 0.31306,-14.60442 0.48885,-21.9062 0.17911,-7.18121 0.36313,-14.36231 0.5724,-21.54272 0.20424,-7.06189 0.42553,-14.12329 0.66842,-21.18396 0.23572,-6.91841 0.49282,-13.83604 0.77136,-20.75286 0.26669,-6.47135 0.53475,-12.94285 0.87498,-19.41085 0.29029,-5.6175 0.61085,-11.23362 0.99899,-16.84529 0.35089,-4.71018 0.78259,-9.41591 1.03001,-14.1325 0.0986,-4.64832 0.021,-9.2982 0.0253,-13.94731 -0.0142,-3.58132 -0.0447,-7.16257 -0.0809,-10.74373 -0.0219,-1.8939 -0.0336,-3.78788 -0.065,-5.68165 0,0 38.08215,-19.40382 38.08215,-19.40382 z"
       inkscape:connector-curvature="0" />
    <path
       style="fill:#999999"
       id="path3341"
       d="m 639.92654,60.382287 c -1.51152,0.524336 -2.84783,1.430319 -4.24861,2.203053 -2.32122,1.098688 -4.81911,1.766263 -7.29228,2.427798 -3.2554,0.883175 -6.56983,1.507436 -9.88629,2.107925 -4.02658,0.676963 -8.07033,1.244626 -12.12258,1.742756 -4.60066,0.568864 -9.21523,1.010124 -13.83144,1.429508 -5.07099,0.516868 -10.12984,0.896219 -15.2266,0.749278 -6.28693,-0.339356 -12.50109,-1.38891 -18.69605,-2.458834 -7.16574,-1.159412 -14.27106,-2.648737 -21.38932,-4.062139 -6.588,-1.407372 -13.31753,-1.744376 -20.02642,-2.035084 -6.62768,-0.04942 -13.24505,0.293455 -19.86264,0.601649 -7.23699,0.337116 -14.47602,0.626678 -21.7158,0.896005 -7.33033,0.2706 -14.66174,0.510272 -21.99347,0.739363 -7.04447,0.357142 -14.08717,0.747523 -21.13202,1.097371 -7.36515,0.220724 -14.6972,0.962469 -22.03598,1.582449 -7.48291,0.588398 -14.94525,1.40053 -22.39692,2.294801 -6.78657,0.957418 -13.47352,2.401672 -20.12058,4.045933 -6.30403,1.40728 -12.33896,3.634141 -18.39175,5.837076 -5.81878,2.277578 -11.31522,5.252774 -16.73471,8.339693 63.86916,-36.620371 35.09826,-21.279751 21.63505,-11.383059 -4.67953,3.502411 -9.15145,7.268118 -13.5315,11.135038 -4.37312,3.775051 -8.3687,7.949481 -12.22665,12.240824 -3.86484,4.462389 -7.54522,9.074409 -10.96939,13.882589 -3.41708,4.95111 -6.72244,9.97757 -9.99735,15.02337 -3.25935,5.06214 -6.51264,10.1278 -9.81542,15.16178 -3.26096,4.88939 -6.30668,9.91699 -9.49919,14.85057 -3.16387,4.82761 -6.41273,9.599 -9.64509,14.38089 -3.20842,4.79232 -6.26124,9.68847 -9.23239,14.63081 -3.06977,5.05705 -5.64129,10.38356 -8.05997,15.77467 -2.50996,5.65358 -4.57697,11.48585 -6.52906,17.35067 -2.01327,6.1375 -3.68852,12.37728 -5.26486,18.63884 -1.62728,6.47601 -2.97169,13.01699 -4.24703,19.56978 -1.30696,6.78352 -2.39748,13.60565 -3.42886,20.43564 -1.04851,7.02216 -1.93183,14.06732 -2.76586,21.11769 -0.84168,7.20619 -1.55447,14.42635 -2.2319,21.64953 -0.68167,7.33642 -1.25735,14.68202 -1.80235,22.02966 -0.54805,7.46219 -1.01375,14.93003 -1.45429,22.39922 -0.4639,7.53329 -0.7028,15.07928 -0.68472,22.62647 0.10913,7.62939 0.32855,15.25671 0.51618,22.88446 0.19066,7.74881 0.35684,15.49819 0.50886,23.24784 0.16409,8.46069 0.29132,16.92202 0.41323,25.38339 0.12314,8.66213 0.22995,17.32448 0.33217,25.98687 0.0997,8.51893 0.18614,17.03801 0.26827,25.55712 0.0805,8.41519 0.15029,16.83048 0.21658,25.24579 0.003,8.77346 0.23696,17.54358 0.44555,26.31381 0.25339,10.27894 0.56325,20.55886 1.07075,30.82863 0.63282,10.65911 1.32692,21.31443 1.9686,31.97304 0.50924,9.75588 0.45277,19.52975 0.45867,29.29562 -0.0571,9.34637 0.64677,18.67418 1.53828,27.97096 0.84303,9.01668 2.21281,17.97039 3.48516,26.93306 1.24328,8.52864 2.35193,17.07282 3.05575,25.66361 0.45459,7.61388 0.58959,15.23799 1.14206,22.84647 0.42489,7.01499 1.52878,13.94756 2.81977,20.84615 1.11065,6.24117 2.90262,12.31588 4.95595,18.30253 2.00615,5.61128 4.20637,11.14362 6.9053,16.45867 2.51966,4.79067 5.61042,9.23888 9.00666,13.44231 3.02097,3.73602 6.65087,6.87861 10.38914,9.86658 3.8518,3.07055 8.1506,5.49148 12.35433,8.03145 4.6534,2.76474 9.22897,5.65177 13.8478,8.47311 4.45463,2.75489 9.09392,5.15409 13.91039,7.20169 4.6931,1.9653 9.51384,3.59347 14.39713,5.01166 5.96221,1.61429 11.8483,3.52304 17.67622,5.56742 6.25447,2.23682 12.57031,4.29231 18.91968,6.24119 6.1678,2.02902 12.55375,3.22194 18.91939,4.43165 6.60467,1.23743 13.25155,2.22227 19.90848,3.12843 7.30654,0.97873 14.63678,1.76396 21.96796,2.53094 7.00237,0.8519 13.99418,1.68814 21.04522,2.01262 6.60374,0.41152 13.21607,0.12528 19.82216,-0.057 6.52777,-0.18846 13.05607,-0.35723 19.58462,-0.51601 6.48453,-0.15683 12.9695,-0.29415 19.45461,-0.42472 6.31746,-0.16175 12.63941,-0.15611 18.95372,-0.41856 6.01867,-0.34471 12.05834,-0.37325 18.06098,-0.94511 3.92965,-0.38361 1.97525,-0.1636 5.86335,-0.65877 0,0 -34.38782,25.57758 -34.38782,25.57758 l 0,0 c -3.96069,0.38779 -1.97484,0.21046 -5.95759,0.53158 -6.05255,0.33722 -12.11099,0.56817 -18.1684,0.79892 -6.32766,0.15223 -12.65677,0.23547 -18.9847,0.37615 -6.48154,0.13518 -12.96294,0.27727 -19.44387,0.43943 -6.52781,0.16432 -13.05518,0.34467 -19.58274,0.51859 -6.67952,0.15629 -13.36332,0.25854 -20.03369,-0.23517 -7.07812,-0.50422 -14.10952,-1.41209 -21.16237,-2.17666 -7.36053,-0.79196 -14.71901,-1.61294 -22.05021,-2.64713 -6.70312,-0.962 -13.3954,-2.00741 -20.04073,-3.31694 -6.47046,-1.29463 -12.91716,-2.71604 -19.18382,-4.81518 -6.36643,-2.00341 -12.69331,-4.12538 -18.98859,-6.34262 -5.82321,-1.94539 -11.67909,-3.78837 -17.59206,-5.44363 -4.97906,-1.57889 -9.91137,-3.31386 -14.68654,-5.44132 -4.90812,-2.24669 -9.6427,-4.83595 -14.22784,-7.68626 -4.59406,-2.84075 -9.19977,-5.66002 -13.82877,-8.44365 -4.36521,-2.63028 -8.73526,-5.28432 -12.67606,-8.53668 -3.91679,-3.23686 -7.69314,-6.65432 -10.86596,-10.64536 -3.53936,-4.4601 -6.78865,-9.15033 -9.44693,-14.19621 -2.80405,-5.48308 -5.10783,-11.18287 -7.19521,-16.97519 -2.15229,-6.16728 -4.06473,-12.42071 -5.25553,-18.85453 -1.34002,-7.03765 -2.58702,-14.0987 -3.03819,-21.2612 -0.62278,-7.60508 -0.8141,-15.22447 -1.14177,-22.84591 -0.62049,-8.51399 -1.69331,-16.97724 -2.92978,-25.4229 -1.27431,-9.01948 -2.68825,-18.02405 -3.56938,-27.09358 -0.95576,-9.41788 -1.72192,-18.87202 -1.73099,-28.34462 2.6e-4,-9.68947 0.0723,-19.38551 -0.34196,-29.06826 -0.63781,-10.66889 -1.31894,-21.33501 -1.98368,-32.00224 -0.56825,-10.30343 -0.84441,-20.6228 -1.12673,-30.93745 -0.20766,-8.79056 -0.47519,-17.58056 -0.47653,-26.3744 -0.0653,-8.4131 -0.13393,-16.82617 -0.2132,-25.23915 -0.0807,-8.51636 -0.16612,-17.03267 -0.26405,-25.54885 -0.10091,-8.65912 -0.20614,-17.31821 -0.32715,-25.97708 -0.11987,-8.45489 -0.24371,-16.90976 -0.40332,-25.36401 -0.14811,-7.74322 -0.31084,-15.48615 -0.49896,-23.22851 -0.1858,-7.64948 -0.39679,-15.29841 -0.54901,-22.94865 -0.0971,-7.62987 0.11546,-15.26078 0.55707,-22.87857 0.43273,-7.48789 0.88891,-14.97456 1.42593,-22.45579 0.53275,-7.37243 1.10046,-14.74252 1.76505,-22.10438 0.66649,-7.25305 1.36476,-14.50337 2.18662,-21.74075 0.81833,-7.0895 1.68206,-14.17435 2.70683,-21.23742 1.00587,-6.8834 2.08097,-13.75755 3.34952,-20.59807 1.25293,-6.61765 2.5569,-13.22779 4.14854,-19.77388 1.54353,-6.34885 3.17599,-12.67904 5.13373,-18.9149 1.89522,-5.98844 3.93222,-11.93613 6.34967,-17.73682 2.36873,-5.52839 4.83605,-11.02514 7.85057,-16.23861 2.90358,-5.03855 5.99364,-9.9656 9.13056,-14.86187 3.19236,-4.79497 6.44593,-9.54712 9.67207,-14.31932 3.20729,-4.93755 6.35188,-9.9105 9.4771,-14.90098 3.37376,-4.97922 6.6157,-10.04748 9.82871,-15.13143 3.32981,-5.02777 6.53182,-10.1409 9.96307,-15.10177 3.2935,-5.00352 6.9249,-9.74252 10.77781,-14.3288 3.74643,-4.49108 7.72905,-8.77982 12.00571,-12.77353 4.40651,-3.880654 8.7411,-7.854689 13.42043,-11.410757 15.76543,-12.553717 34.41203,-21.051378 51.53303,-31.397477 5.55107,-2.95787 11.1908,-5.768518 17.15633,-7.808359 6.12141,-2.177018 12.3433,-4.020042 18.6822,-5.460738 6.74227,-1.553377 13.55154,-2.820601 20.4244,-3.642851 7.48032,-0.855722 14.97476,-1.584416 22.48024,-2.182501 7.36545,-0.618631 14.73198,-1.213641 22.1213,-1.466668 7.05888,-0.362722 14.11587,-0.775255 21.17963,-1.0324 7.32649,-0.235498 14.65268,-0.48134 21.97764,-0.760985 7.23367,-0.280006 14.46628,-0.586007 21.69764,-0.920788 6.69571,-0.292629 13.4034,-0.571839 20.10442,-0.268658 6.8468,0.400531 13.67767,1.05258 20.38652,2.543814 7.08756,1.412248 14.1782,2.814383 21.31557,3.956675 6.0491,0.985966 12.14613,1.889748 18.28961,1.889331 5.00861,-0.118772 9.99363,-0.622036 14.98024,-1.085129 4.58677,-0.449393 9.17056,-0.934759 13.73783,-1.555362 4.00173,-0.560735 8.00237,-1.14956 11.96367,-1.954203 3.23883,-0.676591 6.46753,-1.422728 9.61049,-2.468583 2.34761,-0.821108 4.64806,-1.767704 6.75167,-3.112502 1.40088,-0.764923 2.91902,-1.326828 4.2556,-2.194382 0,0 -33.37157,26.89002 -33.37157,26.89002 z"
       inkscape:connector-curvature="0" />
    <path
       style="fill:#999999"
       id="path3343"
       d="m 414.8683,507.69784 c 1.9976,-0.39958 4.02485,-0.61125 6.04683,-0.84264 2.94432,-0.25017 5.80265,-1.00607 8.714,-1.5085 3.977,-0.68104 7.99008,-1.1193 11.9986,-1.56556 4.57937,-0.50428 9.16762,-0.92114 13.75772,-1.31358 4.90152,-0.41955 9.81022,-0.74669 14.71936,-1.06175 5.42147,-0.33938 10.84666,-0.61135 16.27318,-0.85476 6.09989,-0.27253 12.2021,-0.48815 18.30446,-0.69637 6.22282,-0.21078 12.44652,-0.3939 18.67047,-0.56786 6.13078,-0.1703 12.26214,-0.31816 18.39366,-0.4585 6.59848,-0.15593 13.19792,-0.26341 19.79742,-0.3644 7.5224,-0.11243 15.04503,-0.20743 22.56771,-0.29853 7.52395,-0.0373 15.04871,-0.30403 22.5711,-0.10141 7.73757,0.25024 15.46289,0.79213 23.19125,1.23614 7.45705,0.62573 14.94105,0.97081 22.37488,1.84053 6.24613,0.58661 12.33364,2.04718 18.22095,4.17817 4.93815,1.82513 9.53909,4.34838 13.94534,7.20252 3.86404,2.42567 7.07615,5.59752 9.93695,9.11502 2.55118,3.42534 4.50454,7.23046 6.11866,11.1707 1.54881,3.86319 2.43429,7.92941 3.20764,12.00408 0.88857,4.26234 0.87596,8.57548 0.45707,12.88469 -0.55873,4.52497 -1.69673,8.95048 -2.87708,13.34573 -1.33623,4.36624 -2.80286,8.68788 -4.06555,13.07719 -1.39881,4.88282 -2.48348,9.84559 -3.50265,14.81886 -1.11267,5.50709 -1.99451,11.05657 -2.82499,16.61202 -0.88231,5.9968 -1.60012,12.01591 -2.27431,18.03911 -0.70912,6.35122 -1.28607,12.71592 -1.83314,19.08281 -0.63157,7.35337 -1.07514,14.72079 -1.48907,22.08903 -0.4665,8.65735 -0.83499,17.31958 -1.19293,25.98197 -0.3549,8.69621 -0.66603,17.3941 -0.95948,26.09258 -0.28763,8.56374 -0.53786,17.12866 -0.77455,25.69394 -0.23346,8.44801 -0.43378,16.89688 -0.62542,25.34593 -0.19223,8.50027 -0.35811,17.00109 -0.5063,25.50223 -0.15562,9.07239 -0.28554,18.14518 -0.40825,27.21806 -0.12168,9.05111 -0.22803,18.10241 -0.32892,27.15377 -0.0979,8.81967 -0.18387,17.63947 -0.26555,26.45931 -0.0793,8.66142 -0.14895,17.32293 -0.21457,25.98446 -0.066,8.65538 -0.12091,17.31084 -0.17337,25.96632 -0.052,8.657 -0.097,17.31404 -0.13988,25.9711 -0.1086,8.34098 0.0173,16.68106 0.15446,25.02073 0.0566,4.05199 0.13663,8.1031 0.24288,12.15404 0,0 -38.12938,19.56748 -38.12938,19.56748 l 0,0 c -0.12927,-4.0664 -0.21674,-8.1328 -0.26699,-12.2011 -0.14156,-8.36704 -0.31044,-16.73459 -0.1965,-25.10316 0.0421,-8.65847 0.0867,-17.31693 0.13772,-25.97535 0.0518,-8.65736 0.10528,-17.31472 0.17047,-25.972 0.0645,-8.66368 0.13328,-17.32734 0.21129,-25.99091 0.0806,-8.82222 0.16519,-17.64441 0.26191,-26.46647 0.0996,-9.05433 0.20415,-18.10861 0.32439,-27.16268 0.12061,-9.07768 0.24833,-18.15527 0.40094,-27.23247 0.14396,-8.50797 0.30604,-17.0156 0.49594,-25.52268 0.18914,-8.45526 0.38561,-16.91038 0.61594,-25.36464 0.23328,-8.5729 0.47882,-17.14548 0.76296,-25.71687 0.28834,-8.70812 0.596,-17.4156 0.94486,-26.12152 0.35312,-8.68016 0.71759,-17.36006 1.16576,-26.03592 0.40046,-7.40541 0.82718,-14.8103 1.43235,-22.20232 0.53586,-6.39832 1.09403,-12.79525 1.78529,-19.179 0.65747,-6.06737 1.35416,-12.13122 2.2074,-18.17467 0.80134,-5.62171 1.66561,-11.23567 2.72583,-16.81519 0.9914,-5.06283 2.02276,-10.1216 3.36503,-15.10539 1.1926,-4.41494 2.47771,-8.80443 4.05465,-13.10011 1.26805,-4.19062 2.3536,-8.44254 3.1681,-12.74517 0.58716,-3.90153 0.90669,-7.81448 0.13809,-11.72524 -0.67861,-3.81021 -1.39683,-7.6316 -2.79953,-11.25593 -1.38632,-3.55467 -3.13669,-6.97513 -5.45338,-10.02165 -2.63951,-3.13687 -5.67392,-5.84976 -9.21438,-7.95289 -4.23427,-2.57221 -8.66102,-4.81029 -13.38391,-6.35326 -5.76446,-1.76774 -11.66828,-2.91426 -17.68492,-3.40623 -7.41008,-0.67731 -14.83601,-1.18066 -22.2599,-1.67955 -7.69025,-0.44802 -15.3807,-0.97119 -23.08517,-1.089 -7.50084,-0.0285 -15.00083,0.12544 -22.50119,0.19766 -7.51971,0.0938 -15.03938,0.19181 -22.55874,0.31084 -6.59325,0.1081 -13.18629,0.22928 -19.77849,0.39034 -6.12721,0.14586 -12.25424,0.29949 -18.38065,0.47632 -6.21859,0.18061 -12.43694,0.3705 -18.6543,0.58998 -6.09249,0.21734 -12.18467,0.44639 -18.27416,0.73772 -5.41036,0.26459 -10.8195,0.55641 -16.22413,0.92147 -4.89102,0.33429 -9.7807,0.69069 -14.66288,1.13824 -4.56699,0.41869 -9.13204,0.86284 -13.68563,1.41069 -3.96196,0.487 -7.91992,1.01632 -11.84045,1.77661 -2.93113,0.54967 -5.85734,1.04885 -8.82447,1.36136 -1.93167,0.30564 -3.8601,0.65894 -5.72233,1.27118 0,0 34.00398,-26.0857 34.00398,-26.0857 z"
       inkscape:connector-curvature="0" />
    <path
       style="fill:#ff6600"
       id="path3347"
       d="m 352.16575,267.98922 c -8.21675,4.59461 15.12326,-12.19104 8.17266,-3.99333 -1.34115,1.83849 -2.19407,3.95862 -2.75651,6.1492 -0.44495,1.88269 -0.22218,3.70806 0.44019,5.49783 0.77989,1.89834 2.30998,3.20227 3.89352,4.42379 1.96894,1.33381 4.03441,2.53577 6.10943,3.6982 1.88426,1.11641 3.97524,1.42898 6.12412,1.51913 5.50951,-0.60199 15.71424,-7.83267 -6.1935,4.7242 1.74707,-0.96084 2.90579,-2.43775 3.82395,-4.16368 0.86116,-1.71975 1.05438,-3.57464 1.01567,-5.46672 -0.25941,-1.9876 -1.1043,-3.84036 -2.08871,-5.56603 -1.22166,-2.01762 -2.95767,-3.59724 -4.78893,-5.0459 -2.20901,-1.68345 -4.68092,-2.95508 -7.18473,-4.13263 -0.46566,-0.20353 -0.93132,-0.40706 -1.39698,-0.61059 0,0 11.89906,-7.90531 11.89906,-7.90531 l 0,0 c 0.47305,0.21468 0.94609,0.42936 1.41914,0.64404 2.575,1.25853 5.11091,2.62167 7.36401,4.41109 1.93789,1.59379 3.76189,3.33181 5.0639,5.50281 1.09785,1.92409 1.99711,3.97212 2.41269,6.15992 0.13836,2.06578 0.051,4.13417 -0.71496,6.08669 -0.78036,1.8967 -1.78819,3.71489 -3.50537,4.91981 -5.42491,3.14909 -11.72582,8.91795 -18.74806,8.74843 -2.29346,-0.25953 -4.49286,-0.80836 -6.47862,-2.03903 -2.11286,-1.22903 -4.26448,-2.41548 -6.22584,-3.88027 -1.74786,-1.42016 -3.38833,-2.96397 -4.28294,-5.08154 -0.79051,-2.00785 -1.185,-4.0796 -0.82466,-6.23892 0.45314,-2.36765 1.2856,-4.61381 2.50478,-6.70083 3.60371,-5.41117 10.01981,-9.578 16.50407,-10.05729 0,0 -11.55738,8.39693 -11.55738,8.39693 z"
       inkscape:connector-curvature="0" />
    <path
       style="fill:#ff6600"
       id="path3359"
       d="m 271.44712,263.69222 c -1.00361,-1.00419 -2.08565,-1.47734 -3.49423,-1.34678 -7.91097,5.21757 15.05137,-12.80335 8.29253,-3.70561 -1.38734,2.08595 -2.19654,4.46702 -2.8121,6.87603 -0.56097,2.29425 -0.46815,4.59326 0.0786,6.87014 0.60693,2.20278 2.08418,3.92129 3.65471,5.51113 1.62333,1.62229 3.46903,2.8358 5.71457,3.33178 4.79398,0.33073 16.65637,-8.37103 -7.40337,5.40308 1.80034,-1.1871 3.03728,-2.95355 4.05278,-4.81767 1.06716,-2.05993 1.57411,-4.29461 1.74685,-6.59119 0.20179,-2.37921 -0.41022,-4.61653 -1.36589,-6.76669 -1.05185,-2.19235 -2.69344,-3.96228 -4.46393,-5.59009 -0.33247,-0.27529 -0.66494,-0.55058 -0.99741,-0.82588 0,0 12.11667,-7.56755 12.11667,-7.56755 l 0,0 c 0.34539,0.29609 0.69078,0.59218 1.03616,0.88828 1.87911,1.78482 3.61184,3.72286 4.75188,6.07781 1.05712,2.32709 1.82018,4.77364 1.68418,7.36372 -0.0714,2.45391 -0.47674,4.8639 -1.49485,7.11869 -0.92724,2.05279 -2.10763,3.9507 -3.76241,5.50628 -4.49738,2.62514 -11.17604,9.38216 -17.68495,7.87662 -2.36018,-0.79929 -4.38051,-2.17448 -6.12176,-3.96076 -1.71391,-1.79306 -3.30158,-3.73719 -4.02612,-6.15643 -0.65901,-2.45789 -0.89032,-4.95894 -0.38961,-7.47893 0.54078,-2.54968 1.32829,-5.05122 2.59894,-7.34028 3.35208,-5.62119 9.91265,-9.90141 16.39904,-10.35412 1.57809,0.28209 2.88964,1.01738 4.03085,2.15021 0,0 -12.14116,7.52821 -12.14116,7.52821 z"
       inkscape:connector-curvature="0" />
  </g>
</svg>
