<?xml version="1.0" encoding="UTF-8" standalone="no"?>
<!-- Created with Inkscape (http://www.inkscape.org/) -->

<svg
   xmlns:dc="http://purl.org/dc/elements/1.1/"
   xmlns:cc="http://creativecommons.org/ns#"
   xmlns:rdf="http://www.w3.org/1999/02/22-rdf-syntax-ns#"
   xmlns:svg="http://www.w3.org/2000/svg"
   xmlns="http://www.w3.org/2000/svg"
   xmlns:xlink="http://www.w3.org/1999/xlink"
   xmlns:sodipodi="http://sodipodi.sourceforge.net/DTD/sodipodi-0.dtd"
   xmlns:inkscape="http://www.inkscape.org/namespaces/inkscape"
   width="744.09448819"
   height="1052.3622047"
   id="svg2"
   version="1.1"
   inkscape:version="0.48.1 r9760"
   sodipodi:docname="perceiver_experimentB.svg">
  <defs
     id="defs4">
    <linearGradient
       inkscape:collect="always"
       id="linearGradient4285">
      <stop
         style="stop-color:#000000;stop-opacity:1;"
         offset="0"
         id="stop4287" />
      <stop
         style="stop-color:#000000;stop-opacity:0;"
         offset="1"
         id="stop4289" />
    </linearGradient>
    <linearGradient
       inkscape:collect="always"
       id="linearGradient4277">
      <stop
         style="stop-color:#000000;stop-opacity:0.63999999;"
         offset="0"
         id="stop4279" />
      <stop
         style="stop-color:#000000;stop-opacity:0;"
         offset="1"
         id="stop4281" />
    </linearGradient>
    <linearGradient
       inkscape:collect="always"
       xlink:href="#linearGradient4277"
       id="linearGradient4283"
       x1="98.5"
       y1="259.50504"
       x2="161.5"
       y2="259.50504"
       gradientUnits="userSpaceOnUse" />
    <linearGradient
       inkscape:collect="always"
       xlink:href="#linearGradient4285"
       id="linearGradient4291"
       x1="98.5"
       y1="259.50504"
       x2="161.5"
       y2="259.50504"
       gradientUnits="userSpaceOnUse" />
  </defs>
  <sodipodi:namedview
     id="base"
     pagecolor="#ffffff"
     bordercolor="#666666"
     borderopacity="1.0"
     inkscape:pageopacity="0.0"
     inkscape:pageshadow="2"
     inkscape:zoom="0.35"
     inkscape:cx="-139.28571"
     inkscape:cy="520"
     inkscape:document-units="px"
     inkscape:current-layer="layer1"
     showgrid="false"
     inkscape:window-width="1280"
     inkscape:window-height="725"
     inkscape:window-x="0"
     inkscape:window-y="24"
     inkscape:window-maximized="1" />
  <metadata
     id="metadata7">
    <rdf:RDF>
      <cc:Work
         rdf:about="">
        <dc:format>image/svg+xml</dc:format>
        <dc:type
           rdf:resource="http://purl.org/dc/dcmitype/StillImage" />
        <dc:title></dc:title>
      </cc:Work>
    </rdf:RDF>
  </metadata>
  <g
     inkscape:label="Layer 1"
     inkscape:groupmode="layer"
     id="layer1">
    <path
       sodipodi:type="arc"
       style="fill:url(#linearGradient4291);fill-rule:evenodd;stroke:url(#linearGradient4283);stroke-width:3;stroke-linecap:butt;stroke-linejoin:miter;stroke-opacity:1;stroke-miterlimit:4;stroke-dasharray:none;fill-opacity:1;opacity:0.46861925"
       id="path3287"
       sodipodi:cx="130"
       sodipodi:cy="259.50504"
       sodipodi:rx="30"
       sodipodi:ry="27.142857"
       d="m 160,259.50504 a 30,27.142857 0 1 1 -60,0 30,27.142857 0 1 1 60,0 z" />
    <path
       style="fill:#333333"
       d="M 125.83893,306.07833 C 93.193094,585.80642 202.06673,790.98783 341.90545,902.00192 181.7512,828.18957 108.15925,612.36659 96.284649,465.51036 98.597301,411.35062 107.66598,357.25029 125.83893,306.07833 z"
       id="path3293"
       inkscape:connector-curvature="0"
       sodipodi:nodetypes="cccc" />
    <path
       style="fill:#999999"
       d="M 434.78184,890.76773 C 96.56323,737.0745 62.697637,8.9257638 729.64788,47.274611 128.9317,-85.322663 2.794229,765.75555 434.78184,890.76773 z"
       id="path3341"
       inkscape:connector-curvature="0"
       sodipodi:nodetypes="ccc" />
    <path
       style="fill:#999999"
       id="path3343"
       d="m 400.45495,457.22788 c 1.15087,-0.43903 2.31883,-0.6716 3.48375,-0.92584 1.6963,-0.27487 3.34306,-1.1054 5.02037,-1.65744 2.29126,-0.74828 4.60331,-1.22981 6.91273,-1.72013 2.6383,-0.55407 5.28171,-1.01209 7.9262,-1.44327 2.8239,-0.46098 5.65194,-0.82042 8.48023,-1.16658 3.12345,-0.37289 6.24906,-0.67171 9.37542,-0.93916 3.51432,-0.29943 7.02997,-0.53634 10.54571,-0.76512 3.58514,-0.23159 7.17078,-0.43279 10.75657,-0.62393 3.53211,-0.18711 7.06456,-0.34957 10.59709,-0.50377 3.80157,-0.17132 7.60369,-0.28942 11.40584,-0.40038 4.33387,-0.12353 8.66786,-0.22791 13.00188,-0.328 4.33476,-0.041 8.66998,-0.33405 13.00384,-0.11142 4.45782,0.27494 8.90859,0.87034 13.36111,1.35818 4.29622,0.68751 8.60796,1.06667 12.89079,2.02226 3.59857,0.64452 7.10575,2.2493 10.49759,4.59069 2.84501,2.00533 5.49573,4.77771 8.0343,7.91365 2.22618,2.66516 4.07676,6.15018 5.72495,10.01498 1.4698,3.76353 2.59519,7.94434 3.52513,12.27362 0.89231,4.24461 1.40246,8.7123 1.84801,13.18928 0.51193,4.68317 0.50466,9.42216 0.26333,14.15684 -0.3219,4.97173 -0.97754,9.83419 -1.65757,14.66339 -0.76984,4.79734 -1.6148,9.54567 -2.34227,14.36835 -0.8059,5.36491 -1.43081,10.81768 -2.01798,16.28197 -0.64104,6.05083 -1.14909,12.14822 -1.62755,18.25218 -0.50833,6.58889 -0.92188,13.20228 -1.31029,19.82017 -0.40855,6.9783 -0.74095,13.97141 -1.05613,20.96692 -0.36386,8.07939 -0.61942,16.17422 -0.85789,24.26995 -0.26877,9.51212 -0.48106,19.0296 -0.68728,28.54726 -0.20447,9.55482 -0.38372,19.11148 -0.55278,28.66879 -0.16572,9.40926 -0.30988,18.81983 -0.44624,28.23078 -0.13451,9.28211 -0.24992,18.56517 -0.36033,27.84842 -0.11074,9.33953 -0.20631,18.67967 -0.29169,28.02015 -0.0897,9.96814 -0.16451,19.93671 -0.2352,29.90539 -0.0701,9.94476 -0.13138,19.88972 -0.1895,29.83475 -0.0564,9.69047 -0.10594,19.38107 -0.15299,29.07173 -0.0457,9.51659 -0.0858,19.03328 -0.12362,28.54999 -0.038,9.50995 -0.0697,19.01999 -0.0999,28.53006 -0.03,9.51173 -0.0559,19.02351 -0.0806,28.53531 -0.0626,9.16451 0.01,18.32804 0.089,27.49111 0.0326,4.45206 0.0787,8.90315 0.13993,13.35405 0,0 -21.96738,21.49944 -21.96738,21.49944 l 0,0 c -0.0745,-4.4679 -0.12487,-8.9358 -0.15382,-13.4058 -0.0816,-9.1931 -0.17886,-18.38681 -0.11321,-27.58163 0.0243,-9.51335 0.05,-19.02669 0.0793,-28.53998 0.0298,-9.51213 0.0607,-19.02426 0.0982,-28.53631 0.0372,-9.51907 0.0768,-19.03812 0.12173,-28.55707 0.0464,-9.69327 0.0952,-19.38651 0.1509,-29.0796 0.0574,-9.94829 0.11761,-19.89653 0.18689,-29.84454 0.0695,-9.97395 0.14307,-19.9478 0.23099,-29.92122 0.0829,-9.34799 0.17632,-18.69561 0.28572,-28.04262 0.10897,-9.29007 0.22217,-18.57999 0.35486,-27.86897 0.1344,-9.41933 0.27587,-18.83831 0.43957,-28.25598 0.16612,-9.5679 0.34337,-19.1351 0.54436,-28.70059 0.20344,-9.53718 0.41342,-19.07407 0.67162,-28.60653 0.23072,-8.13657 0.47656,-16.27257 0.82522,-24.39443 0.30872,-7.03005 0.6303,-14.05857 1.02855,-21.0726 0.37879,-6.66643 0.78017,-13.32898 1.27175,-19.96912 0.46167,-6.17676 0.9596,-12.345 1.57042,-18.47541 0.57118,-5.5627 1.16537,-11.12094 1.93869,-16.59679 0.68709,-4.85084 1.42748,-9.67372 2.336,-14.39353 0.73055,-4.60437 1.35597,-9.2761 1.82523,-14.00354 0.33828,-4.28674 0.52237,-8.58603 0.0796,-12.88291 -0.39096,-4.18641 -0.80475,-8.3851 -1.61288,-12.36727 -0.7987,-3.90563 -1.80714,-7.66381 -3.14185,-11.01112 -1.52069,-3.44658 -3.2689,-6.42733 -5.30865,-8.73811 -2.43948,-2.82617 -4.98986,-5.28522 -7.71084,-6.98053 -3.32107,-1.94228 -6.72242,-3.202 -10.18877,-3.74254 -4.26915,-0.74418 -8.54744,-1.29723 -12.82454,-1.84538 -4.43057,-0.49225 -8.86125,-1.06708 -13.30001,-1.19652 -4.32144,-0.0313 -8.64239,0.13783 -12.96355,0.21718 -4.33232,0.10306 -8.6646,0.21074 -12.99672,0.34153 -3.79855,0.11877 -7.59698,0.25191 -11.39493,0.42888 -3.53005,0.16026 -7.06,0.32906 -10.5896,0.52334 -3.5827,0.19845 -7.16526,0.40708 -10.74725,0.64823 -3.51006,0.2388 -7.01993,0.49047 -10.52825,0.81056 -3.11706,0.29072 -6.23341,0.61135 -9.34717,1.01245 -2.81785,0.3673 -5.63493,0.75889 -8.44769,1.25062 -2.63117,0.46003 -5.26122,0.94804 -7.88467,1.54998 -2.28259,0.53508 -4.56288,1.11666 -6.82161,1.95202 -1.6887,0.60394 -3.37457,1.1524 -5.08402,1.49577 -1.11289,0.33582 -2.22391,0.724 -3.29679,1.39669 0,0 19.59063,-28.66123 19.59063,-28.66123 z"
       inkscape:connector-curvature="0" />
    <path
       style="fill:#ff6600"
       id="path3347"
       d="m 378.16575,275.98922 c -8.21675,4.59461 15.12326,-12.19104 8.17266,-3.99333 -1.34115,1.83849 -2.19407,3.95862 -2.75651,6.1492 -0.44495,1.88269 -0.22218,3.70806 0.44019,5.49783 0.77989,1.89834 2.30998,3.20227 3.89352,4.42379 1.96894,1.33381 4.03441,2.53577 6.10943,3.6982 1.88426,1.11641 3.97524,1.42898 6.12412,1.51913 5.50951,-0.60199 15.71424,-7.83267 -6.1935,4.7242 1.74707,-0.96084 2.90579,-2.43775 3.82395,-4.16368 0.86116,-1.71975 1.05438,-3.57464 1.01567,-5.46672 -0.25941,-1.9876 -1.1043,-3.84036 -2.08871,-5.56603 -1.22166,-2.01762 -2.95767,-3.59724 -4.78893,-5.0459 -2.20901,-1.68345 -4.68092,-2.95508 -7.18473,-4.13263 -0.46566,-0.20353 -0.93132,-0.40706 -1.39698,-0.61059 0,0 11.89906,-7.90531 11.89906,-7.90531 l 0,0 c 0.47305,0.21468 0.94609,0.42936 1.41914,0.64404 2.575,1.25853 5.11091,2.62167 7.36401,4.41109 1.93789,1.59379 3.76189,3.33181 5.0639,5.50281 1.09785,1.92409 1.99711,3.97212 2.41269,6.15992 0.13836,2.06578 0.051,4.13417 -0.71496,6.08669 -0.78036,1.8967 -1.78819,3.71489 -3.50537,4.91981 -5.42491,3.14909 -11.72582,8.91795 -18.74806,8.74843 -2.29346,-0.25953 -4.49286,-0.80836 -6.47862,-2.03903 -2.11286,-1.22903 -4.26448,-2.41548 -6.22584,-3.88027 -1.74786,-1.42016 -3.38833,-2.96397 -4.28294,-5.08154 -0.79051,-2.00785 -1.185,-4.0796 -0.82466,-6.23892 0.45314,-2.36765 1.2856,-4.61381 2.50478,-6.70083 3.60371,-5.41117 10.01981,-9.578 16.50407,-10.05729 0,0 -11.55738,8.39693 -11.55738,8.39693 z"
       inkscape:connector-curvature="0" />
    <path
       style="fill:#ff6600"
       id="path3359"
       d="m 275.44712,269.69222 c -1.00361,-1.00419 -2.08565,-1.47734 -3.49423,-1.34678 -7.91097,5.21757 15.05137,-12.80335 8.29253,-3.70561 -1.38734,2.08595 -2.19654,4.46702 -2.8121,6.87603 -0.56097,2.29425 -0.46815,4.59326 0.0786,6.87014 0.60693,2.20278 2.08418,3.92129 3.65471,5.51113 1.62333,1.62229 3.46903,2.8358 5.71457,3.33178 4.79398,0.33073 16.65637,-8.37103 -7.40337,5.40308 1.80034,-1.1871 3.03728,-2.95355 4.05278,-4.81767 1.06716,-2.05993 1.57411,-4.29461 1.74685,-6.59119 0.20179,-2.37921 -0.41022,-4.61653 -1.36589,-6.76669 -1.05185,-2.19235 -2.69344,-3.96228 -4.46393,-5.59009 -0.33247,-0.27529 -0.66494,-0.55058 -0.99741,-0.82588 0,0 12.11667,-7.56755 12.11667,-7.56755 l 0,0 c 0.34539,0.29609 0.69078,0.59218 1.03616,0.88828 1.87911,1.78482 3.61184,3.72286 4.75188,6.07781 1.05712,2.32709 1.82018,4.77364 1.68418,7.36372 -0.0714,2.45391 -0.47674,4.8639 -1.49485,7.11869 -0.92724,2.05279 -2.10763,3.9507 -3.76241,5.50628 -4.49738,2.62514 -11.17604,9.38216 -17.68495,7.87662 -2.36018,-0.79929 -4.38051,-2.17448 -6.12176,-3.96076 -1.71391,-1.79306 -3.30158,-3.73719 -4.02612,-6.15643 -0.65901,-2.45789 -0.89032,-4.95894 -0.38961,-7.47893 0.54078,-2.54968 1.32829,-5.05122 2.59894,-7.34028 3.35208,-5.62119 9.91265,-9.90141 16.39904,-10.35412 1.57809,0.28209 2.88964,1.01738 4.03085,2.15021 0,0 -12.14116,7.52821 -12.14116,7.52821 z"
       inkscape:connector-curvature="0" />
  </g>
</svg>
