<?xml version="1.0" encoding="UTF-8" standalone="no"?>
<!-- Created with Inkscape (http://www.inkscape.org/) -->

<svg
   xmlns:dc="http://purl.org/dc/elements/1.1/"
   xmlns:cc="http://creativecommons.org/ns#"
   xmlns:rdf="http://www.w3.org/1999/02/22-rdf-syntax-ns#"
   xmlns:svg="http://www.w3.org/2000/svg"
   xmlns="http://www.w3.org/2000/svg"
   xmlns:xlink="http://www.w3.org/1999/xlink"
   xmlns:sodipodi="http://sodipodi.sourceforge.net/DTD/sodipodi-0.dtd"
   xmlns:inkscape="http://www.inkscape.org/namespaces/inkscape"
   width="744.09448819"
   height="1052.3622047"
   id="svg2"
   version="1.1"
   inkscape:version="0.48.1 r9760"
   sodipodi:docname="perceiver_experiment.svg">
  <defs
     id="defs4">
    <linearGradient
       inkscape:collect="always"
       id="linearGradient4285">
      <stop
         style="stop-color:#000000;stop-opacity:1;"
         offset="0"
         id="stop4287" />
      <stop
         style="stop-color:#000000;stop-opacity:0;"
         offset="1"
         id="stop4289" />
    </linearGradient>
    <linearGradient
       inkscape:collect="always"
       id="linearGradient4277">
      <stop
         style="stop-color:#000000;stop-opacity:0.63999999;"
         offset="0"
         id="stop4279" />
      <stop
         style="stop-color:#000000;stop-opacity:0;"
         offset="1"
         id="stop4281" />
    </linearGradient>
    <linearGradient
       inkscape:collect="always"
       xlink:href="#linearGradient4277"
       id="linearGradient4283"
       x1="98.5"
       y1="259.50504"
       x2="161.5"
       y2="259.50504"
       gradientUnits="userSpaceOnUse" />
    <linearGradient
       inkscape:collect="always"
       xlink:href="#linearGradient4285"
       id="linearGradient4291"
       x1="98.5"
       y1="259.50504"
       x2="161.5"
       y2="259.50504"
       gradientUnits="userSpaceOnUse" />
  </defs>
  <sodipodi:namedview
     id="base"
     pagecolor="#ffffff"
     bordercolor="#666666"
     borderopacity="1.0"
     inkscape:pageopacity="0.0"
     inkscape:pageshadow="2"
     inkscape:zoom="0.35"
     inkscape:cx="-139.28571"
     inkscape:cy="520"
     inkscape:document-units="px"
     inkscape:current-layer="layer1"
     showgrid="false"
     inkscape:window-width="1280"
     inkscape:window-height="725"
     inkscape:window-x="0"
     inkscape:window-y="24"
     inkscape:window-maximized="1" />
  <metadata
     id="metadata7">
    <rdf:RDF>
      <cc:Work
         rdf:about="">
        <dc:format>image/svg+xml</dc:format>
        <dc:type
           rdf:resource="http://purl.org/dc/dcmitype/StillImage" />
        <dc:title></dc:title>
      </cc:Work>
    </rdf:RDF>
  </metadata>
  <g
     inkscape:label="Layer 1"
     inkscape:groupmode="layer"
     id="layer1">
    <path
       sodipodi:type="arc"
       style="fill:url(#linearGradient4291);fill-rule:evenodd;stroke:url(#linearGradient4283);stroke-width:3;stroke-linecap:butt;stroke-linejoin:miter;stroke-opacity:1;stroke-miterlimit:4;stroke-dasharray:none;fill-opacity:1;opacity:0.46861925"
       id="path3287"
       sodipodi:cx="130"
       sodipodi:cy="259.50504"
       sodipodi:rx="30"
       sodipodi:ry="27.142857"
       d="m 160,259.50504 a 30,27.142857 0 1 1 -60,0 30,27.142857 0 1 1 60,0 z" />
    <path
       style="fill:#333333"
       d="m 171.34061,306.07833 c -8.35874,145.60663 -20.75998,291.67831 -2.55152,437.17959 21.37689,99.60652 140.16225,189.97336 297.19683,220.01233 58.63327,4.51715 -15.97095,32.47223 -44.41153,25.32596 C 363.50564,982.46299 313.27234,960.3267 267.53971,938.5583 162.78755,884.28446 99.931768,800.90496 102.35696,716.54588 96.194986,592.84706 98.920664,468.97189 109.63081,345.39447 c -16.619408,-24.88093 38.19556,-29.61095 61.7098,-39.31614 z"
       id="path3293"
       inkscape:connector-curvature="0" />
    <path
       style="fill:#999999"
       d="M 450.49613,887.33916 C 112.27752,733.64593 78.411923,5.4971924 745.36217,43.84604 144.64599,-88.751234 18.508515,762.32698 450.49613,887.33916 z"
       id="path3341"
       inkscape:connector-curvature="0"
       sodipodi:nodetypes="ccc" />
    <path
       style="fill:#999999"
       id="path3343"
       d="m 414.8683,507.69784 c 1.9976,-0.39958 4.02485,-0.61125 6.04683,-0.84264 2.94432,-0.25017 5.80265,-1.00607 8.714,-1.5085 3.977,-0.68104 7.99008,-1.1193 11.9986,-1.56556 4.57937,-0.50428 9.16762,-0.92114 13.75772,-1.31358 4.90152,-0.41955 9.81022,-0.74669 14.71936,-1.06175 5.42147,-0.33938 10.84666,-0.61135 16.27318,-0.85476 6.09989,-0.27253 12.2021,-0.48815 18.30446,-0.69637 6.22282,-0.21078 12.44652,-0.3939 18.67047,-0.56786 6.13078,-0.1703 12.26214,-0.31816 18.39366,-0.4585 6.59848,-0.15593 13.19792,-0.26341 19.79742,-0.3644 7.5224,-0.11243 15.04503,-0.20743 22.56771,-0.29853 7.52395,-0.0373 15.04871,-0.30403 22.5711,-0.10141 7.73757,0.25024 15.46289,0.79213 23.19125,1.23614 7.45705,0.62573 14.94105,0.97081 22.37488,1.84053 6.24613,0.58661 12.33364,2.04718 18.22095,4.17817 4.93815,1.82513 9.53909,4.34838 13.94534,7.20252 3.86404,2.42567 7.07615,5.59752 9.93695,9.11502 2.55118,3.42534 4.50454,7.23046 6.11866,11.1707 1.54881,3.86319 2.43429,7.92941 3.20764,12.00408 0.88857,4.26234 0.87596,8.57548 0.45707,12.88469 -0.55873,4.52497 -1.69673,8.95048 -2.87708,13.34573 -1.33623,4.36624 -2.80286,8.68788 -4.06555,13.07719 -1.39881,4.88282 -2.48348,9.84559 -3.50265,14.81886 -1.11267,5.50709 -1.99451,11.05657 -2.82499,16.61202 -0.88231,5.9968 -1.60012,12.01591 -2.27431,18.03911 -0.70912,6.35122 -1.28607,12.71592 -1.83314,19.08281 -0.63157,7.35337 -1.07514,14.72079 -1.48907,22.08903 -0.4665,8.65735 -0.83499,17.31958 -1.19293,25.98197 -0.3549,8.69621 -0.66603,17.3941 -0.95948,26.09258 -0.28763,8.56374 -0.53786,17.12866 -0.77455,25.69394 -0.23346,8.44801 -0.43378,16.89688 -0.62542,25.34593 -0.19223,8.50027 -0.35811,17.00109 -0.5063,25.50223 -0.15562,9.07239 -0.28554,18.14518 -0.40825,27.21806 -0.12168,9.05111 -0.22803,18.10241 -0.32892,27.15377 -0.0979,8.81967 -0.18387,17.63947 -0.26555,26.45931 -0.0793,8.66142 -0.14895,17.32293 -0.21457,25.98446 -0.066,8.65538 -0.12091,17.31084 -0.17337,25.96632 -0.052,8.657 -0.097,17.31404 -0.13988,25.9711 -0.1086,8.34098 0.0173,16.68106 0.15446,25.02073 0.0566,4.05199 0.13663,8.1031 0.24288,12.15404 0,0 -38.12938,19.56748 -38.12938,19.56748 l 0,0 c -0.12927,-4.0664 -0.21674,-8.1328 -0.26699,-12.2011 -0.14156,-8.36704 -0.31044,-16.73459 -0.1965,-25.10316 0.0421,-8.65847 0.0867,-17.31693 0.13772,-25.97535 0.0518,-8.65736 0.10528,-17.31472 0.17047,-25.972 0.0645,-8.66368 0.13328,-17.32734 0.21129,-25.99091 0.0806,-8.82222 0.16519,-17.64441 0.26191,-26.46647 0.0996,-9.05433 0.20415,-18.10861 0.32439,-27.16268 0.12061,-9.07768 0.24833,-18.15527 0.40094,-27.23247 0.14396,-8.50797 0.30604,-17.0156 0.49594,-25.52268 0.18914,-8.45526 0.38561,-16.91038 0.61594,-25.36464 0.23328,-8.5729 0.47882,-17.14548 0.76296,-25.71687 0.28834,-8.70812 0.596,-17.4156 0.94486,-26.12152 0.35312,-8.68016 0.71759,-17.36006 1.16576,-26.03592 0.40046,-7.40541 0.82718,-14.8103 1.43235,-22.20232 0.53586,-6.39832 1.09403,-12.79525 1.78529,-19.179 0.65747,-6.06737 1.35416,-12.13122 2.2074,-18.17467 0.80134,-5.62171 1.66561,-11.23567 2.72583,-16.81519 0.9914,-5.06283 2.02276,-10.1216 3.36503,-15.10539 1.1926,-4.41494 2.47771,-8.80443 4.05465,-13.10011 1.26805,-4.19062 2.3536,-8.44254 3.1681,-12.74517 0.58716,-3.90153 0.90669,-7.81448 0.13809,-11.72524 -0.67861,-3.81021 -1.39683,-7.6316 -2.79953,-11.25593 -1.38632,-3.55467 -3.13669,-6.97513 -5.45338,-10.02165 -2.63951,-3.13687 -5.67392,-5.84976 -9.21438,-7.95289 -4.23427,-2.57221 -8.66102,-4.81029 -13.38391,-6.35326 -5.76446,-1.76774 -11.66828,-2.91426 -17.68492,-3.40623 -7.41008,-0.67731 -14.83601,-1.18066 -22.2599,-1.67955 -7.69025,-0.44802 -15.3807,-0.97119 -23.08517,-1.089 -7.50084,-0.0285 -15.00083,0.12544 -22.50119,0.19766 -7.51971,0.0938 -15.03938,0.19181 -22.55874,0.31084 -6.59325,0.1081 -13.18629,0.22928 -19.77849,0.39034 -6.12721,0.14586 -12.25424,0.29949 -18.38065,0.47632 -6.21859,0.18061 -12.43694,0.3705 -18.6543,0.58998 -6.09249,0.21734 -12.18467,0.44639 -18.27416,0.73772 -5.41036,0.26459 -10.8195,0.55641 -16.22413,0.92147 -4.89102,0.33429 -9.7807,0.69069 -14.66288,1.13824 -4.56699,0.41869 -9.13204,0.86284 -13.68563,1.41069 -3.96196,0.487 -7.91992,1.01632 -11.84045,1.77661 -2.93113,0.54967 -5.85734,1.04885 -8.82447,1.36136 -1.93167,0.30564 -3.8601,0.65894 -5.72233,1.27118 0,0 34.00398,-26.0857 34.00398,-26.0857 z"
       inkscape:connector-curvature="0" />
    <path
       style="fill:#ff6600"
       id="path3347"
       d="m 352.16575,267.98922 c -8.21675,4.59461 15.12326,-12.19104 8.17266,-3.99333 -1.34115,1.83849 -2.19407,3.95862 -2.75651,6.1492 -0.44495,1.88269 -0.22218,3.70806 0.44019,5.49783 0.77989,1.89834 2.30998,3.20227 3.89352,4.42379 1.96894,1.33381 4.03441,2.53577 6.10943,3.6982 1.88426,1.11641 3.97524,1.42898 6.12412,1.51913 5.50951,-0.60199 15.71424,-7.83267 -6.1935,4.7242 1.74707,-0.96084 2.90579,-2.43775 3.82395,-4.16368 0.86116,-1.71975 1.05438,-3.57464 1.01567,-5.46672 -0.25941,-1.9876 -1.1043,-3.84036 -2.08871,-5.56603 -1.22166,-2.01762 -2.95767,-3.59724 -4.78893,-5.0459 -2.20901,-1.68345 -4.68092,-2.95508 -7.18473,-4.13263 -0.46566,-0.20353 -0.93132,-0.40706 -1.39698,-0.61059 0,0 11.89906,-7.90531 11.89906,-7.90531 l 0,0 c 0.47305,0.21468 0.94609,0.42936 1.41914,0.64404 2.575,1.25853 5.11091,2.62167 7.36401,4.41109 1.93789,1.59379 3.76189,3.33181 5.0639,5.50281 1.09785,1.92409 1.99711,3.97212 2.41269,6.15992 0.13836,2.06578 0.051,4.13417 -0.71496,6.08669 -0.78036,1.8967 -1.78819,3.71489 -3.50537,4.91981 -5.42491,3.14909 -11.72582,8.91795 -18.74806,8.74843 -2.29346,-0.25953 -4.49286,-0.80836 -6.47862,-2.03903 -2.11286,-1.22903 -4.26448,-2.41548 -6.22584,-3.88027 -1.74786,-1.42016 -3.38833,-2.96397 -4.28294,-5.08154 -0.79051,-2.00785 -1.185,-4.0796 -0.82466,-6.23892 0.45314,-2.36765 1.2856,-4.61381 2.50478,-6.70083 3.60371,-5.41117 10.01981,-9.578 16.50407,-10.05729 0,0 -11.55738,8.39693 -11.55738,8.39693 z"
       inkscape:connector-curvature="0" />
    <path
       style="fill:#ff6600"
       id="path3359"
       d="m 271.44712,263.69222 c -1.00361,-1.00419 -2.08565,-1.47734 -3.49423,-1.34678 -7.91097,5.21757 15.05137,-12.80335 8.29253,-3.70561 -1.38734,2.08595 -2.19654,4.46702 -2.8121,6.87603 -0.56097,2.29425 -0.46815,4.59326 0.0786,6.87014 0.60693,2.20278 2.08418,3.92129 3.65471,5.51113 1.62333,1.62229 3.46903,2.8358 5.71457,3.33178 4.79398,0.33073 16.65637,-8.37103 -7.40337,5.40308 1.80034,-1.1871 3.03728,-2.95355 4.05278,-4.81767 1.06716,-2.05993 1.57411,-4.29461 1.74685,-6.59119 0.20179,-2.37921 -0.41022,-4.61653 -1.36589,-6.76669 -1.05185,-2.19235 -2.69344,-3.96228 -4.46393,-5.59009 -0.33247,-0.27529 -0.66494,-0.55058 -0.99741,-0.82588 0,0 12.11667,-7.56755 12.11667,-7.56755 l 0,0 c 0.34539,0.29609 0.69078,0.59218 1.03616,0.88828 1.87911,1.78482 3.61184,3.72286 4.75188,6.07781 1.05712,2.32709 1.82018,4.77364 1.68418,7.36372 -0.0714,2.45391 -0.47674,4.8639 -1.49485,7.11869 -0.92724,2.05279 -2.10763,3.9507 -3.76241,5.50628 -4.49738,2.62514 -11.17604,9.38216 -17.68495,7.87662 -2.36018,-0.79929 -4.38051,-2.17448 -6.12176,-3.96076 -1.71391,-1.79306 -3.30158,-3.73719 -4.02612,-6.15643 -0.65901,-2.45789 -0.89032,-4.95894 -0.38961,-7.47893 0.54078,-2.54968 1.32829,-5.05122 2.59894,-7.34028 3.35208,-5.62119 9.91265,-9.90141 16.39904,-10.35412 1.57809,0.28209 2.88964,1.01738 4.03085,2.15021 0,0 -12.14116,7.52821 -12.14116,7.52821 z"
       inkscape:connector-curvature="0" />
  </g>
</svg>
