<?xml version="1.0" encoding="UTF-8" standalone="no"?>
<!-- Created with Inkscape (http://www.inkscape.org/) -->

<svg
   xmlns:dc="http://purl.org/dc/elements/1.1/"
   xmlns:cc="http://creativecommons.org/ns#"
   xmlns:rdf="http://www.w3.org/1999/02/22-rdf-syntax-ns#"
   xmlns:svg="http://www.w3.org/2000/svg"
   xmlns="http://www.w3.org/2000/svg"
   xmlns:sodipodi="http://sodipodi.sourceforge.net/DTD/sodipodi-0.dtd"
   xmlns:inkscape="http://www.inkscape.org/namespaces/inkscape"
   id="svg3039"
   version="1.1"
   inkscape:version="0.48.2 r9819"
   width="2544"
   height="3508"
   sodipodi:docname="Psy Z Logo Scanned Document 2.svg">
  <metadata
     id="metadata3045">
    <rdf:RDF>
      <cc:Work
         rdf:about="">
        <dc:format>image/svg+xml</dc:format>
        <dc:type
           rdf:resource="http://purl.org/dc/dcmitype/StillImage" />
        <dc:title></dc:title>
      </cc:Work>
    </rdf:RDF>
  </metadata>
  <defs
     id="defs3043" />
  <sodipodi:namedview
     pagecolor="#ffffff"
     bordercolor="#666666"
     borderopacity="1"
     objecttolerance="10"
     gridtolerance="10"
     guidetolerance="10"
     inkscape:pageopacity="0"
     inkscape:pageshadow="2"
     inkscape:window-width="1280"
     inkscape:window-height="776"
     id="namedview3041"
     showgrid="false"
     inkscape:zoom="0.2690992"
     inkscape:cx="1805.5225"
     inkscape:cy="1288.7647"
     inkscape:window-x="0"
     inkscape:window-y="24"
     inkscape:window-maximized="1"
     inkscape:current-layer="svg3039" />
  <path
     style="font-size:medium;font-style:normal;font-variant:normal;font-weight:normal;font-stretch:normal;text-indent:0;text-align:start;text-decoration:none;line-height:normal;letter-spacing:normal;word-spacing:normal;text-transform:none;direction:ltr;block-progression:tb;writing-mode:lr-tb;text-anchor:start;baseline-shift:baseline;color:#000000;fill:#000000;fill-opacity:1;stroke:#000000;stroke-width:4;marker:none;visibility:visible;display:inline;overflow:visible;enable-background:accumulate;font-family:Sans;-inkscape-font-specification:Sans;stroke-opacity:1;stroke-miterlimit:4;stroke-dasharray:none"
     d="m 334.28125,2699.25 -0.125,0.094 L 92.625,2864.6875 92.1875,2865 92.5,2865.4062 353.5625,3224 l 0.15625,0.2188 0.25,0 282.40625,0 0.25,0 0.15625,-0.2188 246.1875,-343.7188 0.25,-0.3437 -0.28125,-0.3125 -173.71875,-180.2188 -0.15625,-0.1562 -0.21875,0 -374.40625,0 -0.15625,0 z m 0.3125,1 374.0625,0 173.28125,179.75 -245.8125,343.2188 -281.90625,0 L 93.625,2865.25 l 240.96875,-165 z"
     id="path3049"
     inkscape:connector-curvature="0" />
  <path
     style="fill:none;stroke:#000000;stroke-width:4;stroke-linecap:butt;stroke-linejoin:miter;stroke-opacity:1;stroke-miterlimit:4;stroke-dasharray:none"
     d="m 198.81144,2875.3337 179.30191,276.8496 222.9661,0 196.02437,-274.9916 -122.63136,-104.0508 -318.65572,0 z"
     id="path3823"
     inkscape:connector-curvature="0" />
  <path
     style="fill:none;stroke:#000000;stroke-width:4;stroke-linecap:butt;stroke-linejoin:miter;stroke-miterlimit:4;stroke-opacity:1;stroke-dasharray:none"
     d="m 231.32733,2879.9788 82.68326,120.7733 117.98623,-96.6186 c 39.30431,-43.0927 9.75158,-126.6952 -81.75423,-102.1928 z"
     id="path3825"
     inkscape:connector-curvature="0"
     sodipodi:nodetypes="ccccc" />
  <path
     style="fill:none;stroke:#000000;stroke-width:4;stroke-linecap:butt;stroke-linejoin:miter;stroke-miterlimit:4;stroke-opacity:1;stroke-dasharray:none"
     d="m 328.875,3019.3326 119.84428,-102.1928 c 84.44679,-109.5993 -40.32271,-165.2979 -109.625,-134.7087 l -142.14089,89.1865 183.01801,280.5657 26.94174,0 z"
     id="path3829"
     inkscape:connector-curvature="0"
     sodipodi:nodetypes="ccccccc" />
  <path
     style="fill:none;stroke:#000000;stroke-width:4;stroke-linecap:butt;stroke-linejoin:miter;stroke-opacity:1;stroke-miterlimit:4;stroke-dasharray:none"
     d="m 463.58369,2808.4439 159.79237,0 -228.54025,320.5137 0,0.9291 0,0"
     id="path3831"
     inkscape:connector-curvature="0" />
  <path
     style="fill:none;stroke:#000000;stroke-width:4;stroke-linecap:butt;stroke-linejoin:miter;stroke-opacity:1;stroke-miterlimit:4;stroke-dasharray:none"
     d="M 672.61441,2774.9989 438.5,3121.5254 l 146.78602,0 87.32839,-114.2701 -103.12182,0 -94.7606,114.2701 0.92903,0"
     id="path3833"
     inkscape:connector-curvature="0" />
  <path
     style="fill:none;stroke:#000000;stroke-width:4;stroke-linecap:butt;stroke-linejoin:miter;stroke-opacity:1;stroke-miterlimit:4;stroke-dasharray:none"
     d="m 698.62712,2794.5085 -117.0572,182.089 104.05084,0 82.68327,-124.4895 -0.92903,-0.929"
     id="path3835"
     inkscape:connector-curvature="0" />
  <path
     style="fill:none;stroke:#000000;stroke-width:4;stroke-linecap:butt;stroke-linejoin:miter;stroke-opacity:1;stroke-miterlimit:4;stroke-dasharray:none"
     d="m 964.32839,2816.8051 403.19701,449.6483 405.0551,-445.9322 -135.6377,-124.4894 -535.1186,-3.7161 z"
     id="path4221"
     inkscape:connector-curvature="0" />
  <path
     style="fill:none;stroke:#000000;stroke-width:4.1;stroke-linecap:butt;stroke-linejoin:miter;stroke-opacity:1;stroke-miterlimit:4;stroke-dasharray:none"
     d="m 1021.928,2822.3792 102.1928,-91.0445 503.5317,0 89.1865,91.0445 -351.1716,379.0424 z"
     id="path4223"
     inkscape:connector-curvature="0" />
  <path
     style="fill:none;stroke:#000000;stroke-width:4;stroke-linecap:butt;stroke-linejoin:miter;stroke-miterlimit:4;stroke-opacity:1;stroke-dasharray:none"
     d="m 1057.2309,2822.3792 63.1738,-57.5995 c 101.349,-38.6973 183.6428,35.6518 113.3411,118.9153 l -65.0318,65.0317 z"
     id="path4225"
     inkscape:connector-curvature="0"
     sodipodi:nodetypes="ccccc" />
  <path
     style="fill:none;stroke:#000000;stroke-width:4;stroke-linecap:butt;stroke-linejoin:miter;stroke-miterlimit:4;stroke-opacity:1;stroke-dasharray:none"
     d="m 1387.964,3177.2669 -200.6695,-208.1016 68.7478,-68.7479 c 88.5244,-95.2128 3.5794,-182.2572 -130.0635,-169.0827 l -104.0508,91.0445 341.8813,379.0424 z"
     id="path4229"
     inkscape:connector-curvature="0"
     sodipodi:nodetypes="ccccccc" />
  <path
     style="fill:none;stroke:#000000;stroke-width:4;stroke-linecap:butt;stroke-linejoin:miter;stroke-miterlimit:4;stroke-opacity:1;stroke-dasharray:none"
     d="m 1254.1843,2757.3475 91.0445,-1.8581 200.6695,0 -243.4046,332.5911 74.322,87.3283 117.0572,-115.1991"
     id="path4231"
     inkscape:connector-curvature="0"
     sodipodi:nodetypes="cccccc" />
  <path
     style="fill:none;stroke:#000000;stroke-width:4;stroke-linecap:butt;stroke-linejoin:miter;stroke-miterlimit:4;stroke-opacity:1;stroke-dasharray:none"
     d="m 1400.9704,3127.0995 172.7987,-191.3792 -94.7606,0 -120.7733,165.3666"
     id="path4233"
     inkscape:connector-curvature="0"
     sodipodi:nodetypes="cccc" />
  <path
     style="fill:none;stroke:#000000;stroke-width:4;stroke-linecap:butt;stroke-linejoin:miter;stroke-opacity:1;stroke-miterlimit:4;stroke-dasharray:none"
     d="m 1625.7945,2735.0508 -128.2055,169.0827 94.7606,0 96.6186,-107.767 0,0 0,0"
     id="path4235"
     inkscape:connector-curvature="0" />
  <path
     style="fill:none;stroke:#000000;stroke-width:4;stroke-linecap:butt;stroke-linejoin:miter;stroke-opacity:1;stroke-miterlimit:4;stroke-dasharray:none"
     d="m 1594.2076,2731.3347 -260.1271,356.7458"
     id="path4237"
     inkscape:connector-curvature="0" />
  <path
     style="fill:none;stroke:#000000;stroke-width:4;stroke-linecap:butt;stroke-linejoin:miter;stroke-opacity:1;stroke-miterlimit:4;stroke-dasharray:none"
     d="m 1337.7966,3084.3644 74.322,55.7415 0,0"
     id="path4239"
     inkscape:connector-curvature="0" />
  <g
     id="g4274">
    <path
       transform="matrix(2.4455297,0,0,2.4455297,118.18909,-5439.4655)"
       style="fill:none;stroke:#000000;stroke-width:4;stroke-linecap:butt;stroke-linejoin:miter;stroke-miterlimit:4;stroke-opacity:1;stroke-dasharray:none"
       d="m 198.81144,2875.3337 179.30191,276.8496 222.9661,0 196.02437,-274.9916 -122.63136,-104.0508 -318.65572,0 z"
       id="path4262"
       inkscape:connector-curvature="0" />
    <path
       transform="matrix(2.4455297,0,0,2.4455297,118.18909,-5439.4655)"
       style="fill:none;stroke:#000000;stroke-width:4;stroke-linecap:butt;stroke-linejoin:miter;stroke-miterlimit:4;stroke-opacity:1;stroke-dasharray:none"
       d="m 231.32733,2879.9788 82.68326,120.7733 117.98623,-96.6186 c 39.30431,-43.0927 9.75158,-126.6952 -81.75423,-102.1928 z"
       id="path4264"
       inkscape:connector-curvature="0"
       sodipodi:nodetypes="ccccc" />
    <path
       transform="matrix(2.4455297,0,0,2.4455297,118.18909,-5439.4655)"
       style="fill:none;stroke:#000000;stroke-width:4;stroke-linecap:butt;stroke-linejoin:miter;stroke-miterlimit:4;stroke-opacity:1;stroke-dasharray:none"
       d="m 328.875,3019.3326 119.84428,-102.1928 c 84.44679,-109.5993 -40.32271,-165.2979 -109.625,-134.7087 l -142.14089,89.1865 183.01801,280.5657 26.94174,0 z"
       id="path4266"
       inkscape:connector-curvature="0"
       sodipodi:nodetypes="ccccccc" />
    <path
       transform="matrix(2.4455297,0,0,2.4455297,118.18909,-5439.4655)"
       style="fill:none;stroke:#000000;stroke-width:4;stroke-linecap:butt;stroke-linejoin:miter;stroke-miterlimit:4;stroke-opacity:1;stroke-dasharray:none"
       d="m 463.58369,2808.4439 159.79237,0 -228.54025,320.5137 0,0.9291 0,0"
       id="path4268"
       inkscape:connector-curvature="0" />
    <path
       transform="matrix(2.4455297,0,0,2.4455297,118.18909,-5439.4655)"
       style="fill:none;stroke:#000000;stroke-width:4;stroke-linecap:butt;stroke-linejoin:miter;stroke-miterlimit:4;stroke-opacity:1;stroke-dasharray:none"
       d="M 672.61441,2774.9989 438.5,3121.5254 l 146.78602,0 87.32839,-114.2701 -103.12182,0 -94.7606,114.2701 0.92903,0"
       id="path4270"
       inkscape:connector-curvature="0" />
    <path
       transform="matrix(2.4455297,0,0,2.4455297,118.18909,-5439.4655)"
       style="fill:none;stroke:#000000;stroke-width:4;stroke-linecap:butt;stroke-linejoin:miter;stroke-miterlimit:4;stroke-opacity:1;stroke-dasharray:none"
       d="m 698.62712,2794.5085 -117.0572,182.089 104.05084,0 82.68327,-124.4895 -0.92903,-0.929"
       id="path4272"
       inkscape:connector-curvature="0" />
  </g>
</svg>
