<?xml version="1.0" standalone="yes"?>

<svg version="1.1" viewBox="0.0 0.0 960.0 720.0" fill="none" stroke="none" stroke-linecap="square" stroke-miterlimit="10" clip-path="url(#p.0)" xmlns="http://www.w3.org/2000/svg" xmlns:xlink="http://www.w3.org/1999/xlink"><clipPath id="p.0"><path d="m0 0l960.0 0l0 720.0l-960.0 0l0 -720.0z" clip-rule="nonzero"></path></clipPath><path stroke="#000000" stroke-width="2.0" stroke-linejoin="round" stroke-linecap="butt" d="m432.6929 517.50134l-257.30707 -321.92392l141.92126 -95.76903l357.6929 0l109.6142 88.84515l-272.30713 424.61676z" fill-rule="nonzero"></path><path stroke="#000000" stroke-width="2.0" stroke-linejoin="round" stroke-linecap="butt" d="m196.8773 199.1426l313.13385 396.8189" fill-rule="nonzero"></path><path stroke="#000000" stroke-width="2.0" stroke-linejoin="round" stroke-linecap="butt" d="m197.29659 201.30971c15.578751 -10.763336 66.54768 -52.278656 93.47246 -64.58005c26.924744 -12.301399 48.268585 -16.920822 68.07611 -9.228348c19.807526 7.6924744 44.23053 34.037186 50.769012 55.38321c6.538513 21.346008 6.265106 47.94182 -11.538055 72.6929c-17.803131 24.751099 -79.400696 63.17804 -95.28082 75.81366" fill-rule="nonzero"></path><path stroke="#000000" stroke-width="2.0" stroke-linejoin="round" stroke-linecap="butt" d="m587.30707 189.26247c-14.807495 -12.313217 -62.114563 -83.77778 -88.84512 -73.879265c-26.73053 9.898514 -86.34558 85.48162 -71.538055 133.27036c14.807526 47.78871 140.19116 106.73097 160.38318 153.46193c20.192078 46.730988 -20.000427 106.731415 -39.230957 126.92389c-19.23053 20.192505 -51.344696 10.961975 -76.15222 -5.769043c-24.807526 -16.730957 -60.577423 -78.84732 -72.69293 -94.61679" fill-rule="nonzero"></path></svg>

