<?xml version="1.0" encoding="UTF-8" standalone="no"?>
<svg
   xmlns:dc="http://purl.org/dc/elements/1.1/"
   xmlns:cc="http://creativecommons.org/ns#"
   xmlns:rdf="http://www.w3.org/1999/02/22-rdf-syntax-ns#"
   xmlns:svg="http://www.w3.org/2000/svg"
   xmlns="http://www.w3.org/2000/svg"
   xmlns:xlink="http://www.w3.org/1999/xlink"
   xmlns:sodipodi="http://sodipodi.sourceforge.net/DTD/sodipodi-0.dtd"
   xmlns:inkscape="http://www.inkscape.org/namespaces/inkscape"
   version="1.1"
   viewBox="0 0 1530 990"
   stroke-miterlimit="10"
   clip-path="url(#p.0)"
   id="svg2"
   inkscape:version="0.48.2 r9819"
   width="100%"
   height="100%"
   sodipodi:docname="Psy Z 7.svg"
   style="fill:none;stroke:none">
  <metadata
     id="metadata19">
    <rdf:RDF>
      <cc:Work
         rdf:about="">
        <dc:format>image/svg+xml</dc:format>
        <dc:type
           rdf:resource="http://purl.org/dc/dcmitype/StillImage" />
        <dc:title></dc:title>
      </cc:Work>
    </rdf:RDF>
  </metadata>
  <defs
     id="defs17">
    <linearGradient
       id="linearGradient4529">
      <stop
         style="stop-color:#4d4d4d;stop-opacity:1;"
         offset="0"
         id="stop4531" />
      <stop
         style="stop-color:#4d4d4d;stop-opacity:0;"
         offset="1"
         id="stop4533" />
    </linearGradient>
    <linearGradient
       inkscape:collect="always"
       xlink:href="#linearGradient7452"
       id="linearGradient7458"
       x1="120.08203"
       y1="-18.530975"
       x2="471.74219"
       y2="-18.530975"
       gradientUnits="userSpaceOnUse" />
    <linearGradient
       inkscape:collect="always"
       id="linearGradient7452">
      <stop
         style="stop-color:#808080;stop-opacity:1;"
         offset="0"
         id="stop7454" />
      <stop
         style="stop-color:#808080;stop-opacity:0;"
         offset="1"
         id="stop7456" />
    </linearGradient>
    <linearGradient
       inkscape:collect="always"
       xlink:href="#linearGradient7452"
       id="linearGradient3411"
       x1="120.08203"
       y1="-18.530975"
       x2="471.74219"
       y2="-18.530975"
       gradientUnits="userSpaceOnUse" />
    <linearGradient
       inkscape:collect="always"
       xlink:href="#linearGradient7428"
       id="linearGradient7434"
       x1="120.08203"
       y1="-18.530975"
       x2="553.26514"
       y2="-11.508696"
       gradientUnits="userSpaceOnUse"
       spreadMethod="pad" />
    <linearGradient
       id="linearGradient7428">
      <stop
         style="stop-color:#1a1a1a;stop-opacity:0;"
         offset="0"
         id="stop7430" />
      <stop
         style="stop-color:#1a1a1a;stop-opacity:1;"
         offset="1"
         id="stop7432" />
    </linearGradient>
    <linearGradient
       inkscape:collect="always"
       xlink:href="#linearGradient7428"
       id="linearGradient3423"
       x1="120.08203"
       y1="-18.530975"
       x2="553.26514"
       y2="-11.508696"
       gradientUnits="userSpaceOnUse"
       spreadMethod="pad" />
    <linearGradient
       id="linearGradient3425">
      <stop
         style="stop-color:#1a1a1a;stop-opacity:0;"
         offset="0"
         id="stop3427" />
      <stop
         style="stop-color:#1a1a1a;stop-opacity:1;"
         offset="1"
         id="stop3429" />
    </linearGradient>
    <linearGradient
       inkscape:collect="always"
       xlink:href="#linearGradient7420"
       id="linearGradient7426"
       x1="105.92188"
       y1="333.02176"
       x2="126.9375"
       y2="333.02176"
       gradientUnits="userSpaceOnUse" />
    <linearGradient
       id="linearGradient7420">
      <stop
         style="stop-color:#808080;stop-opacity:1;"
         offset="0"
         id="stop7422" />
      <stop
         style="stop-color:#808080;stop-opacity:1;"
         offset="1"
         id="stop7424" />
    </linearGradient>
    <linearGradient
       inkscape:collect="always"
       xlink:href="#linearGradient7420"
       id="linearGradient3435"
       x1="105.92188"
       y1="333.02176"
       x2="126.9375"
       y2="333.02176"
       gradientUnits="userSpaceOnUse" />
    <linearGradient
       id="linearGradient3437">
      <stop
         style="stop-color:#808080;stop-opacity:1;"
         offset="0"
         id="stop3439" />
      <stop
         style="stop-color:#808080;stop-opacity:1;"
         offset="1"
         id="stop3441" />
    </linearGradient>
    <linearGradient
       inkscape:collect="always"
       xlink:href="#linearGradient7436"
       id="linearGradient7442"
       x1="105.92188"
       y1="333.02176"
       x2="126.9375"
       y2="333.02176"
       gradientUnits="userSpaceOnUse" />
    <linearGradient
       id="linearGradient7436">
      <stop
         style="stop-color:#808080;stop-opacity:1;"
         offset="0"
         id="stop7438" />
      <stop
         style="stop-color:#808080;stop-opacity:0;"
         offset="1"
         id="stop7440" />
    </linearGradient>
    <linearGradient
       inkscape:collect="always"
       xlink:href="#linearGradient7436"
       id="linearGradient3447"
       x1="105.92188"
       y1="333.02176"
       x2="126.9375"
       y2="333.02176"
       gradientUnits="userSpaceOnUse" />
    <linearGradient
       id="linearGradient3449">
      <stop
         style="stop-color:#808080;stop-opacity:1;"
         offset="0"
         id="stop3451" />
      <stop
         style="stop-color:#808080;stop-opacity:0;"
         offset="1"
         id="stop3453" />
    </linearGradient>
    <linearGradient
       inkscape:collect="always"
       xlink:href="#linearGradient7460"
       id="linearGradient7466"
       x1="121"
       y1="-18.530975"
       x2="306.8909"
       y2="-18.530975"
       gradientUnits="userSpaceOnUse" />
    <linearGradient
       inkscape:collect="always"
       id="linearGradient7460">
      <stop
         style="stop-color:#4d4d4d;stop-opacity:1;"
         offset="0"
         id="stop7462" />
      <stop
         style="stop-color:#4d4d4d;stop-opacity:0;"
         offset="1"
         id="stop7464" />
    </linearGradient>
    <linearGradient
       inkscape:collect="always"
       xlink:href="#linearGradient7460"
       id="linearGradient3459"
       x1="121"
       y1="-18.530975"
       x2="306.8909"
       y2="-18.530975"
       gradientUnits="userSpaceOnUse" />
    <linearGradient
       inkscape:collect="always"
       xlink:href="#linearGradient7444"
       id="linearGradient7450"
       x1="121"
       y1="-18.530975"
       x2="306.8909"
       y2="-18.530975"
       gradientUnits="userSpaceOnUse" />
    <linearGradient
       id="linearGradient7444">
      <stop
         style="stop-color:#4d4d4d;stop-opacity:0;"
         offset="0"
         id="stop7446" />
      <stop
         style="stop-color:#4d4d4d;stop-opacity:1;"
         offset="1"
         id="stop7448" />
    </linearGradient>
    <linearGradient
       inkscape:collect="always"
       xlink:href="#linearGradient7444"
       id="linearGradient3471"
       x1="121"
       y1="-18.530975"
       x2="306.8909"
       y2="-18.530975"
       gradientUnits="userSpaceOnUse" />
    <linearGradient
       id="linearGradient3473">
      <stop
         style="stop-color:#4d4d4d;stop-opacity:0;"
         offset="0"
         id="stop3475" />
      <stop
         style="stop-color:#4d4d4d;stop-opacity:1;"
         offset="1"
         id="stop3477" />
    </linearGradient>
    <linearGradient
       inkscape:collect="always"
       xlink:href="#linearGradient7452"
       id="linearGradient3637"
       gradientUnits="userSpaceOnUse"
       x1="120.08203"
       y1="-18.530975"
       x2="471.74219"
       y2="-18.530975" />
    <linearGradient
       inkscape:collect="always"
       xlink:href="#linearGradient7428"
       id="linearGradient3639"
       gradientUnits="userSpaceOnUse"
       spreadMethod="pad"
       x1="120.08203"
       y1="-18.530975"
       x2="553.26514"
       y2="-11.508696" />
    <linearGradient
       inkscape:collect="always"
       xlink:href="#linearGradient7420"
       id="linearGradient3641"
       gradientUnits="userSpaceOnUse"
       x1="105.92188"
       y1="333.02176"
       x2="126.9375"
       y2="333.02176" />
    <linearGradient
       inkscape:collect="always"
       xlink:href="#linearGradient7436"
       id="linearGradient3643"
       gradientUnits="userSpaceOnUse"
       x1="105.92188"
       y1="333.02176"
       x2="126.9375"
       y2="333.02176" />
    <linearGradient
       inkscape:collect="always"
       xlink:href="#linearGradient7460"
       id="linearGradient3645"
       gradientUnits="userSpaceOnUse"
       x1="121"
       y1="-18.530975"
       x2="306.8909"
       y2="-18.530975" />
    <linearGradient
       inkscape:collect="always"
       xlink:href="#linearGradient7444"
       id="linearGradient3647"
       gradientUnits="userSpaceOnUse"
       x1="121"
       y1="-18.530975"
       x2="306.8909"
       y2="-18.530975" />
    <linearGradient
       inkscape:collect="always"
       xlink:href="#linearGradient3473"
       id="linearGradient4535"
       x1="0"
       y1="1650"
       x2="5100"
       y2="1650"
       gradientUnits="userSpaceOnUse" />
    <linearGradient
       inkscape:collect="always"
       xlink:href="#linearGradient7452"
       id="linearGradient4627"
       gradientUnits="userSpaceOnUse"
       x1="120.08203"
       y1="-18.530975"
       x2="471.74219"
       y2="-18.530975" />
    <linearGradient
       inkscape:collect="always"
       xlink:href="#linearGradient7420"
       id="linearGradient4629"
       gradientUnits="userSpaceOnUse"
       x1="105.92188"
       y1="333.02176"
       x2="126.9375"
       y2="333.02176" />
    <linearGradient
       inkscape:collect="always"
       xlink:href="#linearGradient7436"
       id="linearGradient4631"
       gradientUnits="userSpaceOnUse"
       x1="105.92188"
       y1="333.02176"
       x2="126.9375"
       y2="333.02176" />
    <linearGradient
       inkscape:collect="always"
       xlink:href="#linearGradient7460"
       id="linearGradient4633"
       gradientUnits="userSpaceOnUse"
       x1="121"
       y1="-18.530975"
       x2="306.8909"
       y2="-18.530975" />
    <linearGradient
       inkscape:collect="always"
       xlink:href="#linearGradient7444"
       id="linearGradient4635"
       gradientUnits="userSpaceOnUse"
       x1="121"
       y1="-18.530975"
       x2="306.8909"
       y2="-18.530975" />
    <linearGradient
       inkscape:collect="always"
       xlink:href="#linearGradient7452"
       id="linearGradient4678"
       gradientUnits="userSpaceOnUse"
       x1="120.08203"
       y1="-18.530975"
       x2="471.74219"
       y2="-18.530975" />
    <linearGradient
       inkscape:collect="always"
       xlink:href="#linearGradient7420"
       id="linearGradient4680"
       gradientUnits="userSpaceOnUse"
       x1="105.92188"
       y1="333.02176"
       x2="126.9375"
       y2="333.02176" />
    <linearGradient
       inkscape:collect="always"
       xlink:href="#linearGradient7436"
       id="linearGradient4682"
       gradientUnits="userSpaceOnUse"
       x1="105.92188"
       y1="333.02176"
       x2="126.9375"
       y2="333.02176" />
    <linearGradient
       inkscape:collect="always"
       xlink:href="#linearGradient7460"
       id="linearGradient4684"
       gradientUnits="userSpaceOnUse"
       x1="121"
       y1="-18.530975"
       x2="306.8909"
       y2="-18.530975" />
    <linearGradient
       inkscape:collect="always"
       xlink:href="#linearGradient7444"
       id="linearGradient4686"
       gradientUnits="userSpaceOnUse"
       x1="121"
       y1="-18.530975"
       x2="306.8909"
       y2="-18.530975" />
    <linearGradient
       inkscape:collect="always"
       xlink:href="#linearGradient7420"
       id="linearGradient3187"
       gradientUnits="userSpaceOnUse"
       x1="105.92188"
       y1="333.02176"
       x2="126.9375"
       y2="333.02176" />
    <linearGradient
       inkscape:collect="always"
       xlink:href="#linearGradient7420"
       id="linearGradient3189"
       gradientUnits="userSpaceOnUse"
       x1="105.92188"
       y1="333.02176"
       x2="126.9375"
       y2="333.02176" />
    <linearGradient
       inkscape:collect="always"
       xlink:href="#linearGradient7420"
       id="linearGradient3191"
       gradientUnits="userSpaceOnUse"
       x1="105.92188"
       y1="333.02176"
       x2="126.9375"
       y2="333.02176" />
    <linearGradient
       inkscape:collect="always"
       xlink:href="#linearGradient7420"
       id="linearGradient3193"
       gradientUnits="userSpaceOnUse"
       x1="105.92188"
       y1="333.02176"
       x2="126.9375"
       y2="333.02176" />
    <linearGradient
       inkscape:collect="always"
       xlink:href="#linearGradient7420"
       id="linearGradient3195"
       gradientUnits="userSpaceOnUse"
       x1="105.92188"
       y1="333.02176"
       x2="126.9375"
       y2="333.02176" />
    <linearGradient
       inkscape:collect="always"
       xlink:href="#linearGradient7420"
       id="linearGradient3197"
       gradientUnits="userSpaceOnUse"
       x1="105.92188"
       y1="333.02176"
       x2="126.9375"
       y2="333.02176" />
    <linearGradient
       inkscape:collect="always"
       xlink:href="#linearGradient7420"
       id="linearGradient3199"
       gradientUnits="userSpaceOnUse"
       x1="105.92188"
       y1="333.02176"
       x2="126.9375"
       y2="333.02176" />
    <linearGradient
       inkscape:collect="always"
       xlink:href="#linearGradient7420"
       id="linearGradient3201"
       gradientUnits="userSpaceOnUse"
       x1="105.92188"
       y1="333.02176"
       x2="126.9375"
       y2="333.02176" />
    <linearGradient
       inkscape:collect="always"
       xlink:href="#linearGradient7420"
       id="linearGradient3203"
       gradientUnits="userSpaceOnUse"
       x1="105.92188"
       y1="333.02176"
       x2="126.9375"
       y2="333.02176" />
    <linearGradient
       inkscape:collect="always"
       xlink:href="#linearGradient7420"
       id="linearGradient3205"
       gradientUnits="userSpaceOnUse"
       x1="105.92188"
       y1="333.02176"
       x2="126.9375"
       y2="333.02176" />
    <linearGradient
       inkscape:collect="always"
       xlink:href="#linearGradient7420"
       id="linearGradient3207"
       gradientUnits="userSpaceOnUse"
       x1="105.92188"
       y1="333.02176"
       x2="126.9375"
       y2="333.02176" />
    <linearGradient
       inkscape:collect="always"
       xlink:href="#linearGradient7420"
       id="linearGradient3209"
       gradientUnits="userSpaceOnUse"
       x1="105.92188"
       y1="333.02176"
       x2="126.9375"
       y2="333.02176" />
    <linearGradient
       inkscape:collect="always"
       xlink:href="#linearGradient7420"
       id="linearGradient3211"
       gradientUnits="userSpaceOnUse"
       x1="105.92188"
       y1="333.02176"
       x2="126.9375"
       y2="333.02176" />
    <linearGradient
       inkscape:collect="always"
       xlink:href="#linearGradient7420"
       id="linearGradient3213"
       gradientUnits="userSpaceOnUse"
       x1="105.92188"
       y1="333.02176"
       x2="126.9375"
       y2="333.02176" />
    <linearGradient
       inkscape:collect="always"
       xlink:href="#linearGradient7420"
       id="linearGradient3215"
       gradientUnits="userSpaceOnUse"
       x1="105.92188"
       y1="333.02176"
       x2="126.9375"
       y2="333.02176" />
    <linearGradient
       inkscape:collect="always"
       xlink:href="#linearGradient7420"
       id="linearGradient3217"
       gradientUnits="userSpaceOnUse"
       x1="105.92188"
       y1="333.02176"
       x2="126.9375"
       y2="333.02176" />
    <linearGradient
       inkscape:collect="always"
       xlink:href="#linearGradient7420"
       id="linearGradient3219"
       gradientUnits="userSpaceOnUse"
       x1="105.92188"
       y1="333.02176"
       x2="126.9375"
       y2="333.02176" />
    <linearGradient
       inkscape:collect="always"
       xlink:href="#linearGradient7420"
       id="linearGradient3221"
       gradientUnits="userSpaceOnUse"
       x1="105.92188"
       y1="333.02176"
       x2="126.9375"
       y2="333.02176" />
    <linearGradient
       inkscape:collect="always"
       xlink:href="#linearGradient7420"
       id="linearGradient3223"
       gradientUnits="userSpaceOnUse"
       x1="105.92188"
       y1="333.02176"
       x2="126.9375"
       y2="333.02176" />
    <linearGradient
       inkscape:collect="always"
       xlink:href="#linearGradient7420"
       id="linearGradient3225"
       gradientUnits="userSpaceOnUse"
       x1="105.92188"
       y1="333.02176"
       x2="126.9375"
       y2="333.02176" />
    <linearGradient
       inkscape:collect="always"
       xlink:href="#linearGradient7420"
       id="linearGradient3227"
       gradientUnits="userSpaceOnUse"
       x1="105.92188"
       y1="333.02176"
       x2="126.9375"
       y2="333.02176" />
    <linearGradient
       inkscape:collect="always"
       xlink:href="#linearGradient7420"
       id="linearGradient3229"
       gradientUnits="userSpaceOnUse"
       x1="105.92188"
       y1="333.02176"
       x2="126.9375"
       y2="333.02176" />
    <linearGradient
       inkscape:collect="always"
       xlink:href="#linearGradient7420"
       id="linearGradient3231"
       gradientUnits="userSpaceOnUse"
       x1="105.92188"
       y1="333.02176"
       x2="126.9375"
       y2="333.02176" />
    <linearGradient
       inkscape:collect="always"
       xlink:href="#linearGradient7420"
       id="linearGradient3233"
       gradientUnits="userSpaceOnUse"
       x1="105.92188"
       y1="333.02176"
       x2="126.9375"
       y2="333.02176" />
    <linearGradient
       inkscape:collect="always"
       xlink:href="#linearGradient7420"
       id="linearGradient3235"
       gradientUnits="userSpaceOnUse"
       x1="105.92188"
       y1="333.02176"
       x2="126.9375"
       y2="333.02176" />
    <linearGradient
       inkscape:collect="always"
       xlink:href="#linearGradient7420"
       id="linearGradient3237"
       gradientUnits="userSpaceOnUse"
       x1="105.92188"
       y1="333.02176"
       x2="126.9375"
       y2="333.02176" />
    <linearGradient
       inkscape:collect="always"
       xlink:href="#linearGradient7420"
       id="linearGradient3239"
       gradientUnits="userSpaceOnUse"
       x1="105.92188"
       y1="333.02176"
       x2="126.9375"
       y2="333.02176" />
    <linearGradient
       inkscape:collect="always"
       xlink:href="#linearGradient7420"
       id="linearGradient3241"
       gradientUnits="userSpaceOnUse"
       x1="105.92188"
       y1="333.02176"
       x2="126.9375"
       y2="333.02176" />
    <linearGradient
       inkscape:collect="always"
       xlink:href="#linearGradient7420"
       id="linearGradient3243"
       gradientUnits="userSpaceOnUse"
       x1="105.92188"
       y1="333.02176"
       x2="126.9375"
       y2="333.02176" />
    <linearGradient
       inkscape:collect="always"
       xlink:href="#linearGradient7420"
       id="linearGradient3245"
       gradientUnits="userSpaceOnUse"
       x1="105.92188"
       y1="333.02176"
       x2="126.9375"
       y2="333.02176" />
    <linearGradient
       inkscape:collect="always"
       xlink:href="#linearGradient7420"
       id="linearGradient3247"
       gradientUnits="userSpaceOnUse"
       x1="105.92188"
       y1="333.02176"
       x2="126.9375"
       y2="333.02176" />
    <linearGradient
       inkscape:collect="always"
       xlink:href="#linearGradient7420"
       id="linearGradient3249"
       gradientUnits="userSpaceOnUse"
       x1="105.92188"
       y1="333.02176"
       x2="126.9375"
       y2="333.02176" />
  </defs>
  <sodipodi:namedview
     pagecolor="#ffffff"
     bordercolor="#666666"
     borderopacity="1"
     objecttolerance="10"
     gridtolerance="10"
     guidetolerance="10"
     inkscape:pageopacity="0"
     inkscape:pageshadow="2"
     inkscape:window-width="1280"
     inkscape:window-height="776"
     id="namedview15"
     showgrid="false"
     inkscape:zoom="1"
     inkscape:cx="482.86845"
     inkscape:cy="784.5004"
     inkscape:window-x="0"
     inkscape:window-y="24"
     inkscape:window-maximized="1"
     inkscape:current-layer="g4340"
     fit-margin-top="30"
     fit-margin-left="30"
     fit-margin-right="30"
     fit-margin-bottom="30"
     borderlayer="false"
     inkscape:showpageshadow="false"
     units="in" />
  <clipPath
     id="p.0">
    <path
       d="M 0,0 960,0 960,720 0,720 0,0 z"
       clip-rule="nonzero"
       id="path5"
       inkscape:connector-curvature="0" />
  </clipPath>
  <g
     id="g4600"
     transform="matrix(0.99145225,0,0,0.99145225,-347.61527,128.9835)"
     style="stroke:#000000;stroke-width:9;stroke-miterlimit:10;stroke-opacity:1;stroke-dasharray:none">
    <path
       transform="matrix(0.55056492,0,0,0.55056492,389.84057,-39.592045)"
       style="stroke:#000000;stroke-width:16.34684563;stroke-linecap:butt;stroke-linejoin:round;stroke-miterlimit:10;stroke-opacity:1;stroke-dasharray:none"
       inkscape:connector-curvature="0"
       id="path7"
       d="M 432.6929,517.50134 175.38583,195.57742 317.30709,99.80839 l 357.6929,0 109.6142,88.84515 -272.30713,424.61676 z" />
    <path
       transform="matrix(0.55056492,0,0,0.55056492,389.84057,-39.592045)"
       style="stroke:#000000;stroke-width:16.34684563;stroke-linecap:butt;stroke-linejoin:round;stroke-miterlimit:10;stroke-opacity:1;stroke-dasharray:none"
       inkscape:connector-curvature="0"
       id="path9"
       d="M 196.8773,199.1426 510.01115,595.9615" />
    <path
       transform="matrix(0.55056492,0,0,0.55056492,389.84057,-39.592045)"
       style="stroke:#000000;stroke-width:16.34684563;stroke-linecap:butt;stroke-linejoin:round;stroke-miterlimit:10;stroke-opacity:1;stroke-dasharray:none"
       inkscape:connector-curvature="0"
       id="path11"
       d="m 197.29659,201.30971 c 15.57875,-10.76334 66.54768,-52.27866 93.47246,-64.58005 26.92474,-12.3014 48.26859,-16.92082 68.07611,-9.22835 19.80753,7.69248 44.23053,34.03719 50.76901,55.38321 6.53851,21.34601 6.26511,47.94182 -11.53805,72.6929 -17.80313,24.7511 -79.4007,63.17804 -95.28082,75.81366" />
    <path
       transform="matrix(0.55056492,0,0,0.55056492,389.84057,-39.592045)"
       sodipodi:nodetypes="cccc"
       style="stroke:#000000;stroke-width:16.34684563;stroke-linecap:butt;stroke-linejoin:round;stroke-miterlimit:10;stroke-opacity:1;stroke-dasharray:none"
       inkscape:connector-curvature="0"
       id="path13"
       d="m 657.71498,118.82037 c 2.13775,-24.005235 -135.12475,-18.877619 -170.9197,-1.7705 -225.50769,219.81149 251.78704,126.88723 64.30803,375.6632 -75.54656,75.1557 -136.34444,-10.62935 -191.22586,-79.19549" />
    <path
       transform="matrix(0.55056492,0,0,0.55056492,389.84057,-39.592045)"
       inkscape:connector-curvature="0"
       id="path4262"
       d="M 671.32632,93.809644 655.61228,273.29913 782.41491,188.63948"
       style="fill:none;stroke:#000000;stroke-width:16.34684563;stroke-linecap:butt;stroke-linejoin:miter;stroke-miterlimit:10;stroke-opacity:1;stroke-dasharray:none"
       sodipodi:nodetypes="ccc" />
    <path
       transform="matrix(0.55056492,0,0,0.55056492,389.84057,-39.592045)"
       inkscape:connector-curvature="0"
       id="path4264"
       d="M 657.4286,265.27878 518.48299,588.03404 518.33333,590"
       style="fill:none;stroke:#000000;stroke-width:16.34684563;stroke-linecap:butt;stroke-linejoin:miter;stroke-miterlimit:10;stroke-opacity:1;stroke-dasharray:none"
       sodipodi:nodetypes="ccc" />
  </g>
  <g
     id="g4659"
     transform="matrix(1.0407634,0,0,1.0407634,-140.1364,-99.57196)">
    <g
       style="fill:none"
       transform="matrix(0.11057036,0,0,0.11057036,562.39056,117.64594)"
       id="g4340">
      <path
         sodipodi:nodetypes="ccccccc"
         transform="matrix(5.6725038,0,0,5.6725038,-510.92046,-15617.933)"
         style="fill:none;stroke:#000000;stroke-width:4;stroke-linecap:butt;stroke-linejoin:miter;stroke-miterlimit:4;stroke-opacity:1;stroke-dasharray:none"
         d="m 198.81144,2875.3337 179.30191,276.8496 c 58.72351,85.3004 121.05038,154.5554 138.62218,186.0087 101.80693,-162.819 208.6784,-307.824 313.96196,-472.6289 l -156.22503,-92.4222 -318.65572,0 z"
         id="path4262-8"
         inkscape:connector-curvature="0" />
      <path
         transform="matrix(5.6725038,0,0,5.6725038,-510.92046,-15617.933)"
         style="fill:none;stroke:#000000;stroke-width:4;stroke-linecap:butt;stroke-linejoin:miter;stroke-miterlimit:4;stroke-opacity:1;stroke-dasharray:none"
         d="m 231.32733,2879.9788 82.68326,120.7733 117.98623,-96.6186 c 39.30431,-43.0927 9.75158,-126.6952 -81.75423,-102.1928 z"
         id="path4264-9"
         inkscape:connector-curvature="0"
         sodipodi:nodetypes="ccccc" />
      <path
         transform="matrix(5.6725038,0,0,5.6725038,-510.92046,-15617.933)"
         style="fill:none;stroke:#000000;stroke-width:4;stroke-linecap:butt;stroke-linejoin:miter;stroke-miterlimit:4;stroke-opacity:1;stroke-dasharray:none"
         d="m 328.875,3019.3326 119.84428,-102.1928 c 84.44679,-109.5993 -40.32271,-165.2979 -109.625,-134.7087 l -142.14089,89.1865 183.01801,280.5657 18.44504,24.7107 114.19879,152.9914 z"
         id="path4266"
         inkscape:connector-curvature="0"
         sodipodi:nodetypes="cccccccc" />
      <path
         transform="matrix(9.0440151,0,0,9.0440151,-4181.8672,-2872.7947)"
         inkscape:connector-curvature="0"
         d="m 1255,425.19724 c 0.034,2.97919 -1.6699,5.63889 -2.952,8.21344 -4.2746,8.39241 -8.6542,16.73054 -12.9804,25.09649 -5.6986,10.96721 -10.6986,22.27317 -15.7279,33.55652 -5.5674,12.65047 -11.4698,25.149 -17.4472,37.6097 0,0 -3.0055,-1.44171 -3.0055,-1.44171 l 0,0 c 5.9641,-12.43263 11.8534,-24.90298 17.4081,-37.52504 5.0555,-11.34216 10.083,-22.70639 15.8116,-33.73059 4.3186,-8.35118 8.6903,-16.67468 12.9578,-25.052 1.0422,-2.09028 2.5661,-4.30372 2.6022,-6.72681 0,0 3.3333,0 3.3333,0 z"
         id="path4543"
         style="fill:#000000;fill-opacity:1;stroke:none" />
      <path
         sodipodi:nodetypes="cccccccscc"
         transform="matrix(9.0440151,0,0,9.0440151,-4181.8672,-2872.7947)"
         inkscape:connector-curvature="0"
         id="path4551"
         d="M 815,358.33334 C 727.10322,308.35796 680.99906,386.61306 761.05237,485.2613 795.54209,538.22269 752.40377,619.51859 730,683.33333 L 660,565 l 36.66667,0 c 17.31874,96.90834 26.58683,121.62071 56.66666,13.33333 32.07522,-89.42066 -79.8787,-120.55446 -41.66666,-219.99999 1.64906,-9.61553 22.01093,-27.14437 48.2021,-28.21384 16.06394,-0.65594 20.98742,2.17341 51.7979,1.54716 z"
         style="fill:none;stroke:#000000;stroke-width:2.5;stroke-linecap:butt;stroke-linejoin:miter;stroke-miterlimit:10;stroke-opacity:1;stroke-dasharray:none" />
      <path
         transform="matrix(9.0440151,0,0,9.0440151,-4181.8672,-2872.7947)"
         inkscape:connector-curvature="0"
         id="path4555"
         d="m 813.33333,330 0,0 5,133.33333 -90,220 L 835,470 l 63.33333,-41.66667 28.33334,-40 -90,51.66667 L 830,328.33333 l 0,0"
         style="fill:none;stroke:#000000;stroke-width:2.5;stroke-linecap:butt;stroke-linejoin:miter;stroke-miterlimit:10;stroke-opacity:1;stroke-dasharray:none" />
    </g>
    <text
       xml:space="preserve"
       style="font-size:40px;font-style:normal;font-variant:normal;font-weight:bold;font-stretch:normal;line-height:125%;letter-spacing:0px;word-spacing:0px;fill:url(#linearGradient4678);fill-opacity:1;stroke:none;font-family:Andale Mono;-inkscape-font-specification:Andale Mono Bold"
       x="116"
       y="-4.7516785"
       id="text3075"
       sodipodi:linespacing="125%"
       transform="matrix(0.5596631,0,0,0.37198192,664.95323,127.22653)"><tspan
         sodipodi:role="line"
         id="tspan3077"
         x="116"
         y="-4.7516785"
         style="font-style:normal;font-variant:normal;font-weight:bold;font-stretch:normal;fill:url(#linearGradient4678);fill-opacity:1;font-family:Andale Mono;-inkscape-font-specification:Andale Mono Bold">HUNDREDTHOUGHTS</tspan></text>
    <g
       transform="matrix(0.58979031,-0.42133338,0.25978291,0.42193829,551.74411,251.28913)"
       style="font-size:40px;font-style:normal;font-variant:normal;font-weight:bold;font-stretch:normal;line-height:125%;letter-spacing:0px;word-spacing:0px;fill:url(#linearGradient3249);fill-opacity:1;stroke:none;font-family:Andale Mono;-inkscape-font-specification:Andale Mono Bold"
       id="text3126">
      <path
         d="m 123.92969,31.537384 -3.20313,0 0,-13.671875 -9.43359,0 0,13.671875 -3.20313,0 0,-27.5585937 3.20313,0 0,11.0742187 9.43359,0 0,-11.0742187 3.20313,0 0,27.5585937"
         style="writing-mode:tb-rl;fill:url(#linearGradient3219);font-family:Andale Mono;-inkscape-font-specification:Andale Mono Bold"
         id="path3157"
         inkscape:connector-curvature="0" />
      <path
         d="m 123.92969,67.865509 c -2e-5,3.19011 -0.65106,5.520837 -1.95313,6.992188 -1.28908,1.471354 -3.25522,2.20703 -5.89843,2.207031 -5.32553,-10e-7 -7.98829,-3.040362 -7.98829,-9.121094 l 0,-18.964844 3.20313,0 0,18.671875 c -1e-5,4.401046 1.59504,6.601565 4.78516,6.601563 1.60154,2e-6 2.77342,-0.520831 3.51562,-1.5625 0.75519,-1.041662 1.1328,-2.734369 1.13281,-5.078125 l 0,-18.632813 3.20313,0 0,18.886719"
         style="writing-mode:tb-rl;fill:url(#linearGradient3221);font-family:Andale Mono;-inkscape-font-specification:Andale Mono Bold"
         id="path3159"
         inkscape:connector-curvature="0" />
      <path
         d="m 124.32031,121.53738 -3.55468,0 -9.88282,-21.757808 0,21.757808 -3.20312,0 0,-27.55859 3.57422,0 9.92187,21.5625 0,-21.5625 3.14453,0 0,27.55859"
         style="writing-mode:tb-rl;fill:url(#linearGradient3223);font-family:Andale Mono;-inkscape-font-specification:Andale Mono Bold"
         id="path3161"
         inkscape:connector-curvature="0" />
      <path
         d="m 108.08984,138.97879 5.42969,0 c 3.60676,3e-5 6.49738,1.2305 8.67188,3.69141 2.17446,2.44793 3.26169,5.81382 3.26172,10.09765 -3e-5,4.37501 -1.1068,7.76694 -3.32032,10.17578 -2.20053,2.39584 -5.02605,3.59375 -8.47656,3.59375 l -5.56641,0 0,-27.55859 m 3.20313,24.76563 2.26562,0 c 2.61718,0 4.68749,-0.97005 6.21094,-2.91016 1.52342,-1.9401 2.28514,-4.6289 2.28516,-8.06641 -2e-5,-3.41144 -0.76825,-6.09373 -2.30469,-8.04687 -1.52345,-1.96612 -3.58725,-2.9492 -6.19141,-2.94922 l -2.26562,0 0,21.97266"
         style="writing-mode:tb-rl;fill:url(#linearGradient3225);font-family:Andale Mono;-inkscape-font-specification:Andale Mono Bold"
         id="path3163"
         inkscape:connector-curvature="0" />
      <path
         d="m 126.9375,211.53738 -4.00391,0 -8.08593,-12.51953 -3.55469,0 0,12.51953 -3.20313,0 0,-27.55859 7.79297,0 c 2.61718,3e-5 4.68098,0.63805 6.19141,1.91406 1.52342,1.26305 2.28513,3.02737 2.28516,5.29297 -3e-5,1.67971 -0.55341,3.1771 -1.66016,4.49219 -1.10679,1.3021 -2.63023,2.18751 -4.57031,2.65625 l 8.80859,13.20312 m -15.64453,-15.3125 4.04297,0 c 1.69269,2e-5 3.06639,-0.45571 4.12109,-1.36718 1.05467,-0.92447 1.58202,-2.08332 1.58203,-3.47657 -1e-5,-3.07289 -1.87501,-4.60935 -5.625,-4.60937 l -4.12109,0 0,9.45312"
         style="writing-mode:tb-rl;fill:url(#linearGradient3227);font-family:Andale Mono;-inkscape-font-specification:Andale Mono Bold"
         id="path3165"
         inkscape:connector-curvature="0"
         transform="translate(0.01393091,0.0141374)" />
      <path
         d="m 123.40234,256.53738 -14.39453,0 0,-27.55859 14.27735,0 0,2.79297 -11.07422,0 0,8.53516 10.64453,0 0,2.79296 -10.64453,0 0,10.64454 11.1914,0 0,2.79296"
         style="writing-mode:tb-rl;fill:url(#linearGradient3229);font-family:Andale Mono;-inkscape-font-specification:Andale Mono Bold"
         id="path3167"
         inkscape:connector-curvature="0"
         transform="translate(0.62061168,0.81397995)" />
      <path
         d="m 108.08984,273.97879 5.42969,0 c 3.60676,3e-5 6.49738,1.2305 8.67188,3.69141 2.17446,2.44793 3.26169,5.81382 3.26172,10.09765 -3e-5,4.37501 -1.1068,7.76694 -3.32032,10.17578 -2.20053,2.39584 -5.02605,3.59375 -8.47656,3.59375 l -5.56641,0 0,-27.55859 m 3.20313,24.76563 2.26562,0 c 2.61718,0 4.68749,-0.97005 6.21094,-2.91016 1.52342,-1.9401 2.28514,-4.6289 2.28516,-8.06641 -2e-5,-3.41144 -0.76825,-6.09373 -2.30469,-8.04687 -1.52345,-1.96612 -3.58725,-2.9492 -6.19141,-2.94922 l -2.26562,0 0,21.97266"
         style="writing-mode:tb-rl;fill:url(#linearGradient3231);font-family:Andale Mono;-inkscape-font-specification:Andale Mono Bold"
         id="path3169"
         inkscape:connector-curvature="0"
         transform="translate(2.4656774,3.3710395)" />
      <path
         d="m 126.13672,321.57645 -8.49609,0 0,24.96093 -3.1836,0 0,-24.96093 -8.53515,0 0,-2.59766 20.21484,0 0,2.59766"
         style="writing-mode:tb-rl;fill:url(#linearGradient3233);font-family:Andale Mono;-inkscape-font-specification:Andale Mono Bold"
         id="path3171"
         inkscape:connector-curvature="0"
         transform="translate(4.7552632,6.5843487)" />
      <path
         d="m 123.92969,391.53738 -3.20313,0 0,-13.67187 -9.43359,0 0,13.67187 -3.20313,0 0,-27.55859 3.20313,0 0,11.07422 9.43359,0 0,-11.07422 3.20313,0 0,27.55859"
         style="writing-mode:tb-rl;fill:url(#linearGradient3235);font-family:Andale Mono;-inkscape-font-specification:Andale Mono Bold"
         id="path3173"
         inkscape:connector-curvature="0"
         transform="translate(8.4538776,11.807447)" />
      <path
         d="m 115.96094,408.45145 c 3.08592,2e-5 5.43618,1.22398 7.05078,3.67187 1.62758,2.43492 2.44138,5.98309 2.44141,10.64453 -3e-5,4.63543 -0.80732,8.17709 -2.42188,10.625 -1.6146,2.44792 -3.97137,3.67188 -7.07031,3.67188 -3.07293,0 -5.42319,-1.21745 -7.05078,-3.65235 -1.61459,-2.44791 -2.42188,-5.99608 -2.42188,-10.64453 0,-4.64842 0.80729,-8.19659 2.42188,-10.64453 1.61457,-2.44789 3.96483,-3.67185 7.05078,-3.67187 m 0,25.80078 c 4.06248,0 6.09373,-3.82812 6.09375,-11.48438 -2e-5,-7.66925 -2.03127,-11.50388 -6.09375,-11.5039 -1.97918,2e-5 -3.48959,0.99611 -4.53125,2.98828 -1.02865,1.97918 -1.54298,4.81772 -1.54297,8.51562 -1e-5,3.73699 0.51432,6.58855 1.54297,8.55469 1.02863,1.95313 2.53905,2.92969 4.53125,2.92969"
         style="writing-mode:tb-rl;fill:url(#linearGradient3237);font-family:Andale Mono;-inkscape-font-specification:Andale Mono Bold"
         id="path3175"
         inkscape:connector-curvature="0"
         transform="translate(11.959934,16.772648)" />
      <path
         d="m 123.92969,472.86551 c -2e-5,3.19011 -0.65106,5.52084 -1.95313,6.99219 -1.28908,1.47135 -3.25522,2.20703 -5.89843,2.20703 -5.32553,0 -7.98829,-3.04036 -7.98829,-9.1211 l 0,-18.96484 3.20313,0 0,18.67188 c -1e-5,4.40104 1.59504,6.60156 4.78516,6.60156 1.60154,0 2.77342,-0.52083 3.51562,-1.5625 0.75519,-1.04166 1.1328,-2.73437 1.13281,-5.07813 l 0,-18.63281 3.20313,0 0,18.88672"
         style="writing-mode:tb-rl;fill:url(#linearGradient3239);font-family:Andale Mono;-inkscape-font-specification:Andale Mono Bold"
         id="path3177"
         inkscape:connector-curvature="0"
         transform="translate(15.032722,21.126253)" />
      <path
         d="m 124.88672,524.58426 c -2.25262,1.65365 -4.74611,2.48047 -7.48047,2.48047 -3.58074,0 -6.29558,-1.21094 -8.14453,-3.63281 -1.84896,-2.4349 -2.77344,-5.98958 -2.77344,-10.66407 0,-4.51821 0.89192,-8.03383 2.67578,-10.54687 1.79687,-2.513 4.54426,-3.76951 8.24219,-3.76953 1.32811,2e-5 2.64321,0.1693 3.94531,0.50781 1.30207,0.33857 2.35024,0.78779 3.14453,1.34766 l -1.05468,2.51953 c -1.83596,-1.04165 -3.84768,-1.56248 -6.03516,-1.5625 -2.52605,2e-5 -4.41407,0.9245 -5.66406,2.77343 -1.23699,1.84898 -1.85548,4.75914 -1.85547,8.73047 -1e-5,7.65626 2.5065,11.48438 7.51953,11.48438 1.88801,0 3.31379,-0.39713 4.27734,-1.19141 l 0,-6.79687 -4.96093,0 0,-2.77344 8.16406,0 0,11.09375"
         style="writing-mode:tb-rl;fill:url(#linearGradient3241);font-family:Andale Mono;-inkscape-font-specification:Andale Mono Bold"
         id="path3179"
         inkscape:connector-curvature="0"
         transform="translate(17.549714,24.688184)" />
      <path
         d="m 123.92969,571.53738 -3.20313,0 0,-13.67187 -9.43359,0 0,13.67187 -3.20313,0 0,-27.55859 3.20313,0 0,11.07422 9.43359,0 0,-11.07422 3.20313,0 0,27.55859"
         style="writing-mode:tb-rl;fill:url(#linearGradient3243);font-family:Andale Mono;-inkscape-font-specification:Andale Mono Bold"
         id="path3181"
         inkscape:connector-curvature="0"
         transform="translate(19.140272,26.938071)" />
      <path
         d="m 126.13672,591.57645 -8.49609,0 0,24.96093 -3.1836,0 0,-24.96093 -8.53515,0 0,-2.59766 20.21484,0 0,2.59766"
         style="writing-mode:tb-rl;fill:url(#linearGradient3245);font-family:Andale Mono;-inkscape-font-specification:Andale Mono Bold"
         id="path3183"
         inkscape:connector-curvature="0"
         transform="translate(19.616729,27.616194)" />
      <path
         d="m 121.87891,637.02567 c -1.64064,-0.55988 -3.19663,-0.83982 -4.66797,-0.83985 -1.66668,3e-5 -3.02736,0.38414 -4.08203,1.15235 -1.04168,0.75523 -1.56251,1.83596 -1.5625,3.24218 -1e-5,1.66669 1.37369,3.13153 4.12109,4.39453 2.03124,0.93752 3.37238,1.58856 4.02344,1.95313 0.66404,0.3646 1.33462,0.8659 2.01172,1.50391 0.67706,0.63803 1.21743,1.39324 1.62109,2.26562 0.41665,0.85939 0.62498,1.82944 0.625,2.91016 -2e-5,2.68229 -0.90497,4.76562 -2.71484,6.25 -1.79689,1.47135 -3.91929,2.20703 -6.36719,2.20703 -2.3698,0 -4.44662,-0.46875 -6.23047,-1.40625 l 0.66406,-2.75391 c 2.09635,0.95053 3.92577,1.42578 5.48828,1.42578 1.82291,0 3.28124,-0.46874 4.375,-1.40625 1.10676,-0.95051 1.66014,-2.2526 1.66016,-3.90625 -2e-5,-1.22395 -0.35809,-2.2591 -1.07422,-3.10547 -0.71616,-0.85936 -2.03777,-1.73175 -3.96484,-2.61718 -1.97918,-0.91145 -3.26173,-1.52994 -3.84766,-1.85547 -0.57292,-0.33853 -1.14584,-0.80077 -1.71875,-1.38672 -0.57292,-0.58592 -1.01563,-1.24347 -1.32812,-1.97266 -0.31251,-0.72914 -0.46876,-1.52341 -0.46875,-2.38281 -1e-5,-2.27862 0.8203,-4.05596 2.46093,-5.33203 1.64062,-1.27602 3.71744,-1.91404 6.23047,-1.91406 1.83593,2e-5 3.65884,0.27997 5.46875,0.83984 l -0.72265,2.73438"
         style="writing-mode:tb-rl;fill:url(#linearGradient3247);font-family:Andale Mono;-inkscape-font-specification:Andale Mono Bold"
         id="path3185"
         inkscape:connector-curvature="0"
         transform="translate(18.74307,26.399492)" />
    </g>
    <text
       xml:space="preserve"
       style="font-size:40px;font-style:normal;font-variant:normal;font-weight:bold;font-stretch:normal;line-height:125%;letter-spacing:0px;word-spacing:0px;fill:url(#linearGradient4682);fill-opacity:1;stroke:none;font-family:Andale Mono;-inkscape-font-specification:Andale Mono Bold"
       x="116"
       y="-4.7516785"
       id="text3130"
       sodipodi:linespacing="125%"
       transform="matrix(0.70148982,0.3766196,-0.28504559,0.43391796,951.96477,155.58592)"><tspan
         sodipodi:role="line"
         id="tspan3132"
         x="-4.7516785"
         y="116"
         style="font-style:normal;font-variant:normal;font-weight:bold;font-stretch:normal;writing-mode:tb-rl;fill:url(#linearGradient4682);fill-opacity:1;font-family:Andale Mono;-inkscape-font-specification:Andale Mono Bold">HUNDREDTHOUGHTS</tspan></text>
    <text
       transform="matrix(0.47534766,-0.29541055,0.19634559,0.31594138,576.48392,221.36496)"
       sodipodi:linespacing="125%"
       id="text3138"
       y="-4.7516785"
       x="116"
       style="font-size:40px;font-style:normal;font-variant:normal;font-weight:bold;font-stretch:normal;line-height:125%;letter-spacing:0px;word-spacing:0px;fill:url(#linearGradient4684);fill-opacity:1;stroke:none;font-family:Andale Mono;-inkscape-font-specification:Andale Mono Bold"
       xml:space="preserve"><tspan
         style="font-style:normal;font-variant:normal;font-weight:bold;font-stretch:normal;letter-spacing:32.87509537px;fill:url(#linearGradient4684);fill-opacity:1;font-family:Andale Mono;-inkscape-font-specification:Andale Mono Bold"
         y="-4.7516785"
         x="116"
         id="tspan3140"
         sodipodi:role="line"
         dx="0">PSYZ</tspan></text>
    <text
       xml:space="preserve"
       style="font-size:40px;font-style:normal;font-variant:normal;font-weight:bold;font-stretch:normal;line-height:125%;letter-spacing:0px;word-spacing:0px;fill:url(#linearGradient4686);fill-opacity:1;stroke:none;font-family:Andale Mono;-inkscape-font-specification:Andale Mono Bold"
       x="116"
       y="-4.7516785"
       id="text3150"
       sodipodi:linespacing="125%"
       transform="matrix(0.48222231,0.28405006,-0.1887948,0.32051064,877.87609,95.47666)"><tspan
         dx="0"
         sodipodi:role="line"
         id="tspan3152"
         x="116"
         y="-4.7516785"
         style="font-style:normal;font-variant:normal;font-weight:bold;font-stretch:normal;letter-spacing:32.87509537px;fill:url(#linearGradient4686);fill-opacity:1;font-family:Andale Mono;-inkscape-font-specification:Andale Mono Bold">PSYZ</tspan></text>
  </g>
  <g
     style="opacity:0.22000002;stroke:#000000;stroke-width:9;stroke-miterlimit:10;stroke-opacity:1;stroke-dasharray:none"
     transform="matrix(1.0548111,0,0,1.0548111,-387.22047,750.24413)"
     id="g4637">
    <g
       id="g4651"
       transform="translate(5.0862077,-16.954026)">
      <g
         id="g3078"
         transform="translate(0,-569.65524)">
        <path
           d="M 432.6929,517.50134 138.43318,232.53007 317.30709,99.80839 l 357.6929,0 107.15069,78.37523 40.44423,35.31831 -312.75136,389.29845 z"
           id="path4639"
           inkscape:connector-curvature="0"
           style="stroke:#000000;stroke-width:16.34684563;stroke-linecap:butt;stroke-linejoin:round;stroke-miterlimit:10;stroke-opacity:1;stroke-dasharray:none"
           transform="matrix(0.55056492,0,0,0.55056492,389.84057,-39.592045)"
           sodipodi:nodetypes="cccccccc" />
        <path
           d="M 196.8773,199.1426 510.01115,595.9615"
           id="path4641"
           inkscape:connector-curvature="0"
           style="stroke:#000000;stroke-width:16.34684563;stroke-linecap:butt;stroke-linejoin:round;stroke-miterlimit:10;stroke-opacity:1;stroke-dasharray:none"
           transform="matrix(0.55056492,0,0,0.55056492,389.84057,-39.592045)" />
        <path
           d="m 197.29659,201.30971 c 15.57875,-10.76334 66.54768,-52.27866 93.47246,-64.58005 26.92474,-12.3014 48.26859,-16.92082 68.07611,-9.22835 19.80753,7.69248 44.23053,34.03719 50.76901,55.38321 6.53851,21.34601 6.26511,47.94182 -11.53805,72.6929 -17.80313,24.7511 -79.4007,63.17804 -95.28082,75.81366"
           id="path4643"
           inkscape:connector-curvature="0"
           style="stroke:#000000;stroke-width:16.34684563;stroke-linecap:butt;stroke-linejoin:round;stroke-miterlimit:10;stroke-opacity:1;stroke-dasharray:none"
           transform="matrix(0.55056492,0,0,0.55056492,389.84057,-39.592045)" />
        <path
           d="m 657.71498,118.82037 c 2.13775,-24.005235 -135.12475,-18.877619 -170.9197,-1.7705 -225.50769,219.81149 251.78704,126.88723 64.30803,375.6632 -75.54656,75.1557 -133.26505,-10.62935 -188.14647,-79.19549"
           id="path4645"
           inkscape:connector-curvature="0"
           style="stroke:#000000;stroke-width:16.34684563;stroke-linecap:butt;stroke-linejoin:round;stroke-miterlimit:10;stroke-opacity:1;stroke-dasharray:none"
           sodipodi:nodetypes="cccc"
           transform="matrix(0.55056492,0,0,0.55056492,389.84057,-39.592045)" />
        <path
           sodipodi:nodetypes="ccc"
           style="fill:none;stroke:#000000;stroke-width:16.34684563;stroke-linecap:butt;stroke-linejoin:miter;stroke-miterlimit:10;stroke-opacity:1;stroke-dasharray:none"
           d="M 671.32632,93.809644 655.61228,273.29913 782.41491,188.63948"
           id="path4647"
           inkscape:connector-curvature="0"
           transform="matrix(0.55056492,0,0,0.55056492,389.84057,-39.592045)" />
        <path
           sodipodi:nodetypes="ccc"
           style="fill:none;stroke:#000000;stroke-width:16.34684563;stroke-linecap:butt;stroke-linejoin:miter;stroke-miterlimit:10;stroke-opacity:1;stroke-dasharray:none"
           d="M 655.61228,268.91141 516.66667,591.66667 518.33333,590"
           id="path4649"
           inkscape:connector-curvature="0"
           transform="matrix(0.51731577,0,0,0.52679599,411.87231,-33.433501)" />
      </g>
    </g>
  </g>
</svg>
