<?xml version="1.0" encoding="UTF-8" standalone="no"?>
<!-- Created with Inkscape (http://www.inkscape.org/) -->

<svg
   xmlns:dc="http://purl.org/dc/elements/1.1/"
   xmlns:cc="http://creativecommons.org/ns#"
   xmlns:rdf="http://www.w3.org/1999/02/22-rdf-syntax-ns#"
   xmlns:svg="http://www.w3.org/2000/svg"
   xmlns="http://www.w3.org/2000/svg"
   xmlns:sodipodi="http://sodipodi.sourceforge.net/DTD/sodipodi-0.dtd"
   xmlns:inkscape="http://www.inkscape.org/namespaces/inkscape"
   id="svg3039"
   version="1.1"
   inkscape:version="0.48.2 r9819"
   width="551.0033"
   height="390.24133"
   sodipodi:docname="Psy Z Logo Scanned Document 5b Solo Redimension.svg">
  <metadata
     id="metadata3045">
    <rdf:RDF>
      <cc:Work
         rdf:about="">
        <dc:format>image/svg+xml</dc:format>
        <dc:type
           rdf:resource="http://purl.org/dc/dcmitype/StillImage" />
        <dc:title></dc:title>
      </cc:Work>
    </rdf:RDF>
  </metadata>
  <defs
     id="defs3043" />
  <sodipodi:namedview
     pagecolor="#ffffff"
     bordercolor="#666666"
     borderopacity="1"
     objecttolerance="10"
     gridtolerance="10"
     guidetolerance="10"
     inkscape:pageopacity="0"
     inkscape:pageshadow="2"
     inkscape:window-width="1280"
     inkscape:window-height="776"
     id="namedview3041"
     showgrid="false"
     inkscape:zoom="1"
     inkscape:cx="260.80037"
     inkscape:cy="228.13399"
     inkscape:window-x="0"
     inkscape:window-y="24"
     inkscape:window-maximized="1"
     inkscape:current-layer="g4274"
     borderlayer="false"
     inkscape:showpageshadow="false"
     fit-margin-top="75"
     fit-margin-left="75"
     fit-margin-right="75"
     fit-margin-bottom="75" />
  <g
     id="g4274"
     transform="matrix(0.50702416,0,0,0.50702416,26.204428,358.46072)">
    <g
       id="g4340"
       transform="matrix(0.21807711,0,0,0.21807711,-32.520472,-581.19388)"
       style="fill:none;stroke-width:45.22007382;stroke-miterlimit:4;stroke-dasharray:none">
      <path
         inkscape:connector-curvature="0"
         id="path4262"
         d="m 198.81144,2875.3337 179.30191,276.8496 269.48042,0 183.10372,-286.6202 -156.22503,-92.4222 -318.65572,0 z"
         style="fill:none;stroke:#000000;stroke-width:7.97180141;stroke-linecap:butt;stroke-linejoin:miter;stroke-miterlimit:4;stroke-opacity:1;stroke-dasharray:none"
         transform="matrix(5.6725038,0,0,5.6725038,-510.92046,-15617.933)"
         sodipodi:nodetypes="ccccccc" />
      <path
         sodipodi:nodetypes="ccccc"
         inkscape:connector-curvature="0"
         id="path4264"
         d="m 231.32733,2879.9788 82.68326,120.7733 117.98623,-96.6186 c 39.30431,-43.0927 9.75158,-126.6952 -81.75423,-102.1928 z"
         style="fill:none;stroke:#000000;stroke-width:7.97180141;stroke-linecap:butt;stroke-linejoin:miter;stroke-miterlimit:4;stroke-opacity:1;stroke-dasharray:none"
         transform="matrix(5.6725038,0,0,5.6725038,-510.92046,-15617.933)" />
      <path
         sodipodi:nodetypes="ccccccc"
         inkscape:connector-curvature="0"
         id="path4266"
         d="m 328.875,3019.3326 119.84428,-102.1928 c 84.44679,-109.5993 -40.32271,-165.2979 -109.625,-134.7087 l -142.14089,89.1865 183.01801,280.5657 26.94174,0 z"
         style="fill:none;stroke:#000000;stroke-width:7.97180141;stroke-linecap:butt;stroke-linejoin:miter;stroke-miterlimit:4;stroke-opacity:1;stroke-dasharray:none"
         transform="matrix(5.6725038,0,0,5.6725038,-510.92046,-15617.933)" />
      <path
         inkscape:connector-curvature="0"
         id="path4268"
         d="m 463.58369,2808.4439 159.79237,0 -228.54025,320.5137 0,0.9291 0,0"
         style="fill:none;stroke:#000000;stroke-width:7.97180141;stroke-linecap:butt;stroke-linejoin:miter;stroke-miterlimit:4;stroke-opacity:1;stroke-dasharray:none"
         transform="matrix(5.6725038,0,0,5.6725038,-510.92046,-15617.933)" />
      <path
         inkscape:connector-curvature="0"
         id="path4270"
         d="M 672.61441,2774.9989 438.5,3121.5254 l 189.42414,0 73.11569,-114.2701 -145.75995,1.2921 -80.54789,112.978 0.92903,0"
         style="fill:none;stroke:#000000;stroke-width:7.97180141;stroke-linecap:butt;stroke-linejoin:miter;stroke-miterlimit:4;stroke-opacity:1;stroke-dasharray:none"
         transform="matrix(5.6725038,0,0,5.6725038,-510.92046,-15617.933)"
         sodipodi:nodetypes="ccccccc" />
      <path
         inkscape:connector-curvature="0"
         id="path4272"
         d="m 703.79538,2791.9244 -126.10165,184.6731 142.81277,0 82.68327,-128.3657"
         style="fill:none;stroke:#000000;stroke-width:7.97180141;stroke-linecap:butt;stroke-linejoin:miter;stroke-miterlimit:4;stroke-opacity:1;stroke-dasharray:none"
         transform="matrix(5.6725038,0,0,5.6725038,-510.92046,-15617.933)"
         sodipodi:nodetypes="cccc" />
    </g>
  </g>
</svg>
