<?xml version="1.0" encoding="UTF-8" standalone="no"?>
<!-- Created with Inkscape (http://www.inkscape.org/) -->

<svg
   xmlns:dc="http://purl.org/dc/elements/1.1/"
   xmlns:cc="http://creativecommons.org/ns#"
   xmlns:rdf="http://www.w3.org/1999/02/22-rdf-syntax-ns#"
   xmlns:svg="http://www.w3.org/2000/svg"
   xmlns="http://www.w3.org/2000/svg"
   xmlns:xlink="http://www.w3.org/1999/xlink"
   xmlns:sodipodi="http://sodipodi.sourceforge.net/DTD/sodipodi-0.dtd"
   xmlns:inkscape="http://www.inkscape.org/namespaces/inkscape"
   width="744.09448819"
   height="1052.3622047"
   id="svg2"
   version="1.1"
   inkscape:version="0.48.2 r9819"
   sodipodi:docname="New document 1">
  <defs
     id="defs4">
    <linearGradient
       inkscape:collect="always"
       id="linearGradient5298">
      <stop
         style="stop-color:#c1c1c1;stop-opacity:1;"
         offset="0"
         id="stop5300" />
      <stop
         style="stop-color:#c1c1c1;stop-opacity:0;"
         offset="1"
         id="stop5302" />
    </linearGradient>
    <inkscape:perspective
       sodipodi:type="inkscape:persp3d"
       inkscape:vp_x="0 : 433.18109 : 1"
       inkscape:vp_y="0 : 1000 : 0"
       inkscape:vp_z="744.09448 : 433.18109 : 1"
       inkscape:persp3d-origin="372.04724 : 257.78739 : 1"
       id="perspective3030" />
    <linearGradient
       inkscape:collect="always"
       id="linearGradient3008">
      <stop
         style="stop-color:#241c1c;stop-opacity:1;"
         offset="0"
         id="stop3010" />
      <stop
         style="stop-color:#241c1c;stop-opacity:0;"
         offset="1"
         id="stop3012" />
    </linearGradient>
    <linearGradient
       inkscape:collect="always"
       xlink:href="#linearGradient3008"
       id="linearGradient3014"
       x1="114.24276"
       y1="126.30847"
       x2="41.582184"
       y2="126.30847"
       gradientUnits="userSpaceOnUse" />
    <linearGradient
       inkscape:collect="always"
       xlink:href="#linearGradient3008"
       id="linearGradient3830"
       gradientUnits="userSpaceOnUse"
       x1="114.24276"
       y1="126.30847"
       x2="41.582184"
       y2="126.30847" />
    <linearGradient
       inkscape:collect="always"
       xlink:href="#linearGradient3008"
       id="linearGradient3832"
       gradientUnits="userSpaceOnUse"
       x1="114.24276"
       y1="126.30847"
       x2="41.582184"
       y2="126.30847" />
    <linearGradient
       inkscape:collect="always"
       xlink:href="#linearGradient3008"
       id="linearGradient3834"
       gradientUnits="userSpaceOnUse"
       x1="114.24276"
       y1="126.30847"
       x2="41.582184"
       y2="126.30847" />
    <linearGradient
       inkscape:collect="always"
       xlink:href="#linearGradient3008"
       id="linearGradient3836"
       gradientUnits="userSpaceOnUse"
       x1="114.24276"
       y1="126.30847"
       x2="41.582184"
       y2="126.30847" />
    <linearGradient
       inkscape:collect="always"
       xlink:href="#linearGradient3008"
       id="linearGradient3838"
       gradientUnits="userSpaceOnUse"
       x1="114.24276"
       y1="126.30847"
       x2="41.582184"
       y2="126.30847" />
    <linearGradient
       inkscape:collect="always"
       xlink:href="#linearGradient3008"
       id="linearGradient3840"
       gradientUnits="userSpaceOnUse"
       x1="114.24276"
       y1="126.30847"
       x2="41.582184"
       y2="126.30847" />
    <linearGradient
       inkscape:collect="always"
       xlink:href="#linearGradient3008"
       id="linearGradient3842"
       gradientUnits="userSpaceOnUse"
       x1="114.24276"
       y1="126.30847"
       x2="41.582184"
       y2="126.30847" />
    <linearGradient
       inkscape:collect="always"
       xlink:href="#linearGradient5298"
       id="linearGradient5304"
       x1="60.5"
       y1="200.36218"
       x2="308.5"
       y2="200.36218"
       gradientUnits="userSpaceOnUse" />
  </defs>
  <sodipodi:namedview
     id="base"
     pagecolor="#ffffff"
     bordercolor="#666666"
     borderopacity="1.0"
     inkscape:pageopacity="0.0"
     inkscape:pageshadow="2"
     inkscape:zoom="1"
     inkscape:cx="261.5"
     inkscape:cy="840"
     inkscape:document-units="px"
     inkscape:current-layer="flowRoot2985"
     showgrid="false"
     inkscape:window-width="1280"
     inkscape:window-height="776"
     inkscape:window-x="0"
     inkscape:window-y="24"
     inkscape:window-maximized="1" />
  <metadata
     id="metadata7">
    <rdf:RDF>
      <cc:Work
         rdf:about="">
        <dc:format>image/svg+xml</dc:format>
        <dc:type
           rdf:resource="http://purl.org/dc/dcmitype/StillImage" />
        <dc:title></dc:title>
      </cc:Work>
    </rdf:RDF>
  </metadata>
  <g
     inkscape:label="Layer 1"
     inkscape:groupmode="layer"
     id="layer1">
    <g
       transform="matrix(2.2144139,0,0,2.2144139,-44.980751,28.662947)"
       style="font-size:40px;font-style:normal;font-weight:normal;line-height:125%;letter-spacing:0px;word-spacing:0px;fill:url(#linearGradient3014);fill-opacity:1;stroke:none;font-family:Sans"
       id="flowRoot2985">
      <path
         style="fill:none;stroke:url(#linearGradient5304);stroke-width:1px;stroke-linecap:butt;stroke-linejoin:miter;stroke-opacity:1"
         d="m 114,139.36218 -53,0 0,-43.999997 247,0 0,40.999997 -41,0 -27,0 0,169 -104,0 0,-166 z"
         id="path3854"
         inkscape:connector-curvature="0"
         transform="matrix(0.45158676,0,0,0.45158676,20.312712,-12.943807)" />
      <path
         d="m 37.039062,40.20981 24.667969,0 0,3.320313 -10.351562,0 0,25.839843 -3.964844,0 0,-25.839843 -10.351563,0 0,-3.320313"
         style="fill:url(#linearGradient3830);fill-opacity:1"
         id="path2994"
         inkscape:connector-curvature="0"
         transform="translate(33.41742,6.7738014)" />
      <path
         d="m 64.128906,47.494966 3.59375,0 0,21.875 -3.59375,0 0,-21.875 m 0,-8.515625 3.59375,0 0,4.550782 -3.59375,0 0,-4.550782"
         style="fill:url(#linearGradient3832);fill-opacity:1"
         id="path2996"
         inkscape:connector-curvature="0"
         transform="translate(33.41742,6.7738014)" />
      <path
         d="m 75.222656,38.979341 3.59375,0 0,30.390625 -3.59375,0 0,-30.390625"
         style="fill:url(#linearGradient3834);fill-opacity:1"
         id="path2998"
         inkscape:connector-curvature="0"
         transform="translate(33.41742,6.7738014)" />
      <path
         d="m 82.429687,40.20981 24.667973,0 0,3.320313 -10.351566,0 0,25.839843 -3.964844,0 0,-25.839843 -10.351563,0 0,-3.320313"
         style="fill:url(#linearGradient3836);fill-opacity:1"
         id="path3000"
         inkscape:connector-curvature="0"
         transform="translate(33.41742,6.7738014)" />
      <path
         d="m 117.58594,50.854341 c -0.40366,-0.234356 -0.84637,-0.403626 -1.32813,-0.507812 -0.46876,-0.117168 -0.98959,-0.175762 -1.5625,-0.175781 -2.03126,1.9e-5 -3.59376,0.664081 -4.6875,1.992187 -1.08073,1.31512 -1.6211,3.20965 -1.62109,5.683594 l 0,11.523437 -3.61328,0 0,-21.875 3.61328,0 0,3.398438 c 0.7552,-1.328105 1.73827,-2.311177 2.94922,-2.949219 1.21092,-0.651019 2.68228,-0.97654 4.41406,-0.976562 0.24738,2.2e-5 0.52082,0.01955 0.82031,0.05859 0.29947,0.02606 0.6315,0.07164 0.9961,0.136719 l 0.0195,3.691406"
         style="fill:url(#linearGradient3838);fill-opacity:1"
         id="path3002"
         inkscape:connector-curvature="0"
         transform="translate(33.41742,6.7738014)" />
      <path
         d="m 121.02344,60.737154 0,-13.242188 3.59375,0 0,13.105469 c -10e-6,2.070319 0.40364,3.626307 1.21094,4.667969 0.80728,1.028649 2.01821,1.542971 3.63281,1.542969 1.94009,2e-6 3.47003,-0.618487 4.58984,-1.855469 1.1328,-1.236974 1.6992,-2.92317 1.69922,-5.058594 l 0,-12.402344 3.59375,0 0,21.875 -3.59375,0 0,-3.359375 c -0.87241,1.328127 -1.88804,2.31771 -3.04688,2.96875 -1.14584,0.638021 -2.48048,0.957031 -4.0039,0.957032 -2.51303,-10e-7 -4.42058,-0.78125 -5.72266,-2.34375 -1.30208,-1.562497 -1.95313,-3.847651 -1.95312,-6.855469 m 9.04297,-13.769531 0,0"
         style="fill:url(#linearGradient3840);fill-opacity:1"
         id="path3004"
         inkscape:connector-curvature="0"
         transform="translate(33.41742,6.7738014)" />
      <path
         d="m 165.49609,57.534029 0,1.757812 -16.52343,0 c 0.15624,2.473966 0.89843,4.361985 2.22656,5.664063 1.34114,1.289066 3.20311,1.933596 5.58594,1.933594 1.38019,2e-6 2.71482,-0.169268 4.0039,-0.507813 1.30207,-0.338538 2.59113,-0.84635 3.86719,-1.523437 l 0,3.398437 c -1.28908,0.546876 -2.6107,0.963542 -3.96484,1.25 -1.35419,0.286458 -2.72788,0.429687 -4.1211,0.429688 -3.48959,-10e-7 -6.25652,-1.015625 -8.30078,-3.046875 -2.03125,-2.031246 -3.04688,-4.778639 -3.04687,-8.242188 -1e-5,-3.580715 0.96353,-6.419253 2.89062,-8.515625 1.9401,-2.109353 4.55077,-3.16404 7.83203,-3.164062 2.94269,2.2e-5 5.26691,0.950542 6.97266,2.851562 1.71873,1.888039 2.5781,4.459651 2.57812,7.714844 m -3.59375,-1.054688 c -0.0261,-1.966131 -0.57944,-3.535139 -1.66015,-4.707031 -1.06773,-1.171856 -2.487,-1.757793 -4.25782,-1.757812 -2.00521,1.9e-5 -3.61329,0.566425 -4.82421,1.699218 -1.19793,1.132829 -1.88803,2.72788 -2.07032,4.785157 l 12.8125,-0.01953"
         style="fill:url(#linearGradient3842);fill-opacity:1"
         id="path3006"
         inkscape:connector-curvature="0"
         transform="translate(33.41742,6.7738014)" />
    </g>
  </g>
</svg>
