<?xml version="1.0" encoding="UTF-8" standalone="no"?>
<!-- Created with Inkscape (http://www.inkscape.org/) -->

<svg
   xmlns:dc="http://purl.org/dc/elements/1.1/"
   xmlns:cc="http://creativecommons.org/ns#"
   xmlns:rdf="http://www.w3.org/1999/02/22-rdf-syntax-ns#"
   xmlns:svg="http://www.w3.org/2000/svg"
   xmlns="http://www.w3.org/2000/svg"
   xmlns:sodipodi="http://sodipodi.sourceforge.net/DTD/sodipodi-0.dtd"
   xmlns:inkscape="http://www.inkscape.org/namespaces/inkscape"
   width="744.09448819"
   height="1052.3622047"
   id="svg2"
   version="1.1"
   inkscape:version="0.48.1 r9760"
   sodipodi:docname="go_far_closer2long.svg">
  <defs
     id="defs4" />
  <sodipodi:namedview
     id="base"
     pagecolor="#ffffff"
     bordercolor="#666666"
     borderopacity="1.0"
     inkscape:pageopacity="0.0"
     inkscape:pageshadow="2"
     inkscape:zoom="0.5"
     inkscape:cx="575"
     inkscape:cy="485.27433"
     inkscape:document-units="px"
     inkscape:current-layer="layer1"
     showgrid="false"
     inkscape:window-width="1280"
     inkscape:window-height="749"
     inkscape:window-x="0"
     inkscape:window-y="24"
     inkscape:window-maximized="1"
     showborder="false" />
  <metadata
     id="metadata7">
    <rdf:RDF>
      <cc:Work
         rdf:about="">
        <dc:format>image/svg+xml</dc:format>
        <dc:type
           rdf:resource="http://purl.org/dc/dcmitype/StillImage" />
        <dc:title></dc:title>
      </cc:Work>
    </rdf:RDF>
  </metadata>
  <g
     inkscape:label="Layer 1"
     inkscape:groupmode="layer"
     id="layer1">
    <rect
       style="fill:#24221c;fill-opacity:1;stroke:none"
       id="rect2985"
       width="4.0375428"
       height="213.44138"
       x="536.48462"
       y="240.22307"
       transform="matrix(0.86831338,0.49601601,-0.49601601,0.86831338,0,0)" />
    <rect
       transform="matrix(-0.86831338,0.49601601,0.49601601,0.86831338,0,0)"
       y="637.03558"
       x="-150.10391"
       height="206"
       width="9"
       id="rect2998"
       style="fill:#24221c;fill-opacity:1;stroke:none" />
    <path
       sodipodi:type="arc"
       style="fill:#24221c;fill-opacity:1;stroke:none"
       id="path3000"
       sodipodi:cx="388.5"
       sodipodi:cy="413.36218"
       sodipodi:rx="41.5"
       sodipodi:ry="39"
       d="m 430,413.36218 a 41.5,39 0 1 1 -83,0 41.5,39 0 1 1 83,0 z"
       transform="matrix(1,0,0,-1,6,826.72437)" />
    <path
       style="fill:#24221c;fill-opacity:1;stroke:none"
       id="path3006"
       d="m 187.55095,544.47163 c -6.1329,1.96218 -13.26487,4.27918 -19.44748,6.21583 -12.35494,3.74541 -25.91084,8.1029 -39.29563,12.3746 -16.67311,5.3388 -32.70035,10.34673 -48.64917,15.31459 -16.12065,5.01929 -31.23932,9.5359 -46.12642,13.93871 -14.672522,4.32712 -29.102538,8.53405 -43.009313,12.48585 -12.98328,3.65934 -26.045901,7.35764 -39.84254,11.41432 -13.390802,4.00182 -27.075003,8.14845 -41.214507,12.52559 -16.86952,5.24898 -33.60805,10.436 -49.11685,15.00292 -18.52648,5.37901 -34.83285,9.68154 -51.68298,14.25126 -17.58438,4.80874 -35.14844,9.60844 -52.5599,14.33421 -15.39219,4.13822 -31.38216,8.56432 -47.44467,13.02479 -14.47621,4.057 -28.00282,7.65933 -40.46178,10.75633 -14.20661,3.41634 -25.4808,5.48159 -36.67606,7.52215 -11.14018,1.99413 -21.35037,3.57083 -31.34798,5.05351 -1.5665,0.2256 -3.13308,0.45126 -4.69959,0.67688 -1.73027,0.44612 35.67424,-17.23571 37.40454,-17.68185 l 0,0 c 1.51653,-0.21001 3.03302,-0.41985 4.54956,-0.62977 9.61521,-1.37416 19.44598,-2.84351 30.21199,-4.732 10.354,-1.84583 20.79452,-3.72181 33.79852,-6.77532 11.56664,-2.81552 24.22404,-6.14506 37.80497,-9.91587 16.03415,-4.41677 32.20532,-8.89974 47.59559,-13.00753 17.43306,-4.73923 34.67124,-9.38562 52.45347,-14.29236 16.4385,-4.49438 32.05552,-8.58921 49.79264,-13.71096 14.553196,-4.23473 30.667449,-9.25691 46.805141,-14.28501 15.04249,-4.69951 29.436326,-9.07226 43.591655,-13.32536 14.305104,-4.22539 27.83859,-8.07526 41.185724,-11.83212 13.27541,-3.73103 27.27261,-7.81491 41.38146,-11.95339 14.35582,-4.25605 28.55915,-8.43575 43.96001,-13.21271 15.42824,-4.79142 31.01114,-9.6617 47.19371,-14.83919 14.02041,-4.50487 28.24792,-9.11382 41.45444,-13.19981 5.76012,-1.7579 12.10081,-3.81686 19.21196,-6.28753 2.75688,-0.93899 -24.06368,13.85027 -26.82051,14.78924 z"
       inkscape:connector-curvature="0" />
    <g
       id="g3094"
       transform="translate(58,58)">
      <path
         style="fill:#666666;fill-opacity:1;stroke:none"
         id="path3029"
         d="m 557.65372,500.1221 c 7.20354,2.18051 15.58054,4.75535 22.84249,6.9075 14.51178,4.1622 30.43417,9.00458 46.15558,13.75161 19.5838,5.93287 38.40895,11.49809 57.14201,17.01876 18.93487,5.57781 36.69286,10.59703 54.17884,15.48975 17.23396,4.80865 34.18306,9.48371 50.51759,13.87524 15.24981,4.06654 30.59281,8.17638 46.79797,12.68449 15.72847,4.44712 31.80158,9.05514 48.40946,13.91939 19.81448,5.83306 39.47509,11.59728 57.69131,16.67238 21.76071,5.97759 40.91374,10.75889 60.70543,15.8371 20.6542,5.34384 41.2844,10.67766 61.7355,15.92928 18.0793,4.5987 36.8605,9.51732 55.7271,14.47415 17.0034,4.50844 32.8915,8.51165 47.5255,11.95325 16.6867,3.79651 29.929,6.09158 43.0786,8.35921 13.085,2.21604 25.0776,3.96818 36.8206,5.61584 1.8399,0.25071 3.68,0.50148 5.5199,0.75219 2.0324,0.49578 -41.902,-19.15363 -43.9343,-19.64941 l 0,0 c -1.7813,-0.23329 -3.5626,-0.46659 -5.3439,-0.69986 -11.2937,-1.52706 -22.8406,-3.15992 -35.4861,-5.25856 -12.1615,-2.05121 -24.4247,-4.13596 -39.6988,-7.52925 -13.5859,-3.12881 -28.453,-6.82888 -44.4048,-11.01928 -18.8332,-4.90824 -37.8274,-9.89008 -55.9045,-14.45496 -20.4764,-5.2666 -40.72386,-10.43002 -61.61039,-15.88277 -19.30819,-4.9945 -37.65155,-9.54501 -58.48508,-15.23668 -17.0938,-4.70596 -36.02117,-10.28698 -54.97607,-15.87461 -17.66849,-5.22246 -34.57511,-10.08178 -51.20158,-14.80815 -16.80239,-4.69557 -32.69845,-8.97385 -48.37564,-13.14878 -15.59295,-4.14619 -32.03367,-8.6845 -48.60556,-13.28352 -16.86195,-4.72966 -33.5448,-9.37446 -51.63422,-14.68298 -18.12159,-5.32459 -36.42487,-10.73682 -55.43247,-16.49045 -16.46799,-5.00615 -33.17926,-10.12796 -48.69126,-14.66865 -6.76569,-1.95351 -14.2133,-4.24157 -22.56587,-6.98717 -3.23814,-1.04347 28.26457,15.39149 31.50266,16.43494 z"
         inkscape:connector-curvature="0" />
    </g>
  </g>
</svg>
