<?xml version="1.0" encoding="UTF-8" standalone="no"?>
<!-- Created with Inkscape (http://www.inkscape.org/) -->

<svg
   xmlns:dc="http://purl.org/dc/elements/1.1/"
   xmlns:cc="http://creativecommons.org/ns#"
   xmlns:rdf="http://www.w3.org/1999/02/22-rdf-syntax-ns#"
   xmlns:svg="http://www.w3.org/2000/svg"
   xmlns="http://www.w3.org/2000/svg"
   xmlns:sodipodi="http://sodipodi.sourceforge.net/DTD/sodipodi-0.dtd"
   xmlns:inkscape="http://www.inkscape.org/namespaces/inkscape"
   width="744.09448819"
   height="1052.3622047"
   id="svg2"
   version="1.1"
   inkscape:version="0.48.1 r9760"
   sodipodi:docname="go_far_closer2between.svg">
  <defs
     id="defs4" />
  <sodipodi:namedview
     id="base"
     pagecolor="#ffffff"
     bordercolor="#666666"
     borderopacity="1.0"
     inkscape:pageopacity="0.0"
     inkscape:pageshadow="2"
     inkscape:zoom="0.3"
     inkscape:cx="281.66667"
     inkscape:cy="-21.251007"
     inkscape:document-units="px"
     inkscape:current-layer="g4621"
     showgrid="false"
     inkscape:window-width="1280"
     inkscape:window-height="749"
     inkscape:window-x="0"
     inkscape:window-y="24"
     inkscape:window-maximized="1"
     showborder="false" />
  <metadata
     id="metadata7">
    <rdf:RDF>
      <cc:Work
         rdf:about="">
        <dc:format>image/svg+xml</dc:format>
        <dc:type
           rdf:resource="http://purl.org/dc/dcmitype/StillImage" />
        <dc:title></dc:title>
      </cc:Work>
    </rdf:RDF>
  </metadata>
  <g
     inkscape:label="Layer 1"
     inkscape:groupmode="layer"
     id="layer1">
    <rect
       style="fill:#24221c;fill-opacity:1;stroke:none"
       id="rect2985"
       width="4.0375428"
       height="213.44138"
       x="536.48462"
       y="240.22307"
       transform="matrix(0.86831338,0.49601601,-0.49601601,0.86831338,0,0)" />
    <rect
       transform="matrix(-0.86831338,0.49601601,0.49601601,0.86831338,0,0)"
       y="637.03558"
       x="-150.10391"
       height="206"
       width="9"
       id="rect2998"
       style="fill:#24221c;fill-opacity:1;stroke:none" />
    <path
       sodipodi:type="arc"
       style="fill:#24221c;fill-opacity:1;stroke:none"
       id="path3000"
       sodipodi:cx="388.5"
       sodipodi:cy="413.36218"
       sodipodi:rx="41.5"
       sodipodi:ry="39"
       d="m 430,413.36218 a 41.5,39 0 1 1 -83,0 41.5,39 0 1 1 83,0 z"
       transform="matrix(1,0,0,-1,6,826.72437)" />
    <path
       style="fill:#24221c;fill-opacity:1;stroke:none"
       id="path3006"
       d="m 159.27167,497.81682 c -3.96608,3.901 -8.56567,8.48551 -12.5787,12.36153 -8.06393,7.57533 -16.82309,16.22574 -25.48269,24.72491 -10.78075,10.61131 -21.18821,20.64213 -31.550319,30.60262 -10.474491,10.06493 -20.366086,19.24383 -30.122119,28.22118 -9.619782,8.83127 -19.097962,17.45009 -28.269112,25.6163 -8.572864,7.58289 -17.192189,15.23478 -26.242046,23.5223 -8.7606131,8.13178 -17.692763,16.51975 -26.889035,25.31319 -10.962318,10.52775 -21.847094,20.94479 -32.017609,30.27007 -12.17682,11.03526 -23.048773,20.15827 -34.239066,29.75445 -11.663647,10.06883 -23.315064,20.12127 -34.876774,30.04233 -10.23495,8.71657 -20.82196,17.94535 -31.4519,27.2355 -9.56691,8.42325 -18.57363,16.03647 -26.94842,22.74694 -9.59067,7.4946 -17.43251,12.56005 -25.22312,17.57608 -7.76528,4.94164 -14.97198,9.12801 -22.05051,13.14364 -1.11151,0.62003 -2.22307,1.24015 -3.33458,1.8602 -1.15735,0.95382 20.9897,-30.64291 22.14706,-31.59674 l 0,0 c 1.07906,-0.5888 2.15815,-1.17733 3.23724,-1.766 6.82629,-3.79127 13.78261,-7.75548 21.30089,-12.47834 7.21998,-4.58255 14.49502,-9.22352 23.30015,-15.98313 7.7963,-6.14838 16.23902,-13.21596 25.22686,-21.07009 10.62397,-9.22482 21.32855,-18.56733 31.57293,-27.24196 11.573335,-9.94377 23.03154,-19.72193 34.810736,-29.96399 10.903951,-9.41134 21.325517,-18.11341 32.993555,-28.64015 9.561989,-8.68131 20.030578,-18.74893 30.5148945,-28.82928 9.7682598,-9.41354 19.1596535,-18.25162 28.4122945,-26.87881 9.376524,-8.61916 18.300017,-16.57184 27.114935,-24.36035 8.769561,-7.73898 17.962331,-16.10357 27.220559,-24.56496 9.404164,-8.67114 18.719556,-17.20764 28.732866,-26.7983 10.02899,-9.61585 20.14749,-19.3702 30.61257,-29.66353 9.06,-8.94419 18.24042,-18.07175 26.83071,-26.2818 3.75538,-3.54776 7.845,-7.6223 12.37384,-12.41255 1.76249,-1.83135 -13.36363,23.70742 -15.12609,25.53874 z"
       inkscape:connector-curvature="0" />
    <g
       id="g3094"
       transform="matrix(0.65741126,0.13402246,-0.20119672,1.4736189,363.04413,-286.5379)">
      <path
         style="fill:#666666;fill-opacity:1;stroke:none"
         id="path3029"
         d="m 557.65372,500.1221 c 7.20354,2.18051 15.58054,4.75535 22.84249,6.9075 14.51178,4.1622 30.43417,9.00458 46.15558,13.75161 19.5838,5.93287 38.40895,11.49809 57.14201,17.01876 18.93487,5.57781 36.69286,10.59703 54.17884,15.48975 17.23396,4.80865 34.18306,9.48371 50.51759,13.87524 15.24981,4.06654 30.59281,8.17638 46.79797,12.68449 15.72847,4.44712 31.80158,9.05514 48.40946,13.91939 19.81448,5.83306 39.47509,11.59728 57.69131,16.67238 21.76071,5.97759 40.91374,10.75889 60.70543,15.8371 20.6542,5.34384 41.2844,10.67766 61.7355,15.92928 18.0793,4.5987 36.8605,9.51732 55.7271,14.47415 17.0034,4.50844 32.8915,8.51165 47.5255,11.95325 16.6867,3.79651 29.929,6.09158 43.0786,8.35921 13.085,2.21604 25.0776,3.96818 36.8206,5.61584 1.8399,0.25071 3.68,0.50148 5.5199,0.75219 2.0324,0.49578 -41.902,-19.15363 -43.9343,-19.64941 l 0,0 c -1.7813,-0.23329 -3.5626,-0.46659 -5.3439,-0.69986 -11.2937,-1.52706 -22.8406,-3.15992 -35.4861,-5.25856 -12.1615,-2.05121 -24.4247,-4.13596 -39.6988,-7.52925 -13.5859,-3.12881 -28.453,-6.82888 -44.4048,-11.01928 -18.8332,-4.90824 -37.8274,-9.89008 -55.9045,-14.45496 -20.4764,-5.2666 -40.72386,-10.43002 -61.61039,-15.88277 -19.30819,-4.9945 -37.65155,-9.54501 -58.48508,-15.23668 -17.0938,-4.70596 -36.02117,-10.28698 -54.97607,-15.87461 -17.66849,-5.22246 -34.57511,-10.08178 -51.20158,-14.80815 -16.80239,-4.69557 -32.69845,-8.97385 -48.37564,-13.14878 -15.59295,-4.14619 -32.03367,-8.6845 -48.60556,-13.28352 -16.86195,-4.72966 -33.5448,-9.37446 -51.63422,-14.68298 -18.12159,-5.32459 -36.42487,-10.73682 -55.43247,-16.49045 -16.46799,-5.00615 -33.17926,-10.12796 -48.69126,-14.66865 -6.76569,-1.95351 -14.2133,-4.24157 -22.56587,-6.98717 -3.23814,-1.04347 28.26457,15.39149 31.50266,16.43494 z"
         inkscape:connector-curvature="0" />
    </g>
    <g
       id="g4621"
       transform="matrix(0.23089812,0,0,0.13389796,750.01765,1217.184)">
      <path
         style="fill:#241f1c;fill-opacity:1;stroke:none"
         d="m -1729.233,-4033.3253 c -124.9081,909.7108 -312.7107,1795.121 -395.6255,2720.9307 103.5748,-497.0766 148.6098,-1018.2379 233.7104,-1523.0022 57.9286,-405.6343 113.6775,-812.1348 164.8485,-1220.3659 -0.9778,7.4792 -1.9556,14.9583 -2.9334,22.4374 z m -499.3358,3525.5835 c -7.694,65.26523 -15.3924,145.66926 -20.3006,202.30501 7.9133,-77.08795 18.302,-153.31908 23.8617,-231.22313 -1.1871,9.63935 -2.3741,19.27873 -3.5611,28.91812 z"
         id="path4605"
         inkscape:connector-curvature="0"
         sodipodi:nodetypes="ccc" />
      <path
         sodipodi:nodetypes="ccc"
         inkscape:connector-curvature="0"
         id="path8563"
         d="m -1293.1347,-4033.3253 c 124.9081,909.7108 312.71069,1795.121 395.62548,2720.9307 -103.57478,-497.0766 -148.60978,-1018.2379 -233.71038,-1523.0022 -57.9286,-405.6343 -113.6775,-812.1348 -164.8485,-1220.3659 0.9778,7.4792 1.9556,14.9583 2.9334,22.4374 z m 499.33577,3525.5835 c 7.694,65.26523 15.3924,145.66926 20.3006,202.30501 -7.9133,-77.08795 -18.302,-153.31908 -23.8617,-231.22313 1.1871,9.63935 2.3741,19.27873 3.5611,28.91812 z"
         style="fill:#241f1c;fill-opacity:1;stroke:none" />
    </g>
  </g>
</svg>
