<?xml version="1.0" encoding="UTF-8" standalone="no"?>
<!-- Created with Inkscape (http://www.inkscape.org/) -->

<svg
   xmlns:dc="http://purl.org/dc/elements/1.1/"
   xmlns:cc="http://creativecommons.org/ns#"
   xmlns:rdf="http://www.w3.org/1999/02/22-rdf-syntax-ns#"
   xmlns:svg="http://www.w3.org/2000/svg"
   xmlns="http://www.w3.org/2000/svg"
   xmlns:sodipodi="http://sodipodi.sourceforge.net/DTD/sodipodi-0.dtd"
   xmlns:inkscape="http://www.inkscape.org/namespaces/inkscape"
   width="744.09448819"
   height="1052.3622047"
   id="svg2"
   version="1.1"
   inkscape:version="0.48.1 r9760"
   sodipodi:docname="New document 1">
  <defs
     id="defs4" />
  <sodipodi:namedview
     id="base"
     pagecolor="#ffffff"
     bordercolor="#666666"
     borderopacity="1.0"
     inkscape:pageopacity="0.0"
     inkscape:pageshadow="2"
     inkscape:zoom="1"
     inkscape:cx="575"
     inkscape:cy="440"
     inkscape:document-units="px"
     inkscape:current-layer="layer1"
     showgrid="false"
     inkscape:window-width="1280"
     inkscape:window-height="749"
     inkscape:window-x="0"
     inkscape:window-y="24"
     inkscape:window-maximized="1" />
  <metadata
     id="metadata7">
    <rdf:RDF>
      <cc:Work
         rdf:about="">
        <dc:format>image/svg+xml</dc:format>
        <dc:type
           rdf:resource="http://purl.org/dc/dcmitype/StillImage" />
        <dc:title></dc:title>
      </cc:Work>
    </rdf:RDF>
  </metadata>
  <g
     inkscape:label="Layer 1"
     inkscape:groupmode="layer"
     id="layer1">
    <rect
       style="fill:#24221c;fill-opacity:1;stroke:none"
       id="rect2985"
       width="9"
       height="206"
       x="528.04889"
       y="249.64851"
       transform="matrix(0.86831338,0.49601601,-0.49601601,0.86831338,0,0)" />
    <rect
       transform="matrix(-0.86831338,0.49601601,0.49601601,0.86831338,0,0)"
       y="635.05157"
       x="-146.63065"
       height="206"
       width="9"
       id="rect2998"
       style="fill:#24221c;fill-opacity:1;stroke:none" />
    <path
       sodipodi:type="arc"
       style="fill:#24221c;fill-opacity:1;stroke:none"
       id="path3000"
       sodipodi:cx="388.5"
       sodipodi:cy="413.36218"
       sodipodi:rx="41.5"
       sodipodi:ry="39"
       d="m 430,413.36218 a 41.5,39 0 1 1 -83,0 41.5,39 0 1 1 83,0 z"
       transform="matrix(1,0,0,-1,2,826.72437)" />
    <path
       style="fill:#24221c;fill-opacity:1;stroke:none"
       id="path3006"
       d="m 307.66192,751.40219 c -1.5271,1.14487 -3.22175,2.49236 -4.85676,3.62755 -3.55504,2.21141 -6.88336,4.75133 -10.24071,7.24509 -4.1415,3.11449 -8.40874,6.05155 -12.6911,8.9671 -4.33325,2.94601 -8.83724,5.62159 -13.37523,8.23576 -4.50076,2.57089 -9.0395,5.077 -13.65032,7.44527 -4.37396,2.19725 -8.73633,4.41553 -12.9964,6.8274 -3.98601,2.37044 -7.9276,4.81896 -11.7867,7.39134 -4.54261,3.08127 -9.09886,6.1289 -13.87198,8.84319 -5.87836,3.2074 -12.04889,5.8327 -18.13972,8.60218 -6.26419,2.90843 -12.52911,5.81191 -18.81408,8.67539 -5.64713,2.51333 -11.22017,5.18248 -16.7855,7.87029 -4.93025,2.43933 -9.9721,4.63233 -15.12609,6.55101 -6.14227,2.13518 -12.5072,3.53387 -18.85117,4.91809 -6.39673,1.36076 -12.83846,2.49302 -19.2874,3.57366 -1.02593,0.16626 -2.05186,0.33253 -3.0778,0.49879 -0.67875,0.27381 -4.551125,-9.32524 -3.87237,-9.59905 l 0,0 c 1.01278,-0.15707 2.02556,-0.31413 3.03835,-0.47119 6.32178,-1.0156 12.63667,-2.08346 18.90777,-3.38079 5.96278,-1.26124 11.94138,-2.53979 17.73372,-4.46049 4.92243,-1.75397 9.73563,-3.78713 14.4424,-6.05944 5.63818,-2.66664 11.25885,-5.36913 16.97434,-7.86844 6.27516,-2.87053 12.57219,-5.69071 18.80557,-8.65196 5.85828,-2.71845 11.82747,-5.22095 17.5202,-8.27883 4.59612,-2.5238 8.91648,-5.47086 13.24625,-8.42159 4.00677,-2.75626 8.12713,-5.33684 12.28811,-7.85305 4.37279,-2.50955 8.85029,-4.81615 13.35839,-7.07268 4.497,-2.24181 8.89229,-4.67419 13.27185,-7.13606 4.35212,-2.52563 8.72985,-5.01016 12.91172,-7.81628 4.17548,-2.81385 8.32176,-5.67001 12.35111,-8.69095 3.44686,-2.62606 6.85801,-5.3081 10.46782,-7.70968 1.63042,-1.03636 3.13932,-2.2339 4.45886,-3.65091 0.55503,-0.54072 8.2019,7.30857 7.64687,7.84928 z"
       inkscape:connector-curvature="0" />
    <path
       style="fill:#24221c;fill-opacity:1;stroke:none"
       id="path3008"
       d="m 485.51606,767.44079 c 3.53417,1.7286 7.10481,3.38325 10.67554,5.036 8.46628,3.83867 16.6616,8.23777 24.85345,12.62258 9.91819,5.33076 19.70436,10.88768 29.27597,16.81832 8.65094,5.4658 17.50392,10.59727 26.43766,15.58358 8.28999,4.66668 17.04322,8.40263 25.77804,12.13549 10.9937,4.69564 22.07605,9.18457 33.2539,13.42304 12.41752,4.77756 24.91179,9.35182 37.35572,14.05902 10.97122,4.14487 21.9998,8.13609 33.0224,12.14164 10.24018,3.89536 20.52009,7.6602 30.9434,11.03787 10.23547,3.24143 20.62711,5.95324 31.03781,8.56431 0.62776,0.3115 -3.77748,9.18934 -4.40524,8.87785 l 0,0 c -10.56155,-2.72508 -21.10219,-5.55364 -31.49181,-8.88404 -10.49851,-3.4524 -20.85962,-7.27702 -31.19734,-11.18211 -11.02184,-4.06317 -22.03476,-8.15224 -33.00374,-12.35636 -12.42724,-4.73034 -24.88072,-9.39188 -37.32124,-14.08722 -11.31014,-4.24888 -22.55484,-8.66909 -33.69707,-13.34245 -9.04722,-3.80607 -18.07447,-7.70753 -26.58537,-12.63041 -8.97164,-5.1196 -17.85645,-10.38892 -26.58425,-15.91601 -9.43356,-5.79977 -19.05454,-11.28012 -28.85061,-16.44637 -8.10173,-4.1962 -16.21914,-8.39356 -24.65345,-11.89216 -1.76287,-0.73803 -3.59802,-1.51259 -5.37341,-2.23422 -0.61818,-0.25127 -3.34559,-1.63325 -4.08716,-1.39327 -0.70252,-0.32646 3.91429,-10.26153 4.6168,-9.93508 z"
       inkscape:connector-curvature="0" />
  </g>
</svg>
