<?xml version="1.0" encoding="UTF-8" standalone="no"?>
<!-- Created with Inkscape (http://www.inkscape.org/) -->

<svg
   xmlns:dc="http://purl.org/dc/elements/1.1/"
   xmlns:cc="http://creativecommons.org/ns#"
   xmlns:rdf="http://www.w3.org/1999/02/22-rdf-syntax-ns#"
   xmlns:svg="http://www.w3.org/2000/svg"
   xmlns="http://www.w3.org/2000/svg"
   xmlns:sodipodi="http://sodipodi.sourceforge.net/DTD/sodipodi-0.dtd"
   xmlns:inkscape="http://www.inkscape.org/namespaces/inkscape"
   width="744.09448819"
   height="1052.3622047"
   id="svg2"
   version="1.1"
   inkscape:version="0.48.1 r9760"
   sodipodi:docname="go_far_closer7.svg">
  <defs
     id="defs4" />
  <sodipodi:namedview
     id="base"
     pagecolor="#ffffff"
     bordercolor="#666666"
     borderopacity="1.0"
     inkscape:pageopacity="0.0"
     inkscape:pageshadow="2"
     inkscape:zoom="0.3"
     inkscape:cx="415"
     inkscape:cy="378.74899"
     inkscape:document-units="px"
     inkscape:current-layer="layer1"
     showgrid="false"
     inkscape:window-width="807"
     inkscape:window-height="600"
     inkscape:window-x="424"
     inkscape:window-y="154"
     inkscape:window-maximized="0"
     showborder="false" />
  <metadata
     id="metadata7">
    <rdf:RDF>
      <cc:Work
         rdf:about="">
        <dc:format>image/svg+xml</dc:format>
        <dc:type
           rdf:resource="http://purl.org/dc/dcmitype/StillImage" />
        <dc:title></dc:title>
      </cc:Work>
    </rdf:RDF>
  </metadata>
  <g
     inkscape:label="Layer 1"
     inkscape:groupmode="layer"
     id="layer1">
    <rect
       style="fill:#24221c;fill-opacity:1;stroke:none"
       id="rect2985"
       width="4.0375428"
       height="213.44138"
       x="536.48462"
       y="240.22307"
       transform="matrix(0.86831338,0.49601601,-0.49601601,0.86831338,0,0)" />
    <rect
       transform="matrix(-0.86831338,0.49601601,0.49601601,0.86831338,0,0)"
       y="637.03558"
       x="-150.10391"
       height="206"
       width="9"
       id="rect2998"
       style="fill:#24221c;fill-opacity:1;stroke:none" />
    <path
       sodipodi:type="arc"
       style="fill:#24221c;fill-opacity:1;stroke:none"
       id="path3000"
       sodipodi:cx="388.5"
       sodipodi:cy="413.36218"
       sodipodi:rx="41.5"
       sodipodi:ry="39"
       d="m 430,413.36218 a 41.5,39 0 1 1 -83,0 41.5,39 0 1 1 83,0 z"
       transform="matrix(1,0,0,-1,6,826.72437)" />
    <path
       style="fill:#24221c;fill-opacity:1;stroke:none"
       id="path3006"
       d="m 175.39118,185.12404 c -4.97405,2.98389 -10.74261,6.49061 -15.77554,9.45539 -10.11336,5.79441 -21.09863,12.41115 -31.95905,18.91221 -13.52064,8.11664 -26.57313,15.78926 -39.568742,23.40809 -13.136554,7.69871 -25.54207,14.7197 -37.777572,21.58652 -12.064623,6.75508 -23.951656,13.34765 -35.453628,19.59403 -10.751634,5.80019 -21.561536,11.65315 -32.911389,17.99232 -10.987099,6.22004 -22.18933,12.63604 -33.722809,19.36218 -13.74836,8.05273 -27.399472,16.02077 -40.1548,23.15372 -15.27152,8.44093 -28.90655,15.41916 -42.94082,22.75933 -14.62794,7.70169 -29.24053,15.39085 -43.74061,22.97952 -12.83614,6.66735 -26.11381,13.72649 -39.44532,20.83257 -11.99831,6.44298 -23.29406,12.26637 -33.79728,17.39924 -12.02812,5.73266 -21.86294,9.60724 -31.63351,13.44403 -9.7388,3.77988 -18.77707,6.98206 -27.65458,10.05363 -1.394,0.47427 -2.78806,0.9486 -4.18206,1.42288 -1.45149,0.72958 26.32418,-23.43891 27.77567,-24.1685 l 0,0 c 1.3533,-0.45038 2.70664,-0.90055 4.05998,-1.35082 8.56117,-2.89996 17.28542,-5.93221 26.71445,-9.54474 9.05492,-3.50522 18.17889,-7.05512 29.22182,-12.22558 9.77771,-4.70292 20.36612,-10.10895 31.6382,-16.11661 13.32402,-7.05611 26.74914,-14.20224 39.5971,-20.83751 14.51467,-7.60604 28.88494,-15.0854 43.65779,-22.9196 13.67516,-7.19878 26.74534,-13.85504 41.378773,-21.90699 11.992142,-6.64038 25.121294,-14.34115 38.27017,-22.05166 12.250836,-7.20046 24.029026,-13.96075 35.6332,-20.55973 11.759542,-6.59284 22.950916,-12.67588 34.006121,-18.63335 10.99832,-5.91958 22.527407,-12.3177 34.138588,-18.78985 11.794206,-6.6326 23.477079,-13.16221 36.035248,-20.49815 12.57783,-7.35521 25.26792,-14.81636 38.39267,-22.68978 11.36257,-6.84146 22.87617,-13.82317 33.64966,-20.10308 4.7098,-2.7137 9.83878,-5.83033 15.51861,-9.49442 2.21043,-1.40081 -16.75996,18.13392 -18.97034,19.53471 z"
       inkscape:connector-curvature="0" />
    <g
       id="g3094"
       transform="matrix(0.88780296,0.10779127,-0.2717067,1.1851988,295.97975,-439.91705)">
      <path
         style="fill:#666666;fill-opacity:1;stroke:none"
         id="path3029"
         d="m 557.65372,500.1221 c 7.20354,2.18051 15.58054,4.75535 22.84249,6.9075 14.51178,4.1622 30.43417,9.00458 46.15558,13.75161 19.5838,5.93287 38.40895,11.49809 57.14201,17.01876 18.93487,5.57781 36.69286,10.59703 54.17884,15.48975 17.23396,4.80865 34.18306,9.48371 50.51759,13.87524 15.24981,4.06654 30.59281,8.17638 46.79797,12.68449 15.72847,4.44712 31.80158,9.05514 48.40946,13.91939 19.81448,5.83306 39.47509,11.59728 57.69131,16.67238 21.76071,5.97759 40.91374,10.75889 60.70543,15.8371 20.6542,5.34384 41.2844,10.67766 61.7355,15.92928 18.0793,4.5987 36.8605,9.51732 55.7271,14.47415 17.0034,4.50844 32.8915,8.51165 47.5255,11.95325 16.6867,3.79651 29.929,6.09158 43.0786,8.35921 13.085,2.21604 25.0776,3.96818 36.8206,5.61584 1.8399,0.25071 3.68,0.50148 5.5199,0.75219 2.0324,0.49578 -41.902,-19.15363 -43.9343,-19.64941 l 0,0 c -1.7813,-0.23329 -3.5626,-0.46659 -5.3439,-0.69986 -11.2937,-1.52706 -22.8406,-3.15992 -35.4861,-5.25856 -12.1615,-2.05121 -24.4247,-4.13596 -39.6988,-7.52925 -13.5859,-3.12881 -28.453,-6.82888 -44.4048,-11.01928 -18.8332,-4.90824 -37.8274,-9.89008 -55.9045,-14.45496 -20.4764,-5.2666 -40.72386,-10.43002 -61.61039,-15.88277 -19.30819,-4.9945 -37.65155,-9.54501 -58.48508,-15.23668 -17.0938,-4.70596 -36.02117,-10.28698 -54.97607,-15.87461 -17.66849,-5.22246 -34.57511,-10.08178 -51.20158,-14.80815 -16.80239,-4.69557 -32.69845,-8.97385 -48.37564,-13.14878 -15.59295,-4.14619 -32.03367,-8.6845 -48.60556,-13.28352 -16.86195,-4.72966 -33.5448,-9.37446 -51.63422,-14.68298 -18.12159,-5.32459 -36.42487,-10.73682 -55.43247,-16.49045 -16.46799,-5.00615 -33.17926,-10.12796 -48.69126,-14.66865 -6.76569,-1.95351 -14.2133,-4.24157 -22.56587,-6.98717 -3.23814,-1.04347 28.26457,15.39149 31.50266,16.43494 z"
         inkscape:connector-curvature="0" />
    </g>
    <g
       id="g4621"
       transform="matrix(0.23089812,0,0,0.13389796,750.01765,1217.184)">
      <path
         style="fill:#241f1c;fill-opacity:1;stroke:none"
         d="m -1729.233,-4033.3253 c -124.9081,909.7108 -312.7107,1795.121 -395.6255,2720.9307 103.5748,-497.0766 148.6098,-1018.2379 233.7104,-1523.0022 57.9286,-405.6343 113.6775,-812.1348 164.8485,-1220.3659 -0.9778,7.4792 -1.9556,14.9583 -2.9334,22.4374 z m -499.3358,3525.5835 c -7.694,65.26523 -15.3924,145.66926 -20.3006,202.30501 7.9133,-77.08795 18.302,-153.31908 23.8617,-231.22313 -1.1871,9.63935 -2.3741,19.27873 -3.5611,28.91812 z"
         id="path4605"
         inkscape:connector-curvature="0"
         sodipodi:nodetypes="ccc" />
      <path
         sodipodi:nodetypes="ccc"
         inkscape:connector-curvature="0"
         id="path8563"
         d="m -1293.1347,-4033.3253 c 124.9081,909.7108 312.71069,1795.121 395.62548,2720.9307 -103.57478,-497.0766 -148.60978,-1018.2379 -233.71038,-1523.0022 -57.9286,-405.6343 -113.6775,-812.1348 -164.8485,-1220.3659 0.9778,7.4792 1.9556,14.9583 2.9334,22.4374 z m 499.33577,3525.5835 c 7.694,65.26523 15.3924,145.66926 20.3006,202.30501 -7.9133,-77.08795 -18.302,-153.31908 -23.8617,-231.22313 1.1871,9.63935 2.3741,19.27873 3.5611,28.91812 z"
         style="fill:#241f1c;fill-opacity:1;stroke:none" />
    </g>
  </g>
</svg>
