<?xml version="1.0" encoding="UTF-8" standalone="no"?>
<!-- Created with Inkscape (http://www.inkscape.org/) -->

<svg
   xmlns:dc="http://purl.org/dc/elements/1.1/"
   xmlns:cc="http://creativecommons.org/ns#"
   xmlns:rdf="http://www.w3.org/1999/02/22-rdf-syntax-ns#"
   xmlns:svg="http://www.w3.org/2000/svg"
   xmlns="http://www.w3.org/2000/svg"
   xmlns:sodipodi="http://sodipodi.sourceforge.net/DTD/sodipodi-0.dtd"
   xmlns:inkscape="http://www.inkscape.org/namespaces/inkscape"
   width="744.09448819"
   height="1052.3622047"
   id="svg2"
   version="1.1"
   inkscape:version="0.47+devel r9455"
   sodipodi:docname="igabe2010may31-0045.svg">
  <defs
     id="defs4">
    <marker
       inkscape:stockid="Arrow1Lstart"
       orient="auto"
       refY="0.0"
       refX="0.0"
       id="Arrow1Lstart"
       style="overflow:visible">
      <path
         id="path3995"
         d="M 0.0,0.0 L 5.0,-5.0 L -12.5,0.0 L 5.0,5.0 L 0.0,0.0 z "
         style="fill-rule:evenodd;stroke:#000000;stroke-width:1.0pt;marker-start:none"
         transform="scale(0.8) translate(12.5,0)" />
    </marker>
  </defs>
  <sodipodi:namedview
     id="base"
     pagecolor="#ffffff"
     bordercolor="#666666"
     borderopacity="1.0"
     inkscape:pageopacity="0.0"
     inkscape:pageshadow="2"
     inkscape:zoom="1"
     inkscape:cx="320.7635"
     inkscape:cy="815"
     inkscape:document-units="px"
     inkscape:current-layer="layer1"
     showgrid="false"
     inkscape:window-width="1276"
     inkscape:window-height="756"
     inkscape:window-x="0"
     inkscape:window-y="0"
     inkscape:window-maximized="0" />
  <metadata
     id="metadata7">
    <rdf:RDF>
      <cc:Work
         rdf:about="">
        <dc:format>image/svg+xml</dc:format>
        <dc:type
           rdf:resource="http://purl.org/dc/dcmitype/StillImage" />
        <dc:title></dc:title>
      </cc:Work>
    </rdf:RDF>
  </metadata>
  <g
     inkscape:label="Layer 1"
     inkscape:groupmode="layer"
     id="layer1">
    <rect
       id="rect2955"
       width="311.23727"
       height="108.6673"
       x="72.881363"
       y="1.2111977"
       style="fill:none;stroke:#000000;stroke-width:0.33824775;stroke-opacity:1" />
    <rect
       style="fill:none;stroke:#000000;stroke-width:0.33824775;stroke-opacity:1"
       y="121.2112"
       x="72.881363"
       height="108.6673"
       width="311.23727"
       id="rect3733" />
    <rect
       id="rect3735"
       width="311.23727"
       height="108.6673"
       x="72.881363"
       y="241.21118"
       style="fill:none;stroke:#000000;stroke-width:0.33824775;stroke-opacity:1" />
    <g
       id="g3765"
       style="fill:#000e26;fill-opacity:1;stroke:#237887;stroke-opacity:1;stroke-width:3;stroke-miterlimit:4;stroke-dasharray:none;stroke-linejoin:round;stroke-linecap:butt">
      <path
         style="fill:#000e26;fill-opacity:1;stroke:#237887;stroke-width:3;stroke-linecap:butt;stroke-linejoin:round;stroke-miterlimit:4;stroke-opacity:1;stroke-dasharray:none"
         d="M 80.500527,54.844142 C 84.811073,46.61045 89.265785,13.97448 99.485139,36.614835 99.520862,46.512479 89.581127,53.788738 80.500527,54.844142 z"
         id="path3739"
         inkscape:connector-curvature="0" />
      <path
         style="fill:#000e26;fill-opacity:1;stroke:#237887;stroke-width:3;stroke-linecap:butt;stroke-linejoin:round;stroke-miterlimit:4;stroke-opacity:1;stroke-dasharray:none"
         d="m 147.57719,40.632598 c -8.41199,23.464949 -54.46056,15.348417 -40.68967,-11.75138 4.25541,-15.020537 41.68087,-13.749802 28.79073,1.632157 -9.60966,0.596025 -26.29536,-9.341419 -15.77049,8.303692 9.87251,13.106338 17.47015,8.188613 27.66943,1.815531 z"
         id="path3741"
         inkscape:connector-curvature="0" />
      <path
         style="fill:#000e26;fill-opacity:1;stroke:#237887;stroke-width:3;stroke-linecap:butt;stroke-linejoin:round;stroke-miterlimit:4;stroke-opacity:1;stroke-dasharray:none"
         d="m 150.6182,18.468511 c -6.47828,25.990663 11.86169,61.495759 -14.44746,79.993798 -9.7676,10.236441 -34.53487,-4.48199 -14.14866,-9.302478 24.5843,17.645279 13.78851,-32.3151 14.16897,-46.697053 -1.01116,-11.127265 2.57785,-20.994832 14.42715,-23.994267 z"
         id="path3743"
         inkscape:connector-curvature="0" />
      <path
         style="fill:#000e26;fill-opacity:1;stroke:#237887;stroke-width:3;stroke-linecap:butt;stroke-linejoin:round;stroke-miterlimit:4;stroke-opacity:1;stroke-dasharray:none"
         d="m 171.37715,17.732089 c 22.05298,-10.0709143 40.83045,15.740046 42.06238,35.049742 -27.70785,14.023933 -15.67542,-36.78412 -44.60556,-28.475343 -9.10661,1.004221 1.28236,-5.828525 2.54318,-6.574399 z"
         id="path3745"
         inkscape:connector-curvature="0" />
      <path
         style="fill:#000e26;fill-opacity:1;stroke:#237887;stroke-width:3;stroke-linecap:butt;stroke-linejoin:round;stroke-miterlimit:4;stroke-opacity:1;stroke-dasharray:none"
         d="m 174.51233,39.728121 c -8.92543,-6.501707 4.5879,11.845023 14.11869,12.554129 -7.73797,22.115206 -45.84591,-9.132607 -19.09511,-18.353266 7.53349,-4.412089 19.70812,-1.222023 4.97642,5.799137 z"
         id="path3749"
         inkscape:connector-curvature="0" />
      <path
         style="fill:#000e26;fill-opacity:1;stroke:#237887;stroke-width:3;stroke-linecap:butt;stroke-linejoin:round;stroke-miterlimit:4;stroke-opacity:1;stroke-dasharray:none"
         d="M 224.43006,56.872412 C 228.30261,39.946325 216.7027,13.292576 236.80425,4.2712528 239.85302,19.33018 242.15386,50.823025 224.43006,56.872412 z"
         id="path3753"
         inkscape:connector-curvature="0" />
      <path
         style="fill:#000e26;fill-opacity:1;stroke:#237887;stroke-width:3;stroke-linecap:butt;stroke-linejoin:round;stroke-miterlimit:4;stroke-opacity:1;stroke-dasharray:none"
         d="m 236.90771,23.038695 c 21.12608,-9.747841 51.38136,15.238942 22.80907,29.640656 -9.61097,12.245958 -34.42979,-3.120634 -11.18182,-5.190887 22.0314,5.668423 6.58857,-23.3764 -9.47842,-16.655932 -9.67536,-0.861795 -9.12262,-4.585613 -2.14883,-7.793837 z"
         id="path3755"
         inkscape:connector-curvature="0" />
      <path
         style="fill:#000e26;fill-opacity:1;stroke:#237887;stroke-width:3;stroke-linecap:butt;stroke-linejoin:round;stroke-miterlimit:4;stroke-opacity:1;stroke-dasharray:none"
         d="m 291.48767,35.996244 c 10.17864,3.417575 37.2448,-1.09545 11.63017,-1.517837 -9.82499,-2.427577 -22.5915,-6.700869 -13.50277,6.996005 -1.08334,15.112466 41.31777,2.845252 16.66681,14.894257 -17.19446,10.656481 -44.37349,-11.067646 -23.9342,-26.212813 11.81447,-13.551609 57.26068,-6.738972 32.87437,13.13461 -6.26024,1.31226 -55.09397,8.561855 -23.73438,-7.294222 z"
         id="path3763"
         inkscape:connector-curvature="0" />
    </g>
  </g>
</svg>
