<?xml version="1.0" encoding="UTF-8" standalone="no"?>
<!-- Created with Inkscape (http://www.inkscape.org/) -->

<svg
   xmlns:dc="http://purl.org/dc/elements/1.1/"
   xmlns:cc="http://creativecommons.org/ns#"
   xmlns:rdf="http://www.w3.org/1999/02/22-rdf-syntax-ns#"
   xmlns:svg="http://www.w3.org/2000/svg"
   xmlns="http://www.w3.org/2000/svg"
   xmlns:sodipodi="http://sodipodi.sourceforge.net/DTD/sodipodi-0.dtd"
   xmlns:inkscape="http://www.inkscape.org/namespaces/inkscape"
   width="744.09448819"
   height="1052.3622047"
   id="svg2"
   version="1.1"
   inkscape:version="0.47+devel r9455"
   sodipodi:docname="igabe2010may31-0046.svg">
  <defs
     id="defs4">
    <marker
       inkscape:stockid="Arrow1Lstart"
       orient="auto"
       refY="0.0"
       refX="0.0"
       id="Arrow1Lstart"
       style="overflow:visible">
      <path
         id="path3995"
         d="M 0.0,0.0 L 5.0,-5.0 L -12.5,0.0 L 5.0,5.0 L 0.0,0.0 z "
         style="fill-rule:evenodd;stroke:#000000;stroke-width:1.0pt;marker-start:none"
         transform="scale(0.8) translate(12.5,0)" />
    </marker>
  </defs>
  <sodipodi:namedview
     id="base"
     pagecolor="#ffffff"
     bordercolor="#666666"
     borderopacity="1.0"
     inkscape:pageopacity="0.0"
     inkscape:pageshadow="2"
     inkscape:zoom="1"
     inkscape:cx="320.7635"
     inkscape:cy="815"
     inkscape:document-units="px"
     inkscape:current-layer="g3765"
     showgrid="false"
     inkscape:window-width="1276"
     inkscape:window-height="756"
     inkscape:window-x="0"
     inkscape:window-y="0"
     inkscape:window-maximized="0" />
  <metadata
     id="metadata7">
    <rdf:RDF>
      <cc:Work
         rdf:about="">
        <dc:format>image/svg+xml</dc:format>
        <dc:type
           rdf:resource="http://purl.org/dc/dcmitype/StillImage" />
        <dc:title></dc:title>
      </cc:Work>
    </rdf:RDF>
  </metadata>
  <g
     inkscape:label="Layer 1"
     inkscape:groupmode="layer"
     id="layer1">
    <rect
       id="rect2955"
       width="311.23727"
       height="108.6673"
       x="72.881363"
       y="1.2111977"
       style="fill:none;stroke:#000000;stroke-width:0.33824775;stroke-opacity:1" />
    <rect
       style="fill:none;stroke:#000000;stroke-width:0.33824775;stroke-opacity:1"
       y="121.2112"
       x="72.881363"
       height="108.6673"
       width="311.23727"
       id="rect3733" />
    <rect
       id="rect3735"
       width="311.23727"
       height="108.6673"
       x="72.881363"
       y="241.21118"
       style="fill:none;stroke:#000000;stroke-width:0.33824775;stroke-opacity:1" />
    <g
       id="g3765"
       style="fill:#000e26;fill-opacity:1;stroke:#237887;stroke-opacity:1;stroke-width:3;stroke-miterlimit:4;stroke-dasharray:none;stroke-linejoin:round;stroke-linecap:butt">
      <path
         style="fill:#000e26;fill-opacity:1;stroke:#237887;stroke-width:3;stroke-linecap:butt;stroke-linejoin:round;stroke-miterlimit:4;stroke-opacity:1;stroke-dasharray:none"
         d="m 88.500527,54.844142 c 4.64394,-7.310205 2.970964,-17.686543 9.7626,-23.72681 12.514093,-3.835665 9.756683,16.565151 1.003738,19.989445 -3.113527,2.400296 -6.988152,3.134848 -10.766338,3.737365 z"
         id="path3739"
         inkscape:connector-curvature="0" />
      <path
         style="fill:#000e26;fill-opacity:1;stroke:#237887;stroke-width:3;stroke-linecap:butt;stroke-linejoin:round;stroke-miterlimit:4;stroke-opacity:1;stroke-dasharray:none"
         d="m 155.57719,40.632598 c -6.18888,17.152546 -34.83926,19.095022 -42.41466,2.202684 -3.53094,-10.964351 5.40571,-23.72058 16.89601,-24.226692 8.42533,-6.770326 24.47487,10.912201 9.42819,11.497565 -8.03992,-3.936234 -19.69226,-0.05248 -11.45958,9.397008 6.0662,9.413353 20.38823,8.921359 27.55004,1.129435 z"
         id="path3741"
         inkscape:connector-curvature="0" />
      <path
         style="fill:#000e26;fill-opacity:1;stroke:#237887;stroke-width:3;stroke-linecap:butt;stroke-linejoin:round;stroke-miterlimit:4;stroke-opacity:1;stroke-dasharray:none"
         d="m 158.6182,18.468511 c -5.34733,22.39899 5.93877,46.27999 -3.89974,67.969762 -4.93158,10.429132 -18.34453,20.774557 -29.55888,12.931727 -6.28628,-8.586842 6.12127,-12.107889 11.81497,-6.811007 11.99455,-0.897822 9.19909,-16.853473 9.09537,-25.390515 -0.67145,-13.309117 -4.6332,-27.511369 0.78912,-40.275137 2.54219,-4.260766 6.90051,-7.401058 11.75916,-8.42483 z"
         id="path3743"
         inkscape:connector-curvature="0" />
      <path
         style="fill:#000e26;fill-opacity:1;stroke:#237887;stroke-width:3;stroke-linecap:butt;stroke-linejoin:round;stroke-miterlimit:4;stroke-opacity:1;stroke-dasharray:none"
         d="m 176.69537,13.575874 c 14.95056,-2.946377 27.75347,10.827507 30.38394,24.537002 4.58026,8.068753 1.90364,27.359815 -10.69428,19.080856 -10.46996,-9.013345 -2.59685,-26.165203 -13.06045,-35.120236 -3.78292,-1.459347 -22.75918,-1.274748 -11.52545,-4.872067 0.63208,-0.208518 4.26416,-3.417036 4.89624,-3.625555 z"
         id="path3745"
         inkscape:connector-curvature="0"
         sodipodi:nodetypes="cccccc" />
      <path
         style="fill:#000e26;fill-opacity:1;stroke:#237887;stroke-width:3;stroke-linecap:butt;stroke-linejoin:round;stroke-miterlimit:4;stroke-opacity:1;stroke-dasharray:none"
         d="m 180.51233,39.728121 c -4.47068,2.278178 6.94193,10.547656 11.18153,11.255896 5.41604,9.24232 -12.72698,11.857019 -17.94706,5.697645 -7.42811,-4.563679 -10.36584,-17.996499 -0.98928,-22.066859 4.01246,-4.964272 20.89847,-1.903752 10.24661,3.824833 -0.82105,0.449295 -1.63882,0.901492 -2.4918,1.288485 z"
         id="path3749"
         inkscape:connector-curvature="0" />
      <path
         style="fill:#000e26;fill-opacity:1;stroke:#237887;stroke-width:3;stroke-linecap:butt;stroke-linejoin:round;stroke-miterlimit:4;stroke-opacity:1;stroke-dasharray:none"
         d="m 228.90771,23.038695 c 12.64592,-5.840582 31.38797,0.111951 34.44513,14.753633 -1.63879,11.550119 -22.62425,20.532286 -33.84976,19.429765 -8.56345,-1.688501 2.8499,-13.098466 11.05743,-8.16031 13.78916,1.631973 12.22128,-17.458203 0.34554,-18.326438 -4.50381,-0.305504 -20.5449,1.032344 -14.42131,-6.405412 l 1.21111,-0.658843 1.21186,-0.632395 z"
         id="path3755"
         inkscape:connector-curvature="0"
         sodipodi:nodetypes="ccccccccc" />
      <path
         style="fill:#000e26;fill-opacity:1;stroke:#237887;stroke-width:3;stroke-linecap:butt;stroke-linejoin:round;stroke-miterlimit:4;stroke-opacity:1;stroke-dasharray:none"
         d="m 216.43006,56.872412 c 3.42755,-15.692921 -4.84607,-33.579471 5.43051,-47.6788608 8.08328,-10.00873843 9.81682,7.0502898 8.96876,12.9078838 0.5079,12.478615 -1.13868,29.325486 -14.39927,34.770977 z"
         id="path3753"
         inkscape:connector-curvature="0" />
      <path
         style="fill:#000e26;fill-opacity:1;stroke:#237887;stroke-width:3;stroke-linecap:butt;stroke-linejoin:round;stroke-miterlimit:4;stroke-opacity:1;stroke-dasharray:none"
         d="m 283.48767,35.996244 c 6.46615,1.517638 14.46758,2.523352 20.39081,-0.479238 -7.43343,0.485055 -25.99369,-9.972493 -24.18109,3.957734 3.09087,11.952383 16.66531,9.479266 24.89365,12.122521 -4.09592,6.62144 -13.88158,8.388737 -21.27999,7.085078 -9.18762,-1.430441 -19.01923,-10.507272 -15.16987,-20.432922 5.358,-13.42392 22.0137,-16.917274 34.90426,-14.541229 12.13087,0.09495 14.98169,17.913285 1.79279,19.562149 -9.3035,3.012489 -19.47601,3.151194 -29.05041,1.953814 -7.44232,-3.126695 5.6654,-7.427673 7.69985,-9.227907 z"
         id="path3763"
         inkscape:connector-curvature="0" />
      <path
         inkscape:connector-curvature="0"
         id="path5052"
         d="m 104.75361,24.844142 c -4.64394,-7.310205 -2.97096,-17.686543 -9.762598,-23.72681 -12.514093,-3.835665 -9.756683,16.565151 -1.003738,19.989445 3.113527,2.400296 6.988156,3.134848 10.766336,3.737365 z"
         style="fill:#000e26;fill-opacity:1;stroke:#237887;stroke-width:3;stroke-linecap:butt;stroke-linejoin:round;stroke-miterlimit:4;stroke-opacity:1;stroke-dasharray:none" />
    </g>
  </g>
</svg>
